<?xml version="1.0"?>
<svg xmlns="http://www.w3.org/2000/svg" xmlns:xlink="http://www.w3.org/1999/xlink" height="1603.4499130249023" version="1.1" width="915.5200366973877" id="temp" viewBox="0 0 915.5200366973877 1603.4499130249023"><desc>Powered by CubiCasa</desc><defs/><g id="Model" class="Model v1-1"><g class="Floor"><g id="Floor-1" class="Floorplan Floor-1"><g id="144369b3-6df5-4ba8-9ae6-d196397258f9" fill="#ffffff" stroke="#ffffff" style="fill-opacity: 1; stroke-opacity: 1; stroke-width: 0.2;" class="Space Kitchen"><polygon points="892.00,794.00 891.52,1120.08 420.29,1120.08 420.29,793.00 "/><g transform="matrix(1,0,0,1,420.2899,793.5)" class="Dimension"><g transform="matrix(1,0,0,1,0,0)" style="display: none;" class="Visual"><g id="mark1" fill="#000000" stroke="none" transform="matrix(1,0,0,1,235.854,0)" style="fill-opacity: 1; pointer-events: visible;" class="DimensionMark"><polygon points="-5,5,0,0,5,5"/></g><g id="mark2" fill="#000000" stroke="none" transform="matrix(1,0,0,1,471.4699,163.0396)" style="fill-opacity: 1; pointer-events: visible;" class="DimensionMark"><polygon points="-5,-5,0,0,-5,5"/></g><g id="mark3" fill="#000000" stroke="none" transform="matrix(1,0,0,1,235.854,326.5797)" style="fill-opacity: 1; pointer-events: visible;" class="DimensionMark"><polygon points="-5,-5,0,0,5,-5"/></g><g id="mark4" fill="#000000" stroke="none" transform="matrix(1,0,0,1,0,163.0396)" style="fill-opacity: 1; pointer-events: visible;" class="DimensionMark"><polygon points="5,5,0,0,5,-5"/></g></g><g transform="matrix(1,0,0,1,259.9765,183.7773)" class="SpaceDimensionsLabel"><g id="NameLabel" style="display: block;" class="TextLabel NameLabel"><text x="0" y="0em" fill="#000000" stroke="none" style="font-family: Verdana; font-size: 33px; fill-opacity: 1; cursor: default;">K</text></g><g id="DimensionMeasureLabel" transform="matrix(1,0,0,1,-128.4297,79.3437)" style="display: none;" class="TextLabel DimensionMeasureLabel"><text x="31.6875" y="-1.2em" fill="#000000" stroke="none" style="font-family: Verdana; font-size: 33px; fill-opacity: 1; cursor: default;">15'6" x 10'9"</text><text x="0" y="0em" fill="#000000" stroke="none" style="font-family: Verdana; font-size: 33px; fill-opacity: 1; cursor: default;">4.71 m x 3.27 m</text></g></g></g></g><g id="544d0294-fe99-4f16-960a-f8d7b78517fa" fill="#ffffff" stroke="#ffffff" style="fill-opacity: 1; stroke-opacity: 1; stroke-width: 0.2;" class="Space Room"><polygon points="892.00,794.00 420.29,793.00 420.29,706.66 420.40,706.66 420.40,99.89 891.52,99.89 "/><g transform="matrix(1,0,0,1,420.4009,99.8856)" class="Dimension"><g transform="matrix(1,0,0,1,0,0)" style="display: none;" class="Visual"><g id="mark1" fill="#000000" stroke="none" transform="matrix(1,0,0,1,235.745,0)" style="fill-opacity: 1; pointer-events: visible;" class="DimensionMark"><polygon points="-5,5,0,0,5,5"/></g><g id="mark2" fill="#000000" stroke="none" transform="matrix(1,0,0,1,471.3581,347.0574)" style="fill-opacity: 1; pointer-events: visible;" class="DimensionMark"><polygon points="-5,-5,0,0,-5,5"/></g><g id="mark3" fill="#000000" stroke="none" transform="matrix(1,0,0,1,235.745,693.6144)" style="fill-opacity: 1; pointer-events: visible;" class="DimensionMark"><polygon points="-5,-5,0,0,5,-5"/></g><g id="mark4" fill="#000000" stroke="none" transform="matrix(1,0,0,1,0,347.0574)" style="fill-opacity: 1; pointer-events: visible;" class="DimensionMark"><polygon points="5,5,0,0,5,-5"/></g></g><g transform="matrix(1,0,0,1,220.369,348.5819)" class="SpaceDimensionsLabel"><g id="NameLabel" style="display: block;" class="TextLabel NameLabel"><text x="0" y="0em" fill="#000000" stroke="none" style="font-family: Verdana; font-size: 33px; fill-opacity: 1; cursor: default;">H</text></g><g id="DimensionMeasureLabel" transform="matrix(1,0,0,1,-127.5781,79.3437)" style="display: none;" class="TextLabel DimensionMeasureLabel"><text x="31.6875" y="-1.2em" fill="#000000" stroke="none" style="font-family: Verdana; font-size: 33px; fill-opacity: 1; cursor: default;">15'6" x 22'9"</text><text x="0" y="0em" fill="#000000" stroke="none" style="font-family: Verdana; font-size: 33px; fill-opacity: 1; cursor: default;">4.71 m x 6.94 m</text></g></g></g></g><g id="91aa97d2-b920-4675-b305-3b9fd742674b" fill="#ffffff" stroke="#ffffff" style="fill-opacity: 1; stroke-opacity: 1; stroke-width: 0.2;" class="Space Room"><polygon points="891.52,1579.45 420.29,1579.45 420.29,1141.08 448.28,1141.08 448.28,1120.08 891.52,1120.08 "/><g transform="matrix(1,0,0,1,420.2899,1120.08)" class="Dimension"><g transform="matrix(1,0,0,1,0,0)" style="display: none;" class="Visual"><g id="mark1" fill="#000000" stroke="none" transform="matrix(1,0,0,1,235.6141,0)" style="fill-opacity: 1; pointer-events: visible;" class="DimensionMark"><polygon points="-5,5,0,0,5,5"/></g><g id="mark2" fill="#000000" stroke="none" transform="matrix(1,0,0,1,471.2282,229.6845)" style="fill-opacity: 1; pointer-events: visible;" class="DimensionMark"><polygon points="-5,-5,0,0,-5,5"/></g><g id="mark3" fill="#000000" stroke="none" transform="matrix(1,0,0,1,235.6141,459.3689)" style="fill-opacity: 1; pointer-events: visible;" class="DimensionMark"><polygon points="-5,-5,0,0,5,-5"/></g><g id="mark4" fill="#000000" stroke="none" transform="matrix(1,0,0,1,0,229.6845)" style="fill-opacity: 1; pointer-events: visible;" class="DimensionMark"><polygon points="5,5,0,0,5,-5"/></g></g><g transform="matrix(1,0,0,1,219.4267,250.1999)" class="SpaceDimensionsLabel"><g id="NameLabel" style="display: block;" class="TextLabel NameLabel"><text x="0" y="0em" fill="#000000" stroke="none" style="font-family: Verdana; font-size: 33px; fill-opacity: 1; cursor: default;">H</text></g><g id="DimensionMeasureLabel" transform="matrix(1,0,0,1,-127.5782,79.3438)" style="display: none;" class="TextLabel DimensionMeasureLabel"><text x="31.6875" y="-1.2em" fill="#000000" stroke="none" style="font-family: Verdana; font-size: 33px; fill-opacity: 1; cursor: default;">15'6" x 15'1"</text><text x="0" y="0em" fill="#000000" stroke="none" style="font-family: Verdana; font-size: 33px; fill-opacity: 1; cursor: default;">4.71 m x 4.59 m</text></g></g></g></g><g id="3d2c9907-7e39-4dcc-8a39-fcea3257b021" fill="#ffffff" stroke="#ffffff" style="fill-opacity: 1; stroke-opacity: 1; stroke-width: 0.2;" class="Space Entry Lobby"><polygon points="420.29,1120.08 376.17,1120.08 376.17,1087.55 353.17,1087.55 353.17,1120.08 24.42,1120.08 24.42,975.83 325.05,975.83 325.05,817.12 420.29,817.12 "/><g transform="matrix(1,0,0,1,24.4207,817.1153)" class="Dimension"><g transform="matrix(1,0,0,1,0,0)" style="display: none;" class="Visual"><g id="mark1" fill="#000000" stroke="none" transform="matrix(1,0,0,1,300.6332,0)" style="fill-opacity: 1; pointer-events: visible;" class="DimensionMark"><polygon points="-5,5,0,0,5,5"/></g><g id="mark2" fill="#000000" stroke="none" transform="matrix(1,0,0,1,395.8691,158.7153)" style="fill-opacity: 1; pointer-events: visible;" class="DimensionMark"><polygon points="-5,-5,0,0,-5,5"/></g><g id="mark3" fill="#000000" stroke="none" transform="matrix(1,0,0,1,300.6332,302.9642)" style="fill-opacity: 1; pointer-events: visible;" class="DimensionMark"><polygon points="-5,-5,0,0,5,-5"/></g><g id="mark4" fill="#000000" stroke="none" transform="matrix(1,0,0,1,0,158.7153)" style="fill-opacity: 1; pointer-events: visible;" class="DimensionMark"><polygon points="5,5,0,0,5,-5"/></g></g><g transform="matrix(1,0,0,1,174.8617,235.9024)" class="SpaceDimensionsLabel"><g id="NameLabel" style="display: block;" class="TextLabel NameLabel"><text x="0" y="0em" fill="#000000" stroke="none" style="font-family: Verdana; font-size: 33px; fill-opacity: 1; cursor: default;">ET</text></g><g id="DimensionMeasureLabel" transform="matrix(1,0,0,1,-118.6406,79.3437)" style="display: none;" class="TextLabel DimensionMeasureLabel"><text x="31.6875" y="-1.2em" fill="#000000" stroke="none" style="font-family: Verdana; font-size: 33px; fill-opacity: 1; cursor: default;">13'0" x 9'11"</text><text x="0" y="0em" fill="#000000" stroke="none" style="font-family: Verdana; font-size: 33px; fill-opacity: 1; cursor: default;">3.96 m x 3.03 m</text></g></g></g></g><g id="ae716b49-880f-4113-874f-71db6c029b3b" fill="#ffffff" stroke="#ffffff" style="fill-opacity: 1; stroke-opacity: 1; stroke-width: 0.2;" class="Space Bath"><polygon points="315.05,965.83 24.42,965.83 24.42,817.12 315.05,817.12 "/><g transform="matrix(1,0,0,1,24.4207,817.1153)" class="Dimension"><g transform="matrix(1,0,0,1,0,0)" style="display: none;" class="Visual"><g id="mark1" fill="#000000" stroke="none" transform="matrix(1,0,0,1,145.3166,0)" style="fill-opacity: 1; pointer-events: visible;" class="DimensionMark"><polygon points="-5,5,0,0,5,5"/></g><g id="mark2" fill="#000000" stroke="none" transform="matrix(1,0,0,1,290.6332,74.3576)" style="fill-opacity: 1; pointer-events: visible;" class="DimensionMark"><polygon points="-5,-5,0,0,-5,5"/></g><g id="mark3" fill="#000000" stroke="none" transform="matrix(1,0,0,1,145.3166,148.7153)" style="fill-opacity: 1; pointer-events: visible;" class="DimensionMark"><polygon points="-5,-5,0,0,5,-5"/></g><g id="mark4" fill="#000000" stroke="none" transform="matrix(1,0,0,1,0,74.3576)" style="fill-opacity: 1; pointer-events: visible;" class="DimensionMark"><polygon points="5,5,0,0,5,-5"/></g></g><g transform="matrix(1,0,0,1,137.6233,110.2598)" class="SpaceDimensionsLabel"><g id="NameLabel" style="display: block;" class="TextLabel NameLabel"><text x="0" y="0em" fill="#000000" stroke="none" style="font-family: Verdana; font-size: 33px; fill-opacity: 1; cursor: default;">KPH</text></g><g id="DimensionMeasureLabel" transform="matrix(1,0,0,1,-106.2031,79.3438)" style="display: none;" class="TextLabel DimensionMeasureLabel"><text x="42.171875" y="-1.2em" fill="#000000" stroke="none" style="font-family: Verdana; font-size: 33px; fill-opacity: 1; cursor: default;">9'6" x 4'11"</text><text x="0" y="0em" fill="#000000" stroke="none" style="font-family: Verdana; font-size: 33px; fill-opacity: 1; cursor: default;">2.91 m x 1.49 m</text></g></g></g></g><g id="fbc2a6bc-c1cf-44c1-a173-cb75e6f6a4df" fill="#ffffff" stroke="#ffffff" style="fill-opacity: 1; stroke-opacity: 1; stroke-width: 0.2;" class="Space Undefined"><polygon points="409.30,806.12 267.72,806.12 267.72,706.66 409.30,706.66 "/><g transform="matrix(1,0,0,1,267.7197,706.664)" class="Dimension"><g transform="matrix(1,0,0,1,0,0)" style="display: none;" class="Visual"><g id="mark1" fill="#000000" stroke="none" transform="matrix(1,0,0,1,70.7878,0)" style="fill-opacity: 1; pointer-events: visible;" class="DimensionMark"><polygon points="-5,5,0,0,5,5"/></g><g id="mark2" fill="#000000" stroke="none" transform="matrix(1,0,0,1,141.5757,49.7256)" style="fill-opacity: 1; pointer-events: visible;" class="DimensionMark"><polygon points="-5,-5,0,0,-5,5"/></g><g id="mark3" fill="#000000" stroke="none" transform="matrix(1,0,0,1,70.7878,99.4513)" style="fill-opacity: 1; pointer-events: visible;" class="DimensionMark"><polygon points="-5,-5,0,0,5,-5"/></g><g id="mark4" fill="#000000" stroke="none" transform="matrix(1,0,0,1,0,49.7256)" style="fill-opacity: 1; pointer-events: visible;" class="DimensionMark"><polygon points="5,5,0,0,5,-5"/></g></g><g transform="matrix(1,0,0,1,49.7257,49.7257)" class="SpaceDimensionsLabel"><g id="NameLabel" style="display: block;" class="TextLabel NameLabel"><text x="0" y="0em" fill="#000000" stroke="none" style="font-family: Verdana; font-size: 33px; fill-opacity: 1; cursor: default;">UNDEFINED</text></g><g id="DimensionMeasureLabel" transform="matrix(1,0,0,1,-40.5235,79.7344)" style="display: none;" class="TextLabel DimensionMeasureLabel"><text x="52.671875" y="-1.2em" fill="#000000" stroke="none" style="font-family: Verdana; font-size: 33px; fill-opacity: 1; cursor: default;">4'8" x 3'3"</text><text x="0" y="0em" fill="#000000" stroke="none" style="font-family: Verdana; font-size: 33px; fill-opacity: 1; cursor: default;">1.42 m x 0.99 m</text></g></g></g></g><g id="Wall" fill="#000000" stroke="#000000" style="fill-opacity: 1; stroke-opacity: 1; stroke-width: 0.2;" class="Wall External"><polygon points="397.40,75.89 397.40,683.66 420.40,706.66 420.40,99.89 "/></g><g id="Wall" fill="#000000" stroke="#000000" style="fill-opacity: 1; stroke-opacity: 1; stroke-width: 0.2;" class="Wall External"><polygon points="420.40,706.66 267.72,706.66 244.72,683.66 397.40,683.66 "/></g><g id="Wall" fill="#000000" stroke="#000000" style="fill-opacity: 1; stroke-opacity: 1; stroke-width: 0.2;" class="Wall External"><polygon points="267.72,706.66 267.72,817.12 244.72,794.12 244.72,683.66 "/></g><g id="Wall" fill="#000000" stroke="#000000" style="fill-opacity: 1; stroke-opacity: 1; stroke-width: 0.2;" class="Wall External"><polygon points="267.72,817.12 24.42,817.12 1.42,794.12 244.72,794.12 "/></g><g id="Wall" fill="#000000" stroke="#000000" style="fill-opacity: 1; stroke-opacity: 1; stroke-width: 0.2;" class="Wall External"><polygon points="24.42,817.12 24.42,1120.08 1.42,1143.08 1.42,794.12 "/></g><g id="Wall" fill="#000000" stroke="#000000" style="fill-opacity: 1; stroke-opacity: 1; stroke-width: 0.2;" class="Wall External"><polygon points="1.42,1143.08 397.29,1143.08 420.29,1120.08 24.42,1120.08 "/><g id="Door" fill="#ffffff" stroke="#000000" style="fill-opacity: 1; stroke-width: 1; stroke-opacity: 1;" class="Door Swing Beside"><polygon points="38.28,1143.08 118.12,1143.08 118.12,1120.08 38.28,1120.08 "/><g id="Threshold" class="Threshold"><polygon points="38.28,1143.08 118.12,1143.08 118.12,1120.08 38.28,1120.08 "/></g><g id="Panel" fill="none" style="" class="Panel Right Negative"><g id="PanelArea" fill="none" stroke="none" style="" class="PanelArea"><polygon points="38.28,1143.08 118.12,1143.08 118.12,1120.08 38.28,1120.08 "/></g><path d="M118.12,1143.08 q0.00,79.85 -79.85,79.85 l0.00,-79.85Z"/></g></g></g><g id="Wall" fill="#000000" stroke="#000000" style="fill-opacity: 1; stroke-opacity: 1; stroke-width: 0.2;" class="Wall External"><polygon points="397.29,1143.08 397.29,1603.45 420.29,1579.45 420.29,1120.08 "/></g><g id="Wall" fill="#000000" stroke="#000000" style="fill-opacity: 1; stroke-opacity: 1; stroke-width: 0.2;" class="Wall External"><polygon points="397.29,1603.45 915.52,1603.45 891.52,1579.45 420.29,1579.45 "/><g id="Window" fill="#f0f0ff" stroke="#000000" style="fill-opacity: 1; stroke-width: 1; stroke-opacity: 1;" class="Window Regular"><polygon points="459.05,1603.45 596.86,1603.45 596.86,1579.45 459.05,1579.45 "/><g id="Glass" class="Glass"><polygon points="459.05,1603.45 596.86,1603.45 596.86,1579.45 459.05,1579.45 "/></g><g id="Panel" class="Panel"><line x1="466.5482240040372" x2="589.3626911742506" y1="1591.4488693755002" y2="1591.4488693755002"/><line x1="466.5482240040372" x2="466.5482240040372" y1="1603.4488693755002" y2="1579.4488693755002"/><line x1="589.3626911742506" x2="589.3626911742506" y1="1603.4488693755002" y2="1579.4488693755002"/></g></g></g><g id="Wall" fill="#000000" stroke="#000000" style="fill-opacity: 1; stroke-opacity: 1; stroke-width: 0.2;" class="Wall External"><polygon points="915.52,1603.45 915.52,75.89 891.52,99.89 891.52,1579.45 "/></g><g id="Wall" fill="#000000" stroke="#000000" style="fill-opacity: 1; stroke-opacity: 1; stroke-width: 0.2;" class="Wall External"><polygon points="915.52,75.89 397.40,75.89 420.40,99.89 891.52,99.89 "/><g id="Window" fill="#f0f0ff" stroke="#000000" style="fill-opacity: 1; stroke-width: 1; stroke-opacity: 1;" class="Window Regular"><polygon points="756.87,75.89 551.46,75.89 551.46,99.89 756.87,99.89 "/><g id="Glass" class="Glass"><polygon points="756.87,75.89 551.46,75.89 551.46,99.89 756.87,99.89 "/></g><g id="Panel" class="Panel"><line x1="749.3730087250273" x2="558.959475647509" y1="87.8855827507834" y2="87.88558275078343"/><line x1="749.3730087250273" x2="749.3730087250273" y1="75.8855827507834" y2="99.8855827507834"/><line x1="558.959475647509" x2="558.959475647509" y1="75.88558275078343" y2="99.88558275078343"/></g></g></g><g id="Wall" fill="#000000" stroke="#000000" style="fill-opacity: 1; stroke-opacity: 1; stroke-width: 0.2;" class="Wall"><polygon points="420.35,706.61 420.29,817.12 409.30,806.12 409.35,706.60 "/><g id="Door" fill="#ffffff" stroke="#000000" style="fill-opacity: 1; stroke-width: 1; stroke-opacity: 1;" class="Door Swing Beside"><polygon points="420.34,724.16 420.31,785.58 409.31,785.58 409.34,724.16 "/><g id="Threshold" class="Threshold"><polygon points="420.34,724.16 420.31,785.58 409.31,785.58 409.34,724.16 "/></g><g id="Panel" fill="none" style="" class="Panel Right Negative"><g id="PanelArea" fill="none" stroke="none" style="" class="PanelArea"><polygon points="420.34,724.16 420.31,785.58 409.31,785.58 409.34,724.16 "/></g><path d="M420.31,785.58 q61.42,0.03 61.45,-61.39 l-61.42,-0.03Z"/></g></g></g><g id="Wall" fill="#000000" stroke="#000000" style="fill-opacity: 1; stroke-opacity: 1; stroke-width: 0.2;" class="Wall"><polygon points="420.29,817.12 267.72,817.12 267.72,806.12 409.30,806.12 "/></g><g id="Wall" fill="#000000" stroke="#000000" style="fill-opacity: 1; stroke-opacity: 1; stroke-width: 0.2;" class="Wall"><polygon points="528.88,794.12 580.60,794.12 580.60,818.12 528.88,818.12 "/></g><g id="Railing" fill="#ffffff" stroke="#000000" style="fill-opacity: 1; stroke-opacity: 1; stroke-width: 0.2;" class="Railing"><polygon points="580.60,794.12 835.95,794.12 835.95,818.12 580.60,818.12 " style="stroke-dasharray: 0;"/></g><g id="Wall" fill="#000000" stroke="#000000" style="fill-opacity: 1; stroke-opacity: 1; stroke-width: 0.2;" class="Wall"><polygon points="835.95,794.12 891.52,794.12 891.52,818.12 835.95,818.12 "/></g><g id="Wall" fill="#000000" stroke="#000000" style="fill-opacity: 1; stroke-opacity: 1; stroke-width: 0.2;" class="Wall"><polygon points="545.44,818.12 545.44,894.68 567.44,894.68 567.44,818.12 "/></g><g id="Wall" fill="#000000" stroke="#000000" style="fill-opacity: 1; stroke-opacity: 1; stroke-width: 0.2;" class="Wall"><polygon points="891.52,1126.31 549.83,1126.31 549.83,1101.31 891.52,1101.31 "/></g><g id="Wall" fill="#000000" stroke="#000000" style="fill-opacity: 1; stroke-opacity: 1; stroke-width: 0.2;" class="Wall"><polygon points="420.29,1120.08 448.28,1120.08 448.28,1141.08 420.29,1141.08 "/></g><g id="Wall" fill="#000000" stroke="#000000" style="fill-opacity: 1; stroke-opacity: 1; stroke-width: 0.2;" class="Wall"><polygon points="353.17,1120.08 353.17,1087.55 376.17,1087.55 376.17,1120.08 "/></g><g id="Wall" fill="#000000" stroke="#000000" style="fill-opacity: 1; stroke-opacity: 1; stroke-width: 0.2;" class="Wall"><polygon points="24.42,975.83 325.05,975.83 315.05,965.83 24.42,965.83 "/><g id="Door" fill="#ffffff" stroke="#000000" style="fill-opacity: 1; stroke-width: 1; stroke-opacity: 1;" class="Door Swing Beside"><polygon points="125.80,975.83 192.59,975.83 192.59,965.83 125.80,965.83 "/><g id="Threshold" class="Threshold"><polygon points="125.80,975.83 192.59,975.83 192.59,965.83 125.80,965.83 "/></g><g id="Panel" fill="none" style="" class="Panel Right Negative"><g id="PanelArea" fill="none" stroke="none" style="" class="PanelArea"><polygon points="125.80,975.83 192.59,975.83 192.59,965.83 125.80,965.83 "/></g><path d="M192.59,975.83 q0.00,66.79 -66.79,66.79 l0.00,-66.79Z"/></g></g></g><g id="Wall" fill="#000000" stroke="#000000" style="fill-opacity: 1; stroke-opacity: 1; stroke-width: 0.2;" class="Wall"><polygon points="325.05,975.83 325.05,817.12 315.05,817.12 315.05,965.83 "/></g><g id="FixedFurnitureSet" transform="matrix(1,0,0,1,133.0209,817.1778)" class="FixedFurnitureSet" fill="#ffffff" stroke="#000000" style="fill-opacity: 0.4; stroke-opacity: 0.4;"><g class="FixedFurniture BaseCabinet" fill="#ffffff" stroke="#000000" transform="matrix(1,0,0,1,0,0)" style="fill-opacity: 1; stroke-opacity: 1;">
        <g class="BoundaryPolygon">
            <polygon points="0.00,0.00 60.00,0.00 60.00,38.77 0.00,38.77 "/>
        </g>
        <g class="Direction" fill-opacity="0.9" style="display: none;">
            <polygon points="32.01,35.67 32.01,25.05 29.00,25.05 29.00,35.67 25.20,35.67 30.50,40.47 35.80,35.67 32.01,35.67 " fill="#444444"/>
        </g> 
        <g class="Name" fill-opacity="0.9" style="display: none;">
            <text transform="translate(3 12)" font-size="12" font-family="Verdana, Sans-Serif">CB</text>
        </g>
        <desc>Width:60 Height:5 Depth:60 Elevation:105</desc>
    </g><g class="FixedFurniture Sink" fill="#ffffff" stroke="#000000" transform="matrix(1,0,0,1,0,0)" style="fill-opacity: 1; stroke-opacity: 1;">
        <g class="BoundaryPolygon" fill="none" stroke="none">
        <polygon points="0.00,0.00 60.00,0.00 60.00,38.77 0.00,38.77 "/>
        </g>
        <g class="InnerPolygon">
            <polygon points="5.00,9.70 55.00,9.70 55.00,35.35 5.00,35.35 "/>
        </g>
        <g class="OuterDrain" stroke-width="0.8">
            <circle cx="30" cy="20.806851600161014" r="3.5"/>
        </g>
        <g class="InnerDrain" stroke-width="0.8">
            <circle cx="30" cy="20.806851600161014" r="2"/>
        </g>
        <g class="Faucet">
            <polygon points="27.00,3.23 33.00,3.23 33.00,17.23 27.00,17.23 "/>
        </g>
        <g class="Direction" fill-opacity="0.9" style="display: none;">
            <polygon points="32.01,35.67 32.01,25.05 29.00,25.05 29.00,35.67 25.20,35.67 30.50,40.47 35.80,35.67 32.01,35.67 " fill="#444444"/>
        </g> 
        <g class="Name" fill-opacity="0.9" style="display: none;">
            <text transform="translate(3 12)" font-size="12" font-family="Verdana, Sans-Serif">SINK</text>
        </g>
        <desc>Width:60 Height:90 Depth:60 Elevation:0</desc>
    </g></g><g class="FixedFurniture ElectricalAppliance SpaceForAppliance2" fill="#ffffff" stroke="#000000" stroke-dasharray="4,4" transform="matrix(0,-1,1,0,24.4833,965.8306)" style="fill-opacity: 1; stroke-opacity: 1;">
	    <g class="BoundaryPolygon"> 
		    <polygon points="0,0 60,0 60,60 0,60"/>
		</g>	
	    <g class="electricitySign" fill="none">
            <path d="M0,0,30.1,39.8V19.4L59.9,60"/>
		</g>
        <g class="Direction" fill-opacity="0.9" style="display: none;">
            <polygon points="32.009 55.197 32.009 44.581 29 44.581 29 55.197 25.197 55.197 30.5 60 35.803 55.197 32.009 55.197" fill="#444444"/>
        </g> 
        <g class="Name" fill-opacity="0.9" stroke-dasharray="none" style="display: none;">
            <text transform="translate(3 12)" font-size="12" font-family="Verdana, Sans-Serif">SFA</text>
        </g>
        <desc>Width:60 Height:90 Depth:60 Elevation:0</desc>
	</g><g class="FixedFurniture Toilet" fill="#ffffff" stroke="#000000" transform="matrix(0,-1,1,0,24.4207,878.5446)" style="fill-opacity: 1; stroke-opacity: 1;">
	   <g class="BoundaryPolygon" fill="none" stroke="none"> 
            <polygon points="0,0 41,0 41,71 0,71"/>
		</g>
        <g class="InnerPolygon">
            <rect x="0.502" y="0.5" width="39.989" height="17.98"/>
            <path d="M40.491,44.237S41.619,70.5,20.907,70.5C-.523,70.5.6,44.237.6,44.237L.5,18.48H40.491Z"/>
            <rect x="17.318" y="7.975" width="6.357" height="3.03"/>
        </g>
        <desc>Width:41 Height:85 Depth:71 Elevation:0</desc>
    </g><g class="FixedFurniture Shower" fill="#ffffff" stroke="#000000" transform="matrix(1,0,0,1,260.1796,817.1153)" style="fill-opacity: 1; stroke-opacity: 1;"> 
	    <g class="BoundaryPolygon" fill="none" stroke="none">
            <polygon points="0,0 32,0 32,19 0,19"/>
        </g>
        <g class="InnerPolygon"> 
			<rect x="3.7" y="0.5" width="11.2" height="6.1"/>
			<rect x="17.6" y="0.5" width="11.2" height="6.1"/>
			<rect x="28.7" y="0.5" width="3.4" height="6.1"/>
			<rect x="0.5" y="0.5" width="3.2" height="6.1"/>
			<path d="M14.9,8.5c0,1.5-0.4,3.3-1.6,5    c-0.4,0.6-1,1.1-1.1,1.7c-0.2,1.1,0.3,2.8,2.5,3.2c0.5,0.1,1.3,0.1,1.6,0.1h-0.1c0.3,0,1.1,0,1.6-0.1c2.2-0.4,2.7-2.1,2.5-3.2    c-0.1-0.6-0.7-1.1-1.1-1.7c-1.2-1.7-1.6-3.5-1.6-5"/>
			<path d="M12.2,15.3c0.1,0.2,1.6,1.9,4.2,1.9 c2.4-0.1,3.7-1.7,3.9-1.9"/>
			<path d="M14.9,0.5h2.7v8c-0.9,0-1.8,0-2.7,0l0,0 C14.9,5.9,14.9,3.2,14.9,0.5z"/>
		</g>
	    <g class="Indicator"> 
			<path d="M3.7,3.6C5,3.1,5.2,3,5.2,3 c0,1.1,0,0,0,1.1C5.2,4.1,5.1,4.1,3.7,3.6"/>
			<path d="M28.7,3.6 C27.4,3.1,27.2,3,27.2,3c0,1.1,0,0,0,1.1C27.2,4.1,27.3,4.1,28.7,3.6"/>	
		</g>
        <desc>Width:32 Height:97 Depth:19 Elevation:135</desc>
	</g><g class="FixedFurniture Closet" fill="#ffffff" stroke="#000000" transform="matrix(0,-1,1,0,325.1164,975.2353)" style="fill-opacity: 1; stroke-opacity: 1;">
        <g class="BoundaryPolygon">
            <polygon points="0.00,0.00 158.12,0.00 158.12,60.00 0.00,60.00 "/>
        </g>
        <g class="Direction" fill-opacity="0.9" style="display: none;">
            <polygon points="83.04,54.70 83.04,44.08 80.03,44.08 80.03,54.70 76.23,54.70 81.53,60.00 86.83,54.70 83.04,54.70 " fill="#444444"/>
        </g> 
        <g class="Name" fill-opacity="0.9" style="display: none;">
            <text transform="translate(3 12)" font-size="12" font-family="Verdana, Sans-Serif">CL</text>
        </g>
        <desc>Width:60 Height:200 Depth:60 Elevation:0</desc>
     </g><g class="FixedFurniture Closet" fill="#ffffff" stroke="#000000" transform="matrix(-1,0,0,-1,353.1681,1120.017)" style="fill-opacity: 1; stroke-opacity: 1;">
        <g class="BoundaryPolygon">
            <polygon points="0.00,0.00 204.83,0.00 204.83,31.43 0.00,31.43 "/>
        </g>
        <g class="Direction" fill-opacity="0.9" style="display: none;">
            <polygon points="107.56,28.65 107.56,18.04 104.56,18.04 104.56,28.65 100.75,28.65 106.06,33.96 111.36,28.65 107.56,28.65 " fill="#444444"/>
        </g> 
        <g class="Name" fill-opacity="0.9" style="display: none;">
            <text transform="translate(3 12)" font-size="12" font-family="Verdana, Sans-Serif">CL</text>
        </g>
        <desc>Width:60 Height:200 Depth:60 Elevation:0</desc>
     </g><g id="Column" fill="#000000" stroke="none" style="fill-opacity: 1;" class="Column Rectangle"><polygon points="376.17,1120.08 448.28,1120.08 448.28,1099.92 376.17,1099.92 "/></g><g class="FixedFurniture ElectricalAppliance Refrigerator" fill="#ffffff" stroke="#000000" transform="matrix(-1,0,0,-1,623.3794,1101.29)" style="fill-opacity: 1; stroke-opacity: 1;">
        <g class="BoundaryPolygon">
            <polygon points="0,0 60,0 60,60 0,60"/>
        </g>
        <g class="electricitySign" fill="none">
            <path d="M0,0,30,37.1v-18L60,56.3"/>
        </g>
        <g class="Doors">
            <rect y="56" width="60" height="4"/>
        </g>
        <g class="Direction" fill-opacity="0.9" style="display: none;">
            <polygon points="32.009 55.197 32.009 44.581 29 44.581 29 55.197 25.197 55.197 30.5 60 35.803 55.197 32.009 55.197" fill="#444444"/>
        </g> 
        <g class="Name" fill-opacity="0.9" style="display: none;">
            <text transform="translate(3 12)" font-size="12" font-family="Verdana, Sans-Serif">REF</text>
        </g>
        <desc>Width:60 Height:170 Depth:60 Elevation:0</desc>
    </g><g transform="matrix(1,0,0,1,623.3794,1041.2744)" class="FixedFurniture BaseCabinet" fill="#ffffff" stroke="#000000" style="fill-opacity: 1; stroke-opacity: 1;"><desc>Width:60 Height:90 Depth:60 Elevation:0</desc><g class="BoundaryPolygon"><polygon points="0.00,0.00 208.01,0.00 208.01,-167.28 -55.94,-167.28 -55.94,-223.16 268.14,-223.16 268.14,60.03 0.00,60.02 0.00,0.00 "/></g></g><g class="FixedFurniture ElectricalAppliance SpaceForAppliance2" fill="#ffffff" stroke="#000000" stroke-dasharray="4,4" transform="matrix(-0.9201,0,0,-1,749.7668,1101.2744)" style="fill-opacity: 1; stroke-opacity: 1;">
	    <g class="BoundaryPolygon"> 
		    <polygon points="0,0 60,0 60,60 0,60"/>
		</g>	
	    <g class="electricitySign" fill="none">
            <path d="M0,0,30.1,39.8V19.4L59.9,60"/>
		</g>
        <g class="Direction" fill-opacity="0.9" style="display: none;">
            <polygon points="32.009 55.197 32.009 44.581 29 44.581 29 55.197 25.197 55.197 30.5 60 35.803 55.197 32.009 55.197" fill="#444444"/>
        </g> 
        <g class="Name" fill-opacity="0.9" stroke-dasharray="none" style="display: none;">
            <text transform="translate(3 12)" font-size="12" font-family="Verdana, Sans-Serif">SFA</text>
        </g>
        <desc>Width:60 Height:90 Depth:60 Elevation:0</desc>
	</g><g class="FixedFurniture Sink" fill="#ffffff" stroke="#000000" transform="matrix(-1,0,0,-1,811.8969,1101.3058)" style="fill-opacity: 1; stroke-opacity: 1;">
        <g class="BoundaryPolygon" fill="none" stroke="none">
            <polygon points="0.00,0.00 62.13,0.00 62.13,60.00 0.00,60.00 "/>
        </g>
        <g class="InnerPolygon">
            <polygon points="5.18,9.70 56.95,9.70 56.95,54.70 5.18,54.70 "/>
        </g>
        <g class="OuterDrain" stroke-width="0.8">
            <circle cx="31.06558091694448" cy="32.2" r="3.5"/>
        </g>
        <g class="InnerDrain" stroke-width="0.8">
            <circle cx="31.06558091694448" cy="32.2" r="2"/>
        </g>
        <g class="Faucet">
            <polygon points="27.96,5.00 33.96,5.00 33.96,19.00 27.96,19.00 "/>
        </g>
        <g class="Direction" fill-opacity="0.9" style="display: none;">
            <polygon points="33.15,55.20 33.15,44.58 30.14,44.58 30.14,55.20 26.33,55.20 31.64,60.00 36.94,55.20 33.15,55.20 " fill="#444444"/>
        </g> 
        <g class="Name" fill-opacity="0.9" style="display: none;">
            <text transform="translate(3 12)" font-size="12" font-family="Verdana, Sans-Serif">SINK</text>
        </g>
        <desc>Width:60 Height:90 Depth:60 Elevation:0</desc>
    </g><g class="FixedFurniture ElectricalAppliance IntegratedStove" fill="#ffffff" stroke="#000000" transform="matrix(0,1,-1,0,891.5195,929.081)" style="fill-opacity: 1; stroke-opacity: 1;">
        <g class="BoundaryPolygon" fill="none" stroke="none">
            <polygon points="0 0 60 0 60 60 0 60"/>
        </g>
        <g class="InnerPolygon">
            <polygon points="2,2 58,2 58,58 2,58"/>
        </g>
        <g class="OuterCircle">
            <circle cx="16" cy="16" r="8"/>
            <circle cx="44" cy="16" r="8"/>
            <circle cx="16" cy="44" r="8"/>
            <circle cx="44" cy="44" r="8"/>
        </g>
        <g class="Direction" fill-opacity="0.9" style="display: none;">
            <polygon points="32.009 55.197 32.009 44.581 29 44.581 29 55.197 25.197 55.197 30.5 60 35.803 55.197 32.009 55.197" fill="#444444"/>
        </g> 
        <g class="Name" fill-opacity="0.9" style="display: none;">
            <text transform="translate(3 12)" font-size="12" font-family="Verdana, Sans-Serif">INT_STOVE</text>
        </g>
        <desc>Width:60 Height:90 Depth:30 Elevation:0</desc>
    </g><g transform="matrix(1,0,0,1,891.518,818.1153)" style="stroke-opacity: 1; fill-opacity: 0.7;" class="FixedFurniture WallCabinet" fill="#ffffff" stroke="#000000"><desc>Width:60 Height:60 Depth:50 Elevation:140</desc><g class="BoundaryPolygon"><polygon points="0.00,0.00 0.00,283.19 -268.14,283.17 -268.14,256.35 -27.52,256.35 -27.52,0.00 -0.00,-0.00 "/></g></g><g id="Column" fill="#000000" stroke="none" style="fill-opacity: 1;" class="Column FreeShape"><polygon points="409.30,806.12 368.47,806.12 383.54,793.47 409.30,793.47 409.30,806.12 409.30,806.12 "/></g><g class="FixedFurniture Closet" fill="#ffffff" stroke="#000000" transform="matrix(1,0,0,1,587.9781,1126.4776)" style="fill-opacity: 1; stroke-opacity: 1;">
        <g class="BoundaryPolygon">
            <polygon points="0.00,0.00 303.54,0.00 303.54,60.00 0.00,60.00 "/>
        </g>
        <g class="Direction" fill-opacity="0.9" style="display: none;">
            <polygon points="159.40,54.70 159.40,44.08 156.39,44.08 156.39,54.70 152.59,54.70 157.89,60.00 163.20,54.70 159.40,54.70 " fill="#444444"/>
        </g> 
        <g class="Name" fill-opacity="0.9" style="display: none;">
            <text transform="translate(3 12)" font-size="12" font-family="Verdana, Sans-Serif">CL</text>
        </g>
        <desc>Width:60 Height:200 Depth:60 Elevation:0</desc>
     </g><g fill="#0000ff" stroke="#0000ff" style="display: none;" class="SelectionControls"><g style="display: none;" class="rotateControl"><circle cx="652.1071904467651" cy="1306.9517310546876" r="5" style="stroke : none; fill-opacity: 0.5; cursor:crosshair"/></g><g style="display: none;" class="ResizeNControl"><circle cx="0" cy="0" r="5" style="stroke : none; fill-opacity: 0.5"/></g><g style="display: none;" class="ResizeNEControl"><circle cx="0" cy="0" r="5" style="stroke : none; fill-opacity: 0.5"/></g><g style="display: none;" class="ResizeEControl"><circle cx="0" cy="0" r="5" style="stroke : none; fill-opacity: 0.5"/></g><g style="display: none;" class="ResizeSEControl"><circle cx="0" cy="0" r="5" style="stroke : none; fill-opacity: 0.5"/></g><g style="display: none;" class="ResizeSControl"><circle cx="0" cy="0" r="5" style="stroke : none; fill-opacity: 0.5"/></g><g style="display: none;" class="ResizeSWControl"><circle cx="0" cy="0" r="5" style="stroke : none; fill-opacity: 0.5"/></g><g style="display: none;" class="ResizeWControl"><circle cx="0" cy="0" r="5" style="stroke : none; fill-opacity: 0.5"/></g><g style="display: none;" class="ResizeNWControl"><circle cx="0" cy="0" r="5" style="stroke : none; fill-opacity: 0.5"/></g><g style="display: none;" class="removeControl"><polygon style="stroke : none; fill-opacity: 0.1" points="639.72,1336.95 664.50,1336.95 664.50,1376.69 639.72,1376.69 "/></g><g style="display: none;" class="copyPasteControl"><polygon style="stroke : none; fill-opacity: 0.1"/></g><g style="display: none;" class="translateControl"><polygon style="stroke : none; fill-opacity: 0.1; cursor:move" points="639.72,1336.95 664.50,1336.95 664.50,1376.69 639.72,1376.69 "/></g></g><g fill="#0000ff" stroke="#0000ff" style="display: none;" class="SelectionControls"><polygon fill="none" stroke="#0000ff" style="" points="420.29,1120.08 891.52,1120.08 891.52,1579.45 420.29,1579.45 "/><g style="display: none;" class="rotateControl"><circle cx="655.9039706713745" cy="1090.0799560546875" r="5" style="stroke : none; fill-opacity: 0.5; cursor:crosshair"/></g><g style="display: none;" class="ResizeNControl"><circle cx="0" cy="0" r="5" style="stroke : none; fill-opacity: 0.5"/></g><g style="display: none;" class="ResizeNEControl"><circle cx="0" cy="0" r="5" style="stroke : none; fill-opacity: 0.5"/></g><g style="display: none;" class="ResizeEControl"><circle cx="0" cy="0" r="5" style="stroke : none; fill-opacity: 0.5"/></g><g style="display: none;" class="ResizeSEControl"><circle cx="0" cy="0" r="5" style="stroke : none; fill-opacity: 0.5"/></g><g style="display: none;" class="ResizeSControl"><circle cx="0" cy="0" r="5" style="stroke : none; fill-opacity: 0.5"/></g><g style="display: none;" class="ResizeSWControl"><circle cx="0" cy="0" r="5" style="stroke : none; fill-opacity: 0.5"/></g><g style="display: none;" class="ResizeWControl"><circle cx="0" cy="0" r="5" style="stroke : none; fill-opacity: 0.5"/></g><g style="display: none;" class="ResizeNWControl"><circle cx="0" cy="0" r="5" style="stroke : none; fill-opacity: 0.5"/></g><g style="display: none;" class="removeControl"><polygon style="stroke : none; fill-opacity: 0.1"/></g><g style="display: none;" class="copyPasteControl"><polygon style="stroke : none; fill-opacity: 0.1"/></g><g style="display: none;" class="translateControl"><polygon style="stroke : none; fill-opacity: 0.1; cursor:move"/></g></g></g></g></g></svg>
