<?xml version="1.0"?>
<svg xmlns="http://www.w3.org/2000/svg" xmlns:xlink="http://www.w3.org/1999/xlink" height="765.8300170898438" version="1.1" width="834.0100021362305" id="temp" viewBox="0 0 834.0100021362305 765.8300170898438"><desc>Powered by CubiCasa</desc><defs/><g id="Model" class="Model v1-1"><g class="Floor"><g id="Floor-1" transform="matrix(1,0,0,1,0,0)" class="Floorplan Floor-1"><g id="a3cecda5-7ed0-443f-9c04-539f4aa2a29f" class="Space Undefined" fill="#ffffff" stroke="#ffffff" style="fill-opacity: 1; stroke-opacity: 1; stroke-width: 0.2;"><polygon points="810.01,434.84 657.09,434.84 657.09,305.66 810.01,305.66 "/><g transform="matrix(1,0,0,1,657.0945,305.6588)" class="Dimension"><g transform="matrix(1,0,0,1,0,0)" style="display: none;" class="Visual"><g id="mark1" fill="#000000" stroke="none" transform="matrix(1,0,0,1,76.4585,0)" style="fill-opacity: 1; pointer-events: visible;" class="DimensionMark"><polygon points="-5,5,0,0,5,5"/></g><g id="mark2" fill="#000000" stroke="none" transform="matrix(1,0,0,1,152.9171,64.5914)" style="fill-opacity: 1; pointer-events: visible;" class="DimensionMark"><polygon points="-5,-5,0,0,-5,5"/></g><g id="mark3" fill="#000000" stroke="none" transform="matrix(1,0,0,1,76.4585,129.1828)" style="fill-opacity: 1; pointer-events: visible;" class="DimensionMark"><polygon points="-5,-5,0,0,5,-5"/></g><g id="mark4" fill="#000000" stroke="none" transform="matrix(1,0,0,1,0,64.5914)" style="fill-opacity: 1; pointer-events: visible;" class="DimensionMark"><polygon points="5,5,0,0,5,-5"/></g></g><g transform="matrix(1,0,0,1,76.4586,64.5914)" class="SpaceDimensionsLabel"><g id="NameLabel" style="display: none;" class="TextLabel NameLabel"><text x="0" y="0em" fill="#000000" stroke="none" style="font-family: Verdana; font-size: 33px; fill-opacity: 1; cursor: default;">UNDEFINED</text></g><g id="DimensionMeasureLabel" transform="matrix(1,0,0,1,12.1485,39.9062)" style="display: none;" class="TextLabel DimensionMeasureLabel"><text x="0" y="0em" fill="#000000" stroke="none" style="font-family: Verdana; font-size: 33px; fill-opacity: 1; cursor: default;">5'0" x 4'3"</text><text x="0" y="0" fill="#000000" stroke="none" style="font-family: Verdana; font-size: 33px; fill-opacity: 1; cursor: default;"/></g></g></g></g><g id="3f2bdbe8-8e2e-478f-93e2-95104667fd10" class="Space Undefined" fill="#ffffff" stroke="#ffffff" style="fill-opacity: 1; stroke-opacity: 1; stroke-width: 0.2;"><polygon points="810.01,532.95 738.31,532.95 738.31,537.95 810.01,537.95 810.01,691.01 760.29,691.01 760.29,741.83 657.09,741.83 657.09,445.84 810.01,445.84 "/><g transform="matrix(1,0,0,1,657.0945,445.8416)" class="Dimension"><g transform="matrix(1,0,0,1,0,0)" style="display: none;" class="Visual"><g id="mark1" fill="#000000" stroke="none" transform="matrix(1,0,0,1,76.4585,0)" style="fill-opacity: 1; pointer-events: visible;" class="DimensionMark"><polygon points="-5,5,0,0,5,5"/></g><g id="mark2" fill="#000000" stroke="none" transform="matrix(1,0,0,1,152.9171,147.9963)" style="fill-opacity: 1; pointer-events: visible;" class="DimensionMark"><polygon points="-5,-5,0,0,-5,5"/></g><g id="mark3" fill="#000000" stroke="none" transform="matrix(1,0,0,1,76.4585,295.9927)" style="fill-opacity: 1; pointer-events: visible;" class="DimensionMark"><polygon points="-5,-5,0,0,5,-5"/></g><g id="mark4" fill="#000000" stroke="none" transform="matrix(1,0,0,1,0,147.9963)" style="fill-opacity: 1; pointer-events: visible;" class="DimensionMark"><polygon points="5,5,0,0,5,-5"/></g></g><g transform="matrix(1,0,0,1,75.8612,167.8504)" class="SpaceDimensionsLabel"><g id="NameLabel" style="display: none;" class="TextLabel NameLabel"><text x="0" y="0em" fill="#000000" stroke="none" style="font-family: Verdana; font-size: 33px; fill-opacity: 1; cursor: default;">UNDEFINED</text></g><g id="DimensionMeasureLabel" transform="matrix(1,0,0,1,12.1485,39.9062)" style="display: none;" class="TextLabel DimensionMeasureLabel"><text x="0" y="0em" fill="#000000" stroke="none" style="font-family: Verdana; font-size: 33px; fill-opacity: 1; cursor: default;">5'0" x 9'9"</text><text x="0" y="0" fill="#000000" stroke="none" style="font-family: Verdana; font-size: 33px; fill-opacity: 1; cursor: default;"/></g></g></g></g><g id="7c3c3331-15a8-4b89-9f04-32baa7efeff4" class="Space Outdoor Balcony" fill="#ffffff" stroke="#000000" style="stroke-width: 0.2; fill-opacity: 1; stroke-opacity: 1;"><polygon points="411.21,281.66 82.13,281.66 82.13,63.21 411.21,63.21 "/><g transform="matrix(1,0,0,1,82.1343,63.2123)" class="Dimension"><g transform="matrix(0.9998,-0.0175,0.0175,0.9998,-1.8785,2.9013)" style="display: none;" class="Visual"><g id="mark1" fill="#000000" stroke="none" transform="matrix(1,0,0,1,164.5397,0)" style="fill-opacity: 1; pointer-events: visible;" class="DimensionMark"><polygon points="-5,5,0,0,5,5"/></g><g id="mark2" fill="#000000" stroke="none" transform="matrix(1,0,0,1,329.0795,109.2232)" style="fill-opacity: 1; pointer-events: visible;" class="DimensionMark"><polygon points="-5,-5,0,0,-5,5"/></g><g id="mark3" fill="#000000" stroke="none" transform="matrix(1,0,0,1,164.5397,218.4465)" style="fill-opacity: 1; pointer-events: visible;" class="DimensionMark"><polygon points="-5,-5,0,0,5,-5"/></g><g id="mark4" fill="#000000" stroke="none" transform="matrix(1,0,0,1,0,109.2232)" style="fill-opacity: 1; pointer-events: visible;" class="DimensionMark"><polygon points="5,5,0,0,5,-5"/></g></g><g transform="matrix(1,0,0,1,84.896,131.407)" class="SpaceDimensionsLabel"><g id="NameLabel" style="display: none;" class="TextLabel NameLabel"><text x="0" y="0em" fill="#000000" stroke="none" style="font-family: Verdana; font-size: 33px; fill-opacity: 1; cursor: default;">PARVEKE</text></g><g id="DimensionMeasureLabel" transform="matrix(1,0,0,1,-32.0312,39.9062)" style="display: none;" class="TextLabel DimensionMeasureLabel"><text x="0" y="0em" fill="#000000" stroke="none" style="font-family: Verdana; font-size: 33px; fill-opacity: 1; cursor: default;">10'10" x 7'2"</text><text x="0" y="0" fill="#000000" stroke="none" style="font-family: Verdana; font-size: 33px; fill-opacity: 1; cursor: default;"/></g></g></g></g><g id="5cb1515d-9e61-48f5-8ba4-0bfe5b03c12a" class="Space Entry Lobby" fill="#ffffff" stroke="#ffffff" style="fill-opacity: 1; stroke-opacity: 1; stroke-width: 0.2;"><polygon points="645.09,741.83 295.77,741.83 295.77,639.66 284.74,639.66 284.74,576.11 435.28,576.11 435.28,574.80 645.09,574.80 "/><g transform="matrix(1,0,0,1,295.7729,574.8043)" class="Dimension"><g transform="matrix(1,0,0,1,0,0)" style="display: none;" class="Visual"><g id="mark1" fill="#000000" stroke="none" transform="matrix(1,0,0,1,169.1437,0)" style="fill-opacity: 1; pointer-events: visible;" class="DimensionMark"><polygon points="-5,5,0,0,5,5"/></g><g id="mark2" fill="#000000" stroke="none" transform="matrix(1,0,0,1,349.3215,83.515)" style="fill-opacity: 1; pointer-events: visible;" class="DimensionMark"><polygon points="-5,-5,0,0,-5,5"/></g><g id="mark3" fill="#000000" stroke="none" transform="matrix(1,0,0,1,169.1437,167.03)" style="fill-opacity: 1; pointer-events: visible;" class="DimensionMark"><polygon points="-5,-5,0,0,5,-5"/></g><g id="mark4" fill="#000000" stroke="none" transform="matrix(1,0,0,1,0,83.515)" style="fill-opacity: 1; pointer-events: visible;" class="DimensionMark"><polygon points="5,5,0,0,5,-5"/></g></g><g transform="matrix(1,0,0,1,149.9422,73.3367)" class="SpaceDimensionsLabel"><g id="NameLabel" style="display: none;" class="TextLabel NameLabel"><text x="0" y="0em" fill="#000000" stroke="none" style="font-family: Verdana; font-size: 33px; fill-opacity: 1; cursor: default;">ET</text></g><g id="DimensionMeasureLabel" transform="matrix(1,0,0,1,-77.0234,39.9062)" style="display: none;" class="TextLabel DimensionMeasureLabel"><text x="0" y="0em" fill="#000000" stroke="none" style="font-family: Verdana; font-size: 33px; fill-opacity: 1; cursor: default;">11'6" x 5'6"</text><text x="0" y="0" fill="#000000" stroke="none" style="font-family: Verdana; font-size: 33px; fill-opacity: 1; cursor: default;"/></g></g></g></g><g id="8d2012af-7e51-45c4-806c-261ff79fd52f" class="Space Kitchen Open" fill="#ffffff" stroke="#ffffff" style="fill-opacity: 1; stroke-opacity: 1; stroke-width: 0.2;"><polygon points="645.09,563.80 439.74,563.80 439.74,504.66 435.28,504.66 435.28,305.66 645.09,305.66 "/><g transform="matrix(1,0,0,1,435.2848,305.6588)" class="Dimension"><g transform="matrix(1,0,0,1,0,0)" style="display: none;" class="Visual"><g id="mark1" fill="#000000" stroke="none" transform="matrix(1,0,0,1,104.9048,0)" style="fill-opacity: 1; pointer-events: visible;" class="DimensionMark"><polygon points="-5,5,0,0,5,5"/></g><g id="mark2" fill="#000000" stroke="none" transform="matrix(1,0,0,1,209.8096,129.0728)" style="fill-opacity: 1; pointer-events: visible;" class="DimensionMark"><polygon points="-5,-5,0,0,-5,5"/></g><g id="mark3" fill="#000000" stroke="none" transform="matrix(1,0,0,1,104.9048,258.1455)" style="fill-opacity: 1; pointer-events: visible;" class="DimensionMark"><polygon points="-5,-5,0,0,5,-5"/></g><g id="mark4" fill="#000000" stroke="none" transform="matrix(1,0,0,1,0,129.0728)" style="fill-opacity: 1; pointer-events: visible;" class="DimensionMark"><polygon points="5,5,0,0,5,-5"/></g></g><g transform="matrix(1,0,0,1,28.7762,134.185)" class="SpaceDimensionsLabel"><g id="NameLabel" style="display: none;" class="TextLabel NameLabel"><text x="0" y="0em" fill="#000000" stroke="none" style="font-family: Verdana; font-size: 33px; fill-opacity: 1; cursor: default;">AVOK</text></g><g id="DimensionMeasureLabel" transform="matrix(1,0,0,1,-50.4374,39.9062)" style="display: none;" class="TextLabel DimensionMeasureLabel"><text x="0" y="0em" fill="#000000" stroke="none" style="font-family: Verdana; font-size: 33px; fill-opacity: 1; cursor: default;">6'11" x 8'6"</text><text x="0" y="0" fill="#000000" stroke="none" style="font-family: Verdana; font-size: 33px; fill-opacity: 1; cursor: default;"/></g></g></g></g><g id="2b35c47f-db97-4bed-acb6-285197f72b07" class="Space LivingRoom" fill="#ffffff" stroke="#ffffff" style="fill-opacity: 1; stroke-opacity: 1; stroke-width: 0.2;"><polygon points="435.28,504.66 428.74,504.66 428.74,574.80 435.28,574.80 435.28,576.11 284.74,576.11 284.74,639.66 284.67,639.66 284.67,741.83 93.43,741.83 93.43,305.66 435.28,305.66 "/><g transform="matrix(1,0,0,1,93.4272,305.6588)" class="Dimension"><g transform="matrix(1,0,0,1,0,0)" style="display: none;" class="Visual"><g id="mark1" fill="#000000" stroke="none" transform="matrix(1,0,0,1,170.9288,0)" style="fill-opacity: 1; pointer-events: visible;" class="DimensionMark"><polygon points="-5,5,0,0,5,5"/></g><g id="mark2" fill="#000000" stroke="none" transform="matrix(1,0,0,1,335.3134,218.0877)" style="fill-opacity: 1; pointer-events: visible;" class="DimensionMark"><polygon points="-5,-5,0,0,-5,5"/></g><g id="mark3" fill="#000000" stroke="none" transform="matrix(1,0,0,1,170.9288,436.1755)" style="fill-opacity: 1; pointer-events: visible;" class="DimensionMark"><polygon points="-5,-5,0,0,5,-5"/></g><g id="mark4" fill="#000000" stroke="none" transform="matrix(1,0,0,1,0,218.0877)" style="fill-opacity: 1; pointer-events: visible;" class="DimensionMark"><polygon points="5,5,0,0,5,-5"/></g></g><g transform="matrix(1,0,0,1,124.9893,190.5771)" class="SpaceDimensionsLabel"><g id="NameLabel" style="display: none;" class="TextLabel NameLabel"><text x="0" y="0em" fill="#000000" stroke="none" style="font-family: Verdana; font-size: 33px; fill-opacity: 1; cursor: default;">OH</text></g><g id="DimensionMeasureLabel" transform="matrix(1,0,0,1,-82.9141,39.9062)" style="display: none;" class="TextLabel DimensionMeasureLabel"><text x="0" y="0em" fill="#000000" stroke="none" style="font-family: Verdana; font-size: 33px; fill-opacity: 1; cursor: default;">11'0" x 14'4"</text><text x="0" y="0" fill="#000000" stroke="none" style="font-family: Verdana; font-size: 33px; fill-opacity: 1; cursor: default;"/></g></g></g></g><g id="6150283f-7aee-4170-8442-34278556d0a5" class="Space UserDefined" fill="#ffffff" stroke="#ffffff" style="fill-opacity: 1; stroke-opacity: 1; stroke-width: 0.2;"><polygon points="82.13,63.21 82.13,51.00 410.78,51.00 411.21,63.21 82.13,63.21 82.13,63.21 "/><g transform="matrix(1,0,0,1,82.1343,50.999)" class="Dimension"><g transform="matrix(1,0,0,1,0,0)" style="display: none;" class="Visual"><g id="mark1" fill="#000000" stroke="none" transform="matrix(1,0,0,1,164.5397,0)" style="fill-opacity: 1; pointer-events: visible;" class="DimensionMark"><polygon points="-5,5,0,0,5,5"/></g><g id="mark2" fill="#000000" stroke="none" transform="matrix(1,0,0,1,328.8614,6.1144)" style="fill-opacity: 1; pointer-events: visible;" class="DimensionMark"><polygon points="-5,-5,0,0,-5,5"/></g><g id="mark3" fill="#000000" stroke="none" transform="matrix(1,0,0,1,164.5397,12.2133)" style="fill-opacity: 1; pointer-events: visible;" class="DimensionMark"><polygon points="-5,-5,0,0,5,-5"/></g><g id="mark4" fill="#000000" stroke="none" transform="matrix(1,0,0,1,0,6.1144)" style="fill-opacity: 1; pointer-events: visible;" class="DimensionMark"><polygon points="5,5,0,0,5,-5"/></g></g><g transform="matrix(1,0,0,1,66.1291,109.1269)" class="SpaceDimensionsLabel"><g id="NameLabel" style="display: none;" class="TextLabel NameLabel"><text x="0" y="0em" fill="#000000" stroke="none" style="font-family: Verdana; font-size: 33px; fill-opacity: 1; cursor: default;">LASITETTU </text></g><g id="DimensionMeasureLabel" transform="matrix(1,0,0,1,-6.1172,39.9062)" style="display: none;" class="TextLabel DimensionMeasureLabel"><text x="0" y="0em" fill="#000000" stroke="none" style="font-family: Verdana; font-size: 33px; fill-opacity: 1; cursor: default;">10'9" x 0'5"</text><text x="0" y="0" fill="#000000" stroke="none" style="font-family: Verdana; font-size: 33px; fill-opacity: 1; cursor: default;"/></g></g></g></g><g id="Wall" class="Wall External" fill="#000000" stroke="#000000" style="fill-opacity: 1; stroke-opacity: 1; stroke-width: 0.2;"><polygon points="834.01,281.66 70.13,281.66 93.43,305.66 810.01,305.66 "/><g id="Door" fill="#ffffff" stroke="#000000" style="fill-opacity: 1; stroke-width: 1; stroke-opacity: 1;" class="Door Swing Beside"><polygon points="350.13,281.66 282.83,281.66 282.83,305.66 350.13,305.66 "/><g id="Threshold" class="Threshold"><polygon points="350.13,281.66 282.83,281.66 282.83,305.66 350.13,305.66 "/></g><g id="Panel" fill="none" style="" class="Panel Right Negative"><g id="PanelArea" fill="none" stroke="none" style="" class="PanelArea"><polygon points="350.13,281.66 282.83,281.66 282.83,305.66 350.13,305.66 "/></g><path d="M282.83,281.66 q0.00,-67.30 67.30,-67.30 l0.00,67.30Z"/></g></g><g id="Window" fill="#f0f0ff" stroke="#000000" style="fill-opacity: 1; stroke-width: 1; stroke-opacity: 1;" class="Window Regular"><polygon points="270.81,281.66 106.77,281.66 106.77,305.66 270.81,305.66 "/><g id="Glass" class="Glass"><polygon points="270.81,281.66 106.77,281.66 106.77,305.66 270.81,305.66 "/></g><g id="Panel" class="Panel"><line x1="263.30999755859375" x2="114.2699966430664" y1="293.6600036621094" y2="293.6600036621094"/><line x1="263.30999755859375" x2="263.30999755859375" y1="281.6600036621094" y2="305.6600036621094"/><line x1="114.2699966430664" x2="114.2699966430664" y1="281.6600036621094" y2="305.6600036621094"/></g></g><g id="Window" fill="#f0f0ff" stroke="#000000" style="fill-opacity: 1; stroke-width: 1; stroke-opacity: 1;" class="Window Regular"><polygon points="582.68,281.66 445.07,281.66 445.07,305.66 582.68,305.66 "/><g id="Glass" class="Glass"><polygon points="582.68,281.66 445.07,281.66 445.07,305.66 582.68,305.66 "/></g><g id="Panel" class="Panel"><line x1="575.1799926757812" x2="452.57000732421875" y1="293.6600036621094" y2="293.6600036621094"/><line x1="575.1799926757812" x2="575.1799926757812" y1="281.6600036621094" y2="305.6600036621094"/><line x1="452.57000732421875" x2="452.57000732421875" y1="281.6600036621094" y2="305.6600036621094"/></g></g><g id="Window" fill="#f0f0ff" stroke="#000000" style="fill-opacity: 1; stroke-width: 1; stroke-opacity: 1;" class="Window Regular"><polygon points="749.92,281.66 701.68,281.66 701.68,305.66 749.92,305.66 "/><g id="Glass" class="Glass"><polygon points="749.92,281.66 701.68,281.66 701.68,305.66 749.92,305.66 "/></g><g id="Panel" class="Panel"><line x1="742.4199829101562" x2="709.1799926757812" y1="293.6600036621094" y2="293.6600036621094"/><line x1="742.4199829101562" x2="742.4199829101562" y1="281.6600036621094" y2="305.6600036621094"/><line x1="709.1799926757812" x2="709.1799926757812" y1="281.6600036621094" y2="305.6600036621094"/></g></g></g><g id="Wall" class="Wall External" fill="#000000" stroke="#000000" style="fill-opacity: 1; stroke-opacity: 1; stroke-width: 0.2;"><polygon points="70.13,281.66 70.13,765.83 93.43,741.83 93.43,305.66 "/></g><g id="Wall" class="Wall External" fill="#000000" stroke="#000000" style="fill-opacity: 1; stroke-opacity: 1; stroke-width: 0.2;"><polygon points="70.13,765.83 834.01,765.83 810.01,741.83 93.43,741.83 "/><g id="Door" fill="#ffffff" stroke="#000000" style="fill-opacity: 1; stroke-width: 1; stroke-opacity: 1;" class="Door Swing Beside"><polygon points="527.67,765.83 595.86,765.83 595.86,741.83 527.67,741.83 "/><g id="Threshold" class="Threshold"><polygon points="527.67,765.83 595.86,765.83 595.86,741.83 527.67,741.83 "/></g><g id="Panel" fill="none" style="" class="Panel Left Positive"><g id="PanelArea" fill="none" stroke="none" style="" class="PanelArea"><polygon points="527.67,765.83 595.86,765.83 595.86,741.83 527.67,741.83 "/></g><path d="M595.86,741.83 q0.00,-68.19 -68.19,-68.19 l0.00,68.19Z"/></g></g></g><g id="Wall" class="Wall External" fill="#000000" stroke="#000000" style="fill-opacity: 1; stroke-opacity: 1; stroke-width: 0.2;"><polygon points="834.01,765.83 834.01,281.66 810.01,305.66 810.01,741.83 "/></g><g id="Wall" class="Wall External" fill="#000000" stroke="#000000" style="fill-opacity: 1; stroke-opacity: 1; stroke-width: 0.2;"><polygon points="70.13,281.66 70.13,51.21 82.13,63.21 82.13,281.66 "/><g id="Window" fill="#f0f0ff" stroke="#000000" style="fill-opacity: 1; stroke-width: 1; stroke-opacity: 1;" class="Window Regular"><polygon points="70.13,281.05 70.13,63.42 82.13,63.42 82.13,281.05 "/><g id="Glass" class="Glass"><polygon points="70.13,281.05 70.13,63.42 82.13,63.42 82.13,281.05 "/></g><g id="Panel" class="Panel"><line x1="76.12999725341797" x2="76.12999725341797" y1="273.54998779296875" y2="70.91999816894531"/><line x1="70.12999725341797" x2="82.12999725341797" y1="273.54998779296875" y2="273.54998779296875"/><line x1="70.12999725341797" x2="82.12999725341797" y1="70.91999816894531" y2="70.91999816894531"/></g></g></g><g id="Wall" class="Wall External" fill="#000000" stroke="#000000" style="fill-opacity: 1; stroke-opacity: 1; stroke-width: 0.2;"><polygon points="70.13,51.21 423.21,51.21 411.21,63.21 82.13,63.21 "/><g id="Window" fill="#f0f0ff" stroke="#000000" style="fill-opacity: 1; stroke-width: 1; stroke-opacity: 1;" class="Window Regular"><polygon points="82.90,51.21 410.74,51.21 410.74,63.21 82.90,63.21 "/><g id="Glass" class="Glass"><polygon points="82.90,51.21 410.74,51.21 410.74,63.21 82.90,63.21 "/></g><g id="Panel" class="Panel"><line x1="90.4000015258789" x2="403.239990234375" y1="57.209999084472656" y2="57.209999084472656"/><line x1="90.4000015258789" x2="90.4000015258789" y1="51.209999084472656" y2="63.209999084472656"/><line x1="403.239990234375" x2="403.239990234375" y1="51.209999084472656" y2="63.209999084472656"/></g></g></g><g id="Wall" class="Wall External" fill="#000000" stroke="#000000" style="fill-opacity: 1; stroke-opacity: 1; stroke-width: 0.2;"><polygon points="423.21,51.21 423.21,305.66 411.21,305.66 411.21,63.21 "/><g id="Window" fill="#f0f0ff" stroke="#000000" style="fill-opacity: 1; stroke-width: 1; stroke-opacity: 1;" class="Window Regular"><polygon points="423.21,62.49 423.21,280.58 411.21,280.58 411.21,62.49 "/><g id="Glass" class="Glass"><polygon points="423.21,62.49 423.21,280.58 411.21,280.58 411.21,62.49 "/></g><g id="Panel" class="Panel"><line x1="417.2099914550781" x2="417.2099914550781" y1="69.9900016784668" y2="273.0799865722656"/><line x1="423.2099914550781" x2="411.2099914550781" y1="69.9900016784668" y2="69.9900016784668"/><line x1="423.2099914550781" x2="411.2099914550781" y1="273.0799865722656" y2="273.0799865722656"/></g></g></g><g id="Wall" class="Wall" fill="#000000" stroke="#000000" style="fill-opacity: 1; stroke-opacity: 1; stroke-width: 0.2;"><polygon points="645.09,281.66 645.09,765.83 657.09,765.83 657.09,281.66 "/><g id="Door" fill="#ffffff" stroke="#000000" style="fill-opacity: 1; stroke-width: 1; stroke-opacity: 1;" class="Door Swing Beside"><polygon points="645.09,587.92 645.09,636.06 657.09,636.06 657.09,587.92 "/><g id="Threshold" class="Threshold"><polygon points="645.09,587.92 645.09,636.06 657.09,636.06 657.09,587.92 "/></g><g id="Panel" fill="none" style="" class="Panel Right Negative"><g id="PanelArea" fill="none" stroke="none" style="" class="PanelArea"><polygon points="645.09,587.92 645.09,636.06 657.09,636.06 657.09,587.92 "/></g><path d="M645.09,636.06 q-48.14,0.00 -48.14,-48.14 l48.14,0.00Z"/></g></g></g><g id="Wall" class="Wall" fill="#000000" stroke="#000000" style="fill-opacity: 1; stroke-opacity: 1; stroke-width: 0.2;"><polygon points="428.74,504.66 428.74,574.80 439.74,563.80 439.74,504.66 "/></g><g id="Wall" class="Wall" fill="#000000" stroke="#000000" style="fill-opacity: 1; stroke-opacity: 1; stroke-width: 0.2;"><polygon points="428.74,574.80 657.09,574.80 657.09,563.80 439.74,563.80 "/></g><g id="Wall" class="Wall" fill="#000000" stroke="#000000" style="fill-opacity: 1; stroke-opacity: 1; stroke-width: 0.2;"><polygon points="760.29,691.01 834.01,691.01 834.01,747.54 760.29,747.54 "/></g><g id="Wall" class="Wall" fill="#000000" stroke="#000000" style="fill-opacity: 1; stroke-opacity: 1; stroke-width: 0.2;"><polygon points="645.09,445.84 834.01,445.84 834.01,434.84 645.09,434.84 "/><g id="Door" fill="#ffffff" stroke="#000000" style="fill-opacity: 1; stroke-width: 1; stroke-opacity: 1;" class="Door Swing Beside"><polygon points="674.69,445.84 721.56,445.84 721.56,434.84 674.69,434.84 "/><g id="Threshold" class="Threshold"><polygon points="674.69,445.84 721.56,445.84 721.56,434.84 674.69,434.84 "/></g><g id="Panel" fill="none" style="" class="Panel Right Negative"><g id="PanelArea" fill="none" stroke="none" style="" class="PanelArea"><polygon points="674.69,445.84 721.56,445.84 721.56,434.84 674.69,434.84 "/></g><path d="M721.56,445.84 q0.00,46.87 -46.87,46.87 l0.00,-46.87Z"/></g></g></g><g id="Wall" class="Wall" fill="#000000" stroke="#000000" style="fill-opacity: 1; stroke-opacity: 1; stroke-width: 0.2;"><polygon points="834.01,537.95 738.31,537.95 738.31,532.95 834.01,532.95 "/></g><g id="Wall" class="Wall" fill="#000000" stroke="#000000" style="fill-opacity: 1; stroke-opacity: 1; stroke-width: 0.2;"><polygon points="284.67,639.66 284.67,765.83 295.77,765.83 295.77,639.66 "/></g><g class="FixedFurniture SaunaBenchHigh" fill="#ffffff" stroke="#000000" transform="matrix(0,1,-1,0,809.9959,305.6588)" style="fill-opacity: 1; stroke-opacity: 1; stroke-width: 1;">
        <g class="BoundaryPolygon">
            <polygon points="0.00,0.00 129.01,0.00 129.01,55.44 0.00,55.44 "/> 
        </g>
        <g class="Bench" stroke="#9a9a9a" stroke-width="0.5">
            <line x1="0" y1="3.6959572065108244" x2="129.01390982886713" y2="3.6959572065108244"/>
            <line x1="0" y1="7.391914413021649" x2="129.01390982886713" y2="7.391914413021649"/>
            <line x1="0" y1="11.087871619532473" x2="129.01390982886713" y2="11.087871619532473"/>
            <line x1="0" y1="14.783828826043298" x2="129.01390982886713" y2="14.783828826043298"/>
            <line x1="0" y1="18.479786032554124" x2="129.01390982886713" y2="18.479786032554124"/>
            <line x1="0" y1="22.175743239064946" x2="129.01390982886713" y2="22.175743239064946"/>
            <line x1="0" y1="25.87170044557577" x2="129.01390982886713" y2="25.87170044557577"/>
            <line x1="0" y1="29.567657652086595" x2="129.01390982886713" y2="29.567657652086595"/>
            <line x1="0" y1="33.263614858597414" x2="129.01390982886713" y2="33.263614858597414"/>
            <line x1="0" y1="36.95957206510825" x2="129.01390982886713" y2="36.95957206510825"/>
            <line x1="0" y1="40.65552927161907" x2="129.01390982886713" y2="40.65552927161907"/>
            <line x1="0" y1="44.35148647812989" x2="129.01390982886713" y2="44.35148647812989"/>
            <line x1="0" y1="48.04744368464071" x2="129.01390982886713" y2="48.04744368464071"/>
            <line x1="0" y1="51.74340089115154" x2="129.01390982886713" y2="51.74340089115154"/>
        </g>
         <g class="Direction" fill-opacity="0.9" style="display: none;">
            <polygon points="66.54,50.50 66.54,39.89 63.53,39.89 63.53,50.50 59.72,50.50 65.03,55.81 70.33,50.50 66.54,50.50 " fill="#444444"/>
        </g> 
        <g class="Name" fill-opacity="0.9" style="display: none;">
            <text transform="translate(3 12)" font-size="12" font-family="Verdana, Sans-Serif">SB_HIGH</text>
        </g>
        <desc>Width:185 Height:5 Depth:60 Elevation:105</desc>
    </g><g class="FixedFurniture SaunaBenchMid" fill="#ffffff" stroke="#000000" transform="matrix(0,1,-1,0,754.5565,305.6588)" style="fill-opacity: 1; stroke-opacity: 1; stroke-width: 1;">
        <g class="BoundaryPolygon">
            <polygon points="0.00,0.00 129.07,0.00 129.07,27.48 0.00,27.48 "/>
        </g>
        <g class="Bench" stroke="#9a9a9a" stroke-width="0.5">
            <line x1="0" y1="2.74800212918671" x2="129.06875580408297" y2="2.74800212918671"/>
            <line x1="0" y1="5.49600425837342" x2="129.06875580408297" y2="5.49600425837342"/>
            <line x1="0" y1="8.244006387560132" x2="129.06875580408297" y2="8.244006387560132"/>
            <line x1="0" y1="10.99200851674684" x2="129.06875580408297" y2="10.99200851674684"/>
            <line x1="0" y1="13.740010645933552" x2="129.06875580408297" y2="13.740010645933552"/>
            <line x1="0" y1="16.488012775120264" x2="129.06875580408297" y2="16.488012775120264"/>
            <line x1="0" y1="19.236014904306973" x2="129.06875580408297" y2="19.236014904306973"/>
            <line x1="0" y1="21.98401703349368" x2="129.06875580408297" y2="21.98401703349368"/>
            <line x1="0" y1="24.732019162680402" x2="129.06875580408297" y2="24.732019162680402"/>
        </g>
        <g class="Direction" fill-opacity="0.9" style="display: none;">
            <polygon points="65.59,23.81 65.59,13.19 62.58,13.19 62.58,23.81 58.78,23.81 64.08,29.11 69.38,23.81 65.59,23.81 " fill="#444444"/>
        </g> 
        <g class="Name" fill-opacity="0.9" style="display: none;">
            <text transform="translate(3 12)" font-size="12" font-family="Verdana, Sans-Serif">SB_MID</text>
        </g>
        <desc>Width:185 Height:5 Depth:40 Elevation:60</desc>
    </g><g class="FixedFurniture Shower" fill="#ffffff" stroke="#000000" transform="matrix(1,0,0,1,762.0853,445.3953)" style="fill-opacity: 1; stroke-opacity: 1; stroke-width: 1;"> 
	    <g class="BoundaryPolygon" fill="none" stroke="none">
            <polygon points="0,0 32,0 32,19 0,19"/>
        </g>
        <g class="InnerPolygon"> 
			<rect x="3.7" y="0.5" width="11.2" height="6.1"/>
			<rect x="17.6" y="0.5" width="11.2" height="6.1"/>
			<rect x="28.7" y="0.5" width="3.4" height="6.1"/>
			<rect x="0.5" y="0.5" width="3.2" height="6.1"/>
			<path d="M14.9,8.5c0,1.5-0.4,3.3-1.6,5    c-0.4,0.6-1,1.1-1.1,1.7c-0.2,1.1,0.3,2.8,2.5,3.2c0.5,0.1,1.3,0.1,1.6,0.1h-0.1c0.3,0,1.1,0,1.6-0.1c2.2-0.4,2.7-2.1,2.5-3.2    c-0.1-0.6-0.7-1.1-1.1-1.7c-1.2-1.7-1.6-3.5-1.6-5"/>
			<path d="M12.2,15.3c0.1,0.2,1.6,1.9,4.2,1.9 c2.4-0.1,3.7-1.7,3.9-1.9"/>
			<path d="M14.9,0.5h2.7v8c-0.9,0-1.8,0-2.7,0l0,0 C14.9,5.9,14.9,3.2,14.9,0.5z"/>
		</g>
	    <g class="Indicator"> 
			<path d="M3.7,3.6C5,3.1,5.2,3,5.2,3 c0,1.1,0,0,0,1.1C5.2,4.1,5.1,4.1,3.7,3.6"/>
			<path d="M28.7,3.6 C27.4,3.1,27.2,3,27.2,3c0,1.1,0,0,0,1.1C27.2,4.1,27.3,4.1,28.7,3.6"/>	
		</g>
        <desc>Width:32 Height:97 Depth:19 Elevation:135</desc>
	</g><g transform="matrix(1,0,0,1,738.5442,446.1855)" class="FixedFurniture Misc" fill="none" stroke="#000000" style="fill-opacity: 1; stroke-opacity: 1; stroke-width: 1.8; stroke-dasharray: 5, 5;"><desc>Width:120 Height:200 Depth:60 Elevation:0</desc><g class="BoundaryPolygon"><path d="M0.00,0.00 L-0.24,86.76 "/></g></g><g class="FixedFurniture Toilet" fill="#ffffff" stroke="#000000" transform="matrix(0,0.9343,-0.7497,0,810.0115,559.2429)" style="fill-opacity: 1; stroke-opacity: 1; stroke-width: 1;">
	   <g class="BoundaryPolygon" fill="none" stroke="none"> 
            <polygon points="0,0 41,0 41,71 0,71"/>
		</g>
        <g class="InnerPolygon">
            <rect x="0.502" y="0.5" width="39.989" height="17.98"/>
            <path d="M40.491,44.237S41.619,70.5,20.907,70.5C-.523,70.5.6,44.237.6,44.237L.5,18.48H40.491Z"/>
            <rect x="17.318" y="7.975" width="6.357" height="3.03"/>
        </g>
        <desc>Width:41 Height:85 Depth:71 Elevation:0</desc>
    </g><g transform="matrix(1,0,0,1,811.8968,670.3415)" class="FixedFurniture BaseCabinet" fill="#ffffff" stroke="#000000" style="fill-opacity: 1; stroke-opacity: 1; stroke-width: 1;"><desc>Width:60 Height:90 Depth:60 Elevation:0</desc><g class="BoundaryPolygon"><polygon points="0.00,0.00 -25.46,0.00 -33.78,-7.83 -35.25,-13.71 -36.72,-22.52 -36.23,-33.78 -33.29,-43.57 -27.91,-49.94 -20.56,-53.37 -1.46,-53.37 -1.46,-0.49 "/></g></g><g class="FixedFurniture RoundSink" fill="#ffffff" stroke="#000000" transform="matrix(0,0.9361,-0.5398,0,809.6603,621.9474)" style="fill-opacity: 1; stroke-opacity: 1; stroke-width: 1;">
        <g class="BoundaryPolygon" fill="none" stroke="none">
            <polygon points="0,0 46,0 46,50 0,50"/>
        </g>
        <g class="InnerPolygon">
            <circle cx="23" cy="27" r="23"/>
        </g>
        <g class="OuterDrain">
            <circle cx="23" cy="27" r="3.5"/>
        </g>
        <g class="InnerDrain">
            <circle cx="23" cy="27" r="2"/>
        </g>
        <g class="Faucet">
            <polygon points="20 0 26 0 26 14 20 14 20 0"/>
        </g>
        <g class="Name" fill-opacity="0.9" style="display: none;">
            <text transform="translate(6.5 24.5)" font-size="12" font-family="Verdana, Sans-Serif">SINK</text>
        </g>
        <desc>Width:46 Height:90 Depth:50 Elevation:60</desc>
    </g><g class="FixedFurniture Closet" fill="#ffffff" stroke="#000000" transform="matrix(-1,0,0,-1,703.4144,741.6468)" style="fill-opacity: 1; stroke-opacity: 1; stroke-width: 1;">
        <g class="BoundaryPolygon">
            <polygon points="0.00,0.00 46.32,0.00 46.32,60.00 0.00,60.00 "/>
        </g>
        <g class="Direction" fill-opacity="0.9" style="display: none;">
            <polygon points="24.32,54.70 24.32,44.08 21.32,44.08 21.32,54.70 17.51,54.70 22.82,60.00 28.12,54.70 24.32,54.70 " fill="#444444"/>
        </g> 
        <g class="Name" fill-opacity="0.9" style="display: none;">
            <text transform="translate(3 12)" font-size="12" font-family="Verdana, Sans-Serif">CL</text>
        </g>
        <desc>Width:60 Height:200 Depth:60 Elevation:0</desc>
     </g><g class="FixedFurniture ElectricalAppliance SpaceForAppliance2" fill="#ffffff" stroke="#000000" stroke-dasharray="4,4" transform="matrix(-0.9427,0,0,-1,760.2876,741.8343)" style="fill-opacity: 1; stroke-opacity: 1; stroke-width: 1;">
	    <g class="BoundaryPolygon"> 
		    <polygon points="0,0 60,0 60,60 0,60"/>
		</g>	
	    <g class="electricitySign" fill="none">
            <path d="M0,0,30.1,39.8V19.4L59.9,60"/>
		</g>
        <g class="Direction" fill-opacity="0.9" style="display: none;">
            <polygon points="32.009 55.197 32.009 44.581 29 44.581 29 55.197 25.197 55.197 30.5 60 35.803 55.197 32.009 55.197" fill="#444444"/>
        </g> 
        <g class="Name" fill-opacity="0.9" stroke-dasharray="none" style="display: none;">
            <text transform="translate(3 12)" font-size="12" font-family="Verdana, Sans-Serif">SFA</text>
        </g>
        <desc>Width:60 Height:90 Depth:60 Elevation:0</desc>
	</g><g class="FixedFurniture Closet" fill="#ffffff" stroke="#000000" transform="matrix(-1,0,0,-1,347.763,741.6468)" style="fill-opacity: 1; stroke-opacity: 1; stroke-width: 1;">
        <g class="BoundaryPolygon">
            <polygon points="0.00,0.00 51.99,0.00 51.99,60.00 0.00,60.00 "/>
        </g>
        <g class="Direction" fill-opacity="0.9" style="display: none;">
            <polygon points="27.30,54.70 27.30,44.08 24.29,44.08 24.29,54.70 20.49,54.70 25.79,60.00 31.10,54.70 27.30,54.70 " fill="#444444"/>
        </g> 
        <g class="Name" fill-opacity="0.9" style="display: none;">
            <text transform="translate(3 12)" font-size="12" font-family="Verdana, Sans-Serif">CL</text>
        </g>
        <desc>Width:60 Height:200 Depth:60 Elevation:0</desc>
     </g><g class="FixedFurniture Closet" fill="#ffffff" stroke="#000000" transform="matrix(-1,0,0,-1,395.923,741.6468)" style="fill-opacity: 1; stroke-opacity: 1; stroke-width: 1;">
        <g class="BoundaryPolygon">
            <polygon points="0.00,0.00 48.16,0.00 48.16,60.00 0.00,60.00 "/>
        </g>
        <g class="Direction" fill-opacity="0.9" style="display: none;">
            <polygon points="25.29,54.70 25.29,44.08 22.28,44.08 22.28,54.70 18.48,54.70 23.78,60.00 29.09,54.70 25.29,54.70 " fill="#444444"/>
        </g> 
        <g class="Name" fill-opacity="0.9" style="display: none;">
            <text transform="translate(3 12)" font-size="12" font-family="Verdana, Sans-Serif">CL</text>
        </g>
        <desc>Width:60 Height:200 Depth:60 Elevation:0</desc>
     </g><g class="FixedFurniture CoatCloset" fill="#ffffff" stroke="#000000" transform="matrix(-1,0,0,-1,440.9438,741.6468)" style="fill-opacity: 1; stroke-opacity: 1; stroke-width: 1;">
        <g class="BoundaryPolygon">
            <polygon points="0.00,0.00 45.02,0.00 45.02,60.00 0.00,60.00 "/>
        </g>
        <g class="Hanger" stroke="#9a9a9a" stroke-dasharray="5,5">
            <line x1="0" y1="30" x2="45.02084111768613" y2="30"/>
        </g>
        <g class="Direction" fill-opacity="0.9" style="display: none;">
            <polygon points="23.64,54.70 23.64,44.08 20.63,44.08 20.63,54.70 16.83,54.70 22.13,60.00 27.44,54.70 23.64,54.70 " fill="#444444"/>
        </g> 
        <g class="Name" fill-opacity="0.9" style="display: none;">
            <text transform="translate(3 12)" font-size="12" font-family="Verdana, Sans-Serif">CWH</text>
        </g>
        <desc>Width:60 Height:200 Depth:60 Elevation:0</desc>
     </g><g class="FixedFurniture CoatCloset" fill="#ffffff" stroke="#000000" transform="matrix(-1,0,0,-1,513.8155,741.553)" style="fill-opacity: 1; stroke-opacity: 1; stroke-width: 1;">
        <g class="BoundaryPolygon">
            <polygon points="0.00,0.00 72.87,0.00 72.87,60.00 0.00,60.00 "/>
        </g>
        <g class="Hanger" fill="#ffffff" stroke="#9a9a9a" stroke-dasharray="5,5">
            <line x1="0" y1="30" x2="72.87175823424735" y2="30"/>
        </g>
        <g class="Direction" fill-opacity="0.9" style="display: none;">
            <polygon points="37.35,54.52 37.35,43.90 34.34,43.90 34.34,54.52 30.54,54.52 35.84,59.82 41.15,54.52 37.35,54.52 " fill="#444444"/>
        </g> 
        <g class="Name" fill-opacity="0.9" style="display: none;">
            <text transform="translate(3 12)" font-size="12" font-family="Verdana, Sans-Serif">CWH</text>
        </g>
        <desc>Width:120 Height:200 Depth:60 Elevation:0</desc>
     </g><g class="FixedFurniture ElectricalAppliance SaunaStove" fill="#ffffff" stroke="#000000" transform="matrix(0,-0.5276,0.853,0,665.7938,347.6216)" style="fill-opacity: 1; stroke-opacity: 1; stroke-width: 1;"> 
	   <g class="BoundaryPolygon"> 
		    <polygon points="0,0 60,0 60,35 0,35"/>
		</g>
	    <g class="electricitySign" fill="none">
		    <polyline points="0 35 39.7 17.5 21.4 17.5 60 0"/>
		</g>
        <g class="Direction" fill-opacity="0.9" style="display: none;">
            <polygon points="31.509 29.697 31.509 19.081 28.5 19.081 28.5 29.697 24.697 29.697 30 35 35.303 29.697 31.509 29.697" fill="#444444"/>
        </g> 
        <g class="Name" fill-opacity="0.9" style="display: none;">
            <text transform="translate(3 12)" font-size="12" font-family="Verdana, Sans-Serif">SS</text>
        </g>
        <desc>Width:60 Height:60 Depth:35 Elevation:20</desc>
	</g><g class="FixedFurniture ElectricalAppliance Refrigerator" fill="#ffffff" stroke="#000000" transform="matrix(-1,0,0,-1,499.7406,563.8043)" style="fill-opacity: 1; stroke-opacity: 1; stroke-width: 1;">
        <g class="BoundaryPolygon">
            <polygon points="0,0 60,0 60,60 0,60"/>
        </g>
        <g class="electricitySign" fill="none" style="display: block;">
            <path d="M0,0,30,37.1v-18L60,56.3"/>
        </g>
        <g class="Doors">
            <rect y="56" width="60" height="4"/>
        </g>
        <g class="Direction" fill-opacity="0.9" style="display: none;">
            <polygon points="32.009 55.197 32.009 44.581 29 44.581 29 55.197 25.197 55.197 30.5 60 35.803 55.197 32.009 55.197" fill="#444444"/>
        </g> 
        <g class="Name" fill-opacity="0.9" style="display: none;">
            <text transform="translate(3 12)" font-size="12" font-family="Verdana, Sans-Serif">REF</text>
        </g>
        <desc>Width:60 Height:170 Depth:60 Elevation:0</desc>
    </g><g transform="matrix(1,0,0,1,500.0145,503.8043)" class="FixedFurniture BaseCabinet" fill="#ffffff" stroke="#000000" style="fill-opacity: 1; stroke-opacity: 1; stroke-width: 1;"><desc>Width:60 Height:90 Depth:60 Elevation:0</desc><g class="BoundaryPolygon"><polygon points="0.00,0.00 90.57,0.00 90.57,-198.65 145.08,-198.65 145.08,59.93 0.00,60.00 0.00,1.50 "/></g></g><g class="FixedFurniture Sink" fill="#ffffff" stroke="#000000" transform="matrix(-1,0,0,-1,594.5366,563.8)" style="fill-opacity: 1; stroke-opacity: 1; stroke-width: 1;">
        <g class="BoundaryPolygon" fill="none" stroke="none">
            <polygon points="0.00,0.00 68.89,0.00 68.89,58.89 0.00,58.89 "/>
        </g>
        <g class="InnerPolygon">
            <polygon points="5.74,9.70 63.15,9.70 63.15,53.69 5.74,53.69 "/>
        </g>
        <g class="OuterDrain" stroke-width="0.8">
            <circle cx="34.44529195015698" cy="31.60496716358112" r="3.5"/>
        </g>
        <g class="InnerDrain" stroke-width="0.8">
            <circle cx="34.44529195015698" cy="31.60496716358112" r="2"/>
        </g>
        <g class="Faucet">
            <polygon points="31.00,4.90 37.00,4.90 37.00,18.90 31.00,18.90 "/>
        </g>
        <g class="Direction" fill-opacity="0.9" style="display: none;">
            <polygon points="36.75,54.17 36.75,43.56 33.74,43.56 33.74,54.17 29.94,54.17 35.24,58.98 40.55,54.17 36.75,54.17 " fill="#444444"/>
        </g> 
        <g class="Name" fill-opacity="0.9" style="display: none;">
            <text transform="translate(3 12)" font-size="12" font-family="Verdana, Sans-Serif">SINK</text>
        </g>
        <desc>Width:60 Height:90 Depth:60 Elevation:0</desc>
    </g><g class="FixedFurniture ElectricalAppliance Dishwasher" fill="#ffffff" stroke="#000000" transform="matrix(0,0.9165,-0.9039,0,644.9814,447.9411)" style="fill-opacity: 1; stroke-opacity: 1; stroke-width: 1;"> 
        <g class="BoundaryPolygon"> 
		    <polygon points="0,0 60,0 60,60 0,60"/>
		</g>
	    <g class="electricitySign" fill="none" style="display: block;">
            <path d="M0,0,30,38.9v-20L60,60"/>
	    </g>
	    <g class="Handle"> 
		    <path d="M10,59.6H49.8"/>
		</g>
        <g class="Direction" fill-opacity="0.9" style="display: none;">
            <polygon points="32.009 55.197 32.009 44.581 29 44.581 29 55.197 25.197 55.197 30.5 60 35.803 55.197 32.009 55.197" fill="#444444"/>
        </g> 
        <g class="Name" fill-opacity="0.9" style="display: none;">
            <text transform="translate(3 12)" font-size="12" font-family="Verdana, Sans-Serif">DW</text>
        </g>
        <desc>Width:60 Height:90 Depth:60 Elevation:0</desc>
	</g><g class="FixedFurniture ElectricalAppliance IntegratedStove" fill="#ffffff" stroke="#000000" transform="matrix(0,1,-1,0,645.0945,386.9728)" style="fill-opacity: 1; stroke-opacity: 1; stroke-width: 1;">
        <g class="BoundaryPolygon" fill="none" stroke="none">
            <polygon points="0.00,0.00 61.96,0.00 61.96,54.61 0.00,54.61 "/>
        </g>
        <g class="InnerPolygon">
            <polygon points="2.00,2.00 59.90,2.00 59.90,52.78 2.00,52.78 "/>
        </g>
        <g class="OuterCircle">
            <circle cx="16.522904950884705" cy="14.560477944584216" r="8"/>
            <circle cx="45.437988614932955" cy="14.560477944584216" r="8"/>
            <circle cx="16.522904950884705" cy="40.0413143476066" r="8"/>
            <circle cx="45.437988614932955" cy="40.0413143476066" r="8"/>
        </g>
        <g class="Direction" fill-opacity="0.9" style="display: none;">
            <polygon points="33.06,50.23 33.06,39.61 30.05,39.61 30.05,50.23 26.24,50.23 31.55,55.03 36.85,50.23 33.06,50.23 " fill="#444444"/>
        </g> 
        <g class="Name" fill-opacity="0.9" style="display: none;">
            <text transform="translate(3 12)" font-size="12" font-family="Verdana, Sans-Serif">INT_STOVE</text>
        </g>
        <desc>Width:60 Height:90 Depth:30 Elevation:0</desc>
    </g><g transform="matrix(1,0,0,1,500.02,537.3343)" style="stroke-opacity: 1; fill-opacity: 0.7; stroke-width: 1.5;" class="FixedFurniture WallCabinet" fill="#ffffff" stroke="#000000"><desc>Width:60 Height:60 Depth:50 Elevation:140</desc><g class="BoundaryPolygon"><polygon points="0.00,0.00 118.75,0.00 118.75,-231.42 145.07,-232.18 145.07,26.47 -0.74,26.47 -0.74,0.86 "/></g></g></g></g></g></svg>
