<?xml version="1.0"?>
<svg xmlns="http://www.w3.org/2000/svg" xmlns:xlink="http://www.w3.org/1999/xlink" height="1093.860029220581" version="1.1" width="1233.5500259399414" id="temp" viewBox="0 0 1233.5500259399414 1093.860029220581"><defs/><g id="Model" class="Model v1-1"><g class="Floor"><g id="Floor-1" class="Floorplan Floor-1"><g id="1dd4938a-b86d-4efa-a070-f2a0d040a5f7" fill="#ffffff" stroke="#000000" style="fill-opacity: 1; stroke-opacity: 1; stroke-width: 0.2;" class="Space Outdoor Balcony"><polygon points="1095.82,45.08 1220.55,45.08 1220.55,411.21 1095.82,411.21 1095.82,45.08 1095.82,45.08 "/><g transform="matrix(1,0,0,1,1095.8214,45.0833)" class="Dimension"><g transform="matrix(1,0,0,1,0,0)" style="display: none;" class="Visual"><g id="mark1" fill="#000000" stroke="none" transform="matrix(1,0,0,1,62.3654,0)" style="fill-opacity: 1; pointer-events: visible;" class="DimensionMark"><polygon points="-5,5,0,0,5,5"/></g><g id="mark2" fill="#000000" stroke="none" transform="matrix(1,0,0,1,124.7308,183.0621)" style="fill-opacity: 1; pointer-events: visible;" class="DimensionMark"><polygon points="-5,-5,0,0,-5,5"/></g><g id="mark3" fill="#000000" stroke="none" transform="matrix(1,0,0,1,62.3654,366.1242)" style="fill-opacity: 1; pointer-events: visible;" class="DimensionMark"><polygon points="-5,-5,0,0,5,-5"/></g><g id="mark4" fill="#000000" stroke="none" transform="matrix(1,0,0,1,0,183.0621)" style="fill-opacity: 1; pointer-events: visible;" class="DimensionMark"><polygon points="5,5,0,0,5,-5"/></g></g><g transform="matrix(0,-1,1,0,77.5214,246.3396)" class="SpaceDimensionsLabel"><g id="NameLabel" style="display: block;" class="TextLabel NameLabel"><text x="0" y="0em" fill="#000000" stroke="none" style="font-family: Verdana; font-size: 33px; fill-opacity: 1; cursor: default;">PARVEKE</text></g><g id="DimensionMeasureLabel" transform="matrix(1,0,0,1,-21.9453,39.9843)" style="display: none;" class="TextLabel DimensionMeasureLabel"><text x="0" y="0em" fill="#000000" stroke="none" style="font-family: Verdana; font-size: 33px; fill-opacity: 1; cursor: default;">4'1" x 12'0"</text><text x="0" y="0"/></g></g></g></g><g id="88d0e2d7-7941-41c1-93ff-6a711afa3724" fill="#ffffff" stroke="#ffffff" style="fill-opacity: 1; stroke-opacity: 1; stroke-width: 0.2;" class="Space LivingRoom"><polygon points="1074.82,411.21 487.80,411.21 487.80,45.08 1074.82,45.08 "/><g transform="matrix(1,0,0,1,487.8027,45.0833)" class="Dimension"><g transform="matrix(1,0,0,1,0,0)" style="display: none;" class="Visual"><g id="mark1" fill="#000000" stroke="none" transform="matrix(1,0,0,1,293.5094,0)" style="fill-opacity: 1; pointer-events: visible;" class="DimensionMark"><polygon points="-5,5,0,0,5,5"/></g><g id="mark2" fill="#000000" stroke="none" transform="matrix(1,0,0,1,587.0187,183.0621)" style="fill-opacity: 1; pointer-events: visible;" class="DimensionMark"><polygon points="-5,-5,0,0,-5,5"/></g><g id="mark3" fill="#000000" stroke="none" transform="matrix(1,0,0,1,293.5094,366.1242)" style="fill-opacity: 1; pointer-events: visible;" class="DimensionMark"><polygon points="-5,-5,0,0,5,-5"/></g><g id="mark4" fill="#000000" stroke="none" transform="matrix(1,0,0,1,0,183.0621)" style="fill-opacity: 1; pointer-events: visible;" class="DimensionMark"><polygon points="5,5,0,0,5,-5"/></g></g><g transform="matrix(1,0,0,1,264.0657,189.9561)" class="SpaceDimensionsLabel"><g id="NameLabel" style="display: block;" class="TextLabel NameLabel"><text x="0" y="0em" fill="#000000" stroke="none" style="font-family: Verdana; font-size: 33px; fill-opacity: 1; cursor: default;">OH</text></g><g id="DimensionMeasureLabel" transform="matrix(1,0,0,1,-82.9141,40.2031)" style="display: none;" class="TextLabel DimensionMeasureLabel"><text x="0" y="0em" fill="#000000" stroke="none" style="font-family: Verdana; font-size: 33px; fill-opacity: 1; cursor: default;">19'3" x 12'0"</text><text x="0" y="0"/></g></g></g></g><g id="2071021a-5e24-4849-80cb-0c38c459b7b8" fill="#ffffff" stroke="#ffffff" style="fill-opacity: 1; stroke-opacity: 1; stroke-width: 0.2;" class="Space Entry Lobby"><polygon points="586.02,678.10 564.02,678.10 564.02,709.30 326.81,709.30 326.81,414.61 487.80,414.61 487.80,411.21 586.02,411.21 "/><g transform="matrix(1,0,0,1,326.8144,414.6124)" class="Dimension"><g transform="matrix(1,0,0,1,0,0)" style="display: none;" class="Visual"><g id="mark1" fill="#000000" stroke="none" transform="matrix(1,0,0,1,129.6004,0)" style="fill-opacity: 1; pointer-events: visible;" class="DimensionMark"><polygon points="-5,5,0,0,5,5"/></g><g id="mark2" fill="#000000" stroke="none" transform="matrix(1,0,0,1,259.2008,145.6412)" style="fill-opacity: 1; pointer-events: visible;" class="DimensionMark"><polygon points="-5,-5,0,0,-5,5"/></g><g id="mark3" fill="#000000" stroke="none" transform="matrix(1,0,0,1,129.6004,294.6872)" style="fill-opacity: 1; pointer-events: visible;" class="DimensionMark"><polygon points="-5,-5,0,0,5,-5"/></g><g id="mark4" fill="#000000" stroke="none" transform="matrix(1,0,0,1,0,145.6412)" style="fill-opacity: 1; pointer-events: visible;" class="DimensionMark"><polygon points="5,5,0,0,5,-5"/></g></g><g transform="matrix(1,0,0,1,93.7313,168.0733)" class="SpaceDimensionsLabel"><g id="NameLabel" style="display: block;" class="TextLabel NameLabel"><text x="0" y="0em" fill="#000000" stroke="none" style="font-family: Verdana; font-size: 33px; fill-opacity: 1; cursor: default;">ET</text></g><g id="DimensionMeasureLabel" transform="matrix(1,0,0,1,-66.375,39.9844)" style="display: none;" class="TextLabel DimensionMeasureLabel"><text x="0" y="0em" fill="#000000" stroke="none" style="font-family: Verdana; font-size: 33px; fill-opacity: 1; cursor: default;">8'6" x 9'8"</text><text x="0" y="0"/></g></g></g></g><g id="13e2ca17-09c5-4a79-a745-ab16cac023ca" fill="#ffffff" stroke="#ffffff" style="fill-opacity: 1; stroke-opacity: 1; stroke-width: 0.2;" class="Space Bedroom"><polygon points="478.80,405.61 86.49,405.61 86.49,45.08 478.80,45.08 "/><g transform="matrix(1,0,0,1,86.4868,45.0833)" class="Dimension"><g transform="matrix(1,0,0,1,0,0)" style="display: none;" class="Visual"><g id="mark1" fill="#000000" stroke="none" transform="matrix(1,0,0,1,196.158,0)" style="fill-opacity: 1; pointer-events: visible;" class="DimensionMark"><polygon points="-5,5,0,0,5,5"/></g><g id="mark2" fill="#000000" stroke="none" transform="matrix(1,0,0,1,392.3159,180.2645)" style="fill-opacity: 1; pointer-events: visible;" class="DimensionMark"><polygon points="-5,-5,0,0,-5,5"/></g><g id="mark3" fill="#000000" stroke="none" transform="matrix(1,0,0,1,196.158,360.5291)" style="fill-opacity: 1; pointer-events: visible;" class="DimensionMark"><polygon points="-5,-5,0,0,5,-5"/></g><g id="mark4" fill="#000000" stroke="none" transform="matrix(1,0,0,1,0,180.2645)" style="fill-opacity: 1; pointer-events: visible;" class="DimensionMark"><polygon points="5,5,0,0,5,-5"/></g></g><g transform="matrix(1,0,0,1,155.9251,196.4908)" class="SpaceDimensionsLabel"><g id="NameLabel" style="display: block;" class="TextLabel NameLabel"><text x="0" y="0em" fill="#000000" stroke="none" style="font-family: Verdana; font-size: 33px; fill-opacity: 1; cursor: default;">MH</text></g><g id="DimensionMeasureLabel" transform="matrix(1,0,0,1,-102.9766,40.2031)" style="display: none;" class="TextLabel DimensionMeasureLabel"><text x="0" y="0em" fill="#000000" stroke="none" style="font-family: Verdana; font-size: 33px; fill-opacity: 1; cursor: default;">12'10" x 11'10"</text><text x="0" y="0"/></g></g></g></g><g id="f4fedd96-666c-4b72-9059-02007ef43179" fill="#ffffff" stroke="#ffffff" style="fill-opacity: 1; stroke-opacity: 1; stroke-width: 0.2;" class="Space Kitchen"><polygon points="316.81,1072.86 86.49,1072.86 86.49,624.00 316.81,624.00 "/><g transform="matrix(1,0,0,1,86.4868,624)" class="Dimension"><g transform="matrix(1,0,0,1,0,0)" style="display: none;" class="Visual"><g id="mark1" fill="#000000" stroke="none" transform="matrix(1,0,0,1,115.1638,0)" style="fill-opacity: 1; pointer-events: visible;" class="DimensionMark"><polygon points="-5,5,0,0,5,5"/></g><g id="mark2" fill="#000000" stroke="none" transform="matrix(1,0,0,1,230.3276,224.4301)" style="fill-opacity: 1; pointer-events: visible;" class="DimensionMark"><polygon points="-5,-5,0,0,-5,5"/></g><g id="mark3" fill="#000000" stroke="none" transform="matrix(1,0,0,1,115.1638,448.8602)" style="fill-opacity: 1; pointer-events: visible;" class="DimensionMark"><polygon points="-5,-5,0,0,5,-5"/></g><g id="mark4" fill="#000000" stroke="none" transform="matrix(1,0,0,1,0,224.4301)" style="fill-opacity: 1; pointer-events: visible;" class="DimensionMark"><polygon points="5,5,0,0,5,-5"/></g></g><g transform="matrix(1,0,0,1,105.8701,360.7367)" class="SpaceDimensionsLabel"><g id="NameLabel" style="display: block;" class="TextLabel NameLabel"><text x="0" y="0em" fill="#000000" stroke="none" style="font-family: Verdana; font-size: 33px; fill-opacity: 1; cursor: default;">K</text></g><g id="DimensionMeasureLabel" transform="matrix(1,0,0,1,-85.7656,40.1562)" style="display: none;" class="TextLabel DimensionMeasureLabel"><text x="0" y="0em" fill="#000000" stroke="none" style="font-family: Verdana; font-size: 33px; fill-opacity: 1; cursor: default;">7'7" x 14'9"</text><text x="0" y="0"/></g></g></g></g><g id="03f3de59-33e2-4520-b348-4d7942b5cd2c" fill="#ffffff" stroke="#ffffff" style="fill-opacity: 1; stroke-opacity: 1; stroke-width: 0.2;" class="Space Bath"><polygon points="292.13,487.36 316.81,487.36 316.81,614.00 86.49,614.00 86.49,414.61 292.13,414.61 "/><g transform="matrix(1,0,0,1,86.4868,414.6124)" class="Dimension"><g transform="matrix(1,0,0,1,0,0)" style="display: none;" class="Visual"><g id="mark1" fill="#000000" stroke="none" transform="matrix(1,0,0,1,115.1638,0)" style="fill-opacity: 1; pointer-events: visible;" class="DimensionMark"><polygon points="-5,5,0,0,5,5"/></g><g id="mark2" fill="#000000" stroke="none" transform="matrix(1,0,0,1,230.3276,99.6938)" style="fill-opacity: 1; pointer-events: visible;" class="DimensionMark"><polygon points="-5,-5,0,0,-5,5"/></g><g id="mark3" fill="#000000" stroke="none" transform="matrix(1,0,0,1,115.1638,199.3876)" style="fill-opacity: 1; pointer-events: visible;" class="DimensionMark"><polygon points="-5,-5,0,0,5,-5"/></g><g id="mark4" fill="#000000" stroke="none" transform="matrix(1,0,0,1,0,99.6938)" style="fill-opacity: 1; pointer-events: visible;" class="DimensionMark"><polygon points="5,5,0,0,5,-5"/></g></g><g transform="matrix(1,0,0,1,116.7438,149.5807)" class="SpaceDimensionsLabel"><g id="NameLabel" style="display: block;" class="TextLabel NameLabel"><text x="0" y="0em" fill="#000000" stroke="none" style="font-family: Verdana; font-size: 33px; fill-opacity: 1; cursor: default;">KPH</text></g><g id="DimensionMeasureLabel" transform="matrix(1,0,0,1,-53.5547,40.1563)" style="display: none;" class="TextLabel DimensionMeasureLabel"><text x="0" y="0em" fill="#000000" stroke="none" style="font-family: Verdana; font-size: 33px; fill-opacity: 1; cursor: default;">7'7" x 6'6"</text><text x="0" y="0"/></g></g></g></g><g id="Wall" fill="#000000" stroke="#000000" style="fill-opacity: 1; stroke-opacity: 1; stroke-width: 0.2;" class="Wall External"><polygon points="65.49,23.08 1095.82,23.08 1074.82,45.08 86.49,45.08 "/><g id="Window" fill="#f0f0ff" stroke="#000000" style="fill-opacity: 1; stroke-width: 1; stroke-opacity: 1;" class="Window Regular"><polygon points="90.91,23.08 245.88,23.08 245.88,45.08 90.91,45.08 "/><g id="Glass" class="Glass"><polygon points="90.91,23.08 245.88,23.08 245.88,45.08 90.91,45.08 "/></g><g id="Panel" class="Panel"><line x1="98.4099609998713" x2="238.38080975106448" y1="34.08330726107283" y2="34.083307261072804"/><line x1="98.4099609998713" x2="98.4099609998713" y1="23.08330726107283" y2="45.08330726107283"/><line x1="238.38080975106448" x2="238.38080975106448" y1="23.083307261072797" y2="45.0833072610728"/></g></g><g id="Window" fill="#f0f0ff" stroke="#000000" style="fill-opacity: 1; stroke-width: 1; stroke-opacity: 1;" class="Window Regular"><polygon points="245.88,23.08 409.61,23.08 409.61,45.08 245.88,45.08 "/><g id="Glass" class="Glass"><polygon points="245.88,23.08 409.61,23.08 409.61,45.08 245.88,45.08 "/></g><g id="Panel" class="Panel"><line x1="253.38080975106448" x2="402.11158547590105" y1="34.0833072610728" y2="34.08330726107276"/><line x1="253.38080975106448" x2="253.38080975106448" y1="23.083307261072797" y2="45.0833072610728"/><line x1="402.11158547590105" x2="402.11158547590105" y1="23.08330726107276" y2="45.08330726107276"/></g></g><g id="Window" fill="#f0f0ff" stroke="#000000" style="fill-opacity: 1; stroke-width: 1; stroke-opacity: 1;" class="Window Regular"><polygon points="409.61,23.08 474.91,23.08 474.91,45.08 409.61,45.08 "/><g id="Glass" class="Glass"><polygon points="409.61,23.08 474.91,23.08 474.91,45.08 409.61,45.08 "/></g><g id="Panel" class="Panel"><line x1="417.11158547590105" x2="467.4127650224083" y1="34.08330726107276" y2="34.083307261072754"/><line x1="417.11158547590105" x2="417.11158547590105" y1="23.08330726107276" y2="45.08330726107276"/><line x1="467.4127650224083" x2="467.4127650224083" y1="23.08330726107275" y2="45.08330726107275"/></g></g><g id="Window" fill="#f0f0ff" stroke="#000000" style="fill-opacity: 1; stroke-width: 1; stroke-opacity: 1;" class="Window Regular"><polygon points="491.95,23.08 590.38,23.08 590.38,45.08 491.95,45.08 "/><g id="Glass" class="Glass"><polygon points="491.95,23.08 590.38,23.08 590.38,45.08 491.95,45.08 "/></g><g id="Panel" class="Panel"><line x1="499.45478312919715" x2="582.8843659578349" y1="34.08330726107275" y2="34.083307261072726"/><line x1="499.45478312919715" x2="499.45478312919715" y1="23.083307261072747" y2="45.08330726107275"/><line x1="582.8843659578349" x2="582.8843659578349" y1="23.083307261072726" y2="45.083307261072726"/></g></g></g><g id="Wall" fill="#000000" stroke="#000000" style="fill-opacity: 1; stroke-opacity: 1; stroke-width: 0.2;" class="Wall External"><polygon points="1074.82,45.08 1074.82,411.21 1095.82,432.21 1095.82,23.08 "/><g id="Window" fill="#f0f0ff" stroke="#000000" style="fill-opacity: 1; stroke-width: 1; stroke-opacity: 1;" class="Window Regular"><polygon points="1074.82,52.83 1074.82,314.89 1095.82,314.89 1095.82,52.83 "/><g id="Glass" class="Glass"><polygon points="1074.82,52.83 1074.82,314.89 1095.82,314.89 1095.82,52.83 "/></g><g id="Panel" class="Panel"><line x1="1085.3214377715976" x2="1085.3214377715976" y1="60.32730749747216" y2="307.39053114213755"/><line x1="1074.8214377715976" x2="1095.8214377715976" y1="60.32730749747216" y2="60.32730749747216"/><line x1="1074.8214377715976" x2="1095.8214377715976" y1="307.39053114213755" y2="307.39053114213755"/></g></g><g id="Door" fill="#ffffff" stroke="#000000" style="fill-opacity: 1; stroke-width: 1; stroke-opacity: 1;" class="Door Swing Opposite"><polygon points="1074.82,320.33 1074.82,391.05 1095.82,391.05 1095.82,320.33 "/><g id="Threshold" class="Threshold"><polygon points="1074.82,320.33 1074.82,391.05 1095.82,391.05 1095.82,320.33 "/></g><g id="Panel" fill="none" style="" class="Panel Left Negative"><g id="PanelArea" fill="none" stroke="none" style="" class="PanelArea"><polygon points="1074.82,320.33 1074.82,391.05 1095.82,391.05 1095.82,320.33 "/></g><path d="M1074.82,320.33 q-70.72,0.00 -70.72,70.72 l70.72,0.00Z"/></g><g id="Panel" fill="none" style="" class="Panel Right Positive"><g id="PanelArea" fill="none" stroke="none" style="" class="PanelArea"><polygon points="1074.82,320.33 1074.82,391.05 1095.82,391.05 1095.82,320.33 "/></g><path d="M1095.82,320.33 q70.72,0.00 70.72,70.72 l-70.72,0.00Z"/></g></g></g><g id="Wall" fill="#000000" stroke="#000000" style="fill-opacity: 1; stroke-opacity: 1; stroke-width: 0.2;" class="Wall External"><polygon points="1095.82,432.21 607.02,432.21 586.02,411.21 1074.82,411.21 "/></g><g id="Wall" fill="#000000" stroke="#000000" style="fill-opacity: 1; stroke-opacity: 1; stroke-width: 0.2;" class="Wall External"><polygon points="586.02,411.21 586.02,678.10 607.02,678.10 607.02,432.21 "/></g><g id="Wall" fill="#000000" stroke="#000000" style="fill-opacity: 1; stroke-opacity: 1; stroke-width: 0.2;" class="Wall External"><polygon points="607.02,678.10 607.02,730.30 564.02,709.30 564.02,678.10 "/></g><g id="Wall" fill="#000000" stroke="#000000" style="fill-opacity: 1; stroke-opacity: 1; stroke-width: 0.2;" class="Wall External"><polygon points="607.02,730.30 336.56,730.30 316.81,709.30 564.02,709.30 "/><g id="Door" fill="#ffffff" stroke="#000000" style="fill-opacity: 1; stroke-width: 1; stroke-opacity: 1;" class="Door Swing Opposite"><polygon points="425.21,730.30 343.82,730.30 343.82,709.30 425.21,709.30 "/><g id="Threshold" class="Threshold"><polygon points="425.21,730.30 343.82,730.30 343.82,709.30 425.21,709.30 "/></g><g id="Panel" fill="none" style="" class="Panel Left Negative"><g id="PanelArea" fill="none" stroke="none" style="" class="PanelArea"><polygon points="425.21,730.30 343.82,730.30 343.82,709.30 425.21,709.30 "/></g><path d="M425.21,730.30 q0.00,81.39 -81.39,81.39 l0.00,-81.39Z"/></g><g id="Panel" fill="none" style="" class="Panel Right Positive"><g id="PanelArea" fill="none" stroke="none" style="" class="PanelArea"><polygon points="425.21,730.30 343.82,730.30 343.82,709.30 425.21,709.30 "/></g><path d="M425.21,709.30 q0.00,-81.39 -81.39,-81.39 l0.00,81.39Z"/></g></g></g><g id="Wall" fill="#000000" stroke="#000000" style="fill-opacity: 1; stroke-opacity: 1; stroke-width: 0.2;" class="Wall External"><polygon points="316.81,709.30 316.81,1072.86 336.56,1093.86 336.56,730.30 "/></g><g id="Wall" fill="#000000" stroke="#000000" style="fill-opacity: 1; stroke-opacity: 1; stroke-width: 0.2;" class="Wall External"><polygon points="316.81,1072.86 86.49,1072.86 65.49,1093.86 336.56,1093.86 "/></g><g id="Wall" fill="#000000" stroke="#000000" style="fill-opacity: 1; stroke-opacity: 1; stroke-width: 0.2;" class="Wall External"><polygon points="65.49,1093.86 65.49,23.08 86.49,45.08 86.49,1072.86 "/><g id="Window" fill="#f0f0ff" stroke="#000000" style="fill-opacity: 1; stroke-width: 1; stroke-opacity: 1;" class="Window Regular"><polygon points="65.49,822.31 65.49,631.04 86.49,631.04 86.49,822.31 "/><g id="Glass" class="Glass"><polygon points="65.49,822.31 65.49,631.04 86.49,631.04 86.49,822.31 "/></g><g id="Panel" class="Panel"><line x1="75.98679056213209" x2="75.98679056213207" y1="814.8051907946735" y2="638.543490320685"/><line x1="65.48679056213209" x2="86.48679056213209" y1="814.8051907946735" y2="814.8051907946735"/><line x1="65.48679056213207" x2="86.48679056213207" y1="638.543490320685" y2="638.543490320685"/></g></g><g id="Window" fill="#f0f0ff" stroke="#000000" style="fill-opacity: 1; stroke-width: 1; stroke-opacity: 1;" class="Window Regular"><polygon points="65.49,854.41 65.49,822.31 86.49,822.31 86.49,854.41 "/><g id="Glass" class="Glass"><polygon points="65.49,854.41 65.49,822.31 86.49,822.31 86.49,854.41 "/></g><g id="Panel" class="Panel"><line x1="75.9867905621321" x2="75.98679056213209" y1="846.9050566084898" y2="829.8051907946735"/><line x1="65.4867905621321" x2="86.4867905621321" y1="846.9050566084898" y2="846.9050566084898"/><line x1="65.48679056213209" x2="86.48679056213209" y1="829.8051907946735" y2="829.8051907946735"/></g></g><g id="Window" fill="#f0f0ff" stroke="#000000" style="fill-opacity: 1; stroke-width: 1; stroke-opacity: 1;" class="Window Regular"><polygon points="65.49,613.09 65.49,578.02 86.49,578.02 86.49,613.09 "/><g id="Glass" class="Glass"><polygon points="65.49,613.09 65.49,578.02 86.49,578.02 86.49,613.09 "/></g><g id="Panel" class="Panel"><line x1="75.98679056213207" x2="75.98679056213207" y1="605.5927336431087" y2="585.5208546409895"/><line x1="65.48679056213207" x2="86.48679056213207" y1="605.5927336431087" y2="605.5927336431087"/><line x1="65.48679056213207" x2="86.48679056213207" y1="585.5208546409895" y2="585.5208546409895"/></g></g></g><g id="Wall" fill="#000000" stroke="#000000" style="fill-opacity: 1; stroke-opacity: 1; stroke-width: 0.2;" class="Wall"><polygon points="478.80,23.08 478.80,405.61 487.80,414.61 487.80,23.08 "/></g><g id="Wall" fill="#000000" stroke="#000000" style="fill-opacity: 1; stroke-opacity: 1; stroke-width: 0.2;" class="Wall"><polygon points="478.80,405.61 65.49,405.61 65.49,414.61 487.80,414.61 "/><g id="Door" fill="#ffffff" stroke="#000000" style="fill-opacity: 1; stroke-width: 1; stroke-opacity: 1;" class="Door Swing Beside"><polygon points="407.92,405.61 338.15,405.61 338.15,414.61 407.92,414.61 "/><g id="Threshold" class="Threshold"><polygon points="407.92,405.61 338.15,405.61 338.15,414.61 407.92,414.61 "/></g><g id="Panel" fill="none" style="" class="Panel Right Positive"><g id="PanelArea" fill="none" stroke="none" style="" class="PanelArea"><polygon points="407.92,405.61 338.15,405.61 338.15,414.61 407.92,414.61 "/></g><path d="M407.92,414.61 q0.00,69.78 -69.78,69.78 l0.00,-69.78Z"/></g></g></g><g id="Wall" fill="#000000" stroke="#000000" style="fill-opacity: 1; stroke-opacity: 1; stroke-width: 0.2;" class="Wall"><polygon points="316.81,709.30 316.81,487.36 326.81,487.36 326.81,709.30 "/><g id="Door" fill="#ffffff" stroke="#000000" style="fill-opacity: 1; stroke-width: 1; stroke-opacity: 1;" class="Door Swing Beside"><polygon points="316.81,705.37 316.81,635.94 326.81,635.94 326.81,705.37 "/><g id="Threshold" class="Threshold"><polygon points="316.81,705.37 316.81,635.94 326.81,635.94 326.81,705.37 "/></g><g id="Panel" fill="none" style="" class="Panel Left Negative"><g id="PanelArea" fill="none" stroke="none" style="" class="PanelArea"><polygon points="316.81,705.37 316.81,635.94 326.81,635.94 326.81,705.37 "/></g><path d="M316.81,705.37 q-69.43,0.00 -69.43,-69.43 l69.43,0.00Z"/></g></g><g id="Door" fill="#ffffff" stroke="#000000" style="fill-opacity: 1; stroke-width: 1; stroke-opacity: 1;" class="Door Swing Beside"><polygon points="316.81,571.39 316.81,499.07 326.81,499.07 326.81,571.39 "/><g id="Threshold" class="Threshold"><polygon points="316.81,571.39 316.81,499.07 326.81,499.07 326.81,571.39 "/></g><g id="Panel" fill="none" style="" class="Panel Right Positive"><g id="PanelArea" fill="none" stroke="none" style="" class="PanelArea"><polygon points="316.81,571.39 316.81,499.07 326.81,499.07 326.81,571.39 "/></g><path d="M326.81,571.39 q72.32,0.00 72.32,-72.32 l-72.32,0.00Z"/></g></g></g><g id="Wall" fill="#000000" stroke="#000000" style="fill-opacity: 1; stroke-opacity: 1; stroke-width: 0.2;" class="Wall"><polygon points="292.13,487.36 292.13,405.61 326.81,405.61 326.81,487.36 "/></g><g id="Wall" fill="#000000" stroke="#000000" style="fill-opacity: 1; stroke-opacity: 1; stroke-width: 0.2;" class="Wall"><polygon points="65.49,624.00 326.81,624.00 326.81,614.00 65.49,614.00 "/></g><g id="Wall" fill="#000000" stroke="#000000" style="fill-opacity: 1; stroke-opacity: 1; stroke-width: 0.2;" class="Wall"><polygon points="1095.82,432.21 1233.55,432.21 1233.55,411.21 1095.82,411.21 "/></g><g id="Wall" fill="#000000" stroke="#000000" style="fill-opacity: 1; stroke-opacity: 1; stroke-width: 0.2;" class="Wall"><polygon points="1095.82,23.08 1233.55,23.08 1233.55,45.08 1095.82,45.08 "/></g><g id="Railing" fill="#ffffff" stroke="#000000" style="fill-opacity: 1; stroke-opacity: 1; stroke-width: 0.2;" class="Railing"><polygon points="1233.55,45.08 1233.55,411.21 1220.55,411.21 1220.55,45.08 " style="stroke-dasharray: 0;"/></g><g class="FixedFurniture Closet" fill="#ffffff" stroke="#000000" transform="matrix(0,1,-1,0,478.7559,345.6124)" style="fill-opacity: 1; stroke-opacity: 1; stroke-width: 1;">
        <g class="BoundaryPolygon">
            <polygon points="0,0 60,0 60,60 0,60"/>
        </g>
        <g class="Direction" fill-opacity="0.9" style="display: none;">
            <polygon points="31.509 54.697 31.509 44.081 28.5 44.081 28.5 54.697 24.697 54.697 30 60 35.303 54.697 31.509 54.697" fill="#444444"/>
        </g> 
        <g class="Name" fill-opacity="0.9" style="display: none;">
            <text transform="translate(3 12)" font-size="12" font-family="Verdana, Sans-Serif">CL</text>
        </g>
        <desc>Width:60 Height:200 Depth:60 Elevation:0</desc>
     </g><g class="FixedFurniture Closet" fill="#ffffff" stroke="#000000" transform="matrix(0,1,-1,0,478.7559,281.7824)" style="fill-opacity: 1; stroke-opacity: 1; stroke-width: 1;">
        <g class="BoundaryPolygon">
            <polygon points="0.00,0.00 63.83,0.00 63.83,60.00 0.00,60.00 "/>
        </g>
        <g class="Direction" fill-opacity="0.9" style="display: none;">
            <polygon points="33.52,54.70 33.52,44.08 30.51,44.08 30.51,54.70 26.71,54.70 32.01,60.00 37.31,54.70 33.52,54.70 " fill="#444444"/>
        </g> 
        <g class="Name" fill-opacity="0.9" style="display: none;">
            <text transform="translate(3 12)" font-size="12" font-family="Verdana, Sans-Serif">CL</text>
        </g>
        <desc>Width:60 Height:200 Depth:60 Elevation:0</desc>
     </g><g class="FixedFurniture Closet" fill="#ffffff" stroke="#000000" transform="matrix(0,1,-1,0,478.7558,223.3824)" style="fill-opacity: 1; stroke-opacity: 1; stroke-width: 1;">
        <g class="BoundaryPolygon">
            <polygon points="0.00,0.00 58.40,0.00 58.40,60.00 0.00,60.00 "/>
        </g>
        <g class="Direction" fill-opacity="0.9" style="display: none;">
            <polygon points="30.67,54.70 30.67,44.08 27.66,44.08 27.66,54.70 23.86,54.70 29.16,60.00 34.46,54.70 30.67,54.70 " fill="#444444"/>
        </g> 
        <g class="Name" fill-opacity="0.9" style="display: none;">
            <text transform="translate(3 12)" font-size="12" font-family="Verdana, Sans-Serif">CL</text>
        </g>
        <desc>Width:60 Height:200 Depth:60 Elevation:0</desc>
     </g><g class="FixedFurniture Closet" fill="#ffffff" stroke="#000000" transform="matrix(0,1,-1,0,478.7559,158.9224)" style="fill-opacity: 1; stroke-opacity: 1; stroke-width: 1;">
        <g class="BoundaryPolygon">
            <polygon points="0.00,0.00 64.46,0.00 64.46,60.00 0.00,60.00 "/>
        </g>
        <g class="Direction" fill-opacity="0.9" style="display: none;">
            <polygon points="33.85,54.70 33.85,44.08 30.84,44.08 30.84,54.70 27.04,54.70 32.34,60.00 37.64,54.70 33.85,54.70 " fill="#444444"/>
        </g> 
        <g class="Name" fill-opacity="0.9" style="display: none;">
            <text transform="translate(3 12)" font-size="12" font-family="Verdana, Sans-Serif">CL</text>
        </g>
        <desc>Width:60 Height:200 Depth:60 Elevation:0</desc>
     </g><g class="FixedFurniture Toilet" fill="#ffffff" stroke="#000000" transform="matrix(0.8001,0,0,0.8538,240.899,414.6124)" style="fill-opacity: 1; stroke-opacity: 1; stroke-width: 1;">
	   <g class="BoundaryPolygon" fill="none" stroke="none"> 
            <polygon points="0,0 41,0 41,71 0,71"/>
		</g>
        <g class="InnerPolygon">
            <rect x="0.502" y="0.5" width="39.989" height="17.98"/>
            <path d="M40.491,44.237S41.619,70.5,20.907,70.5C-.523,70.5.6,44.237.6,44.237L.5,18.48H40.491Z"/>
            <rect x="17.318" y="7.975" width="6.357" height="3.03"/>
        </g>
        <desc>Width:41 Height:85 Depth:71 Elevation:0</desc>
    </g><g id="FixedFurnitureSet" transform="matrix(1,0,0,1,171.3566,414.753)" class="FixedFurnitureSet" fill="#ffffff" stroke="#fc0fc0" style="fill-opacity: 0.4; stroke-opacity: 0.9; stroke-width: 1.5;"><g class="FixedFurniture BaseCabinet" fill="#ffffff" stroke="#000000" transform="matrix(1,0,0,1,0,0)" style="fill-opacity: 1; stroke-opacity: 1; stroke-width: 1;">
        <g class="BoundaryPolygon">
            <polygon points="0.00,0.00 52.90,0.00 52.90,42.28 0.00,42.28 "/>
        </g>
        <g class="Direction" fill-opacity="0.9" style="display: none;">
            <polygon points="28.22,38.90 28.22,28.28 25.21,28.28 25.21,38.90 21.41,38.90 26.71,43.70 32.01,38.90 28.22,38.90 " fill="#444444"/>
        </g> 
        <g class="Name" fill-opacity="0.9" style="display: none;">
            <text transform="translate(3 12)" font-size="12" font-family="Verdana, Sans-Serif">CB</text>
        </g>
        <desc>Width:60 Height:5 Depth:60 Elevation:105</desc>
    </g><g class="FixedFurniture Sink" fill="#ffffff" stroke="#000000" transform="matrix(1,0,0,1,0,0)" style="fill-opacity: 1; stroke-opacity: 1; stroke-width: 1;">
        <g class="BoundaryPolygon" fill="none" stroke="none">
        <polygon points="0.00,0.00 52.90,0.00 52.90,42.28 0.00,42.28 "/>
        </g>
        <g class="InnerPolygon">
            <polygon points="4.41,9.70 48.49,9.70 48.49,38.55 4.41,38.55 "/>
        </g>
        <g class="OuterDrain" stroke-width="0.8">
            <circle cx="26.448041964903595" cy="22.691198858500016" r="3.5"/>
        </g>
        <g class="InnerDrain" stroke-width="0.8">
            <circle cx="26.448041964903595" cy="22.691198858500016" r="2"/>
        </g>
        <g class="Faucet">
            <polygon points="23.80,3.52 29.80,3.52 29.80,17.52 23.80,17.52 "/>
        </g>
        <g class="Direction" fill-opacity="0.9" style="display: none;">
            <polygon points="28.22,38.90 28.22,28.28 25.21,28.28 25.21,38.90 21.41,38.90 26.71,43.70 32.01,38.90 28.22,38.90 " fill="#444444"/>
        </g> 
        <g class="Name" fill-opacity="0.9" style="display: none;">
            <text transform="translate(3 12)" font-size="12" font-family="Verdana, Sans-Serif">SINK</text>
        </g>
        <desc>Width:60 Height:90 Depth:60 Elevation:0</desc>
    </g></g><g class="FixedFurniture Shower" fill="#ffffff" stroke="#000000" transform="matrix(1,0,0,1,109.5423,414.6123)" style="fill-opacity: 1; stroke-opacity: 1; stroke-width: 1;"> 
	    <g class="BoundaryPolygon" fill="none" stroke="none">
            <polygon points="0,0 32,0 32,19 0,19"/>
        </g>
        <g class="InnerPolygon"> 
			<rect x="3.7" y="0.5" width="11.2" height="6.1"/>
			<rect x="17.6" y="0.5" width="11.2" height="6.1"/>
			<rect x="28.7" y="0.5" width="3.4" height="6.1"/>
			<rect x="0.5" y="0.5" width="3.2" height="6.1"/>
			<path d="M14.9,8.5c0,1.5-0.4,3.3-1.6,5    c-0.4,0.6-1,1.1-1.1,1.7c-0.2,1.1,0.3,2.8,2.5,3.2c0.5,0.1,1.3,0.1,1.6,0.1h-0.1c0.3,0,1.1,0,1.6-0.1c2.2-0.4,2.7-2.1,2.5-3.2    c-0.1-0.6-0.7-1.1-1.1-1.7c-1.2-1.7-1.6-3.5-1.6-5"/>
			<path d="M12.2,15.3c0.1,0.2,1.6,1.9,4.2,1.9 c2.4-0.1,3.7-1.7,3.9-1.9"/>
			<path d="M14.9,0.5h2.7v8c-0.9,0-1.8,0-2.7,0l0,0 C14.9,5.9,14.9,3.2,14.9,0.5z"/>
		</g>
	    <g class="Indicator"> 
			<path d="M3.7,3.6C5,3.1,5.2,3,5.2,3 c0,1.1,0,0,0,1.1C5.2,4.1,5.1,4.1,3.7,3.6"/>
			<path d="M28.7,3.6 C27.4,3.1,27.2,3,27.2,3c0,1.1,0,0,0,1.1C27.2,4.1,27.3,4.1,28.7,3.6"/>	
		</g>
        <desc>Width:32 Height:97 Depth:19 Elevation:135</desc>
	</g><g class="FixedFurniture ElectricalAppliance SpaceForAppliance" fill="#ffffff" stroke="#000000" transform="matrix(0,-1,1,0,86.6274,614)" style="fill-opacity: 1; stroke-opacity: 1; stroke-width: 1;">
	    <g class="BoundaryPolygon"> 
		    <polygon points="0,0 60,0 60,60 0,60"/>
		</g>	
	    <g class="electricitySign" fill="none" stroke-dasharray="4,4" style="display: block;">
            <path d="M0,0,30.1,39.8V19.4L59.9,60"/>
		</g>
        <g class="Direction" fill-opacity="0.9" style="display: none;">
            <polygon points="32.009 55.197 32.009 44.581 29 44.581 29 55.197 25.197 55.197 30.5 60 35.803 55.197 32.009 55.197" fill="#444444"/>
        </g> 
        <g class="Name" fill-opacity="0.9" style="display: none;">
            <text transform="translate(3 12)" font-size="12" font-family="Verdana, Sans-Serif">SFA</text>
        </g>
        <desc>Width:60 Height:90 Depth:60 Elevation:0</desc>
	</g><g transform="matrix(1,0,0,1,171.3566,414.6123)" class="FixedFurniture Misc" fill="none" stroke="#000000" style="fill-opacity: 1; stroke-opacity: 1; stroke-width: 1.8; stroke-dasharray: 5, 5;"><desc>Width:120 Height:200 Depth:60 Elevation:0</desc><g class="BoundaryPolygon"><path d="M0.00,0.00 L0.00,101.70 L-84.73,101.70 "/></g></g><g class="FixedFurniture BaseCabinet" fill="#ffffff" stroke="#000000" transform="matrix(0,1,-1,0,316.8144,851.8702)" style="fill-opacity: 1; stroke-opacity: 1; stroke-width: 1;">
        <g class="BoundaryPolygon">
            <polygon points="0.00,0.00 220.99,0.00 220.99,60.00 0.00,60.00 "/>
        </g>
        <g class="Direction" fill-opacity="0.9" style="display: none;">
            <polygon points="117.89,55.20 117.89,44.58 114.88,44.58 114.88,55.20 111.08,55.20 116.38,60.00 121.69,55.20 117.89,55.20 " fill="#444444"/>
        </g> 
        <g class="Name" fill-opacity="0.9" style="display: none;">
            <text transform="translate(3 12)" font-size="12" font-family="Verdana, Sans-Serif">CB</text>
        </g>
        <desc>Width:60 Height:90 Depth:60 Elevation:0</desc>
    </g><g class="FixedFurniture ElectricalAppliance IntegratedStove" fill="#ffffff" stroke="#000000" transform="matrix(0,1,-1,0,318.4519,989.0461)" style="fill-opacity: 1; stroke-opacity: 1; stroke-width: 1;">
        <g class="BoundaryPolygon" fill="none" stroke="none">
            <polygon points="0.00,0.00 65.67,0.00 65.67,63.71 0.00,63.71 "/>
        </g>
        <g class="InnerPolygon">
            <polygon points="2.00,2.00 63.48,2.00 63.48,61.58 2.00,61.58 "/>
        </g>
        <g class="OuterCircle">
            <circle cx="17.51159557104937" cy="16.988781701393346" r="8"/>
            <circle cx="48.156887820385755" cy="16.988781701393346" r="8"/>
            <circle cx="17.51159557104937" cy="46.71914967883173" r="8"/>
            <circle cx="48.156887820385755" cy="46.71914967883173" r="8"/>
        </g>
        <g class="Direction" fill-opacity="0.9" style="display: none;">
            <polygon points="35.03,58.61 35.03,47.99 32.02,47.99 32.02,58.61 28.22,58.61 33.52,63.41 38.83,58.61 35.03,58.61 " fill="#444444"/>
        </g> 
        <g class="Name" fill-opacity="0.9" style="display: none;">
            <text transform="translate(3 12)" font-size="12" font-family="Verdana, Sans-Serif">INT_STOVE</text>
        </g>
        <desc>Width:60 Height:90 Depth:30 Elevation:0</desc>
    </g><g class="FixedFurniture DoubleSink" fill="#ffffff" stroke="#000000" transform="matrix(0,1,-1,0,309.9023,899.4271)" style="fill-opacity: 1; stroke-opacity: 1; stroke-width: 1;">
        <g class="BoundaryPolygon" fill="none" stroke="none">
            <polygon points="0.00,0.00 72.81,0.00 72.81,49.03 0.00,49.03 "/>
        </g>
        <g class="InnerPolygonLeft">
            <polygon points="5.20,9.90 34.84,9.90 34.84,44.86 5.20,44.86 "/>
        </g>
        <g class="InnerPolygonRight">
            <polygon points="37.96,10.00 67.61,10.00 67.61,44.94 37.96,44.94 "/>
        </g>
        <g class="OuterDrain" stroke-width="0.8">
            <circle cx="20.490267002623305" cy="26.557111686609623" r="3.5"/>
            <circle cx="52.21377682901982" cy="26.557111686609623" r="3.5"/>
        </g>
        <g class="InnerDrain" stroke-width="0.8">
            <circle cx="20.490267002623305" cy="26.557111686609623" r="2"/>
            <circle cx="52.21377682901982" cy="26.557111686609623" r="2"/>
        </g>
        <g class="Faucet">
            <polygon points="33.28,4.00 39.28,4.00 39.28,18.00 33.28,18.00 "/>
        </g>
        <g class="Direction" fill-opacity="0.9" style="display: none;">
            <polygon points="37.97,44.70 37.97,34.08 34.96,34.08 34.96,44.70 31.16,44.70 36.46,50.00 41.77,44.70 37.97,44.70 " fill="#444444"/>
        </g> 
        <g class="Name" fill-opacity="0.9" style="display: none;">
            <text transform="translate(3 12)" font-size="12" font-family="Verdana, Sans-Serif">DSINK</text>
        </g>
        <desc>Width:70 Height:90 Depth:60 Elevation:0</desc>
    </g><g class="FixedFurniture WallCabinet" fill="#ffffff" stroke="#000000" transform="matrix(0,1,-1,0,316.8144,852.2701)" style="fill-opacity: 0.7; stroke-opacity: 1; stroke-width: 1.5;">	
        <g class="BoundaryPolygon">
            <polygon points="0.00,0.00 220.59,0.00 220.59,30.00 0.00,30.00 "/>
        </g>
        <g class="Direction" fill-opacity="0.9" style="display: none;">
            <polygon points="117.68,25.20 117.68,14.58 114.67,14.58 114.67,25.20 110.87,25.20 116.17,30.00 121.47,25.20 117.68,25.20 " fill="#444444"/>
        </g> 
        <g class="Name" fill-opacity="0.9" style="display: none;">
            <text transform="translate(3 12)" font-size="12" font-family="Verdana, Sans-Serif">UC</text>
        </g>
        <desc>Width:60 Height:60 Depth:30 Elevation:140</desc>
    </g><g class="FixedFurniture ElectricalAppliance Refrigerator" fill="#ffffff" stroke="#000000" transform="matrix(0,-1,1,0,86.6587,1072.8601)" style="fill-opacity: 1; stroke-opacity: 1; stroke-width: 1;">
        <g class="BoundaryPolygon">
            <polygon points="0,0 60,0 60,60 0,60"/>
        </g>
        <g class="electricitySign" fill="none" style="display: block;">
            <path d="M0,0,30,37.1v-18L60,56.3"/>
        </g>
        <g class="Doors">
            <rect y="56" width="60" height="4"/>
        </g>
        <g class="Direction" fill-opacity="0.9" style="display: none;">
            <polygon points="32.009 55.197 32.009 44.581 29 44.581 29 55.197 25.197 55.197 30.5 60 35.803 55.197 32.009 55.197" fill="#444444"/>
        </g> 
        <g class="Name" fill-opacity="0.9" style="display: none;">
            <text transform="translate(3 12)" font-size="12" font-family="Verdana, Sans-Serif">REF</text>
        </g>
        <desc>Width:60 Height:170 Depth:60 Elevation:0</desc>
    </g><g class="FixedFurniture BaseCabinet" fill="#ffffff" stroke="#000000" transform="matrix(0,-1,1,0,86.5336,1012.8601)" style="fill-opacity: 1; stroke-opacity: 1; stroke-width: 1;">
        <g class="BoundaryPolygon">
            <polygon points="0.00,0.00 159.00,0.00 159.00,60.00 0.00,60.00 "/>
        </g>
        <g class="Direction" fill-opacity="0.9" style="display: none;">
            <polygon points="84.82,55.20 84.82,44.58 81.81,44.58 81.81,55.20 78.01,55.20 83.31,60.00 88.62,55.20 84.82,55.20 " fill="#444444"/>
        </g> 
        <g class="Name" fill-opacity="0.9" style="display: none;">
            <text transform="translate(3 12)" font-size="12" font-family="Verdana, Sans-Serif">CB</text>
        </g>
        <desc>Width:60 Height:90 Depth:60 Elevation:0</desc>
    </g><g class="FixedFurniture WallCabinet" fill="#ffffff" stroke="#000000" transform="matrix(0,-1,1,0,86.5336,1012.8601)" style="fill-opacity: 0.7; stroke-opacity: 1; stroke-width: 1.5;">	
        <g class="BoundaryPolygon">
            <polygon points="0.00,0.00 158.50,0.00 158.50,30.00 0.00,30.00 "/>
        </g>
        <g class="Direction" fill-opacity="0.9" style="display: none;">
            <polygon points="84.55,25.20 84.55,14.58 81.55,14.58 81.55,25.20 77.74,25.20 83.05,30.00 88.35,25.20 84.55,25.20 " fill="#444444"/>
        </g> 
        <g class="Name" fill-opacity="0.9" style="display: none;">
            <text transform="translate(3 12)" font-size="12" font-family="Verdana, Sans-Serif">UC</text>
        </g>
        <desc>Width:60 Height:60 Depth:30 Elevation:140</desc>
    </g><g class="FixedFurniture CoatCloset" fill="#ffffff" stroke="#000000" transform="matrix(0,1,-1,0,585.9995,539.4935)" style="fill-opacity: 1; stroke-opacity: 1; stroke-width: 1;">
        <g class="BoundaryPolygon">
            <polygon points="0.00,0.00 114.59,0.00 114.59,60.00 0.00,60.00 "/>
        </g>
        <g class="Hanger" fill="#ffffff" stroke="#9a9a9a" stroke-dasharray="5,5">
            <line x1="0" y1="30" x2="114.58663939579766" y2="30"/>
        </g>
        <g class="Direction" fill-opacity="0.9" style="display: none;">
            <polygon points="58.73,54.52 58.73,43.90 55.73,43.90 55.73,54.52 51.92,54.52 57.23,59.82 62.53,54.52 58.73,54.52 " fill="#444444"/>
        </g> 
        <g class="Name" fill-opacity="0.9" style="display: none;">
            <text transform="translate(3 12)" font-size="12" font-family="Verdana, Sans-Serif">CWH</text>
        </g>
        <desc>Width:120 Height:200 Depth:60 Elevation:0</desc>
     </g><g transform="matrix(1,0,0,1,525.9839,654.0835)" class="FixedFurniture Closet" fill="#ffffff" stroke="#000000" style="fill-opacity: 1; stroke-opacity: 1; stroke-width: 1;"><desc>Width:120 Height:200 Depth:60 Elevation:0</desc><g class="BoundaryPolygon"><polygon points="0.00,0.00 0.00,55.22 38.03,55.22 38.03,24.01 60.02,24.01 60.02,0.00 0.00,0.00 "/></g></g><g fill="#0000ff" stroke="#0000ff" style="display: none;" class="SelectionControls"><g style="display: none;" class="rotateControl"><circle cx="204.4037655621321" cy="921.4710565172361" r="5" style="stroke : none; fill-opacity: 0.5; cursor:crosshair"/></g><g style="display: none;" class="ResizeNControl"><circle cx="0" cy="0" r="5" style="stroke : none; fill-opacity: 0.5"/></g><g style="display: none;" class="ResizeNEControl"><circle cx="0" cy="0" r="5" style="stroke : none; fill-opacity: 0.5"/></g><g style="display: none;" class="ResizeEControl"><circle cx="0" cy="0" r="5" style="stroke : none; fill-opacity: 0.5"/></g><g style="display: none;" class="ResizeSEControl"><circle cx="0" cy="0" r="5" style="stroke : none; fill-opacity: 0.5"/></g><g style="display: none;" class="ResizeSControl"><circle cx="0" cy="0" r="5" style="stroke : none; fill-opacity: 0.5"/></g><g style="display: none;" class="ResizeSWControl"><circle cx="0" cy="0" r="5" style="stroke : none; fill-opacity: 0.5"/></g><g style="display: none;" class="ResizeWControl"><circle cx="0" cy="0" r="5" style="stroke : none; fill-opacity: 0.5"/></g><g style="display: none;" class="ResizeNWControl"><circle cx="0" cy="0" r="5" style="stroke : none; fill-opacity: 0.5"/></g><g style="display: none;" class="removeControl"><polygon style="stroke : none; fill-opacity: 0.1" points="192.36,951.47 216.45,951.47 216.45,991.63 192.36,991.63 "/></g><g style="display: none;" class="copyPasteControl"><polygon style="stroke : none; fill-opacity: 0.1"/></g><g style="display: none;" class="translateControl"><polygon style="stroke : none; fill-opacity: 0.1; cursor:move" points="192.36,951.47 216.45,951.47 216.45,991.63 192.36,991.63 "/></g></g><g fill="#0000ff" stroke="#0000ff" style="display: none;" class="SelectionControls"><polygon fill="none" stroke="#0000ff" style="" points="86.49,624.00 316.81,624.00 316.81,1072.86 86.49,1072.86 "/><g style="display: none;" class="rotateControl"><circle cx="201.65059366271805" cy="593.9999815172362" r="5" style="stroke : none; fill-opacity: 0.5; cursor:crosshair"/></g><g style="display: none;" class="ResizeNControl"><circle cx="0" cy="0" r="5" style="stroke : none; fill-opacity: 0.5"/></g><g style="display: none;" class="ResizeNEControl"><circle cx="0" cy="0" r="5" style="stroke : none; fill-opacity: 0.5"/></g><g style="display: none;" class="ResizeEControl"><circle cx="0" cy="0" r="5" style="stroke : none; fill-opacity: 0.5"/></g><g style="display: none;" class="ResizeSEControl"><circle cx="0" cy="0" r="5" style="stroke : none; fill-opacity: 0.5"/></g><g style="display: none;" class="ResizeSControl"><circle cx="0" cy="0" r="5" style="stroke : none; fill-opacity: 0.5"/></g><g style="display: none;" class="ResizeSWControl"><circle cx="0" cy="0" r="5" style="stroke : none; fill-opacity: 0.5"/></g><g style="display: none;" class="ResizeWControl"><circle cx="0" cy="0" r="5" style="stroke : none; fill-opacity: 0.5"/></g><g style="display: none;" class="ResizeNWControl"><circle cx="0" cy="0" r="5" style="stroke : none; fill-opacity: 0.5"/></g><g style="display: none;" class="removeControl"><polygon style="stroke : none; fill-opacity: 0.1"/></g><g style="display: none;" class="copyPasteControl"><polygon style="stroke : none; fill-opacity: 0.1"/></g><g style="display: none;" class="translateControl"><polygon style="stroke : none; fill-opacity: 0.1; cursor:move"/></g></g></g></g></g></svg>
