<?xml version="1.0"?>
<svg xmlns="http://www.w3.org/2000/svg" xmlns:xlink="http://www.w3.org/1999/xlink" height="797.0899810791016" version="1.1" width="1499.9997787475586" id="temp" viewBox="0 0 1499.9997787475586 797.0899810791016"><defs/><g id="Model" class="Model v1-1"><g class="Floor"><g id="Floor-1" class="Floorplan Floor-1"><g id="f9e4e723-4e47-4cb1-836b-bdd432bc0ce3" fill="#ffffff" stroke="#000000" style="fill-opacity: 1; stroke-opacity: 1; stroke-width: 0.2;" class="Space Outdoor"><polygon points="1267.41,93.26 1401.62,93.26 1401.62,491.72 1267.41,491.72 1267.41,93.26 1267.41,93.26 "/><g transform="matrix(1,0,0,1,1267.4139,93.2579)" class="Dimension"><g transform="matrix(1,0,0,1,0,0)" style="display: none;" class="Visual"><g id="mark1" fill="#000000" stroke="none" transform="matrix(1,0,0,1,67.1017,0)" style="fill-opacity: 1; pointer-events: visible;" class="DimensionMark"><polygon points="-5,5,0,0,5,5"/></g><g id="mark2" fill="#000000" stroke="none" transform="matrix(1,0,0,1,134.2033,199.2334)" style="fill-opacity: 1; pointer-events: visible;" class="DimensionMark"><polygon points="-5,-5,0,0,-5,5"/></g><g id="mark3" fill="#000000" stroke="none" transform="matrix(1,0,0,1,67.1017,398.4668)" style="fill-opacity: 1; pointer-events: visible;" class="DimensionMark"><polygon points="-5,-5,0,0,5,-5"/></g><g id="mark4" fill="#000000" stroke="none" transform="matrix(1,0,0,1,0,199.2334)" style="fill-opacity: 1; pointer-events: visible;" class="DimensionMark"><polygon points="5,5,0,0,5,-5"/></g></g><g transform="matrix(1,0,0,1,67.1016,67.1016)" class="SpaceDimensionsLabel"><g id="NameLabel" style="display: block;" class="TextLabel NameLabel"><text x="0" y="0em" fill="#000000" stroke="none" style="font-family: Verdana; font-size: 33px; fill-opacity: 1; cursor: default;">ULKOTILA</text></g><g id="DimensionMeasureLabel" transform="matrix(1,0,0,1,-15.0469,39.75)" style="display: none;" class="TextLabel DimensionMeasureLabel"><text x="0" y="0em" fill="#000000" stroke="none" style="font-family: Verdana; font-size: 33px; fill-opacity: 1; cursor: default;">4'5" x 13'1"</text><text x="0" y="0"/></g></g></g></g><g id="8fa64df8-70b0-48d7-95fb-e8a4589812d7" fill="#ffffff" stroke="#ffffff" style="fill-opacity: 1; stroke-opacity: 1; stroke-width: 0.2;" class="Space Undefined"><polygon points="1247.41,491.72 596.67,491.72 596.67,699.49 456.93,699.49 456.93,285.41 746.12,285.41 746.12,93.26 1247.41,93.26 "/><g transform="matrix(1,0,0,1,456.9309,93.2579)" class="Dimension"><g transform="matrix(1,0,0,1,0,0)" style="display: none;" class="Visual"><g id="mark1" fill="#000000" stroke="none" transform="matrix(1,0,0,1,395.2415,0)" style="fill-opacity: 1; pointer-events: visible;" class="DimensionMark"><polygon points="-5,5,0,0,5,5"/></g><g id="mark2" fill="#000000" stroke="none" transform="matrix(1,0,0,1,790.483,303.1158)" style="fill-opacity: 1; pointer-events: visible;" class="DimensionMark"><polygon points="-5,-5,0,0,-5,5"/></g><g id="mark3" fill="#000000" stroke="none" transform="matrix(1,0,0,1,395.2415,398.4668)" style="fill-opacity: 1; pointer-events: visible;" class="DimensionMark"><polygon points="-5,-5,0,0,5,-5"/></g><g id="mark4" fill="#000000" stroke="none" transform="matrix(1,0,0,1,0,303.1158)" style="fill-opacity: 1; pointer-events: visible;" class="DimensionMark"><polygon points="5,5,0,0,5,-5"/></g></g><g transform="matrix(1,0,0,1,526.3085,199.5117)" class="SpaceDimensionsLabel"><g id="NameLabel" style="display: block;" class="TextLabel NameLabel"><text x="0" y="0em" fill="#000000" stroke="none" style="font-family: Verdana; font-size: 33px; fill-opacity: 1; cursor: default;">UNDEFINED</text></g><g id="DimensionMeasureLabel" transform="matrix(1,0,0,1,-29.789,40.1718)" style="display: none;" class="TextLabel DimensionMeasureLabel"><text x="0" y="0em" fill="#000000" stroke="none" style="font-family: Verdana; font-size: 33px; fill-opacity: 1; cursor: default;">25'11" x 13'1"</text><text x="0" y="0"/></g></g></g></g><g id="0b4868a7-7dc9-4a1a-abd1-e0a70f281355" fill="#ffffff" stroke="#ffffff" style="fill-opacity: 1; stroke-opacity: 1; stroke-width: 0.2;" class="Space Undefined"><polygon points="447.71,699.49 117.99,699.49 117.99,395.35 447.71,395.35 "/><g transform="matrix(1,0,0,1,117.9895,395.3492)" class="Dimension"><g transform="matrix(1,0,0,1,0,0)" style="display: none;" class="Visual"><g id="mark1" fill="#000000" stroke="none" transform="matrix(1,0,0,1,164.8622,0)" style="fill-opacity: 1; pointer-events: visible;" class="DimensionMark"><polygon points="-5,5,0,0,5,5"/></g><g id="mark2" fill="#000000" stroke="none" transform="matrix(1,0,0,1,329.7244,152.0701)" style="fill-opacity: 1; pointer-events: visible;" class="DimensionMark"><polygon points="-5,-5,0,0,-5,5"/></g><g id="mark3" fill="#000000" stroke="none" transform="matrix(1,0,0,1,164.8622,304.1402)" style="fill-opacity: 1; pointer-events: visible;" class="DimensionMark"><polygon points="-5,-5,0,0,5,-5"/></g><g id="mark4" fill="#000000" stroke="none" transform="matrix(1,0,0,1,0,152.0701)" style="fill-opacity: 1; pointer-events: visible;" class="DimensionMark"><polygon points="5,5,0,0,5,-5"/></g></g><g transform="matrix(1,0,0,1,164.8622,152.0701)" class="SpaceDimensionsLabel"><g id="NameLabel" style="display: block;" class="TextLabel NameLabel"><text x="0" y="0em" fill="#000000" stroke="none" style="font-family: Verdana; font-size: 33px; fill-opacity: 1; cursor: default;">UNDEFINED</text></g><g id="DimensionMeasureLabel" transform="matrix(1,0,0,1,-19.3047,40.1718)" style="display: none;" class="TextLabel DimensionMeasureLabel"><text x="0" y="0em" fill="#000000" stroke="none" style="font-family: Verdana; font-size: 33px; fill-opacity: 1; cursor: default;">10'10" x 10'0"</text><text x="0" y="0"/></g></g></g></g><g id="68aa858e-5d69-480b-a9b8-447e52f014fa" fill="#ffffff" stroke="#ffffff" style="fill-opacity: 1; stroke-opacity: 1; stroke-width: 0.2;" class="Space Undefined"><polygon points="389.40,149.92 447.71,149.92 447.71,379.72 117.99,379.72 117.99,93.26 389.40,93.26 "/><g transform="matrix(1,0,0,1,117.9895,93.2579)" class="Dimension"><g transform="matrix(1,0,0,1,0,0)" style="display: none;" class="Visual"><g id="mark1" fill="#000000" stroke="none" transform="matrix(1,0,0,1,164.8622,0)" style="fill-opacity: 1; pointer-events: visible;" class="DimensionMark"><polygon points="-5,5,0,0,5,5"/></g><g id="mark2" fill="#000000" stroke="none" transform="matrix(1,0,0,1,329.7244,143.2306)" style="fill-opacity: 1; pointer-events: visible;" class="DimensionMark"><polygon points="-5,-5,0,0,-5,5"/></g><g id="mark3" fill="#000000" stroke="none" transform="matrix(1,0,0,1,164.8622,286.4612)" style="fill-opacity: 1; pointer-events: visible;" class="DimensionMark"><polygon points="-5,-5,0,0,5,-5"/></g><g id="mark4" fill="#000000" stroke="none" transform="matrix(1,0,0,1,0,143.2306)" style="fill-opacity: 1; pointer-events: visible;" class="DimensionMark"><polygon points="5,5,0,0,5,-5"/></g></g><g transform="matrix(1,0,0,1,143.2306,143.2306)" class="SpaceDimensionsLabel"><g id="NameLabel" style="display: block;" class="TextLabel NameLabel"><text x="0" y="0em" fill="#000000" stroke="none" style="font-family: Verdana; font-size: 33px; fill-opacity: 1; cursor: default;">UNDEFINED</text></g><g id="DimensionMeasureLabel" transform="matrix(1,0,0,1,-8.8125,40.1718)" style="display: none;" class="TextLabel DimensionMeasureLabel"><text x="0" y="0em" fill="#000000" stroke="none" style="font-family: Verdana; font-size: 33px; fill-opacity: 1; cursor: default;">10'10" x 9'5"</text><text x="0" y="0"/></g></g></g></g><g id="c7bded1c-d04d-463e-9523-79e5b1d7f78a" fill="#ffffff" stroke="#ffffff" style="fill-opacity: 1; stroke-opacity: 1; stroke-width: 0.2;" class="Space Undefined"><polygon points="611.76,275.03 456.93,275.03 456.93,93.26 611.76,93.26 "/><g transform="matrix(1,0,0,1,456.9309,93.2579)" class="Dimension"><g transform="matrix(1,0,0,1,0,0)" style="display: none;" class="Visual"><g id="mark1" fill="#000000" stroke="none" transform="matrix(1,0,0,1,77.4134,0)" style="fill-opacity: 1; pointer-events: visible;" class="DimensionMark"><polygon points="-5,5,0,0,5,5"/></g><g id="mark2" fill="#000000" stroke="none" transform="matrix(1,0,0,1,154.8267,90.8841)" style="fill-opacity: 1; pointer-events: visible;" class="DimensionMark"><polygon points="-5,-5,0,0,-5,5"/></g><g id="mark3" fill="#000000" stroke="none" transform="matrix(1,0,0,1,77.4134,181.7682)" style="fill-opacity: 1; pointer-events: visible;" class="DimensionMark"><polygon points="-5,-5,0,0,5,-5"/></g><g id="mark4" fill="#000000" stroke="none" transform="matrix(1,0,0,1,0,90.8841)" style="fill-opacity: 1; pointer-events: visible;" class="DimensionMark"><polygon points="5,5,0,0,5,-5"/></g></g><g transform="matrix(1,0,0,1,77.4133,90.8841)" class="SpaceDimensionsLabel"><g id="NameLabel" style="display: block;" class="TextLabel NameLabel"><text x="0" y="0em" fill="#000000" stroke="none" style="font-family: Verdana; font-size: 33px; fill-opacity: 1; cursor: default;">UNDEFINED</text></g><g id="DimensionMeasureLabel" transform="matrix(1,0,0,1,12.164,40.1718)" style="display: none;" class="TextLabel DimensionMeasureLabel"><text x="0" y="0em" fill="#000000" stroke="none" style="font-family: Verdana; font-size: 33px; fill-opacity: 1; cursor: default;">5'1" x 6'0"</text><text x="0" y="0"/></g></g></g></g><g id="611f03d3-3465-4171-a81a-97caebefa73a" fill="#ffffff" stroke="#ffffff" style="fill-opacity: 1; stroke-opacity: 1; stroke-width: 0.2;" class="Space Undefined"><polygon points="735.74,275.03 621.26,275.03 621.26,93.26 735.74,93.26 "/><g transform="matrix(1,0,0,1,621.2551,93.2579)" class="Dimension"><g transform="matrix(1,0,0,1,0,0)" style="display: none;" class="Visual"><g id="mark1" fill="#000000" stroke="none" transform="matrix(1,0,0,1,57.2421,0)" style="fill-opacity: 1; pointer-events: visible;" class="DimensionMark"><polygon points="-5,5,0,0,5,5"/></g><g id="mark2" fill="#000000" stroke="none" transform="matrix(1,0,0,1,114.4841,90.8841)" style="fill-opacity: 1; pointer-events: visible;" class="DimensionMark"><polygon points="-5,-5,0,0,-5,5"/></g><g id="mark3" fill="#000000" stroke="none" transform="matrix(1,0,0,1,57.2421,181.7682)" style="fill-opacity: 1; pointer-events: visible;" class="DimensionMark"><polygon points="-5,-5,0,0,5,-5"/></g><g id="mark4" fill="#000000" stroke="none" transform="matrix(1,0,0,1,0,90.8841)" style="fill-opacity: 1; pointer-events: visible;" class="DimensionMark"><polygon points="5,5,0,0,5,-5"/></g></g><g transform="matrix(1,0,0,1,57.242,57.2421)" class="SpaceDimensionsLabel"><g id="NameLabel" style="display: block;" class="TextLabel NameLabel"><text x="0" y="0em" fill="#000000" stroke="none" style="font-family: Verdana; font-size: 33px; fill-opacity: 1; cursor: default;">UNDEFINED</text></g><g id="DimensionMeasureLabel" transform="matrix(1,0,0,1,12.164,40.1718)" style="display: none;" class="TextLabel DimensionMeasureLabel"><text x="0" y="0em" fill="#000000" stroke="none" style="font-family: Verdana; font-size: 33px; fill-opacity: 1; cursor: default;">3'9" x 6'0"</text><text x="0" y="0"/></g></g></g></g><g id="Wall" fill="#000000" stroke="#000000" style="fill-opacity: 1; stroke-opacity: 1; stroke-width: 0.2;" class="Wall External"><polygon points="1247.41,93.26 1247.41,491.72 1267.41,511.72 1267.41,73.80 "/><g id="Door" fill="#ffffff" stroke="#000000" style="fill-opacity: 1; stroke-width: 1; stroke-opacity: 1;" class="Door Swing Beside"><polygon points="1247.41,395.32 1247.41,475.78 1267.41,475.78 1267.41,395.32 "/><g id="Threshold" class="Threshold"><polygon points="1247.41,395.32 1247.41,475.78 1267.41,475.78 1267.41,395.32 "/></g><g id="Panel" fill="none" style="" class="Panel Left Negative"><g id="PanelArea" fill="none" stroke="none" style="" class="PanelArea"><polygon points="1247.41,395.32 1247.41,475.78 1267.41,475.78 1267.41,395.32 "/></g><path d="M1247.41,395.32 q-80.46,0.00 -80.46,80.46 l80.46,0.00Z"/></g></g><g id="Window" fill="#f0f0ff" stroke="#000000" style="fill-opacity: 1; stroke-width: 1; stroke-opacity: 1;" class="Window Regular"><polygon points="1247.41,129.60 1247.41,384.73 1267.41,384.73 1267.41,129.60 "/><g id="Glass" class="Glass"><polygon points="1247.41,129.60 1247.41,384.73 1267.41,384.73 1267.41,129.60 "/></g><g id="Panel" class="Panel"><line x1="1257.4139130870344" x2="1257.4139130870344" y1="137.09671004936627" y2="377.23116933691983"/><line x1="1247.4139130870344" x2="1267.4139130870344" y1="137.09671004936627" y2="137.09671004936627"/><line x1="1247.4139130870344" x2="1267.4139130870344" y1="377.23116933691983" y2="377.23116933691983"/></g></g></g><g id="Wall" fill="#000000" stroke="#000000" style="fill-opacity: 1; stroke-opacity: 1; stroke-width: 0.2;" class="Wall External"><polygon points="1247.41,491.72 596.67,491.72 616.67,511.72 1267.41,511.72 "/></g><g id="Wall" fill="#000000" stroke="#000000" style="fill-opacity: 1; stroke-opacity: 1; stroke-width: 0.2;" class="Wall External"><polygon points="616.67,511.72 616.67,719.49 596.67,699.49 596.67,491.72 "/></g><g id="Wall" fill="#000000" stroke="#000000" style="fill-opacity: 1; stroke-opacity: 1; stroke-width: 0.2;" class="Wall External"><polygon points="616.67,719.49 97.99,719.49 117.99,699.49 596.67,699.49 "/><g id="Door" fill="#ffffff" stroke="#000000" style="fill-opacity: 1; stroke-width: 1; stroke-opacity: 1;" class="Door Swing Beside"><polygon points="546.36,719.49 468.76,719.49 468.76,699.49 546.36,699.49 "/><g id="Threshold" class="Threshold"><polygon points="546.36,719.49 468.76,719.49 468.76,699.49 546.36,699.49 "/></g><g id="Panel" fill="none" style="" class="Panel Left Negative"><g id="PanelArea" fill="none" stroke="none" style="" class="PanelArea"><polygon points="546.36,719.49 468.76,719.49 468.76,699.49 546.36,699.49 "/></g><path d="M546.36,719.49 q0.00,77.60 -77.60,77.60 l0.00,-77.60Z"/></g></g></g><g id="Wall" fill="#000000" stroke="#000000" style="fill-opacity: 1; stroke-opacity: 1; stroke-width: 0.2;" class="Wall External"><polygon points="97.99,719.49 97.99,73.80 117.99,93.26 117.99,699.49 "/><g id="Window" fill="#f0f0ff" stroke="#000000" style="fill-opacity: 1; stroke-width: 1; stroke-opacity: 1;" class="Window Regular"><polygon points="97.99,200.01 97.99,156.75 117.99,156.75 117.99,200.01 "/><g id="Glass" class="Glass"><polygon points="97.99,200.01 97.99,156.75 117.99,156.75 117.99,200.01 "/></g><g id="Panel" class="Panel"><line x1="107.9895254498403" x2="107.9895254498403" y1="192.51015921417513" y2="164.24842613336068"/><line x1="97.9895254498403" x2="117.9895254498403" y1="192.51015921417513" y2="192.51015921417513"/><line x1="97.9895254498403" x2="117.9895254498403" y1="164.24842613336068" y2="164.24842613336068"/></g></g><g id="Window" fill="#f0f0ff" stroke="#000000" style="fill-opacity: 1; stroke-width: 1; stroke-opacity: 1;" class="Window Regular"><polygon points="97.99,336.33 97.99,200.01 117.99,200.01 117.99,336.33 "/><g id="Glass" class="Glass"><polygon points="97.99,336.33 97.99,200.01 117.99,200.01 117.99,336.33 "/></g><g id="Panel" class="Panel"><line x1="107.98952544984031" x2="107.9895254498403" y1="328.8349209155331" y2="207.51015921417513"/><line x1="97.98952544984031" x2="117.98952544984031" y1="328.8349209155331" y2="328.8349209155331"/><line x1="97.9895254498403" x2="117.9895254498403" y1="207.51015921417513" y2="207.51015921417513"/></g></g><g id="Window" fill="#f0f0ff" stroke="#000000" style="fill-opacity: 1; stroke-width: 1; stroke-opacity: 1;" class="Window Regular"><polygon points="97.99,597.79 97.99,439.10 117.99,439.10 117.99,597.79 "/><g id="Glass" class="Glass"><polygon points="97.99,597.79 97.99,439.10 117.99,439.10 117.99,597.79 "/></g><g id="Panel" class="Panel"><line x1="107.98952544984034" x2="107.98952544984033" y1="590.288292878125" y2="446.600531677859"/><line x1="97.98952544984034" x2="117.98952544984034" y1="590.288292878125" y2="590.288292878125"/><line x1="97.98952544984033" x2="117.98952544984033" y1="446.600531677859" y2="446.600531677859"/></g></g><g id="Window" fill="#f0f0ff" stroke="#000000" style="fill-opacity: 1; stroke-width: 1; stroke-opacity: 1;" class="Window Regular"><polygon points="97.99,651.22 97.99,597.79 117.99,597.79 117.99,651.22 "/><g id="Glass" class="Glass"><polygon points="97.99,651.22 97.99,597.79 117.99,597.79 117.99,651.22 "/></g><g id="Panel" class="Panel"><line x1="107.98952544984034" x2="107.98952544984034" y1="643.7185155044774" y2="605.288292878125"/><line x1="97.98952544984034" x2="117.98952544984034" y1="643.7185155044774" y2="643.7185155044774"/><line x1="97.98952544984034" x2="117.98952544984034" y1="605.288292878125" y2="605.288292878125"/></g></g></g><g id="Wall" fill="#000000" stroke="#000000" style="fill-opacity: 1; stroke-opacity: 1; stroke-width: 0.2;" class="Wall External"><polygon points="117.99,93.26 1247.41,93.26 1267.41,73.80 97.99,73.80 "/></g><g id="Wall" fill="#000000" stroke="#000000" style="fill-opacity: 1; stroke-opacity: 1; stroke-width: 0.2;" class="Wall"><polygon points="1247.41,511.72 1411.15,511.72 1411.15,491.72 1247.41,491.72 "/></g><g id="Wall" fill="#000000" stroke="#000000" style="fill-opacity: 1; stroke-opacity: 1; stroke-width: 0.2;" class="Wall"><polygon points="1247.41,73.81 1411.15,73.81 1411.15,93.26 1247.41,93.26 "/></g><g id="Railing" fill="#ffffff" stroke="#000000" style="fill-opacity: 1; stroke-opacity: 1; stroke-width: 0.2;" class="Railing"><polygon points="1411.15,93.26 1411.15,491.72 1401.62,491.72 1401.62,93.26 " style="stroke-dasharray: 0;"/></g><g id="Wall" fill="#000000" stroke="#000000" style="fill-opacity: 1; stroke-opacity: 1; stroke-width: 0.2;" class="Wall"><polygon points="456.93,149.92 456.93,719.49 447.71,719.49 447.71,149.92 "/><g id="Door" fill="#ffffff" stroke="#000000" style="fill-opacity: 1; stroke-width: 1; stroke-opacity: 1;" class="Door Swing Beside"><polygon points="456.93,412.20 456.93,490.43 447.71,490.43 447.71,412.20 "/><g id="Threshold" class="Threshold"><polygon points="456.93,412.20 456.93,490.43 447.71,490.43 447.71,412.20 "/></g><g id="Panel" fill="none" style="" class="Panel Left Positive"><g id="PanelArea" fill="none" stroke="none" style="" class="PanelArea"><polygon points="456.93,412.20 456.93,490.43 447.71,490.43 447.71,412.20 "/></g><path d="M447.71,490.43 q-78.24,0.00 -78.24,-78.24 l78.24,0.00Z"/></g></g><g id="Door" fill="#ffffff" stroke="#000000" style="fill-opacity: 1; stroke-width: 1; stroke-opacity: 1;" class="Door Swing Beside"><polygon points="456.93,290.47 456.93,371.85 447.71,371.85 447.71,290.47 "/><g id="Threshold" class="Threshold"><polygon points="456.93,290.47 456.93,371.85 447.71,371.85 447.71,290.47 "/></g><g id="Panel" fill="none" style="" class="Panel Right Positive"><g id="PanelArea" fill="none" stroke="none" style="" class="PanelArea"><polygon points="456.93,290.47 456.93,371.85 447.71,371.85 447.71,290.47 "/></g><path d="M447.71,290.47 q-81.39,0.00 -81.39,81.39 l81.39,0.00Z"/></g></g></g><g id="Wall" fill="#000000" stroke="#000000" style="fill-opacity: 1; stroke-opacity: 1; stroke-width: 0.2;" class="Wall"><polygon points="456.93,379.72 97.99,379.72 97.99,395.35 456.93,395.35 "/></g><g id="Wall" fill="#000000" stroke="#000000" style="fill-opacity: 1; stroke-opacity: 1; stroke-width: 0.2;" class="Wall"><polygon points="447.71,285.41 746.12,285.41 735.74,275.03 447.71,275.03 "/><g id="Door" fill="#ffffff" stroke="#000000" style="fill-opacity: 1; stroke-width: 1; stroke-opacity: 1;" class="Door Swing Beside"><polygon points="530.32,285.41 593.03,285.41 593.03,275.03 530.32,275.03 "/><g id="Threshold" class="Threshold"><polygon points="530.32,285.41 593.03,285.41 593.03,275.03 530.32,275.03 "/></g><g id="Panel" fill="none" style="" class="Panel Right Negative"><g id="PanelArea" fill="none" stroke="none" style="" class="PanelArea"><polygon points="530.32,285.41 593.03,285.41 593.03,275.03 530.32,275.03 "/></g><path d="M593.03,285.41 q0.00,62.70 -62.70,62.70 l0.00,-62.70Z"/></g></g><g id="Door" fill="#ffffff" stroke="#000000" style="fill-opacity: 1; stroke-width: 1; stroke-opacity: 1;" class="Door Swing Beside"><polygon points="638.06,285.41 700.51,285.41 700.51,275.03 638.06,275.03 "/><g id="Threshold" class="Threshold"><polygon points="638.06,285.41 700.51,285.41 700.51,275.03 638.06,275.03 "/></g><g id="Panel" fill="none" style="" class="Panel Right Negative"><g id="PanelArea" fill="none" stroke="none" style="" class="PanelArea"><polygon points="638.06,285.41 700.51,285.41 700.51,275.03 638.06,275.03 "/></g><path d="M700.51,285.41 q0.00,62.45 -62.45,62.45 l0.00,-62.45Z"/></g></g></g><g id="Wall" fill="#000000" stroke="#000000" style="fill-opacity: 1; stroke-opacity: 1; stroke-width: 0.2;" class="Wall"><polygon points="746.12,285.41 746.12,73.80 735.74,73.80 735.74,275.03 "/></g><g id="Wall" fill="#000000" stroke="#000000" style="fill-opacity: 1; stroke-opacity: 1; stroke-width: 0.2;" class="Wall"><polygon points="621.26,285.41 621.26,73.80 611.76,73.80 611.76,285.41 "/></g><g class="FixedFurniture ElectricalAppliance SpaceForAppliance2" fill="#ffffff" stroke="#000000" stroke-dasharray="4,4" transform="matrix(0,-0.9707,0.9854,0,456.9308,151.4999)" style="fill-opacity: 1; stroke-opacity: 1; stroke-width: 1;">
	    <g class="BoundaryPolygon"> 
		    <polygon points="0,0 60,0 60,60 0,60"/>
		</g>	
	    <g class="electricitySign" fill="none">
            <path d="M0,0,30.1,39.8V19.4L59.9,60"/>
		</g>
        <g class="Direction" fill-opacity="0.9" style="display: none;">
            <polygon points="32.009 55.197 32.009 44.581 29 44.581 29 55.197 25.197 55.197 30.5 60 35.803 55.197 32.009 55.197" fill="#444444"/>
        </g> 
        <g class="Name" fill-opacity="0.9" stroke-dasharray="none" style="display: none;">
            <text transform="translate(3 12)" font-size="12" font-family="Verdana, Sans-Serif">SFA</text>
        </g>
        <desc>Width:60 Height:90 Depth:60 Elevation:0</desc>
	</g><g id="FixedFurnitureSet" transform="matrix(0,-1,1,0,457.0402,205.9583)" class="FixedFurnitureSet" fill="#ffffff" stroke="#fc0fc0" style="fill-opacity: 0.4; stroke-opacity: 0.9; stroke-width: 1.5;"><g class="FixedFurniture BaseCabinet" fill="#ffffff" stroke="#000000" transform="matrix(1,0,0,1,0,0)" style="fill-opacity: 1; stroke-opacity: 1; stroke-width: 1;">
        <g class="BoundaryPolygon">
            <polygon points="0.00,0.00 43.29,0.00 43.29,30.15 0.00,30.15 "/>
        </g>
        <g class="Direction" fill-opacity="0.9" style="display: none;">
            <polygon points="23.10,27.74 23.10,17.13 20.09,17.13 20.09,27.74 16.28,27.74 21.59,32.54 26.89,27.74 23.10,27.74 " fill="#444444"/>
        </g> 
        <g class="Name" fill-opacity="0.9" style="display: none;">
            <text transform="translate(3 12)" font-size="12" font-family="Verdana, Sans-Serif">CB</text>
        </g>
        <desc>Width:60 Height:5 Depth:60 Elevation:105</desc>
    </g><g class="FixedFurniture Sink" fill="#ffffff" stroke="#000000" transform="matrix(1,0,0,1,0,0)" style="fill-opacity: 1; stroke-opacity: 1; stroke-width: 1;">
        <g class="BoundaryPolygon" fill="none" stroke="none">
        <polygon points="0.00,0.00 43.29,0.00 43.29,30.15 0.00,30.15 "/>
        </g>
        <g class="InnerPolygon">
            <polygon points="3.61,9.70 39.68,9.70 39.68,27.49 3.61,27.49 "/>
        </g>
        <g class="OuterDrain" stroke-width="0.8">
            <circle cx="21.64571819584635" cy="16.183142062717106" r="3.5"/>
        </g>
        <g class="InnerDrain" stroke-width="0.8">
            <circle cx="21.64571819584635" cy="16.183142062717106" r="2"/>
        </g>
        <g class="Faucet">
            <polygon points="19.48,2.51 25.48,2.51 25.48,16.51 19.48,16.51 "/>
        </g>
        <g class="Direction" fill-opacity="0.9" style="display: none;">
            <polygon points="23.10,27.74 23.10,17.13 20.09,17.13 20.09,27.74 16.28,27.74 21.59,32.54 26.89,27.74 23.10,27.74 " fill="#444444"/>
        </g> 
        <g class="Name" fill-opacity="0.9" style="display: none;">
            <text transform="translate(3 12)" font-size="12" font-family="Verdana, Sans-Serif">SINK</text>
        </g>
        <desc>Width:60 Height:90 Depth:60 Elevation:0</desc>
    </g></g><g class="FixedFurniture Toilet" fill="#ffffff" stroke="#000000" transform="matrix(0,-1.0161,0.8844,0,456.9309,267.2321)" style="fill-opacity: 1; stroke-opacity: 1; stroke-width: 1;">
	   <g class="BoundaryPolygon" fill="none" stroke="none"> 
            <polygon points="0,0 41,0 41,71 0,71"/>
		</g>
        <g class="InnerPolygon">
            <rect x="0.502" y="0.5" width="39.989" height="17.98"/>
            <path d="M40.491,44.237S41.619,70.5,20.907,70.5C-.523,70.5.6,44.237.6,44.237L.5,18.48H40.491Z"/>
            <rect x="17.318" y="7.975" width="6.357" height="3.03"/>
        </g>
        <desc>Width:41 Height:85 Depth:71 Elevation:0</desc>
    </g><g class="FixedFurniture Shower" fill="#ffffff" stroke="#000000" transform="matrix(1,0,0,1,559.3594,93.2578)" style="fill-opacity: 1; stroke-opacity: 1; stroke-width: 1;"> 
	    <g class="BoundaryPolygon" fill="none" stroke="none">
            <polygon points="0,0 32,0 32,19 0,19"/>
        </g>
        <g class="InnerPolygon"> 
			<rect x="3.7" y="0.5" width="11.2" height="6.1"/>
			<rect x="17.6" y="0.5" width="11.2" height="6.1"/>
			<rect x="28.7" y="0.5" width="3.4" height="6.1"/>
			<rect x="0.5" y="0.5" width="3.2" height="6.1"/>
			<path d="M14.9,8.5c0,1.5-0.4,3.3-1.6,5    c-0.4,0.6-1,1.1-1.1,1.7c-0.2,1.1,0.3,2.8,2.5,3.2c0.5,0.1,1.3,0.1,1.6,0.1h-0.1c0.3,0,1.1,0,1.6-0.1c2.2-0.4,2.7-2.1,2.5-3.2    c-0.1-0.6-0.7-1.1-1.1-1.7c-1.2-1.7-1.6-3.5-1.6-5"/>
			<path d="M12.2,15.3c0.1,0.2,1.6,1.9,4.2,1.9 c2.4-0.1,3.7-1.7,3.9-1.9"/>
			<path d="M14.9,0.5h2.7v8c-0.9,0-1.8,0-2.7,0l0,0 C14.9,5.9,14.9,3.2,14.9,0.5z"/>
		</g>
	    <g class="Indicator"> 
			<path d="M3.7,3.6C5,3.1,5.2,3,5.2,3 c0,1.1,0,0,0,1.1C5.2,4.1,5.1,4.1,3.7,3.6"/>
			<path d="M28.7,3.6 C27.4,3.1,27.2,3,27.2,3c0,1.1,0,0,0,1.1C27.2,4.1,27.3,4.1,28.7,3.6"/>	
		</g>
        <desc>Width:32 Height:97 Depth:19 Elevation:135</desc>
	</g><g transform="matrix(1,0,0,1,534.3251,93.5231)" class="FixedFurniture Misc" fill="none" stroke="#000000" style="fill-opacity: 1; stroke-opacity: 1; stroke-width: 1.8; stroke-dasharray: 5, 5;"><desc>Width:120 Height:200 Depth:60 Elevation:0</desc><g class="BoundaryPolygon"><path d="M0.00,0.00 L0.00,76.82 L77.26,76.82 "/></g></g><g class="FixedFurniture CoatCloset" fill="#ffffff" stroke="#000000" transform="matrix(1,0,0,1,621.2551,93.2735)" style="fill-opacity: 1; stroke-opacity: 1; stroke-width: 1;">
        <g class="BoundaryPolygon">
            <polygon points="0.00,0.00 114.48,0.00 114.48,52.88 0.00,52.88 "/>
        </g>
        <g class="Hanger" fill="#ffffff" stroke="#9a9a9a" stroke-dasharray="5,5">
            <line x1="0" y1="26.439692973751885" x2="114.4780446500443" y2="26.439692973751885"/>
        </g>
        <g class="Direction" fill-opacity="0.9" style="display: none;">
            <polygon points="58.68,48.05 58.68,37.43 55.67,37.43 55.67,48.05 51.87,48.05 57.17,53.35 62.47,48.05 58.68,48.05 " fill="#444444"/>
        </g> 
        <g class="Name" fill-opacity="0.9" style="display: none;">
            <text transform="translate(3 12)" font-size="12" font-family="Verdana, Sans-Serif">CWH</text>
        </g>
        <desc>Width:120 Height:200 Depth:60 Elevation:0</desc>
     </g><g class="FixedFurniture Closet" fill="#ffffff" stroke="#000000" transform="matrix(0,1,-1,0,735.6923,146.4661)" style="fill-opacity: 1; stroke-opacity: 1; stroke-width: 1;">
        <g class="BoundaryPolygon">
            <polygon points="0.00,0.00 128.56,0.00 128.56,27.78 0.00,27.78 "/>
        </g>
        <g class="Direction" fill-opacity="0.9" style="display: none;">
            <polygon points="67.51,25.33 67.51,14.71 64.50,14.71 64.50,25.33 60.70,25.33 66.00,30.63 71.31,25.33 67.51,25.33 " fill="#444444"/>
        </g> 
        <g class="Name" fill-opacity="0.9" style="display: none;">
            <text transform="translate(3 12)" font-size="12" font-family="Verdana, Sans-Serif">CL</text>
        </g>
        <desc>Width:60 Height:200 Depth:60 Elevation:0</desc>
     </g><g class="FixedFurniture Closet" fill="#ffffff" stroke="#000000" transform="matrix(0,1,-1,0,596.6079,492.9594)" style="fill-opacity: 1; stroke-opacity: 1; stroke-width: 1;">
        <g class="BoundaryPolygon">
            <polygon points="0.00,0.00 206.53,0.00 206.53,45.94 0.00,45.94 "/>
        </g>
        <g class="Direction" fill-opacity="0.9" style="display: none;">
            <polygon points="108.46,41.88 108.46,31.26 105.45,31.26 105.45,41.88 101.65,41.88 106.95,47.18 112.25,41.88 108.46,41.88 " fill="#444444"/>
        </g> 
        <g class="Name" fill-opacity="0.9" style="display: none;">
            <text transform="translate(3 12)" font-size="12" font-family="Verdana, Sans-Serif">CL</text>
        </g>
        <desc>Width:60 Height:200 Depth:60 Elevation:0</desc>
     </g><g class="FixedFurniture ShowerScreen" fill="#ffffff" stroke="#000000" transform="matrix(1,0,0,1.1582,546.8653,493.1069)" style="fill-opacity: 1; stroke-opacity: 1; stroke-width: 1;">
        <g class="BoundaryPolygon">
            <polygon points="0,0 2.5,0 2.5,60 0,60"/>
        </g>
	    <g class="InnerPolygon" stroke-linejoin="round"> 
			<rect width="2.5" height="60"/>
	    </g> 
        <desc>Width:2.5 Height:180 Depth:60 Elevation:135</desc>
    </g><g class="FixedFurniture ShowerScreen" fill="#ffffff" stroke="#000000" transform="matrix(1,0,0,1.1582,546.8653,629.9974)" style="fill-opacity: 1; stroke-opacity: 1; stroke-width: 1;">
        <g class="BoundaryPolygon">
            <polygon points="0,0 2.5,0 2.5,60 0,60"/>
        </g>
	    <g class="InnerPolygon" stroke-linejoin="round"> 
			<rect width="2.5" height="60"/>
	    </g> 
        <desc>Width:2.5 Height:180 Depth:60 Elevation:135</desc>
    </g><g class="FixedFurniture ShowerScreen" fill="#ffffff" stroke="#000000" transform="matrix(1,0,0,1.7302,543.4524,544.1345)" style="fill-opacity: 1; stroke-opacity: 1; stroke-width: 1;">
        <g class="BoundaryPolygon">
            <polygon points="0,0 2.5,0 2.5,60 0,60"/>
        </g>
	    <g class="InnerPolygon" stroke-linejoin="round"> 
			<rect width="2.5" height="60"/>
	    </g> 
        <desc>Width:2.5 Height:180 Depth:60 Elevation:135</desc>
    </g><g class="FixedFurniture Closet" fill="#ffffff" stroke="#000000" transform="matrix(0,1,-1,0,447.6202,209.8858)" style="fill-opacity: 1; stroke-opacity: 1; stroke-width: 1;">
        <g class="BoundaryPolygon">
            <polygon points="0.00,0.00 60.34,0.00 60.34,57.63 0.00,57.63 "/>
        </g>
        <g class="Direction" fill-opacity="0.9" style="display: none;">
            <polygon points="31.69,52.54 31.69,41.92 28.68,41.92 28.68,52.54 24.88,52.54 30.18,57.84 35.48,52.54 31.69,52.54 " fill="#444444"/>
        </g> 
        <g class="Name" fill-opacity="0.9" style="display: none;">
            <text transform="translate(3 12)" font-size="12" font-family="Verdana, Sans-Serif">CL</text>
        </g>
        <desc>Width:60 Height:200 Depth:60 Elevation:0</desc>
     </g><g class="FixedFurniture ElectricalAppliance Refrigerator" fill="#ffffff" stroke="#000000" transform="matrix(0,0.9995,-0.9606,0,447.6389,149.9169)" style="fill-opacity: 1; stroke-opacity: 1; stroke-width: 1;">
        <g class="BoundaryPolygon">
            <polygon points="0,0 60,0 60,60 0,60"/>
        </g>
        <g class="electricitySign" fill="none" style="display: block;">
            <path d="M0,0,30,37.1v-18L60,56.3"/>
        </g>
        <g class="Doors">
            <rect y="56" width="60" height="4"/>
        </g>
        <g class="Direction" fill-opacity="0.9" style="display: none;">
            <polygon points="32.009 55.197 32.009 44.581 29 44.581 29 55.197 25.197 55.197 30.5 60 35.803 55.197 32.009 55.197" fill="#444444"/>
        </g> 
        <g class="Name" fill-opacity="0.9" style="display: none;">
            <text transform="translate(3 12)" font-size="12" font-family="Verdana, Sans-Serif">REF</text>
        </g>
        <desc>Width:60 Height:170 Depth:60 Elevation:0</desc>
    </g><g class="FixedFurniture BaseCabinet" fill="#ffffff" stroke="#000000" transform="matrix(1,0,0,1,117.9986,93.3203)" style="fill-opacity: 1; stroke-opacity: 1; stroke-width: 1;">
        <g class="BoundaryPolygon">
            <polygon points="0.00,0.00 271.22,0.00 271.22,55.78 0.00,55.78 "/>
        </g>
        <g class="Direction" fill-opacity="0.9" style="display: none;">
            <polygon points="144.69,51.31 144.69,40.70 141.68,40.70 141.68,51.31 137.88,51.31 143.18,56.12 148.49,51.31 144.69,51.31 " fill="#444444"/>
        </g> 
        <g class="Name" fill-opacity="0.9" style="display: none;">
            <text transform="translate(3 12)" font-size="12" font-family="Verdana, Sans-Serif">CB</text>
        </g>
        <desc>Width:60 Height:90 Depth:60 Elevation:0</desc>
    </g><g class="FixedFurniture DoubleSink" fill="#ffffff" stroke="#000000" transform="matrix(1,0,0,1,252.0771,91.7036)" style="fill-opacity: 1; stroke-opacity: 1; stroke-width: 1;">
        <g class="BoundaryPolygon" fill="none" stroke="none">
            <polygon points="0.00,0.00 64.82,0.00 64.82,55.06 0.00,55.06 "/>
        </g>
        <g class="InnerPolygonLeft">
            <polygon points="4.63,9.90 31.02,9.90 31.02,50.38 4.63,50.38 "/>
        </g>
        <g class="InnerPolygonRight">
            <polygon points="33.80,10.00 60.19,10.00 60.19,50.47 33.80,50.47 "/>
        </g>
        <g class="OuterDrain" stroke-width="0.8">
            <circle cx="18.243236541082943" cy="29.822110909348908" r="3.5"/>
            <circle cx="46.487841338191046" cy="29.822110909348908" r="3.5"/>
        </g>
        <g class="InnerDrain" stroke-width="0.8">
            <circle cx="18.243236541082943" cy="29.822110909348908" r="2"/>
            <circle cx="46.487841338191046" cy="29.822110909348908" r="2"/>
        </g>
        <g class="Faucet">
            <polygon points="29.63,4.50 35.63,4.50 35.63,18.50 29.63,18.50 "/>
        </g>
        <g class="Direction" fill-opacity="0.9" style="display: none;">
            <polygon points="33.81,50.19 33.81,39.57 30.80,39.57 30.80,50.19 27.00,50.19 32.30,55.49 37.60,50.19 33.81,50.19 " fill="#444444"/>
        </g> 
        <g class="Name" fill-opacity="0.9" style="display: none;">
            <text transform="translate(3 12)" font-size="12" font-family="Verdana, Sans-Serif">DSINK</text>
        </g>
        <desc>Width:70 Height:90 Depth:60 Elevation:0</desc>
    </g><g class="FixedFurniture ElectricalAppliance IntegratedStove" fill="#ffffff" stroke="#000000" transform="matrix(1,0,0,1,328.4557,91.3649)" style="fill-opacity: 1; stroke-opacity: 1; stroke-width: 1;">
        <g class="BoundaryPolygon" fill="none" stroke="none">
            <polygon points="0.00,0.00 62.97,0.00 62.97,59.62 0.00,59.62 "/>
        </g>
        <g class="InnerPolygon">
            <polygon points="2.00,2.00 60.87,2.00 60.87,57.63 2.00,57.63 "/>
        </g>
        <g class="OuterCircle">
            <circle cx="16.79195356903326" cy="15.897517152349671" r="8"/>
            <circle cx="46.17787231484149" cy="15.897517152349671" r="8"/>
            <circle cx="16.79195356903326" cy="43.718172168961566" r="8"/>
            <circle cx="46.17787231484149" cy="43.718172168961566" r="8"/>
        </g>
        <g class="Direction" fill-opacity="0.9" style="display: none;">
            <polygon points="33.59,54.84 33.59,44.23 30.58,44.23 30.58,54.84 26.78,54.84 32.08,59.65 37.39,54.84 33.59,54.84 " fill="#444444"/>
        </g> 
        <g class="Name" fill-opacity="0.9" style="display: none;">
            <text transform="translate(3 12)" font-size="12" font-family="Verdana, Sans-Serif">INT_STOVE</text>
        </g>
        <desc>Width:60 Height:90 Depth:30 Elevation:0</desc>
    </g><g class="FixedFurniture WallCabinet" fill="#ffffff" stroke="#000000" transform="matrix(1,0,0,1,117.9986,93.3203)" style="fill-opacity: 0.7; stroke-opacity: 1; stroke-width: 1.5;">	
        <g class="BoundaryPolygon">
            <polygon points="0.00,0.00 212.06,0.00 212.06,28.28 0.00,28.28 "/>
        </g>
        <g class="Direction" fill-opacity="0.9" style="display: none;">
            <polygon points="113.13,23.75 113.13,13.13 110.12,13.13 110.12,23.75 106.32,23.75 111.62,28.55 116.92,23.75 113.13,23.75 " fill="#444444"/>
        </g> 
        <g class="Name" fill-opacity="0.9" style="display: none;">
            <text transform="translate(3 12)" font-size="12" font-family="Verdana, Sans-Serif">UC</text>
        </g>
        <desc>Width:60 Height:60 Depth:30 Elevation:140</desc>
    </g><g id="Wall" fill="#000000" stroke="#000000" style="fill-opacity: 1; stroke-opacity: 1; stroke-width: 0.2;" class="Wall"><polygon points="456.93,149.92 456.93,73.80 389.40,73.80 389.40,149.92 "/></g></g></g></g></svg>
