<?xml version="1.0"?>
<svg xmlns="http://www.w3.org/2000/svg" xmlns:xlink="http://www.w3.org/1999/xlink" height="1369.8900299072266" version="1.1" width="1835.1126556396484" id="temp" viewBox="0 0 1835.1126556396484 1369.8900299072266"><defs/><g id="Model" class="Model v1-1"><g class="Floor"><g id="Floor-1" class="Floorplan Floor-1"><g id="787d2bb7-456c-4d02-89d7-bf9c01294bea" fill="#ffffff" stroke="#000000" style="fill-opacity: 1; stroke-opacity: 1; stroke-width: 0.2;" class="Space Outdoor"><polygon points="1594.12,622.69 1740.73,622.69 1740.73,397.87 1594.12,397.87 1594.12,622.69 "/><g transform="matrix(1,0,0,1,1594.1166,397.8673)" class="Dimension"><g transform="matrix(1,0,0,1,0,0)" style="display: none;" class="Visual"><g id="mark1" fill="#000000" stroke="none" transform="matrix(1,0,0,1,73.3086,0)" style="fill-opacity: 1; pointer-events: visible;" class="DimensionMark"><polygon points="-5,5,0,0,5,5"/></g><g id="mark2" fill="#000000" stroke="none" transform="matrix(1,0,0,1,146.6172,112.4106)" style="fill-opacity: 1; pointer-events: visible;" class="DimensionMark"><polygon points="-5,-5,0,0,-5,5"/></g><g id="mark3" fill="#000000" stroke="none" transform="matrix(1,0,0,1,73.3086,224.8211)" style="fill-opacity: 1; pointer-events: visible;" class="DimensionMark"><polygon points="-5,-5,0,0,5,-5"/></g><g id="mark4" fill="#000000" stroke="none" transform="matrix(1,0,0,1,0,112.4106)" style="fill-opacity: 1; pointer-events: visible;" class="DimensionMark"><polygon points="5,5,0,0,5,-5"/></g></g><g transform="matrix(1,0,0,1,73.3086,73.3086)" class="SpaceDimensionsLabel"><g id="NameLabel" style="display: block;" class="TextLabel NameLabel"><text x="0" y="0em" fill="#000000" stroke="none" style="font-family: Verdana; font-size: 33px; fill-opacity: 1; cursor: default;">ULKOTILA</text></g><g id="DimensionMeasureLabel" transform="matrix(1,0,0,1,-14.5625,40.0782)" style="display: none;" class="TextLabel DimensionMeasureLabel"><text x="0" y="0em" fill="#000000" stroke="none" style="font-family: Verdana; font-size: 33px; fill-opacity: 1; cursor: default;">4'10" x 7'5"</text><text x="0" y="0"/></g></g></g></g><g id="9a162ca8-996d-453b-8453-17dde292976a" fill="#ffffff" stroke="#000000" style="fill-opacity: 1; stroke-opacity: 1; stroke-width: 0.2;" class="Space Outdoor"><polygon points="319.30,570.18 199.02,570.27 199.02,368.05 320.83,368.05 320.83,570.27 314.84,570.27 319.30,570.18 "/><g transform="matrix(1,0,0,1,199.0215,368.0494)" class="Dimension"><g transform="matrix(1,0,0,1,0,0)" style="display: none;" class="Visual"><g id="mark1" fill="#000000" stroke="none" transform="matrix(1,0,0,1,60.9031,0)" style="fill-opacity: 1; pointer-events: visible;" class="DimensionMark"><polygon points="-5,5,0,0,5,5"/></g><g id="mark2" fill="#000000" stroke="none" transform="matrix(1,0,0,1,121.8062,101.1087)" style="fill-opacity: 1; pointer-events: visible;" class="DimensionMark"><polygon points="-5,-5,0,0,-5,5"/></g><g id="mark3" fill="#000000" stroke="none" transform="matrix(1,0,0,1,60.9031,202.1751)" style="fill-opacity: 1; pointer-events: visible;" class="DimensionMark"><polygon points="-5,-5,0,0,5,-5"/></g><g id="mark4" fill="#000000" stroke="none" transform="matrix(1,0,0,1,0,101.1087)" style="fill-opacity: 1; pointer-events: visible;" class="DimensionMark"><polygon points="5,5,0,0,5,-5"/></g></g><g transform="matrix(1,0,0,1,60.9031,60.9031)" class="SpaceDimensionsLabel"><g id="NameLabel" style="display: block;" class="TextLabel NameLabel"><text x="0" y="0em" fill="#000000" stroke="none" style="font-family: Verdana; font-size: 33px; fill-opacity: 1; cursor: default;">ULKOTILA</text></g><g id="DimensionMeasureLabel" transform="matrix(1,0,0,1,-4.0781,40.0937)" style="display: none;" class="TextLabel DimensionMeasureLabel"><text x="0" y="0em" fill="#000000" stroke="none" style="font-family: Verdana; font-size: 33px; fill-opacity: 1; cursor: default;">4'0" x 6'8"</text><text x="0" y="0"/></g></g></g></g><g id="da7d69e3-c962-4ae3-89fd-6dfdb3a78c57" fill="#ffffff" stroke="#ffffff" style="fill-opacity: 1; stroke-opacity: 1; stroke-width: 0.2;" class="Space Undefined"><polygon points="1574.12,1024.51 1132.01,1024.51 1132.01,942.95 1131.89,942.95 1131.89,588.96 1138.25,588.96 1138.25,554.03 954.13,554.03 954.13,193.48 1574.12,193.48 "/><g transform="matrix(1,0,0,1,954.1335,193.482)" class="Dimension"><g transform="matrix(1,0,0,1,0,0)" style="display: none;" class="Visual"><g id="mark1" fill="#000000" stroke="none" transform="matrix(1,0,0,1,309.9916,0)" style="fill-opacity: 1; pointer-events: visible;" class="DimensionMark"><polygon points="-5,5,0,0,5,5"/></g><g id="mark2" fill="#000000" stroke="none" transform="matrix(1,0,0,1,619.9831,360.5465)" style="fill-opacity: 1; pointer-events: visible;" class="DimensionMark"><polygon points="-5,-5,0,0,-5,5"/></g><g id="mark3" fill="#000000" stroke="none" transform="matrix(1,0,0,1,309.9916,831.0256)" style="fill-opacity: 1; pointer-events: visible;" class="DimensionMark"><polygon points="-5,-5,0,0,5,-5"/></g><g id="mark4" fill="#000000" stroke="none" transform="matrix(1,0,0,1,0,360.5465)" style="fill-opacity: 1; pointer-events: visible;" class="DimensionMark"><polygon points="5,5,0,0,5,-5"/></g></g><g transform="matrix(1,0,0,1,384.4621,235.5209)" class="SpaceDimensionsLabel"><g id="NameLabel" style="display: block;" class="TextLabel NameLabel"><text x="0" y="0em" fill="#000000" stroke="none" style="font-family: Verdana; font-size: 33px; fill-opacity: 1; cursor: default;">UNDEFINED</text></g><g id="DimensionMeasureLabel" transform="matrix(1,0,0,1,-8.8281,40.0157)" style="display: none;" class="TextLabel DimensionMeasureLabel"><text x="0" y="0em" fill="#000000" stroke="none" style="font-family: Verdana; font-size: 33px; fill-opacity: 1; cursor: default;">20'4" x 27'3"</text><text x="0" y="0"/></g></g></g></g><g id="b20763bb-680a-48b1-8f7d-a66cd6d30f74" fill="#ffffff" stroke="#ffffff" style="fill-opacity: 1; stroke-opacity: 1; stroke-width: 0.2;" class="Space Undefined"><polygon points="757.26,554.31 342.83,554.31 342.83,193.48 757.26,193.48 "/><g transform="matrix(1,0,0,1,342.8277,193.482)" class="Dimension"><g transform="matrix(1,0,0,1,0,0)" style="display: none;" class="Visual"><g id="mark1" fill="#000000" stroke="none" transform="matrix(1,0,0,1,207.2177,0)" style="fill-opacity: 1; pointer-events: visible;" class="DimensionMark"><polygon points="-5,5,0,0,5,5"/></g><g id="mark2" fill="#000000" stroke="none" transform="matrix(1,0,0,1,414.4354,180.4147)" style="fill-opacity: 1; pointer-events: visible;" class="DimensionMark"><polygon points="-5,-5,0,0,-5,5"/></g><g id="mark3" fill="#000000" stroke="none" transform="matrix(1,0,0,1,207.2177,360.8294)" style="fill-opacity: 1; pointer-events: visible;" class="DimensionMark"><polygon points="-5,-5,0,0,5,-5"/></g><g id="mark4" fill="#000000" stroke="none" transform="matrix(1,0,0,1,0,180.4147)" style="fill-opacity: 1; pointer-events: visible;" class="DimensionMark"><polygon points="5,5,0,0,5,-5"/></g></g><g transform="matrix(1,0,0,1,207.2177,180.4147)" class="SpaceDimensionsLabel"><g id="NameLabel" style="display: block;" class="TextLabel NameLabel"><text x="0" y="0em" fill="#000000" stroke="none" style="font-family: Verdana; font-size: 33px; fill-opacity: 1; cursor: default;">UNDEFINED</text></g><g id="DimensionMeasureLabel" transform="matrix(1,0,0,1,-19.3125,40.0157)" style="display: none;" class="TextLabel DimensionMeasureLabel"><text x="0" y="0em" fill="#000000" stroke="none" style="font-family: Verdana; font-size: 33px; fill-opacity: 1; cursor: default;">13'7" x 11'10"</text><text x="0" y="0"/></g></g></g></g><g id="95b99a87-88a5-4c16-a861-8946ec5a6e40" fill="#ffffff" stroke="#ffffff" style="fill-opacity: 1; stroke-opacity: 1; stroke-width: 0.2;" class="Space Undefined"><polygon points="1574.12,1349.89 1132.06,1349.89 1132.06,1210.75 1132.01,1210.75 1132.01,1038.51 1574.12,1038.51 "/><g transform="matrix(1,0,0,1,1132.0109,1038.5076)" class="Dimension"><g transform="matrix(1,0,0,1,0,0)" style="display: none;" class="Visual"><g id="mark1" fill="#000000" stroke="none" transform="matrix(1,0,0,1,221.0528,0)" style="fill-opacity: 1; pointer-events: visible;" class="DimensionMark"><polygon points="-5,5,0,0,5,5"/></g><g id="mark2" fill="#000000" stroke="none" transform="matrix(1,0,0,1,442.1057,155.691)" style="fill-opacity: 1; pointer-events: visible;" class="DimensionMark"><polygon points="-5,-5,0,0,-5,5"/></g><g id="mark3" fill="#000000" stroke="none" transform="matrix(1,0,0,1,221.0528,311.3821)" style="fill-opacity: 1; pointer-events: visible;" class="DimensionMark"><polygon points="-5,-5,0,0,5,-5"/></g><g id="mark4" fill="#000000" stroke="none" transform="matrix(1,0,0,1,0,155.691)" style="fill-opacity: 1; pointer-events: visible;" class="DimensionMark"><polygon points="5,5,0,0,5,-5"/></g></g><g transform="matrix(1,0,0,1,155.6911,155.6911)" class="SpaceDimensionsLabel"><g id="NameLabel" style="display: block;" class="TextLabel NameLabel"><text x="0" y="0em" fill="#000000" stroke="none" style="font-family: Verdana; font-size: 33px; fill-opacity: 1; cursor: default;">UNDEFINED</text></g><g id="DimensionMeasureLabel" transform="matrix(1,0,0,1,-8.8281,40.0157)" style="display: none;" class="TextLabel DimensionMeasureLabel"><text x="0" y="0em" fill="#000000" stroke="none" style="font-family: Verdana; font-size: 33px; fill-opacity: 1; cursor: default;">14'6" x 10'3"</text><text x="0" y="0"/></g></g></g></g><g id="65983f02-0a5b-466b-b86c-16ed9ebead08" fill="#ffffff" stroke="#ffffff" style="fill-opacity: 1; stroke-opacity: 1; stroke-width: 0.2;" class="Space Undefined"><polygon points="757.26,788.73 342.83,788.73 342.83,561.24 757.26,561.24 "/><g transform="matrix(1,0,0,1,342.8277,561.2402)" class="Dimension"><g transform="matrix(1,0,0,1,0,0)" style="display: none;" class="Visual"><g id="mark1" fill="#000000" stroke="none" transform="matrix(1,0,0,1,207.2177,0)" style="fill-opacity: 1; pointer-events: visible;" class="DimensionMark"><polygon points="-5,5,0,0,5,5"/></g><g id="mark2" fill="#000000" stroke="none" transform="matrix(1,0,0,1,414.4354,113.7464)" style="fill-opacity: 1; pointer-events: visible;" class="DimensionMark"><polygon points="-5,-5,0,0,-5,5"/></g><g id="mark3" fill="#000000" stroke="none" transform="matrix(1,0,0,1,207.2177,227.4928)" style="fill-opacity: 1; pointer-events: visible;" class="DimensionMark"><polygon points="-5,-5,0,0,5,-5"/></g><g id="mark4" fill="#000000" stroke="none" transform="matrix(1,0,0,1,0,113.7464)" style="fill-opacity: 1; pointer-events: visible;" class="DimensionMark"><polygon points="5,5,0,0,5,-5"/></g></g><g transform="matrix(1,0,0,1,113.7464,113.7464)" class="SpaceDimensionsLabel"><g id="NameLabel" style="display: block;" class="TextLabel NameLabel"><text x="0" y="0em" fill="#000000" stroke="none" style="font-family: Verdana; font-size: 33px; fill-opacity: 1; cursor: default;">UNDEFINED</text></g><g id="DimensionMeasureLabel" transform="matrix(1,0,0,1,1.664,40.0157)" style="display: none;" class="TextLabel DimensionMeasureLabel"><text x="0" y="0em" fill="#000000" stroke="none" style="font-family: Verdana; font-size: 33px; fill-opacity: 1; cursor: default;">13'7" x 7'6"</text><text x="0" y="0"/></g></g></g></g><g id="44b2f68c-7350-4f3e-9b1b-f7eb2db760bc" fill="#ffffff" stroke="#ffffff" style="fill-opacity: 1; stroke-opacity: 1; stroke-width: 0.2;" class="Space Undefined"><polygon points="1104.43,588.96 1116.89,588.96 1116.89,745.73 939.40,745.73 939.40,788.73 772.26,788.73 772.26,569.65 1104.43,569.65 "/><g transform="matrix(1,0,0,1,772.2631,569.6531)" class="Dimension"><g transform="matrix(1,0,0,1,0,0)" style="display: none;" class="Visual"><g id="mark1" fill="#000000" stroke="none" transform="matrix(1,0,0,1,167.1322,0)" style="fill-opacity: 1; pointer-events: visible;" class="DimensionMark"><polygon points="-5,5,0,0,5,5"/></g><g id="mark2" fill="#000000" stroke="none" transform="matrix(1,0,0,1,344.6294,109.5399)" style="fill-opacity: 1; pointer-events: visible;" class="DimensionMark"><polygon points="-5,-5,0,0,-5,5"/></g><g id="mark3" fill="#000000" stroke="none" transform="matrix(1,0,0,1,167.1322,219.0799)" style="fill-opacity: 1; pointer-events: visible;" class="DimensionMark"><polygon points="-5,-5,0,0,5,-5"/></g><g id="mark4" fill="#000000" stroke="none" transform="matrix(1,0,0,1,0,109.5399)" style="fill-opacity: 1; pointer-events: visible;" class="DimensionMark"><polygon points="5,5,0,0,5,-5"/></g></g><g transform="matrix(1,0,0,1,100.5542,100.5543)" class="SpaceDimensionsLabel"><g id="NameLabel" style="display: block;" class="TextLabel NameLabel"><text x="0" y="0em" fill="#000000" stroke="none" style="font-family: Verdana; font-size: 33px; fill-opacity: 1; cursor: default;">UNDEFINED</text></g><g id="DimensionMeasureLabel" transform="matrix(1,0,0,1,1.664,40.0157)" style="display: none;" class="TextLabel DimensionMeasureLabel"><text x="0" y="0em" fill="#000000" stroke="none" style="font-family: Verdana; font-size: 33px; fill-opacity: 1; cursor: default;">11'4" x 7'2"</text><text x="0" y="0"/></g></g></g></g><g id="0af490ec-afad-471f-b980-a3e95f5ff9bd" fill="#ffffff" stroke="#ffffff" style="fill-opacity: 1; stroke-opacity: 1; stroke-width: 0.2;" class="Space Undefined"><polygon points="939.13,554.03 772.26,554.03 772.26,193.48 939.13,193.48 "/><g transform="matrix(1,0,0,1,772.2631,193.482)" class="Dimension"><g transform="matrix(1,0,0,1,0,0)" style="display: none;" class="Visual"><g id="mark1" fill="#000000" stroke="none" transform="matrix(1,0,0,1,83.4352,0)" style="fill-opacity: 1; pointer-events: visible;" class="DimensionMark"><polygon points="-5,5,0,0,5,5"/></g><g id="mark2" fill="#000000" stroke="none" transform="matrix(1,0,0,1,166.8704,180.2733)" style="fill-opacity: 1; pointer-events: visible;" class="DimensionMark"><polygon points="-5,-5,0,0,-5,5"/></g><g id="mark3" fill="#000000" stroke="none" transform="matrix(1,0,0,1,83.4352,360.5465)" style="fill-opacity: 1; pointer-events: visible;" class="DimensionMark"><polygon points="-5,-5,0,0,5,-5"/></g><g id="mark4" fill="#000000" stroke="none" transform="matrix(1,0,0,1,0,180.2733)" style="fill-opacity: 1; pointer-events: visible;" class="DimensionMark"><polygon points="5,5,0,0,5,-5"/></g></g><g transform="matrix(1,0,0,1,83.4352,83.4352)" class="SpaceDimensionsLabel"><g id="NameLabel" style="display: block;" class="TextLabel NameLabel"><text x="0" y="0em" fill="#000000" stroke="none" style="font-family: Verdana; font-size: 33px; fill-opacity: 1; cursor: default;">UNDEFINED</text></g><g id="DimensionMeasureLabel" transform="matrix(1,0,0,1,-8.8281,40.0157)" style="display: none;" class="TextLabel DimensionMeasureLabel"><text x="0" y="0em" fill="#000000" stroke="none" style="font-family: Verdana; font-size: 33px; fill-opacity: 1; cursor: default;">5'6" x 11'10"</text><text x="0" y="0"/></g></g></g></g><g id="95ca20b0-8e4a-4856-abea-b6c3de53e58a" fill="#ffffff" stroke="#ffffff" style="fill-opacity: 1; stroke-opacity: 1; stroke-width: 0.2;" class="Space Undefined"><polygon points="1118.33,1126.30 964.18,1126.30 964.18,964.95 1118.33,964.95 "/><g transform="matrix(1,0,0,1,964.1806,964.9466)" class="Dimension"><g transform="matrix(1,0,0,1,0,0)" style="display: none;" class="Visual"><g id="mark1" fill="#000000" stroke="none" transform="matrix(1,0,0,1,77.0749,0)" style="fill-opacity: 1; pointer-events: visible;" class="DimensionMark"><polygon points="-5,5,0,0,5,5"/></g><g id="mark2" fill="#000000" stroke="none" transform="matrix(1,0,0,1,154.1498,80.6759)" style="fill-opacity: 1; pointer-events: visible;" class="DimensionMark"><polygon points="-5,-5,0,0,-5,5"/></g><g id="mark3" fill="#000000" stroke="none" transform="matrix(1,0,0,1,77.0749,161.3517)" style="fill-opacity: 1; pointer-events: visible;" class="DimensionMark"><polygon points="-5,-5,0,0,5,-5"/></g><g id="mark4" fill="#000000" stroke="none" transform="matrix(1,0,0,1,0,80.6759)" style="fill-opacity: 1; pointer-events: visible;" class="DimensionMark"><polygon points="5,5,0,0,5,-5"/></g></g><g transform="matrix(1,0,0,1,77.0749,80.6758)" class="SpaceDimensionsLabel"><g id="NameLabel" style="display: block;" class="TextLabel NameLabel"><text x="0" y="0em" fill="#000000" stroke="none" style="font-family: Verdana; font-size: 33px; fill-opacity: 1; cursor: default;">UNDEFINED</text></g><g id="DimensionMeasureLabel" transform="matrix(1,0,0,1,12.1485,40.0157)" style="display: none;" class="TextLabel DimensionMeasureLabel"><text x="0" y="0em" fill="#000000" stroke="none" style="font-family: Verdana; font-size: 33px; fill-opacity: 1; cursor: default;">5'1" x 5'4"</text><text x="0" y="0"/></g></g></g></g><g id="35272f9b-71d6-4116-acac-4bbe4e3c4708" fill="#ffffff" stroke="#ffffff" style="fill-opacity: 1; stroke-opacity: 1; stroke-width: 0.2;" class="Space Undefined"><polygon points="1118.33,1210.75 1004.40,1210.75 1004.40,1140.30 1118.33,1140.30 "/><g transform="matrix(1,0,0,1,1004.4036,1140.2983)" class="Dimension"><g transform="matrix(1,0,0,1,0,0)" style="display: none;" class="Visual"><g id="mark1" fill="#000000" stroke="none" transform="matrix(1,0,0,1,56.9634,0)" style="fill-opacity: 1; pointer-events: visible;" class="DimensionMark"><polygon points="-5,5,0,0,5,5"/></g><g id="mark2" fill="#000000" stroke="none" transform="matrix(1,0,0,1,113.9267,35.2248)" style="fill-opacity: 1; pointer-events: visible;" class="DimensionMark"><polygon points="-5,-5,0,0,-5,5"/></g><g id="mark3" fill="#000000" stroke="none" transform="matrix(1,0,0,1,56.9634,70.4496)" style="fill-opacity: 1; pointer-events: visible;" class="DimensionMark"><polygon points="-5,-5,0,0,5,-5"/></g><g id="mark4" fill="#000000" stroke="none" transform="matrix(1,0,0,1,0,35.2248)" style="fill-opacity: 1; pointer-events: visible;" class="DimensionMark"><polygon points="5,5,0,0,5,-5"/></g></g><g transform="matrix(1,0,0,1,35.2248,35.2248)" class="SpaceDimensionsLabel"><g id="NameLabel" style="display: block;" class="TextLabel NameLabel"><text x="0" y="0em" fill="#000000" stroke="none" style="font-family: Verdana; font-size: 33px; fill-opacity: 1; cursor: default;">UNDEFINED</text></g><g id="DimensionMeasureLabel" transform="matrix(1,0,0,1,12.1485,40.0157)" style="display: none;" class="TextLabel DimensionMeasureLabel"><text x="0" y="0em" fill="#000000" stroke="none" style="font-family: Verdana; font-size: 33px; fill-opacity: 1; cursor: default;">3'9" x 2'4"</text><text x="0" y="0"/></g></g></g></g><g id="Wall" fill="#000000" stroke="#000000" style="fill-opacity: 1; stroke-opacity: 1; stroke-width: 0.2;" class="Wall External"><polygon points="1114.06,1369.89 1114.06,1228.75 1132.06,1210.75 1132.06,1349.89 "/></g><g id="Wall" fill="#000000" stroke="#000000" style="fill-opacity: 1; stroke-opacity: 1; stroke-width: 0.2;" class="Wall External"><polygon points="1114.06,1228.75 983.36,1228.75 1004.40,1210.75 1132.06,1210.75 "/></g><g id="Wall" fill="#000000" stroke="#000000" style="fill-opacity: 1; stroke-opacity: 1; stroke-width: 0.2;" class="Wall External"><polygon points="983.36,1228.75 983.36,1146.79 1004.40,1126.30 1004.40,1210.75 "/></g><g id="Wall" fill="#000000" stroke="#000000" style="fill-opacity: 1; stroke-opacity: 1; stroke-width: 0.2;" class="Wall External"><polygon points="983.36,1146.79 940.18,1146.79 964.18,1126.30 1004.40,1126.30 "/></g><g id="Wall" fill="#000000" stroke="#000000" style="fill-opacity: 1; stroke-opacity: 1; stroke-width: 0.2;" class="Wall External"><polygon points="940.18,1146.79 940.18,942.95 964.18,964.95 964.18,1126.30 "/></g><g id="Wall" fill="#000000" stroke="#000000" style="fill-opacity: 1; stroke-opacity: 1; stroke-width: 0.2;" class="Wall External"><polygon points="940.18,942.95 1112.89,942.95 1131.89,964.95 964.18,964.95 "/></g><g id="Wall" fill="#000000" stroke="#000000" style="fill-opacity: 1; stroke-opacity: 1; stroke-width: 0.2;" class="Wall External"><polygon points="1112.89,942.95 1112.89,810.73 1131.89,745.73 1131.89,964.95 "/></g><g id="Wall" fill="#000000" stroke="#000000" style="fill-opacity: 1; stroke-opacity: 1; stroke-width: 0.2;" class="Wall External"><polygon points="1112.89,810.73 939.40,810.73 939.40,745.73 1131.89,745.73 "/></g><g id="Wall" fill="#000000" stroke="#000000" style="fill-opacity: 1; stroke-opacity: 1; stroke-width: 0.2;" class="Wall External"><polygon points="939.40,810.73 320.83,810.73 342.83,788.73 939.40,788.73 "/><g id="Door" fill="#ffffff" stroke="#000000" style="fill-opacity: 1; stroke-width: 1; stroke-opacity: 1;" class="Door Swing Beside"><polygon points="930.05,810.73 830.41,810.73 830.41,788.73 930.05,788.73 "/><g id="Threshold" class="Threshold"><polygon points="930.05,810.73 830.41,810.73 830.41,788.73 930.05,788.73 "/></g><g id="Panel" fill="none" style="" class="Panel Left Negative"><g id="PanelArea" fill="none" stroke="none" style="" class="PanelArea"><polygon points="930.05,810.73 830.41,810.73 830.41,788.73 930.05,788.73 "/></g><path d="M930.05,810.73 q0.00,99.64 -99.64,99.64 l0.00,-99.64Z"/></g></g></g><g id="Wall" fill="#000000" stroke="#000000" style="fill-opacity: 1; stroke-opacity: 1; stroke-width: 0.2;" class="Wall External"><polygon points="320.83,810.73 320.83,173.48 342.83,193.48 342.83,788.73 "/><g id="Window" fill="#f0f0ff" stroke="#000000" style="fill-opacity: 1; stroke-width: 1; stroke-opacity: 1;" class="Window Regular"><polygon points="320.83,309.61 320.83,210.14 342.83,210.14 342.83,309.61 "/><g id="Glass" class="Glass"><polygon points="320.83,309.61 320.83,210.14 342.83,210.14 342.83,309.61 "/></g><g id="Panel" class="Panel"><line x1="331.8277276057906" x2="331.8277276057906" y1="302.1109774924674" y2="217.63788784381632"/><line x1="320.8277276057906" x2="342.8277276057906" y1="302.1109774924674" y2="302.1109774924674"/><line x1="320.8277276057906" x2="342.8277276057906" y1="217.63788784381632" y2="217.63788784381632"/></g></g><g id="Door" fill="#ffffff" stroke="#000000" style="fill-opacity: 1; stroke-width: 1; stroke-opacity: 1;" class="Door Swing Opposite"><polygon points="320.83,499.05 320.83,417.25 342.83,417.25 342.83,499.05 "/><g id="Threshold" class="Threshold"><polygon points="320.83,499.05 320.83,417.25 342.83,417.25 342.83,499.05 "/></g><g id="Panel" fill="none" style="" class="Panel Right Negative"><g id="PanelArea" fill="none" stroke="none" style="" class="PanelArea"><polygon points="320.83,499.05 320.83,417.25 342.83,417.25 342.83,499.05 "/></g><path d="M320.83,417.25 q-81.80,0.00 -81.80,81.80 l81.80,0.00Z"/></g><g id="Panel" fill="none" style="" class="Panel Left Positive"><g id="PanelArea" fill="none" stroke="none" style="" class="PanelArea"><polygon points="320.83,499.05 320.83,417.25 342.83,417.25 342.83,499.05 "/></g><path d="M342.83,417.25 q81.80,0.00 81.80,81.80 l-81.80,0.00Z"/></g></g><g id="Window" fill="#f0f0ff" stroke="#000000" style="fill-opacity: 1; stroke-width: 1; stroke-opacity: 1;" class="Window Regular"><polygon points="320.83,708.16 320.83,601.77 342.83,601.77 342.83,708.16 "/><g id="Glass" class="Glass"><polygon points="320.83,708.16 320.83,601.77 342.83,601.77 342.83,708.16 "/></g><g id="Panel" class="Panel"><line x1="331.82772760579064" x2="331.82772760579064" y1="700.6573823725025" y2="609.2744068367244"/><line x1="320.82772760579064" x2="342.82772760579064" y1="700.6573823725025" y2="700.6573823725025"/><line x1="320.82772760579064" x2="342.82772760579064" y1="609.2744068367244" y2="609.2744068367244"/></g></g></g><g id="Wall" fill="#000000" stroke="#000000" style="fill-opacity: 1; stroke-opacity: 1; stroke-width: 0.2;" class="Wall External"><polygon points="320.83,173.48 1594.12,173.48 1574.12,193.48 342.83,193.48 "/></g><g id="Wall" fill="#000000" stroke="#000000" style="fill-opacity: 1; stroke-opacity: 1; stroke-width: 0.2;" class="Wall External"><polygon points="1594.12,173.48 1594.12,1369.89 1574.12,1349.89 1574.12,193.48 "/><g id="Window" fill="#f0f0ff" stroke="#000000" style="fill-opacity: 1; stroke-width: 1; stroke-opacity: 1;" class="Window Regular"><polygon points="1594.12,1054.05 1594.12,1199.45 1574.12,1199.45 1574.12,1054.05 "/><g id="Glass" class="Glass"><polygon points="1594.12,1054.05 1594.12,1199.45 1574.12,1199.45 1574.12,1054.05 "/></g><g id="Panel" class="Panel"><line x1="1584.1165913167106" x2="1584.1165913167106" y1="1061.551792967032" y2="1191.9518070200015"/><line x1="1594.1165913167106" x2="1574.1165913167106" y1="1061.551792967032" y2="1061.551792967032"/><line x1="1594.1165913167106" x2="1574.1165913167106" y1="1191.9518070200015" y2="1191.9518070200015"/></g></g><g id="Window" fill="#f0f0ff" stroke="#000000" style="fill-opacity: 1; stroke-width: 1; stroke-opacity: 1;" class="Window Regular"><polygon points="1594.12,667.41 1594.12,880.62 1574.12,880.62 1574.12,667.41 "/><g id="Glass" class="Glass"><polygon points="1594.12,667.41 1594.12,880.62 1574.12,880.62 1574.12,667.41 "/></g><g id="Panel" class="Panel"><line x1="1584.1165913167106" x2="1584.1165913167106" y1="674.9051638765137" y2="873.1150490447856"/><line x1="1594.1165913167106" x2="1574.1165913167106" y1="674.9051638765137" y2="674.9051638765137"/><line x1="1594.1165913167106" x2="1574.1165913167106" y1="873.1150490447856" y2="873.1150490447856"/></g></g><g id="Door" fill="#ffffff" stroke="#000000" style="fill-opacity: 1; stroke-width: 1; stroke-opacity: 1;" class="Door Swing Opposite"><polygon points="1594.12,413.81 1594.12,489.25 1574.12,489.25 1574.12,413.81 "/><g id="Threshold" class="Threshold"><polygon points="1594.12,413.81 1594.12,489.25 1574.12,489.25 1574.12,413.81 "/></g><g id="Panel" fill="none" style="" class="Panel Right Negative"><g id="PanelArea" fill="none" stroke="none" style="" class="PanelArea"><polygon points="1594.12,413.81 1594.12,489.25 1574.12,489.25 1574.12,413.81 "/></g><path d="M1594.12,489.25 q75.44,0.00 75.44,-75.44 l-75.44,0.00Z"/></g><g id="Panel" fill="none" style="" class="Panel Left Positive"><g id="PanelArea" fill="none" stroke="none" style="" class="PanelArea"><polygon points="1594.12,413.81 1594.12,489.25 1574.12,489.25 1574.12,413.81 "/></g><path d="M1574.12,489.25 q-75.44,0.00 -75.44,-75.44 l75.44,0.00Z"/></g></g><g id="Window" fill="#f0f0ff" stroke="#000000" style="fill-opacity: 1; stroke-width: 1; stroke-opacity: 1;" class="Window Regular"><polygon points="1594.12,264.88 1594.12,399.11 1574.12,399.11 1574.12,264.88 "/><g id="Glass" class="Glass"><polygon points="1594.12,264.88 1594.12,399.11 1574.12,399.11 1574.12,264.88 "/></g><g id="Panel" class="Panel"><line x1="1584.1165913167106" x2="1584.1165913167106" y1="272.38452459292586" y2="391.6127086745355"/><line x1="1594.1165913167106" x2="1574.1165913167106" y1="272.38452459292586" y2="272.38452459292586"/><line x1="1594.1165913167106" x2="1574.1165913167106" y1="391.6127086745355" y2="391.6127086745355"/></g></g></g><g id="Wall" fill="#000000" stroke="#000000" style="fill-opacity: 1; stroke-opacity: 1; stroke-width: 0.2;" class="Wall External"><polygon points="1594.12,1369.89 1114.06,1369.89 1132.06,1349.89 1574.12,1349.89 "/></g><g id="Wall" fill="#000000" stroke="#000000" style="fill-opacity: 1; stroke-opacity: 1; stroke-width: 0.2;" class="Wall"><polygon points="1132.01,942.95 1132.01,1228.75 1118.33,1228.75 1118.33,942.95 "/><g id="Door" fill="#ffffff" stroke="#000000" style="fill-opacity: 1; stroke-width: 1; stroke-opacity: 1;" class="Door Swing Beside"><polygon points="1132.01,1143.96 1132.01,1203.84 1118.33,1203.84 1118.33,1143.96 "/><g id="Threshold" class="Threshold"><polygon points="1132.01,1143.96 1132.01,1203.84 1118.33,1203.84 1118.33,1143.96 "/></g><g id="Panel" fill="none" style="" class="Panel Right Negative"><g id="PanelArea" fill="none" stroke="none" style="" class="PanelArea"><polygon points="1132.01,1143.96 1132.01,1203.84 1118.33,1203.84 1118.33,1143.96 "/></g><path d="M1132.01,1203.84 q59.89,0.00 59.89,-59.89 l-59.89,0.00Z"/></g></g><g id="Door" fill="#ffffff" stroke="#000000" style="fill-opacity: 1; stroke-width: 1; stroke-opacity: 1;" class="Door Swing Beside"><polygon points="1132.01,1044.76 1132.01,1110.55 1118.33,1110.55 1118.33,1044.76 "/><g id="Threshold" class="Threshold"><polygon points="1132.01,1044.76 1132.01,1110.55 1118.33,1110.55 1118.33,1044.76 "/></g><g id="Panel" fill="none" style="" class="Panel Left Negative"><g id="PanelArea" fill="none" stroke="none" style="" class="PanelArea"><polygon points="1132.01,1044.76 1132.01,1110.55 1118.33,1110.55 1118.33,1044.76 "/></g><path d="M1132.01,1044.76 q65.79,0.00 65.79,65.79 l-65.79,0.00Z"/></g></g></g><g id="Wall" fill="#000000" stroke="#000000" style="fill-opacity: 1; stroke-opacity: 1; stroke-width: 0.2;" class="Wall"><polygon points="1004.40,1126.30 1132.01,1126.30 1132.01,1140.30 1004.40,1140.30 "/></g><g id="Wall" fill="#000000" stroke="#000000" style="fill-opacity: 1; stroke-opacity: 1; stroke-width: 0.2;" class="Wall"><polygon points="1118.33,1024.51 1594.12,1024.51 1594.12,1038.51 1118.33,1038.51 "/><g id="Door" fill="#ffffff" stroke="#000000" style="fill-opacity: 1; stroke-width: 1; stroke-opacity: 1;" class="Door Swing Beside"><polygon points="1190.94,1024.51 1281.06,1024.51 1281.06,1038.51 1190.94,1038.51 "/><g id="Threshold" class="Threshold"><polygon points="1190.94,1024.51 1281.06,1024.51 1281.06,1038.51 1190.94,1038.51 "/></g><g id="Panel" fill="none" style="" class="Panel Right Positive"><g id="PanelArea" fill="none" stroke="none" style="" class="PanelArea"><polygon points="1190.94,1024.51 1281.06,1024.51 1281.06,1038.51 1190.94,1038.51 "/></g><path d="M1190.94,1038.51 q0.00,90.11 90.11,90.11 l0.00,-90.11Z"/></g></g></g><g id="Wall" fill="#000000" stroke="#000000" style="fill-opacity: 1; stroke-opacity: 1; stroke-width: 0.2;" class="Wall"><polygon points="757.26,810.73 757.26,173.48 772.26,173.48 772.26,810.73 "/><g id="Door" fill="#ffffff" stroke="#000000" style="fill-opacity: 1; stroke-width: 1; stroke-opacity: 1;" class="Door Zfold Beside"><polygon points="757.26,716.96 757.26,570.21 772.26,570.21 772.26,716.96 "/><g id="Threshold" stroke="#ffffff" style="" class="Threshold"><polygon points="757.26,716.96 757.26,570.21 772.26,570.21 772.26,716.96 "/></g><g id="Panel" class="Panel Right Center"><g id="PanelArea" fill="none" stroke="none" style="" class="PanelArea"><polygon points="757.26,716.96 757.26,570.21 772.26,570.21 772.26,716.96 "/></g><path d="M772.26,716.96 L757.26,707.27 L772.26,697.59 L757.26,687.90 L772.26,678.21 L757.26,668.53 L772.26,658.84 L757.26,649.16 L772.26,639.47 L757.26,629.79 L772.26,620.10 "/></g></g></g><g id="Wall" fill="#000000" stroke="#000000" style="fill-opacity: 1; stroke-opacity: 1; stroke-width: 0.2;" class="Wall"><polygon points="757.26,554.03 1138.25,554.03 1104.43,569.65 757.26,569.65 "/><g id="Door" fill="#ffffff" stroke="#000000" style="fill-opacity: 1; stroke-width: 1; stroke-opacity: 1;" class="Door Swing Beside"><polygon points="818.79,554.03 887.87,554.03 887.87,569.65 818.79,569.65 "/><g id="Threshold" class="Threshold"><polygon points="818.79,554.03 887.87,554.03 887.87,569.65 818.79,569.65 "/></g><g id="Panel" fill="none" style="" class="Panel Left Positive"><g id="PanelArea" fill="none" stroke="none" style="" class="PanelArea"><polygon points="818.79,554.03 887.87,554.03 887.87,569.65 818.79,569.65 "/></g><path d="M887.87,569.65 q0.00,69.08 -69.08,69.08 l0.00,-69.08Z"/></g></g><g id="Door" fill="#ffffff" stroke="#000000" style="fill-opacity: 1; stroke-width: 1; stroke-opacity: 1;" class="Door Zfold Beside"><polygon points="1012.67,554.03 1104.04,554.03 1104.04,569.65 1012.67,569.65 "/><g id="Threshold" stroke="#ffffff" style="" class="Threshold"><polygon points="1012.67,554.03 1104.04,554.03 1104.04,569.65 1012.67,569.65 "/></g><g id="Panel" class="Panel Right Center"><g id="PanelArea" fill="none" stroke="none" style="" class="PanelArea"><polygon points="1012.67,554.03 1104.04,554.03 1104.04,569.65 1012.67,569.65 "/></g><path d="M1012.67,569.65 L1018.70,554.03 L1024.73,569.65 L1030.76,554.03 L1036.79,569.65 L1042.82,554.03 L1048.85,569.65 L1054.88,554.03 L1060.91,569.65 L1066.94,554.03 L1072.97,569.65 "/></g></g></g><g id="Wall" fill="#000000" stroke="#000000" style="fill-opacity: 1; stroke-opacity: 1; stroke-width: 0.2;" class="Wall"><polygon points="939.13,554.03 939.13,173.48 954.13,173.48 954.13,554.03 "/></g><g id="Wall" fill="#000000" stroke="#000000" style="fill-opacity: 1; stroke-opacity: 1; stroke-width: 0.2;" class="Wall"><polygon points="772.26,561.24 320.83,561.24 320.83,554.31 772.26,554.31 "/><g id="Door" fill="#ffffff" stroke="#000000" style="fill-opacity: 1; stroke-width: 1; stroke-opacity: 1;" class="Door Zfold Beside"><polygon points="571.42,561.24 343.88,561.24 343.88,554.31 571.42,554.31 "/><g id="Threshold" stroke="#ffffff" style="" class="Threshold"><polygon points="571.42,561.24 343.88,561.24 343.88,554.31 571.42,554.31 "/></g><g id="Panel" class="Panel Left Center"><g id="PanelArea" fill="none" stroke="none" style="" class="PanelArea"><polygon points="571.42,561.24 343.88,561.24 343.88,554.31 571.42,554.31 "/></g><path d="M343.88,554.31 L358.90,561.24 L373.91,554.31 L388.93,561.24 L403.95,554.31 L418.97,561.24 L433.98,554.31 L449.00,561.24 L464.02,554.31 L479.04,561.24 L494.05,554.31 "/></g></g></g><g id="Wall" fill="#000000" stroke="#000000" style="fill-opacity: 1; stroke-opacity: 1; stroke-width: 0.2;" class="Wall"><polygon points="1131.89,745.73 1131.89,588.96 1116.89,588.96 1116.89,745.73 "/><g id="Door" fill="#ffffff" stroke="#000000" style="fill-opacity: 1; stroke-width: 1; stroke-opacity: 1;" class="Door Zfold Beside"><polygon points="1131.89,745.41 1131.89,589.45 1116.89,589.45 1116.89,745.41 "/><g id="Threshold" stroke="#ffffff" style="" class="Threshold"><polygon points="1131.89,745.41 1131.89,589.45 1116.89,589.45 1116.89,745.41 "/></g><g id="Panel" class="Panel Right Center"><g id="PanelArea" fill="none" stroke="none" style="" class="PanelArea"><polygon points="1131.89,745.41 1131.89,589.45 1116.89,589.45 1116.89,745.41 "/></g><path d="M1116.89,745.41 L1131.89,735.12 L1116.89,724.82 L1131.89,714.53 L1116.89,704.24 L1131.89,693.94 L1116.89,683.65 L1131.89,673.36 L1116.89,663.06 L1131.89,652.77 L1116.89,642.48 "/></g></g></g><g id="Wall" fill="#000000" stroke="#000000" style="fill-opacity: 1; stroke-opacity: 1; stroke-width: 0.2;" class="Wall"><polygon points="1138.25,588.96 1138.25,554.03 1104.43,569.65 1104.43,588.96 "/></g><g id="Railing" fill="#ffffff" stroke="#000000" style="fill-opacity: 1; stroke-opacity: 1; stroke-width: 0.2;" class="Railing"><polygon points="320.83,579.27 190.02,579.27 199.02,570.27 320.83,570.27 " style="stroke-dasharray: 130.806, 12.7279, 130.806;"/></g><g id="Railing" fill="#ffffff" stroke="#000000" style="fill-opacity: 1; stroke-opacity: 1; stroke-width: 0.2;" class="Railing"><polygon points="190.02,579.27 190.02,359.05 199.02,368.05 199.02,570.27 " style="stroke-dasharray: 220.217, 12.7279, 202.217, 12.7279;"/></g><g id="Railing" fill="#ffffff" stroke="#000000" style="fill-opacity: 1; stroke-opacity: 1; stroke-width: 0.2;" class="Railing"><polygon points="190.02,359.05 320.83,359.05 320.83,368.05 199.02,368.05 " style="stroke-dasharray: 261.612, 12.7279;"/></g><g id="Railing" fill="#ffffff" stroke="#000000" style="fill-opacity: 1; stroke-opacity: 1; stroke-width: 0.2;" class="Railing"><polygon points="1594.12,630.69 1748.73,630.69 1740.73,622.69 1594.12,622.69 " style="stroke-dasharray: 154.617, 11.3137, 154.617;"/></g><g id="Railing" fill="#ffffff" stroke="#000000" style="fill-opacity: 1; stroke-opacity: 1; stroke-width: 0.2;" class="Railing"><polygon points="1740.73,622.69 1740.73,397.87 1748.73,389.87 1748.73,630.69 " style="stroke-dasharray: 224.821, 11.3137, 240.821, 11.3137;"/></g><g id="Railing" fill="#ffffff" stroke="#000000" style="fill-opacity: 1; stroke-opacity: 1; stroke-width: 0.2;" class="Railing"><polygon points="1740.73,397.87 1594.12,397.87 1594.12,389.87 1748.73,389.87 " style="stroke-dasharray: 309.234, 11.3137;"/></g><g class="FixedFurniture Shower" fill="#ffffff" stroke="#000000" transform="matrix(0,-1,1,0,772.2631,239.2183)" style="fill-opacity: 1; stroke-opacity: 1; stroke-width: 1;"> 
	    <g class="BoundaryPolygon" fill="none" stroke="none">
            <polygon points="0,0 32,0 32,19 0,19"/>
        </g>
        <g class="InnerPolygon"> 
			<rect x="3.7" y="0.5" width="11.2" height="6.1"/>
			<rect x="17.6" y="0.5" width="11.2" height="6.1"/>
			<rect x="28.7" y="0.5" width="3.4" height="6.1"/>
			<rect x="0.5" y="0.5" width="3.2" height="6.1"/>
			<path d="M14.9,8.5c0,1.5-0.4,3.3-1.6,5    c-0.4,0.6-1,1.1-1.1,1.7c-0.2,1.1,0.3,2.8,2.5,3.2c0.5,0.1,1.3,0.1,1.6,0.1h-0.1c0.3,0,1.1,0,1.6-0.1c2.2-0.4,2.7-2.1,2.5-3.2    c-0.1-0.6-0.7-1.1-1.1-1.7c-1.2-1.7-1.6-3.5-1.6-5"/>
			<path d="M12.2,15.3c0.1,0.2,1.6,1.9,4.2,1.9 c2.4-0.1,3.7-1.7,3.9-1.9"/>
			<path d="M14.9,0.5h2.7v8c-0.9,0-1.8,0-2.7,0l0,0 C14.9,5.9,14.9,3.2,14.9,0.5z"/>
		</g>
	    <g class="Indicator"> 
			<path d="M3.7,3.6C5,3.1,5.2,3,5.2,3 c0,1.1,0,0,0,1.1C5.2,4.1,5.1,4.1,3.7,3.6"/>
			<path d="M28.7,3.6 C27.4,3.1,27.2,3,27.2,3c0,1.1,0,0,0,1.1C27.2,4.1,27.3,4.1,28.7,3.6"/>	
		</g>
        <desc>Width:32 Height:97 Depth:19 Elevation:135</desc>
	</g><g transform="matrix(1,0,0,1,772.0029,270.8127)" class="FixedFurniture Misc" fill="none" stroke="#000000" style="fill-opacity: 1; stroke-opacity: 1; stroke-width: 1.8; stroke-dasharray: 5, 5;"><desc>Width:120 Height:200 Depth:60 Elevation:0</desc><g class="BoundaryPolygon"><path d="M0.00,0.00 L64.62,0.00 L72.10,-3.13 L78.36,-8.44 L82.46,-14.95 L83.19,-23.15 L83.19,-77.52 "/></g></g><g class="FixedFurniture ElectricalAppliance SpaceForAppliance2" fill="#ffffff" stroke="#000000" stroke-dasharray="4,4" transform="matrix(1.1005,0,0,1.0482,869.5527,194.0763)" style="fill-opacity: 1; stroke-opacity: 1; stroke-width: 1;">
	    <g class="BoundaryPolygon"> 
		    <polygon points="0,0 60,0 60,60 0,60"/>
		</g>	
	    <g class="electricitySign" fill="none">
            <path d="M0,0,30.1,39.8V19.4L59.9,60"/>
		</g>
        <g class="Direction" fill-opacity="0.9" style="display: none;">
            <polygon points="32.009 55.197 32.009 44.581 29 44.581 29 55.197 25.197 55.197 30.5 60 35.803 55.197 32.009 55.197" fill="#444444"/>
        </g> 
        <g class="Name" fill-opacity="0.9" stroke-dasharray="none" style="display: none;">
            <text transform="translate(3 12)" font-size="12" font-family="Verdana, Sans-Serif">SFA</text>
        </g>
        <desc>Width:60 Height:90 Depth:60 Elevation:0</desc>
	</g><g class="FixedFurniture Toilet" fill="#ffffff" stroke="#000000" transform="matrix(0,-1.1235,1.017,0,783.5775,348.9845)" style="fill-opacity: 1; stroke-opacity: 1; stroke-width: 1;">
	   <g class="BoundaryPolygon" fill="none" stroke="none"> 
            <polygon points="0,0 41,0 41,71 0,71"/>
		</g>
        <g class="InnerPolygon">
            <rect x="0.502" y="0.5" width="39.989" height="17.98"/>
            <path d="M40.491,44.237S41.619,70.5,20.907,70.5C-.523,70.5.6,44.237.6,44.237L.5,18.48H40.491Z"/>
            <rect x="17.318" y="7.975" width="6.357" height="3.03"/>
        </g>
        <desc>Width:41 Height:85 Depth:71 Elevation:0</desc>
    </g><g class="FixedFurniture BaseCabinet" fill="#ffffff" stroke="#000000" transform="matrix(0,-1,1,0,772.4038,554.0286)" style="fill-opacity: 1; stroke-opacity: 1; stroke-width: 1;">
        <g class="BoundaryPolygon">
            <polygon points="0.00,0.00 186.05,0.00 186.05,45.12 0.00,45.12 "/>
        </g>
        <g class="Direction" fill-opacity="0.9" style="display: none;">
            <polygon points="99.26,41.51 99.26,30.89 96.25,30.89 96.25,41.51 92.44,41.51 97.75,46.31 103.05,41.51 99.26,41.51 " fill="#444444"/>
        </g> 
        <g class="Name" fill-opacity="0.9" style="display: none;">
            <text transform="translate(3 12)" font-size="12" font-family="Verdana, Sans-Serif">CB</text>
        </g>
        <desc>Width:60 Height:90 Depth:60 Elevation:0</desc>
    </g><g class="FixedFurniture Sink" fill="#ffffff" stroke="#000000" transform="matrix(0,-1,1,0,768.7591,519.4418)" style="fill-opacity: 1; stroke-opacity: 1; stroke-width: 1;">
        <g class="BoundaryPolygon" fill="none" stroke="none">
            <polygon points="0.00,0.00 83.39,0.00 83.39,59.09 0.00,59.09 "/>
        </g>
        <g class="InnerPolygon">
            <polygon points="6.95,9.70 76.44,9.70 76.44,53.87 6.95,53.87 "/>
        </g>
        <g class="OuterDrain" stroke-width="0.8">
            <circle cx="41.693253967128165" cy="31.71215277149826" r="3.5"/>
        </g>
        <g class="InnerDrain" stroke-width="0.8">
            <circle cx="41.693253967128165" cy="31.71215277149826" r="2"/>
        </g>
        <g class="Faucet">
            <polygon points="37.52,4.92 43.52,4.92 43.52,18.92 37.52,18.92 "/>
        </g>
        <g class="Direction" fill-opacity="0.9" style="display: none;">
            <polygon points="44.49,54.36 44.49,43.74 41.48,43.74 41.48,54.36 37.67,54.36 42.98,59.16 48.28,54.36 44.49,54.36 " fill="#444444"/>
        </g> 
        <g class="Name" fill-opacity="0.9" style="display: none;">
            <text transform="translate(3 12)" font-size="12" font-family="Verdana, Sans-Serif">SINK</text>
        </g>
        <desc>Width:60 Height:90 Depth:60 Elevation:0</desc>
    </g><g class="FixedFurniture Closet" fill="#ffffff" stroke="#000000" transform="matrix(0,1,-1,0,938.9928,490.9885)" style="fill-opacity: 1; stroke-opacity: 1; stroke-width: 1;">
        <g class="BoundaryPolygon">
            <polygon points="0.00,0.00 63.04,0.00 63.04,50.64 0.00,50.64 "/>
        </g>
        <g class="Direction" fill-opacity="0.9" style="display: none;">
            <polygon points="33.10,46.16 33.10,35.55 30.09,35.55 30.09,46.16 26.29,46.16 31.59,51.46 36.90,46.16 33.10,46.16 " fill="#444444"/>
        </g> 
        <g class="Name" fill-opacity="0.9" style="display: none;">
            <text transform="translate(3 12)" font-size="12" font-family="Verdana, Sans-Serif">CL</text>
        </g>
        <desc>Width:60 Height:200 Depth:60 Elevation:0</desc>
     </g><g class="FixedFurniture BaseCabinet" fill="#ffffff" stroke="#000000" transform="matrix(0,1,-1,0,938.9929,264.5485)" style="fill-opacity: 1; stroke-opacity: 1; stroke-width: 1;">
        <g class="BoundaryPolygon">
            <polygon points="0.00,0.00 226.44,0.00 226.44,50.30 0.00,50.30 "/>
        </g>
        <g class="Direction" fill-opacity="0.9" style="display: none;">
            <polygon points="120.80,46.28 120.80,35.66 117.79,35.66 117.79,46.28 113.99,46.28 119.29,51.08 124.60,46.28 120.80,46.28 " fill="#444444"/>
        </g> 
        <g class="Name" fill-opacity="0.9" style="display: none;">
            <text transform="translate(3 12)" font-size="12" font-family="Verdana, Sans-Serif">CB</text>
        </g>
        <desc>Width:60 Height:90 Depth:60 Elevation:0</desc>
    </g><g class="FixedFurniture WallCabinet" fill="#ffffff" stroke="#000000" transform="matrix(0,1,-1,0,938.8522,264.5485)" style="fill-opacity: 0.7; stroke-opacity: 1; stroke-width: 1.5;">	
        <g class="BoundaryPolygon">
            <polygon points="0.00,0.00 225.83,0.00 225.83,18.21 0.00,18.21 "/>
        </g>
        <g class="Direction" fill-opacity="0.9" style="display: none;">
            <polygon points="120.48,15.29 120.48,4.68 117.47,4.68 117.47,15.29 113.67,15.29 118.97,20.10 124.27,15.29 120.48,15.29 " fill="#444444"/>
        </g> 
        <g class="Name" fill-opacity="0.9" style="display: none;">
            <text transform="translate(3 12)" font-size="12" font-family="Verdana, Sans-Serif">UC</text>
        </g>
        <desc>Width:60 Height:60 Depth:30 Elevation:140</desc>
    </g><g class="FixedFurniture ElectricalAppliance Refrigerator" fill="#ffffff" stroke="#000000" transform="matrix(0,-1.0434,0.9621,0,954.2237,554.0285)" style="fill-opacity: 1; stroke-opacity: 1; stroke-width: 1;">
        <g class="BoundaryPolygon">
            <polygon points="0,0 60,0 60,60 0,60"/>
        </g>
        <g class="electricitySign" fill="none" style="display: block;">
            <path d="M0,0,30,37.1v-18L60,56.3"/>
        </g>
        <g class="Doors">
            <rect y="56" width="60" height="4"/>
        </g>
        <g class="Direction" fill-opacity="0.9" style="display: none;">
            <polygon points="32.009 55.197 32.009 44.581 29 44.581 29 55.197 25.197 55.197 30.5 60 35.803 55.197 32.009 55.197" fill="#444444"/>
        </g> 
        <g class="Name" fill-opacity="0.9" style="display: none;">
            <text transform="translate(3 12)" font-size="12" font-family="Verdana, Sans-Serif">REF</text>
        </g>
        <desc>Width:60 Height:170 Depth:60 Elevation:0</desc>
    </g><g class="FixedFurniture BaseCabinet" fill="#ffffff" stroke="#000000" transform="matrix(0,-1,1,0,954.3053,491.4217)" style="fill-opacity: 1; stroke-opacity: 1; stroke-width: 1;">
        <g class="BoundaryPolygon">
            <polygon points="0.00,0.00 297.88,0.00 297.88,57.72 0.00,57.72 "/>
        </g>
        <g class="Direction" fill-opacity="0.9" style="display: none;">
            <polygon points="158.91,53.10 158.91,42.49 155.90,42.49 155.90,53.10 152.10,53.10 157.40,57.91 162.71,53.10 158.91,53.10 " fill="#444444"/>
        </g> 
        <g class="Name" fill-opacity="0.9" style="display: none;">
            <text transform="translate(3 12)" font-size="12" font-family="Verdana, Sans-Serif">CB</text>
        </g>
        <desc>Width:60 Height:90 Depth:60 Elevation:0</desc>
    </g><g class="FixedFurniture ElectricalAppliance IntegratedStove" fill="#ffffff" stroke="#000000" transform="matrix(0,-1,1,0,952.8347,326.5447)" style="fill-opacity: 1; stroke-opacity: 1; stroke-width: 1;">
        <g class="BoundaryPolygon" fill="none" stroke="none">
            <polygon points="0.00,0.00 71.66,0.00 71.66,60.67 0.00,60.67 "/>
        </g>
        <g class="InnerPolygon">
            <polygon points="2.00,2.00 69.27,2.00 69.27,58.65 2.00,58.65 "/>
        </g>
        <g class="OuterCircle">
            <circle cx="19.109598511219797" cy="16.17971038816809" r="8"/>
            <circle cx="52.55139590585445" cy="16.17971038816809" r="8"/>
            <circle cx="19.109598511219797" cy="44.49420356746224" r="8"/>
            <circle cx="52.55139590585445" cy="44.49420356746224" r="8"/>
        </g>
        <g class="Direction" fill-opacity="0.9" style="display: none;">
            <polygon points="38.23,55.82 38.23,45.20 35.22,45.20 35.22,55.82 31.42,55.82 36.72,60.62 42.02,55.82 38.23,55.82 " fill="#444444"/>
        </g> 
        <g class="Name" fill-opacity="0.9" style="display: none;">
            <text transform="translate(3 12)" font-size="12" font-family="Verdana, Sans-Serif">INT_STOVE</text>
        </g>
        <desc>Width:60 Height:90 Depth:30 Elevation:0</desc>
    </g><g class="FixedFurniture DoubleSink" fill="#ffffff" stroke="#000000" transform="matrix(0,-1,1,0,950.5887,485.7983)" style="fill-opacity: 1; stroke-opacity: 1; stroke-width: 1;">
        <g class="BoundaryPolygon" fill="none" stroke="none">
            <polygon points="0.00,0.00 83.26,0.00 83.26,55.96 0.00,55.96 "/>
        </g>
        <g class="InnerPolygonLeft">
            <polygon points="5.95,9.90 39.85,9.90 39.85,51.20 5.95,51.20 "/>
        </g>
        <g class="InnerPolygonRight">
            <polygon points="43.42,10.00 77.32,10.00 77.32,51.29 43.42,51.29 "/>
        </g>
        <g class="OuterDrain" stroke-width="0.8">
            <circle cx="23.43286731471694" cy="30.30977964420143" r="3.5"/>
            <circle cx="59.712179654760924" cy="30.30977964420143" r="3.5"/>
        </g>
        <g class="InnerDrain" stroke-width="0.8">
            <circle cx="23.43286731471694" cy="30.30977964420143" r="2"/>
            <circle cx="59.712179654760924" cy="30.30977964420143" r="2"/>
        </g>
        <g class="Faucet">
            <polygon points="38.06,4.57 44.06,4.57 44.06,18.57 38.06,18.57 "/>
        </g>
        <g class="Direction" fill-opacity="0.9" style="display: none;">
            <polygon points="43.43,51.01 43.43,40.39 40.42,40.39 40.42,51.01 36.61,51.01 41.92,56.31 47.22,51.01 43.43,51.01 " fill="#444444"/>
        </g> 
        <g class="Name" fill-opacity="0.9" style="display: none;">
            <text transform="translate(3 12)" font-size="12" font-family="Verdana, Sans-Serif">DSINK</text>
        </g>
        <desc>Width:70 Height:90 Depth:60 Elevation:0</desc>
    </g><g class="FixedFurniture WallCabinet" fill="#ffffff" stroke="#000000" transform="matrix(0,-1,1,0,954.2429,491.132)" style="fill-opacity: 0.7; stroke-opacity: 1; stroke-width: 1.5;">	
        <g class="BoundaryPolygon">
            <polygon points="0.00,0.00 297.65,0.00 297.65,30.00 0.00,30.00 "/>
        </g>
        <g class="Direction" fill-opacity="0.9" style="display: none;">
            <polygon points="158.79,25.20 158.79,14.58 155.78,14.58 155.78,25.20 151.98,25.20 157.28,30.00 162.59,25.20 158.79,25.20 " fill="#444444"/>
        </g> 
        <g class="Name" fill-opacity="0.9" style="display: none;">
            <text transform="translate(3 12)" font-size="12" font-family="Verdana, Sans-Serif">UC</text>
        </g>
        <desc>Width:60 Height:60 Depth:30 Elevation:140</desc>
    </g></g></g></g></svg>
