<?xml version="1.0"?>
<svg xmlns="http://www.w3.org/2000/svg" xmlns:xlink="http://www.w3.org/1999/xlink" height="1299.0800399780273" version="1.1" width="727.0809097290039" id="temp" viewBox="0 0 727.0809097290039 1299.0800399780273"><defs/><g id="Model" class="Model v1-1"><g class="Floor"><g id="Floor-1" class="Floorplan Floor-1"><g id="896d60b6-eb07-48d1-90b6-b676314eefaa" fill="#ffffff" stroke="#000000" style="fill-opacity: 1; stroke-opacity: 1; stroke-width: 0.2;" class="Space Outdoor"><polygon points="720.08,226.37 720.08,47.79 113.40,47.79 113.40,226.37 720.08,226.37 720.08,226.37 "/><g transform="matrix(1,0,0,1,113.3974,47.7896)" class="Dimension"><g transform="matrix(1,0,0,1,0,0)" style="display: none;" class="Visual"><g id="mark1" fill="#000000" stroke="none" transform="matrix(1,0,0,1,303.3418,0)" style="fill-opacity: 1; pointer-events: visible;" class="DimensionMark"><polygon points="-5,5,0,0,5,5"/></g><g id="mark2" fill="#000000" stroke="none" transform="matrix(1,0,0,1,606.6835,89.2904)" style="fill-opacity: 1; pointer-events: visible;" class="DimensionMark"><polygon points="-5,-5,0,0,-5,5"/></g><g id="mark3" fill="#000000" stroke="none" transform="matrix(1,0,0,1,303.3418,178.5809)" style="fill-opacity: 1; pointer-events: visible;" class="DimensionMark"><polygon points="-5,-5,0,0,5,-5"/></g><g id="mark4" fill="#000000" stroke="none" transform="matrix(1,0,0,1,0,89.2904)" style="fill-opacity: 1; pointer-events: visible;" class="DimensionMark"><polygon points="5,5,0,0,5,-5"/></g></g><g transform="matrix(1,0,0,1,267.8713,89.2905)" class="SpaceDimensionsLabel"><g id="NameLabel" style="display: block;" class="TextLabel NameLabel"><text x="0" y="0em" fill="#000000" stroke="none" style="font-family: Verdana; font-size: 33px; fill-opacity: 1; cursor: default;">ULKOTILA</text></g><g id="DimensionMeasureLabel" transform="matrix(1,0,0,1,-35.375,40.0468)" style="display: none;" class="TextLabel DimensionMeasureLabel"><text x="0" y="0em" fill="#000000" stroke="none" style="font-family: Verdana; font-size: 33px; fill-opacity: 1; cursor: default;">19'11" x 5'10"</text><text x="0" y="0"/></g></g></g></g><g id="e6a353bc-7f8b-4996-8128-f9d20a232cd6" fill="#ffffff" stroke="#ffffff" style="fill-opacity: 1; stroke-opacity: 1; stroke-width: 0.2;" class="Space Kitchen Kitchenette"><polygon points="299.16,559.36 93.40,559.36 93.40,265.37 299.16,265.37 "/><g transform="matrix(1,0,0,1,93.3974,265.3704)" class="Dimension"><g transform="matrix(1,0,0,1,0,0)" style="display: none;" class="Visual"><g id="mark1" fill="#000000" stroke="none" transform="matrix(1,0,0,1,102.8807,0)" style="fill-opacity: 1; pointer-events: visible;" class="DimensionMark"><polygon points="-5,5,0,0,5,5"/></g><g id="mark2" fill="#000000" stroke="none" transform="matrix(1,0,0,1,205.7614,146.9935)" style="fill-opacity: 1; pointer-events: visible;" class="DimensionMark"><polygon points="-5,-5,0,0,-5,5"/></g><g id="mark3" fill="#000000" stroke="none" transform="matrix(1,0,0,1,102.8807,293.987)" style="fill-opacity: 1; pointer-events: visible;" class="DimensionMark"><polygon points="-5,-5,0,0,5,-5"/></g><g id="mark4" fill="#000000" stroke="none" transform="matrix(1,0,0,1,0,146.9935)" style="fill-opacity: 1; pointer-events: visible;" class="DimensionMark"><polygon points="5,5,0,0,5,-5"/></g></g><g transform="matrix(1,0,0,1,119.2197,165.5605)" class="SpaceDimensionsLabel"><g id="NameLabel" style="display: block;" class="TextLabel NameLabel"><text x="0" y="0em" fill="#000000" stroke="none" style="font-family: Verdana; font-size: 33px; fill-opacity: 1; cursor: default;">KK</text></g><g id="DimensionMeasureLabel" transform="matrix(1,0,0,1,-64.1797,40.7344)" style="display: none;" class="TextLabel DimensionMeasureLabel"><text x="0" y="0em" fill="#000000" stroke="none" style="font-family: Verdana; font-size: 33px; fill-opacity: 1; cursor: default;">6'9" x 9'8"</text><text x="0" y="0"/></g></g></g></g><g id="b547487a-58d6-4744-bb69-1adb79292ac8" fill="#ffffff" stroke="#ffffff" style="fill-opacity: 1; stroke-opacity: 1; stroke-width: 0.2;" class="Space LivingRoom"><polygon points="693.66,743.25 299.16,743.25 299.16,265.37 693.66,265.37 "/><g transform="matrix(1,0,0,1,299.1588,265.3704)" class="Dimension"><g transform="matrix(1,0,0,1,0,0)" style="display: none;" class="Visual"><g id="mark1" fill="#000000" stroke="none" transform="matrix(1,0,0,1,197.2513,0)" style="fill-opacity: 1; pointer-events: visible;" class="DimensionMark"><polygon points="-5,5,0,0,5,5"/></g><g id="mark2" fill="#000000" stroke="none" transform="matrix(1,0,0,1,394.5025,238.938)" style="fill-opacity: 1; pointer-events: visible;" class="DimensionMark"><polygon points="-5,-5,0,0,-5,5"/></g><g id="mark3" fill="#000000" stroke="none" transform="matrix(1,0,0,1,197.2513,477.8761)" style="fill-opacity: 1; pointer-events: visible;" class="DimensionMark"><polygon points="-5,-5,0,0,5,-5"/></g><g id="mark4" fill="#000000" stroke="none" transform="matrix(1,0,0,1,0,238.938)" style="fill-opacity: 1; pointer-events: visible;" class="DimensionMark"><polygon points="5,5,0,0,5,-5"/></g></g><g transform="matrix(1,0,0,1,171.782,247.0882)" class="SpaceDimensionsLabel"><g id="NameLabel" style="display: block;" class="TextLabel NameLabel"><text x="0" y="0em" fill="#000000" stroke="none" style="font-family: Verdana; font-size: 33px; fill-opacity: 1; cursor: default;">OH</text></g><g id="DimensionMeasureLabel" transform="matrix(1,0,0,1,-93.414,40.0156)" style="display: none;" class="TextLabel DimensionMeasureLabel"><text x="0" y="0em" fill="#000000" stroke="none" style="font-family: Verdana; font-size: 33px; fill-opacity: 1; cursor: default;">12'11" x 15'8"</text><text x="0" y="0"/></g></g></g></g><g id="5716eaa3-6b62-4bbd-a8a8-ff0c51317c36" fill="#ffffff" stroke="#ffffff" style="fill-opacity: 1; stroke-opacity: 1; stroke-width: 0.2;" class="Space Entry Lobby"><polygon points="411.73,1185.39 93.40,1185.39 93.40,1048.43 299.16,1048.43 299.16,743.25 411.73,743.25 "/><g transform="matrix(1,0,0,1,93.3974,743.2465)" class="Dimension"><g transform="matrix(1,0,0,1,0,0)" style="display: none;" class="Visual"><g id="mark1" fill="#000000" stroke="none" transform="matrix(1,0,0,1,205.7614,0)" style="fill-opacity: 1; pointer-events: visible;" class="DimensionMark"><polygon points="-5,5,0,0,5,5"/></g><g id="mark2" fill="#000000" stroke="none" transform="matrix(1,0,0,1,318.3376,305.1865)" style="fill-opacity: 1; pointer-events: visible;" class="DimensionMark"><polygon points="-5,-5,0,0,-5,5"/></g><g id="mark3" fill="#000000" stroke="none" transform="matrix(1,0,0,1,205.7614,442.1458)" style="fill-opacity: 1; pointer-events: visible;" class="DimensionMark"><polygon points="-5,-5,0,0,5,-5"/></g><g id="mark4" fill="#000000" stroke="none" transform="matrix(1,0,0,1,0,305.1865)" style="fill-opacity: 1; pointer-events: visible;" class="DimensionMark"><polygon points="5,5,0,0,5,-5"/></g></g><g transform="matrix(1,0,0,1,217.9775,384.5208)" class="SpaceDimensionsLabel"><g id="NameLabel" style="display: block;" class="TextLabel NameLabel"><text x="0" y="0em" fill="#000000" stroke="none" style="font-family: Verdana; font-size: 33px; fill-opacity: 1; cursor: default;">ET</text></g><g id="DimensionMeasureLabel" transform="matrix(1,0,0,1,-86.9297,40.2031)" style="display: none;" class="TextLabel DimensionMeasureLabel"><text x="0" y="0em" fill="#000000" stroke="none" style="font-family: Verdana; font-size: 33px; fill-opacity: 1; cursor: default;">10'5" x 14'6"</text><text x="0" y="0"/></g></g></g></g><g id="526525cc-281d-4228-8a71-356b634101a3" fill="#ffffff" stroke="#ffffff" style="fill-opacity: 1; stroke-opacity: 1; stroke-width: 0.2;" class="Space Bedroom"><polygon points="693.66,1185.39 421.73,1185.39 421.73,757.25 693.66,757.25 "/><g transform="matrix(1,0,0,1,421.7349,757.2465)" class="Dimension"><g transform="matrix(1,0,0,1,0,0)" style="display: none;" class="Visual"><g id="mark1" fill="#000000" stroke="none" transform="matrix(1,0,0,1,135.9632,0)" style="fill-opacity: 1; pointer-events: visible;" class="DimensionMark"><polygon points="-5,5,0,0,5,5"/></g><g id="mark2" fill="#000000" stroke="none" transform="matrix(1,0,0,1,271.9264,214.0729)" style="fill-opacity: 1; pointer-events: visible;" class="DimensionMark"><polygon points="-5,-5,0,0,-5,5"/></g><g id="mark3" fill="#000000" stroke="none" transform="matrix(1,0,0,1,135.9632,428.1458)" style="fill-opacity: 1; pointer-events: visible;" class="DimensionMark"><polygon points="-5,-5,0,0,5,-5"/></g><g id="mark4" fill="#000000" stroke="none" transform="matrix(1,0,0,1,0,214.0729)" style="fill-opacity: 1; pointer-events: visible;" class="DimensionMark"><polygon points="5,5,0,0,5,-5"/></g></g><g transform="matrix(1,0,0,1,111.8349,200.3053)" class="SpaceDimensionsLabel"><g id="NameLabel" style="display: block;" class="TextLabel NameLabel"><text x="0" y="0em" fill="#000000" stroke="none" style="font-family: Verdana; font-size: 33px; fill-opacity: 1; cursor: default;">MH</text></g><g id="DimensionMeasureLabel" transform="matrix(1,0,0,1,-82.0078,40.2188)" style="display: none;" class="TextLabel DimensionMeasureLabel"><text x="0" y="0em" fill="#000000" stroke="none" style="font-family: Verdana; font-size: 33px; fill-opacity: 1; cursor: default;">8'11" x 14'1"</text><text x="0" y="0"/></g></g></g></g><g id="1403c106-d08c-438a-9326-de847f961dc8" fill="#ffffff" stroke="#ffffff" style="fill-opacity: 1; stroke-opacity: 1; stroke-width: 0.2;" class="Space Undefined"><polygon points="289.16,1038.43 156.36,1038.43 156.36,1008.07 93.40,1008.07 93.40,763.73 190.40,763.73 190.40,757.25 289.16,757.25 "/><g transform="matrix(1,0,0,1,93.3974,757.2465)" class="Dimension"><g transform="matrix(1,0,0,1,0,0)" style="display: none;" class="Visual"><g id="mark1" fill="#000000" stroke="none" transform="matrix(1,0,0,1,97.8807,0)" style="fill-opacity: 1; pointer-events: visible;" class="DimensionMark"><polygon points="-5,5,0,0,5,5"/></g><g id="mark2" fill="#000000" stroke="none" transform="matrix(1,0,0,1,195.7614,140.5932)" style="fill-opacity: 1; pointer-events: visible;" class="DimensionMark"><polygon points="-5,-5,0,0,-5,5"/></g><g id="mark3" fill="#000000" stroke="none" transform="matrix(1,0,0,1,97.8807,281.1865)" style="fill-opacity: 1; pointer-events: visible;" class="DimensionMark"><polygon points="-5,-5,0,0,5,-5"/></g><g id="mark4" fill="#000000" stroke="none" transform="matrix(1,0,0,1,0,140.5932)" style="fill-opacity: 1; pointer-events: visible;" class="DimensionMark"><polygon points="5,5,0,0,5,-5"/></g></g><g transform="matrix(1,0,0,1,98.263,157.9091)" class="SpaceDimensionsLabel"><g id="NameLabel" style="display: block;" class="TextLabel NameLabel"><text x="0" y="0em" fill="#000000" stroke="none" style="font-family: Verdana; font-size: 33px; fill-opacity: 1; cursor: default;">UNDEFINED</text></g><g id="DimensionMeasureLabel" transform="matrix(1,0,0,1,12.1485,40.1875)" style="display: none;" class="TextLabel DimensionMeasureLabel"><text x="0" y="0em" fill="#000000" stroke="none" style="font-family: Verdana; font-size: 33px; fill-opacity: 1; cursor: default;">6'5" x 9'3"</text><text x="0" y="0"/></g></g></g></g><g id="fdfedc35-33da-49ed-bc17-48772456c0c7" fill="#ffffff" stroke="#ffffff" style="fill-opacity: 1; stroke-opacity: 1; stroke-width: 0.2;" class="Space Undefined"><polygon points="281.87,747.25 104.34,747.25 104.34,575.36 281.87,575.36 "/><g transform="matrix(1,0,0,1,104.3354,575.3574)" class="Dimension"><g transform="matrix(1,0,0,1,0,0)" style="display: none;" class="Visual"><g id="mark1" fill="#000000" stroke="none" transform="matrix(1,0,0,1,88.7681,0)" style="fill-opacity: 1; pointer-events: visible;" class="DimensionMark"><polygon points="-5,5,0,0,5,5"/></g><g id="mark2" fill="#000000" stroke="none" transform="matrix(1,0,0,1,177.5363,85.9445)" style="fill-opacity: 1; pointer-events: visible;" class="DimensionMark"><polygon points="-5,-5,0,0,-5,5"/></g><g id="mark3" fill="#000000" stroke="none" transform="matrix(1,0,0,1,88.7681,171.8891)" style="fill-opacity: 1; pointer-events: visible;" class="DimensionMark"><polygon points="-5,-5,0,0,5,-5"/></g><g id="mark4" fill="#000000" stroke="none" transform="matrix(1,0,0,1,0,85.9445)" style="fill-opacity: 1; pointer-events: visible;" class="DimensionMark"><polygon points="5,5,0,0,5,-5"/></g></g><g transform="matrix(1,0,0,1,88.7682,85.9446)" class="SpaceDimensionsLabel"><g id="NameLabel" style="display: block;" class="TextLabel NameLabel"><text x="0" y="0em" fill="#000000" stroke="none" style="font-family: Verdana; font-size: 33px; fill-opacity: 1; cursor: default;">UNDEFINED</text></g><g id="DimensionMeasureLabel" transform="matrix(1,0,0,1,1.664,40.1875)" style="display: none;" class="TextLabel DimensionMeasureLabel"><text x="0" y="0em" fill="#000000" stroke="none" style="font-family: Verdana; font-size: 33px; fill-opacity: 1; cursor: default;">5'10" x 5'8"</text><text x="0" y="0"/></g></g></g></g><g id="Wall" fill="#000000" stroke="#000000" style="fill-opacity: 1; stroke-opacity: 1; stroke-width: 0.2;" class="Wall External"><polygon points="93.40,265.37 693.66,265.37 727.08,226.37 76.40,226.37 "/><g id="Window" fill="#f0f0ff" stroke="#000000" style="fill-opacity: 1; stroke-width: 1; stroke-opacity: 1;" class="Window Regular"><polygon points="296.29,265.37 485.62,265.37 485.62,226.37 296.29,226.37 "/><g id="Glass" class="Glass"><polygon points="296.29,265.37 485.62,265.37 485.62,226.37 296.29,226.37 "/></g><g id="Panel" class="Panel"><line x1="303.7858301751616" x2="478.11574320372415" y1="245.87041458578364" y2="245.87041458578364"/><line x1="303.7858301751616" x2="303.7858301751616" y1="265.37041458578364" y2="226.37041458578364"/><line x1="478.11574320372415" x2="478.11574320372415" y1="265.37041458578364" y2="226.37041458578364"/></g></g><g id="Door" fill="#ffffff" stroke="#000000" style="fill-opacity: 1; stroke-width: 1; stroke-opacity: 1;" class="Door Swing Opposite"><polygon points="521.74,265.37 622.07,265.37 622.07,226.37 521.74,226.37 "/><g id="Threshold" class="Threshold"><polygon points="521.74,265.37 622.07,265.37 622.07,226.37 521.74,226.37 "/></g><g id="Panel" fill="none" style="" class="Panel Left Negative"><g id="PanelArea" fill="none" stroke="none" style="" class="PanelArea"><polygon points="521.74,265.37 622.07,265.37 622.07,226.37 521.74,226.37 "/></g><path d="M521.74,265.37 q0.00,100.34 100.34,100.34 l0.00,-100.34Z"/></g><g id="Panel" fill="none" style="" class="Panel Right Positive"><g id="PanelArea" fill="none" stroke="none" style="" class="PanelArea"><polygon points="521.74,265.37 622.07,265.37 622.07,226.37 521.74,226.37 "/></g><path d="M521.74,226.37 q0.00,-100.34 100.34,-100.34 l0.00,100.34Z"/></g></g></g><g id="Wall" fill="#000000" stroke="#000000" style="fill-opacity: 1; stroke-opacity: 1; stroke-width: 0.2;" class="Wall External"><polygon points="727.08,226.37 727.08,1201.39 693.66,1185.39 693.66,265.37 "/><g id="Window" fill="#f0f0ff" stroke="#000000" style="fill-opacity: 1; stroke-width: 1; stroke-opacity: 1;" class="Window Regular"><polygon points="727.08,826.16 727.08,1014.70 693.66,1014.70 693.66,826.16 "/><g id="Glass" class="Glass"><polygon points="727.08,826.16 727.08,1014.70 693.66,1014.70 693.66,826.16 "/></g><g id="Panel" class="Panel"><line x1="710.3711166947496" x2="710.3711166947496" y1="833.6561866415084" y2="1007.1986040855578"/><line x1="727.0809071531613" x2="693.6613262363379" y1="833.6561866415084" y2="833.6561866415084"/><line x1="727.0809071531613" x2="693.6613262363379" y1="1007.1986040855578" y2="1007.1986040855578"/></g></g></g><g id="Wall" fill="#000000" stroke="#000000" style="fill-opacity: 1; stroke-opacity: 1; stroke-width: 0.2;" class="Wall External"><polygon points="727.08,1201.39 76.40,1201.39 93.40,1185.39 693.66,1185.39 "/><g id="Door" fill="#ffffff" stroke="#000000" style="fill-opacity: 1; stroke-width: 1; stroke-opacity: 1;" class="Door Swing Opposite"><polygon points="260.31,1201.39 162.63,1201.39 162.63,1185.39 260.31,1185.39 "/><g id="Threshold" class="Threshold"><polygon points="260.31,1201.39 162.63,1201.39 162.63,1185.39 260.31,1185.39 "/></g><g id="Panel" fill="none" style="" class="Panel Left Negative"><g id="PanelArea" fill="none" stroke="none" style="" class="PanelArea"><polygon points="260.31,1201.39 162.63,1201.39 162.63,1185.39 260.31,1185.39 "/></g><path d="M260.31,1201.39 q0.00,97.69 -97.69,97.69 l0.00,-97.69Z"/></g><g id="Panel" fill="none" style="" class="Panel Right Positive"><g id="PanelArea" fill="none" stroke="none" style="" class="PanelArea"><polygon points="260.31,1201.39 162.63,1201.39 162.63,1185.39 260.31,1185.39 "/></g><path d="M260.31,1185.39 q0.00,-97.69 -97.69,-97.69 l0.00,97.69Z"/></g></g></g><g id="Wall" fill="#000000" stroke="#000000" style="fill-opacity: 1; stroke-opacity: 1; stroke-width: 0.2;" class="Wall"><polygon points="411.73,1201.39 411.73,743.25 421.73,757.25 421.73,1201.39 "/><g id="Door" fill="#ffffff" stroke="#000000" style="fill-opacity: 1; stroke-width: 1; stroke-opacity: 1;" class="Door Swing Beside"><polygon points="411.73,1118.61 411.73,1028.82 421.73,1028.82 421.73,1118.61 "/><g id="Threshold" class="Threshold"><polygon points="411.73,1118.61 411.73,1028.82 421.73,1028.82 421.73,1118.61 "/></g><g id="Panel" fill="none" style="" class="Panel Left Positive"><g id="PanelArea" fill="none" stroke="none" style="" class="PanelArea"><polygon points="411.73,1118.61 411.73,1028.82 421.73,1028.82 421.73,1118.61 "/></g><path d="M421.73,1028.82 q89.79,0.00 89.79,89.79 l-89.79,0.00Z"/></g></g><g id="Window" fill="#f0f0ff" stroke="#000000" style="fill-opacity: 1; stroke-width: 1; stroke-opacity: 1;" class="Window Regular"><polygon points="411.73,789.37 411.73,758.24 421.73,758.24 421.73,789.37 "/><g id="Glass" class="Glass"><polygon points="411.73,789.37 411.73,758.24 421.73,758.24 421.73,789.37 "/></g><g id="Panel" class="Panel"><line x1="416.73491001718384" x2="416.73491001718384" y1="781.8671870454073" y2="765.7350683902557"/><line x1="411.73491001718384" x2="421.73491001718384" y1="781.8671870454073" y2="781.8671870454073"/><line x1="411.73491001718384" x2="421.73491001718384" y1="765.7350683902557" y2="765.7350683902557"/></g></g></g><g id="Wall" fill="#000000" stroke="#000000" style="fill-opacity: 1; stroke-opacity: 1; stroke-width: 0.2;" class="Wall"><polygon points="421.73,757.25 727.08,757.25 727.08,743.25 411.73,743.25 "/><g id="Window" fill="#f0f0ff" stroke="#000000" style="fill-opacity: 1; stroke-width: 1; stroke-opacity: 1;" class="Window Regular"><polygon points="422.30,757.25 447.13,757.25 447.13,743.25 422.30,743.25 "/><g id="Glass" class="Glass"><polygon points="422.30,757.25 447.13,757.25 447.13,743.25 422.30,743.25 "/></g><g id="Panel" class="Panel"><line x1="429.7965388312718" x2="439.6292446731463" y1="750.246477059613" y2="750.246477059613"/><line x1="429.7965388312718" x2="429.7965388312718" y1="757.246477059613" y2="743.246477059613"/><line x1="439.62924467314633" x2="439.62924467314633" y1="757.246477059613" y2="743.246477059613"/></g></g></g><g id="Wall" fill="#000000" stroke="#000000" style="fill-opacity: 1; stroke-opacity: 1; stroke-width: 0.2;" class="Wall"><polygon points="76.40,1048.43 156.36,1048.43 156.36,1008.07 76.40,1008.07 "/></g><g id="Wall" fill="#000000" stroke="#000000" style="fill-opacity: 1; stroke-opacity: 1; stroke-width: 0.2;" class="Wall"><polygon points="156.36,1048.43 299.16,1048.43 289.16,1038.43 156.36,1038.43 "/></g><g id="Wall" fill="#000000" stroke="#000000" style="fill-opacity: 1; stroke-opacity: 1; stroke-width: 0.2;" class="Wall"><polygon points="281.87,575.36 76.40,575.36 93.40,559.36 299.16,559.36 "/></g><g id="Wall" fill="#000000" stroke="#000000" style="fill-opacity: 1; stroke-opacity: 1; stroke-width: 0.2;" class="Wall"><polygon points="93.40,763.73 190.40,763.73 190.40,747.25 76.40,747.25 "/></g><g id="Wall" fill="#000000" stroke="#000000" style="fill-opacity: 1; stroke-opacity: 1; stroke-width: 0.2;" class="Wall"><polygon points="190.40,757.25 289.16,757.25 299.16,747.25 190.40,747.25 "/><g id="Door" fill="#ffffff" stroke="#000000" style="fill-opacity: 1; stroke-width: 1; stroke-opacity: 1;" class="Door Swing Beside"><polygon points="201.24,757.25 266.98,757.25 266.98,747.25 201.24,747.25 "/><g id="Threshold" class="Threshold"><polygon points="201.24,757.25 266.98,757.25 266.98,747.25 201.24,747.25 "/></g><g id="Panel" fill="none" style="" class="Panel Left Negative"><g id="PanelArea" fill="none" stroke="none" style="" class="PanelArea"><polygon points="201.24,757.25 266.98,757.25 266.98,747.25 201.24,747.25 "/></g><path d="M201.24,757.25 q0.00,65.75 65.75,65.75 l0.00,-65.75Z"/></g></g></g><g id="Wall" fill="#000000" stroke="#000000" style="fill-opacity: 1; stroke-opacity: 1; stroke-width: 0.2;" class="Wall External"><polygon points="76.40,575.36 76.40,226.37 93.40,265.37 93.40,575.36 "/></g><g id="Wall" fill="#000000" stroke="#000000" style="fill-opacity: 1; stroke-opacity: 1; stroke-width: 0.2;" class="Wall External"><polygon points="76.40,1201.39 76.40,747.25 93.40,747.25 93.40,1185.39 "/></g><g id="Wall" fill="#000000" stroke="#000000" style="fill-opacity: 1; stroke-opacity: 1; stroke-width: 0.2;" class="Wall External"><polygon points="76.40,747.25 76.40,575.36 104.34,575.36 104.34,747.25 "/></g><g id="Wall" fill="#000000" stroke="#000000" style="fill-opacity: 1; stroke-opacity: 1; stroke-width: 0.2;" class="Wall"><polygon points="299.16,1048.43 299.16,747.25 289.16,757.25 289.16,1038.43 "/><g id="Door" fill="#ffffff" stroke="#000000" style="fill-opacity: 1; stroke-width: 1; stroke-opacity: 1;" class="Door Swing Beside"><polygon points="299.16,927.11 299.16,838.84 289.16,838.84 289.16,927.11 "/><g id="Threshold" class="Threshold"><polygon points="299.16,927.11 299.16,838.84 289.16,838.84 289.16,927.11 "/></g><g id="Panel" fill="none" style="" class="Panel Left Negative"><g id="PanelArea" fill="none" stroke="none" style="" class="PanelArea"><polygon points="299.16,927.11 299.16,838.84 289.16,838.84 289.16,927.11 "/></g><path d="M299.16,927.11 q88.27,0.00 88.27,-88.27 l-88.27,0.00Z"/></g></g></g><g id="Wall" fill="#000000" stroke="#000000" style="fill-opacity: 1; stroke-opacity: 1; stroke-width: 0.2;" class="Wall"><polygon points="299.16,747.25 299.16,559.36 281.87,575.36 281.87,747.25 "/></g><g class="FixedFurniture CoatCloset" fill="#ffffff" stroke="#000000" transform="matrix(0,-1,1,0,93.3974,1185.3922)" style="fill-opacity: 1; stroke-opacity: 1; stroke-width: 1;">
        <g class="BoundaryPolygon">
            <polygon points="0.00,0.00 137.13,0.00 137.13,62.85 0.00,62.85 "/>
        </g>
        <g class="Hanger" fill="#ffffff" stroke="#9a9a9a" stroke-dasharray="5,5">
            <line x1="0" y1="31.427356913439148" x2="137.1282829612695" y2="31.427356913439148"/>
        </g>
        <g class="Direction" fill-opacity="0.9" style="display: none;">
            <polygon points="70.29,57.11 70.29,46.49 67.28,46.49 67.28,57.11 63.48,57.11 68.78,62.41 74.08,57.11 70.29,57.11 " fill="#444444"/>
        </g> 
        <g class="Name" fill-opacity="0.9" style="display: none;">
            <text transform="translate(3 12)" font-size="12" font-family="Verdana, Sans-Serif">CWH</text>
        </g>
        <desc>Width:120 Height:200 Depth:60 Elevation:0</desc>
     </g><g class="FixedFurniture ElectricalAppliance SpaceForAppliance2" fill="#ffffff" stroke="#000000" stroke-dasharray="4,4" transform="matrix(-1,0,0,-1,277.9402,1031.2878)" style="fill-opacity: 1; stroke-opacity: 1; stroke-width: 1;">
	    <g class="BoundaryPolygon"> 
		    <polygon points="0,0 60,0 60,60 0,60"/>
		</g>	
	    <g class="electricitySign" fill="none">
            <path d="M0,0,30.1,39.8V19.4L59.9,60"/>
		</g>
        <g class="Direction" fill-opacity="0.9" style="display: none;">
            <polygon points="32.009 55.197 32.009 44.581 29 44.581 29 55.197 25.197 55.197 30.5 60 35.803 55.197 32.009 55.197" fill="#444444"/>
        </g> 
        <g class="Name" fill-opacity="0.9" stroke-dasharray="none" style="display: none;">
            <text transform="translate(3 12)" font-size="12" font-family="Verdana, Sans-Serif">SFA</text>
        </g>
        <desc>Width:60 Height:90 Depth:60 Elevation:0</desc>
	</g><g id="FixedFurnitureSet" transform="matrix(0,-1,1,0,93.3973,980.235)" class="FixedFurnitureSet" fill="#ffffff" stroke="#fc0fc0" style="fill-opacity: 0.4; stroke-opacity: 0.9; stroke-width: 1.5;"><g class="FixedFurniture BaseCabinet" fill="#ffffff" stroke="#000000" transform="matrix(1,0,0,1,0,0)" style="fill-opacity: 1; stroke-opacity: 1; stroke-width: 1;">
        <g class="BoundaryPolygon">
            <polygon points="0.00,0.00 60.00,0.00 60.00,44.18 0.00,44.18 "/>
        </g>
        <g class="Direction" fill-opacity="0.9" style="display: none;">
            <polygon points="32.01,40.64 32.01,30.03 29.00,30.03 29.00,40.64 25.20,40.64 30.50,45.44 35.80,40.64 32.01,40.64 " fill="#444444"/>
        </g> 
        <g class="Name" fill-opacity="0.9" style="display: none;">
            <text transform="translate(3 12)" font-size="12" font-family="Verdana, Sans-Serif">CB</text>
        </g>
        <desc>Width:60 Height:5 Depth:60 Elevation:105</desc>
    </g><g class="FixedFurniture Sink" fill="#ffffff" stroke="#000000" transform="matrix(1,0,0,1,0,0)" style="fill-opacity: 1; stroke-opacity: 1; stroke-width: 1;">
        <g class="BoundaryPolygon" fill="none" stroke="none">
        <polygon points="0.00,0.00 60.00,0.00 60.00,44.18 0.00,44.18 "/>
        </g>
        <g class="InnerPolygon">
            <polygon points="5.00,9.70 55.00,9.70 55.00,40.28 5.00,40.28 "/>
        </g>
        <g class="OuterDrain" stroke-width="0.8">
            <circle cx="30" cy="23.708889976538973" r="3.5"/>
        </g>
        <g class="InnerDrain" stroke-width="0.8">
            <circle cx="30" cy="23.708889976538973" r="2"/>
        </g>
        <g class="Faucet">
            <polygon points="27.00,3.68 33.00,3.68 33.00,17.68 27.00,17.68 "/>
        </g>
        <g class="Direction" fill-opacity="0.9" style="display: none;">
            <polygon points="32.01,40.64 32.01,30.03 29.00,30.03 29.00,40.64 25.20,40.64 30.50,45.44 35.80,40.64 32.01,40.64 " fill="#444444"/>
        </g> 
        <g class="Name" fill-opacity="0.9" style="display: none;">
            <text transform="translate(3 12)" font-size="12" font-family="Verdana, Sans-Serif">SINK</text>
        </g>
        <desc>Width:60 Height:90 Depth:60 Elevation:0</desc>
    </g></g><g class="FixedFurniture Toilet" fill="#ffffff" stroke="#000000" transform="matrix(0,-1,0.9443,0,100.1828,903.6219)" style="fill-opacity: 1; stroke-opacity: 1; stroke-width: 1;">
	   <g class="BoundaryPolygon" fill="none" stroke="none"> 
            <polygon points="0,0 41,0 41,71 0,71"/>
		</g>
        <g class="InnerPolygon">
            <rect x="0.502" y="0.5" width="39.989" height="17.98"/>
            <path d="M40.491,44.237S41.619,70.5,20.907,70.5C-.523,70.5.6,44.237.6,44.237L.5,18.48H40.491Z"/>
            <rect x="17.318" y="7.975" width="6.357" height="3.03"/>
        </g>
        <desc>Width:41 Height:85 Depth:71 Elevation:0</desc>
    </g><g class="FixedFurniture Shower" fill="#ffffff" stroke="#000000" transform="matrix(0,-1,1,0,93.3973,821.5633)" style="fill-opacity: 1; stroke-opacity: 1; stroke-width: 1;"> 
	    <g class="BoundaryPolygon" fill="none" stroke="none">
            <polygon points="0,0 32,0 32,19 0,19"/>
        </g>
        <g class="InnerPolygon"> 
			<rect x="3.7" y="0.5" width="11.2" height="6.1"/>
			<rect x="17.6" y="0.5" width="11.2" height="6.1"/>
			<rect x="28.7" y="0.5" width="3.4" height="6.1"/>
			<rect x="0.5" y="0.5" width="3.2" height="6.1"/>
			<path d="M14.9,8.5c0,1.5-0.4,3.3-1.6,5    c-0.4,0.6-1,1.1-1.1,1.7c-0.2,1.1,0.3,2.8,2.5,3.2c0.5,0.1,1.3,0.1,1.6,0.1h-0.1c0.3,0,1.1,0,1.6-0.1c2.2-0.4,2.7-2.1,2.5-3.2    c-0.1-0.6-0.7-1.1-1.1-1.7c-1.2-1.7-1.6-3.5-1.6-5"/>
			<path d="M12.2,15.3c0.1,0.2,1.6,1.9,4.2,1.9 c2.4-0.1,3.7-1.7,3.9-1.9"/>
			<path d="M14.9,0.5h2.7v8c-0.9,0-1.8,0-2.7,0l0,0 C14.9,5.9,14.9,3.2,14.9,0.5z"/>
		</g>
	    <g class="Indicator"> 
			<path d="M3.7,3.6C5,3.1,5.2,3,5.2,3 c0,1.1,0,0,0,1.1C5.2,4.1,5.1,4.1,3.7,3.6"/>
			<path d="M28.7,3.6 C27.4,3.1,27.2,3,27.2,3c0,1.1,0,0,0,1.1C27.2,4.1,27.3,4.1,28.7,3.6"/>	
		</g>
        <desc>Width:32 Height:97 Depth:19 Elevation:135</desc>
	</g><g class="FixedFurniture SaunaBenchHigh" fill="#ffffff" stroke="#000000" transform="matrix(1,0,0,1,104.3354,575.3616)" style="fill-opacity: 1; stroke-opacity: 1; stroke-width: 1;">
        <g class="BoundaryPolygon">
            <polygon points="0.00,0.00 177.53,0.00 177.53,70.28 0.00,70.28 "/> 
        </g>
        <g class="Bench" stroke="#9a9a9a" stroke-width="0.5">
            <line x1="0" y1="4.685617579534123" x2="177.52744562689804" y2="4.685617579534123"/>
            <line x1="0" y1="9.371235159068245" x2="177.52744562689804" y2="9.371235159068245"/>
            <line x1="0" y1="14.056852738602371" x2="177.52744562689804" y2="14.056852738602371"/>
            <line x1="0" y1="18.74247031813649" x2="177.52744562689804" y2="18.74247031813649"/>
            <line x1="0" y1="23.428087897670615" x2="177.52744562689804" y2="23.428087897670615"/>
            <line x1="0" y1="28.113705477204743" x2="177.52744562689804" y2="28.113705477204743"/>
            <line x1="0" y1="32.79932305673887" x2="177.52744562689804" y2="32.79932305673887"/>
            <line x1="0" y1="37.48494063627298" x2="177.52744562689804" y2="37.48494063627298"/>
            <line x1="0" y1="42.170558215807105" x2="177.52744562689804" y2="42.170558215807105"/>
            <line x1="0" y1="46.85617579534123" x2="177.52744562689804" y2="46.85617579534123"/>
            <line x1="0" y1="51.54179337487535" x2="177.52744562689804" y2="51.54179337487535"/>
            <line x1="0" y1="56.227410954409486" x2="177.52744562689804" y2="56.227410954409486"/>
            <line x1="0" y1="60.9130285339436" x2="177.52744562689804" y2="60.9130285339436"/>
            <line x1="0" y1="65.59864611347774" x2="177.52744562689804" y2="65.59864611347774"/>
        </g>
         <g class="Direction" fill-opacity="0.9" style="display: none;">
            <polygon points="91.56,64.02 91.56,53.41 88.55,53.41 88.55,64.02 84.74,64.02 90.05,69.33 95.35,64.02 91.56,64.02 " fill="#444444"/>
        </g> 
        <g class="Name" fill-opacity="0.9" style="display: none;">
            <text transform="translate(3 12)" font-size="12" font-family="Verdana, Sans-Serif">SB_HIGH</text>
        </g>
        <desc>Width:185 Height:5 Depth:60 Elevation:105</desc>
    </g><g class="FixedFurniture SaunaBenchMid" fill="#ffffff" stroke="#000000" transform="matrix(1,0,0,1,104.2517,645.6416)" style="fill-opacity: 1; stroke-opacity: 1; stroke-width: 1;">
        <g class="BoundaryPolygon">
            <polygon points="0.00,0.00 177.62,0.00 177.62,38.42 0.00,38.42 "/>
        </g>
        <g class="Bench" stroke="#9a9a9a" stroke-width="0.5">
            <line x1="0" y1="3.8417805585690505" x2="177.61894628797998" y2="3.8417805585690505"/>
            <line x1="0" y1="7.683561117138101" x2="177.61894628797998" y2="7.683561117138101"/>
            <line x1="0" y1="11.525341675707153" x2="177.61894628797998" y2="11.525341675707153"/>
            <line x1="0" y1="15.367122234276202" x2="177.61894628797998" y2="15.367122234276202"/>
            <line x1="0" y1="19.20890279284525" x2="177.61894628797998" y2="19.20890279284525"/>
            <line x1="0" y1="23.050683351414307" x2="177.61894628797998" y2="23.050683351414307"/>
            <line x1="0" y1="26.89246390998335" x2="177.61894628797998" y2="26.89246390998335"/>
            <line x1="0" y1="30.734244468552404" x2="177.61894628797998" y2="30.734244468552404"/>
            <line x1="0" y1="34.57602502712146" x2="177.61894628797998" y2="34.57602502712146"/>
        </g>
        <g class="Direction" fill-opacity="0.9" style="display: none;">
            <polygon points="90.26,33.29 90.26,22.67 87.25,22.67 87.25,33.29 83.45,33.29 88.75,38.59 94.05,33.29 90.26,33.29 " fill="#444444"/>
        </g> 
        <g class="Name" fill-opacity="0.9" style="display: none;">
            <text transform="translate(3 12)" font-size="12" font-family="Verdana, Sans-Serif">SB_MID</text>
        </g>
        <desc>Width:185 Height:5 Depth:40 Elevation:60</desc>
    </g><g class="FixedFurniture SaunaBenchLow" fill="#ffffff" stroke="#000000" transform="matrix(1,0,0,1,189.6817,684.0594)" style="fill-opacity: 1; stroke-opacity: 1; stroke-width: 1;">
        <g class="BoundaryPolygon">
            <polygon points="0.00,0.00 92.19,0.00 92.19,35.25 0.00,35.25 "/>
        </g>
        <g class="Bench" stroke="#9a9a9a" stroke-width="0.5">
            <line x1="0" y1="3.525341675707149" x2="92.18664581073214" y2="3.525341675707149"/>
            <line x1="0" y1="7.050683351414298" x2="92.18664581073214" y2="7.050683351414298"/>
            <line x1="0" y1="10.576025027121448" x2="92.18664581073214" y2="10.576025027121448"/>
            <line x1="0" y1="14.101366702828596" x2="92.18664581073214" y2="14.101366702828596"/>
            <line x1="0" y1="17.626708378535742" x2="92.18664581073214" y2="17.626708378535742"/>
            <line x1="0" y1="21.152050054242896" x2="92.18664581073214" y2="21.152050054242896"/>
            <line x1="0" y1="24.677391729950035" x2="92.18664581073214" y2="24.677391729950035"/>
            <line x1="0" y1="28.20273340565719" x2="92.18664581073214" y2="28.20273340565719"/>
            <line x1="0" y1="31.72807508136435" x2="92.18664581073214" y2="31.72807508136435"/>
        </g>
        <g class="Direction" fill-opacity="0.9" style="display: none;">
            <polygon points="47.67,30.54 47.67,19.93 44.66,19.93 44.66,30.54 40.86,30.54 46.16,35.85 51.47,30.54 47.67,30.54 " fill="#444444"/>
        </g> 
        <g class="Name" fill-opacity="0.9" style="display: none;">
            <text transform="translate(3 12)" font-size="12" font-family="Verdana, Sans-Serif">SB_LOW</text>
        </g>
        <desc>Width:91 Height:5 Depth:40 Elevation:30</desc>
    </g><g class="FixedFurniture ElectricalAppliance SaunaStove" fill="#ffffff" stroke="#000000" transform="matrix(-0.8366,0,0,-0.8312,166.7042,737.5648)" style="fill-opacity: 1; stroke-opacity: 1; stroke-width: 1;"> 
	   <g class="BoundaryPolygon"> 
		    <polygon points="0,0 60,0 60,35 0,35"/>
		</g>
	    <g class="electricitySign" fill="none">
		    <polyline points="0 35 39.7 17.5 21.4 17.5 60 0"/>
		</g>
        <g class="Direction" fill-opacity="0.9" style="display: none;">
            <polygon points="31.509 29.697 31.509 19.081 28.5 19.081 28.5 29.697 24.697 29.697 30 35 35.303 29.697 31.509 29.697" fill="#444444"/>
        </g> 
        <g class="Name" fill-opacity="0.9" style="display: none;">
            <text transform="translate(3 12)" font-size="12" font-family="Verdana, Sans-Serif">SS</text>
        </g>
        <desc>Width:60 Height:60 Depth:35 Elevation:20</desc>
	</g><g class="FixedFurniture ElectricalAppliance Refrigerator" fill="#ffffff" stroke="#000000" transform="matrix(1,0,0,1.0745,234.3736,265.3704)" style="fill-opacity: 1; stroke-opacity: 1; stroke-width: 1;">
        <g class="BoundaryPolygon">
            <polygon points="0,0 60,0 60,60 0,60"/>
        </g>
        <g class="electricitySign" fill="none" style="display: block;">
            <path d="M0,0,30,37.1v-18L60,56.3"/>
        </g>
        <g class="Doors">
            <rect y="56" width="60" height="4"/>
        </g>
        <g class="Direction" fill-opacity="0.9" style="display: none;">
            <polygon points="32.009 55.197 32.009 44.581 29 44.581 29 55.197 25.197 55.197 30.5 60 35.803 55.197 32.009 55.197" fill="#444444"/>
        </g> 
        <g class="Name" fill-opacity="0.9" style="display: none;">
            <text transform="translate(3 12)" font-size="12" font-family="Verdana, Sans-Serif">REF</text>
        </g>
        <desc>Width:60 Height:170 Depth:60 Elevation:0</desc>
    </g><g transform="matrix(1,0,0,1,299.1587,559.3574)" class="FixedFurniture BaseCabinet" fill="#ffffff" stroke="#000000" style="fill-opacity: 1; stroke-opacity: 1; stroke-width: 1;"><desc>Width:60 Height:90 Depth:60 Elevation:0</desc><g class="BoundaryPolygon"><polygon points="0.00,0.00 -205.76,0.00 -205.76,-293.99 -64.79,-293.99 -64.79,-229.52 -139.49,-229.52 -139.49,-61.12 0.00,-61.12 0.00,0.00 "/></g></g><g class="FixedFurniture ElectricalAppliance SpaceForAppliance2" fill="#ffffff" stroke="#000000" stroke-dasharray="4,4" transform="matrix(-1.061,0,0,-1.0181,299.1587,559.3256)" style="fill-opacity: 1; stroke-opacity: 1; stroke-width: 1;">
	    <g class="BoundaryPolygon"> 
		    <polygon points="0,0 60,0 60,60 0,60"/>
		</g>	
	    <g class="electricitySign" fill="none">
            <path d="M0,0,30.1,39.8V19.4L59.9,60"/>
		</g>
        <g class="Direction" fill-opacity="0.9" style="display: none;">
            <polygon points="32.009 55.197 32.009 44.581 29 44.581 29 55.197 25.197 55.197 30.5 60 35.803 55.197 32.009 55.197" fill="#444444"/>
        </g> 
        <g class="Name" fill-opacity="0.9" stroke-dasharray="none" style="display: none;">
            <text transform="translate(3 12)" font-size="12" font-family="Verdana, Sans-Serif">SFA</text>
        </g>
        <desc>Width:60 Height:90 Depth:60 Elevation:0</desc>
	</g><g class="FixedFurniture DoubleSink" fill="#ffffff" stroke="#000000" transform="matrix(0,-1,1,0,175.5013,559.3574)" style="fill-opacity: 1; stroke-opacity: 1; stroke-width: 1;">
        <g class="BoundaryPolygon" fill="none" stroke="none">
            <polygon points="0.00,0.00 58.46,0.00 58.46,48.76 0.00,48.76 "/>
        </g>
        <g class="InnerPolygonLeft">
            <polygon points="4.18,9.90 27.98,9.90 27.98,44.62 4.18,44.62 "/>
        </g>
        <g class="InnerPolygonRight">
            <polygon points="30.49,10.00 54.29,10.00 54.29,44.70 30.49,44.70 "/>
        </g>
        <g class="OuterDrain" stroke-width="0.8">
            <circle cx="16.45371749073342" cy="26.413770631756545" r="3.5"/>
            <circle cx="41.92774710836641" cy="26.413770631756545" r="3.5"/>
        </g>
        <g class="InnerDrain" stroke-width="0.8">
            <circle cx="16.45371749073342" cy="26.413770631756545" r="2"/>
            <circle cx="41.92774710836641" cy="26.413770631756545" r="2"/>
        </g>
        <g class="Faucet">
            <polygon points="26.73,3.98 32.73,3.98 32.73,17.98 26.73,17.98 "/>
        </g>
        <g class="Direction" fill-opacity="0.9" style="display: none;">
            <polygon points="30.49,44.45 30.49,33.84 27.48,33.84 27.48,44.45 23.68,44.45 28.98,49.76 34.29,44.45 30.49,44.45 " fill="#444444"/>
        </g> 
        <g class="Name" fill-opacity="0.9" style="display: none;">
            <text transform="translate(3 12)" font-size="12" font-family="Verdana, Sans-Serif">DSINK</text>
        </g>
        <desc>Width:70 Height:90 Depth:60 Elevation:0</desc>
    </g><g class="FixedFurniture ElectricalAppliance IntegratedStove" fill="#ffffff" stroke="#000000" transform="matrix(0,-1,1,0,93.5068,469.2029)" style="fill-opacity: 1; stroke-opacity: 1; stroke-width: 1;">
        <g class="BoundaryPolygon" fill="none" stroke="none">
            <polygon points="0.00,0.00 62.00,0.00 62.00,66.18 0.00,66.18 "/>
        </g>
        <g class="InnerPolygon">
            <polygon points="2.00,2.00 59.93,2.00 59.93,63.98 2.00,63.98 "/>
        </g>
        <g class="OuterCircle">
            <circle cx="16.532365883740837" cy="17.648820256644736" r="8"/>
            <circle cx="45.46400618028729" cy="17.648820256644736" r="8"/>
            <circle cx="16.532365883740837" cy="48.53425570577303" r="8"/>
            <circle cx="45.46400618028729" cy="48.53425570577303" r="8"/>
        </g>
        <g class="Direction" fill-opacity="0.9" style="display: none;">
            <polygon points="33.07,60.89 33.07,50.27 30.07,50.27 30.07,60.89 26.26,60.89 31.57,65.69 36.87,60.89 33.07,60.89 " fill="#444444"/>
        </g> 
        <g class="Name" fill-opacity="0.9" style="display: none;">
            <text transform="translate(3 12)" font-size="12" font-family="Verdana, Sans-Serif">INT_STOVE</text>
        </g>
        <desc>Width:60 Height:90 Depth:30 Elevation:0</desc>
    </g><g class="FixedFurniture Closet" fill="#ffffff" stroke="#000000" transform="matrix(-1,0,0,-1,693.6613,1185.3922)" style="fill-opacity: 1; stroke-opacity: 1; stroke-width: 1;">
        <g class="BoundaryPolygon">
            <polygon points="0.00,0.00 63.31,0.00 63.31,61.66 0.00,61.66 "/>
        </g>
        <g class="Direction" fill-opacity="0.9" style="display: none;">
            <polygon points="33.25,56.21 33.25,45.59 30.24,45.59 30.24,56.21 26.44,56.21 31.74,61.51 37.04,56.21 33.25,56.21 " fill="#444444"/>
        </g> 
        <g class="Name" fill-opacity="0.9" style="display: none;">
            <text transform="translate(3 12)" font-size="12" font-family="Verdana, Sans-Serif">CL</text>
        </g>
        <desc>Width:60 Height:200 Depth:60 Elevation:0</desc>
     </g><g class="FixedFurniture Closet" fill="#ffffff" stroke="#000000" transform="matrix(-1,0,0,-1,630.3513,1185.3922)" style="fill-opacity: 1; stroke-opacity: 1; stroke-width: 1;">
        <g class="BoundaryPolygon">
            <polygon points="0.00,0.00 66.21,0.00 66.21,61.66 0.00,61.66 "/>
        </g>
        <g class="Direction" fill-opacity="0.9" style="display: none;">
            <polygon points="34.77,56.21 34.77,45.59 31.76,45.59 31.76,56.21 27.96,56.21 33.26,61.51 38.56,56.21 34.77,56.21 " fill="#444444"/>
        </g> 
        <g class="Name" fill-opacity="0.9" style="display: none;">
            <text transform="translate(3 12)" font-size="12" font-family="Verdana, Sans-Serif">CL</text>
        </g>
        <desc>Width:60 Height:200 Depth:60 Elevation:0</desc>
     </g><g class="FixedFurniture Closet" fill="#ffffff" stroke="#000000" transform="matrix(-1,0,0,-1,564.1412,1185.2829)" style="fill-opacity: 1; stroke-opacity: 1; stroke-width: 1;">
        <g class="BoundaryPolygon">
            <polygon points="0.00,0.00 142.81,0.00 142.81,61.66 0.00,61.66 "/>
        </g>
        <g class="Direction" fill-opacity="0.9" style="display: none;">
            <polygon points="75.00,56.21 75.00,45.59 71.99,45.59 71.99,56.21 68.19,56.21 73.49,61.51 78.79,56.21 75.00,56.21 " fill="#444444"/>
        </g> 
        <g class="Name" fill-opacity="0.9" style="display: none;">
            <text transform="translate(3 12)" font-size="12" font-family="Verdana, Sans-Serif">CL</text>
        </g>
        <desc>Width:60 Height:200 Depth:60 Elevation:0</desc>
     </g><g class="FixedFurniture Closet" fill="#ffffff" stroke="#000000" transform="matrix(0,1,-1,0,411.688,1123.7858)" style="fill-opacity: 1; stroke-opacity: 1; stroke-width: 1;">
        <g class="BoundaryPolygon">
            <polygon points="0.00,0.00 48.76,0.00 48.76,15.32 0.00,15.32 "/>
        </g>
        <g class="Direction" fill-opacity="0.9" style="display: none;">
            <polygon points="25.60,13.97 25.60,3.35 22.59,3.35 22.59,13.97 18.79,13.97 24.09,19.27 29.40,13.97 25.60,13.97 " fill="#444444"/>
        </g> 
        <g class="Name" fill-opacity="0.9" style="display: none;">
            <text transform="translate(3 12)" font-size="12" font-family="Verdana, Sans-Serif">CL</text>
        </g>
        <desc>Width:60 Height:200 Depth:60 Elevation:0</desc>
     </g><g id="Wall" fill="#000000" stroke="#000000" style="fill-opacity: 1; stroke-opacity: 1; stroke-width: 0.2;" class="Wall"><polygon points="76.40,226.37 76.40,40.79 113.40,40.79 113.40,226.37 "/></g><g id="Railing" fill="#ffffff" stroke="#000000" style="fill-opacity: 1; stroke-opacity: 1; stroke-width: 0.2;" class="Railing"><polygon points="113.40,40.79 727.08,40.79 720.08,47.79 113.40,47.79 " style="stroke-dasharray: 613.684, 9.89949, 613.684;"/></g><g id="Railing" fill="#ffffff" stroke="#000000" style="fill-opacity: 1; stroke-opacity: 1; stroke-width: 0.2;" class="Railing"><polygon points="727.08,40.79 727.08,226.37 720.08,226.37 720.08,47.79 " style="stroke-dasharray: 371.162, 9.89949;"/></g><g fill="#0000ff" stroke="#0000ff" style="display: none;" class="SelectionControls"><g style="display: none;" class="rotateControl"><circle cx="496.3235969962675" cy="448.8492395857836" r="5" style="stroke : none; fill-opacity: 0.5; cursor:crosshair"/></g><g style="display: none;" class="ResizeNControl"><circle cx="0" cy="0" r="5" style="stroke : none; fill-opacity: 0.5"/></g><g style="display: none;" class="ResizeNEControl"><circle cx="0" cy="0" r="5" style="stroke : none; fill-opacity: 0.5"/></g><g style="display: none;" class="ResizeEControl"><circle cx="0" cy="0" r="5" style="stroke : none; fill-opacity: 0.5"/></g><g style="display: none;" class="ResizeSEControl"><circle cx="0" cy="0" r="5" style="stroke : none; fill-opacity: 0.5"/></g><g style="display: none;" class="ResizeSControl"><circle cx="0" cy="0" r="5" style="stroke : none; fill-opacity: 0.5"/></g><g style="display: none;" class="ResizeSWControl"><circle cx="0" cy="0" r="5" style="stroke : none; fill-opacity: 0.5"/></g><g style="display: none;" class="ResizeWControl"><circle cx="0" cy="0" r="5" style="stroke : none; fill-opacity: 0.5"/></g><g style="display: none;" class="ResizeNWControl"><circle cx="0" cy="0" r="5" style="stroke : none; fill-opacity: 0.5"/></g><g style="display: none;" class="removeControl"><polygon style="stroke : none; fill-opacity: 0.1" points="470.94,478.85 521.71,478.85 521.71,519.58 470.94,519.58 "/></g><g style="display: none;" class="copyPasteControl"><polygon style="stroke : none; fill-opacity: 0.1"/></g><g style="display: none;" class="translateControl"><polygon style="stroke : none; fill-opacity: 0.1; cursor:move" points="470.94,478.85 521.71,478.85 521.71,519.58 470.94,519.58 "/></g></g><g fill="#0000ff" stroke="#0000ff" style="display: none;" class="SelectionControls"><polygon fill="none" stroke="#0000ff" style="" points="299.16,265.37 693.66,265.37 693.66,743.25 299.16,743.25 "/><g style="display: none;" class="rotateControl"><circle cx="496.4100357169706" cy="235.37041458578358" r="5" style="stroke : none; fill-opacity: 0.5; cursor:crosshair"/></g><g style="display: none;" class="ResizeNControl"><circle cx="0" cy="0" r="5" style="stroke : none; fill-opacity: 0.5"/></g><g style="display: none;" class="ResizeNEControl"><circle cx="0" cy="0" r="5" style="stroke : none; fill-opacity: 0.5"/></g><g style="display: none;" class="ResizeEControl"><circle cx="0" cy="0" r="5" style="stroke : none; fill-opacity: 0.5"/></g><g style="display: none;" class="ResizeSEControl"><circle cx="0" cy="0" r="5" style="stroke : none; fill-opacity: 0.5"/></g><g style="display: none;" class="ResizeSControl"><circle cx="0" cy="0" r="5" style="stroke : none; fill-opacity: 0.5"/></g><g style="display: none;" class="ResizeSWControl"><circle cx="0" cy="0" r="5" style="stroke : none; fill-opacity: 0.5"/></g><g style="display: none;" class="ResizeWControl"><circle cx="0" cy="0" r="5" style="stroke : none; fill-opacity: 0.5"/></g><g style="display: none;" class="ResizeNWControl"><circle cx="0" cy="0" r="5" style="stroke : none; fill-opacity: 0.5"/></g><g style="display: none;" class="removeControl"><polygon style="stroke : none; fill-opacity: 0.1"/></g><g style="display: none;" class="copyPasteControl"><polygon style="stroke : none; fill-opacity: 0.1"/></g><g style="display: none;" class="translateControl"><polygon style="stroke : none; fill-opacity: 0.1; cursor:move"/></g></g><g transform="matrix(1,0,0,1,235.4987,559.3574)" style="stroke-opacity: 1; fill-opacity: 0.7; stroke-width: 1.5;" class="FixedFurniture WallCabinet" fill="#ffffff" stroke="#000000"><desc>Width:60 Height:60 Depth:50 Elevation:140</desc><g class="BoundaryPolygon"><polygon points="0.00,0.00 -142.10,0.00 -142.10,-92.05 -110.39,-92.05 -110.39,-32.02 0.00,-32.02 0.00,0.00 "/></g></g><g transform="matrix(1,0,0,1,294.3736,265.3704)" style="stroke-opacity: 1; fill-opacity: 0.7; stroke-width: 1.5;" class="FixedFurniture WallCabinet" fill="#ffffff" stroke="#000000"><desc>Width:60 Height:60 Depth:50 Elevation:140</desc><g class="BoundaryPolygon"><polygon points="0.00,0.00 0.00,33.80 -170.44,33.80 -170.44,143.92 -200.99,143.92 -200.97,-0.00 0.00,0.00 "/></g></g></g></g></g></svg>
