<?xml version="1.0"?>
<svg xmlns="http://www.w3.org/2000/svg" xmlns:xlink="http://www.w3.org/1999/xlink" height="711.6737403869629" version="1.1" width="1120.2400398254395" id="temp" viewBox="0 0 1120.2400398254395 711.6737403869629"><defs/><g id="Model" class="Model v1-1"><g class="Floor"><g id="Floor-1" class="Floorplan Floor-1"><g id="17bce394-59fb-4156-a29a-bd4eae008aaa" fill="#ffffff" stroke="#000000" style="fill-opacity: 1; stroke-opacity: 1; stroke-width: 0.2;" class="Space Outdoor"><polygon points="299.94,711.67 54.10,711.67 54.10,548.72 300.72,548.72 299.94,711.67 299.94,711.67 "/><g transform="matrix(1,0,0,1,54.0982,548.7221)" class="Dimension"><g transform="matrix(1,0,0,1,0,0)" style="display: none;" class="Visual"><g id="mark1" fill="#000000" stroke="none" transform="matrix(1,0,0,1,123.3101,0)" style="fill-opacity: 1; pointer-events: visible;" class="DimensionMark"><polygon points="-5,5,0,0,5,5"/></g><g id="mark2" fill="#000000" stroke="none" transform="matrix(1,0,0,1,246.2335,81.474)" style="fill-opacity: 1; pointer-events: visible;" class="DimensionMark"><polygon points="-5,-5,0,0,-5,5"/></g><g id="mark3" fill="#000000" stroke="none" transform="matrix(1,0,0,1,123.3101,162.9517)" style="fill-opacity: 1; pointer-events: visible;" class="DimensionMark"><polygon points="-5,-5,0,0,5,-5"/></g><g id="mark4" fill="#000000" stroke="none" transform="matrix(1,0,0,1,0,81.474)" style="fill-opacity: 1; pointer-events: visible;" class="DimensionMark"><polygon points="5,5,0,0,5,-5"/></g></g><g transform="matrix(1,0,0,1,34.9645,123.6716)" class="SpaceDimensionsLabel"><g id="NameLabel" style="display: block;" class="TextLabel NameLabel"><text x="0" y="0em" fill="#000000" stroke="none" style="font-family: Verdana; font-size: 33px; fill-opacity: 1; cursor: default;">ULKOTILA</text></g><g id="DimensionMeasureLabel" transform="matrix(1,0,0,1,-4.5703,40.1093)" style="display: none;" class="TextLabel DimensionMeasureLabel"><text x="0" y="0em" fill="#000000" stroke="none" style="font-family: Verdana; font-size: 33px; fill-opacity: 1; cursor: default;">8'1" x 5'4"</text><text x="0" y="0"/></g></g></g></g><g id="64f29bc7-7951-4136-8bb2-f480f2ff5716" fill="#ffffff" stroke="#000000" style="fill-opacity: 1; stroke-opacity: 1; stroke-width: 0.2;" class="Space Outdoor"><polygon points="708.69,711.67 1119.89,711.67 1120.24,545.47 708.69,545.47 708.69,711.67 "/><g transform="matrix(1,0,0,1,708.6895,545.4669)" class="Dimension"><g transform="matrix(1,0,0,1,0,0)" style="display: none;" class="Visual"><g id="mark1" fill="#000000" stroke="none" transform="matrix(1,0,0,1,205.7736,0)" style="fill-opacity: 1; pointer-events: visible;" class="DimensionMark"><polygon points="-5,5,0,0,5,5"/></g><g id="mark2" fill="#000000" stroke="none" transform="matrix(1,0,0,1,411.3731,83.1031)" style="fill-opacity: 1; pointer-events: visible;" class="DimensionMark"><polygon points="-5,-5,0,0,-5,5"/></g><g id="mark3" fill="#000000" stroke="none" transform="matrix(1,0,0,1,205.7736,166.2068)" style="fill-opacity: 1; pointer-events: visible;" class="DimensionMark"><polygon points="-5,-5,0,0,5,-5"/></g><g id="mark4" fill="#000000" stroke="none" transform="matrix(1,0,0,1,0,83.1031)" style="fill-opacity: 1; pointer-events: visible;" class="DimensionMark"><polygon points="5,5,0,0,5,-5"/></g></g><g transform="matrix(1,0,0,1,108.2642,89.813)" class="SpaceDimensionsLabel"><g id="NameLabel" style="display: block;" class="TextLabel NameLabel"><text x="0" y="0em" fill="#000000" stroke="none" style="font-family: Verdana; font-size: 33px; fill-opacity: 1; cursor: default;">ULKOTILA</text></g><g id="DimensionMeasureLabel" transform="matrix(1,0,0,1,-57.3125,79.3907)" style="display: none;" class="TextLabel DimensionMeasureLabel"><text x="42.1796875" y="-1.2em" fill="#000000" stroke="none" style="font-family: Verdana; font-size: 33px; fill-opacity: 1; cursor: default;">13'6" x 5'5"</text><text x="0" y="0em" fill="#000000" stroke="none" style="font-family: Verdana; font-size: 33px; fill-opacity: 1; cursor: default;">4.11 m x 1.66 m</text></g></g></g></g><g id="05014c09-9b94-498e-8729-222a6451d254" fill="#ffffff" stroke="#ffffff" style="fill-opacity: 1; stroke-opacity: 1; stroke-width: 0.2;" class="Space Kitchen"><polygon points="867.27,57.86 867.27,292.00 677.09,295.91 677.09,295.85 431.82,295.85 431.82,236.25 367.04,236.25 367.04,189.66 309.82,189.66 309.82,57.86 301.82,57.86 301.82,149.41 294.80,149.41 294.80,189.66 294.87,189.66 294.87,249.25 294.83,249.73 181.23,249.73 181.23,255.67 63.80,255.67 63.62,57.86 "/><g transform="matrix(1,0,0,1,63.7322,57.8584)" class="Dimension"><g transform="matrix(1,0,0,1,0,0)" style="display: none;" class="Visual"><g id="mark1" fill="#000000" stroke="none" transform="matrix(1,0,0,1,401.7168,0)" style="fill-opacity: 1; pointer-events: visible;" class="DimensionMark"><polygon points="-5,5,0,0,5,5"/></g><g id="mark2" fill="#000000" stroke="none" transform="matrix(1,0,0,1,803.5422,119.0248)" style="fill-opacity: 1; pointer-events: visible;" class="DimensionMark"><polygon points="-5,-5,0,0,-5,5"/></g><g id="mark3" fill="#000000" stroke="none" transform="matrix(1,0,0,1,401.7168,237.9905)" style="fill-opacity: 1; pointer-events: visible;" class="DimensionMark"><polygon points="-5,-5,0,0,5,-5"/></g><g id="mark4" fill="#000000" stroke="none" transform="matrix(1,0,0,1,0,119.0248)" style="fill-opacity: 1; pointer-events: visible;" class="DimensionMark"><polygon points="5,5,0,0,5,-5"/></g></g><g transform="matrix(1,0,0,1,479.395,125.723)" class="SpaceDimensionsLabel" style="display: block;"><g id="NameLabel" style="display: block;" class="TextLabel NameLabel"><text x="0" y="0em" fill="#000000" stroke="none" style="font-family: Verdana; font-size: 33px; fill-opacity: 1; cursor: default;">KEITTI&#xD6;</text></g><g id="DimensionMeasureLabel" transform="matrix(1,0,0,1,-71.4922,80.2969)" style="display: none;" class="TextLabel DimensionMeasureLabel"><text x="31.6953125" y="-1.2em" fill="#000000" stroke="none" style="font-family: Verdana; font-size: 33px; fill-opacity: 1; cursor: default;">26'4" x 7'10"</text><text x="0" y="0em" fill="#000000" stroke="none" style="font-family: Verdana; font-size: 33px; fill-opacity: 1; cursor: default;">8.04 m x 2.38 m</text></g></g></g></g><g id="71e03a98-8484-4309-a2b0-ae8185cbf636" fill="#ffffff" stroke="#ffffff" style="fill-opacity: 1; stroke-opacity: 1; stroke-width: 0.2;" class="Space Den Fireplace"><polygon points="867.27,535.47 698.69,535.47 698.69,703.67 307.94,703.67 307.94,541.45 310.00,303.00 415.97,301.00 415.97,308.85 677.09,308.85 677.09,295.91 867.27,292.00 "/><g transform="matrix(1,0,0,1,308.3207,308.8489)" class="Dimension"><g transform="matrix(1,0,0,1,0,0)" style="display: none;" class="Visual"><g id="mark1" fill="#000000" stroke="none" transform="matrix(1,0,0,1,279.2889,0)" style="fill-opacity: 1; pointer-events: visible;" class="DimensionMark"><polygon points="-5,5,0,0,5,5"/></g><g id="mark2" fill="#000000" stroke="none" transform="matrix(1,0,0,1,558.9536,188.9912)" style="fill-opacity: 1; pointer-events: visible;" class="DimensionMark"><polygon points="-5,-5,0,0,-5,5"/></g><g id="mark3" fill="#000000" stroke="none" transform="matrix(1,0,0,1,279.2889,394.8249)" style="fill-opacity: 1; pointer-events: visible;" class="DimensionMark"><polygon points="-5,-5,0,0,5,-5"/></g><g id="mark4" fill="#000000" stroke="none" transform="matrix(1,0,0,1,0,188.9912)" style="fill-opacity: 1; pointer-events: visible;" class="DimensionMark"><polygon points="5,5,0,0,5,-5"/></g></g><g transform="matrix(1,0,0,1,137.4073,171.537)" class="SpaceDimensionsLabel" style="display: block;"><g id="NameLabel" style="display: block;" class="TextLabel NameLabel"><text x="0" y="0em" fill="#000000" stroke="none" style="font-family: Verdana; font-size: 33px; fill-opacity: 1; cursor: default;">TAKKA.H</text></g><g id="DimensionMeasureLabel" transform="matrix(1,0,0,1,-67.664,79.5312)" style="display: none;" class="TextLabel DimensionMeasureLabel"><text x="21.1953125" y="-1.2em" fill="#000000" stroke="none" style="font-family: Verdana; font-size: 33px; fill-opacity: 1; cursor: default;">18'4" x 12'11"</text><text x="0" y="0em" fill="#000000" stroke="none" style="font-family: Verdana; font-size: 33px; fill-opacity: 1; cursor: default;">5.59 m x 3.95 m</text></g></g></g></g><g id="f2c40afa-f809-4efc-984f-7f9d6c24c1b9" fill="#ffffff" stroke="#ffffff" style="fill-opacity: 1; stroke-opacity: 1; stroke-width: 0.2;" class="Space Bath Shower"><polygon points="294.83,295.85 296.03,295.85 294.03,541.45 63.80,541.45 63.80,266.64 294.83,266.64 "/><g transform="matrix(1,0,0,1,63.804,266.6364)" class="Dimension"><g transform="matrix(1,0,0,1,0,0)" style="display: none;" class="Visual"><g id="mark1" fill="#000000" stroke="none" transform="matrix(1,0,0,1,116.1153,0)" style="fill-opacity: 1; pointer-events: visible;" class="DimensionMark"><polygon points="-5,5,0,0,5,5"/></g><g id="mark2" fill="#000000" stroke="none" transform="matrix(1,0,0,1,231.3496,137.3975)" style="fill-opacity: 1; pointer-events: visible;" class="DimensionMark"><polygon points="-5,-5,0,0,-5,5"/></g><g id="mark3" fill="#000000" stroke="none" transform="matrix(1,0,0,1,116.1153,274.8094)" style="fill-opacity: 1; pointer-events: visible;" class="DimensionMark"><polygon points="-5,-5,0,0,5,-5"/></g><g id="mark4" fill="#000000" stroke="none" transform="matrix(1,0,0,1,0,137.3975)" style="fill-opacity: 1; pointer-events: visible;" class="DimensionMark"><polygon points="5,5,0,0,5,-5"/></g></g><g transform="matrix(1,0,0,1,70.3612,152.3394)" class="SpaceDimensionsLabel"><g id="NameLabel" style="display: block;" class="TextLabel NameLabel"><text x="0" y="0em" fill="#000000" stroke="none" style="font-family: Verdana; font-size: 33px; fill-opacity: 1; cursor: default;">PESUH</text></g><g id="DimensionMeasureLabel" transform="matrix(1,0,0,1,-83.8438,79.8594)" style="display: none;" class="TextLabel DimensionMeasureLabel"><text x="52.65625" y="-1.2em" fill="#000000" stroke="none" style="font-family: Verdana; font-size: 33px; fill-opacity: 1; cursor: default;">7'7" x 9'0"</text><text x="0" y="0em" fill="#000000" stroke="none" style="font-family: Verdana; font-size: 33px; fill-opacity: 1; cursor: default;">2.31 m x 2.75 m</text></g></g></g></g><g id="ff24dd70-7b13-470a-8f40-f8a2871f834e" fill="#ffffff" stroke="#ffffff" style="fill-opacity: 1; stroke-opacity: 1; stroke-width: 0.2;" class="Space Bedroom"><polygon points="1110.24,292.33 875.27,292.33 875.27,57.86 1110.24,57.86 "/><g transform="matrix(1,0,0,1,875.2743,57.8584)" class="Dimension"><g transform="matrix(1,0,0,1,0,0)" style="display: none;" class="Visual"><g id="mark1" fill="#000000" stroke="none" transform="matrix(1,0,0,1,117.4812,0)" style="fill-opacity: 1; pointer-events: visible;" class="DimensionMark"><polygon points="-5,5,0,0,5,5"/></g><g id="mark2" fill="#000000" stroke="none" transform="matrix(1,0,0,1,234.9624,117.2362)" style="fill-opacity: 1; pointer-events: visible;" class="DimensionMark"><polygon points="-5,-5,0,0,-5,5"/></g><g id="mark3" fill="#000000" stroke="none" transform="matrix(1,0,0,1,117.4812,234.4724)" style="fill-opacity: 1; pointer-events: visible;" class="DimensionMark"><polygon points="-5,-5,0,0,5,-5"/></g><g id="mark4" fill="#000000" stroke="none" transform="matrix(1,0,0,1,0,117.2362)" style="fill-opacity: 1; pointer-events: visible;" class="DimensionMark"><polygon points="5,5,0,0,5,-5"/></g></g><g transform="matrix(1,0,0,1,93.6719,123.3378)" class="SpaceDimensionsLabel" style="display: block;"><g id="NameLabel" style="display: block;" class="TextLabel NameLabel"><text x="0" y="0em" fill="#000000" stroke="none" style="font-family: Verdana; font-size: 33px; fill-opacity: 1; cursor: default;">MH</text></g><g id="DimensionMeasureLabel" transform="matrix(1,0,0,1,-113.6719,79.7188)" style="display: none;" class="TextLabel DimensionMeasureLabel"><text x="52.6640625" y="-1.2em" fill="#000000" stroke="none" style="font-family: Verdana; font-size: 33px; fill-opacity: 1; cursor: default;">7'9" x 7'8"</text><text x="0" y="0em" fill="#000000" stroke="none" style="font-family: Verdana; font-size: 33px; fill-opacity: 1; cursor: default;">2.35 m x 2.34 m</text></g></g></g></g><g id="b61e04af-5be6-49e3-83fd-2270e0848780" fill="#ffffff" stroke="#ffffff" style="fill-opacity: 1; stroke-opacity: 1; stroke-width: 0.2;" class="Space Bedroom"><polygon points="1110.24,535.47 875.27,535.47 875.27,302.33 1110.24,302.33 "/><g transform="matrix(1,0,0,1,875.2743,302.3307)" class="Dimension"><g transform="matrix(1,0,0,1,0,0)" style="display: none;" class="Visual"><g id="mark1" fill="#000000" stroke="none" transform="matrix(1,0,0,1,117.4812,0)" style="fill-opacity: 1; pointer-events: visible;" class="DimensionMark"><polygon points="-5,5,0,0,5,5"/></g><g id="mark2" fill="#000000" stroke="none" transform="matrix(1,0,0,1,234.9624,116.5681)" style="fill-opacity: 1; pointer-events: visible;" class="DimensionMark"><polygon points="-5,-5,0,0,-5,5"/></g><g id="mark3" fill="#000000" stroke="none" transform="matrix(1,0,0,1,117.4812,233.1362)" style="fill-opacity: 1; pointer-events: visible;" class="DimensionMark"><polygon points="-5,-5,0,0,5,-5"/></g><g id="mark4" fill="#000000" stroke="none" transform="matrix(1,0,0,1,0,116.5681)" style="fill-opacity: 1; pointer-events: visible;" class="DimensionMark"><polygon points="5,5,0,0,5,-5"/></g></g><g transform="matrix(1,0,0,1,91.4632,121.6174)" class="SpaceDimensionsLabel" style="display: block;"><g id="NameLabel" style="display: block;" class="TextLabel NameLabel"><text x="0" y="0em" fill="#000000" stroke="none" style="font-family: Verdana; font-size: 33px; fill-opacity: 1; cursor: default;">MH</text></g><g id="DimensionMeasureLabel" transform="matrix(1,0,0,1,-113.6875,79.0469)" style="display: none;" class="TextLabel DimensionMeasureLabel"><text x="52.6640625" y="-1.2em" fill="#000000" stroke="none" style="font-family: Verdana; font-size: 33px; fill-opacity: 1; cursor: default;">7'9" x 7'8"</text><text x="0" y="0em" fill="#000000" stroke="none" style="font-family: Verdana; font-size: 33px; fill-opacity: 1; cursor: default;">2.35 m x 2.33 m</text></g></g></g></g><g id="Wall" fill="#000000" stroke="#000000" style="fill-opacity: 1; stroke-opacity: 1; stroke-width: 0.2;" class="Wall External"><polygon points="52.95,47.86 1120.24,47.86 1110.24,57.86 63.62,57.86 "/><g id="Window" fill="#f0f0ff" stroke="#000000" style="fill-opacity: 1; stroke-width: 1; stroke-opacity: 1;" class="Window Regular"><polygon points="356.06,47.86 524.74,47.86 524.74,57.86 356.06,57.86 "/><g id="Glass" class="Glass"><polygon points="356.06,47.86 524.74,47.86 524.74,57.86 356.06,57.86 "/></g><g id="Panel" class="Panel"><line x1="363.55674238347007" x2="517.2418608466685" y1="52.85837209261902" y2="52.85837209261901"/><line x1="363.55674238347007" x2="363.55674238347007" y1="47.85837209261902" y2="57.85837209261902"/><line x1="517.2418608466685" x2="517.2418608466685" y1="47.85837209261901" y2="57.85837209261901"/></g></g><g id="Window" fill="#f0f0ff" stroke="#000000" style="fill-opacity: 1; stroke-width: 1; stroke-opacity: 1;" class="Window Regular"><polygon points="651.04,47.86 817.99,47.86 817.99,57.86 651.04,57.86 "/><g id="Glass" class="Glass"><polygon points="651.04,47.86 817.99,47.86 817.99,57.86 651.04,57.86 "/></g><g id="Panel" class="Panel"><line x1="658.5394367216786" x2="810.4944514057672" y1="52.858372092619" y2="52.858372092618986"/><line x1="658.5394367216786" x2="658.5394367216786" y1="47.858372092619" y2="57.858372092619"/><line x1="810.4944514057672" x2="810.4944514057672" y1="47.858372092618986" y2="57.858372092618986"/></g></g></g><g id="Wall" fill="#000000" stroke="#000000" style="fill-opacity: 1; stroke-opacity: 1; stroke-width: 0.2;" class="Wall External"><polygon points="1120.24,47.86 1120.24,545.47 1110.24,535.47 1110.24,57.86 "/><g id="Window" fill="#f0f0ff" stroke="#000000" style="fill-opacity: 1; stroke-width: 1; stroke-opacity: 1;" class="Window Regular"><polygon points="1120.24,111.53 1120.24,238.94 1110.24,238.94 1110.24,111.53 "/><g id="Glass" class="Glass"><polygon points="1120.24,111.53 1120.24,238.94 1110.24,238.94 1110.24,111.53 "/></g><g id="Panel" class="Panel"><line x1="1115.2367014100494" x2="1115.2367014100494" y1="119.03116431126719" y2="231.4416333212133"/><line x1="1120.2367014100494" x2="1110.2367014100494" y1="119.03116431126719" y2="119.03116431126719"/><line x1="1120.2367014100494" x2="1110.2367014100494" y1="231.4416333212133" y2="231.4416333212133"/></g></g><g id="Window" fill="#f0f0ff" stroke="#000000" style="fill-opacity: 1; stroke-width: 1; stroke-opacity: 1;" class="Window Regular"><polygon points="1120.24,355.12 1120.24,481.08 1110.24,481.08 1110.24,355.12 "/><g id="Glass" class="Glass"><polygon points="1120.24,355.12 1120.24,481.08 1110.24,481.08 1110.24,355.12 "/></g><g id="Panel" class="Panel"><line x1="1115.2367014100491" x2="1115.2367014100491" y1="362.6224069643673" y2="473.5787428636256"/><line x1="1120.2367014100491" x2="1110.2367014100491" y1="362.6224069643673" y2="362.6224069643673"/><line x1="1120.2367014100491" x2="1110.2367014100491" y1="473.5787428636256" y2="473.5787428636256"/></g></g></g><g id="Wall" fill="#000000" stroke="#000000" style="fill-opacity: 1; stroke-opacity: 1; stroke-width: 0.2;" class="Wall External"><polygon points="1120.24,545.47 708.69,545.47 698.69,535.47 1110.24,535.47 "/><g id="Door" fill="#ffffff" stroke="#000000" style="fill-opacity: 1; stroke-width: 1; stroke-opacity: 1;" class="Door Swing Beside"><polygon points="830.50,545.47 739.44,545.47 739.44,535.47 830.50,535.47 "/><g id="Threshold" class="Threshold"><polygon points="830.50,545.47 739.44,545.47 739.44,535.47 830.50,535.47 "/></g><g id="Panel" fill="none" style="" class="Panel Left Negative"><g id="PanelArea" fill="none" stroke="none" style="" class="PanelArea"><polygon points="830.50,545.47 739.44,545.47 739.44,535.47 830.50,535.47 "/></g><path d="M830.50,545.47 q0.00,91.06 -91.06,91.06 l0.00,-91.06Z"/></g></g></g><g id="Wall" fill="#000000" stroke="#000000" style="fill-opacity: 1; stroke-opacity: 1; stroke-width: 0.2;" class="Wall External"><polygon points="698.69,535.47 698.69,703.67 708.69,711.67 708.69,545.47 "/></g><g id="Wall" fill="#000000" stroke="#000000" style="fill-opacity: 1; stroke-opacity: 1; stroke-width: 0.2;" class="Wall External"><polygon points="708.69,711.67 299.94,711.67 308.27,703.67 698.69,703.67 "/><g id="Window" fill="#f0f0ff" stroke="#000000" style="fill-opacity: 1; stroke-width: 1; stroke-opacity: 1;" class="Window Regular"><polygon points="502.58,711.67 352.73,711.67 352.73,703.67 502.58,703.67 "/><g id="Glass" class="Glass"><polygon points="502.58,711.67 352.73,711.67 352.73,703.67 502.58,703.67 "/></g><g id="Panel" class="Panel"><line x1="495.0816367966669" x2="360.22687758556975" y1="707.673780212699" y2="707.673780212699"/><line x1="495.0816367966669" x2="495.0816367966669" y1="711.673780212699" y2="703.673780212699"/><line x1="360.22687758556975" x2="360.22687758556975" y1="711.673780212699" y2="703.673780212699"/></g></g><g id="Window" fill="#f0f0ff" stroke="#000000" style="fill-opacity: 1; stroke-width: 1; stroke-opacity: 1;" class="Window Regular"><polygon points="659.04,711.67 508.52,711.67 508.52,703.67 659.04,703.67 "/><g id="Glass" class="Glass"><polygon points="659.04,711.67 508.52,711.67 508.52,703.67 659.04,703.67 "/></g><g id="Panel" class="Panel"><line x1="651.5379272505435" x2="516.0230149151685" y1="707.673780212699" y2="707.673780212699"/><line x1="651.5379272505435" x2="651.5379272505435" y1="711.673780212699" y2="703.673780212699"/><line x1="516.0230149151685" x2="516.0230149151685" y1="711.673780212699" y2="703.673780212699"/></g></g></g><g id="Wall" fill="#000000" stroke="#000000" style="fill-opacity: 1; stroke-opacity: 1; stroke-width: 0.2;" class="Wall External"><polygon points="299.94,711.67 299.94,549.45 308.27,541.45 308.27,703.67 "/></g><g id="Wall" fill="#000000" stroke="#000000" style="fill-opacity: 1; stroke-opacity: 1; stroke-width: 0.2;" class="Wall External"><polygon points="53.14,549.45 52.95,47.86 63.62,57.86 63.80,541.45 "/><g id="Window" fill="#f0f0ff" stroke="#000000" style="fill-opacity: 1; stroke-width: 1; stroke-opacity: 1;" class="Window Regular"><polygon points="53.11,483.46 53.07,362.23 63.74,362.23 63.78,483.46 "/><g id="Glass" class="Glass"><polygon points="53.11,483.46 53.07,362.23 63.74,362.23 63.78,483.46 "/></g><g id="Panel" class="Panel"><line x1="58.444022716048096" x2="58.40441511905112" y1="475.9600064897303" y2="369.7305514170207"/><line x1="53.1084942454133" x2="63.779551186682895" y1="475.9619958387417" y2="475.9580171407189"/><line x1="53.068886648416324" x2="63.73994358968592" y1="369.7325407660321" y2="369.7285620680093"/></g></g><g id="Window" fill="#f0f0ff" stroke="#000000" style="fill-opacity: 1; stroke-width: 1; stroke-opacity: 1;" class="Window Regular"><polygon points="53.02,243.81 52.97,114.78 63.64,114.78 63.69,243.81 "/><g id="Glass" class="Glass"><polygon points="53.02,243.81 52.97,114.78 63.64,114.78 63.69,243.81 "/></g><g id="Panel" class="Panel"><line x1="58.35466909093023" x2="58.31215406889075" y1="236.30934286153592" y2="122.28203582739172"/><line x1="53.01914062029543" x2="63.69019756156503" y1="236.31133221054733" y2="236.30735351252451"/><line x1="52.97662559825595" x2="63.64768253952555" y1="122.28402517640313" y2="122.28004647838033"/></g></g></g><g id="Wall" fill="#000000" stroke="#000000" style="fill-opacity: 1; stroke-opacity: 1; stroke-width: 0.2;" class="Wall"><polygon points="875.27,47.86 875.27,545.47 867.27,545.47 867.27,47.86 "/><g id="Door" fill="#ffffff" stroke="#000000" style="fill-opacity: 1; stroke-width: 1; stroke-opacity: 1;" class="Door None Beside"><polygon points="875.27,134.60 875.27,213.91 867.27,213.91 867.27,134.60 "/><g id="Threshold" stroke="#ffffff" style="" class="Threshold"><polygon points="875.27,134.60 875.27,213.91 867.27,213.91 867.27,134.60 "/></g></g><g id="Door" fill="#ffffff" stroke="#000000" style="fill-opacity: 1; stroke-width: 1; stroke-opacity: 1;" class="Door None Beside"><polygon points="875.27,380.42 875.27,456.88 867.27,456.88 867.27,380.42 "/><g id="Threshold" stroke="#ffffff" style="" class="Threshold"><polygon points="875.27,380.42 875.27,456.88 867.27,456.88 867.27,380.42 "/></g></g></g><g id="Wall" fill="#000000" stroke="#000000" style="fill-opacity: 1; stroke-opacity: 1; stroke-width: 0.2;" class="Wall"><polygon points="301.82,57.86 301.82,149.41 309.82,149.41 309.82,57.86 "/></g><g id="Wall" fill="#000000" stroke="#000000" style="fill-opacity: 1; stroke-opacity: 1; stroke-width: 0.2;" class="Wall"><polygon points="294.80,149.41 294.80,189.66 309.82,189.66 309.82,149.41 "/></g><g id="Wall" fill="#000000" stroke="#000000" style="fill-opacity: 1; stroke-opacity: 1; stroke-width: 0.2;" class="Wall"><polygon points="294.87,189.66 294.87,249.25 367.04,249.25 367.04,189.66 "/></g><g id="Wall" fill="#000000" stroke="#000000" style="fill-opacity: 1; stroke-opacity: 1; stroke-width: 0.2;" class="Wall"><polygon points="294.83,249.25 294.83,295.85 339.10,295.85 339.10,249.25 "/></g><g id="Wall" fill="#000000" stroke="#000000" style="fill-opacity: 1; stroke-opacity: 1; stroke-width: 0.2;" class="Wall"><polygon points="294.50,295.79 292.63,549.39 308.29,549.51 310.16,295.91 "/><g id="Door" fill="#ffffff" stroke="#000000" style="fill-opacity: 1; stroke-width: 1; stroke-opacity: 1;" class="Door Swing Beside"><polygon points="293.33,454.13 292.76,531.80 308.42,531.91 308.99,454.25 "/><g id="Threshold" class="Threshold"><polygon points="293.33,454.13 292.76,531.80 308.42,531.91 308.99,454.25 "/></g><g id="Panel" fill="none" style="" class="Panel Left Negative"><g id="PanelArea" fill="none" stroke="none" style="" class="PanelArea"><polygon points="293.33,454.13 292.76,531.80 308.42,531.91 308.99,454.25 "/></g><path d="M293.33,454.13 q-77.66,-0.58 -78.24,77.09 l77.66,0.58Z"/></g></g></g><g id="Wall" fill="#000000" stroke="#000000" style="fill-opacity: 1; stroke-opacity: 1; stroke-width: 0.2;" class="Wall"><polygon points="294.83,266.64 181.23,266.64 181.23,249.73 294.83,249.73 "/></g><g id="Wall" fill="#000000" stroke="#000000" style="fill-opacity: 1; stroke-opacity: 1; stroke-width: 0.2;" class="Wall"><polygon points="181.23,266.64 53.03,266.64 53.03,255.67 181.23,255.67 "/><g id="Door" fill="#ffffff" stroke="#000000" style="fill-opacity: 1; stroke-width: 1; stroke-opacity: 1;" class="Door Swing Beside"><polygon points="180.18,266.64 104.23,266.64 104.23,255.67 180.18,255.67 "/><g id="Threshold" class="Threshold"><polygon points="180.18,266.64 104.23,266.64 104.23,255.67 180.18,255.67 "/></g><g id="Panel" fill="none" style="" class="Panel Left Negative"><g id="PanelArea" fill="none" stroke="none" style="" class="PanelArea"><polygon points="180.18,266.64 104.23,266.64 104.23,255.67 180.18,255.67 "/></g><path d="M180.18,266.64 q0.00,75.94 -75.94,75.94 l-0.00,-75.94Z"/></g></g></g><g id="Wall" fill="#000000" stroke="#000000" style="fill-opacity: 1; stroke-opacity: 1; stroke-width: 0.2;" class="Wall"><polygon points="294.87,249.25 415.97,249.25 431.82,236.25 367.04,236.25 "/></g><g id="Wall" fill="#000000" stroke="#000000" style="fill-opacity: 1; stroke-opacity: 1; stroke-width: 0.2;" class="Wall"><polygon points="431.82,236.25 431.82,295.85 415.97,308.85 415.97,249.25 "/></g><g id="Wall" fill="#000000" stroke="#000000" style="fill-opacity: 1; stroke-opacity: 1; stroke-width: 0.2;" class="Wall"><polygon points="431.82,295.85 677.09,295.85 677.09,308.85 415.97,308.85 "/></g><g id="Wall" fill="#000000" stroke="#000000" style="fill-opacity: 1; stroke-opacity: 1; stroke-width: 0.2;" class="Wall"><polygon points="867.27,302.33 1120.24,302.33 1120.24,292.33 867.27,292.33 "/></g><g id="FixedFurnitureSet" transform="matrix(1,0,0,1,63.6483,57.8584)" class="FixedFurnitureSet" fill="#ffffff" stroke="#000000" style="fill-opacity: 0.4; stroke-opacity: 0.4;"><g class="FixedFurniture SaunaBenchHigh" fill="#ffffff" stroke="#000000" transform="matrix(1,0,0,1,0,0)" style="fill-opacity: 1; stroke-opacity: 1;">
        <g class="BoundaryPolygon">
            <polygon points="0.00,0.00 236.72,0.00 236.72,56.59 0.00,56.59 "/>
        </g>
        <g class="Bench" stroke="#9a9a9a" stroke-width="0.5">
            <line x1="0" y1="3.7726502101496147" x2="236.72207719096252" y2="3.7726502101496147"/>
            <line x1="0" y1="7.545300420299229" x2="236.72207719096252" y2="7.545300420299229"/>
            <line x1="0" y1="11.317950630448843" x2="236.72207719096252" y2="11.317950630448843"/>
            <line x1="0" y1="15.090600840598459" x2="236.72207719096252" y2="15.090600840598459"/>
            <line x1="0" y1="18.863251050748072" x2="236.72207719096252" y2="18.863251050748072"/>
            <line x1="0" y1="22.635901260897686" x2="236.72207719096252" y2="22.635901260897686"/>
            <line x1="0" y1="26.408551471047303" x2="236.72207719096252" y2="26.408551471047303"/>
            <line x1="0" y1="30.181201681196917" x2="236.72207719096252" y2="30.181201681196917"/>
            <line x1="0" y1="33.95385189134653" x2="236.72207719096252" y2="33.95385189134653"/>
            <line x1="0" y1="37.726502101496145" x2="236.72207719096252" y2="37.726502101496145"/>
            <line x1="0" y1="41.49915231164576" x2="236.72207719096252" y2="41.49915231164576"/>
            <line x1="0" y1="45.27180252179537" x2="236.72207719096252" y2="45.27180252179537"/>
            <line x1="0" y1="49.044452731944986" x2="236.72207719096252" y2="49.044452731944986"/>
            <line x1="0" y1="52.81710294209461" x2="236.72207719096252" y2="52.81710294209461"/>
        </g>
        <g class="Direction" fill-opacity="0.9" style="display: none;">
            <polygon points="122.08,51.55 122.08,40.93 119.07,40.93 119.07,51.55 115.27,51.55 120.57,56.85 125.88,51.55 122.08,51.55 " fill="#444444"/>
        </g> 
        <g class="Name" fill-opacity="0.9" style="display: none;">
            <text transform="translate(3 12)" font-size="12" font-family="Verdana, Sans-Serif">SB_HIGH</text>
        </g>
        <desc>Width:185 Height:5 Depth:60 Elevation:105</desc>
    </g><g class="FixedFurniture SaunaBenchMid" fill="#ffffff" stroke="#000000" transform="matrix(1,0,0,1,0,56.5898)" style="fill-opacity: 1; stroke-opacity: 1;">
        <g class="BoundaryPolygon">
            <polygon points="0.00,0.00 236.72,0.00 236.72,37.73 0.00,37.73 "/>
        </g>
        <g class="Bench" fill="#ffffff" stroke="#9a9a9a" stroke-width="0.5">
            <line x1="0" y1="3.7726502101496147" x2="236.72207719096252" y2="3.7726502101496147"/>
            <line x1="0" y1="7.545300420299229" x2="236.72207719096252" y2="7.545300420299229"/>
            <line x1="0" y1="11.317950630448843" x2="236.72207719096252" y2="11.317950630448843"/>
            <line x1="0" y1="15.090600840598459" x2="236.72207719096252" y2="15.090600840598459"/>
            <line x1="0" y1="18.863251050748072" x2="236.72207719096252" y2="18.863251050748072"/>
            <line x1="0" y1="22.635901260897686" x2="236.72207719096252" y2="22.635901260897686"/>
            <line x1="0" y1="26.408551471047303" x2="236.72207719096252" y2="26.408551471047303"/>
            <line x1="0" y1="30.181201681196917" x2="236.72207719096252" y2="30.181201681196917"/>
            <line x1="0" y1="33.95385189134653" x2="236.72207719096252" y2="33.95385189134653"/>
        </g>
        <g class="Direction" fill-opacity="0.9" style="display: none;">
            <polygon points="120.29,32.69 120.29,22.07 117.28,22.07 117.28,32.69 113.48,32.69 118.78,37.99 124.09,32.69 120.29,32.69 " fill="#444444"/>
        </g> 
        <g class="Name" fill-opacity="0.9" style="display: none;">
            <text transform="translate(3 12)" font-size="12" font-family="Verdana, Sans-Serif">SB_MID</text>
        </g>
            <desc>Width:185 Height:5 Depth:40 Elevation:60</desc>
    </g><g class="FixedFurniture SaunaBenchLow" fill="#ffffff" stroke="#000000" transform="matrix(1,0,0,1,0,94.3163)" style="fill-opacity: 1; stroke-opacity: 1;">
        <g class="BoundaryPolygon">
            <polygon points="0.00,0.00 116.44,0.00 116.44,37.73 0.00,37.73 "/>
        </g>
        <g class="Bench" fill="#ffffff" stroke="#9a9a9a" stroke-width="0.5">
            <line x1="0" y1="3.7726502101496147" x2="116.44167040204103" y2="3.7726502101496147"/>
            <line x1="0" y1="7.545300420299229" x2="116.44167040204103" y2="7.545300420299229"/>
            <line x1="0" y1="11.317950630448843" x2="116.44167040204103" y2="11.317950630448843"/>
            <line x1="0" y1="15.090600840598459" x2="116.44167040204103" y2="15.090600840598459"/>
            <line x1="0" y1="18.863251050748072" x2="116.44167040204103" y2="18.863251050748072"/>
            <line x1="0" y1="22.635901260897686" x2="116.44167040204103" y2="22.635901260897686"/>
            <line x1="0" y1="26.408551471047303" x2="116.44167040204103" y2="26.408551471047303"/>
            <line x1="0" y1="30.181201681196917" x2="116.44167040204103" y2="30.181201681196917"/>
            <line x1="0" y1="33.95385189134653" x2="116.44167040204103" y2="33.95385189134653"/>
        </g>
        <g class="Direction" fill-opacity="0.9" style="display: none;">
            <polygon points="60.22,32.69 60.22,22.07 57.21,22.07 57.21,32.69 53.40,32.69 58.71,37.99 64.01,32.69 60.22,32.69 " fill="#444444"/>
        </g> 
        <g class="Name" fill-opacity="0.9" style="display: none;">
            <text transform="translate(3 12)" font-size="12" font-family="Verdana, Sans-Serif">SB_LOW</text>
        </g>
        <desc>Width:91 Height:5 Depth:40 Elevation:30</desc>
    </g></g><g class="FixedFurniture ElectricalAppliance SaunaStove" fill="#ffffff" stroke="#000000" transform="matrix(-0.9072,0,0,-1.2728,294.8656,249.4347)" style="fill-opacity: 1; stroke-opacity: 1;"> 
	   <g class="BoundaryPolygon"> 
		    <polygon points="0,0 60,0 60,35 0,35"/>
		</g>
	    <g class="electricitySign" fill="none">
		    <polyline points="0 35 39.7 17.5 21.4 17.5 60 0"/>
		</g>
        <g class="Direction" fill-opacity="0.9" style="display: none;">
            <polygon points="31.509 29.697 31.509 19.081 28.5 19.081 28.5 29.697 24.697 29.697 30 35 35.303 29.697 31.509 29.697" fill="#444444"/>
        </g> 
        <g class="Name" fill-opacity="0.9" style="display: none;">
            <text transform="translate(3 12)" font-size="12" font-family="Verdana, Sans-Serif">SS</text>
        </g>
        <desc>Width:60 Height:60 Depth:35 Elevation:20</desc>
	</g><g class="FixedFurniture Closet" fill="#ffffff" stroke="#000000" transform="matrix(0,-1,1,0,309.8244,190.5883)" style="fill-opacity: 1; stroke-opacity: 1;">
        <g class="BoundaryPolygon">
            <polygon points="0.00,0.00 132.73,0.00 132.73,56.82 0.00,56.82 "/>
        </g>
        <g class="Direction" fill-opacity="0.9" style="display: none;">
            <polygon points="68.03,51.62 68.03,41.01 65.03,41.01 65.03,51.62 61.22,51.62 66.53,56.93 71.83,51.62 68.03,51.62 " fill="#444444"/>
        </g> 
        <g class="Name" fill-opacity="0.9" style="display: none;">
            <text transform="translate(3 12)" font-size="12" font-family="Verdana, Sans-Serif">CL</text>
        </g>
        <desc>Width:120 Height:200 Depth:60 Elevation:0</desc>
     </g><g class="FixedFurniture Fireplace" fill="#ffffff" stroke="#000000" transform="matrix(1.017,0,0,1,339.1859,249.4365)" style="fill-opacity: 1; stroke-opacity: 1;">     
	    <g class="BoundaryPolygon"> 
		    <polygon points="0,0 75,0 75,60 0,60"/> 
		</g>
	    <g class="Lines" fill="none" stroke="#4c4c4c"> 
		    <line x1="0.629" y1="9.556" x2="51.294" y2="60.205"/>
            <line x1="0.598" y1="25.167" x2="35.942" y2="60.5"/>
            <line x1="0.5" y1="40.841" x2="20.479" y2="60.5"/>
            <line x1="40.648" y1="0.5" x2="75.432" y2="35.274"/>
            <line x1="8.329" y1="0.5" x2="68.348" y2="60.5"/>
            <line x1="24.88" y1="0.5" x2="75.5" y2="51.104"/>
            <line x1="56.774" y1="0.5" x2="75.5" y2="19.22"/>
		</g>
	    <g class="FireBox">  &gt;	
		    <rect x="22.053" y="19.92" width="32.571" height="40.58"/>
	    </g>
        <g class="Direction" fill-opacity="0.9" style="display: none;">
            <polygon points="39.409 54.797 39.409 44.181 36.4 44.181 36.4 54.797 32.597 54.797 37.9 60.1 43.203 54.797 39.409 54.797" fill="#444444"/>
        </g> 
        <g class="Name" fill-opacity="0.9" style="display: none;">
            <text transform="translate(3 12)" font-size="12" font-family="Verdana, Sans-Serif">FP</text>
        </g>
        <desc>Width:75 Height:120 Depth:60 Elevation:0</desc>
    </g><g id="Column" fill="#000000" stroke="none" style="fill-opacity: 1;" class="Column Rectangle"><polygon points="1119.57,711.23 1119.57,700.78 1112.89,700.78 1112.89,711.23 "/></g><g id="Column" fill="#000000" stroke="none" style="fill-opacity: 1;" transform="matrix(1,0,0,1,0,0)" class="Column Rectangle"><polygon points="875.58,711.62 875.58,701.17 868.90,701.17 868.90,711.62 "/></g><g id="Column" fill="#000000" stroke="none" style="fill-opacity: 1;" class="Column Rectangle"><polygon points="55.40,699.36 65.74,699.36 65.74,710.89 55.40,710.89 "/></g><g id="Wall" fill="#000000" stroke="#000000" style="fill-opacity: 1; stroke-opacity: 1; stroke-width: 0.2;" class="Wall External"><polygon points="308.27,541.45 292.68,541.45 292.68,549.45 299.94,549.45 "/></g><g id="Wall" fill="#000000" stroke="#000000" style="fill-opacity: 1; stroke-opacity: 1; stroke-width: 0.2;" class="Wall External"><polygon points="292.68,541.45 63.80,541.45 53.14,549.45 292.68,549.45 "/><g id="Door" fill="#ffffff" stroke="#000000" style="fill-opacity: 1; stroke-width: 1; stroke-opacity: 1;" class="Door Swing Beside"><polygon points="222.23,541.45 133.57,541.45 133.57,549.45 222.23,549.45 "/><g id="Threshold" class="Threshold"><polygon points="222.23,541.45 133.57,541.45 133.57,549.45 222.23,549.45 "/></g><g id="Panel" fill="none" style="" class="Panel Right Positive"><g id="PanelArea" fill="none" stroke="none" style="" class="PanelArea"><polygon points="222.23,541.45 133.57,541.45 133.57,549.45 222.23,549.45 "/></g><path d="M222.23,549.45 q0.00,88.66 -88.66,88.66 l0.00,-88.66Z"/></g></g></g><g id="Wall" fill="#000000" stroke="#000000" style="fill-opacity: 1; stroke-opacity: 1; stroke-width: 0.2;" class="Wall"><polygon points="322.55,295.85 322.55,310.79 339.02,310.79 339.02,295.85 "/></g><g class="FixedFurniture BaseCabinet" fill="#ffffff" stroke="#000000" transform="matrix(0,-1,1,0,63.8347,541.4458)" style="fill-opacity: 1; stroke-opacity: 1;">
        <g class="BoundaryPolygon">
            <polygon points="0.00,0.00 170.17,0.00 170.17,50.31 0.00,50.31 "/>
        </g>
        <g class="Direction" fill-opacity="0.9" style="display: none;">
            <polygon points="90.78,46.28 90.78,35.67 87.77,35.67 87.77,46.28 83.97,46.28 89.27,51.09 94.58,46.28 90.78,46.28 " fill="#444444"/>
        </g> 
        <g class="Name" fill-opacity="0.9" style="display: none;">
            <text transform="translate(3 12)" font-size="12" font-family="Verdana, Sans-Serif">CB</text>
        </g>
        <desc>Width:60 Height:90 Depth:60 Elevation:0</desc>
    </g><g fill="#0000ff" stroke="#0000ff" style="display: none;" class="SelectionControls"><g style="display: none;" class="rotateControl"><circle cx="171.75020410585097" cy="609.3155421129733" r="5" style="stroke : none; fill-opacity: 0.5; cursor:crosshair"/></g><g style="display: none;" class="ResizeNControl"><circle cx="0" cy="0" r="5" style="stroke : none; fill-opacity: 0.5"/></g><g style="display: none;" class="ResizeNEControl"><circle cx="0" cy="0" r="5" style="stroke : none; fill-opacity: 0.5"/></g><g style="display: none;" class="ResizeEControl"><circle cx="0" cy="0" r="5" style="stroke : none; fill-opacity: 0.5"/></g><g style="display: none;" class="ResizeSEControl"><circle cx="0" cy="0" r="5" style="stroke : none; fill-opacity: 0.5"/></g><g style="display: none;" class="ResizeSControl"><circle cx="0" cy="0" r="5" style="stroke : none; fill-opacity: 0.5"/></g><g style="display: none;" class="ResizeSWControl"><circle cx="0" cy="0" r="5" style="stroke : none; fill-opacity: 0.5"/></g><g style="display: none;" class="ResizeWControl"><circle cx="0" cy="0" r="5" style="stroke : none; fill-opacity: 0.5"/></g><g style="display: none;" class="ResizeNWControl"><circle cx="0" cy="0" r="5" style="stroke : none; fill-opacity: 0.5"/></g><g style="display: none;" class="removeControl"><polygon style="stroke : none; fill-opacity: 0.1" points="89.06,639.32 254.44,639.32 254.44,679.11 89.06,679.11 "/></g><g style="display: none;" class="copyPasteControl"><polygon style="stroke : none; fill-opacity: 0.1"/></g><g style="display: none;" class="translateControl"><polygon style="stroke : none; fill-opacity: 0.1; cursor:move" points="89.06,639.32 254.44,639.32 254.44,679.11 89.06,679.11 "/></g></g><g fill="#0000ff" stroke="#0000ff" style="display: none;" class="SelectionControls"><polygon fill="none" stroke="#0000ff" style="" points="54.10,548.72 300.72,548.72 300.72,711.67 54.10,711.67 "/><g style="display: none;" class="rotateControl"><circle cx="177.4082932171791" cy="518.7220671129733" r="5" style="stroke : none; fill-opacity: 0.5; cursor:crosshair"/></g><g style="display: none;" class="ResizeNControl"><circle cx="0" cy="0" r="5" style="stroke : none; fill-opacity: 0.5"/></g><g style="display: none;" class="ResizeNEControl"><circle cx="0" cy="0" r="5" style="stroke : none; fill-opacity: 0.5"/></g><g style="display: none;" class="ResizeEControl"><circle cx="0" cy="0" r="5" style="stroke : none; fill-opacity: 0.5"/></g><g style="display: none;" class="ResizeSEControl"><circle cx="0" cy="0" r="5" style="stroke : none; fill-opacity: 0.5"/></g><g style="display: none;" class="ResizeSControl"><circle cx="0" cy="0" r="5" style="stroke : none; fill-opacity: 0.5"/></g><g style="display: none;" class="ResizeSWControl"><circle cx="0" cy="0" r="5" style="stroke : none; fill-opacity: 0.5"/></g><g style="display: none;" class="ResizeWControl"><circle cx="0" cy="0" r="5" style="stroke : none; fill-opacity: 0.5"/></g><g style="display: none;" class="ResizeNWControl"><circle cx="0" cy="0" r="5" style="stroke : none; fill-opacity: 0.5"/></g><g style="display: none;" class="removeControl"><polygon style="stroke : none; fill-opacity: 0.1"/></g><g style="display: none;" class="copyPasteControl"><polygon style="stroke : none; fill-opacity: 0.1"/></g><g style="display: none;" class="translateControl"><polygon style="stroke : none; fill-opacity: 0.1; cursor:move"/></g></g></g></g></g></svg>
