<?xml version="1.0"?>
<svg xmlns="http://www.w3.org/2000/svg" xmlns:xlink="http://www.w3.org/1999/xlink" height="1226.4700298309326" version="1.1" width="1478.680025100708" id="temp" viewBox="0 0 1478.680025100708 1226.4700298309326"><defs/><g id="Model" class="Model v1-1"><g class="Floor"><g id="Floor-1" class="Floorplan Floor-1"><g id="c8e3f78f-cb50-4633-be9f-24daf4cc5d38" fill="#ffffff" stroke="#ffffff" style="fill-opacity: 1; stroke-opacity: 1; stroke-width: 0.2;" class="Space UserDefined"><polygon points="437.35,679.92 48.55,679.92 48.55,370.96 437.35,370.96 "/><g transform="matrix(1,0,0,1,48.5489,370.964)" class="Dimension"><g transform="matrix(1,0,0,1,0,0)" style="display: none;" class="Visual"><g id="mark1" fill="#000000" stroke="none" transform="matrix(1,0,0,1,194.4023,0)" style="fill-opacity: 1; pointer-events: visible;" class="DimensionMark"><polygon points="-5,5,0,0,5,5"/></g><g id="mark2" fill="#000000" stroke="none" transform="matrix(1,0,0,1,388.8046,154.4775)" style="fill-opacity: 1; pointer-events: visible;" class="DimensionMark"><polygon points="-5,-5,0,0,-5,5"/></g><g id="mark3" fill="#000000" stroke="none" transform="matrix(1,0,0,1,194.4023,308.955)" style="fill-opacity: 1; pointer-events: visible;" class="DimensionMark"><polygon points="-5,-5,0,0,5,-5"/></g><g id="mark4" fill="#000000" stroke="none" transform="matrix(1,0,0,1,0,154.4775)" style="fill-opacity: 1; pointer-events: visible;" class="DimensionMark"><polygon points="5,5,0,0,5,-5"/></g></g><g transform="matrix(1,0,0,1,117.5927,147.4029)" class="SpaceDimensionsLabel" style="display: block;"><g id="NameLabel" style="display: block;" class="TextLabel NameLabel"><text x="0" y="0em" fill="#000000" stroke="none" style="font-family: Verdana; font-size: 33px; fill-opacity: 1; cursor: default;">RT/MH</text></g><g id="DimensionMeasureLabel" transform="matrix(1,0,0,1,-53.3516,39.9687)" style="display: none;" class="TextLabel DimensionMeasureLabel"><text x="0" y="0em" fill="#000000" stroke="none" style="font-family: Verdana; font-size: 33px; fill-opacity: 1; cursor: default;">12'9" x 10'2"</text><text x="0" y="0"/></g></g></g></g><g id="e0f122b0-b485-47d3-8d4b-12c7599e4022" fill="#ffffff" stroke="#ffffff" style="fill-opacity: 1; stroke-opacity: 1; stroke-width: 0.2;" class="Space LivingRoom"><polygon points="1187.10,468.11 617.51,468.11 617.51,485.11 895.31,485.11 895.31,836.19 799.29,836.19 799.29,679.34 613.87,679.34 613.87,679.92 437.35,679.92 437.35,370.96 439.21,370.96 439.21,258.91 645.90,258.91 645.90,54.44 1187.10,54.44 "/><g transform="matrix(1,0,0,1,437.3535,54.4449)" class="Dimension"><g transform="matrix(1,0,0,1,0,0)" style="display: none;" class="Visual"><g id="mark1" fill="#000000" stroke="none" transform="matrix(1,0,0,1,374.8715,0)" style="fill-opacity: 1; pointer-events: visible;" class="DimensionMark"><polygon points="-5,5,0,0,5,5"/></g><g id="mark2" fill="#000000" stroke="none" transform="matrix(1,0,0,1,749.743,390.8728)" style="fill-opacity: 1; pointer-events: visible;" class="DimensionMark"><polygon points="-5,-5,0,0,-5,5"/></g><g id="mark3" fill="#000000" stroke="none" transform="matrix(1,0,0,1,374.8715,781.7455)" style="fill-opacity: 1; pointer-events: visible;" class="DimensionMark"><polygon points="-5,-5,0,0,5,-5"/></g><g id="mark4" fill="#000000" stroke="none" transform="matrix(1,0,0,1,0,390.8728)" style="fill-opacity: 1; pointer-events: visible;" class="DimensionMark"><polygon points="5,5,0,0,5,-5"/></g></g><g transform="matrix(1,0,0,1,458.2151,211.7212)" class="SpaceDimensionsLabel" style="display: block;"><g id="NameLabel" style="display: block;" class="TextLabel NameLabel"><text x="0" y="0em" fill="#000000" stroke="none" style="font-family: Verdana; font-size: 33px; fill-opacity: 1; cursor: default;">OH</text></g><g id="DimensionMeasureLabel" transform="matrix(1,0,0,1,-82.9297,39.75)" style="display: none;" class="TextLabel DimensionMeasureLabel"><text x="0" y="0em" fill="#000000" stroke="none" style="font-family: Verdana; font-size: 33px; fill-opacity: 1; cursor: default;">24'7" x 25'8"</text><text x="0" y="0"/></g></g></g></g><g id="f6fdda5a-a912-4c52-9f61-4b2617da6a3c" fill="#ffffff" stroke="#000000" style="fill-opacity: 1; stroke-opacity: 1; stroke-width: 0.2;" class="Space Outdoor Balcony"><polygon points="1205.20,52.89 1475.97,52.89 1475.97,479.48 1205.18,479.48 1205.18,48.18 1205.20,52.89 "/><g transform="matrix(1,0,0,1,1205.1812,52.8939)" class="Dimension"><g transform="matrix(1,0,0,1,0,0)" style="display: none;" class="Visual"><g id="mark1" fill="#000000" stroke="none" transform="matrix(1,0,0,1,135.3945,0)" style="fill-opacity: 1; pointer-events: visible;" class="DimensionMark"><polygon points="-5,5,0,0,5,5"/></g><g id="mark2" fill="#000000" stroke="none" transform="matrix(1,0,0,1,270.789,210.936)" style="fill-opacity: 1; pointer-events: visible;" class="DimensionMark"><polygon points="-5,-5,0,0,-5,5"/></g><g id="mark3" fill="#000000" stroke="none" transform="matrix(1,0,0,1,135.3945,426.5878)" style="fill-opacity: 1; pointer-events: visible;" class="DimensionMark"><polygon points="-5,-5,0,0,5,-5"/></g><g id="mark4" fill="#000000" stroke="none" transform="matrix(1,0,0,1,0,210.936)" style="fill-opacity: 1; pointer-events: visible;" class="DimensionMark"><polygon points="5,5,0,0,5,-5"/></g></g><g transform="matrix(1,0,0,1,69.9928,214.7803)" class="SpaceDimensionsLabel"><g id="NameLabel" style="display: block;" class="TextLabel NameLabel"><text x="0" y="0em" fill="#000000" stroke="none" style="font-family: Verdana; font-size: 33px; fill-opacity: 1; cursor: default;">PARVEKE</text></g><g id="DimensionMeasureLabel" transform="matrix(1,0,0,1,-32.4297,39.625)" style="display: none;" class="TextLabel DimensionMeasureLabel"><text x="0" y="0em" fill="#000000" stroke="none" style="font-family: Verdana; font-size: 33px; fill-opacity: 1; cursor: default;">8'11" x 14'0"</text><text x="0" y="0"/></g></g></g></g><g id="dda02cef-55f3-45c5-bdea-27ba40f4de70" fill="#ffffff" stroke="#ffffff" style="fill-opacity: 1; stroke-opacity: 1; stroke-width: 0.2;" class="Space Bedroom"><polygon points="1187.10,1210.47 799.29,1210.47 799.29,853.19 1187.10,853.19 "/><g transform="matrix(1,0,0,1,799.2928,853.1904)" class="Dimension"><g transform="matrix(1,0,0,1,0,0)" style="display: none;" class="Visual"><g id="mark1" fill="#000000" stroke="none" transform="matrix(1,0,0,1,193.9019,0)" style="fill-opacity: 1; pointer-events: visible;" class="DimensionMark"><polygon points="-5,5,0,0,5,5"/></g><g id="mark2" fill="#000000" stroke="none" transform="matrix(1,0,0,1,387.8037,178.6402)" style="fill-opacity: 1; pointer-events: visible;" class="DimensionMark"><polygon points="-5,-5,0,0,-5,5"/></g><g id="mark3" fill="#000000" stroke="none" transform="matrix(1,0,0,1,193.9019,357.2804)" style="fill-opacity: 1; pointer-events: visible;" class="DimensionMark"><polygon points="-5,-5,0,0,5,-5"/></g><g id="mark4" fill="#000000" stroke="none" transform="matrix(1,0,0,1,0,178.6402)" style="fill-opacity: 1; pointer-events: visible;" class="DimensionMark"><polygon points="5,5,0,0,5,-5"/></g></g><g transform="matrix(1,0,0,1,165.2907,186.0237)" class="SpaceDimensionsLabel" style="display: block;"><g id="NameLabel" style="display: block;" class="TextLabel NameLabel"><text x="0" y="0em" fill="#000000" stroke="none" style="font-family: Verdana; font-size: 33px; fill-opacity: 1; cursor: default;">MH</text></g><g id="DimensionMeasureLabel" transform="matrix(1,0,0,1,-82.0079,40.4219)" style="display: none;" class="TextLabel DimensionMeasureLabel"><text x="0" y="0em" fill="#000000" stroke="none" style="font-family: Verdana; font-size: 33px; fill-opacity: 1; cursor: default;">12'9" x 11'9"</text><text x="0" y="0"/></g></g></g></g><g id="ffd28abc-9612-4acc-88be-6f2d73b3b09d" fill="#ffffff" stroke="#ffffff" style="fill-opacity: 1; stroke-opacity: 1; stroke-width: 0.2;" class="Space Kitchen"><polygon points="427.21,350.96 48.55,350.96 47.90,54.44 427.21,54.44 "/><g transform="matrix(1,0,0,1,48.2249,54.4449)" class="Dimension"><g transform="matrix(1,0,0,1,0,0)" style="display: none;" class="Visual"><g id="mark1" fill="#000000" stroke="none" transform="matrix(1,0,0,1,189.3285,0)" style="fill-opacity: 1; pointer-events: visible;" class="DimensionMark"><polygon points="-5,5,0,0,5,5"/></g><g id="mark2" fill="#000000" stroke="none" transform="matrix(1,0,0,1,378.9809,148.2589)" style="fill-opacity: 1; pointer-events: visible;" class="DimensionMark"><polygon points="-5,-5,0,0,-5,5"/></g><g id="mark3" fill="#000000" stroke="none" transform="matrix(1,0,0,1,189.3285,296.5192)" style="fill-opacity: 1; pointer-events: visible;" class="DimensionMark"><polygon points="-5,-5,0,0,5,-5"/></g><g id="mark4" fill="#000000" stroke="none" transform="matrix(1,0,0,1,0,148.2589)" style="fill-opacity: 1; pointer-events: visible;" class="DimensionMark"><polygon points="5,5,0,0,5,-5"/></g></g><g transform="matrix(1,0,0,1,153.9896,188.1557)" class="SpaceDimensionsLabel" style="display: block;"><g id="NameLabel" style="display: block;" class="TextLabel NameLabel"><text x="0" y="0em" fill="#000000" stroke="none" style="font-family: Verdana; font-size: 33px; fill-opacity: 1; cursor: default;">K</text></g><g id="DimensionMeasureLabel" transform="matrix(1,0,0,1,-86.1797,39.7969)" style="display: none;" class="TextLabel DimensionMeasureLabel"><text x="0" y="0em" fill="#000000" stroke="none" style="font-family: Verdana; font-size: 33px; fill-opacity: 1; cursor: default;">12'5" x 9'9"</text><text x="0" y="0"/></g></g></g></g><g id="a213f3d8-83eb-4851-86cf-e8359ea19d34" fill="#ffffff" stroke="#ffffff" style="fill-opacity: 1; stroke-opacity: 1; stroke-width: 0.2;" class="Space Bedroom"><polygon points="1187.10,836.19 906.31,836.19 906.31,485.11 1187.10,485.11 "/><g transform="matrix(1,0,0,1,906.3081,485.1119)" class="Dimension"><g transform="matrix(1,0,0,1,0,0)" style="display: none;" class="Visual"><g id="mark1" fill="#000000" stroke="none" transform="matrix(1,0,0,1,140.3942,0)" style="fill-opacity: 1; pointer-events: visible;" class="DimensionMark"><polygon points="-5,5,0,0,5,5"/></g><g id="mark2" fill="#000000" stroke="none" transform="matrix(1,0,0,1,280.7884,175.5392)" style="fill-opacity: 1; pointer-events: visible;" class="DimensionMark"><polygon points="-5,-5,0,0,-5,5"/></g><g id="mark3" fill="#000000" stroke="none" transform="matrix(1,0,0,1,140.3942,351.0784)" style="fill-opacity: 1; pointer-events: visible;" class="DimensionMark"><polygon points="-5,-5,0,0,5,-5"/></g><g id="mark4" fill="#000000" stroke="none" transform="matrix(1,0,0,1,0,175.5392)" style="fill-opacity: 1; pointer-events: visible;" class="DimensionMark"><polygon points="5,5,0,0,5,-5"/></g></g><g transform="matrix(1,0,0,1,121.071,187.4305)" class="SpaceDimensionsLabel" style="display: block;"><g id="NameLabel" style="display: block;" class="TextLabel NameLabel"><text x="0" y="0em" fill="#000000" stroke="none" style="font-family: Verdana; font-size: 33px; fill-opacity: 1; cursor: default;">MH</text></g><g id="DimensionMeasureLabel" transform="matrix(1,0,0,1,-71.5156,39.9844)" style="display: none;" class="TextLabel DimensionMeasureLabel"><text x="0" y="0em" fill="#000000" stroke="none" style="font-family: Verdana; font-size: 33px; fill-opacity: 1; cursor: default;">9'3" x 11'6"</text><text x="0" y="0"/></g></g></g></g><g id="2712bb28-e5fd-4472-8ccb-f2efe75fecd2" fill="#ffffff" stroke="#ffffff" style="fill-opacity: 1; stroke-opacity: 1; stroke-width: 0.2;" class="Space Bath"><polygon points="633.90,246.91 439.21,246.91 439.21,54.44 633.90,54.44 "/><g transform="matrix(1,0,0,1,439.2058,54.4449)" class="Dimension"><g transform="matrix(1,0,0,1,0,0)" style="display: none;" class="Visual"><g id="mark1" fill="#000000" stroke="none" transform="matrix(1,0,0,1,97.3496,0)" style="fill-opacity: 1; pointer-events: visible;" class="DimensionMark"><polygon points="-5,5,0,0,5,5"/></g><g id="mark2" fill="#000000" stroke="none" transform="matrix(1,0,0,1,194.6991,96.233)" style="fill-opacity: 1; pointer-events: visible;" class="DimensionMark"><polygon points="-5,-5,0,0,-5,5"/></g><g id="mark3" fill="#000000" stroke="none" transform="matrix(1,0,0,1,97.3496,192.4659)" style="fill-opacity: 1; pointer-events: visible;" class="DimensionMark"><polygon points="-5,-5,0,0,5,-5"/></g><g id="mark4" fill="#000000" stroke="none" transform="matrix(1,0,0,1,0,96.233)" style="fill-opacity: 1; pointer-events: visible;" class="DimensionMark"><polygon points="5,5,0,0,5,-5"/></g></g><g transform="matrix(1,0,0,1,69.7955,110.9284)" class="SpaceDimensionsLabel" style="display: block;"><g id="NameLabel" style="display: block;" class="TextLabel NameLabel"><text x="0" y="0em" fill="#000000" stroke="none" style="font-family: Verdana; font-size: 33px; fill-opacity: 1; cursor: default;">KPH</text></g><g id="DimensionMeasureLabel" transform="matrix(1,0,0,1,-53.5469,40.1407)" style="display: none;" class="TextLabel DimensionMeasureLabel"><text x="0" y="0em" fill="#000000" stroke="none" style="font-family: Verdana; font-size: 33px; fill-opacity: 1; cursor: default;">6'5" x 6'4"</text><text x="0" y="0"/></g></g></g></g><g id="1b1b427f-1d8d-4d15-8738-63698f068e81" fill="#ffffff" stroke="#ffffff" style="fill-opacity: 1; stroke-opacity: 1; stroke-width: 0.2;" class="Space Bath"><polygon points="788.29,836.19 633.87,836.19 633.87,690.34 788.29,690.34 "/><g transform="matrix(1,0,0,1,633.8743,690.3443)" class="Dimension"><g transform="matrix(1,0,0,1,0,0)" style="display: none;" class="Visual"><g id="mark1" fill="#000000" stroke="none" transform="matrix(1,0,0,1,77.2092,0)" style="fill-opacity: 1; pointer-events: visible;" class="DimensionMark"><polygon points="-5,5,0,0,5,5"/></g><g id="mark2" fill="#000000" stroke="none" transform="matrix(1,0,0,1,154.4185,72.923)" style="fill-opacity: 1; pointer-events: visible;" class="DimensionMark"><polygon points="-5,-5,0,0,-5,5"/></g><g id="mark3" fill="#000000" stroke="none" transform="matrix(1,0,0,1,77.2092,145.846)" style="fill-opacity: 1; pointer-events: visible;" class="DimensionMark"><polygon points="-5,-5,0,0,5,-5"/></g><g id="mark4" fill="#000000" stroke="none" transform="matrix(1,0,0,1,0,72.923)" style="fill-opacity: 1; pointer-events: visible;" class="DimensionMark"><polygon points="5,5,0,0,5,-5"/></g></g><g transform="matrix(1,0,0,1,53.5413,87.69)" class="SpaceDimensionsLabel" style="display: block;"><g id="NameLabel" style="display: block;" class="TextLabel NameLabel"><text x="0" y="0em" fill="#000000" stroke="none" style="font-family: Verdana; font-size: 33px; fill-opacity: 1; cursor: default;">WC</text></g><g id="DimensionMeasureLabel" transform="matrix(1,0,0,1,-59.5,39.9844)" style="display: none;" class="TextLabel DimensionMeasureLabel"><text x="0" y="0em" fill="#000000" stroke="none" style="font-family: Verdana; font-size: 33px; fill-opacity: 1; cursor: default;">5'1" x 4'9"</text><text x="0" y="0"/></g></g></g></g><g id="0353605e-917a-410b-ac2c-ece7a8dbdb03" fill="#ffffff" stroke="#ffffff" style="fill-opacity: 1; stroke-opacity: 1; stroke-width: 0.2;" class="Space Closet WalkIn"><polygon points="788.29,987.89 633.87,987.89 633.87,853.19 788.29,853.19 "/><g transform="matrix(1,0,0,1,633.8743,853.1904)" class="Dimension"><g transform="matrix(1,0,0,1,0,0)" style="display: none;" class="Visual"><g id="mark1" fill="#000000" stroke="none" transform="matrix(1,0,0,1,77.2092,0)" style="fill-opacity: 1; pointer-events: visible;" class="DimensionMark"><polygon points="-5,5,0,0,5,5"/></g><g id="mark2" fill="#000000" stroke="none" transform="matrix(1,0,0,1,154.4185,67.3496)" style="fill-opacity: 1; pointer-events: visible;" class="DimensionMark"><polygon points="-5,-5,0,0,-5,5"/></g><g id="mark3" fill="#000000" stroke="none" transform="matrix(1,0,0,1,77.2092,134.6993)" style="fill-opacity: 1; pointer-events: visible;" class="DimensionMark"><polygon points="-5,-5,0,0,5,-5"/></g><g id="mark4" fill="#000000" stroke="none" transform="matrix(1,0,0,1,0,67.3496)" style="fill-opacity: 1; pointer-events: visible;" class="DimensionMark"><polygon points="5,5,0,0,5,-5"/></g></g><g transform="matrix(1,0,0,1,53.5056,81.1937)" class="SpaceDimensionsLabel" style="display: block;"><g id="NameLabel" style="display: block;" class="TextLabel NameLabel"><text x="0" y="0em" fill="#000000" stroke="none" style="font-family: Verdana; font-size: 33px; fill-opacity: 1; cursor: default;">VH</text></g><g id="DimensionMeasureLabel" transform="matrix(1,0,0,1,-63.6563,39.9844)" style="display: none;" class="TextLabel DimensionMeasureLabel"><text x="0" y="0em" fill="#000000" stroke="none" style="font-family: Verdana; font-size: 33px; fill-opacity: 1; cursor: default;">5'1" x 4'5"</text><text x="0" y="0"/></g></g></g></g><g id="Wall" fill="#000000" stroke="#000000" style="fill-opacity: 1; stroke-opacity: 1; stroke-width: 0.2;" class="Wall External"><polygon points="16.78,18.44 1216.10,18.44 1187.10,54.44 47.90,54.44 "/></g><g id="Wall" fill="#000000" stroke="#000000" style="fill-opacity: 1; stroke-opacity: 1; stroke-width: 0.2;" class="Wall External"><polygon points="1216.10,18.44 1216.10,1226.47 1187.10,1210.47 1187.10,54.44 "/><g id="Window" fill="#f0f0ff" stroke="#000000" style="fill-opacity: 1; stroke-width: 1; stroke-opacity: 1;" class="Window Regular"><polygon points="1216.10,110.08 1216.10,328.60 1187.10,328.60 1187.10,110.08 "/><g id="Glass" class="Glass"><polygon points="1216.10,110.08 1216.10,328.60 1187.10,328.60 1187.10,110.08 "/></g><g id="Panel" class="Panel"><line x1="1201.596524184591" x2="1201.596524184591" y1="117.57826447615159" y2="321.10063878781057"/><line x1="1216.096524184591" x2="1187.096524184591" y1="117.57826447615159" y2="117.57826447615159"/><line x1="1216.096524184591" x2="1187.096524184591" y1="321.10063878781057" y2="321.10063878781057"/></g></g><g id="Door" fill="#ffffff" stroke="#000000" style="fill-opacity: 1; stroke-width: 1; stroke-opacity: 1;" class="Door Swing Beside"><polygon points="1216.10,335.54 1216.10,422.25 1187.10,422.25 1187.10,335.54 "/><g id="Threshold" class="Threshold"><polygon points="1216.10,335.54 1216.10,422.25 1187.10,422.25 1187.10,335.54 "/></g><g id="Panel" fill="none" style="" class="Panel Left Negative"><g id="PanelArea" fill="none" stroke="none" style="" class="PanelArea"><polygon points="1216.10,335.54 1216.10,422.25 1187.10,422.25 1187.10,335.54 "/></g><path d="M1216.10,335.54 q86.72,0.00 86.72,86.72 l-86.72,0.00Z"/></g></g><g id="Window" fill="#f0f0ff" stroke="#000000" style="fill-opacity: 1; stroke-width: 1; stroke-opacity: 1;" class="Window Regular"><polygon points="1216.10,576.03 1216.10,761.02 1187.10,761.02 1187.10,576.03 "/><g id="Glass" class="Glass"><polygon points="1216.10,576.03 1216.10,761.02 1187.10,761.02 1187.10,576.03 "/></g><g id="Panel" class="Panel"><line x1="1201.596524184591" x2="1201.596524184591" y1="583.5281020915688" y2="753.5205882813332"/><line x1="1216.096524184591" x2="1187.096524184591" y1="583.5281020915688" y2="583.5281020915688"/><line x1="1216.096524184591" x2="1187.096524184591" y1="753.5205882813332" y2="753.5205882813332"/></g></g><g id="Window" fill="#f0f0ff" stroke="#000000" style="fill-opacity: 1; stroke-width: 1; stroke-opacity: 1;" class="Window Regular"><polygon points="1216.10,930.98 1216.10,1131.01 1187.10,1131.01 1187.10,930.98 "/><g id="Glass" class="Glass"><polygon points="1216.10,930.98 1216.10,1131.01 1187.10,1131.01 1187.10,930.98 "/></g><g id="Panel" class="Panel"><line x1="1201.596524184591" x2="1201.596524184591" y1="938.4824441338835" y2="1123.5055698265662"/><line x1="1216.096524184591" x2="1187.096524184591" y1="938.4824441338835" y2="938.4824441338835"/><line x1="1216.096524184591" x2="1187.096524184591" y1="1123.5055698265662" y2="1123.5055698265662"/></g></g></g><g id="Wall" fill="#000000" stroke="#000000" style="fill-opacity: 1; stroke-opacity: 1; stroke-width: 0.2;" class="Wall External"><polygon points="1216.10,1226.47 783.29,1226.47 799.29,1210.47 1187.10,1210.47 "/></g><g id="Wall" fill="#000000" stroke="#000000" style="fill-opacity: 1; stroke-opacity: 1; stroke-width: 0.2;" class="Wall External"><polygon points="783.29,1226.47 783.29,997.89 799.29,987.89 799.29,1210.47 "/></g><g id="Wall" fill="#000000" stroke="#000000" style="fill-opacity: 1; stroke-opacity: 1; stroke-width: 0.2;" class="Wall External"><polygon points="783.29,997.89 613.87,997.89 633.87,987.89 799.29,987.89 "/></g><g id="Wall" fill="#000000" stroke="#000000" style="fill-opacity: 1; stroke-opacity: 1; stroke-width: 0.2;" class="Wall External"><polygon points="613.87,997.89 613.87,699.92 633.87,679.92 633.87,987.89 "/></g><g id="Wall" fill="#000000" stroke="#000000" style="fill-opacity: 1; stroke-opacity: 1; stroke-width: 0.2;" class="Wall External"><polygon points="613.87,699.92 17.48,699.92 48.55,679.92 633.87,679.92 "/><g id="Door" fill="#ffffff" stroke="#000000" style="fill-opacity: 1; stroke-width: 1; stroke-opacity: 1;" class="Door Swing Opposite"><polygon points="608.17,699.92 516.57,699.92 516.57,679.92 608.17,679.92 "/><g id="Threshold" class="Threshold"><polygon points="608.17,699.92 516.57,699.92 516.57,679.92 608.17,679.92 "/></g><g id="Panel" fill="none" style="" class="Panel Right Negative"><g id="PanelArea" fill="none" stroke="none" style="" class="PanelArea"><polygon points="608.17,699.92 516.57,699.92 516.57,679.92 608.17,679.92 "/></g><path d="M516.57,699.92 q0.00,91.60 91.60,91.60 l0.00,-91.60Z"/></g><g id="Panel" fill="none" style="" class="Panel Left Positive"><g id="PanelArea" fill="none" stroke="none" style="" class="PanelArea"><polygon points="608.17,699.92 516.57,699.92 516.57,679.92 608.17,679.92 "/></g><path d="M516.57,679.92 q0.00,-91.60 91.60,-91.60 l0.00,91.60Z"/></g></g></g><g id="Wall" fill="#000000" stroke="#000000" style="fill-opacity: 1; stroke-opacity: 1; stroke-width: 0.2;" class="Wall External"><polygon points="17.48,699.92 16.78,18.44 47.90,54.44 48.55,679.92 "/><g id="Window" fill="#f0f0ff" stroke="#000000" style="fill-opacity: 1; stroke-width: 1; stroke-opacity: 1;" class="Window Regular"><polygon points="17.08,310.12 16.88,115.89 47.96,115.85 48.17,310.09 "/><g id="Glass" class="Glass"><polygon points="17.08,310.12 16.88,115.89 47.96,115.85 48.17,310.09 "/></g><g id="Panel" class="Panel"><line x1="32.61464392208318" x2="32.42896405855103" y1="302.6061545073766" y2="123.36903546392463"/><line x1="17.07128636130984" x2="48.15800148285653" y1="302.6222565766696" y2="302.5900524380836"/><line x1="16.88560649777769" x2="47.972321619324376" y1="123.38513753321766" y2="123.35293339463165"/></g></g><g id="Window" fill="#f0f0ff" stroke="#000000" style="fill-opacity: 1; stroke-width: 1; stroke-opacity: 1;" class="Window Regular"><polygon points="17.38,602.64 17.18,411.87 48.27,411.83 48.47,602.60 "/><g id="Glass" class="Glass"><polygon points="17.38,602.64 17.18,411.87 48.27,411.83 48.47,602.60 "/></g><g id="Panel" class="Panel"><line x1="32.917671496624806" x2="32.73558367797322" y1="595.1192381469506" y2="419.34952673521036"/><line x1="17.37431393585146" x2="48.46102905739815" y1="595.1353402162435" y2="595.1031360776575"/><line x1="17.192226117199873" x2="48.278941238746555" y1="419.36562880450333" y2="419.33342466591733"/></g></g></g><g id="Wall" fill="#000000" stroke="#000000" style="fill-opacity: 1; stroke-opacity: 1; stroke-width: 0.2;" class="Wall"><polygon points="17.14,370.96 439.21,370.96 427.21,350.96 17.14,350.96 "/></g><g id="Wall" fill="#000000" stroke="#000000" style="fill-opacity: 1; stroke-opacity: 1; stroke-width: 0.2;" class="Wall"><polygon points="439.21,370.96 439.21,18.44 427.21,18.44 427.21,350.96 "/><g id="Door" fill="#ffffff" stroke="#000000" style="fill-opacity: 1; stroke-width: 1; stroke-opacity: 1;" class="Door Swing Beside"><polygon points="439.21,344.79 439.21,267.58 427.21,267.58 427.21,344.79 "/><g id="Threshold" class="Threshold"><polygon points="439.21,344.79 439.21,267.58 427.21,267.58 427.21,344.79 "/></g><g id="Panel" fill="none" style="" class="Panel Left Positive"><g id="PanelArea" fill="none" stroke="none" style="" class="PanelArea"><polygon points="439.21,344.79 439.21,267.58 427.21,267.58 427.21,344.79 "/></g><path d="M427.21,267.58 q-77.21,0.00 -77.21,77.21 l77.21,0.00Z"/></g></g></g><g id="Wall" fill="#000000" stroke="#000000" style="fill-opacity: 1; stroke-opacity: 1; stroke-width: 0.2;" class="Wall"><polygon points="427.21,258.91 645.90,258.91 633.90,246.91 427.21,246.91 "/><g id="Door" fill="#ffffff" stroke="#000000" style="fill-opacity: 1; stroke-width: 1; stroke-opacity: 1;" class="Door Swing Beside"><polygon points="512.35,258.91 597.50,258.91 597.50,246.91 512.35,246.91 "/><g id="Threshold" class="Threshold"><polygon points="512.35,258.91 597.50,258.91 597.50,246.91 512.35,246.91 "/></g><g id="Panel" fill="none" style="" class="Panel Left Negative"><g id="PanelArea" fill="none" stroke="none" style="" class="PanelArea"><polygon points="512.35,258.91 597.50,258.91 597.50,246.91 512.35,246.91 "/></g><path d="M512.35,258.91 q0.00,85.15 85.15,85.15 l0.00,-85.15Z"/></g></g></g><g id="Wall" fill="#000000" stroke="#000000" style="fill-opacity: 1; stroke-opacity: 1; stroke-width: 0.2;" class="Wall"><polygon points="645.90,258.91 645.90,18.44 633.90,18.44 633.90,246.91 "/></g><g id="Wall" fill="#000000" stroke="#000000" style="fill-opacity: 1; stroke-opacity: 1; stroke-width: 0.2;" class="Wall"><polygon points="617.51,485.11 1478.68,485.11 1478.68,468.11 617.51,468.11 "/></g><g id="Railing" fill="#ffffff" stroke="#000000" style="fill-opacity: 1; stroke-opacity: 1; stroke-width: 0.2;" class="Railing"><polygon points="1478.68,468.11 1478.68,44.43 1461.68,44.43 1461.68,468.11 " style="stroke-dasharray: 0;"/></g><g id="Wall" fill="#000000" stroke="#000000" style="fill-opacity: 1; stroke-opacity: 1; stroke-width: 0.2;" class="Wall"><polygon points="1187.10,59.85 1478.47,59.85 1478.47,42.85 1187.10,42.85 "/></g><g id="Wall" fill="#000000" stroke="#000000" style="fill-opacity: 1; stroke-opacity: 1; stroke-width: 0.2;" class="Wall"><polygon points="613.87,853.19 1216.10,853.19 1216.10,836.19 613.87,836.19 "/><g id="Door" fill="#ffffff" stroke="#000000" style="fill-opacity: 1; stroke-width: 1; stroke-opacity: 1;" class="Door Swing Beside"><polygon points="804.00,853.19 890.07,853.19 890.07,836.19 804.00,836.19 "/><g id="Threshold" class="Threshold"><polygon points="804.00,853.19 890.07,853.19 890.07,836.19 804.00,836.19 "/></g><g id="Panel" fill="none" style="" class="Panel Left Positive"><g id="PanelArea" fill="none" stroke="none" style="" class="PanelArea"><polygon points="804.00,853.19 890.07,853.19 890.07,836.19 804.00,836.19 "/></g><path d="M890.07,836.19 q0.00,-86.07 -86.07,-86.07 l0.00,86.07Z"/></g></g></g><g id="Wall" fill="#000000" stroke="#000000" style="fill-opacity: 1; stroke-opacity: 1; stroke-width: 0.2;" class="Wall"><polygon points="799.29,987.89 799.29,679.34 788.29,690.34 788.29,987.89 "/><g id="Door" fill="#ffffff" stroke="#000000" style="fill-opacity: 1; stroke-width: 1; stroke-opacity: 1;" class="Door Swing Beside"><polygon points="799.29,983.94 799.29,912.09 788.29,912.09 788.29,983.94 "/><g id="Threshold" class="Threshold"><polygon points="799.29,983.94 799.29,912.09 788.29,912.09 788.29,983.94 "/></g><g id="Panel" fill="none" style="" class="Panel Right Negative"><g id="PanelArea" fill="none" stroke="none" style="" class="PanelArea"><polygon points="799.29,983.94 799.29,912.09 788.29,912.09 788.29,983.94 "/></g><path d="M799.29,912.09 q71.86,0.00 71.86,71.86 l-71.86,0.00Z"/></g></g></g><g id="Wall" fill="#000000" stroke="#000000" style="fill-opacity: 1; stroke-opacity: 1; stroke-width: 0.2;" class="Wall"><polygon points="799.29,679.34 613.87,679.34 613.87,690.34 788.29,690.34 "/><g id="Door" fill="#ffffff" stroke="#000000" style="fill-opacity: 1; stroke-width: 1; stroke-opacity: 1;" class="Door Swing Beside"><polygon points="766.89,679.34 697.40,679.34 697.40,690.34 766.89,690.34 "/><g id="Threshold" class="Threshold"><polygon points="766.89,679.34 697.40,679.34 697.40,690.34 766.89,690.34 "/></g><g id="Panel" fill="none" style="" class="Panel Right Negative"><g id="PanelArea" fill="none" stroke="none" style="" class="PanelArea"><polygon points="766.89,679.34 697.40,679.34 697.40,690.34 766.89,690.34 "/></g><path d="M697.40,679.34 q0.00,-69.49 69.49,-69.49 l0.00,69.49Z"/></g></g></g><g id="Wall" fill="#000000" stroke="#000000" style="fill-opacity: 1; stroke-opacity: 1; stroke-width: 0.2;" class="Wall"><polygon points="895.31,468.11 895.31,853.19 906.31,853.19 906.31,468.11 "/><g id="Door" fill="#ffffff" stroke="#000000" style="fill-opacity: 1; stroke-width: 1; stroke-opacity: 1;" class="Door Swing Beside"><polygon points="895.31,550.43 895.31,634.92 906.31,634.92 906.31,550.43 "/><g id="Threshold" class="Threshold"><polygon points="895.31,550.43 895.31,634.92 906.31,634.92 906.31,550.43 "/></g><g id="Panel" fill="none" style="" class="Panel Right Negative"><g id="PanelArea" fill="none" stroke="none" style="" class="PanelArea"><polygon points="895.31,550.43 895.31,634.92 906.31,634.92 906.31,550.43 "/></g><path d="M895.31,634.92 q-84.49,0.00 -84.49,-84.49 l84.49,0.00Z"/></g></g></g><g transform="matrix(1,0,0,1,47.1489,117.441)" class="FixedFurniture BaseCabinet" fill="#ffffff" stroke="#000000" style="fill-opacity: 1; stroke-opacity: 1; stroke-width: 1;"><desc>Width:60 Height:90 Depth:60 Elevation:0</desc><g class="BoundaryPolygon"><polygon points="0.00,0.00 319.52,-0.00 319.52,141.33 378.89,141.33 378.89,-62.18 0.75,-63.00 0.75,-1.36 "/></g></g><g fill="#0000ff" stroke="#0000ff" style="display: none;" class="SelectionControls"><g style="display: none;" class="rotateControl"><circle cx="221.09471861520615" cy="455.3669049042683" r="5" style="stroke : none; fill-opacity: 0.5; cursor:crosshair"/></g><g style="display: none;" class="ResizeNControl"><circle cx="0" cy="0" r="5" style="stroke : none; fill-opacity: 0.5"/></g><g style="display: none;" class="ResizeNEControl"><circle cx="0" cy="0" r="5" style="stroke : none; fill-opacity: 0.5"/></g><g style="display: none;" class="ResizeEControl"><circle cx="0" cy="0" r="5" style="stroke : none; fill-opacity: 0.5"/></g><g style="display: none;" class="ResizeSEControl"><circle cx="0" cy="0" r="5" style="stroke : none; fill-opacity: 0.5"/></g><g style="display: none;" class="ResizeSControl"><circle cx="0" cy="0" r="5" style="stroke : none; fill-opacity: 0.5"/></g><g style="display: none;" class="ResizeSWControl"><circle cx="0" cy="0" r="5" style="stroke : none; fill-opacity: 0.5"/></g><g style="display: none;" class="ResizeWControl"><circle cx="0" cy="0" r="5" style="stroke : none; fill-opacity: 0.5"/></g><g style="display: none;" class="ResizeNWControl"><circle cx="0" cy="0" r="5" style="stroke : none; fill-opacity: 0.5"/></g><g style="display: none;" class="removeControl"><polygon style="stroke : none; fill-opacity: 0.1" points="166.14,485.37 276.05,485.37 276.05,525.12 166.14,525.12 "/></g><g style="display: none;" class="copyPasteControl"><polygon style="stroke : none; fill-opacity: 0.1"/></g><g style="display: none;" class="translateControl"><polygon style="stroke : none; fill-opacity: 0.1; cursor:move" points="166.14,485.37 276.05,485.37 276.05,525.12 166.14,525.12 "/></g></g><g fill="#0000ff" stroke="#0000ff" style="display: none;" class="SelectionControls"><polygon fill="none" stroke="#0000ff" style="" points="48.55,370.96 437.35,370.96 437.35,679.92 48.55,679.92 "/><g style="display: none;" class="rotateControl"><circle cx="242.95119158883898" cy="340.96400490426834" r="5" style="stroke : none; fill-opacity: 0.5; cursor:crosshair"/></g><g style="display: none;" class="ResizeNControl"><circle cx="0" cy="0" r="5" style="stroke : none; fill-opacity: 0.5"/></g><g style="display: none;" class="ResizeNEControl"><circle cx="0" cy="0" r="5" style="stroke : none; fill-opacity: 0.5"/></g><g style="display: none;" class="ResizeEControl"><circle cx="0" cy="0" r="5" style="stroke : none; fill-opacity: 0.5"/></g><g style="display: none;" class="ResizeSEControl"><circle cx="0" cy="0" r="5" style="stroke : none; fill-opacity: 0.5"/></g><g style="display: none;" class="ResizeSControl"><circle cx="0" cy="0" r="5" style="stroke : none; fill-opacity: 0.5"/></g><g style="display: none;" class="ResizeSWControl"><circle cx="0" cy="0" r="5" style="stroke : none; fill-opacity: 0.5"/></g><g style="display: none;" class="ResizeWControl"><circle cx="0" cy="0" r="5" style="stroke : none; fill-opacity: 0.5"/></g><g style="display: none;" class="ResizeNWControl"><circle cx="0" cy="0" r="5" style="stroke : none; fill-opacity: 0.5"/></g><g style="display: none;" class="removeControl"><polygon style="stroke : none; fill-opacity: 0.1"/></g><g style="display: none;" class="copyPasteControl"><polygon style="stroke : none; fill-opacity: 0.1"/></g><g style="display: none;" class="translateControl"><polygon style="stroke : none; fill-opacity: 0.1; cursor:move"/></g></g><g class="FixedFurniture Closet" fill="#ffffff" stroke="#000000" transform="matrix(1,0,0,1,618.2882,485.1588)" style="fill-opacity: 1; stroke-opacity: 1; stroke-width: 1;">
        <g class="BoundaryPolygon">
            <polygon points="0.00,0.00 277.02,0.00 277.02,60.00 0.00,60.00 "/>
        </g>
        <g class="Direction" fill-opacity="0.9" style="display: none;">
            <polygon points="145.48,54.70 145.48,44.08 142.47,44.08 142.47,54.70 138.66,54.70 143.97,60.00 149.27,54.70 145.48,54.70 " fill="#444444"/>
        </g> 
        <g class="Name" fill-opacity="0.9" style="display: none;">
            <text transform="translate(3 12)" font-size="12" font-family="Verdana, Sans-Serif">CL</text>
        </g>
        <desc>Width:60 Height:200 Depth:60 Elevation:0</desc>
     </g></g></g></g></svg>
