<?xml version="1.0"?>
<svg xmlns="http://www.w3.org/2000/svg" xmlns:xlink="http://www.w3.org/1999/xlink" height="508.29999923706055" version="1.1" width="1422.7848434448242" id="temp" viewBox="0 0 1422.7848434448242 508.29999923706055"><defs/><g id="Model" class="Model v1-1"><g class="Floor"><g id="Floor-1" class="Floorplan Floor-1"><g id="01b8f4b3-3613-4535-a068-4f21a5cf77b7" fill="#ffffff" stroke="#ffffff" style="fill-opacity: 1; stroke-opacity: 1; stroke-width: 0.2;" class="Space Undefined"><polygon points="812.26,333.08 984.32,333.08 984.32,478.30 561.97,478.30 561.97,415.44 531.16,415.44 531.16,322.08 812.26,322.08 "/><g transform="matrix(1,0,0,1,531.1562,322.0843)" class="Dimension"><g transform="matrix(1,0,0,1,0,0)" style="display: none;" class="Visual"><g id="mark1" fill="#000000" stroke="none" transform="matrix(1,0,0,1,226.5813,0)" style="fill-opacity: 1; pointer-events: visible;" class="DimensionMark"><polygon points="-5,5,0,0,5,5"/></g><g id="mark2" fill="#000000" stroke="none" transform="matrix(1,0,0,1,453.1625,78.1054)" style="fill-opacity: 1; pointer-events: visible;" class="DimensionMark"><polygon points="-5,-5,0,0,-5,5"/></g><g id="mark3" fill="#000000" stroke="none" transform="matrix(1,0,0,1,226.5813,156.2108)" style="fill-opacity: 1; pointer-events: visible;" class="DimensionMark"><polygon points="-5,-5,0,0,5,-5"/></g><g id="mark4" fill="#000000" stroke="none" transform="matrix(1,0,0,1,0,78.1054)" style="fill-opacity: 1; pointer-events: visible;" class="DimensionMark"><polygon points="5,5,0,0,5,-5"/></g></g><g transform="matrix(1,0,0,1,234.3162,78.1054)" class="SpaceDimensionsLabel"><g id="NameLabel" style="display: block;" class="TextLabel NameLabel"><text x="0" y="0em" fill="#000000" stroke="none" style="font-family: Verdana; font-size: 33px; fill-opacity: 1; cursor: default;">UNDEFINED</text></g><g id="DimensionMeasureLabel" transform="matrix(1,0,0,1,-8.8281,39.5625)" style="display: none;" class="TextLabel DimensionMeasureLabel"><text x="0" y="0em" fill="#000000" stroke="none" style="font-family: Verdana; font-size: 33px; fill-opacity: 1; cursor: default;">14'10" x 5'2"</text><text x="0" y="0"/></g></g></g></g><g id="92174f0b-21ba-4a71-8678-91cdff5a717d" fill="#ffffff" stroke="#ffffff" style="fill-opacity: 1; stroke-opacity: 1; stroke-width: 0.2;" class="Space Undefined"><polygon points="812.26,203.48 750.80,203.48 750.80,234.49 812.26,234.49 812.26,322.08 678.91,322.08 678.91,311.08 542.16,311.08 542.16,58.52 812.26,58.52 "/><g transform="matrix(1,0,0,1,542.1562,58.5244)" class="Dimension"><g transform="matrix(1,0,0,1,0,0)" style="display: none;" class="Visual"><g id="mark1" fill="#000000" stroke="none" transform="matrix(1,0,0,1,136.7557,0)" style="fill-opacity: 1; pointer-events: visible;" class="DimensionMark"><polygon points="-5,5,0,0,5,5"/></g><g id="mark2" fill="#000000" stroke="none" transform="matrix(1,0,0,1,270.0996,131.7799)" style="fill-opacity: 1; pointer-events: visible;" class="DimensionMark"><polygon points="-5,-5,0,0,-5,5"/></g><g id="mark3" fill="#000000" stroke="none" transform="matrix(1,0,0,1,136.7557,263.5599)" style="fill-opacity: 1; pointer-events: visible;" class="DimensionMark"><polygon points="-5,-5,0,0,5,-5"/></g><g id="mark4" fill="#000000" stroke="none" transform="matrix(1,0,0,1,0,131.7799)" style="fill-opacity: 1; pointer-events: visible;" class="DimensionMark"><polygon points="5,5,0,0,5,-5"/></g></g><g transform="matrix(1,0,0,1,107.586,107.586)" class="SpaceDimensionsLabel"><g id="NameLabel" style="display: block;" class="TextLabel NameLabel"><text x="0" y="0em" fill="#000000" stroke="none" style="font-family: Verdana; font-size: 33px; fill-opacity: 1; cursor: default;">UNDEFINED</text></g><g id="DimensionMeasureLabel" transform="matrix(1,0,0,1,1.664,39.5625)" style="display: none;" class="TextLabel DimensionMeasureLabel"><text x="0" y="0em" fill="#000000" stroke="none" style="font-family: Verdana; font-size: 33px; fill-opacity: 1; cursor: default;">8'10" x 8'8"</text><text x="0" y="0"/></g></g></g></g><g id="1c3d9489-815b-4944-957f-4fe0e04b25ed" fill="#ffffff" stroke="#ffffff" style="fill-opacity: 1; stroke-opacity: 1; stroke-width: 0.2;" class="Space Undefined"><polygon points="531.16,478.30 233.50,478.30 233.50,58.52 531.16,58.52 "/><g transform="matrix(1,0,0,1,233.4956,58.5244)" class="Dimension"><g transform="matrix(1,0,0,1,0,0)" style="display: none;" class="Visual"><g id="mark1" fill="#000000" stroke="none" transform="matrix(1,0,0,1,148.8303,0)" style="fill-opacity: 1; pointer-events: visible;" class="DimensionMark"><polygon points="-5,5,0,0,5,5"/></g><g id="mark2" fill="#000000" stroke="none" transform="matrix(1,0,0,1,297.6606,209.8853)" style="fill-opacity: 1; pointer-events: visible;" class="DimensionMark"><polygon points="-5,-5,0,0,-5,5"/></g><g id="mark3" fill="#000000" stroke="none" transform="matrix(1,0,0,1,148.8303,419.7707)" style="fill-opacity: 1; pointer-events: visible;" class="DimensionMark"><polygon points="-5,-5,0,0,5,-5"/></g><g id="mark4" fill="#000000" stroke="none" transform="matrix(1,0,0,1,0,209.8853)" style="fill-opacity: 1; pointer-events: visible;" class="DimensionMark"><polygon points="5,5,0,0,5,-5"/></g></g><g transform="matrix(1,0,0,1,148.8303,209.8854)" class="SpaceDimensionsLabel"><g id="NameLabel" style="display: block;" class="TextLabel NameLabel"><text x="0" y="0em" fill="#000000" stroke="none" style="font-family: Verdana; font-size: 33px; fill-opacity: 1; cursor: default;">UNDEFINED</text></g><g id="DimensionMeasureLabel" transform="matrix(1,0,0,1,1.664,39.5625)" style="display: none;" class="TextLabel DimensionMeasureLabel"><text x="0" y="0em" fill="#000000" stroke="none" style="font-family: Verdana; font-size: 33px; fill-opacity: 1; cursor: default;">9'9" x 13'9"</text><text x="0" y="0"/></g></g></g></g><g id="c9985672-b53f-4bba-aafb-e69d660cbd60" fill="#ffffff" stroke="#000000" style="fill-opacity: 1; stroke-opacity: 1; stroke-width: 0.2;" class="Space Outdoor"><polygon points="203.50,420.85 39.57,420.85 39.57,58.52 203.50,58.52 203.50,420.85 203.50,420.85 "/><g transform="matrix(1,0,0,1,39.5699,58.5244)" class="Dimension"><g transform="matrix(1,0,0,1,0,0)" style="display: none;" class="Visual"><g id="mark1" fill="#000000" stroke="none" transform="matrix(1,0,0,1,81.9628,0)" style="fill-opacity: 1; pointer-events: visible;" class="DimensionMark"><polygon points="-5,5,0,0,5,5"/></g><g id="mark2" fill="#000000" stroke="none" transform="matrix(1,0,0,1,163.9257,181.1614)" style="fill-opacity: 1; pointer-events: visible;" class="DimensionMark"><polygon points="-5,-5,0,0,-5,5"/></g><g id="mark3" fill="#000000" stroke="none" transform="matrix(1,0,0,1,81.9628,362.3227)" style="fill-opacity: 1; pointer-events: visible;" class="DimensionMark"><polygon points="-5,-5,0,0,5,-5"/></g><g id="mark4" fill="#000000" stroke="none" transform="matrix(1,0,0,1,0,181.1614)" style="fill-opacity: 1; pointer-events: visible;" class="DimensionMark"><polygon points="5,5,0,0,5,-5"/></g></g><g transform="matrix(1,0,0,1,81.9629,181.1613)" class="SpaceDimensionsLabel"><g id="NameLabel" style="display: block;" class="TextLabel NameLabel"><text x="0" y="0em" fill="#000000" stroke="none" style="font-family: Verdana; font-size: 33px; fill-opacity: 1; cursor: default;">ULKOTILA</text></g><g id="DimensionMeasureLabel" transform="matrix(1,0,0,1,-25.6015,40.1093)" style="display: none;" class="TextLabel DimensionMeasureLabel"><text x="0" y="0em" fill="#000000" stroke="none" style="font-family: Verdana; font-size: 33px; fill-opacity: 1; cursor: default;">5'5" x 11'11"</text><text x="0" y="0"/></g></g></g></g><g id="6481dc64-7f12-4bb0-90ae-06140e9e2ae5" fill="#ffffff" stroke="#ffffff" style="fill-opacity: 1; stroke-opacity: 1; stroke-width: 0.2;" class="Space Undefined"><polygon points="1143.54,322.08 823.26,322.08 823.26,58.52 1143.54,58.52 "/><g transform="matrix(1,0,0,1,823.2558,58.5244)" class="Dimension"><g transform="matrix(1,0,0,1,0,0)" style="display: none;" class="Visual"><g id="mark1" fill="#000000" stroke="none" transform="matrix(1,0,0,1,160.1422,0)" style="fill-opacity: 1; pointer-events: visible;" class="DimensionMark"><polygon points="-5,5,0,0,5,5"/></g><g id="mark2" fill="#000000" stroke="none" transform="matrix(1,0,0,1,320.2844,131.7799)" style="fill-opacity: 1; pointer-events: visible;" class="DimensionMark"><polygon points="-5,-5,0,0,-5,5"/></g><g id="mark3" fill="#000000" stroke="none" transform="matrix(1,0,0,1,160.1422,263.5599)" style="fill-opacity: 1; pointer-events: visible;" class="DimensionMark"><polygon points="-5,-5,0,0,5,-5"/></g><g id="mark4" fill="#000000" stroke="none" transform="matrix(1,0,0,1,0,131.7799)" style="fill-opacity: 1; pointer-events: visible;" class="DimensionMark"><polygon points="5,5,0,0,5,-5"/></g></g><g transform="matrix(1,0,0,1,131.7799,131.78)" class="SpaceDimensionsLabel"><g id="NameLabel" style="display: block;" class="TextLabel NameLabel"><text x="0" y="0em" fill="#000000" stroke="none" style="font-family: Verdana; font-size: 33px; fill-opacity: 1; cursor: default;">UNDEFINED</text></g><g id="DimensionMeasureLabel" transform="matrix(1,0,0,1,1.6562,40)" style="display: none;" class="TextLabel DimensionMeasureLabel"><text x="0" y="0em" fill="#000000" stroke="none" style="font-family: Verdana; font-size: 33px; fill-opacity: 1; cursor: default;">10'6" x 8'8"</text><text x="0" y="0"/></g></g></g></g><g id="a42995e4-5278-4653-8021-b7148bd9dd53" fill="#ffffff" stroke="#ffffff" style="fill-opacity: 1; stroke-opacity: 1; stroke-width: 0.2;" class="Space Undefined"><polygon points="1293.19,457.32 1214.77,457.32 1214.77,478.30 995.32,478.30 995.32,333.08 1293.19,333.08 "/><g transform="matrix(1,0,0,1,995.3187,333.0843)" class="Dimension"><g transform="matrix(1,0,0,1,0,0)" style="display: none;" class="Visual"><g id="mark1" fill="#000000" stroke="none" transform="matrix(1,0,0,1,148.9336,0)" style="fill-opacity: 1; pointer-events: visible;" class="DimensionMark"><polygon points="-5,5,0,0,5,5"/></g><g id="mark2" fill="#000000" stroke="none" transform="matrix(1,0,0,1,297.8672,72.6054)" style="fill-opacity: 1; pointer-events: visible;" class="DimensionMark"><polygon points="-5,-5,0,0,-5,5"/></g><g id="mark3" fill="#000000" stroke="none" transform="matrix(1,0,0,1,148.9336,145.2108)" style="fill-opacity: 1; pointer-events: visible;" class="DimensionMark"><polygon points="-5,-5,0,0,5,-5"/></g><g id="mark4" fill="#000000" stroke="none" transform="matrix(1,0,0,1,0,72.6054)" style="fill-opacity: 1; pointer-events: visible;" class="DimensionMark"><polygon points="5,5,0,0,5,-5"/></g></g><g transform="matrix(1,0,0,1,72.6054,72.6054)" class="SpaceDimensionsLabel"><g id="NameLabel" style="display: block;" class="TextLabel NameLabel"><text x="0" y="0em" fill="#000000" stroke="none" style="font-family: Verdana; font-size: 33px; fill-opacity: 1; cursor: default;">UNDEFINED</text></g><g id="DimensionMeasureLabel" transform="matrix(1,0,0,1,12.1485,40)" style="display: none;" class="TextLabel DimensionMeasureLabel"><text x="0" y="0em" fill="#000000" stroke="none" style="font-family: Verdana; font-size: 33px; fill-opacity: 1; cursor: default;">9'9" x 4'9"</text><text x="0" y="0"/></g></g></g></g><g id="bc16fc34-f9d9-40a7-89f0-0291fbaab944" fill="#ffffff" stroke="#ffffff" style="fill-opacity: 1; stroke-opacity: 1; stroke-width: 0.2;" class="Space Undefined"><polygon points="1293.19,322.08 1154.54,322.08 1154.54,168.13 1293.19,168.13 "/><g transform="matrix(1,0,0,1,1154.5402,168.1333)" class="Dimension"><g transform="matrix(1,0,0,1,0,0)" style="display: none;" class="Visual"><g id="mark1" fill="#000000" stroke="none" transform="matrix(1,0,0,1,69.3229,0)" style="fill-opacity: 1; pointer-events: visible;" class="DimensionMark"><polygon points="-5,5,0,0,5,5"/></g><g id="mark2" fill="#000000" stroke="none" transform="matrix(1,0,0,1,138.6457,76.9755)" style="fill-opacity: 1; pointer-events: visible;" class="DimensionMark"><polygon points="-5,-5,0,0,-5,5"/></g><g id="mark3" fill="#000000" stroke="none" transform="matrix(1,0,0,1,69.3229,153.9511)" style="fill-opacity: 1; pointer-events: visible;" class="DimensionMark"><polygon points="-5,-5,0,0,5,-5"/></g><g id="mark4" fill="#000000" stroke="none" transform="matrix(1,0,0,1,0,76.9755)" style="fill-opacity: 1; pointer-events: visible;" class="DimensionMark"><polygon points="5,5,0,0,5,-5"/></g></g><g transform="matrix(1,0,0,1,69.3228,76.9756)" class="SpaceDimensionsLabel"><g id="NameLabel" style="display: block;" class="TextLabel NameLabel"><text x="0" y="0em" fill="#000000" stroke="none" style="font-family: Verdana; font-size: 33px; fill-opacity: 1; cursor: default;">UNDEFINED</text></g><g id="DimensionMeasureLabel" transform="matrix(1,0,0,1,12.1485,40)" style="display: none;" class="TextLabel DimensionMeasureLabel"><text x="0" y="0em" fill="#000000" stroke="none" style="font-family: Verdana; font-size: 33px; fill-opacity: 1; cursor: default;">4'7" x 5'1"</text><text x="0" y="0"/></g></g></g></g><g id="c0bf3678-2ce5-4201-a505-9b188d19c2fd" fill="#ffffff" stroke="#ffffff" style="fill-opacity: 1; stroke-opacity: 1; stroke-width: 0.2;" class="Space Undefined"><polygon points="1293.19,157.13 1154.54,157.13 1154.54,58.52 1293.19,58.52 "/><g transform="matrix(1,0,0,1,1154.5402,58.5244)" class="Dimension"><g transform="matrix(1,0,0,1,0,0)" style="display: none;" class="Visual"><g id="mark1" fill="#000000" stroke="none" transform="matrix(1,0,0,1,69.3229,0)" style="fill-opacity: 1; pointer-events: visible;" class="DimensionMark"><polygon points="-5,5,0,0,5,5"/></g><g id="mark2" fill="#000000" stroke="none" transform="matrix(1,0,0,1,138.6457,49.3044)" style="fill-opacity: 1; pointer-events: visible;" class="DimensionMark"><polygon points="-5,-5,0,0,-5,5"/></g><g id="mark3" fill="#000000" stroke="none" transform="matrix(1,0,0,1,69.3229,98.6088)" style="fill-opacity: 1; pointer-events: visible;" class="DimensionMark"><polygon points="-5,-5,0,0,5,-5"/></g><g id="mark4" fill="#000000" stroke="none" transform="matrix(1,0,0,1,0,49.3044)" style="fill-opacity: 1; pointer-events: visible;" class="DimensionMark"><polygon points="5,5,0,0,5,-5"/></g></g><g transform="matrix(1,0,0,1,69.3228,49.3044)" class="SpaceDimensionsLabel"><g id="NameLabel" style="display: block;" class="TextLabel NameLabel"><text x="0" y="0em" fill="#000000" stroke="none" style="font-family: Verdana; font-size: 33px; fill-opacity: 1; cursor: default;">UNDEFINED</text></g><g id="DimensionMeasureLabel" transform="matrix(1,0,0,1,12.1485,40)" style="display: none;" class="TextLabel DimensionMeasureLabel"><text x="0" y="0em" fill="#000000" stroke="none" style="font-family: Verdana; font-size: 33px; fill-opacity: 1; cursor: default;">4'7" x 3'3"</text><text x="0" y="0"/></g></g></g></g><g id="Wall" fill="#000000" stroke="#000000" style="fill-opacity: 1; stroke-opacity: 1; stroke-width: 0.2;" class="Wall External"><polygon points="203.50,28.52 1323.19,28.52 1293.19,58.52 233.50,58.52 "/><g id="Window" fill="#f0f0ff" stroke="#000000" style="fill-opacity: 1; stroke-width: 1; stroke-opacity: 1;" class="Window Regular"><polygon points="703.00,28.52 781.54,28.52 781.54,58.52 703.00,58.52 "/><g id="Glass" class="Glass"><polygon points="703.00,28.52 781.54,28.52 781.54,58.52 703.00,58.52 "/></g><g id="Panel" class="Panel"><line x1="710.4978109083797" x2="774.040408885424" y1="43.52444972631379" y2="43.524449726313776"/><line x1="710.4978109083797" x2="710.4978109083797" y1="28.524449726313794" y2="58.52444972631379"/><line x1="774.040408885424" x2="774.040408885424" y1="28.52444972631378" y2="58.524449726313776"/></g></g><g id="Window" fill="#f0f0ff" stroke="#000000" style="fill-opacity: 1; stroke-width: 1; stroke-opacity: 1;" class="Window Regular"><polygon points="896.63,28.52 1075.53,28.52 1075.53,58.52 896.63,58.52 "/><g id="Glass" class="Glass"><polygon points="896.63,28.52 1075.53,28.52 1075.53,58.52 896.63,58.52 "/></g><g id="Panel" class="Panel"><line x1="904.1271557826601" x2="1068.0297400637053" y1="43.524449726313755" y2="43.52444972631372"/><line x1="904.1271557826601" x2="904.1271557826601" y1="28.524449726313755" y2="58.524449726313755"/><line x1="1068.0297400637053" x2="1068.0297400637053" y1="28.52444972631372" y2="58.52444972631372"/></g></g><g id="Window" fill="#f0f0ff" stroke="#000000" style="fill-opacity: 1; stroke-width: 1; stroke-opacity: 1;" class="Window Regular"><polygon points="1155.16,28.52 1237.52,28.52 1237.52,58.52 1155.16,58.52 "/><g id="Glass" class="Glass"><polygon points="1155.16,28.52 1237.52,28.52 1237.52,58.52 1155.16,58.52 "/></g><g id="Panel" class="Panel"><line x1="1162.6632100660604" x2="1230.0238510003219" y1="43.524449726313705" y2="43.52444972631369"/><line x1="1162.6632100660604" x2="1162.6632100660604" y1="28.524449726313705" y2="58.524449726313705"/><line x1="1230.0238510003219" x2="1230.0238510003219" y1="28.52444972631369" y2="58.52444972631369"/></g></g></g><g id="Wall" fill="#000000" stroke="#000000" style="fill-opacity: 1; stroke-opacity: 1; stroke-width: 0.2;" class="Wall External"><polygon points="1293.19,58.52 1293.19,478.30 1323.19,508.30 1323.19,28.52 "/></g><g id="Wall" fill="#000000" stroke="#000000" style="fill-opacity: 1; stroke-opacity: 1; stroke-width: 0.2;" class="Wall External"><polygon points="1293.19,478.30 233.50,478.30 203.50,508.30 1323.19,508.30 "/><g id="Door" fill="#ffffff" stroke="#000000" style="fill-opacity: 1; stroke-width: 1; stroke-opacity: 1;" class="Door Swing Beside"><polygon points="952.64,478.30 881.57,478.30 881.57,508.30 952.64,508.30 "/><g id="Threshold" class="Threshold"><polygon points="952.64,478.30 881.57,478.30 881.57,508.30 952.64,508.30 "/></g><g id="Panel" fill="none" style="" class="Panel Right Negative"><g id="PanelArea" fill="none" stroke="none" style="" class="PanelArea"><polygon points="952.64,478.30 881.57,478.30 881.57,508.30 952.64,508.30 "/></g><path d="M881.57,478.30 q0.00,-71.08 71.08,-71.08 l0.00,71.08Z"/></g></g></g><g id="Wall" fill="#000000" stroke="#000000" style="fill-opacity: 1; stroke-opacity: 1; stroke-width: 0.2;" class="Wall External"><polygon points="203.50,508.30 203.50,28.52 233.50,58.52 233.50,478.30 "/><g id="Window" fill="#f0f0ff" stroke="#000000" style="fill-opacity: 1; stroke-width: 1; stroke-opacity: 1;" class="Window Regular"><polygon points="203.50,316.05 203.50,75.55 233.50,75.55 233.50,316.05 "/><g id="Glass" class="Glass"><polygon points="203.50,316.05 203.50,75.55 233.50,75.55 233.50,316.05 "/></g><g id="Panel" class="Panel"><line x1="218.49557448070576" x2="218.49557448070573" y1="308.5464308298619" y2="83.04538507320495"/><line x1="203.49557448070576" x2="233.49557448070576" y1="308.5464308298619" y2="308.5464308298619"/><line x1="203.49557448070573" x2="233.49557448070573" y1="83.04538507320495" y2="83.04538507320495"/></g></g><g id="Door" fill="#ffffff" stroke="#000000" style="fill-opacity: 1; stroke-width: 1; stroke-opacity: 1;" class="Door Swing Opposite"><polygon points="203.50,398.37 203.50,327.66 233.50,327.66 233.50,398.37 "/><g id="Threshold" class="Threshold"><polygon points="203.50,398.37 203.50,327.66 233.50,327.66 233.50,398.37 "/></g><g id="Panel" fill="none" style="" class="Panel Right Negative"><g id="PanelArea" fill="none" stroke="none" style="" class="PanelArea"><polygon points="203.50,398.37 203.50,327.66 233.50,327.66 233.50,398.37 "/></g><path d="M203.50,327.66 q-70.71,0.00 -70.71,70.71 l70.71,0.00Z"/></g><g id="Panel" fill="none" style="" class="Panel Left Positive"><g id="PanelArea" fill="none" stroke="none" style="" class="PanelArea"><polygon points="203.50,398.37 203.50,327.66 233.50,327.66 233.50,398.37 "/></g><path d="M233.50,327.66 q70.71,0.00 70.71,70.71 l-70.71,0.00Z"/></g></g></g><g id="Railing" fill="#ffffff" stroke="#000000" style="fill-opacity: 1; stroke-opacity: 1; stroke-width: 0.2;" class="Railing"><polygon points="203.50,58.52 39.57,58.52 28.57,47.52 203.50,47.52 " style="stroke-dasharray: 163.926, 15.5563, 185.926;"/></g><g id="Railing" fill="#ffffff" stroke="#000000" style="fill-opacity: 1; stroke-opacity: 1; stroke-width: 0.2;" class="Railing"><polygon points="39.57,58.52 39.57,420.85 28.57,431.85 28.57,47.52 " style="stroke-dasharray: 362.323, 15.5563, 384.323, 15.5563;"/></g><g id="Railing" fill="#ffffff" stroke="#000000" style="fill-opacity: 1; stroke-opacity: 1; stroke-width: 0.2;" class="Railing"><polygon points="39.57,420.85 203.50,420.85 203.50,431.85 28.57,431.85 " style="stroke-dasharray: 349.851, 15.5563;"/></g><g id="Wall" fill="#000000" stroke="#000000" style="fill-opacity: 1; stroke-opacity: 1; stroke-width: 0.2;" class="Wall"><polygon points="1323.19,333.08 812.26,333.08 823.26,322.08 1323.19,322.08 "/><g id="Door" fill="#ffffff" stroke="#000000" style="fill-opacity: 1; stroke-width: 1; stroke-opacity: 1;" class="Door Swing Beside"><polygon points="917.90,333.08 846.82,333.08 846.82,322.08 917.90,322.08 "/><g id="Threshold" class="Threshold"><polygon points="917.90,333.08 846.82,333.08 846.82,322.08 917.90,322.08 "/></g><g id="Panel" fill="none" style="" class="Panel Right Positive"><g id="PanelArea" fill="none" stroke="none" style="" class="PanelArea"><polygon points="917.90,333.08 846.82,333.08 846.82,322.08 917.90,322.08 "/></g><path d="M917.90,322.08 q0.00,-71.08 -71.08,-71.08 l0.00,71.08Z"/></g></g><g id="Door" fill="#ffffff" stroke="#000000" style="fill-opacity: 1; stroke-width: 1; stroke-opacity: 1;" class="Door Swing Beside"><polygon points="1212.73,333.08 1160.60,333.08 1160.60,322.08 1212.73,322.08 "/><g id="Threshold" class="Threshold"><polygon points="1212.73,333.08 1160.60,333.08 1160.60,322.08 1212.73,322.08 "/></g><g id="Panel" fill="none" style="" class="Panel Left Negative"><g id="PanelArea" fill="none" stroke="none" style="" class="PanelArea"><polygon points="1212.73,333.08 1160.60,333.08 1160.60,322.08 1212.73,322.08 "/></g><path d="M1212.73,333.08 q0.00,52.12 -52.12,52.12 l0.00,-52.12Z"/></g></g></g><g id="Wall" fill="#000000" stroke="#000000" style="fill-opacity: 1; stroke-opacity: 1; stroke-width: 0.2;" class="Wall"><polygon points="812.26,333.08 812.26,28.52 823.26,28.52 823.26,322.08 "/></g><g id="Wall" fill="#000000" stroke="#000000" style="fill-opacity: 1; stroke-opacity: 1; stroke-width: 0.2;" class="Wall"><polygon points="678.91,322.08 531.16,322.08 542.16,311.08 678.91,311.08 "/></g><g id="Wall" fill="#000000" stroke="#000000" style="fill-opacity: 1; stroke-opacity: 1; stroke-width: 0.2;" class="Wall"><polygon points="531.16,322.08 531.16,28.52 542.16,28.52 542.16,311.08 "/><g id="Door" fill="#ffffff" stroke="#000000" style="fill-opacity: 1; stroke-width: 1; stroke-opacity: 1;" class="Door None Beside"><polygon points="531.16,200.23 531.16,120.10 542.16,120.10 542.16,200.23 "/><g id="Threshold" stroke="#ffffff" style="" class="Threshold"><polygon points="531.16,200.23 531.16,120.10 542.16,120.10 542.16,200.23 "/></g></g></g><g id="Wall" fill="#000000" stroke="#000000" style="fill-opacity: 1; stroke-opacity: 1; stroke-width: 0.2;" class="Wall"><polygon points="531.16,415.44 531.16,508.30 561.97,508.30 561.97,415.44 "/></g><g id="Wall" fill="#000000" stroke="#000000" style="fill-opacity: 1; stroke-opacity: 1; stroke-width: 0.2;" class="Wall"><polygon points="995.32,322.08 995.32,508.30 984.32,508.30 984.32,322.08 "/><g id="Door" fill="#ffffff" stroke="#000000" style="fill-opacity: 1; stroke-width: 1; stroke-opacity: 1;" class="Door Swing Beside"><polygon points="995.32,343.27 995.32,394.34 984.32,394.34 984.32,343.27 "/><g id="Threshold" class="Threshold"><polygon points="995.32,343.27 995.32,394.34 984.32,394.34 984.32,343.27 "/></g><g id="Panel" fill="none" style="" class="Panel Left Positive"><g id="PanelArea" fill="none" stroke="none" style="" class="PanelArea"><polygon points="995.32,343.27 995.32,394.34 984.32,394.34 984.32,343.27 "/></g><path d="M984.32,394.34 q-51.07,0.00 -51.07,-51.07 l51.07,0.00Z"/></g></g></g><g id="Wall" fill="#000000" stroke="#000000" style="fill-opacity: 1; stroke-opacity: 1; stroke-width: 0.2;" class="Wall"><polygon points="1214.77,457.32 1323.19,457.32 1323.19,480.18 1214.77,480.18 "/></g><g id="Wall" fill="#000000" stroke="#000000" style="fill-opacity: 1; stroke-opacity: 1; stroke-width: 0.2;" class="Wall"><polygon points="1143.54,333.08 1143.54,28.52 1154.54,28.52 1154.54,333.08 "/><g id="Door" fill="#ffffff" stroke="#000000" style="fill-opacity: 1; stroke-width: 1; stroke-opacity: 1;" class="Door Swing Beside"><polygon points="1143.54,117.55 1143.54,67.05 1154.54,67.05 1154.54,117.55 "/><g id="Threshold" class="Threshold"><polygon points="1143.54,117.55 1143.54,67.05 1154.54,67.05 1154.54,117.55 "/></g><g id="Panel" fill="none" style="" class="Panel Right Positive"><g id="PanelArea" fill="none" stroke="none" style="" class="PanelArea"><polygon points="1143.54,117.55 1143.54,67.05 1154.54,67.05 1154.54,117.55 "/></g><path d="M1154.54,117.55 q50.50,0.00 50.50,-50.50 l-50.50,-0.00Z"/></g></g></g><g id="Wall" fill="#000000" stroke="#000000" style="fill-opacity: 1; stroke-opacity: 1; stroke-width: 0.2;" class="Wall"><polygon points="1143.54,168.13 1323.19,168.13 1323.19,157.13 1143.54,157.13 "/></g><g id="FixedFurnitureSet" transform="matrix(-1,0,0,-1,676.6937,478.2795)" class="FixedFurnitureSet" fill="#ffffff" stroke="#fc0fc0" style="fill-opacity: 0.4; stroke-opacity: 0.9; stroke-width: 1.5;"><g class="FixedFurniture Closet" fill="#ffffff" stroke="#000000" transform="matrix(1,0,0,1,0,0)" style="fill-opacity: 1; stroke-opacity: 1; stroke-width: 1;">
        <g class="BoundaryPolygon">
            <polygon points="0.00,0.00 57.36,0.00 57.36,62.37 0.00,62.37 "/>
        </g>
        <g class="Direction" fill-opacity="0.9" style="display: none;">
            <polygon points="30.12,56.86 30.12,46.24 27.12,46.24 27.12,56.86 23.31,56.86 28.62,62.16 33.92,56.86 30.12,56.86 " fill="#444444"/>
        </g> 
        <g class="Name" fill-opacity="0.9" style="display: none;">
            <text transform="translate(3 12)" font-size="12" font-family="Verdana, Sans-Serif">CL</text>
        </g>
        <desc>Width:60 Height:200 Depth:60 Elevation:0</desc>
    </g><g class="FixedFurniture Closet" fill="#ffffff" stroke="#000000" transform="matrix(1,0,0,1,57.364,0)" style="fill-opacity: 1; stroke-opacity: 1; stroke-width: 1;">
        <g class="BoundaryPolygon">
            <polygon points="0.00,0.00 57.36,0.00 57.36,62.37 0.00,62.37 "/>
        </g>
        <g class="Direction" fill-opacity="0.9" style="display: none;">
            <polygon points="30.12,56.86 30.12,46.24 27.12,46.24 27.12,56.86 23.31,56.86 28.62,62.16 33.92,56.86 30.12,56.86 " fill="#444444"/>
        </g> 
        <g class="Name" fill-opacity="0.9" style="display: none;">
            <text transform="translate(3 12)" font-size="12" font-family="Verdana, Sans-Serif">CL</text>
        </g>
        <desc>Width:60 Height:200 Depth:60 Elevation:0</desc>
     </g></g><g class="FixedFurniture CoatCloset" fill="#ffffff" stroke="#000000" transform="matrix(-1,0,0,-1,736.6937,478.2014)" style="fill-opacity: 1; stroke-opacity: 1; stroke-width: 1;">
        <g class="BoundaryPolygon">
            <polygon points="0.00,0.00 60.00,0.00 60.00,62.34 0.00,62.34 "/>
        </g>
        <g class="Hanger" stroke="#9a9a9a" stroke-dasharray="5,5">
            <line x1="0" y1="31.169959469026455" x2="60" y2="31.169959469026455"/>
        </g>
        <g class="Direction" fill-opacity="0.9" style="display: none;">
            <polygon points="31.51,56.83 31.51,46.21 28.50,46.21 28.50,56.83 24.70,56.83 30.00,62.13 35.30,56.83 31.51,56.83 " fill="#444444"/>
        </g> 
        <g class="Name" fill-opacity="0.9" style="display: none;">
            <text transform="translate(3 12)" font-size="12" font-family="Verdana, Sans-Serif">CWH</text>
        </g>
        <desc>Width:60 Height:200 Depth:60 Elevation:0</desc>
     </g><g class="FixedFurniture CoatCloset" fill="#ffffff" stroke="#000000" transform="matrix(-1,0,0,-1,813.6175,478.2014)" style="fill-opacity: 1; stroke-opacity: 1; stroke-width: 1;">
        <g class="BoundaryPolygon">
            <polygon points="0.00,0.00 76.92,0.00 76.92,62.34 0.00,62.34 "/>
        </g>
        <g class="Hanger" stroke="#9a9a9a" stroke-dasharray="5,5">
            <line x1="0" y1="31.169959469026455" x2="76.92381995712634" y2="31.169959469026455"/>
        </g>
        <g class="Direction" fill-opacity="0.9" style="display: none;">
            <polygon points="40.40,56.83 40.40,46.21 37.39,46.21 37.39,56.83 33.59,56.83 38.89,62.13 44.19,56.83 40.40,56.83 " fill="#444444"/>
        </g> 
        <g class="Name" fill-opacity="0.9" style="display: none;">
            <text transform="translate(3 12)" font-size="12" font-family="Verdana, Sans-Serif">CWH</text>
        </g>
        <desc>Width:60 Height:200 Depth:60 Elevation:0</desc>
     </g><g class="FixedFurniture ElectricalAppliance Refrigerator" fill="#ffffff" stroke="#000000" transform="matrix(1.047,0,0,1,542.1562,58.6339)" style="fill-opacity: 1; stroke-opacity: 1; stroke-width: 1;">
        <g class="BoundaryPolygon">
            <polygon points="0,0 60,0 60,60 0,60"/>
        </g>
        <g class="electricitySign" fill="none" style="display: block;">
            <path d="M0,0,30,37.1v-18L60,56.3"/>
        </g>
        <g class="Doors">
            <rect y="56" width="60" height="4"/>
        </g>
        <g class="Direction" fill-opacity="0.9" style="display: none;">
            <polygon points="32.009 55.197 32.009 44.581 29 44.581 29 55.197 25.197 55.197 30.5 60 35.803 55.197 32.009 55.197" fill="#444444"/>
        </g> 
        <g class="Name" fill-opacity="0.9" style="display: none;">
            <text transform="translate(3 12)" font-size="12" font-family="Verdana, Sans-Serif">REF</text>
        </g>
        <desc>Width:60 Height:170 Depth:60 Elevation:0</desc>
    </g><g transform="matrix(1,0,0,1,604.9762,118.7432)" class="FixedFurniture BaseCabinet" fill="#ffffff" stroke="#000000" style="fill-opacity: 1; stroke-opacity: 1; stroke-width: 1;"><desc>Width:60 Height:90 Depth:60 Elevation:0</desc><g class="BoundaryPolygon"><polygon points="0.00,0.00 146.30,-0.00 146.30,84.60 207.28,84.60 207.28,-60.11 0.00,-60.11 0.00,-0.00 "/></g></g><g class="FixedFurniture ElectricalAppliance IntegratedStove" fill="#ffffff" stroke="#000000" transform="matrix(1,0,0,1,641.0326,58.7426)" style="fill-opacity: 1; stroke-opacity: 1; stroke-width: 1;">
        <g class="BoundaryPolygon" fill="none" stroke="none">
            <polygon points="0.00,0.00 65.33,0.00 65.33,60.00 0.00,60.00 "/>
        </g>
        <g class="InnerPolygon">
            <polygon points="2.00,2.00 63.15,2.00 63.15,58.00 2.00,58.00 "/>
        </g>
        <g class="OuterCircle">
            <circle cx="17.420959256666467" cy="16" r="8"/>
            <circle cx="47.907637955832776" cy="16" r="8"/>
            <circle cx="17.420959256666467" cy="44" r="8"/>
            <circle cx="47.907637955832776" cy="44" r="8"/>
        </g>
        <g class="Direction" fill-opacity="0.9" style="display: none;">
            <polygon points="34.85,55.20 34.85,44.58 31.84,44.58 31.84,55.20 28.04,55.20 33.34,60.00 38.65,55.20 34.85,55.20 " fill="#444444"/>
        </g> 
        <g class="Name" fill-opacity="0.9" style="display: none;">
            <text transform="translate(3 12)" font-size="12" font-family="Verdana, Sans-Serif">INT_STOVE</text>
        </g>
        <desc>Width:60 Height:90 Depth:30 Elevation:0</desc>
    </g><g class="FixedFurniture Sink" fill="#ffffff" stroke="#000000" transform="matrix(0,1,-1,0,812.1465,136.9091)" style="fill-opacity: 1; stroke-opacity: 1; stroke-width: 1;">
        <g class="BoundaryPolygon" fill="none" stroke="none">
            <polygon points="0.00,0.00 71.92,0.00 71.92,64.18 0.00,64.18 "/>
        </g>
        <g class="InnerPolygon">
            <polygon points="5.99,9.70 65.93,9.70 65.93,58.51 5.99,58.51 "/>
        </g>
        <g class="OuterDrain" stroke-width="0.8">
            <circle cx="35.962235416186104" cy="34.444369732733705" r="3.5"/>
        </g>
        <g class="InnerDrain" stroke-width="0.8">
            <circle cx="35.962235416186104" cy="34.444369732733705" r="2"/>
        </g>
        <g class="Faucet">
            <polygon points="32.37,5.35 38.37,5.35 38.37,19.35 32.37,19.35 "/>
        </g>
        <g class="Direction" fill-opacity="0.9" style="display: none;">
            <polygon points="38.37,59.04 38.37,48.43 35.36,48.43 35.36,59.04 31.56,59.04 36.86,63.85 42.16,59.04 38.37,59.04 " fill="#444444"/>
        </g> 
        <g class="Name" fill-opacity="0.9" style="display: none;">
            <text transform="translate(3 12)" font-size="12" font-family="Verdana, Sans-Serif">SINK</text>
        </g>
        <desc>Width:60 Height:90 Depth:60 Elevation:0</desc>
    </g><g id="Wall" fill="#000000" stroke="#000000" style="fill-opacity: 1; stroke-opacity: 1; stroke-width: 0.2;" class="Wall"><polygon points="750.80,203.48 823.26,203.48 823.26,234.49 750.80,234.49 "/></g><g class="FixedFurniture WallCabinet" fill="#ffffff" stroke="#000000" transform="matrix(0,1,-1,0,812.178,58.6332)" style="fill-opacity: 0.7; stroke-opacity: 1; stroke-width: 1.5;">	
        <g class="BoundaryPolygon">
            <polygon points="0.00,0.00 144.01,0.00 144.01,30.00 0.00,30.00 "/>
        </g>
        <g class="Direction" fill-opacity="0.9" style="display: none;">
            <polygon points="76.83,25.20 76.83,14.58 73.82,14.58 73.82,25.20 70.02,25.20 75.32,30.00 80.62,25.20 76.83,25.20 " fill="#444444"/>
        </g> 
        <g class="Name" fill-opacity="0.9" style="display: none;">
            <text transform="translate(3 12)" font-size="12" font-family="Verdana, Sans-Serif">UC</text>
        </g>
        <desc>Width:60 Height:60 Depth:30 Elevation:140</desc>
    </g><g class="FixedFurniture WallCabinet" fill="#ffffff" stroke="#000000" transform="matrix(1,0,0,1,604.9762,58.7113)" style="fill-opacity: 0.7; stroke-opacity: 1; stroke-width: 1.5;">	
        <g class="BoundaryPolygon">
            <polygon points="0.00,0.00 99.09,0.00 99.09,30.00 0.00,30.00 "/>
        </g>
        <g class="Direction" fill-opacity="0.9" style="display: none;">
            <polygon points="52.86,25.20 52.86,14.58 49.85,14.58 49.85,25.20 46.05,25.20 51.35,30.00 56.66,25.20 52.86,25.20 " fill="#444444"/>
        </g> 
        <g class="Name" fill-opacity="0.9" style="display: none;">
            <text transform="translate(3 12)" font-size="12" font-family="Verdana, Sans-Serif">UC</text>
        </g>
        <desc>Width:60 Height:60 Depth:30 Elevation:140</desc>
    </g><g class="FixedFurniture Closet" fill="#ffffff" stroke="#000000" transform="matrix(0,1,-1,0,1293.1703,58.5245)" style="fill-opacity: 1; stroke-opacity: 1; stroke-width: 1;">
        <g class="BoundaryPolygon">
            <polygon points="0.00,0.00 98.26,0.00 98.26,55.08 0.00,55.08 "/>
        </g>
        <g class="Direction" fill-opacity="0.9" style="display: none;">
            <polygon points="51.60,50.21 51.60,39.60 48.59,39.60 48.59,50.21 44.79,50.21 50.09,55.52 55.39,50.21 51.60,50.21 " fill="#444444"/>
        </g> 
        <g class="Name" fill-opacity="0.9" style="display: none;">
            <text transform="translate(3 12)" font-size="12" font-family="Verdana, Sans-Serif">CL</text>
        </g>
        <desc>Width:60 Height:200 Depth:60 Elevation:0</desc>
     </g><g class="FixedFurniture Closet" fill="#ffffff" stroke="#000000" transform="matrix(-1,0,0,-1,1237.6347,157.1176)" style="fill-opacity: 1; stroke-opacity: 1; stroke-width: 1;">
        <g class="BoundaryPolygon">
            <polygon points="0.00,0.00 82.68,0.00 82.68,29.68 0.00,29.68 "/>
        </g>
        <g class="Direction" fill-opacity="0.9" style="display: none;">
            <polygon points="43.42,27.05 43.42,16.44 40.41,16.44 40.41,27.05 36.61,27.05 41.91,32.36 47.21,27.05 43.42,27.05 " fill="#444444"/>
        </g> 
        <g class="Name" fill-opacity="0.9" style="display: none;">
            <text transform="translate(3 12)" font-size="12" font-family="Verdana, Sans-Serif">CL</text>
        </g>
        <desc>Width:60 Height:200 Depth:60 Elevation:0</desc>
     </g><g class="FixedFurniture SaunaBenchHigh" fill="#ffffff" stroke="#000000" transform="matrix(1,0,0,1,1154.5401,168.1489)" style="fill-opacity: 1; stroke-opacity: 1; stroke-width: 1;">
        <g class="BoundaryPolygon">
            <polygon points="0.00,0.00 138.00,0.00 138.00,49.62 0.00,49.62 "/> 
        </g>
        <g class="Bench" stroke="#9a9a9a" stroke-width="0.5">
            <line x1="0" y1="3.307910615394746" x2="137.99853658324096" y2="3.307910615394746"/>
            <line x1="0" y1="6.615821230789492" x2="137.99853658324096" y2="6.615821230789492"/>
            <line x1="0" y1="9.923731846184237" x2="137.99853658324096" y2="9.923731846184237"/>
            <line x1="0" y1="13.231642461578984" x2="137.99853658324096" y2="13.231642461578984"/>
            <line x1="0" y1="16.53955307697373" x2="137.99853658324096" y2="16.53955307697373"/>
            <line x1="0" y1="19.847463692368475" x2="137.99853658324096" y2="19.847463692368475"/>
            <line x1="0" y1="23.15537430776322" x2="137.99853658324096" y2="23.15537430776322"/>
            <line x1="0" y1="26.463284923157968" x2="137.99853658324096" y2="26.463284923157968"/>
            <line x1="0" y1="29.771195538552714" x2="137.99853658324096" y2="29.771195538552714"/>
            <line x1="0" y1="33.07910615394746" x2="137.99853658324096" y2="33.07910615394746"/>
            <line x1="0" y1="36.3870167693422" x2="137.99853658324096" y2="36.3870167693422"/>
            <line x1="0" y1="39.69492738473695" x2="137.99853658324096" y2="39.69492738473695"/>
            <line x1="0" y1="43.002838000131696" x2="137.99853658324096" y2="43.002838000131696"/>
            <line x1="0" y1="46.31074861552644" x2="137.99853658324096" y2="46.31074861552644"/>
        </g>
         <g class="Direction" fill-opacity="0.9" style="display: none;">
            <polygon points="71.17,45.20 71.17,34.58 68.16,34.58 68.16,45.20 64.36,45.20 69.66,50.50 74.96,45.20 71.17,45.20 " fill="#444444"/>
        </g> 
        <g class="Name" fill-opacity="0.9" style="display: none;">
            <text transform="translate(3 12)" font-size="12" font-family="Verdana, Sans-Serif">SB_HIGH</text>
        </g>
        <desc>Width:185 Height:5 Depth:60 Elevation:105</desc>
    </g><g class="FixedFurniture SaunaBenchMid" fill="#ffffff" stroke="#000000" transform="matrix(1,0,0,1,1154.5402,217.7832)" style="fill-opacity: 1; stroke-opacity: 1; stroke-width: 1;">
        <g class="BoundaryPolygon">
            <polygon points="0.00,0.00 138.27,0.00 138.27,28.80 0.00,28.80 "/>
        </g>
        <g class="Bench" stroke="#9a9a9a" stroke-width="0.5">
            <line x1="0" y1="2.880053758019893" x2="138.2718009054313" y2="2.880053758019893"/>
            <line x1="0" y1="5.760107516039786" x2="138.2718009054313" y2="5.760107516039786"/>
            <line x1="0" y1="8.64016127405968" x2="138.2718009054313" y2="8.64016127405968"/>
            <line x1="0" y1="11.520215032079571" x2="138.2718009054313" y2="11.520215032079571"/>
            <line x1="0" y1="14.400268790099465" x2="138.2718009054313" y2="14.400268790099465"/>
            <line x1="0" y1="17.28032254811936" x2="138.2718009054313" y2="17.28032254811936"/>
            <line x1="0" y1="20.16037630613926" x2="138.2718009054313" y2="20.16037630613926"/>
            <line x1="0" y1="23.040430064159143" x2="138.2718009054313" y2="23.040430064159143"/>
            <line x1="0" y1="25.92048382217905" x2="138.2718009054313" y2="25.92048382217905"/>
        </g>
        <g class="Direction" fill-opacity="0.9" style="display: none;">
            <polygon points="70.26,24.95 70.26,14.34 67.25,14.34 67.25,24.95 63.45,24.95 68.75,30.26 74.06,24.95 70.26,24.95 " fill="#444444"/>
        </g> 
        <g class="Name" fill-opacity="0.9" style="display: none;">
            <text transform="translate(3 12)" font-size="12" font-family="Verdana, Sans-Serif">SB_MID</text>
        </g>
        <desc>Width:185 Height:5 Depth:40 Elevation:60</desc>
    </g><g class="FixedFurniture SaunaBenchLow" fill="#ffffff" stroke="#000000" transform="matrix(1,0,0,1,1154.5401,246.5993)" style="fill-opacity: 1; stroke-opacity: 1; stroke-width: 1;">
        <g class="BoundaryPolygon">
            <polygon points="0.00,0.00 138.55,0.00 138.55,24.87 0.00,24.87 "/>
        </g>
        <g class="Bench" stroke="#9a9a9a" stroke-width="0.5">
            <line x1="0" y1="2.486781729819694" x2="138.54799206113987" y2="2.486781729819694"/>
            <line x1="0" y1="4.973563459639388" x2="138.54799206113987" y2="4.973563459639388"/>
            <line x1="0" y1="7.460345189459074" x2="138.54799206113987" y2="7.460345189459074"/>
            <line x1="0" y1="9.947126919278777" x2="138.54799206113987" y2="9.947126919278777"/>
            <line x1="0" y1="12.433908649098464" x2="138.54799206113987" y2="12.433908649098464"/>
            <line x1="0" y1="14.920690378918149" x2="138.54799206113987" y2="14.920690378918149"/>
            <line x1="0" y1="17.40747210873786" x2="138.54799206113987" y2="17.40747210873786"/>
            <line x1="0" y1="19.894253838557553" x2="138.54799206113987" y2="19.894253838557553"/>
            <line x1="0" y1="22.38103556837724" x2="138.54799206113987" y2="22.38103556837724"/>
        </g>
        <g class="Direction" fill-opacity="0.9" style="display: none;">
            <polygon points="71.65,21.55 71.65,10.93 68.64,10.93 68.64,21.55 64.84,21.55 70.14,26.85 75.44,21.55 71.65,21.55 " fill="#444444"/>
        </g> 
        <g class="Name" fill-opacity="0.9" style="display: none;">
            <text transform="translate(3 12)" font-size="12" font-family="Verdana, Sans-Serif">SB_LOW</text>
        </g>
        <desc>Width:91 Height:5 Depth:40 Elevation:30</desc>
    </g><g class="FixedFurniture ElectricalAppliance SaunaStove" fill="#ffffff" stroke="#000000" transform="matrix(-0.5218,0,0,-0.8985,1277.0232,312.5364)" style="fill-opacity: 1; stroke-opacity: 1; stroke-width: 1;"> 
	   <g class="BoundaryPolygon"> 
		    <polygon points="0,0 60,0 60,35 0,35"/>
		</g>
	    <g class="electricitySign" fill="none">
		    <polyline points="0 35 39.7 17.5 21.4 17.5 60 0"/>
		</g>
        <g class="Direction" fill-opacity="0.9" style="display: none;">
            <polygon points="31.509 29.697 31.509 19.081 28.5 19.081 28.5 29.697 24.697 29.697 30 35 35.303 29.697 31.509 29.697" fill="#444444"/>
        </g> 
        <g class="Name" fill-opacity="0.9" style="display: none;">
            <text transform="translate(3 12)" font-size="12" font-family="Verdana, Sans-Serif">SS</text>
        </g>
        <desc>Width:60 Height:60 Depth:35 Elevation:20</desc>
	</g><g class="FixedFurniture Shower" fill="#ffffff" stroke="#000000" transform="matrix(-1,0,0,-1,1273.4091,436.9906)" style="fill-opacity: 1; stroke-opacity: 1; stroke-width: 1;"> 
	    <g class="BoundaryPolygon" fill="none" stroke="none">
            <polygon points="0,0 32,0 32,19 0,19"/>
        </g>
        <g class="InnerPolygon"> 
			<rect x="3.7" y="0.5" width="11.2" height="6.1"/>
			<rect x="17.6" y="0.5" width="11.2" height="6.1"/>
			<rect x="28.7" y="0.5" width="3.4" height="6.1"/>
			<rect x="0.5" y="0.5" width="3.2" height="6.1"/>
			<path d="M14.9,8.5c0,1.5-0.4,3.3-1.6,5    c-0.4,0.6-1,1.1-1.1,1.7c-0.2,1.1,0.3,2.8,2.5,3.2c0.5,0.1,1.3,0.1,1.6,0.1h-0.1c0.3,0,1.1,0,1.6-0.1c2.2-0.4,2.7-2.1,2.5-3.2    c-0.1-0.6-0.7-1.1-1.1-1.7c-1.2-1.7-1.6-3.5-1.6-5"/>
			<path d="M12.2,15.3c0.1,0.2,1.6,1.9,4.2,1.9 c2.4-0.1,3.7-1.7,3.9-1.9"/>
			<path d="M14.9,0.5h2.7v8c-0.9,0-1.8,0-2.7,0l0,0 C14.9,5.9,14.9,3.2,14.9,0.5z"/>
		</g>
	    <g class="Indicator"> 
			<path d="M3.7,3.6C5,3.1,5.2,3,5.2,3 c0,1.1,0,0,0,1.1C5.2,4.1,5.1,4.1,3.7,3.6"/>
			<path d="M28.7,3.6 C27.4,3.1,27.2,3,27.2,3c0,1.1,0,0,0,1.1C27.2,4.1,27.3,4.1,28.7,3.6"/>	
		</g>
        <desc>Width:32 Height:97 Depth:19 Elevation:135</desc>
	</g><g class="FixedFurniture Closet" fill="#ffffff" stroke="#000000" transform="matrix(-1,0,0,-1,1027.7787,478.2952)" style="fill-opacity: 1; stroke-opacity: 1; stroke-width: 1;">
        <g class="BoundaryPolygon">
            <polygon points="0.00,0.00 32.46,0.00 32.46,60.00 0.00,60.00 "/>
        </g>
        <g class="Direction" fill-opacity="0.9" style="display: none;">
            <polygon points="17.05,54.70 17.05,44.08 14.04,44.08 14.04,54.70 10.24,54.70 15.54,60.00 20.84,54.70 17.05,54.70 " fill="#444444"/>
        </g> 
        <g class="Name" fill-opacity="0.9" style="display: none;">
            <text transform="translate(3 12)" font-size="12" font-family="Verdana, Sans-Serif">CL</text>
        </g>
        <desc>Width:60 Height:200 Depth:60 Elevation:0</desc>
     </g><g class="FixedFurniture ElectricalAppliance SpaceForAppliance2" fill="#ffffff" stroke="#000000" stroke-dasharray="4,4" transform="matrix(-1.0382,0,0,-1,1090.0707,478.2951)" style="fill-opacity: 1; stroke-opacity: 1; stroke-width: 1;">
	    <g class="BoundaryPolygon"> 
		    <polygon points="0,0 60,0 60,60 0,60"/>
		</g>	
	    <g class="electricitySign" fill="none">
            <path d="M0,0,30.1,39.8V19.4L59.9,60"/>
		</g>
        <g class="Direction" fill-opacity="0.9" style="display: none;">
            <polygon points="32.009 55.197 32.009 44.581 29 44.581 29 55.197 25.197 55.197 30.5 60 35.803 55.197 32.009 55.197" fill="#444444"/>
        </g> 
        <g class="Name" fill-opacity="0.9" stroke-dasharray="none" style="display: none;">
            <text transform="translate(3 12)" font-size="12" font-family="Verdana, Sans-Serif">SFA</text>
        </g>
        <desc>Width:60 Height:90 Depth:60 Elevation:0</desc>
	</g><g class="FixedFurniture Toilet" fill="#ffffff" stroke="#000000" transform="matrix(-0.8228,0,0,-0.8115,1132.301,478.2951)" style="fill-opacity: 1; stroke-opacity: 1; stroke-width: 1;">
	   <g class="BoundaryPolygon" fill="none" stroke="none"> 
            <polygon points="0,0 41,0 41,71 0,71"/>
		</g>
        <g class="InnerPolygon">
            <rect x="0.502" y="0.5" width="39.989" height="17.98"/>
            <path d="M40.491,44.237S41.619,70.5,20.907,70.5C-.523,70.5.6,44.237.6,44.237L.5,18.48H40.491Z"/>
            <rect x="17.318" y="7.975" width="6.357" height="3.03"/>
        </g>
        <desc>Width:41 Height:85 Depth:71 Elevation:0</desc>
    </g><g id="FixedFurnitureSet" transform="matrix(-1,0,0,-1,1214.7681,478.2951)" class="FixedFurnitureSet" fill="#ffffff" stroke="#fc0fc0" style="fill-opacity: 0.4; stroke-opacity: 0.9; stroke-width: 1.5;"><g class="FixedFurniture BaseCabinet" fill="#ffffff" stroke="#000000" transform="matrix(1,0,0,1,0,0)" style="fill-opacity: 1; stroke-opacity: 1; stroke-width: 1;">
        <g class="BoundaryPolygon">
            <polygon points="0.00,0.00 56.55,0.00 56.55,39.60 0.00,39.60 "/>
        </g>
        <g class="Direction" fill-opacity="0.9" style="display: none;">
            <polygon points="30.17,36.43 30.17,25.81 27.16,25.81 27.16,36.43 23.36,36.43 28.66,41.23 33.96,36.43 30.17,36.43 " fill="#444444"/>
        </g> 
        <g class="Name" fill-opacity="0.9" style="display: none;">
            <text transform="translate(3 12)" font-size="12" font-family="Verdana, Sans-Serif">CB</text>
        </g>
        <desc>Width:60 Height:5 Depth:60 Elevation:105</desc>
    </g><g class="FixedFurniture Sink" fill="#ffffff" stroke="#000000" transform="matrix(1,0,0,1,0,0)" style="fill-opacity: 1; stroke-opacity: 1; stroke-width: 1;">
        <g class="BoundaryPolygon" fill="none" stroke="none">
        <polygon points="0.00,0.00 56.55,0.00 56.55,39.60 0.00,39.60 "/>
        </g>
        <g class="InnerPolygon">
            <polygon points="4.71,9.70 51.84,9.70 51.84,36.10 4.71,36.10 "/>
        </g>
        <g class="OuterDrain" stroke-width="0.8">
            <circle cx="28.275916837073996" cy="21.251114091440467" r="3.5"/>
        </g>
        <g class="InnerDrain" stroke-width="0.8">
            <circle cx="28.275916837073996" cy="21.251114091440467" r="2"/>
        </g>
        <g class="Faucet">
            <polygon points="25.45,3.30 31.45,3.30 31.45,17.30 25.45,17.30 "/>
        </g>
        <g class="Direction" fill-opacity="0.9" style="display: none;">
            <polygon points="30.17,36.43 30.17,25.81 27.16,25.81 27.16,36.43 23.36,36.43 28.66,41.23 33.96,36.43 30.17,36.43 " fill="#444444"/>
        </g> 
        <g class="Name" fill-opacity="0.9" style="display: none;">
            <text transform="translate(3 12)" font-size="12" font-family="Verdana, Sans-Serif">SINK</text>
        </g>
        <desc>Width:60 Height:90 Depth:60 Elevation:0</desc>
    </g></g></g></g></g></svg>
