<?xml version="1.0"?>
<svg xmlns="http://www.w3.org/2000/svg" xmlns:xlink="http://www.w3.org/1999/xlink" height="954.6299951076508" version="1.1" width="1008.0744590759277" id="temp" viewBox="0 0 1008.0744590759277 954.6299951076508"><defs/><g id="Model" class="Model v1-1"><g class="Floor"><g id="Floor-1" class="Floorplan Floor-1"><g id="fe9cff96-9202-4aed-a4d7-c58d9b45855d" fill="#ffffff" stroke="#ffffff" style="fill-opacity: 1; stroke-opacity: 1; stroke-width: 0.2;" class="Space Undefined"><polygon points="566.31,844.84 418.54,844.84 418.54,788.34 566.31,788.34 "/><g transform="matrix(1,0,0,1,418.5422,788.3428)" class="Dimension"><g transform="matrix(1,0,0,1,0,0)" style="display: none;" class="Visual"><g id="mark1" fill="#000000" stroke="none" transform="matrix(1,0,0,1,73.8843,0)" style="fill-opacity: 1; pointer-events: visible;" class="DimensionMark"><polygon points="-5,5,0,0,5,5"/></g><g id="mark2" fill="#000000" stroke="none" transform="matrix(1,0,0,1,147.7687,28.2471)" style="fill-opacity: 1; pointer-events: visible;" class="DimensionMark"><polygon points="-5,-5,0,0,-5,5"/></g><g id="mark3" fill="#000000" stroke="none" transform="matrix(1,0,0,1,73.8843,56.4942)" style="fill-opacity: 1; pointer-events: visible;" class="DimensionMark"><polygon points="-5,-5,0,0,5,-5"/></g><g id="mark4" fill="#000000" stroke="none" transform="matrix(1,0,0,1,0,28.2471)" style="fill-opacity: 1; pointer-events: visible;" class="DimensionMark"><polygon points="5,5,0,0,5,-5"/></g></g><g transform="matrix(1,0,0,1,73.8844,28.2471)" class="SpaceDimensionsLabel"><g id="NameLabel" style="display: block;" class="TextLabel NameLabel"><text x="0" y="0em" fill="#000000" stroke="none" style="font-family: Verdana; font-size: 33px; fill-opacity: 1; cursor: default;">UNDEFINED</text></g><g id="DimensionMeasureLabel" transform="matrix(1,0,0,1,-40.5235,80.5)" style="display: none;" class="TextLabel DimensionMeasureLabel"><text x="31.6953125" y="-1.2em" fill="#000000" stroke="none" style="font-family: Verdana; font-size: 33px; fill-opacity: 1; cursor: default;">4'10" x 1'10"</text><text x="0" y="0em" fill="#000000" stroke="none" style="font-family: Verdana; font-size: 33px; fill-opacity: 1; cursor: default;">1.48 m x 0.56 m</text></g></g></g></g><g id="b7194a8b-1d4b-4923-a404-1eb81075c41b" fill="#ffffff" stroke="#ffffff" style="fill-opacity: 1; stroke-opacity: 1; stroke-width: 0.2;" class="Space LivingRoom"><polygon points="724.48,844.84 576.31,844.84 576.31,777.34 418.54,777.34 418.54,553.34 467.70,553.34 467.70,543.34 403.31,543.34 403.31,445.91 467.70,445.91 467.70,432.91 393.31,432.91 393.31,264.57 724.48,264.57 "/><g transform="matrix(1,0,0,1,403.3086,264.5748)" class="Dimension"><g transform="matrix(1,0,0,1,0,0)" style="display: none;" class="Visual"><g id="mark1" fill="#000000" stroke="none" transform="matrix(1,0,0,1,173.0023,0)" style="fill-opacity: 1; pointer-events: visible;" class="DimensionMark"><polygon points="-5,5,0,0,5,5"/></g><g id="mark2" fill="#000000" stroke="none" transform="matrix(1,0,0,1,321.1734,278.7645)" style="fill-opacity: 1; pointer-events: visible;" class="DimensionMark"><polygon points="-5,-5,0,0,-5,5"/></g><g id="mark3" fill="#000000" stroke="none" transform="matrix(1,0,0,1,173.0023,580.2622)" style="fill-opacity: 1; pointer-events: visible;" class="DimensionMark"><polygon points="-5,-5,0,0,5,-5"/></g><g id="mark4" fill="#000000" stroke="none" transform="matrix(1,0,0,1,0,278.7645)" style="fill-opacity: 1; pointer-events: visible;" class="DimensionMark"><polygon points="5,5,0,0,5,-5"/></g></g><g transform="matrix(1,0,0,1,148.3358,296.8302)" class="SpaceDimensionsLabel" style="display: block;"><g id="NameLabel" style="display: block;" class="TextLabel NameLabel"><text x="0" y="0em" fill="#000000" stroke="none" style="font-family: Verdana; font-size: 33px; fill-opacity: 1; cursor: default;">OH</text></g><g id="DimensionMeasureLabel" transform="matrix(1,0,0,1,-114.5704,79.5625)" style="display: none;" class="TextLabel DimensionMeasureLabel"><text x="31.6796875" y="-1.2em" fill="#000000" stroke="none" style="font-family: Verdana; font-size: 33px; fill-opacity: 1; cursor: default;">10'6" x 19'0"</text><text x="0" y="0em" fill="#000000" stroke="none" style="font-family: Verdana; font-size: 33px; fill-opacity: 1; cursor: default;">3.21 m x 5.80 m</text></g></g></g></g><g id="9af08a86-6d84-49a5-99d5-7a8908e18cfa" fill="#ffffff" stroke="#ffffff" style="fill-opacity: 1; stroke-opacity: 1; stroke-width: 0.2;" class="Space Kitchen"><polygon points="393.31,543.34 63.60,543.34 63.60,264.57 393.31,264.57 "/><g transform="matrix(1,0,0,1,63.5973,264.5748)" class="Dimension"><g transform="matrix(1,0,0,1,0,0)" style="display: none;" class="Visual"><g id="mark1" fill="#000000" stroke="none" transform="matrix(1,0,0,1,164.8564,0)" style="fill-opacity: 1; pointer-events: visible;" class="DimensionMark"><polygon points="-5,5,0,0,5,5"/></g><g id="mark2" fill="#000000" stroke="none" transform="matrix(1,0,0,1,329.712,139.3823)" style="fill-opacity: 1; pointer-events: visible;" class="DimensionMark"><polygon points="-5,-5,0,0,-5,5"/></g><g id="mark3" fill="#000000" stroke="none" transform="matrix(1,0,0,1,164.8564,278.7645)" style="fill-opacity: 1; pointer-events: visible;" class="DimensionMark"><polygon points="-5,-5,0,0,5,-5"/></g><g id="mark4" fill="#000000" stroke="none" transform="matrix(1,0,0,1,0,139.3823)" style="fill-opacity: 1; pointer-events: visible;" class="DimensionMark"><polygon points="5,5,0,0,5,-5"/></g></g><g transform="matrix(1,0,0,1,156.654,132.8192)" class="SpaceDimensionsLabel" style="display: block;"><g id="NameLabel" style="display: block;" class="TextLabel NameLabel"><text x="0" y="0em" fill="#000000" stroke="none" style="font-family: Verdana; font-size: 33px; fill-opacity: 1; cursor: default;">K</text></g><g id="DimensionMeasureLabel" transform="matrix(1,0,0,1,-127.7422,79.5625)" style="display: none;" class="TextLabel DimensionMeasureLabel"><text x="31.6796875" y="-1.2em" fill="#000000" stroke="none" style="font-family: Verdana; font-size: 33px; fill-opacity: 1; cursor: default;">10'10" x 9'2"</text><text x="0" y="0em" fill="#000000" stroke="none" style="font-family: Verdana; font-size: 33px; fill-opacity: 1; cursor: default;">3.30 m x 2.79 m</text></g></g></g></g><g id="7d3d04a1-c614-4d68-9b93-11ca58ee28c7" fill="#ffffff" stroke="#ffffff" style="fill-opacity: 1; stroke-opacity: 1; stroke-width: 0.2;" class="Space Room"><polygon points="950.83,844.84 735.48,844.84 735.48,531.18 950.83,531.18 "/><g transform="matrix(1,0,0,1,735.482,531.1831)" class="Dimension"><g transform="matrix(1,0,0,1,0,0)" style="display: none;" class="Visual"><g id="mark1" fill="#000000" stroke="none" transform="matrix(1,0,0,1,107.6754,0)" style="fill-opacity: 1; pointer-events: visible;" class="DimensionMark"><polygon points="-5,5,0,0,5,5"/></g><g id="mark2" fill="#000000" stroke="none" transform="matrix(1,0,0,1,215.3507,156.827)" style="fill-opacity: 1; pointer-events: visible;" class="DimensionMark"><polygon points="-5,-5,0,0,-5,5"/></g><g id="mark3" fill="#000000" stroke="none" transform="matrix(1,0,0,1,107.6754,313.6539)" style="fill-opacity: 1; pointer-events: visible;" class="DimensionMark"><polygon points="-5,-5,0,0,5,-5"/></g><g id="mark4" fill="#000000" stroke="none" transform="matrix(1,0,0,1,0,156.827)" style="fill-opacity: 1; pointer-events: visible;" class="DimensionMark"><polygon points="5,5,0,0,5,-5"/></g></g><g transform="matrix(1,0,0,1,100.6753,166.8269)" class="SpaceDimensionsLabel" style="display: block;"><g id="NameLabel" style="display: block;" class="TextLabel NameLabel"><text x="0" y="0em" fill="#000000" stroke="none" style="font-family: Verdana; font-size: 33px; fill-opacity: 1; cursor: default;">H</text></g><g id="DimensionMeasureLabel" transform="matrix(1,0,0,1,-127.5625,79.5)" style="display: none;" class="TextLabel DimensionMeasureLabel"><text x="42.1640625" y="-1.2em" fill="#000000" stroke="none" style="font-family: Verdana; font-size: 33px; fill-opacity: 1; cursor: default;">7'1" x 10'3"</text><text x="0" y="0em" fill="#000000" stroke="none" style="font-family: Verdana; font-size: 33px; fill-opacity: 1; cursor: default;">2.15 m x 3.14 m</text></g></g></g></g><g id="815e28b2-32d7-4cec-be7f-8cbb937f6a5e" fill="#ffffff" stroke="#ffffff" style="fill-opacity: 1; stroke-opacity: 1; stroke-width: 0.2;" class="Space Undefined"><polygon points="950.83,521.18 735.48,521.18 735.48,373.72 950.83,373.72 "/><g transform="matrix(1,0,0,1,735.482,373.7168)" class="Dimension"><g transform="matrix(1,0,0,1,0,0)" style="display: none;" class="Visual"><g id="mark1" fill="#000000" stroke="none" transform="matrix(1,0,0,1,107.6754,0)" style="fill-opacity: 1; pointer-events: visible;" class="DimensionMark"><polygon points="-5,5,0,0,5,5"/></g><g id="mark2" fill="#000000" stroke="none" transform="matrix(1,0,0,1,215.3507,73.7331)" style="fill-opacity: 1; pointer-events: visible;" class="DimensionMark"><polygon points="-5,-5,0,0,-5,5"/></g><g id="mark3" fill="#000000" stroke="none" transform="matrix(1,0,0,1,107.6754,147.4663)" style="fill-opacity: 1; pointer-events: visible;" class="DimensionMark"><polygon points="-5,-5,0,0,5,-5"/></g><g id="mark4" fill="#000000" stroke="none" transform="matrix(1,0,0,1,0,73.7331)" style="fill-opacity: 1; pointer-events: visible;" class="DimensionMark"><polygon points="5,5,0,0,5,-5"/></g></g><g transform="matrix(1,0,0,1,73.7331,73.7332)" class="SpaceDimensionsLabel"><g id="NameLabel" style="display: block;" class="TextLabel NameLabel"><text x="0" y="0em" fill="#000000" stroke="none" style="font-family: Verdana; font-size: 33px; fill-opacity: 1; cursor: default;">UNDEFINED</text></g><g id="DimensionMeasureLabel" transform="matrix(1,0,0,1,-40.5235,79.5156)" style="display: none;" class="TextLabel DimensionMeasureLabel"><text x="42.1796875" y="-1.2em" fill="#000000" stroke="none" style="font-family: Verdana; font-size: 33px; fill-opacity: 1; cursor: default;">7'1" x 4'10"</text><text x="0" y="0em" fill="#000000" stroke="none" style="font-family: Verdana; font-size: 33px; fill-opacity: 1; cursor: default;">2.15 m x 1.47 m</text></g></g></g></g><g id="65d5cce3-1f71-4d3f-a528-b4736a016570" fill="#ffffff" stroke="#ffffff" style="fill-opacity: 1; stroke-opacity: 1; stroke-width: 0.2;" class="Space DressingRoom"><polygon points="950.83,362.72 735.48,362.72 735.48,264.57 950.83,264.57 "/><g transform="matrix(1,0,0,1,735.482,264.5748)" class="Dimension"><g transform="matrix(1,0,0,1,0,0)" style="display: none;" class="Visual"><g id="mark1" fill="#000000" stroke="none" transform="matrix(1,0,0,1,107.6754,0)" style="fill-opacity: 1; pointer-events: visible;" class="DimensionMark"><polygon points="-5,5,0,0,5,5"/></g><g id="mark2" fill="#000000" stroke="none" transform="matrix(1,0,0,1,215.3507,49.071)" style="fill-opacity: 1; pointer-events: visible;" class="DimensionMark"><polygon points="-5,-5,0,0,-5,5"/></g><g id="mark3" fill="#000000" stroke="none" transform="matrix(1,0,0,1,107.6754,98.142)" style="fill-opacity: 1; pointer-events: visible;" class="DimensionMark"><polygon points="-5,-5,0,0,5,-5"/></g><g id="mark4" fill="#000000" stroke="none" transform="matrix(1,0,0,1,0,49.071)" style="fill-opacity: 1; pointer-events: visible;" class="DimensionMark"><polygon points="5,5,0,0,5,-5"/></g></g><g transform="matrix(1,0,0,1,77.8128,63.2924)" class="SpaceDimensionsLabel" style="display: block;"><g id="NameLabel" style="display: block;" class="TextLabel NameLabel"><text x="0" y="0em" fill="#000000" stroke="none" style="font-family: Verdana; font-size: 33px; fill-opacity: 1; cursor: default;">PKH</text></g><g id="DimensionMeasureLabel" transform="matrix(1,0,0,1,-106.2109,79.7343)" style="display: none;" class="TextLabel DimensionMeasureLabel"><text x="52.6640625" y="-1.2em" fill="#000000" stroke="none" style="font-family: Verdana; font-size: 33px; fill-opacity: 1; cursor: default;">7'1" x 3'3"</text><text x="0" y="0em" fill="#000000" stroke="none" style="font-family: Verdana; font-size: 33px; fill-opacity: 1; cursor: default;">2.15 m x 0.98 m</text></g></g></g></g><g id="50bbf6b1-b544-45cd-b32b-e397a6901a9f" fill="#ffffff" stroke="#000000" style="fill-opacity: 1; stroke-opacity: 1; stroke-width: 0.2;" class="Space Outdoor"><polygon points="964.83,242.57 549.76,242.57 549.76,170.02 534.16,170.02 534.16,59.50 549.76,59.50 549.76,8.51 964.83,8.51 964.83,242.57 964.83,242.57 "/><g transform="matrix(1,0,0,1,534.16,8.5087)" class="Dimension"><g transform="matrix(1,0,0,1,0,0)" style="display: none;" class="Visual"><g id="mark1" fill="#000000" stroke="none" transform="matrix(1,0,0,1,215.3364,0)" style="fill-opacity: 1; pointer-events: visible;" class="DimensionMark"><polygon points="-5,5,0,0,5,5"/></g><g id="mark2" fill="#000000" stroke="none" transform="matrix(1,0,0,1,430.6727,117.033)" style="fill-opacity: 1; pointer-events: visible;" class="DimensionMark"><polygon points="-5,-5,0,0,-5,5"/></g><g id="mark3" fill="#000000" stroke="none" transform="matrix(1,0,0,1,215.3364,234.0661)" style="fill-opacity: 1; pointer-events: visible;" class="DimensionMark"><polygon points="-5,-5,0,0,5,-5"/></g><g id="mark4" fill="#000000" stroke="none" transform="matrix(1,0,0,1,0,117.033)" style="fill-opacity: 1; pointer-events: visible;" class="DimensionMark"><polygon points="5,5,0,0,5,-5"/></g></g><g transform="matrix(1,0,0,1,125.4875,110.6445)" class="SpaceDimensionsLabel"><g id="NameLabel" style="display: block;" class="TextLabel NameLabel"><text x="0" y="0em" fill="#000000" stroke="none" style="font-family: Verdana; font-size: 33px; fill-opacity: 1; cursor: default;">ULKOTILA</text></g><g id="DimensionMeasureLabel" transform="matrix(1,0,0,1,-56.4922,80.1719)" style="display: none;" class="TextLabel DimensionMeasureLabel"><text x="42.1796875" y="-1.2em" fill="#000000" stroke="none" style="font-family: Verdana; font-size: 33px; fill-opacity: 1; cursor: default;">14'2" x 7'8"</text><text x="0" y="0em" fill="#000000" stroke="none" style="font-family: Verdana; font-size: 33px; fill-opacity: 1; cursor: default;">4.31 m x 2.34 m</text></g></g></g></g><g id="22ff7afb-eed6-4e38-a7e3-d334fbddf9f6" fill="#ffffff" stroke="#ffffff" style="fill-opacity: 1; stroke-opacity: 1; stroke-width: 0.2;" class="Space Room"><polygon points="407.54,844.84 63.60,844.84 63.60,553.34 407.54,553.34 "/><g transform="matrix(1,0,0,1,63.5973,553.3393)" class="Dimension"><g transform="matrix(1,0,0,1,0,0)" style="display: none;" class="Visual"><g id="mark1" fill="#000000" stroke="none" transform="matrix(1,0,0,1,171.9724,0)" style="fill-opacity: 1; pointer-events: visible;" class="DimensionMark"><polygon points="-5,5,0,0,5,5"/></g><g id="mark2" fill="#000000" stroke="none" transform="matrix(1,0,0,1,343.9449,145.7489)" style="fill-opacity: 1; pointer-events: visible;" class="DimensionMark"><polygon points="-5,-5,0,0,-5,5"/></g><g id="mark3" fill="#000000" stroke="none" transform="matrix(1,0,0,1,171.9724,291.4977)" style="fill-opacity: 1; pointer-events: visible;" class="DimensionMark"><polygon points="-5,-5,0,0,5,-5"/></g><g id="mark4" fill="#000000" stroke="none" transform="matrix(1,0,0,1,0,145.7489)" style="fill-opacity: 1; pointer-events: visible;" class="DimensionMark"><polygon points="5,5,0,0,5,-5"/></g></g><g transform="matrix(1,0,0,1,160.1692,160.3021)" class="SpaceDimensionsLabel" style="display: block;"><g id="NameLabel" style="display: block;" class="TextLabel NameLabel"><text x="0" y="0em" fill="#000000" stroke="none" style="font-family: Verdana; font-size: 33px; fill-opacity: 1; cursor: default;">H</text></g><g id="DimensionMeasureLabel" transform="matrix(1,0,0,1,-127.5547,78.9219)" style="display: none;" class="TextLabel DimensionMeasureLabel"><text x="42.171875" y="-1.2em" fill="#000000" stroke="none" style="font-family: Verdana; font-size: 33px; fill-opacity: 1; cursor: default;">11'3" x 9'7"</text><text x="0" y="0em" fill="#000000" stroke="none" style="font-family: Verdana; font-size: 33px; fill-opacity: 1; cursor: default;">3.44 m x 2.91 m</text></g></g></g></g><g id="Wall" fill="#000000" stroke="#000000" style="fill-opacity: 1; stroke-opacity: 1; stroke-width: 0.2;" class="Wall External"><polygon points="41.60,869.84 972.83,869.84 950.83,844.84 63.60,844.84 "/><g id="Window" fill="#f0f0ff" stroke="#000000" style="fill-opacity: 1; stroke-width: 1; stroke-opacity: 1;" class="Window Regular"><polygon points="590.44,869.84 703.03,869.84 703.03,844.84 590.44,844.84 "/><g id="Glass" class="Glass"><polygon points="590.44,869.84 703.03,869.84 703.03,844.84 590.44,844.84 "/></g><g id="Panel" class="Panel"><line x1="597.9387778512319" x2="695.5326078175876" y1="857.336999031406" y2="857.336999031406"/><line x1="597.9387778512319" x2="597.9387778512319" y1="869.836999031406" y2="844.836999031406"/><line x1="695.5326078175876" x2="695.5326078175876" y1="869.836999031406" y2="844.836999031406"/></g></g><g id="Door" fill="#ffffff" stroke="#000000" style="fill-opacity: 1; stroke-width: 1; stroke-opacity: 1;" class="Door Swing Beside"><polygon points="447.26,869.84 532.06,869.84 532.06,844.84 447.26,844.84 "/><g id="Threshold" class="Threshold"><polygon points="447.26,869.84 532.06,869.84 532.06,844.84 447.26,844.84 "/></g><g id="Panel" fill="none" style="" class="Panel Left Negative"><g id="PanelArea" fill="none" stroke="none" style="" class="PanelArea"><polygon points="447.26,869.84 532.06,869.84 532.06,844.84 447.26,844.84 "/></g><path d="M447.26,869.84 q0.00,84.79 84.79,84.79 l0.00,-84.79Z"/></g></g><g id="Window" fill="#f0f0ff" stroke="#000000" style="fill-opacity: 1; stroke-width: 1; stroke-opacity: 1;" class="Window Regular"><polygon points="420.85,869.84 444.48,869.84 444.48,844.84 420.85,844.84 "/><g id="Glass" class="Glass"><polygon points="420.85,869.84 444.48,869.84 444.48,844.84 420.85,844.84 "/></g><g id="Panel" class="Panel"><line x1="428.35300925993056" x2="436.9838130800299" y1="857.3369990314061" y2="857.3369990314061"/><line x1="428.35300925993056" x2="428.35300925993056" y1="869.8369990314061" y2="844.8369990314061"/><line x1="436.9838130800299" x2="436.9838130800299" y1="869.8369990314061" y2="844.8369990314061"/></g></g><g id="Window" fill="#f0f0ff" stroke="#000000" style="fill-opacity: 1; stroke-width: 1; stroke-opacity: 1;" class="Window Regular"><polygon points="535.53,869.84 557.77,869.84 557.77,844.84 535.53,844.84 "/><g id="Glass" class="Glass"><polygon points="535.53,869.84 557.77,869.84 557.77,844.84 535.53,844.84 "/></g><g id="Panel" class="Panel"><line x1="543.0319101515892" x2="550.2726666881533" y1="857.336999031406" y2="857.336999031406"/><line x1="543.0319101515892" x2="543.0319101515892" y1="869.836999031406" y2="844.836999031406"/><line x1="550.2726666881533" x2="550.2726666881533" y1="869.836999031406" y2="844.836999031406"/></g></g><g id="Window" fill="#f0f0ff" stroke="#000000" style="fill-opacity: 1; stroke-width: 1; stroke-opacity: 1;" class="Window Regular"><polygon points="183.15,869.84 405.56,869.84 405.56,844.84 183.15,844.84 "/><g id="Glass" class="Glass"><polygon points="183.15,869.84 405.56,869.84 405.56,844.84 183.15,844.84 "/></g><g id="Panel" class="Panel"><line x1="190.65492377540164" x2="398.0624891410427" y1="857.3369990314061" y2="857.3369990314061"/><line x1="190.65492377540164" x2="190.65492377540164" y1="869.8369990314061" y2="844.8369990314061"/><line x1="398.0624891410427" x2="398.0624891410427" y1="869.8369990314061" y2="844.8369990314061"/></g></g></g><g id="Wall" fill="#000000" stroke="#000000" style="fill-opacity: 1; stroke-opacity: 1; stroke-width: 0.2;" class="Wall External"><polygon points="950.83,844.84 950.83,264.57 972.83,242.57 972.83,869.84 "/><g id="Window" fill="#f0f0ff" stroke="#000000" style="fill-opacity: 1; stroke-width: 1; stroke-opacity: 1;" class="Window Regular"><polygon points="950.83,517.98 950.83,377.58 972.83,377.58 972.83,517.98 "/><g id="Glass" class="Glass"><polygon points="950.83,517.98 950.83,377.58 972.83,377.58 972.83,517.98 "/></g><g id="Panel" class="Panel"><line x1="961.8326922358364" x2="961.8326922358364" y1="510.47756813874014" y2="385.08279250167925"/><line x1="950.8326922358364" x2="972.8326922358364" y1="510.47756813874014" y2="510.47756813874014"/><line x1="950.8326922358364" x2="972.8326922358364" y1="385.08279250167925" y2="385.08279250167925"/></g></g><g id="Window" fill="#f0f0ff" stroke="#000000" style="fill-opacity: 1; stroke-width: 1; stroke-opacity: 1;" class="Window Regular"><polygon points="950.83,767.49 950.83,621.54 972.83,621.54 972.83,767.49 "/><g id="Glass" class="Glass"><polygon points="950.83,767.49 950.83,621.54 972.83,621.54 972.83,767.49 "/></g><g id="Panel" class="Panel"><line x1="961.8326922358365" x2="961.8326922358365" y1="759.9910555333187" y2="629.0360907621167"/><line x1="950.8326922358365" x2="972.8326922358365" y1="759.9910555333187" y2="759.9910555333187"/><line x1="950.8326922358365" x2="972.8326922358365" y1="629.0360907621167" y2="629.0360907621167"/></g></g></g><g id="Wall" fill="#000000" stroke="#000000" style="fill-opacity: 1; stroke-opacity: 1; stroke-width: 0.2;" class="Wall External"><polygon points="950.83,264.57 63.60,264.57 41.60,242.57 972.83,242.57 "/><g id="Window" fill="#f0f0ff" stroke="#000000" style="fill-opacity: 1; stroke-width: 1; stroke-opacity: 1;" class="Window Regular"><polygon points="489.43,264.57 137.91,264.57 137.91,242.57 489.43,242.57 "/><g id="Glass" class="Glass"><polygon points="489.43,264.57 137.91,264.57 137.91,242.57 489.43,242.57 "/></g><g id="Panel" class="Panel"><line x1="481.9348551473329" x2="145.40849867677787" y1="253.57475215419532" y2="253.57475215419532"/><line x1="481.9348551473329" x2="481.9348551473329" y1="264.5747521541953" y2="242.57475215419532"/><line x1="145.40849867677787" x2="145.40849867677787" y1="264.5747521541953" y2="242.57475215419532"/></g></g><g id="Door" fill="#ffffff" stroke="#000000" style="fill-opacity: 1; stroke-width: 1; stroke-opacity: 1;" class="Door Swing Beside"><polygon points="659.94,264.57 579.32,264.57 579.32,242.57 659.94,242.57 "/><g id="Threshold" class="Threshold"><polygon points="659.94,264.57 579.32,264.57 579.32,242.57 659.94,242.57 "/></g><g id="Panel" fill="none" style="" class="Panel Left Positive"><g id="PanelArea" fill="none" stroke="none" style="" class="PanelArea"><polygon points="659.94,264.57 579.32,264.57 579.32,242.57 659.94,242.57 "/></g><path d="M579.32,242.57 q0.00,-80.62 80.62,-80.62 l0.00,80.62Z"/></g></g><g id="Door" fill="#ffffff" stroke="#000000" style="fill-opacity: 1; stroke-width: 1; stroke-opacity: 1;" class="Door Swing Beside"><polygon points="809.37,264.57 740.56,264.57 740.56,242.57 809.37,242.57 "/><g id="Threshold" class="Threshold"><polygon points="809.37,264.57 740.56,264.57 740.56,242.57 809.37,242.57 "/></g><g id="Panel" fill="none" style="" class="Panel Right Positive"><g id="PanelArea" fill="none" stroke="none" style="" class="PanelArea"><polygon points="809.37,264.57 740.56,264.57 740.56,242.57 809.37,242.57 "/></g><path d="M809.37,242.57 q0.00,-68.81 -68.81,-68.81 l0.00,68.81Z"/></g></g></g><g id="Wall" fill="#000000" stroke="#000000" style="fill-opacity: 1; stroke-opacity: 1; stroke-width: 0.2;" class="Wall External"><polygon points="41.60,242.57 41.60,869.84 63.60,844.84 63.60,264.57 "/><g id="Window" fill="#f0f0ff" stroke="#000000" style="fill-opacity: 1; stroke-width: 1; stroke-opacity: 1;" class="Window Regular"><polygon points="41.60,328.18 41.60,439.57 63.60,439.57 63.60,328.18 "/><g id="Glass" class="Glass"><polygon points="41.60,328.18 41.60,439.57 63.60,439.57 63.60,328.18 "/></g><g id="Panel" class="Panel"><line x1="52.597285567464596" x2="52.5972855674646" y1="335.6842971420168" y2="432.0715734737112"/><line x1="41.597285567464596" x2="63.597285567464596" y1="335.6842971420168" y2="335.6842971420168"/><line x1="41.5972855674646" x2="63.5972855674646" y1="432.0715734737112" y2="432.0715734737112"/></g></g></g><g id="Wall" fill="#000000" stroke="#000000" style="fill-opacity: 1; stroke-opacity: 1; stroke-width: 0.2;" class="Wall"><polygon points="724.48,844.84 724.48,264.57 735.48,264.57 735.48,844.84 "/><g id="Door" fill="#ffffff" stroke="#000000" style="fill-opacity: 1; stroke-width: 1; stroke-opacity: 1;" class="Door Swing Beside"><polygon points="724.48,768.88 724.48,691.04 735.48,691.04 735.48,768.88 "/><g id="Threshold" class="Threshold"><polygon points="724.48,768.88 724.48,691.04 735.48,691.04 735.48,768.88 "/></g><g id="Panel" fill="none" style="" class="Panel Left Positive"><g id="PanelArea" fill="none" stroke="none" style="" class="PanelArea"><polygon points="724.48,768.88 724.48,691.04 735.48,691.04 735.48,768.88 "/></g><path d="M735.48,691.04 q77.84,0.00 77.84,77.84 l-77.84,0.00Z"/></g></g></g><g id="Wall" fill="#000000" stroke="#000000" style="fill-opacity: 1; stroke-opacity: 1; stroke-width: 0.2;" class="Wall"><polygon points="735.48,362.72 950.83,362.72 950.83,373.72 735.48,373.72 "/><g id="Door" fill="#ffffff" stroke="#000000" style="fill-opacity: 1; stroke-width: 1; stroke-opacity: 1;" class="Door Swing Beside"><polygon points="742.65,362.72 808.68,362.72 808.68,373.72 742.65,373.72 "/><g id="Threshold" class="Threshold"><polygon points="742.65,362.72 808.68,362.72 808.68,373.72 742.65,373.72 "/></g><g id="Panel" fill="none" style="" class="Panel Right Negative"><g id="PanelArea" fill="none" stroke="none" style="" class="PanelArea"><polygon points="742.65,362.72 808.68,362.72 808.68,373.72 742.65,373.72 "/></g><path d="M808.68,362.72 q0.00,-66.03 -66.03,-66.03 l0.00,66.03Z"/></g></g></g><g id="Wall" fill="#000000" stroke="#000000" style="fill-opacity: 1; stroke-opacity: 1; stroke-width: 0.2;" class="Wall"><polygon points="735.48,531.18 972.83,531.18 972.83,521.18 735.48,521.18 "/></g><g id="Wall" fill="#000000" stroke="#000000" style="fill-opacity: 1; stroke-opacity: 1; stroke-width: 0.2;" class="Wall"><polygon points="41.60,543.34 467.70,543.34 467.70,553.34 41.60,553.34 "/></g><g id="Wall" fill="#000000" stroke="#000000" style="fill-opacity: 1; stroke-opacity: 1; stroke-width: 0.2;" class="Wall"><polygon points="407.54,553.34 407.54,844.84 418.54,844.84 418.54,553.34 "/><g id="Door" fill="#ffffff" stroke="#000000" style="fill-opacity: 1; stroke-width: 1; stroke-opacity: 1;" class="Door Swing Beside"><polygon points="407.54,643.08 407.54,719.53 418.54,719.53 418.54,643.08 "/><g id="Threshold" class="Threshold"><polygon points="407.54,643.08 407.54,719.53 418.54,719.53 418.54,643.08 "/></g><g id="Panel" fill="none" style="" class="Panel Left Negative"><g id="PanelArea" fill="none" stroke="none" style="" class="PanelArea"><polygon points="407.54,643.08 407.54,719.53 418.54,719.53 418.54,643.08 "/></g><path d="M407.54,643.08 q-76.45,0.00 -76.45,76.45 l76.45,0.00Z"/></g></g></g><g id="Wall" fill="#000000" stroke="#000000" style="fill-opacity: 1; stroke-opacity: 1; stroke-width: 0.2;" class="Wall"><polygon points="418.54,777.34 576.31,777.34 566.31,788.34 418.54,788.34 "/><g id="Door" fill="#ffffff" stroke="#000000" style="fill-opacity: 1; stroke-width: 1; stroke-opacity: 1;" class="Door Swing Beside"><polygon points="459.77,777.34 536.92,777.34 536.92,788.34 459.77,788.34 "/><g id="Threshold" class="Threshold"><polygon points="459.77,777.34 536.92,777.34 536.92,788.34 459.77,788.34 "/></g><g id="Panel" fill="none" style="" class="Panel Left Negative"><g id="PanelArea" fill="none" stroke="none" style="" class="PanelArea"><polygon points="459.77,777.34 536.92,777.34 536.92,788.34 459.77,788.34 "/></g><path d="M459.77,777.34 q0.00,-77.15 77.15,-77.15 l0.00,77.15Z"/></g></g></g><g id="Wall" fill="#000000" stroke="#000000" style="fill-opacity: 1; stroke-opacity: 1; stroke-width: 0.2;" class="Wall"><polygon points="576.31,777.34 576.31,844.84 566.31,844.84 566.31,788.34 "/></g><g id="Wall" fill="#000000" stroke="#000000" style="fill-opacity: 1; stroke-opacity: 1; stroke-width: 0.2;" class="Wall"><polygon points="393.31,553.34 393.31,432.91 403.31,445.91 403.31,553.34 "/></g><g id="Wall" fill="#000000" stroke="#000000" style="fill-opacity: 1; stroke-opacity: 1; stroke-width: 0.2;" class="Wall"><polygon points="393.31,432.91 467.70,432.91 467.70,445.91 403.31,445.91 "/></g><g id="Column" fill="#000000" stroke="none" style="fill-opacity: 1;" class="Column Rectangle"><polygon points="393.31,543.34 393.31,460.67 366.01,460.67 366.01,543.34 "/></g><g id="Column" fill="#000000" stroke="none" style="fill-opacity: 1;" class="Column Rectangle"><polygon points="735.48,521.18 735.48,493.13 791.00,493.13 791.00,521.18 "/></g><g id="Railing" fill="#ffffff" stroke="#000000" style="fill-opacity: 1; stroke-opacity: 1; stroke-width: 0.2;" class="Railing"><polygon points="972.83,242.57 972.83,0.51 964.83,8.51 964.83,242.57 " style="stroke-dasharray: 242.066, 11.3137, 242.066;"/></g><g id="Railing" fill="#ffffff" stroke="#000000" style="fill-opacity: 1; stroke-opacity: 1; stroke-width: 0.2;" class="Railing"><polygon points="972.83,0.51 541.76,0.51 549.76,8.51 964.83,8.51 " style="stroke-dasharray: 431.072, 11.3137, 415.072, 11.3137;"/></g><g id="Railing" fill="#ffffff" stroke="#000000" style="fill-opacity: 1; stroke-opacity: 1; stroke-width: 0.2;" class="Railing"><polygon points="541.76,0.51 541.76,51.50 549.76,59.50 549.76,8.51 " style="stroke-dasharray: 50.9942, 11.3137, 50.9942, 11.3137;"/></g><g id="Railing" fill="#ffffff" stroke="#000000" style="fill-opacity: 1; stroke-opacity: 1; stroke-width: 0.2;" class="Railing"><polygon points="549.76,59.50 433.22,59.50 433.22,51.50 541.76,51.50 " style="stroke-dasharray: 233.091, 11.3137;"/></g><g id="Railing" fill="#ffffff" stroke="#000000" style="fill-opacity: 1; stroke-opacity: 1; stroke-width: 0.2;" class="Railing"><polygon points="433.22,170.17 549.76,170.17 541.76,178.17 433.22,178.17 " style="stroke-dasharray: 116.545, 11.3137, 116.545;"/></g><g id="Railing" fill="#ffffff" stroke="#000000" style="fill-opacity: 1; stroke-opacity: 1; stroke-width: 0.2;" class="Railing"><polygon points="541.76,178.17 541.76,242.57 549.76,242.57 549.76,170.17 " style="stroke-dasharray: 144.812, 11.3137;"/></g><g id="Stairs" fill="#ffffff" stroke="#000000" style="fill-opacity: 1; stroke-opacity: 1;" class="Stairs"><g id="Flight" class="Flight"><polygon points="433.22,59.50 534.16,59.50 534.16,170.02 433.22,170.02 "/><g class="WalkinLine "><path fill="none" stroke="#d3d3d3" d="M433.22,114.76 L534.16,114.76 " style="pointer-events: none; marker-end: url(&quot;#Marker2&quot;);"/><defs><marker viewBox="0 0 12 12" markerWidth="12" markerHeight="12" orient="auto" refX="11" refY="6" id="Marker2" fill="#d3d3d3" stroke="#d3d3d3" style="pointer-events: none;"><polygon points="0.00,0.00 0.00,12.00 10.00,6.00 0.00,0.00 "/></marker></defs></g><g id="Steps" class="Steps"><line x1="433.2158848247817" x2="433.2158848247817" y1="59.50288628621044" y2="170.01652054357788"/><line x1="458.4510476780748" x2="458.4510476780748" y1="59.50288628621043" y2="170.01652054357788"/><line x1="483.686210531368" x2="483.686210531368" y1="59.502886286210426" y2="170.01652054357788"/><line x1="508.92137338466114" x2="508.92137338466114" y1="59.502886286210426" y2="170.01652054357788"/><line x1="534.1565362379542" x2="534.1565362379542" y1="59.50288628621042" y2="170.01652054357785"/></g></g></g><g id="FixedFurnitureSet" transform="matrix(0,1,-1,0,950.8327,373.7167)" class="FixedFurnitureSet" fill="#ffffff" stroke="#000000" style="fill-opacity: 0.4; stroke-opacity: 0.4;"><g class="FixedFurniture SaunaBenchHigh" fill="#ffffff" stroke="#000000" transform="matrix(1,0,0,1,0,0)" style="fill-opacity: 1; stroke-opacity: 1;">
        <g class="BoundaryPolygon">
            <polygon points="0.00,0.00 147.19,0.00 147.19,46.81 0.00,46.81 "/>
        </g>
        <g class="Bench" stroke="#9a9a9a" stroke-width="0.5">
            <line x1="0" y1="3.1205268689717163" x2="147.19436552225724" y2="3.1205268689717163"/>
            <line x1="0" y1="6.2410537379434325" x2="147.19436552225724" y2="6.2410537379434325"/>
            <line x1="0" y1="9.361580606915151" x2="147.19436552225724" y2="9.361580606915151"/>
            <line x1="0" y1="12.482107475886865" x2="147.19436552225724" y2="12.482107475886865"/>
            <line x1="0" y1="15.602634344858561" x2="147.19436552225724" y2="15.602634344858561"/>
            <line x1="0" y1="18.723161213830302" x2="147.19436552225724" y2="18.723161213830302"/>
            <line x1="0" y1="21.84368808280201" x2="147.19436552225724" y2="21.84368808280201"/>
            <line x1="0" y1="24.96421495177373" x2="147.19436552225724" y2="24.96421495177373"/>
            <line x1="0" y1="28.084741820745442" x2="147.19436552225724" y2="28.084741820745442"/>
            <line x1="0" y1="31.205268689717123" x2="147.19436552225724" y2="31.205268689717123"/>
            <line x1="0" y1="34.325795558688895" x2="147.19436552225724" y2="34.325795558688895"/>
            <line x1="0" y1="37.446322427660604" x2="147.19436552225724" y2="37.446322427660604"/>
            <line x1="0" y1="40.56684929663229" x2="147.19436552225724" y2="40.56684929663229"/>
            <line x1="0" y1="43.68737616560402" x2="147.19436552225724" y2="43.68737616560402"/>
        </g>
        <g class="Direction" fill-opacity="0.9" style="display: none;">
            <polygon points="75.91,42.64 75.91,32.02 72.90,32.02 72.90,42.64 69.10,42.64 74.40,47.94 79.71,42.64 75.91,42.64 " fill="#444444"/>
        </g> 
        <g class="Name" fill-opacity="0.9" style="display: none;">
            <text transform="translate(3 12)" font-size="12" font-family="Verdana, Sans-Serif">SB_HIGH</text>
        </g>
        <desc>Width:185 Height:5 Depth:60 Elevation:105</desc>
    </g><g class="FixedFurniture SaunaBenchMid" fill="#ffffff" stroke="#000000" transform="matrix(1,0,0,1,0,46.8079)" style="fill-opacity: 1; stroke-opacity: 1;">
        <g class="BoundaryPolygon">
            <polygon points="0.00,0.00 147.19,0.00 147.19,31.21 0.00,31.21 "/>
        </g>
        <g class="Bench" stroke="#9a9a9a" stroke-width="0.5">
            <line x1="0" y1="3.1205268689717163" x2="147.19436552225724" y2="3.1205268689717163"/>
            <line x1="0" y1="6.2410537379434325" x2="147.19436552225724" y2="6.2410537379434325"/>
            <line x1="0" y1="9.361580606915151" x2="147.19436552225724" y2="9.361580606915151"/>
            <line x1="0" y1="12.482107475886865" x2="147.19436552225724" y2="12.482107475886865"/>
            <line x1="0" y1="15.602634344858561" x2="147.19436552225724" y2="15.602634344858561"/>
            <line x1="0" y1="18.723161213830302" x2="147.19436552225724" y2="18.723161213830302"/>
            <line x1="0" y1="21.84368808280201" x2="147.19436552225724" y2="21.84368808280201"/>
            <line x1="0" y1="24.96421495177373" x2="147.19436552225724" y2="24.96421495177373"/>
            <line x1="0" y1="28.084741820745442" x2="147.19436552225724" y2="28.084741820745442"/>
        </g>
        <g class="Direction" fill-opacity="0.9" style="display: none;">
            <polygon points="74.80,27.04 74.80,16.42 71.79,16.42 71.79,27.04 67.99,27.04 73.29,32.34 78.59,27.04 74.80,27.04 " fill="#444444"/>
        </g> 
        <g class="Name" fill-opacity="0.9" style="display: none;">
            <text transform="translate(3 12)" font-size="12" font-family="Verdana, Sans-Serif">SB_MID</text>
        </g>
        <desc>Width:185 Height:5 Depth:40 Elevation:60</desc>
    </g><g class="FixedFurniture SaunaBenchLow" fill="#ffffff" stroke="#000000" transform="matrix(1,0,0,1,0,78.0132)" style="fill-opacity: 1; stroke-opacity: 1;">
        <g class="BoundaryPolygon">
            <polygon points="0.00,0.00 147.19,0.00 147.19,31.21 0.00,31.21 "/>
        </g>
        <g class="Bench" stroke="#9a9a9a" stroke-width="0.5">
            <line x1="0" y1="3.1205268689717163" x2="147.19436552225724" y2="3.1205268689717163"/>
            <line x1="0" y1="6.2410537379434325" x2="147.19436552225724" y2="6.2410537379434325"/>
            <line x1="0" y1="9.361580606915151" x2="147.19436552225724" y2="9.361580606915151"/>
            <line x1="0" y1="12.482107475886865" x2="147.19436552225724" y2="12.482107475886865"/>
            <line x1="0" y1="15.602634344858561" x2="147.19436552225724" y2="15.602634344858561"/>
            <line x1="0" y1="18.723161213830302" x2="147.19436552225724" y2="18.723161213830302"/>
            <line x1="0" y1="21.84368808280201" x2="147.19436552225724" y2="21.84368808280201"/>
            <line x1="0" y1="24.96421495177373" x2="147.19436552225724" y2="24.96421495177373"/>
            <line x1="0" y1="28.084741820745442" x2="147.19436552225724" y2="28.084741820745442"/>
        </g>
        <g class="Direction" fill-opacity="0.9" style="display: none;">
            <polygon points="74.80,27.04 74.80,16.42 71.79,16.42 71.79,27.04 67.99,27.04 73.29,32.34 78.59,27.04 74.80,27.04 " fill="#444444"/>
        </g> 
        <g class="Name" fill-opacity="0.9" style="display: none;">
            <text transform="translate(3 12)" font-size="12" font-family="Verdana, Sans-Serif">SB_LOW</text>
        </g>
        <desc>Width:185 Height:5 Depth:40 Elevation:30</desc>
    </g></g><g class="FixedFurniture ElectricalAppliance SaunaStove" fill="#ffffff" stroke="#000000" transform="matrix(0,-0.8233,1.1009,0,735.4819,486.4168)" style="fill-opacity: 1; stroke-opacity: 1;"> 
	   <g class="BoundaryPolygon"> 
		    <polygon points="0,0 60,0 60,35 0,35"/>
		</g>
	    <g class="electricitySign" fill="none">
		    <polyline points="0 35 39.7 17.5 21.4 17.5 60 0"/>
		</g>
        <g class="Direction" fill-opacity="0.9" style="display: none;">
            <polygon points="31.509 29.697 31.509 19.081 28.5 19.081 28.5 29.697 24.697 29.697 30 35 35.303 29.697 31.509 29.697" fill="#444444"/>
        </g> 
        <g class="Name" fill-opacity="0.9" style="display: none;">
            <text transform="translate(3 12)" font-size="12" font-family="Verdana, Sans-Serif">SS</text>
        </g>
        <desc>Width:60 Height:60 Depth:35 Elevation:20</desc>
	</g><g class="FixedFurniture Fireplace" fill="#ffffff" stroke="#000000" transform="matrix(0,-1.2885,1.0655,0,403.4584,543.1887)" style="fill-opacity: 1; stroke-opacity: 1;">     
	    <g class="BoundaryPolygon"> 
		    <polygon points="0,0 75,0 75,60 0,60"/> 
		</g>
	    <g class="Lines" fill="none" stroke="#4c4c4c"> 
		    <line x1="0.629" y1="9.556" x2="51.294" y2="60.205"/>
            <line x1="0.598" y1="25.167" x2="35.942" y2="60.5"/>
            <line x1="0.5" y1="40.841" x2="20.479" y2="60.5"/>
            <line x1="40.648" y1="0.5" x2="75.432" y2="35.274"/>
            <line x1="8.329" y1="0.5" x2="68.348" y2="60.5"/>
            <line x1="24.88" y1="0.5" x2="75.5" y2="51.104"/>
            <line x1="56.774" y1="0.5" x2="75.5" y2="19.22"/>
		</g>
	    <g class="FireBox">  &gt;	
		    <rect x="22.053" y="19.92" width="32.571" height="40.58"/>
	    </g>
        <g class="Direction" fill-opacity="0.9" style="display: none;">
            <polygon points="39.409 54.797 39.409 44.181 36.4 44.181 36.4 54.797 32.597 54.797 37.9 60.1 43.203 54.797 39.409 54.797" fill="#444444"/>
        </g> 
        <g class="Name" fill-opacity="0.9" style="display: none;">
            <text transform="translate(3 12)" font-size="12" font-family="Verdana, Sans-Serif">FP</text>
        </g>
        <desc>Width:75 Height:120 Depth:60 Elevation:0</desc>
    </g><g class="FixedFurniture Closet" fill="#ffffff" stroke="#000000" transform="matrix(-1,0,0,-1,117.9673,543.3393)" style="fill-opacity: 1; stroke-opacity: 1;">
        <g class="BoundaryPolygon">
            <polygon points="0.00,0.00 54.37,0.00 54.37,60.00 0.00,60.00 "/>
        </g>
        <g class="Direction" fill-opacity="0.9" style="display: none;">
            <polygon points="28.55,54.70 28.55,44.08 25.54,44.08 25.54,54.70 21.74,54.70 27.04,60.00 32.35,54.70 28.55,54.70 " fill="#444444"/>
        </g> 
        <g class="Name" fill-opacity="0.9" style="display: none;">
            <text transform="translate(3 12)" font-size="12" font-family="Verdana, Sans-Serif">CL</text>
        </g>
        <desc>Width:60 Height:200 Depth:60 Elevation:0</desc>
     </g><g class="FixedFurniture BaseCabinet" fill="#ffffff" stroke="#000000" transform="matrix(-1,0,0,-1,365.8073,543.3393)" style="fill-opacity: 1; stroke-opacity: 1;">
        <g class="BoundaryPolygon">
            <polygon points="0.00,0.00 247.84,0.00 247.84,60.00 0.00,60.00 "/>
        </g>
        <g class="Direction" fill-opacity="0.9" style="display: none;">
            <polygon points="132.22,55.20 132.22,44.58 129.21,44.58 129.21,55.20 125.41,55.20 130.71,60.00 136.01,55.20 132.22,55.20 " fill="#444444"/>
        </g> 
        <g class="Name" fill-opacity="0.9" style="display: none;">
            <text transform="translate(3 12)" font-size="12" font-family="Verdana, Sans-Serif">CB</text>
        </g>
        <desc>Width:60 Height:90 Depth:60 Elevation:0</desc>
    </g><g class="FixedFurniture WoodStove" fill="#ffffff" stroke="#000000" transform="matrix(-1,0,0,-1,365.8073,543.3393)" style="fill-opacity: 1; stroke-opacity: 1;">
	   <g class="BoundaryPolygon"> 
            <polygon points="0.00,0.00 75.87,0.00 75.87,59.53 0.00,59.53 "/>
        </g>	
	    <g class="OuterCircle">
		    <circle cx="21.015116168121235" cy="30.037988203114416" r="19.6"/>
		    <circle cx="56.82426718383687" cy="30.037988203114416" r="14.7"/>
		</g>
        <desc>Width:100 Height:90 Depth:65 Elevation:0</desc>
	</g><g class="FixedFurniture ElectricalAppliance IntegratedStove" fill="#ffffff" stroke="#000000" transform="matrix(-1,0,0,-1,289.9405,543.3394)" style="fill-opacity: 1; stroke-opacity: 1;">
        <g class="BoundaryPolygon" fill="none" stroke="none">
            <polygon points="0 0 60 0 60 60 0 60"/>
        </g>
        <g class="InnerPolygon">
            <polygon points="2,2 58,2 58,58 2,58"/>
        </g>
        <g class="OuterCircle">
            <circle cx="16" cy="16" r="8"/>
            <circle cx="44" cy="16" r="8"/>
            <circle cx="16" cy="44" r="8"/>
            <circle cx="44" cy="44" r="8"/>
        </g>
        <g class="Direction" fill-opacity="0.9" style="display: none;">
            <polygon points="32.009 55.197 32.009 44.581 29 44.581 29 55.197 25.197 55.197 30.5 60 35.803 55.197 32.009 55.197" fill="#444444"/>
        </g> 
        <g class="Name" fill-opacity="0.9" style="display: none;">
            <text transform="translate(3 12)" font-size="12" font-family="Verdana, Sans-Serif">INT_STOVE</text>
        </g>
        <desc>Width:60 Height:90 Depth:30 Elevation:0</desc>
    </g><g class="FixedFurniture Sink" fill="#ffffff" stroke="#000000" transform="matrix(-1,0,0,-1,210.8307,543.3393)" style="fill-opacity: 1; stroke-opacity: 1;">
        <g class="BoundaryPolygon" fill="none" stroke="none">
            <polygon points="0.00,0.00 73.42,0.00 73.42,60.00 0.00,60.00 "/>
        </g>
        <g class="InnerPolygon">
            <polygon points="6.12,9.70 67.30,9.70 67.30,54.70 6.12,54.70 "/>
        </g>
        <g class="OuterDrain" stroke-width="0.8">
            <circle cx="36.710394287339014" cy="32.2" r="3.5"/>
        </g>
        <g class="InnerDrain" stroke-width="0.8">
            <circle cx="36.710394287339014" cy="32.2" r="2"/>
        </g>
        <g class="Faucet">
            <polygon points="33.04,5.00 39.04,5.00 39.04,19.00 33.04,19.00 "/>
        </g>
        <g class="Direction" fill-opacity="0.9" style="display: none;">
            <polygon points="39.17,55.20 39.17,44.58 36.16,44.58 36.16,55.20 32.36,55.20 37.66,60.00 42.96,55.20 39.17,55.20 " fill="#444444"/>
        </g> 
        <g class="Name" fill-opacity="0.9" style="display: none;">
            <text transform="translate(3 12)" font-size="12" font-family="Verdana, Sans-Serif">SINK</text>
        </g>
        <desc>Width:60 Height:90 Depth:60 Elevation:0</desc>
    </g><g class="FixedFurniture WallCabinet" fill="#ffffff" stroke="#000000" transform="matrix(-1,0,0,-1,365.8648,543.3393)" style="fill-opacity: 0.7; stroke-opacity: 1;">	
        <g class="BoundaryPolygon">
            <polygon points="0.00,0.00 247.90,0.00 247.90,30.00 0.00,30.00 "/>
        </g>
        <g class="Direction" fill-opacity="0.9" style="display: none;">
            <polygon points="132.25,25.20 132.25,14.58 129.24,14.58 129.24,25.20 125.44,25.20 130.74,30.00 136.04,25.20 132.25,25.20 " fill="#444444"/>
        </g> 
        <g class="Name" fill-opacity="0.9" style="display: none;">
            <text transform="translate(3 12)" font-size="12" font-family="Verdana, Sans-Serif">UC</text>
        </g>
        <desc>Width:60 Height:60 Depth:30 Elevation:140</desc>
    </g><g id="Stairs" fill="#ffffff" stroke="#000000" style="fill-opacity: 1; stroke-opacity: 1;" class="Stairs"><g id="Flight" class="Flight"><polygon points="418.54,935.96 418.54,874.61 555.51,874.61 555.51,935.96 "/><g class="WalkinLine "><path fill="none" stroke="#d3d3d3" d="M487.02,935.96 L487.02,874.61 " style="pointer-events: none; marker-end: url(&quot;#Marker3&quot;);"/><defs><marker viewBox="0 0 12 12" markerWidth="12" markerHeight="12" orient="auto" refX="11" refY="6" id="Marker3" fill="#d3d3d3" stroke="#d3d3d3" style="pointer-events: none;"><polygon points="0.00,0.00 0.00,12.00 10.00,6.00 0.00,0.00 "/></marker></defs></g><g id="Steps" class="Steps"><line x1="418.54215798194605" x2="555.5065449176934" y1="935.9581587673529" y2="935.9581587673529"/><line x1="418.54215798194605" x2="555.5065449176934" y1="905.2850039207125" y2="905.2850039207125"/><line x1="418.54215798194605" x2="555.5065449176934" y1="874.6118490740721" y2="874.6118490740721"/></g></g></g><g fill="#0000ff" stroke="#0000ff" style="display: none;" class="SelectionControls"><g style="display: none;" class="rotateControl"><circle cx="577.019356246333" cy="498.12370215419537" r="5" style="stroke : none; fill-opacity: 0.5; cursor:crosshair"/></g><g style="display: none;" class="ResizeNControl"><circle cx="0" cy="0" r="5" style="stroke : none; fill-opacity: 0.5"/></g><g style="display: none;" class="ResizeNEControl"><circle cx="0" cy="0" r="5" style="stroke : none; fill-opacity: 0.5"/></g><g style="display: none;" class="ResizeEControl"><circle cx="0" cy="0" r="5" style="stroke : none; fill-opacity: 0.5"/></g><g style="display: none;" class="ResizeSEControl"><circle cx="0" cy="0" r="5" style="stroke : none; fill-opacity: 0.5"/></g><g style="display: none;" class="ResizeSControl"><circle cx="0" cy="0" r="5" style="stroke : none; fill-opacity: 0.5"/></g><g style="display: none;" class="ResizeSWControl"><circle cx="0" cy="0" r="5" style="stroke : none; fill-opacity: 0.5"/></g><g style="display: none;" class="ResizeWControl"><circle cx="0" cy="0" r="5" style="stroke : none; fill-opacity: 0.5"/></g><g style="display: none;" class="ResizeNWControl"><circle cx="0" cy="0" r="5" style="stroke : none; fill-opacity: 0.5"/></g><g style="display: none;" class="removeControl"><polygon style="stroke : none; fill-opacity: 0.1" points="551.64,528.12 602.39,528.12 602.39,568.08 551.64,568.08 "/></g><g style="display: none;" class="copyPasteControl"><polygon style="stroke : none; fill-opacity: 0.1"/></g><g style="display: none;" class="translateControl"><polygon style="stroke : none; fill-opacity: 0.1; cursor:move" points="551.64,528.12 602.39,528.12 602.39,568.08 551.64,568.08 "/></g></g><g fill="#0000ff" stroke="#0000ff" style="display: none;" class="SelectionControls"><polygon fill="none" stroke="#0000ff" style="" points="403.31,264.57 734.48,264.57 734.48,844.84 403.31,844.84 "/><g style="display: none;" class="rotateControl"><circle cx="568.8945547814892" cy="234.57475215419532" r="5" style="stroke : none; fill-opacity: 0.5; cursor:crosshair"/></g><g style="display: none;" class="ResizeNControl"><circle cx="0" cy="0" r="5" style="stroke : none; fill-opacity: 0.5"/></g><g style="display: none;" class="ResizeNEControl"><circle cx="0" cy="0" r="5" style="stroke : none; fill-opacity: 0.5"/></g><g style="display: none;" class="ResizeEControl"><circle cx="0" cy="0" r="5" style="stroke : none; fill-opacity: 0.5"/></g><g style="display: none;" class="ResizeSEControl"><circle cx="0" cy="0" r="5" style="stroke : none; fill-opacity: 0.5"/></g><g style="display: none;" class="ResizeSControl"><circle cx="0" cy="0" r="5" style="stroke : none; fill-opacity: 0.5"/></g><g style="display: none;" class="ResizeSWControl"><circle cx="0" cy="0" r="5" style="stroke : none; fill-opacity: 0.5"/></g><g style="display: none;" class="ResizeWControl"><circle cx="0" cy="0" r="5" style="stroke : none; fill-opacity: 0.5"/></g><g style="display: none;" class="ResizeNWControl"><circle cx="0" cy="0" r="5" style="stroke : none; fill-opacity: 0.5"/></g><g style="display: none;" class="removeControl"><polygon style="stroke : none; fill-opacity: 0.1"/></g><g style="display: none;" class="copyPasteControl"><polygon style="stroke : none; fill-opacity: 0.1"/></g><g style="display: none;" class="translateControl"><polygon style="stroke : none; fill-opacity: 0.1; cursor:move"/></g></g></g></g></g></svg>
