<?xml version="1.0"?>
<svg xmlns="http://www.w3.org/2000/svg" xmlns:xlink="http://www.w3.org/1999/xlink" height="905.8800048828125" version="1.1" width="1183.9326858520508" id="temp" viewBox="0 0 1183.9326858520508 905.8800048828125"><defs/><g id="Model" class="Model v1-1"><g class="Floor"><g id="Floor-1" class="Floorplan Floor-1"><g id="8b4b5126-7710-4e8d-887c-b6d0963a1fd3" fill="#ffffff" stroke="#ffffff" style="fill-opacity: 1; stroke-opacity: 1; stroke-width: 0.2;" class="Space Room"><polygon points="326.08,264.72 506.15,264.72 506.15,359.22 437.86,359.22 437.86,409.64 128.18,409.64 128.18,112.81 326.08,112.81 "/><g transform="matrix(1,0,0,1,128.1817,112.81)" class="Dimension"><g transform="matrix(1,0,0,1,0,0)" style="display: none;" class="Visual"><g id="mark1" fill="#000000" stroke="none" transform="matrix(1,0,0,1,188.9831,0)" style="fill-opacity: 1; pointer-events: visible;" class="DimensionMark"><polygon points="-5,5,0,0,5,5"/></g><g id="mark2" fill="#000000" stroke="none" transform="matrix(1,0,0,1,377.9662,151.9085)" style="fill-opacity: 1; pointer-events: visible;" class="DimensionMark"><polygon points="-5,-5,0,0,-5,5"/></g><g id="mark3" fill="#000000" stroke="none" transform="matrix(1,0,0,1,188.9831,296.831)" style="fill-opacity: 1; pointer-events: visible;" class="DimensionMark"><polygon points="-5,-5,0,0,5,-5"/></g><g id="mark4" fill="#000000" stroke="none" transform="matrix(1,0,0,1,0,151.9085)" style="fill-opacity: 1; pointer-events: visible;" class="DimensionMark"><polygon points="5,5,0,0,5,-5"/></g></g><g transform="matrix(1,0,0,1,89.2356,156.8647)" class="SpaceDimensionsLabel" style="display: block;"><g id="NameLabel" style="display: block;" class="TextLabel NameLabel"><text x="0" y="0em" fill="#000000" stroke="none" style="font-family: Verdana; font-size: 33px; fill-opacity: 1; cursor: default;">H</text></g><g id="DimensionMeasureLabel" transform="matrix(1,0,0,1,-85.4219,40.5469)" style="display: none;" class="TextLabel DimensionMeasureLabel"><text x="0" y="0em" fill="#000000" stroke="none" style="font-family: Verdana; font-size: 33px; fill-opacity: 1; cursor: default;">12'5" x 9'9"</text><text x="0" y="0"/></g></g></g></g><g id="70d5ccd8-57c1-4cba-bf01-9579d994ca89" fill="#ffffff" stroke="#ffffff" style="fill-opacity: 1; stroke-opacity: 1; stroke-width: 0.2;" class="Space Kitchen Kitchenette"><polygon points="558.60,256.72 511.22,256.72 511.22,264.14 506.15,264.14 506.15,264.72 326.08,264.72 326.08,112.81 558.60,112.81 "/><g transform="matrix(1,0,0,1,326.0799,112.81)" class="Dimension"><g transform="matrix(1,0,0,1,0,0)" style="display: none;" class="Visual"><g id="mark1" fill="#000000" stroke="none" transform="matrix(1,0,0,1,116.2608,0)" style="fill-opacity: 1; pointer-events: visible;" class="DimensionMark"><polygon points="-5,5,0,0,5,5"/></g><g id="mark2" fill="#000000" stroke="none" transform="matrix(1,0,0,1,232.5215,75.9543)" style="fill-opacity: 1; pointer-events: visible;" class="DimensionMark"><polygon points="-5,-5,0,0,-5,5"/></g><g id="mark3" fill="#000000" stroke="none" transform="matrix(1,0,0,1,116.2608,151.9085)" style="fill-opacity: 1; pointer-events: visible;" class="DimensionMark"><polygon points="-5,-5,0,0,5,-5"/></g><g id="mark4" fill="#000000" stroke="none" transform="matrix(1,0,0,1,0,75.9543)" style="fill-opacity: 1; pointer-events: visible;" class="DimensionMark"><polygon points="5,5,0,0,5,-5"/></g></g><g transform="matrix(1,0,0,1,72.2663,118.5044)" class="SpaceDimensionsLabel" style="display: block;"><g id="NameLabel" style="display: block;" class="TextLabel NameLabel"><text x="0" y="0em" fill="#000000" stroke="none" style="font-family: Verdana; font-size: 33px; fill-opacity: 1; cursor: default;">KK</text></g><g id="DimensionMeasureLabel" transform="matrix(1,0,0,1,-64.4688,40.0782)" style="display: none;" class="TextLabel DimensionMeasureLabel"><text x="0" y="0em" fill="#000000" stroke="none" style="font-family: Verdana; font-size: 33px; fill-opacity: 1; cursor: default;">7'8" x 5'0"</text><text x="0" y="0"/></g></g></g></g><g id="1952907b-696f-4a07-8c3f-3294480ea782" fill="#ffffff" stroke="#ffffff" style="fill-opacity: 1; stroke-opacity: 1; stroke-width: 0.2;" class="Space Entry Lobby"><polygon points="511.22,264.72 722.23,264.72 722.23,369.27 608.80,369.27 608.80,689.52 507.28,689.52 507.28,359.22 506.15,359.22 506.15,264.14 511.22,264.14 "/><g transform="matrix(1,0,0,1,507.2761,264.7185)" class="Dimension"><g transform="matrix(1,0,0,1,0,0)" style="display: none;" class="Visual"><g id="mark1" fill="#000000" stroke="none" transform="matrix(1,0,0,1,101.5267,0)" style="fill-opacity: 1; pointer-events: visible;" class="DimensionMark"><polygon points="-5,5,0,0,5,5"/></g><g id="mark2" fill="#000000" stroke="none" transform="matrix(1,0,0,1,214.9497,104.5472)" style="fill-opacity: 1; pointer-events: visible;" class="DimensionMark"><polygon points="-5,-5,0,0,-5,5"/></g><g id="mark3" fill="#000000" stroke="none" transform="matrix(1,0,0,1,101.5267,424.7985)" style="fill-opacity: 1; pointer-events: visible;" class="DimensionMark"><polygon points="-5,-5,0,0,5,-5"/></g><g id="mark4" fill="#000000" stroke="none" transform="matrix(1,0,0,1,0,104.5472)" style="fill-opacity: 1; pointer-events: visible;" class="DimensionMark"><polygon points="5,5,0,0,5,-5"/></g></g><g transform="matrix(1,0,0,1,28.4954,197.6097)" class="SpaceDimensionsLabel" style="display: block;"><g id="NameLabel" style="display: block;" class="TextLabel NameLabel"><text x="0" y="0em" fill="#000000" stroke="none" style="font-family: Verdana; font-size: 33px; fill-opacity: 1; cursor: default;">ET</text></g><g id="DimensionMeasureLabel" transform="matrix(1,0,0,1,-87.1562,39.9218)" style="display: none;" class="TextLabel DimensionMeasureLabel"><text x="0" y="0em" fill="#000000" stroke="none" style="font-family: Verdana; font-size: 33px; fill-opacity: 1; cursor: default;">7'1" x 13'11"</text><text x="0" y="0"/></g></g></g></g><g id="d4f491ca-c4e0-46f0-9c51-2571fc917b07" fill="#ffffff" stroke="#ffffff" style="fill-opacity: 1; stroke-opacity: 1; stroke-width: 0.2;" class="Space Room"><polygon points="1163.44,508.93 661.85,508.93 661.85,445.56 730.23,445.56 730.23,112.81 1163.44,112.81 "/><g transform="matrix(1,0,0,1,730.2258,112.81)" class="Dimension"><g transform="matrix(1,0,0,1,0,0)" style="display: none;" class="Visual"><g id="mark1" fill="#000000" stroke="none" transform="matrix(1,0,0,1,182.4185,0)" style="fill-opacity: 1; pointer-events: visible;" class="DimensionMark"><polygon points="-5,5,0,0,5,5"/></g><g id="mark2" fill="#000000" stroke="none" transform="matrix(1,0,0,1,433.2118,198.059)" style="fill-opacity: 1; pointer-events: visible;" class="DimensionMark"><polygon points="-5,-5,0,0,-5,5"/></g><g id="mark3" fill="#000000" stroke="none" transform="matrix(1,0,0,1,182.4185,396.1179)" style="fill-opacity: 1; pointer-events: visible;" class="DimensionMark"><polygon points="-5,-5,0,0,5,-5"/></g><g id="mark4" fill="#000000" stroke="none" transform="matrix(1,0,0,1,0,198.059)" style="fill-opacity: 1; pointer-events: visible;" class="DimensionMark"><polygon points="5,5,0,0,5,-5"/></g></g><g transform="matrix(1,0,0,1,225.3221,199.0335)" class="SpaceDimensionsLabel" style="display: block;"><g id="NameLabel" style="display: block;" class="TextLabel NameLabel"><text x="0" y="0em" fill="#000000" stroke="none" style="font-family: Verdana; font-size: 33px; fill-opacity: 1; cursor: default;">H</text></g><g id="DimensionMeasureLabel" transform="matrix(1,0,0,1,-95.9062,40.0782)" style="display: none;" class="TextLabel DimensionMeasureLabel"><text x="0" y="0em" fill="#000000" stroke="none" style="font-family: Verdana; font-size: 33px; fill-opacity: 1; cursor: default;">14'3" x 13'0"</text><text x="0" y="0"/></g></g></g></g><g id="fc97dacd-2687-4c89-a161-0bb5ce88b247" fill="#ffffff" stroke="#ffffff" style="fill-opacity: 1; stroke-opacity: 1; stroke-width: 0.2;" class="Space Bath"><polygon points="722.23,256.72 566.60,256.72 566.60,133.16 644.18,133.16 644.18,112.81 722.23,112.81 "/><g transform="matrix(1,0,0,1,566.6014,112.81)" class="Dimension"><g transform="matrix(1,0,0,1,0,0)" style="display: none;" class="Visual"><g id="mark1" fill="#000000" stroke="none" transform="matrix(1,0,0,1,77.8122,0)" style="fill-opacity: 1; pointer-events: visible;" class="DimensionMark"><polygon points="-5,5,0,0,5,5"/></g><g id="mark2" fill="#000000" stroke="none" transform="matrix(1,0,0,1,155.6244,71.9543)" style="fill-opacity: 1; pointer-events: visible;" class="DimensionMark"><polygon points="-5,-5,0,0,-5,5"/></g><g id="mark3" fill="#000000" stroke="none" transform="matrix(1,0,0,1,77.8122,143.9085)" style="fill-opacity: 1; pointer-events: visible;" class="DimensionMark"><polygon points="-5,-5,0,0,5,-5"/></g><g id="mark4" fill="#000000" stroke="none" transform="matrix(1,0,0,1,0,71.9543)" style="fill-opacity: 1; pointer-events: visible;" class="DimensionMark"><polygon points="5,5,0,0,5,-5"/></g></g><g transform="matrix(1,0,0,1,24.6865,95.563)" class="SpaceDimensionsLabel" style="display: block;"><g id="NameLabel" style="display: block;" class="TextLabel NameLabel"><text x="0" y="0em" fill="#000000" stroke="none" style="font-family: Verdana; font-size: 33px; fill-opacity: 1; cursor: default;">KPH</text></g><g id="DimensionMeasureLabel" transform="matrix(1,0,0,1,-53.5391,40.3438)" style="display: none;" class="TextLabel DimensionMeasureLabel"><text x="0" y="0em" fill="#000000" stroke="none" style="font-family: Verdana; font-size: 33px; fill-opacity: 1; cursor: default;">5'1" x 4'9"</text><text x="0" y="0"/></g></g></g></g><g id="8b7699d9-ca44-4997-a437-f020a39a5c70" fill="#ffffff" stroke="#ffffff" style="fill-opacity: 1; stroke-opacity: 1; stroke-width: 0.2;" class="Space Undefined"><polygon points="608.80,812.67 507.28,812.67 507.28,697.52 608.80,697.52 "/><g transform="matrix(1,0,0,1,507.2761,697.517)" class="Dimension"><g transform="matrix(1,0,0,1,0,0)" style="display: none;" class="Visual"><g id="mark1" fill="#000000" stroke="none" transform="matrix(1,0,0,1,50.7634,0)" style="fill-opacity: 1; pointer-events: visible;" class="DimensionMark"><polygon points="-5,5,0,0,5,5"/></g><g id="mark2" fill="#000000" stroke="none" transform="matrix(1,0,0,1,101.5267,57.575)" style="fill-opacity: 1; pointer-events: visible;" class="DimensionMark"><polygon points="-5,-5,0,0,-5,5"/></g><g id="mark3" fill="#000000" stroke="none" transform="matrix(1,0,0,1,50.7634,115.1501)" style="fill-opacity: 1; pointer-events: visible;" class="DimensionMark"><polygon points="-5,-5,0,0,5,-5"/></g><g id="mark4" fill="#000000" stroke="none" transform="matrix(1,0,0,1,0,57.575)" style="fill-opacity: 1; pointer-events: visible;" class="DimensionMark"><polygon points="5,5,0,0,5,-5"/></g></g><g transform="matrix(1,0,0,1,50.7633,50.7634)" class="SpaceDimensionsLabel"><g id="NameLabel" style="display: block;" class="TextLabel NameLabel"><text x="0" y="0em" fill="#000000" stroke="none" style="font-family: Verdana; font-size: 33px; fill-opacity: 1; cursor: default;">UNDEFINED</text></g><g id="DimensionMeasureLabel" transform="matrix(1,0,0,1,12.1485,40.875)" style="display: none;" class="TextLabel DimensionMeasureLabel"><text x="0" y="0em" fill="#000000" stroke="none" style="font-family: Verdana; font-size: 33px; fill-opacity: 1; cursor: default;">3'4" x 3'9"</text><text x="0" y="0"/></g></g></g></g><g id="62da33d9-d20a-42f0-86cb-680afb9c49a1" fill="#ffffff" stroke="#ffffff" style="fill-opacity: 1; stroke-opacity: 1; stroke-width: 0.2;" class="Space Undefined"><polygon points="722.23,438.11 653.85,438.11 653.85,470.86 616.80,470.86 616.80,377.27 722.23,377.27 "/><g transform="matrix(1,0,0,1,616.8028,377.2657)" class="Dimension"><g transform="matrix(1,0,0,1,0,0)" style="display: none;" class="Visual"><g id="mark1" fill="#000000" stroke="none" transform="matrix(1,0,0,1,37.0483,0)" style="fill-opacity: 1; pointer-events: visible;" class="DimensionMark"><polygon points="-5,5,0,0,5,5"/></g><g id="mark2" fill="#000000" stroke="none" transform="matrix(1,0,0,1,105.423,46.7947)" style="fill-opacity: 1; pointer-events: visible;" class="DimensionMark"><polygon points="-5,-5,0,0,-5,5"/></g><g id="mark3" fill="#000000" stroke="none" transform="matrix(1,0,0,1,37.0483,93.5893)" style="fill-opacity: 1; pointer-events: visible;" class="DimensionMark"><polygon points="-5,-5,0,0,5,-5"/></g><g id="mark4" fill="#000000" stroke="none" transform="matrix(1,0,0,1,0,46.7947)" style="fill-opacity: 1; pointer-events: visible;" class="DimensionMark"><polygon points="5,5,0,0,5,-5"/></g></g><g transform="matrix(1,0,0,1,30.709,30.709)" class="SpaceDimensionsLabel"><g id="NameLabel" style="display: block;" class="TextLabel NameLabel"><text x="0" y="0em" fill="#000000" stroke="none" style="font-family: Verdana; font-size: 33px; fill-opacity: 1; cursor: default;">UNDEFINED</text></g><g id="DimensionMeasureLabel" transform="matrix(1,0,0,1,12.1485,40.875)" style="display: none;" class="TextLabel DimensionMeasureLabel"><text x="0" y="0em" fill="#000000" stroke="none" style="font-family: Verdana; font-size: 33px; fill-opacity: 1; cursor: default;">3'6" x 3'1"</text><text x="0" y="0"/></g></g></g></g><g id="Wall" fill="#000000" stroke="#000000" style="fill-opacity: 1; stroke-opacity: 1; stroke-width: 0.2;" class="Wall External"><polygon points="1183.93,87.81 110.18,87.81 128.18,112.81 1163.44,112.81 "/></g><g id="Wall" fill="#000000" stroke="#000000" style="fill-opacity: 1; stroke-opacity: 1; stroke-width: 0.2;" class="Wall External"><polygon points="110.18,87.81 110.18,428.64 128.18,409.64 128.18,112.81 "/><g id="Window" fill="#f0f0ff" stroke="#000000" style="fill-opacity: 1; stroke-width: 1; stroke-opacity: 1;" class="Window Regular"><polygon points="110.18,205.22 110.18,362.32 128.18,362.32 128.18,205.22 "/><g id="Glass" class="Glass"><polygon points="110.18,205.22 110.18,362.32 128.18,362.32 128.18,205.22 "/></g><g id="Panel" class="Panel"><line x1="119.18172142492335" x2="119.18172142492335" y1="212.71759028074152" y2="354.8212363929076"/><line x1="110.18172142492335" x2="128.18172142492335" y1="212.71759028074152" y2="212.71759028074152"/><line x1="110.18172142492335" x2="128.18172142492335" y1="354.8212363929076" y2="354.8212363929076"/></g></g></g><g id="Wall" fill="#000000" stroke="#000000" style="fill-opacity: 1; stroke-opacity: 1; stroke-width: 0.2;" class="Wall External"><polygon points="110.18,428.64 489.28,428.64 507.28,409.64 128.18,409.64 "/></g><g id="Wall" fill="#000000" stroke="#000000" style="fill-opacity: 1; stroke-opacity: 1; stroke-width: 0.2;" class="Wall External"><polygon points="489.28,428.64 489.28,830.67 507.28,812.67 507.28,409.64 "/></g><g id="Wall" fill="#000000" stroke="#000000" style="fill-opacity: 1; stroke-opacity: 1; stroke-width: 0.2;" class="Wall External"><polygon points="489.28,830.67 628.80,830.67 608.80,812.67 507.28,812.67 "/><g id="Door" fill="#ffffff" stroke="#000000" style="fill-opacity: 1; stroke-width: 1; stroke-opacity: 1;" class="Door Swing Beside"><polygon points="522.63,830.67 597.85,830.67 597.85,812.67 522.63,812.67 "/><g id="Threshold" class="Threshold"><polygon points="522.63,830.67 597.85,830.67 597.85,812.67 522.63,812.67 "/></g><g id="Panel" fill="none" style="" class="Panel Left Negative"><g id="PanelArea" fill="none" stroke="none" style="" class="PanelArea"><polygon points="522.63,830.67 597.85,830.67 597.85,812.67 522.63,812.67 "/></g><path d="M522.63,830.67 q0.00,75.21 75.21,75.21 l0.00,-75.21Z"/></g></g></g><g id="Wall" fill="#000000" stroke="#000000" style="fill-opacity: 1; stroke-opacity: 1; stroke-width: 0.2;" class="Wall External"><polygon points="628.80,830.67 628.80,524.93 608.80,508.93 608.80,812.67 "/></g><g id="Wall" fill="#000000" stroke="#000000" style="fill-opacity: 1; stroke-opacity: 1; stroke-width: 0.2;" class="Wall External"><polygon points="628.80,524.93 1183.93,524.93 1163.44,508.93 608.80,508.93 "/></g><g id="Wall" fill="#000000" stroke="#000000" style="fill-opacity: 1; stroke-opacity: 1; stroke-width: 0.2;" class="Wall External"><polygon points="1183.93,524.93 1183.93,87.81 1163.44,112.81 1163.44,508.93 "/><g id="Window" fill="#f0f0ff" stroke="#000000" style="fill-opacity: 1; stroke-width: 1; stroke-opacity: 1;" class="Window Regular"><polygon points="1183.93,393.00 1183.93,233.35 1163.44,233.35 1163.44,393.00 "/><g id="Glass" class="Glass"><polygon points="1183.93,393.00 1183.93,233.35 1163.44,233.35 1163.44,393.00 "/></g><g id="Panel" class="Panel"><line x1="1173.685154527108" x2="1173.685154527108" y1="385.4999369803049" y2="240.85470187916872"/><line x1="1183.9327016614109" x2="1163.437607392805" y1="385.4999369803049" y2="385.4999369803049"/><line x1="1183.9327016614109" x2="1163.437607392805" y1="240.85470187916872" y2="240.85470187916872"/></g></g></g><g id="Wall" fill="#000000" stroke="#000000" style="fill-opacity: 1; stroke-opacity: 1; stroke-width: 0.2;" class="Wall"><polygon points="507.28,409.64 507.28,359.22 437.86,359.22 437.86,409.64 "/></g><g id="Wall" fill="#000000" stroke="#000000" style="fill-opacity: 1; stroke-opacity: 1; stroke-width: 0.2;" class="Wall"><polygon points="608.80,508.93 608.80,369.27 616.80,377.27 616.80,508.93 "/></g><g id="Wall" fill="#000000" stroke="#000000" style="fill-opacity: 1; stroke-opacity: 1; stroke-width: 0.2;" class="Wall"><polygon points="616.80,377.27 730.23,377.27 722.23,369.27 608.80,369.27 "/><g id="Door" fill="#ffffff" stroke="#000000" style="fill-opacity: 1; stroke-width: 1; stroke-opacity: 1;" class="Door Swing Beside"><polygon points="637.48,377.27 702.60,377.27 702.60,369.27 637.48,369.27 "/><g id="Threshold" class="Threshold"><polygon points="637.48,377.27 702.60,377.27 702.60,369.27 637.48,369.27 "/></g><g id="Panel" fill="none" style="" class="Panel Right Positive"><g id="PanelArea" fill="none" stroke="none" style="" class="PanelArea"><polygon points="637.48,377.27 702.60,377.27 702.60,369.27 637.48,369.27 "/></g><path d="M637.48,369.27 q0.00,-65.13 65.13,-65.13 l0.00,65.13Z"/></g></g></g><g id="Wall" fill="#000000" stroke="#000000" style="fill-opacity: 1; stroke-opacity: 1; stroke-width: 0.2;" class="Wall"><polygon points="722.23,369.27 722.23,438.11 730.23,445.56 730.23,369.27 "/></g><g id="Wall" fill="#000000" stroke="#000000" style="fill-opacity: 1; stroke-opacity: 1; stroke-width: 0.2;" class="Wall"><polygon points="722.23,438.11 653.85,438.11 661.85,445.56 730.23,445.56 "/></g><g id="Wall" fill="#000000" stroke="#000000" style="fill-opacity: 1; stroke-opacity: 1; stroke-width: 0.2;" class="Wall"><polygon points="653.85,438.11 653.85,524.93 661.85,524.93 661.85,445.56 "/></g><g id="Wall" fill="#000000" stroke="#000000" style="fill-opacity: 1; stroke-opacity: 1; stroke-width: 0.2;" class="Wall"><polygon points="653.85,524.93 653.85,470.86 615.59,470.86 615.59,524.93 "/></g><g id="Wall" fill="#000000" stroke="#000000" style="fill-opacity: 1; stroke-opacity: 1; stroke-width: 0.2;" class="Wall"><polygon points="730.23,377.27 730.23,87.81 722.23,87.81 722.23,369.27 "/><g id="Door" fill="#ffffff" stroke="#000000" style="fill-opacity: 1; stroke-width: 1; stroke-opacity: 1;" class="Door Swing Beside"><polygon points="730.23,354.83 730.23,281.69 722.23,281.69 722.23,354.83 "/><g id="Threshold" class="Threshold"><polygon points="730.23,354.83 730.23,281.69 722.23,281.69 722.23,354.83 "/></g><g id="Panel" fill="none" style="" class="Panel Right Negative"><g id="PanelArea" fill="none" stroke="none" style="" class="PanelArea"><polygon points="730.23,354.83 730.23,281.69 722.23,281.69 722.23,354.83 "/></g><path d="M730.23,281.69 q73.14,0.00 73.14,73.14 l-73.14,0.00Z"/></g></g></g><g id="Wall" fill="#000000" stroke="#000000" style="fill-opacity: 1; stroke-opacity: 1; stroke-width: 0.2;" class="Wall"><polygon points="730.23,256.72 511.22,256.72 511.22,264.72 730.23,264.72 "/><g id="Door" fill="#ffffff" stroke="#000000" style="fill-opacity: 1; stroke-width: 1; stroke-opacity: 1;" class="Door Swing Beside"><polygon points="678.92,256.72 612.57,256.72 612.57,264.72 678.92,264.72 "/><g id="Threshold" class="Threshold"><polygon points="678.92,256.72 612.57,256.72 612.57,264.72 678.92,264.72 "/></g><g id="Panel" fill="none" style="" class="Panel Right Positive"><g id="PanelArea" fill="none" stroke="none" style="" class="PanelArea"><polygon points="678.92,256.72 612.57,256.72 612.57,264.72 678.92,264.72 "/></g><path d="M678.92,264.72 q0.00,66.35 -66.35,66.35 l0.00,-66.35Z"/></g></g></g><g id="Wall" fill="#000000" stroke="#000000" style="fill-opacity: 1; stroke-opacity: 1; stroke-width: 0.2;" class="Wall"><polygon points="566.60,264.72 566.60,87.81 558.60,87.81 558.60,264.72 "/></g><g id="Wall" fill="#000000" stroke="#000000" style="fill-opacity: 1; stroke-opacity: 1; stroke-width: 0.2;" class="Wall"><polygon points="558.60,133.16 644.18,133.16 644.18,112.40 558.60,112.40 "/></g><g id="Wall" fill="#000000" stroke="#000000" style="fill-opacity: 1; stroke-opacity: 1; stroke-width: 0.2;" class="Wall"><polygon points="489.28,697.52 628.80,697.52 628.80,689.52 489.28,689.52 "/><g id="Door" fill="#ffffff" stroke="#000000" style="fill-opacity: 1; stroke-width: 1; stroke-opacity: 1;" class="Door Swing Beside"><polygon points="523.51,697.52 598.72,697.52 598.72,689.52 523.51,689.52 "/><g id="Threshold" class="Threshold"><polygon points="523.51,697.52 598.72,697.52 598.72,689.52 523.51,689.52 "/></g><g id="Panel" fill="none" style="" class="Panel Right Positive"><g id="PanelArea" fill="none" stroke="none" style="" class="PanelArea"><polygon points="523.51,697.52 598.72,697.52 598.72,689.52 523.51,689.52 "/></g><path d="M523.51,689.52 q0.00,-75.21 75.21,-75.21 l0.00,75.21Z"/></g></g></g><g class="FixedFurniture CoatCloset" fill="#ffffff" stroke="#000000" transform="matrix(0,-1,1,0,661.9449,508.928)" style="fill-opacity: 1; stroke-opacity: 1;">
        <g class="BoundaryPolygon">
            <polygon points="0.00,0.00 63.20,0.00 63.20,68.05 0.00,68.05 "/>
        </g>
        <g class="Hanger" stroke="#9a9a9a" stroke-dasharray="5,5">
            <line x1="0" y1="34.02632242876987" x2="63.19565602674949" y2="34.02632242876987"/>
        </g>
        <g class="Direction" fill-opacity="0.9" style="display: none;">
            <polygon points="33.19,62.04 33.19,51.42 30.18,51.42 30.18,62.04 26.38,62.04 31.68,67.34 36.98,62.04 33.19,62.04 " fill="#444444"/>
        </g> 
        <g class="Name" fill-opacity="0.9" style="display: none;">
            <text transform="translate(3 12)" font-size="12" font-family="Verdana, Sans-Serif">CWH</text>
        </g>
        <desc>Width:60 Height:200 Depth:60 Elevation:0</desc>
     </g><g class="FixedFurniture ElectricalAppliance Refrigerator" fill="#ffffff" stroke="#000000" transform="matrix(0.9657,0,0,1,326.0795,112.8569)" style="fill-opacity: 1; stroke-opacity: 1;">
        <g class="BoundaryPolygon">
            <polygon points="0,0 60,0 60,60 0,60"/>
        </g>
        <g class="electricitySign" fill="none">
            <path d="M0,0,30,37.1v-18L60,56.3"/>
        </g>
        <g class="Doors">
            <rect y="56" width="60" height="4"/>
        </g>
        <g class="Direction" fill-opacity="0.9" style="display: none;">
            <polygon points="32.009 55.197 32.009 44.581 29 44.581 29 55.197 25.197 55.197 30.5 60 35.803 55.197 32.009 55.197" fill="#444444"/>
        </g> 
        <g class="Name" fill-opacity="0.9" style="display: none;">
            <text transform="translate(3 12)" font-size="12" font-family="Verdana, Sans-Serif">REF</text>
        </g>
        <desc>Width:60 Height:170 Depth:60 Elevation:0</desc>
    </g><g class="FixedFurniture Closet" fill="#ffffff" stroke="#000000" transform="matrix(0,1,-1,0,558.5233,207.7585)" style="fill-opacity: 1; stroke-opacity: 1;">
        <g class="BoundaryPolygon">
            <polygon points="0.00,0.00 48.96,0.00 48.96,39.71 0.00,39.71 "/>
        </g>
        <g class="Direction" fill-opacity="0.9" style="display: none;">
            <polygon points="25.71,36.20 25.71,25.58 22.70,25.58 22.70,36.20 18.90,36.20 24.20,41.50 29.51,36.20 25.71,36.20 " fill="#444444"/>
        </g> 
        <g class="Name" fill-opacity="0.9" style="display: none;">
            <text transform="translate(3 12)" font-size="12" font-family="Verdana, Sans-Serif">CL</text>
        </g>
        <desc>Width:60 Height:200 Depth:60 Elevation:0</desc>
     </g><g class="FixedFurniture Shower" fill="#ffffff" stroke="#000000" transform="matrix(0,-1,1,0,566.6014,197.8344)" style="fill-opacity: 1; stroke-opacity: 1;"> 
	    <g class="BoundaryPolygon" fill="none" stroke="none">
            <polygon points="0,0 32,0 32,19 0,19"/>
        </g>
        <g class="InnerPolygon"> 
			<rect x="3.7" y="0.5" width="11.2" height="6.1"/>
			<rect x="17.6" y="0.5" width="11.2" height="6.1"/>
			<rect x="28.7" y="0.5" width="3.4" height="6.1"/>
			<rect x="0.5" y="0.5" width="3.2" height="6.1"/>
			<path d="M14.9,8.5c0,1.5-0.4,3.3-1.6,5    c-0.4,0.6-1,1.1-1.1,1.7c-0.2,1.1,0.3,2.8,2.5,3.2c0.5,0.1,1.3,0.1,1.6,0.1h-0.1c0.3,0,1.1,0,1.6-0.1c2.2-0.4,2.7-2.1,2.5-3.2    c-0.1-0.6-0.7-1.1-1.1-1.7c-1.2-1.7-1.6-3.5-1.6-5"/>
			<path d="M12.2,15.3c0.1,0.2,1.6,1.9,4.2,1.9 c2.4-0.1,3.7-1.7,3.9-1.9"/>
			<path d="M14.9,0.5h2.7v8c-0.9,0-1.8,0-2.7,0l0,0 C14.9,5.9,14.9,3.2,14.9,0.5z"/>
		</g>
	    <g class="Indicator"> 
			<path d="M3.7,3.6C5,3.1,5.2,3,5.2,3 c0,1.1,0,0,0,1.1C5.2,4.1,5.1,4.1,3.7,3.6"/>
			<path d="M28.7,3.6 C27.4,3.1,27.2,3,27.2,3c0,1.1,0,0,0,1.1C27.2,4.1,27.3,4.1,28.7,3.6"/>	
		</g>
        <desc>Width:32 Height:97 Depth:19 Elevation:135</desc>
	</g><g class="FixedFurniture Toilet" fill="#ffffff" stroke="#000000" transform="matrix(1,0,0,1,666.137,112.81)" style="fill-opacity: 1; stroke-opacity: 1;">
	   <g class="BoundaryPolygon" fill="none" stroke="none"> 
            <polygon points="0,0 41,0 41,71 0,71"/>
		</g>
        <g class="InnerPolygon">
            <rect x="0.502" y="0.5" width="39.989" height="17.98"/>
            <path d="M40.491,44.237S41.619,70.5,20.907,70.5C-.523,70.5.6,44.237.6,44.237L.5,18.48H40.491Z"/>
            <rect x="17.318" y="7.975" width="6.357" height="3.03"/>
        </g>
        <desc>Width:41 Height:85 Depth:71 Elevation:0</desc>
    </g><g id="FixedFurnitureSet" transform="matrix(0,1,-1,0,722.1633,194.5885)" class="FixedFurnitureSet" fill="#ffffff" stroke="#000000" style="fill-opacity: 0.4; stroke-opacity: 0.4;"><g class="FixedFurniture BaseCabinet" fill="#ffffff" stroke="#000000" transform="matrix(1,0,0,1,0,0)" style="fill-opacity: 1; stroke-opacity: 1;">
        <g class="BoundaryPolygon">
            <polygon points="0.00,0.00 55.03,0.00 55.03,38.01 0.00,38.01 "/>
        </g>
        <g class="Direction" fill-opacity="0.9" style="display: none;">
            <polygon points="29.36,34.96 29.36,24.35 26.35,24.35 26.35,34.96 22.54,34.96 27.85,39.77 33.15,34.96 29.36,34.96 " fill="#444444"/>
        </g> 
        <g class="Name" fill-opacity="0.9" style="display: none;">
            <text transform="translate(3 12)" font-size="12" font-family="Verdana, Sans-Serif">CB</text>
        </g>
        <desc>Width:60 Height:5 Depth:60 Elevation:105</desc>
    </g><g class="FixedFurniture Sink" fill="#ffffff" stroke="#000000" transform="matrix(1,0,0,1,0,0)" style="fill-opacity: 1; stroke-opacity: 1;">
        <g class="BoundaryPolygon" fill="none" stroke="none">
        <polygon points="0.00,0.00 55.03,0.00 55.03,38.01 0.00,38.01 "/>
        </g>
        <g class="InnerPolygon">
            <polygon points="4.59,9.70 50.44,9.70 50.44,34.65 4.59,34.65 "/>
        </g>
        <g class="OuterDrain" stroke-width="0.8">
            <circle cx="27.51434487549891" cy="20.397292277760318" r="3.5"/>
        </g>
        <g class="InnerDrain" stroke-width="0.8">
            <circle cx="27.51434487549891" cy="20.397292277760318" r="2"/>
        </g>
        <g class="Faucet">
            <polygon points="24.76,3.17 30.76,3.17 30.76,17.17 24.76,17.17 "/>
        </g>
        <g class="Direction" fill-opacity="0.9" style="display: none;">
            <polygon points="29.36,34.96 29.36,24.35 26.35,24.35 26.35,34.96 22.54,34.96 27.85,39.77 33.15,34.96 29.36,34.96 " fill="#444444"/>
        </g> 
        <g class="Name" fill-opacity="0.9" style="display: none;">
            <text transform="translate(3 12)" font-size="12" font-family="Verdana, Sans-Serif">SINK</text>
        </g>
        <desc>Width:60 Height:90 Depth:60 Elevation:0</desc>
    </g></g><g id="FixedFurnitureSet" transform="matrix(0,-1,1,0,730.4133,261.031)" class="FixedFurnitureSet" fill="#ffffff" stroke="#000000" style="fill-opacity: 0.4; stroke-opacity: 0.4;"><g class="FixedFurniture Closet" fill="#ffffff" stroke="#000000" transform="matrix(1,0,0,1,0,0)" style="fill-opacity: 1; stroke-opacity: 1;">
        <g class="BoundaryPolygon">
            <polygon points="0.00,0.00 49.41,0.00 49.41,60.00 0.00,60.00 "/>
        </g>
        <g class="Direction" fill-opacity="0.9" style="display: none;">
            <polygon points="25.95,54.70 25.95,44.08 22.94,44.08 22.94,54.70 19.13,54.70 24.44,60.00 29.74,54.70 25.95,54.70 " fill="#444444"/>
        </g> 
        <g class="Name" fill-opacity="0.9" style="display: none;">
            <text transform="translate(3 12)" font-size="12" font-family="Verdana, Sans-Serif">CL</text>
        </g>
        <desc>Width:60 Height:200 Depth:60 Elevation:0</desc>
    </g><g class="FixedFurniture Closet" fill="#ffffff" stroke="#000000" transform="matrix(1,0,0,1,49.4055,0)" style="fill-opacity: 1; stroke-opacity: 1;">
        <g class="BoundaryPolygon">
            <polygon points="0.00,0.00 49.41,0.00 49.41,60.00 0.00,60.00 "/>
        </g>
        <g class="Direction" fill-opacity="0.9" style="display: none;">
            <polygon points="25.95,54.70 25.95,44.08 22.94,44.08 22.94,54.70 19.13,54.70 24.44,60.00 29.74,54.70 25.95,54.70 " fill="#444444"/>
        </g> 
        <g class="Name" fill-opacity="0.9" style="display: none;">
            <text transform="translate(3 12)" font-size="12" font-family="Verdana, Sans-Serif">CL</text>
        </g>
        <desc>Width:60 Height:200 Depth:60 Elevation:0</desc>
    </g><g class="FixedFurniture Closet" fill="#ffffff" stroke="#000000" transform="matrix(1,0,0,1,98.811,0)" style="fill-opacity: 1; stroke-opacity: 1;">
        <g class="BoundaryPolygon">
            <polygon points="0.00,0.00 49.41,0.00 49.41,60.00 0.00,60.00 "/>
        </g>
        <g class="Direction" fill-opacity="0.9" style="display: none;">
            <polygon points="25.95,54.70 25.95,44.08 22.94,44.08 22.94,54.70 19.13,54.70 24.44,60.00 29.74,54.70 25.95,54.70 " fill="#444444"/>
        </g> 
        <g class="Name" fill-opacity="0.9" style="display: none;">
            <text transform="translate(3 12)" font-size="12" font-family="Verdana, Sans-Serif">CL</text>
        </g>
        <desc>Width:60 Height:200 Depth:60 Elevation:0</desc>
     </g></g><g fill="#0000ff" stroke="#0000ff" style="display: none;" class="SelectionControls"><g style="display: none;" class="rotateControl"><circle cx="967.9463407169878" cy="248.34350081768548" r="5" style="stroke : none; fill-opacity: 0.5; cursor:crosshair"/></g><g style="display: none;" class="ResizeNControl"><circle cx="0" cy="0" r="5" style="stroke : none; fill-opacity: 0.5"/></g><g style="display: none;" class="ResizeNEControl"><circle cx="0" cy="0" r="5" style="stroke : none; fill-opacity: 0.5"/></g><g style="display: none;" class="ResizeEControl"><circle cx="0" cy="0" r="5" style="stroke : none; fill-opacity: 0.5"/></g><g style="display: none;" class="ResizeSEControl"><circle cx="0" cy="0" r="5" style="stroke : none; fill-opacity: 0.5"/></g><g style="display: none;" class="ResizeSControl"><circle cx="0" cy="0" r="5" style="stroke : none; fill-opacity: 0.5"/></g><g style="display: none;" class="ResizeSWControl"><circle cx="0" cy="0" r="5" style="stroke : none; fill-opacity: 0.5"/></g><g style="display: none;" class="ResizeWControl"><circle cx="0" cy="0" r="5" style="stroke : none; fill-opacity: 0.5"/></g><g style="display: none;" class="ResizeNWControl"><circle cx="0" cy="0" r="5" style="stroke : none; fill-opacity: 0.5"/></g><g style="display: none;" class="removeControl"><polygon style="stroke : none; fill-opacity: 0.1" points="955.55,278.34 980.34,278.34 980.34,318.89 955.55,318.89 "/></g><g style="display: none;" class="copyPasteControl"><polygon style="stroke : none; fill-opacity: 0.1"/></g><g style="display: none;" class="translateControl"><polygon style="stroke : none; fill-opacity: 0.1; cursor:move" points="955.55,278.34 980.34,278.34 980.34,318.89 955.55,318.89 "/></g></g><g fill="#0000ff" stroke="#0000ff" style="display: none;" class="SelectionControls"><polygon fill="none" stroke="#0000ff" style="" points="730.23,112.81 1231.81,112.81 1231.81,508.93 730.23,508.93 "/><g style="display: none;" class="rotateControl"><circle cx="981.0190466251911" cy="82.81000081768549" r="5" style="stroke : none; fill-opacity: 0.5; cursor:crosshair"/></g><g style="display: none;" class="ResizeNControl"><circle cx="0" cy="0" r="5" style="stroke : none; fill-opacity: 0.5"/></g><g style="display: none;" class="ResizeNEControl"><circle cx="0" cy="0" r="5" style="stroke : none; fill-opacity: 0.5"/></g><g style="display: none;" class="ResizeEControl"><circle cx="0" cy="0" r="5" style="stroke : none; fill-opacity: 0.5"/></g><g style="display: none;" class="ResizeSEControl"><circle cx="0" cy="0" r="5" style="stroke : none; fill-opacity: 0.5"/></g><g style="display: none;" class="ResizeSControl"><circle cx="0" cy="0" r="5" style="stroke : none; fill-opacity: 0.5"/></g><g style="display: none;" class="ResizeSWControl"><circle cx="0" cy="0" r="5" style="stroke : none; fill-opacity: 0.5"/></g><g style="display: none;" class="ResizeWControl"><circle cx="0" cy="0" r="5" style="stroke : none; fill-opacity: 0.5"/></g><g style="display: none;" class="ResizeNWControl"><circle cx="0" cy="0" r="5" style="stroke : none; fill-opacity: 0.5"/></g><g style="display: none;" class="removeControl"><polygon style="stroke : none; fill-opacity: 0.1"/></g><g style="display: none;" class="copyPasteControl"><polygon style="stroke : none; fill-opacity: 0.1"/></g><g style="display: none;" class="translateControl"><polygon style="stroke : none; fill-opacity: 0.1; cursor:move"/></g></g><g transform="matrix(1,0,0,1,384.0215,112.8569)" class="FixedFurniture BaseCabinet" fill="#ffffff" stroke="#000000" style="fill-opacity: 1; stroke-opacity: 1;"><desc>Width:60 Height:90 Depth:60 Elevation:0</desc><g class="BoundaryPolygon"><polygon points="0.00,0.00 0.00,60.05 134.80,60.05 134.80,94.90 174.55,94.90 174.58,-0.46 0.00,0.00 "/></g></g><g class="FixedFurniture Sink" fill="#ffffff" stroke="#000000" transform="matrix(1,0,0,1,469.2558,112.647)" style="fill-opacity: 1; stroke-opacity: 1;">
        <g class="BoundaryPolygon" fill="none" stroke="none">
            <polygon points="0,0 60,0 60,60 0,60"/>
        </g>
        <g class="InnerPolygon">
            <polygon points="5 9.7 55 9.7 55 54.7 5 54.7"/>
        </g>
        <g class="OuterDrain" stroke-width="0.8">
            <circle cx="30" cy="32.2" r="3.5"/>
        </g>
        <g class="InnerDrain" stroke-width="0.8">
            <circle cx="30" cy="32.2" r="2"/>
        </g>
        <g class="Faucet">
            <polygon points="27 5 33 5 33 19 27 19"/>
        </g>
        <g class="Direction" fill-opacity="0.9" style="display: none;">
            <polygon points="32.009 55.197 32.009 44.581 29 44.581 29 55.197 25.197 55.197 30.5 60 35.803 55.197 32.009 55.197" fill="#444444"/>
        </g> 
        <g class="Name" fill-opacity="0.9" style="display: none;">
            <text transform="translate(3 12)" font-size="12" font-family="Verdana, Sans-Serif">SINK</text>
        </g>
        <desc>Width:60 Height:90 Depth:60 Elevation:0</desc>
    </g><g class="FixedFurniture ElectricalAppliance IntegratedStove" fill="#ffffff" stroke="#000000" transform="matrix(1,0,0,1,409.0576,112.7887)" style="fill-opacity: 1; stroke-opacity: 1;">
        <g class="BoundaryPolygon" fill="none" stroke="none">
            <polygon points="0 0 60 0 60 60 0 60"/>
        </g>
        <g class="InnerPolygon">
            <polygon points="2,2 58,2 58,58 2,58"/>
        </g>
        <g class="OuterCircle">
            <circle cx="16" cy="16" r="8"/>
            <circle cx="44" cy="16" r="8"/>
            <circle cx="16" cy="44" r="8"/>
            <circle cx="44" cy="44" r="8"/>
        </g>
        <g class="Direction" fill-opacity="0.9" style="display: none;">
            <polygon points="32.009 55.197 32.009 44.581 29 44.581 29 55.197 25.197 55.197 30.5 60 35.803 55.197 32.009 55.197" fill="#444444"/>
        </g> 
        <g class="Name" fill-opacity="0.9" style="display: none;">
            <text transform="translate(3 12)" font-size="12" font-family="Verdana, Sans-Serif">INT_STOVE</text>
        </g>
        <desc>Width:60 Height:90 Depth:30 Elevation:0</desc>
    </g><g class="FixedFurniture WallCabinet" fill="#ffffff" stroke="#000000" transform="matrix(1,0,0,1,384.0215,112.9037)" style="fill-opacity: 0.7; stroke-opacity: 1;">	
        <g class="BoundaryPolygon">
            <polygon points="0.00,0.00 174.67,0.00 174.67,30.00 0.00,30.00 "/>
        </g>
        <g class="Direction" fill-opacity="0.9" style="display: none;">
            <polygon points="93.18,25.20 93.18,14.58 90.17,14.58 90.17,25.20 86.37,25.20 91.67,30.00 96.98,25.20 93.18,25.20 " fill="#444444"/>
        </g> 
        <g class="Name" fill-opacity="0.9" style="display: none;">
            <text transform="translate(3 12)" font-size="12" font-family="Verdana, Sans-Serif">UC</text>
        </g>
        <desc>Width:60 Height:60 Depth:30 Elevation:140</desc>
    </g></g></g></g></svg>
