<?xml version="1.0"?>
<svg xmlns="http://www.w3.org/2000/svg" xmlns:xlink="http://www.w3.org/1999/xlink" height="662.2600173950195" version="1.1" width="1296.0100555419922" id="temp" viewBox="0 0 1296.0100555419922 662.2600173950195"><defs/><g id="Model" class="Model v1-1"><g class="Floor"><g id="Floor-1" class="Floorplan Floor-1"><g id="9f084d0f-3d7a-4bc9-9ce0-6a7720f70b7b" fill="#ffffff" stroke="#000000" style="fill-opacity: 1; stroke-opacity: 1; stroke-width: 0.2;" class="Space Outdoor Terrace"><polygon points="636.73,468.73 1000.79,468.73 1000.79,658.95 636.73,658.95 636.73,468.73 636.73,468.73 "/><g transform="matrix(1,0,0,1,636.7295,468.7279)" class="Dimension"><g transform="matrix(1,0,0,1,0,0)" style="display: none;" class="Visual"><g id="mark1" fill="#000000" stroke="none" transform="matrix(1,0,0,1,182.0315,0)" style="fill-opacity: 1; pointer-events: visible;" class="DimensionMark"><polygon points="-5,5,0,0,5,5"/></g><g id="mark2" fill="#000000" stroke="none" transform="matrix(1,0,0,1,364.0629,95.1088)" style="fill-opacity: 1; pointer-events: visible;" class="DimensionMark"><polygon points="-5,-5,0,0,-5,5"/></g><g id="mark3" fill="#000000" stroke="none" transform="matrix(1,0,0,1,182.0315,190.2176)" style="fill-opacity: 1; pointer-events: visible;" class="DimensionMark"><polygon points="-5,-5,0,0,5,-5"/></g><g id="mark4" fill="#000000" stroke="none" transform="matrix(1,0,0,1,0,95.1088)" style="fill-opacity: 1; pointer-events: visible;" class="DimensionMark"><polygon points="5,5,0,0,5,-5"/></g></g><g transform="matrix(1,0,0,1,104.5633,112.2301)" class="SpaceDimensionsLabel"><g id="NameLabel" style="display: block;" class="TextLabel NameLabel"><text x="0" y="0em" fill="#000000" stroke="none" style="font-family: Verdana; font-size: 33px; fill-opacity: 1; cursor: default;">TERASSI</text></g><g id="DimensionMeasureLabel" transform="matrix(1,0,0,1,-67.5234,80.2031)" style="display: none;" class="TextLabel DimensionMeasureLabel"><text x="31.6875" y="-1.2em" fill="#000000" stroke="none" style="font-family: Verdana; font-size: 33px; fill-opacity: 1; cursor: default;">11'11" x 6'3"</text><text x="0" y="0em" fill="#000000" stroke="none" style="font-family: Verdana; font-size: 33px; fill-opacity: 1; cursor: default;">3.64 m x 1.90 m</text></g></g></g></g><g id="53fe3f4e-e906-4a31-be4f-fa123a61d683" fill="#ffffff" stroke="#000000" style="fill-opacity: 1; stroke-opacity: 1; stroke-width: 0.2;" class="Space Outdoor Terrace"><polygon points="110.58,555.49 110.58,662.26 576.27,662.26 576.27,555.49 110.58,555.49 110.58,555.49 "/><g transform="matrix(1,0,0,1,110.5835,555.4858)" class="Dimension"><g transform="matrix(1,0,0,1,0,0)" style="display: none;" class="Visual"><g id="mark1" fill="#000000" stroke="none" transform="matrix(1,0,0,1,232.8412,0)" style="fill-opacity: 1; pointer-events: visible;" class="DimensionMark"><polygon points="-5,5,0,0,5,5"/></g><g id="mark2" fill="#000000" stroke="none" transform="matrix(1,0,0,1,465.6823,53.3879)" style="fill-opacity: 1; pointer-events: visible;" class="DimensionMark"><polygon points="-5,-5,0,0,-5,5"/></g><g id="mark3" fill="#000000" stroke="none" transform="matrix(1,0,0,1,232.8412,106.7758)" style="fill-opacity: 1; pointer-events: visible;" class="DimensionMark"><polygon points="-5,-5,0,0,5,-5"/></g><g id="mark4" fill="#000000" stroke="none" transform="matrix(1,0,0,1,0,53.3879)" style="fill-opacity: 1; pointer-events: visible;" class="DimensionMark"><polygon points="5,5,0,0,5,-5"/></g></g><g transform="matrix(1,0,0,1,35.2744,69.548)" class="SpaceDimensionsLabel"><g id="NameLabel" style="display: block;" class="TextLabel NameLabel"><text x="0" y="0em" fill="#000000" stroke="none" style="font-family: Verdana; font-size: 33px; fill-opacity: 1; cursor: default;">TERASSI</text></g><g id="DimensionMeasureLabel" transform="matrix(1,0,0,1,-67.5313,79.7813)" style="display: none;" class="TextLabel DimensionMeasureLabel"><text x="42.1796875" y="-1.2em" fill="#000000" stroke="none" style="font-family: Verdana; font-size: 33px; fill-opacity: 1; cursor: default;">15'3" x 3'6"</text><text x="0" y="0em" fill="#000000" stroke="none" style="font-family: Verdana; font-size: 33px; fill-opacity: 1; cursor: default;">4.66 m x 1.07 m</text></g></g></g></g><g id="957c0b71-961c-4006-986e-52832c63a2c9" fill="#ffffff" stroke="#ffffff" style="fill-opacity: 1; stroke-opacity: 1; stroke-width: 0.2;" class="Space Undefined"><polygon points="1281.01,453.73 1027.79,453.73 1027.79,206.13 1015.79,206.13 1015.79,453.73 651.73,453.73 651.73,206.13 1281.01,206.13 "/><g transform="matrix(1,0,0,1,651.7295,206.1276)" class="Dimension"><g transform="matrix(1,0,0,1,0,0)" style="display: none;" class="Visual"><g id="mark1" fill="#000000" stroke="none" transform="matrix(1,0,0,1,314.6386,0)" style="fill-opacity: 1; pointer-events: visible;" class="DimensionMark"><polygon points="-5,5,0,0,5,5"/></g><g id="mark2" fill="#000000" stroke="none" transform="matrix(1,0,0,1,629.2771,123.8002)" style="fill-opacity: 1; pointer-events: visible;" class="DimensionMark"><polygon points="-5,-5,0,0,-5,5"/></g><g id="mark3" fill="#000000" stroke="none" transform="matrix(1,0,0,1,314.6386,247.6003)" style="fill-opacity: 1; pointer-events: visible;" class="DimensionMark"><polygon points="-5,-5,0,0,5,-5"/></g><g id="mark4" fill="#000000" stroke="none" transform="matrix(1,0,0,1,0,123.8002)" style="fill-opacity: 1; pointer-events: visible;" class="DimensionMark"><polygon points="5,5,0,0,5,-5"/></g></g><g transform="matrix(1,0,0,1,123.8001,123.8001)" class="SpaceDimensionsLabel"><g id="NameLabel" style="display: block;" class="TextLabel NameLabel"><text x="0" y="0em" fill="#000000" stroke="none" style="font-family: Verdana; font-size: 33px; fill-opacity: 1; cursor: default;">UNDEFINED</text></g><g id="DimensionMeasureLabel" transform="matrix(1,0,0,1,-40.5078,79.4219)" style="display: none;" class="TextLabel DimensionMeasureLabel"><text x="42.1640625" y="-1.2em" fill="#000000" stroke="none" style="font-family: Verdana; font-size: 33px; fill-opacity: 1; cursor: default;">20'8" x 8'1"</text><text x="0" y="0em" fill="#000000" stroke="none" style="font-family: Verdana; font-size: 33px; fill-opacity: 1; cursor: default;">6.29 m x 2.48 m</text></g></g></g></g><g id="d2b45050-da65-4644-a2e0-e9e1b4926293" fill="#ffffff" stroke="#ffffff" style="fill-opacity: 1; stroke-opacity: 1; stroke-width: 0.2;" class="Space LivingRoom"><polygon points="392.05,540.49 125.58,540.49 125.58,310.73 392.05,310.73 "/><g transform="matrix(1,0,0,1,125.5835,310.726)" class="Dimension"><g transform="matrix(1,0,0,1,0,0)" style="display: none;" class="Visual"><g id="mark1" fill="#000000" stroke="none" transform="matrix(1,0,0,1,133.2311,0)" style="fill-opacity: 1; pointer-events: visible;" class="DimensionMark"><polygon points="-5,5,0,0,5,5"/></g><g id="mark2" fill="#000000" stroke="none" transform="matrix(1,0,0,1,266.4621,114.8799)" style="fill-opacity: 1; pointer-events: visible;" class="DimensionMark"><polygon points="-5,-5,0,0,-5,5"/></g><g id="mark3" fill="#000000" stroke="none" transform="matrix(1,0,0,1,133.2311,229.7597)" style="fill-opacity: 1; pointer-events: visible;" class="DimensionMark"><polygon points="-5,-5,0,0,5,-5"/></g><g id="mark4" fill="#000000" stroke="none" transform="matrix(1,0,0,1,0,114.8799)" style="fill-opacity: 1; pointer-events: visible;" class="DimensionMark"><polygon points="5,5,0,0,5,-5"/></g></g><g transform="matrix(1,0,0,1,106.5042,125.3342)" class="SpaceDimensionsLabel" style="display: block;"><g id="NameLabel" style="display: block;" class="TextLabel NameLabel"><text x="0" y="0em" fill="#000000" stroke="none" style="font-family: Verdana; font-size: 33px; fill-opacity: 1; cursor: default;">OH</text></g><g id="DimensionMeasureLabel" transform="matrix(1,0,0,1,-114.6093,79.4844)" style="display: none;" class="TextLabel DimensionMeasureLabel"><text x="52.671875" y="-1.2em" fill="#000000" stroke="none" style="font-family: Verdana; font-size: 33px; fill-opacity: 1; cursor: default;">8'9" x 7'6"</text><text x="0" y="0em" fill="#000000" stroke="none" style="font-family: Verdana; font-size: 33px; fill-opacity: 1; cursor: default;">2.66 m x 2.30 m</text></g></g></g></g><g id="918f1d1b-9224-4fc9-8e78-e08962d37a6c" fill="#ffffff" stroke="#ffffff" style="fill-opacity: 1; stroke-opacity: 1; stroke-width: 0.2;" class="Space Kitchen"><polygon points="392.05,295.73 125.58,295.73 125.58,80.08 392.05,80.08 "/><g transform="matrix(1,0,0,1,125.5835,80.0762)" class="Dimension"><g transform="matrix(1,0,0,1,0,0)" style="display: none;" class="Visual"><g id="mark1" fill="#000000" stroke="none" transform="matrix(1,0,0,1,133.2311,0)" style="fill-opacity: 1; pointer-events: visible;" class="DimensionMark"><polygon points="-5,5,0,0,5,5"/></g><g id="mark2" fill="#000000" stroke="none" transform="matrix(1,0,0,1,266.4621,107.8249)" style="fill-opacity: 1; pointer-events: visible;" class="DimensionMark"><polygon points="-5,-5,0,0,-5,5"/></g><g id="mark3" fill="#000000" stroke="none" transform="matrix(1,0,0,1,133.2311,215.6499)" style="fill-opacity: 1; pointer-events: visible;" class="DimensionMark"><polygon points="-5,-5,0,0,5,-5"/></g><g id="mark4" fill="#000000" stroke="none" transform="matrix(1,0,0,1,0,107.8249)" style="fill-opacity: 1; pointer-events: visible;" class="DimensionMark"><polygon points="5,5,0,0,5,-5"/></g></g><g transform="matrix(1,0,0,1,87.9254,101.3298)" class="SpaceDimensionsLabel" style="display: block;"><g id="NameLabel" style="display: block;" class="TextLabel NameLabel"><text x="0" y="0em" fill="#000000" stroke="none" style="font-family: Verdana; font-size: 33px; fill-opacity: 1; cursor: default;">KEITTI&#xD6;</text></g><g id="DimensionMeasureLabel" transform="matrix(1,0,0,1,-70.9062,80.4844)" style="display: none;" class="TextLabel DimensionMeasureLabel"><text x="52.65625" y="-1.2em" fill="#000000" stroke="none" style="font-family: Verdana; font-size: 33px; fill-opacity: 1; cursor: default;">8'9" x 7'1"</text><text x="0" y="0em" fill="#000000" stroke="none" style="font-family: Verdana; font-size: 33px; fill-opacity: 1; cursor: default;">2.66 m x 2.16 m</text></g></g></g></g><g id="d695c894-84e0-4af6-97b8-7512779f9893" fill="#ffffff" stroke="#ffffff" style="fill-opacity: 1; stroke-opacity: 1; stroke-width: 0.2;" class="Space DressingRoom"><polygon points="1281.01,643.95 1015.79,643.95 1015.79,468.73 1281.01,468.73 "/><g transform="matrix(1,0,0,1,1015.7924,468.7279)" class="Dimension"><g transform="matrix(1,0,0,1,0,0)" style="display: none;" class="Visual"><g id="mark1" fill="#000000" stroke="none" transform="matrix(1,0,0,1,132.6071,0)" style="fill-opacity: 1; pointer-events: visible;" class="DimensionMark"><polygon points="-5,5,0,0,5,5"/></g><g id="mark2" fill="#000000" stroke="none" transform="matrix(1,0,0,1,265.2142,87.6088)" style="fill-opacity: 1; pointer-events: visible;" class="DimensionMark"><polygon points="-5,-5,0,0,-5,5"/></g><g id="mark3" fill="#000000" stroke="none" transform="matrix(1,0,0,1,132.6071,175.2176)" style="fill-opacity: 1; pointer-events: visible;" class="DimensionMark"><polygon points="-5,-5,0,0,5,-5"/></g><g id="mark4" fill="#000000" stroke="none" transform="matrix(1,0,0,1,0,87.6088)" style="fill-opacity: 1; pointer-events: visible;" class="DimensionMark"><polygon points="5,5,0,0,5,-5"/></g></g><g transform="matrix(1,0,0,1,75.4888,110.7208)" class="SpaceDimensionsLabel" style="display: block;"><g id="NameLabel" style="display: block;" class="TextLabel NameLabel"><text x="0" y="0em" fill="#000000" stroke="none" style="font-family: Verdana; font-size: 33px; fill-opacity: 1; cursor: default;">PUKUH</text></g><g id="DimensionMeasureLabel" transform="matrix(1,0,0,1,-82.0625,79.2656)" style="display: none;" class="TextLabel DimensionMeasureLabel"><text x="52.671875" y="-1.2em" fill="#000000" stroke="none" style="font-family: Verdana; font-size: 33px; fill-opacity: 1; cursor: default;">8'8" x 5'9"</text><text x="0" y="0em" fill="#000000" stroke="none" style="font-family: Verdana; font-size: 33px; fill-opacity: 1; cursor: default;">2.65 m x 1.75 m</text></g></g></g></g><g id="808f8c98-d2e4-438f-9b42-b7f5363b6dca" fill="#ffffff" stroke="#ffffff" style="fill-opacity: 1; stroke-opacity: 1; stroke-width: 0.2;" class="Space Bedroom"><polygon points="561.27,540.49 407.05,540.49 407.05,310.73 561.27,310.73 "/><g transform="matrix(1,0,0,1,407.0456,310.726)" class="Dimension"><g transform="matrix(1,0,0,1,0,0)" style="display: none;" class="Visual"><g id="mark1" fill="#000000" stroke="none" transform="matrix(1,0,0,1,77.1101,0)" style="fill-opacity: 1; pointer-events: visible;" class="DimensionMark"><polygon points="-5,5,0,0,5,5"/></g><g id="mark2" fill="#000000" stroke="none" transform="matrix(1,0,0,1,154.2202,114.8799)" style="fill-opacity: 1; pointer-events: visible;" class="DimensionMark"><polygon points="-5,-5,0,0,-5,5"/></g><g id="mark3" fill="#000000" stroke="none" transform="matrix(1,0,0,1,77.1101,229.7597)" style="fill-opacity: 1; pointer-events: visible;" class="DimensionMark"><polygon points="-5,-5,0,0,5,-5"/></g><g id="mark4" fill="#000000" stroke="none" transform="matrix(1,0,0,1,0,114.8799)" style="fill-opacity: 1; pointer-events: visible;" class="DimensionMark"><polygon points="5,5,0,0,5,-5"/></g></g><g transform="matrix(1,0,0,1,55.8203,127.9149)" class="SpaceDimensionsLabel" style="display: block;"><g id="NameLabel" style="display: block;" class="TextLabel NameLabel"><text x="0" y="0em" fill="#000000" stroke="none" style="font-family: Verdana; font-size: 33px; fill-opacity: 1; cursor: default;">MH</text></g><g id="DimensionMeasureLabel" transform="matrix(1,0,0,1,-113.6953,80.3125)" style="display: none;" class="TextLabel DimensionMeasureLabel"><text x="52.671875" y="-1.2em" fill="#000000" stroke="none" style="font-family: Verdana; font-size: 33px; fill-opacity: 1; cursor: default;">5'1" x 7'6"</text><text x="0" y="0em" fill="#000000" stroke="none" style="font-family: Verdana; font-size: 33px; fill-opacity: 1; cursor: default;">1.54 m x 2.30 m</text></g></g></g></g><g id="adb5628c-752a-4527-95b4-a1e418fa8ee7" fill="#ffffff" stroke="#ffffff" style="fill-opacity: 1; stroke-opacity: 1; stroke-width: 0.2;" class="Space Bedroom"><polygon points="561.27,295.73 407.05,295.73 407.05,80.08 561.27,80.08 "/><g transform="matrix(1,0,0,1,407.0456,80.0762)" class="Dimension"><g transform="matrix(1,0,0,1,0,0)" style="display: none;" class="Visual"><g id="mark1" fill="#000000" stroke="none" transform="matrix(1,0,0,1,77.1101,0)" style="fill-opacity: 1; pointer-events: visible;" class="DimensionMark"><polygon points="-5,5,0,0,5,5"/></g><g id="mark2" fill="#000000" stroke="none" transform="matrix(1,0,0,1,154.2202,107.8249)" style="fill-opacity: 1; pointer-events: visible;" class="DimensionMark"><polygon points="-5,-5,0,0,-5,5"/></g><g id="mark3" fill="#000000" stroke="none" transform="matrix(1,0,0,1,77.1101,215.6499)" style="fill-opacity: 1; pointer-events: visible;" class="DimensionMark"><polygon points="-5,-5,0,0,5,-5"/></g><g id="mark4" fill="#000000" stroke="none" transform="matrix(1,0,0,1,0,107.8249)" style="fill-opacity: 1; pointer-events: visible;" class="DimensionMark"><polygon points="5,5,0,0,5,-5"/></g></g><g transform="matrix(1,0,0,1,56.3771,117.6977)" class="SpaceDimensionsLabel" style="display: block;"><g id="NameLabel" style="display: block;" class="TextLabel NameLabel"><text x="0" y="0em" fill="#000000" stroke="none" style="font-family: Verdana; font-size: 33px; fill-opacity: 1; cursor: default;">MH</text></g><g id="DimensionMeasureLabel" transform="matrix(1,0,0,1,-113.6875,79.5781)" style="display: none;" class="TextLabel DimensionMeasureLabel"><text x="52.671875" y="-1.2em" fill="#000000" stroke="none" style="font-family: Verdana; font-size: 33px; fill-opacity: 1; cursor: default;">5'1" x 7'1"</text><text x="0" y="0em" fill="#000000" stroke="none" style="font-family: Verdana; font-size: 33px; fill-opacity: 1; cursor: default;">1.54 m x 2.16 m</text></g></g></g></g><g id="Wall" fill="#000000" stroke="#000000" style="fill-opacity: 1; stroke-opacity: 1; stroke-width: 0.2;" class="Wall External"><polygon points="110.58,555.49 110.58,65.08 125.58,80.08 125.58,540.49 "/><g id="Window" fill="#f0f0ff" stroke="#000000" style="fill-opacity: 1; stroke-width: 1; stroke-opacity: 1;" class="Window Regular"><polygon points="110.58,512.78 110.58,396.21 125.58,396.21 125.58,512.78 "/><g id="Glass" class="Glass"><polygon points="110.58,512.78 110.58,396.21 125.58,396.21 125.58,512.78 "/></g><g id="Panel" class="Panel"><line x1="118.08347274310171" x2="118.0834727431017" y1="505.27586601050416" y2="403.7144215706546"/><line x1="110.58347274310171" x2="125.58347274310171" y1="505.27586601050416" y2="505.27586601050416"/><line x1="110.5834727431017" x2="125.5834727431017" y1="403.7144215706546" y2="403.7144215706546"/></g></g></g><g id="Wall" fill="#000000" stroke="#000000" style="fill-opacity: 1; stroke-opacity: 1; stroke-width: 0.2;" class="Wall External"><polygon points="125.58,80.08 561.27,80.08 576.27,65.08 110.58,65.08 "/><g id="Window" fill="#f0f0ff" stroke="#000000" style="fill-opacity: 1; stroke-width: 1; stroke-opacity: 1;" class="Window Regular"><polygon points="275.36,80.08 353.86,80.08 353.86,65.08 275.36,65.08 "/><g id="Glass" class="Glass"><polygon points="275.36,80.08 353.86,80.08 353.86,65.08 275.36,65.08 "/></g><g id="Panel" class="Panel"><line x1="282.86478678980245" x2="346.3600491385222" y1="72.5761804335099" y2="72.57618043350989"/><line x1="282.86478678980245" x2="282.86478678980245" y1="80.0761804335099" y2="65.0761804335099"/><line x1="346.3600491385222" x2="346.3600491385222" y1="80.07618043350989" y2="65.07618043350989"/></g></g></g><g id="Wall" fill="#000000" stroke="#000000" style="fill-opacity: 1; stroke-opacity: 1; stroke-width: 0.2;" class="Wall External"><polygon points="561.27,80.08 561.27,540.49 576.27,555.49 576.27,65.08 "/><g id="Window" fill="#f0f0ff" stroke="#000000" style="fill-opacity: 1; stroke-width: 1; stroke-opacity: 1;" class="Window Regular"><polygon points="561.27,147.87 561.27,233.36 576.27,233.36 576.27,147.87 "/><g id="Glass" class="Glass"><polygon points="561.27,147.87 561.27,233.36 576.27,233.36 576.27,147.87 "/></g><g id="Panel" class="Panel"><line x1="568.7658158176644" x2="568.7658158176644" y1="155.3658313616263" y2="225.86468910643433"/><line x1="561.2658158176644" x2="576.2658158176644" y1="155.3658313616263" y2="155.3658313616263"/><line x1="561.2658158176644" x2="576.2658158176644" y1="225.86468910643433" y2="225.86468910643433"/></g></g><g id="Window" fill="#f0f0ff" stroke="#000000" style="fill-opacity: 1; stroke-width: 1; stroke-opacity: 1;" class="Window Regular"><polygon points="561.27,402.46 561.27,480.17 576.27,480.17 576.27,402.46 "/><g id="Glass" class="Glass"><polygon points="561.27,402.46 561.27,480.17 576.27,480.17 576.27,402.46 "/></g><g id="Panel" class="Panel"><line x1="568.7658158176644" x2="568.7658158176644" y1="409.9587846656466" y2="472.66641429221283"/><line x1="561.2658158176644" x2="576.2658158176644" y1="409.9587846656466" y2="409.9587846656466"/><line x1="561.2658158176644" x2="576.2658158176644" y1="472.66641429221283" y2="472.66641429221283"/></g></g></g><g id="Wall" fill="#000000" stroke="#000000" style="fill-opacity: 1; stroke-opacity: 1; stroke-width: 0.2;" class="Wall External"><polygon points="576.27,555.49 110.58,555.49 125.58,540.49 561.27,540.49 "/><g id="Window" fill="#f0f0ff" stroke="#000000" style="fill-opacity: 1; stroke-width: 1; stroke-opacity: 1;" class="Window Regular"><polygon points="269.26,555.49 192.24,555.49 192.24,540.49 269.26,540.49 "/><g id="Glass" class="Glass"><polygon points="269.26,555.49 192.24,555.49 192.24,540.49 269.26,540.49 "/></g><g id="Panel" class="Panel"><line x1="261.7574884413382" x2="199.7436802219316" y1="547.9857784046995" y2="547.9857784046995"/><line x1="261.7574884413382" x2="261.7574884413382" y1="555.4857784046995" y2="540.4857784046995"/><line x1="199.7436802219316" x2="199.7436802219316" y1="555.4857784046995" y2="540.4857784046995"/></g></g><g id="Door" fill="#ffffff" stroke="#000000" style="fill-opacity: 1; stroke-width: 1; stroke-opacity: 1;" class="Door Swing Beside"><polygon points="385.82,555.49 310.19,555.49 310.19,540.49 385.82,540.49 "/><g id="Threshold" class="Threshold"><polygon points="385.82,555.49 310.19,555.49 310.19,540.49 385.82,540.49 "/></g><g id="Panel" fill="none" style="" class="Panel Right Negative"><g id="PanelArea" fill="none" stroke="none" style="" class="PanelArea"><polygon points="385.82,555.49 310.19,555.49 310.19,540.49 385.82,540.49 "/></g><path d="M310.19,555.49 q0.00,75.63 75.63,75.63 l0.00,-75.63Z"/></g></g></g><g id="Wall" fill="#000000" stroke="#000000" style="fill-opacity: 1; stroke-opacity: 1; stroke-width: 0.2;" class="Wall"><polygon points="125.58,310.73 561.27,310.73 561.27,295.73 125.58,295.73 "/><g id="Door" fill="#ffffff" stroke="#000000" style="fill-opacity: 1; stroke-width: 1; stroke-opacity: 1;" class="Door None Beside"><polygon points="224.87,310.73 314.10,310.73 314.10,295.73 224.87,295.73 "/><g id="Threshold" stroke="#ffffff" style="" class="Threshold"><polygon points="224.87,310.73 314.10,310.73 314.10,295.73 224.87,295.73 "/></g></g></g><g id="Wall" fill="#000000" stroke="#000000" style="fill-opacity: 1; stroke-opacity: 1; stroke-width: 0.2;" class="Wall"><polygon points="392.05,540.49 392.05,80.08 407.05,80.08 407.05,540.49 "/><g id="Door" fill="#ffffff" stroke="#000000" style="fill-opacity: 1; stroke-width: 1; stroke-opacity: 1;" class="Door None Beside"><polygon points="392.05,217.35 392.05,137.37 407.05,137.37 407.05,217.35 "/><g id="Threshold" stroke="#ffffff" style="" class="Threshold"><polygon points="392.05,217.35 392.05,137.37 407.05,137.37 407.05,217.35 "/></g></g><g id="Door" fill="#ffffff" stroke="#000000" style="fill-opacity: 1; stroke-width: 1; stroke-opacity: 1;" class="Door None Beside"><polygon points="392.05,460.74 392.05,389.28 407.05,389.28 407.05,460.74 "/><g id="Threshold" stroke="#ffffff" style="" class="Threshold"><polygon points="392.05,460.74 392.05,389.28 407.05,389.28 407.05,460.74 "/></g></g></g><g id="Wall" fill="#000000" stroke="#000000" style="fill-opacity: 1; stroke-opacity: 1; stroke-width: 0.2;" class="Wall External"><polygon points="636.73,191.13 1296.01,191.13 1281.01,206.13 651.73,206.13 "/></g><g id="Wall" fill="#000000" stroke="#000000" style="fill-opacity: 1; stroke-opacity: 1; stroke-width: 0.2;" class="Wall External"><polygon points="1281.01,206.13 1281.01,643.95 1296.01,658.95 1296.01,191.13 "/><g id="Window" fill="#f0f0ff" stroke="#000000" style="fill-opacity: 1; stroke-width: 1; stroke-opacity: 1;" class="Window Regular"><polygon points="1281.01,289.45 1281.01,382.65 1296.01,382.65 1296.01,289.45 "/><g id="Glass" class="Glass"><polygon points="1281.01,289.45 1281.01,382.65 1296.01,382.65 1296.01,289.45 "/></g><g id="Panel" class="Panel"><line x1="1288.5065813390825" x2="1288.5065813390825" y1="296.9482692733282" y2="375.15141787407777"/><line x1="1281.0065813390825" x2="1296.0065813390825" y1="296.9482692733282" y2="296.9482692733282"/><line x1="1281.0065813390825" x2="1296.0065813390825" y1="375.15141787407777" y2="375.15141787407777"/></g></g></g><g id="Wall" fill="#000000" stroke="#000000" style="fill-opacity: 1; stroke-opacity: 1; stroke-width: 0.2;" class="Wall External"><polygon points="1281.01,643.95 1015.79,643.95 1000.79,658.95 1296.01,658.95 "/><g id="Window" fill="#f0f0ff" stroke="#000000" style="fill-opacity: 1; stroke-width: 1; stroke-opacity: 1;" class="Window Regular"><polygon points="1251.21,643.95 1148.00,643.95 1148.00,658.95 1251.21,658.95 "/><g id="Glass" class="Glass"><polygon points="1251.21,643.95 1148.00,643.95 1148.00,658.95 1251.21,658.95 "/></g><g id="Panel" class="Panel"><line x1="1243.7123831220101" x2="1155.4982113804597" y1="651.445458222559" y2="651.445458222559"/><line x1="1243.7123831220101" x2="1243.7123831220101" y1="643.945458222559" y2="658.945458222559"/><line x1="1155.4982113804595" x2="1155.4982113804595" y1="643.945458222559" y2="658.945458222559"/></g></g></g><g id="Wall" fill="#000000" stroke="#000000" style="fill-opacity: 1; stroke-opacity: 1; stroke-width: 0.2;" class="Wall External"><polygon points="1015.79,643.95 1015.79,453.73 1000.79,468.73 1000.79,658.95 "/><g id="Door" fill="#ffffff" stroke="#000000" style="fill-opacity: 1; stroke-width: 1; stroke-opacity: 1;" class="Door Swing Beside"><polygon points="1015.79,576.67 1015.79,495.51 1000.79,495.51 1000.79,576.67 "/><g id="Threshold" class="Threshold"><polygon points="1015.79,576.67 1015.79,495.51 1000.79,495.51 1000.79,576.67 "/></g><g id="Panel" fill="none" style="" class="Panel Right Positive"><g id="PanelArea" fill="none" stroke="none" style="" class="PanelArea"><polygon points="1015.79,576.67 1015.79,495.51 1000.79,495.51 1000.79,576.67 "/></g><path d="M1000.79,576.67 q-81.16,0.00 -81.16,-81.16 l81.16,0.00Z"/></g></g></g><g id="Wall" fill="#000000" stroke="#000000" style="fill-opacity: 1; stroke-opacity: 1; stroke-width: 0.2;" class="Wall External"><polygon points="1000.79,468.73 636.73,468.73 651.73,453.73 1015.79,453.73 "/><g id="Window" fill="#f0f0ff" stroke="#000000" style="fill-opacity: 1; stroke-width: 1; stroke-opacity: 1;" class="Window Regular"><polygon points="829.83,468.73 706.83,468.73 706.83,453.73 829.83,453.73 "/><g id="Glass" class="Glass"><polygon points="829.83,468.73 706.83,468.73 706.83,453.73 829.83,453.73 "/></g><g id="Panel" class="Panel"><line x1="822.3278960028154" x2="714.3251012508058" y1="461.2278965166514" y2="461.2278965166514"/><line x1="822.3278960028154" x2="822.3278960028154" y1="468.7278965166514" y2="453.7278965166514"/><line x1="714.3251012508058" x2="714.3251012508058" y1="468.7278965166514" y2="453.7278965166514"/></g></g><g id="Door" fill="#ffffff" stroke="#000000" style="fill-opacity: 1; stroke-width: 1; stroke-opacity: 1;" class="Door Swing Beside"><polygon points="944.59,468.73 863.43,468.73 863.43,453.73 944.59,453.73 "/><g id="Threshold" class="Threshold"><polygon points="944.59,468.73 863.43,468.73 863.43,453.73 944.59,453.73 "/></g><g id="Panel" fill="none" style="" class="Panel Right Negative"><g id="PanelArea" fill="none" stroke="none" style="" class="PanelArea"><polygon points="944.59,468.73 863.43,468.73 863.43,453.73 944.59,453.73 "/></g><path d="M863.43,468.73 q0.00,81.16 81.16,81.16 l0.00,-81.16Z"/></g></g></g><g id="Wall" fill="#000000" stroke="#000000" style="fill-opacity: 1; stroke-opacity: 1; stroke-width: 0.2;" class="Wall External"><polygon points="636.73,468.73 636.73,191.13 651.73,206.13 651.73,453.73 "/><g id="Window" fill="#f0f0ff" stroke="#000000" style="fill-opacity: 1; stroke-width: 1; stroke-opacity: 1;" class="Window Regular"><polygon points="636.73,354.12 636.73,265.35 651.73,265.35 651.73,354.12 "/><g id="Glass" class="Glass"><polygon points="636.73,354.12 636.73,265.35 651.73,265.35 651.73,354.12 "/></g><g id="Panel" class="Panel"><line x1="644.2294747459628" x2="644.2294747459628" y1="346.61982538528116" y2="272.85493834252213"/><line x1="636.7294747459628" x2="651.7294747459628" y1="346.61982538528116" y2="346.61982538528116"/><line x1="636.7294747459628" x2="651.7294747459628" y1="272.8549383425222" y2="272.8549383425222"/></g></g><g id="Window" fill="#f0f0ff" stroke="#000000" style="fill-opacity: 1; stroke-width: 1; stroke-opacity: 1;" class="Window Regular"><polygon points="636.73,446.05 636.73,389.63 651.73,389.63 651.73,446.05 "/><g id="Glass" class="Glass"><polygon points="636.73,446.05 636.73,389.63 651.73,389.63 651.73,446.05 "/></g><g id="Panel" class="Panel"><line x1="644.2294747459628" x2="644.2294747459628" y1="438.5549203235672" y2="397.1258031435216"/><line x1="636.7294747459628" x2="651.7294747459628" y1="438.5549203235672" y2="438.5549203235672"/><line x1="636.7294747459628" x2="651.7294747459628" y1="397.1258031435216" y2="397.1258031435216"/></g></g></g><g id="Wall" fill="#000000" stroke="#000000" style="fill-opacity: 1; stroke-opacity: 1; stroke-width: 0.2;" class="Wall"><polygon points="1015.79,453.73 1296.01,453.73 1296.01,468.73 1015.79,468.73 "/><g id="Door" fill="#ffffff" stroke="#000000" style="fill-opacity: 1; stroke-width: 1; stroke-opacity: 1;" class="Door Swing Beside"><polygon points="1165.20,453.73 1239.38,453.73 1239.38,468.73 1165.20,468.73 "/><g id="Threshold" class="Threshold"><polygon points="1165.20,453.73 1239.38,453.73 1239.38,468.73 1165.20,468.73 "/></g><g id="Panel" fill="none" style="" class="Panel Left Positive"><g id="PanelArea" fill="none" stroke="none" style="" class="PanelArea"><polygon points="1165.20,453.73 1239.38,453.73 1239.38,468.73 1165.20,468.73 "/></g><path d="M1239.38,468.73 q0.00,74.18 -74.18,74.18 l0.00,-74.18Z"/></g></g></g><g id="Wall" fill="#000000" stroke="#000000" style="fill-opacity: 1; stroke-opacity: 1; stroke-width: 0.2;" class="Wall"><polygon points="1015.79,453.73 1015.79,206.13 1027.79,206.13 1027.79,453.73 "/></g><g class="FixedFurniture ElectricalAppliance Stove" fill="#ffffff" stroke="#000000" transform="matrix(-1,0,0,-1,392.0456,295.4917)" style="fill-opacity: 1; stroke-opacity: 1;">
        <g class="BoundaryPolygon">
            <polygon points="0,0 60,0 60,60 0,60"/>
        </g>
        <g class="InnerPolygon">
            <polygon points="2 2 58 2 58 58 2 58 2 2"/>
        </g>
        <g class="OuterCircle">
            <circle cx="16" cy="16" r="8"/>
            <circle cx="44" cy="16" r="8"/>
            <circle cx="16" cy="43.9" r="8"/>
            <circle cx="44" cy="44" r="8"/>
        </g>
        <g class="InnerCircle">
            <circle cx="16" cy="16" r="6"/>
            <circle cx="44" cy="16" r="6"/>
            <circle cx="16" cy="43.9" r="6"/>
            <circle cx="44" cy="44.1" r="6"/>
        </g>
            <g class="Direction" fill-opacity="0.9" style="display: none;">
            <polygon points="32.009 55.197 32.009 44.581 29 44.581 29 55.197 25.197 55.197 30.5 60 35.803 55.197 32.009 55.197" fill="#444444"/>
        </g> 
        <g class="Name" fill-opacity="0.9" style="display: none;">
            <text transform="translate(3 12)" font-size="12" font-family="Verdana, Sans-Serif">STOVE</text>
        </g>
        <desc>Width:60 Height:90 Depth:30 Elevation:0</desc>
    </g><g class="FixedFurniture Fireplace" fill="#ffffff" stroke="#000000" transform="matrix(0,1.0465,-1.1611,0,392.0456,310.726)" style="fill-opacity: 1; stroke-opacity: 1;">     
	    <g class="BoundaryPolygon"> 
		    <polygon points="0,0 75,0 75,60 0,60"/> 
		</g>
	    <g class="Lines" fill="none" stroke="#4c4c4c"> 
		    <line x1="0.629" y1="9.556" x2="51.294" y2="60.205"/>
            <line x1="0.598" y1="25.167" x2="35.942" y2="60.5"/>
            <line x1="0.5" y1="40.841" x2="20.479" y2="60.5"/>
            <line x1="40.648" y1="0.5" x2="75.432" y2="35.274"/>
            <line x1="8.329" y1="0.5" x2="68.348" y2="60.5"/>
            <line x1="24.88" y1="0.5" x2="75.5" y2="51.104"/>
            <line x1="56.774" y1="0.5" x2="75.5" y2="19.22"/>
		</g>
	    <g class="FireBox">  &gt;	
		    <rect x="22.053" y="19.92" width="32.571" height="40.58"/>
	    </g>
        <g class="Direction" fill-opacity="0.9" style="display: none;">
            <polygon points="39.409 54.797 39.409 44.181 36.4 44.181 36.4 54.797 32.597 54.797 37.9 60.1 43.203 54.797 39.409 54.797" fill="#444444"/>
        </g> 
        <g class="Name" fill-opacity="0.9" style="display: none;">
            <text transform="translate(3 12)" font-size="12" font-family="Verdana, Sans-Serif">FP</text>
        </g>
        <desc>Width:75 Height:120 Depth:60 Elevation:0</desc>
    </g><g class="FixedFurniture ElectricalAppliance Refrigerator" fill="#ffffff" stroke="#000000" transform="matrix(0,-0.9787,1,0,125.646,295.7261)" style="fill-opacity: 1; stroke-opacity: 1;">
        <g class="BoundaryPolygon">
            <polygon points="0,0 60,0 60,60 0,60"/>
        </g>
        <g class="electricitySign" fill="none">
            <path d="M0,0,30,37.1v-18L60,56.3"/>
        </g>
        <g class="Doors">
            <rect y="56" width="60" height="4"/>
        </g>
        <g class="Direction" fill-opacity="0.9" style="display: none;">
            <polygon points="32.009 55.197 32.009 44.581 29 44.581 29 55.197 25.197 55.197 30.5 60 35.803 55.197 32.009 55.197" fill="#444444"/>
        </g> 
        <g class="Name" fill-opacity="0.9" style="display: none;">
            <text transform="translate(3 12)" font-size="12" font-family="Verdana, Sans-Serif">REF</text>
        </g>
        <desc>Width:60 Height:170 Depth:60 Elevation:0</desc>
    </g><g class="FixedFurniture BaseCabinet" fill="#ffffff" stroke="#000000" transform="matrix(0,-1,1,0,125.6928,236.5962)" style="fill-opacity: 1; stroke-opacity: 1;">
        <g class="BoundaryPolygon">
            <polygon points="0.00,0.00 156.52,0.00 156.52,60.00 0.00,60.00 "/>
        </g>
        <g class="Direction" fill-opacity="0.9" style="display: none;">
            <polygon points="83.50,55.20 83.50,44.58 80.49,44.58 80.49,55.20 76.69,55.20 81.99,60.00 87.30,55.20 83.50,55.20 " fill="#444444"/>
        </g> 
        <g class="Name" fill-opacity="0.9" style="display: none;">
            <text transform="translate(3 12)" font-size="12" font-family="Verdana, Sans-Serif">CB</text>
        </g>
        <desc>Width:60 Height:90 Depth:60 Elevation:0</desc>
    </g><g class="FixedFurniture Sink" fill="#ffffff" stroke="#000000" transform="matrix(0,-1,1,0,125.6772,236.5962)" style="fill-opacity: 1; stroke-opacity: 1;">
        <g class="BoundaryPolygon" fill="none" stroke="none">
            <polygon points="0,0 60,0 60,60 0,60"/>
        </g>
        <g class="InnerPolygon">
            <polygon points="5 9.7 55 9.7 55 54.7 5 54.7"/>
        </g>
        <g class="OuterDrain" stroke-width="0.8">
            <circle cx="30" cy="32.2" r="3.5"/>
        </g>
        <g class="InnerDrain" stroke-width="0.8">
            <circle cx="30" cy="32.2" r="2"/>
        </g>
        <g class="Faucet">
            <polygon points="27 5 33 5 33 19 27 19"/>
        </g>
        <g class="Direction" fill-opacity="0.9" style="display: none;">
            <polygon points="32.009 55.197 32.009 44.581 29 44.581 29 55.197 25.197 55.197 30.5 60 35.803 55.197 32.009 55.197" fill="#444444"/>
        </g> 
        <g class="Name" fill-opacity="0.9" style="display: none;">
            <text transform="translate(3 12)" font-size="12" font-family="Verdana, Sans-Serif">SINK</text>
        </g>
        <desc>Width:60 Height:90 Depth:60 Elevation:0</desc>
    </g><g class="FixedFurniture Fireplace" fill="#ffffff" stroke="#000000" transform="matrix(0,1,-1.2314,0,1015.6577,319.6446)" style="fill-opacity: 1; stroke-opacity: 1;">     
	    <g class="BoundaryPolygon"> 
		    <polygon points="0,0 75,0 75,60 0,60"/> 
		</g>
	    <g class="Lines" fill="none" stroke="#4c4c4c"> 
		    <line x1="0.629" y1="9.556" x2="51.294" y2="60.205"/>
            <line x1="0.598" y1="25.167" x2="35.942" y2="60.5"/>
            <line x1="0.5" y1="40.841" x2="20.479" y2="60.5"/>
            <line x1="40.648" y1="0.5" x2="75.432" y2="35.274"/>
            <line x1="8.329" y1="0.5" x2="68.348" y2="60.5"/>
            <line x1="24.88" y1="0.5" x2="75.5" y2="51.104"/>
            <line x1="56.774" y1="0.5" x2="75.5" y2="19.22"/>
		</g>
	    <g class="FireBox">  &gt;	
		    <rect x="22.053" y="19.92" width="32.571" height="40.58"/>
	    </g>
        <g class="Direction" fill-opacity="0.9" style="display: none;">
            <polygon points="39.409 54.797 39.409 44.181 36.4 44.181 36.4 54.797 32.597 54.797 37.9 60.1 43.203 54.797 39.409 54.797" fill="#444444"/>
        </g> 
        <g class="Name" fill-opacity="0.9" style="display: none;">
            <text transform="translate(3 12)" font-size="12" font-family="Verdana, Sans-Serif">FP</text>
        </g>
        <desc>Width:75 Height:120 Depth:60 Elevation:0</desc>
    </g><g class="FixedFurniture SaunaBenchHigh" fill="#ffffff" stroke="#000000" transform="matrix(1,0,0,1,1027.7924,206.1276)" style="fill-opacity: 1; stroke-opacity: 1;">
        <g class="BoundaryPolygon">
            <polygon points="0.00,0.00 253.40,0.00 253.40,66.52 0.00,66.52 "/> 
        </g>
        <g class="Bench" stroke="#9a9a9a" stroke-width="0.5">
            <line x1="0" y1="4.4345476336751535" x2="253.39940909657597" y2="4.4345476336751535"/>
            <line x1="0" y1="8.869095267350307" x2="253.39940909657597" y2="8.869095267350307"/>
            <line x1="0" y1="13.303642901025455" x2="253.39940909657597" y2="13.303642901025455"/>
            <line x1="0" y1="17.738190534700614" x2="253.39940909657597" y2="17.738190534700614"/>
            <line x1="0" y1="22.172738168375766" x2="253.39940909657597" y2="22.172738168375766"/>
            <line x1="0" y1="26.60728580205091" x2="253.39940909657597" y2="26.60728580205091"/>
            <line x1="0" y1="31.04183343572607" x2="253.39940909657597" y2="31.04183343572607"/>
            <line x1="0" y1="35.47638106940123" x2="253.39940909657597" y2="35.47638106940123"/>
            <line x1="0" y1="39.910928703076365" x2="253.39940909657597" y2="39.910928703076365"/>
            <line x1="0" y1="44.34547633675153" x2="253.39940909657597" y2="44.34547633675153"/>
            <line x1="0" y1="48.78002397042668" x2="253.39940909657597" y2="48.78002397042668"/>
            <line x1="0" y1="53.21457160410182" x2="253.39940909657597" y2="53.21457160410182"/>
            <line x1="0" y1="57.64911923777698" x2="253.39940909657597" y2="57.64911923777698"/>
            <line x1="0" y1="62.08366687145214" x2="253.39940909657597" y2="62.08366687145214"/>
        </g>
         <g class="Direction" fill-opacity="0.9" style="display: none;">
            <polygon points="130.68,60.59 130.68,49.98 127.68,49.98 127.68,60.59 123.87,60.59 129.18,65.90 134.48,60.59 130.68,60.59 " fill="#444444"/>
        </g> 
        <g class="Name" fill-opacity="0.9" style="display: none;">
            <text transform="translate(3 12)" font-size="12" font-family="Verdana, Sans-Serif">SB_HIGH</text>
        </g>
        <desc>Width:185 Height:5 Depth:60 Elevation:105</desc>
    </g><g class="FixedFurniture SaunaBenchMid" fill="#ffffff" stroke="#000000" transform="matrix(1,0,0,1,1027.7924,272.6771)" style="fill-opacity: 1; stroke-opacity: 1;">
        <g class="BoundaryPolygon">
            <polygon points="0.00,0.00 253.40,0.00 253.40,44.28 0.00,44.28 "/>
        </g>
        <g class="Bench" stroke="#9a9a9a" stroke-width="0.5">
            <line x1="0" y1="4.428063755996179" x2="253.40176952342895" y2="4.428063755996179"/>
            <line x1="0" y1="8.856127511992359" x2="253.40176952342895" y2="8.856127511992359"/>
            <line x1="0" y1="13.284191267988541" x2="253.40176952342895" y2="13.284191267988541"/>
            <line x1="0" y1="17.712255023984717" x2="253.40176952342895" y2="17.712255023984717"/>
            <line x1="0" y1="22.14031877998089" x2="253.40176952342895" y2="22.14031877998089"/>
            <line x1="0" y1="26.568382535977083" x2="253.40176952342895" y2="26.568382535977083"/>
            <line x1="0" y1="30.996446291973253" x2="253.40176952342895" y2="30.996446291973253"/>
            <line x1="0" y1="35.424510047969434" x2="253.40176952342895" y2="35.424510047969434"/>
            <line x1="0" y1="39.85257380396561" x2="253.40176952342895" y2="39.85257380396561"/>
        </g>
        <g class="Direction" fill-opacity="0.9" style="display: none;">
            <polygon points="128.77,38.36 128.77,27.75 125.76,27.75 125.76,38.36 121.96,38.36 127.26,43.67 132.56,38.36 128.77,38.36 " fill="#444444"/>
        </g> 
        <g class="Name" fill-opacity="0.9" style="display: none;">
            <text transform="translate(3 12)" font-size="12" font-family="Verdana, Sans-Serif">SB_MID</text>
        </g>
        <desc>Width:185 Height:5 Depth:40 Elevation:60</desc>
    </g><g class="FixedFurniture ElectricalAppliance SaunaStove" fill="#ffffff" stroke="#000000" transform="matrix(0,-1.1229,1.432,0,1027.8819,422.1437)" style="fill-opacity: 1; stroke-opacity: 1;"> 
	   <g class="BoundaryPolygon"> 
		    <polygon points="0,0 60,0 60,35 0,35"/>
		</g>
	    <g class="electricitySign" fill="none">
		    <polyline points="0 35 39.7 17.5 21.4 17.5 60 0"/>
		</g>
        <g class="Direction" fill-opacity="0.9" style="display: none;">
            <polygon points="31.509 29.697 31.509 19.081 28.5 19.081 28.5 29.697 24.697 29.697 30 35 35.303 29.697 31.509 29.697" fill="#444444"/>
        </g> 
        <g class="Name" fill-opacity="0.9" style="display: none;">
            <text transform="translate(3 12)" font-size="12" font-family="Verdana, Sans-Serif">SS</text>
        </g>
        <desc>Width:60 Height:60 Depth:35 Elevation:20</desc>
	</g><g fill="#0000ff" stroke="#0000ff" style="display: none;" class="SelectionControls"><g style="display: none;" class="rotateControl"><circle cx="282.5713727431017" cy="118.10910543350991" r="5" style="stroke : none; fill-opacity: 0.5; cursor:crosshair"/></g><g style="display: none;" class="ResizeNControl"><circle cx="0" cy="0" r="5" style="stroke : none; fill-opacity: 0.5"/></g><g style="display: none;" class="ResizeNEControl"><circle cx="0" cy="0" r="5" style="stroke : none; fill-opacity: 0.5"/></g><g style="display: none;" class="ResizeEControl"><circle cx="0" cy="0" r="5" style="stroke : none; fill-opacity: 0.5"/></g><g style="display: none;" class="ResizeSEControl"><circle cx="0" cy="0" r="5" style="stroke : none; fill-opacity: 0.5"/></g><g style="display: none;" class="ResizeSControl"><circle cx="0" cy="0" r="5" style="stroke : none; fill-opacity: 0.5"/></g><g style="display: none;" class="ResizeSWControl"><circle cx="0" cy="0" r="5" style="stroke : none; fill-opacity: 0.5"/></g><g style="display: none;" class="ResizeWControl"><circle cx="0" cy="0" r="5" style="stroke : none; fill-opacity: 0.5"/></g><g style="display: none;" class="ResizeNWControl"><circle cx="0" cy="0" r="5" style="stroke : none; fill-opacity: 0.5"/></g><g style="display: none;" class="removeControl"><polygon style="stroke : none; fill-opacity: 0.1" points="213.51,148.11 351.63,148.11 351.63,188.08 213.51,188.08 "/></g><g style="display: none;" class="copyPasteControl"><polygon style="stroke : none; fill-opacity: 0.1"/></g><g style="display: none;" class="translateControl"><polygon style="stroke : none; fill-opacity: 0.1; cursor:move" points="213.51,148.11 351.63,148.11 351.63,188.08 213.51,188.08 "/></g></g><g fill="#0000ff" stroke="#0000ff" style="display: none;" class="SelectionControls"><polygon fill="none" stroke="#0000ff" style="" points="125.58,80.08 392.05,80.08 392.05,295.73 125.58,295.73 "/><g style="display: none;" class="rotateControl"><circle cx="258.814521327086" cy="50.076180433509904" r="5" style="stroke : none; fill-opacity: 0.5; cursor:crosshair"/></g><g style="display: none;" class="ResizeNControl"><circle cx="0" cy="0" r="5" style="stroke : none; fill-opacity: 0.5"/></g><g style="display: none;" class="ResizeNEControl"><circle cx="0" cy="0" r="5" style="stroke : none; fill-opacity: 0.5"/></g><g style="display: none;" class="ResizeEControl"><circle cx="0" cy="0" r="5" style="stroke : none; fill-opacity: 0.5"/></g><g style="display: none;" class="ResizeSEControl"><circle cx="0" cy="0" r="5" style="stroke : none; fill-opacity: 0.5"/></g><g style="display: none;" class="ResizeSControl"><circle cx="0" cy="0" r="5" style="stroke : none; fill-opacity: 0.5"/></g><g style="display: none;" class="ResizeSWControl"><circle cx="0" cy="0" r="5" style="stroke : none; fill-opacity: 0.5"/></g><g style="display: none;" class="ResizeWControl"><circle cx="0" cy="0" r="5" style="stroke : none; fill-opacity: 0.5"/></g><g style="display: none;" class="ResizeNWControl"><circle cx="0" cy="0" r="5" style="stroke : none; fill-opacity: 0.5"/></g><g style="display: none;" class="removeControl"><polygon style="stroke : none; fill-opacity: 0.1"/></g><g style="display: none;" class="copyPasteControl"><polygon style="stroke : none; fill-opacity: 0.1"/></g><g style="display: none;" class="translateControl"><polygon style="stroke : none; fill-opacity: 0.1; cursor:move"/></g></g></g></g></g></svg>
