<?xml version="1.0"?>
<svg xmlns="http://www.w3.org/2000/svg" xmlns:xlink="http://www.w3.org/1999/xlink" height="823.8700180053711" version="1.1" width="1389.0801315307617" id="temp" viewBox="0 0 1389.0801315307617 823.8700180053711"><desc>Powered by CubiCasa</desc><defs/><g id="Model" class="Model v1-1"><g class="Floor"><g id="Floor-1" transform="matrix(1,0,0,1,0,0)" class="Floorplan Floor-1"><g id="f1d3a6d8-cc6f-4384-903c-df4dbda47915" class="Space Bath Shower" fill="#ffffff" stroke="#ffffff" style="fill-opacity: 1; stroke-opacity: 1; stroke-width: 0.2;"><polygon points="792.65,719.38 639.66,719.38 639.66,519.46 792.65,519.46 "/><g transform="matrix(1,0,0,1,639.6583,519.4629)" class="Dimension"><g transform="matrix(1,0,0,1,0,0)" style="display: none;" class="Visual"><g id="mark1" fill="#000000" stroke="none" transform="matrix(1,0,0,1,76.4975,0)" style="fill-opacity: 1; pointer-events: visible;" class="DimensionMark"><polygon points="-5,5,0,0,5,5"/></g><g id="mark2" fill="#000000" stroke="none" transform="matrix(1,0,0,1,152.995,99.9563)" style="fill-opacity: 1; pointer-events: visible;" class="DimensionMark"><polygon points="-5,-5,0,0,-5,5"/></g><g id="mark3" fill="#000000" stroke="none" transform="matrix(1,0,0,1,76.4975,199.9127)" style="fill-opacity: 1; pointer-events: visible;" class="DimensionMark"><polygon points="-5,-5,0,0,5,-5"/></g><g id="mark4" fill="#000000" stroke="none" transform="matrix(1,0,0,1,0,99.9563)" style="fill-opacity: 1; pointer-events: visible;" class="DimensionMark"><polygon points="5,5,0,0,5,-5"/></g></g><g transform="matrix(1,0,0,1,56.8735,119.9506)" class="SpaceDimensionsLabel"><g id="NameLabel" style="display: none;" class="TextLabel NameLabel"><text x="0" y="0em" fill="#000000" stroke="none" style="font-family: Verdana; font-size: 33px; fill-opacity: 1; cursor: default;">SH</text></g><g id="DimensionMeasureLabel" transform="matrix(1,0,0,1,-116.3203,80.3125)" style="display: none;" class="TextLabel DimensionMeasureLabel"><text x="52.671875" y="-1.2em" fill="#000000" stroke="none" style="font-family: Verdana; font-size: 33px; fill-opacity: 1; cursor: default;">5'0" x 6'7"</text><text x="0" y="0em" fill="#000000" stroke="none" style="font-family: Verdana; font-size: 33px; fill-opacity: 1; cursor: default;">1.53 m x 2.00 m</text></g></g></g></g><g id="1553fd53-3010-4842-a85c-80a7bd6f5bb8" class="Space Closet WalkIn" fill="#ffffff" stroke="#ffffff" style="fill-opacity: 1; stroke-opacity: 1; stroke-width: 0.2;"><polygon points="974.29,307.46 796.35,307.46 796.35,126.54 974.29,126.54 "/><g transform="matrix(1,0,0,1,796.3486,126.5359)" class="Dimension"><g transform="matrix(1,0,0,1,0,0)" style="display: none;" class="Visual"><g id="mark1" fill="#000000" stroke="none" transform="matrix(1,0,0,1,88.9723,0)" style="fill-opacity: 1; pointer-events: visible;" class="DimensionMark"><polygon points="-5,5,0,0,5,5"/></g><g id="mark2" fill="#000000" stroke="none" transform="matrix(1,0,0,1,177.9446,90.4633)" style="fill-opacity: 1; pointer-events: visible;" class="DimensionMark"><polygon points="-5,-5,0,0,-5,5"/></g><g id="mark3" fill="#000000" stroke="none" transform="matrix(1,0,0,1,88.9723,180.9265)" style="fill-opacity: 1; pointer-events: visible;" class="DimensionMark"><polygon points="-5,-5,0,0,5,-5"/></g><g id="mark4" fill="#000000" stroke="none" transform="matrix(1,0,0,1,0,90.4633)" style="fill-opacity: 1; pointer-events: visible;" class="DimensionMark"><polygon points="5,5,0,0,5,-5"/></g></g><g transform="matrix(1,0,0,1,70.7501,108.5962)" class="SpaceDimensionsLabel"><g id="NameLabel" style="display: none;" class="TextLabel NameLabel"><text x="0" y="0em" fill="#000000" stroke="none" style="font-family: Verdana; font-size: 33px; fill-opacity: 1; cursor: default;">VH</text></g><g id="DimensionMeasureLabel" transform="matrix(1,0,0,1,-116.3203,80.3125)" style="display: none;" class="TextLabel DimensionMeasureLabel"><text x="31.6953125" y="-1.2em" fill="#000000" stroke="none" style="font-family: Verdana; font-size: 33px; fill-opacity: 1; cursor: default;">5'10" x 5'11"</text><text x="0" y="0em" fill="#000000" stroke="none" style="font-family: Verdana; font-size: 33px; fill-opacity: 1; cursor: default;">1.78 m x 1.81 m</text></g></g></g></g><g id="855d4e63-75aa-4322-b108-c0cc75a90864" class="Space Undefined" fill="#ffffff" stroke="#ffffff" style="fill-opacity: 1; stroke-opacity: 1; stroke-width: 0.2;"><polygon points="974.29,719.38 803.36,719.38 803.36,501.67 796.35,501.67 796.35,317.29 974.29,317.29 "/><g transform="matrix(1,0,0,1,803.3568,317.2889)" class="Dimension"><g transform="matrix(1,0,0,1,0,0)" style="display: none;" class="Visual"><g id="mark1" fill="#000000" stroke="none" transform="matrix(1,0,0,1,81.9642,0)" style="fill-opacity: 1; pointer-events: visible;" class="DimensionMark"><polygon points="-5,5,0,0,5,5"/></g><g id="mark2" fill="#000000" stroke="none" transform="matrix(1,0,0,1,170.9365,201.0433)" style="fill-opacity: 1; pointer-events: visible;" class="DimensionMark"><polygon points="-5,-5,0,0,-5,5"/></g><g id="mark3" fill="#000000" stroke="none" transform="matrix(1,0,0,1,81.9642,402.0866)" style="fill-opacity: 1; pointer-events: visible;" class="DimensionMark"><polygon points="-5,-5,0,0,5,-5"/></g><g id="mark4" fill="#000000" stroke="none" transform="matrix(1,0,0,1,0,201.0433)" style="fill-opacity: 1; pointer-events: visible;" class="DimensionMark"><polygon points="5,5,0,0,5,-5"/></g></g><g transform="matrix(1,0,0,1,7.6735,152.0493)" class="SpaceDimensionsLabel"><g id="NameLabel" style="display: none;" class="TextLabel NameLabel"><text x="0" y="0em" fill="#000000" stroke="none" style="font-family: Verdana; font-size: 33px; fill-opacity: 1; cursor: default;">UNDEFINED</text></g><g id="DimensionMeasureLabel" transform="matrix(1,0,0,1,-40.5234,80.3125)" style="display: none;" class="TextLabel DimensionMeasureLabel"><text x="42.1796875" y="-1.2em" fill="#000000" stroke="none" style="font-family: Verdana; font-size: 33px; fill-opacity: 1; cursor: default;">5'7" x 13'2"</text><text x="0" y="0em" fill="#000000" stroke="none" style="font-family: Verdana; font-size: 33px; fill-opacity: 1; cursor: default;">1.71 m x 4.02 m</text></g></g></g></g><g id="7b2cf9d6-c1b6-4433-8fae-07c62c892910" class="Space LivingRoom" fill="#ffffff" stroke="#ffffff" style="fill-opacity: 1; stroke-opacity: 1; stroke-width: 0.2;"><polygon points="786.52,317.29 796.35,317.29 796.35,501.67 296.74,501.67 296.74,126.54 786.52,126.54 "/><g transform="matrix(1,0,0,1,296.7423,126.5359)" class="Dimension"><g transform="matrix(1,0,0,1,0,0)" style="display: none;" class="Visual"><g id="mark1" fill="#000000" stroke="none" transform="matrix(1,0,0,1,249.8032,0)" style="fill-opacity: 1; pointer-events: visible;" class="DimensionMark"><polygon points="-5,5,0,0,5,5"/></g><g id="mark2" fill="#000000" stroke="none" transform="matrix(1,0,0,1,499.6063,190.753)" style="fill-opacity: 1; pointer-events: visible;" class="DimensionMark"><polygon points="-5,-5,0,0,-5,5"/></g><g id="mark3" fill="#000000" stroke="none" transform="matrix(1,0,0,1,249.8032,375.1371)" style="fill-opacity: 1; pointer-events: visible;" class="DimensionMark"><polygon points="-5,-5,0,0,5,-5"/></g><g id="mark4" fill="#000000" stroke="none" transform="matrix(1,0,0,1,0,190.753)" style="fill-opacity: 1; pointer-events: visible;" class="DimensionMark"><polygon points="5,5,0,0,5,-5"/></g></g><g transform="matrix(1,0,0,1,222.6113,201.5857)" class="SpaceDimensionsLabel"><g id="NameLabel" style="display: none;" class="TextLabel NameLabel"><text x="0" y="0em" fill="#000000" stroke="none" style="font-family: Verdana; font-size: 33px; fill-opacity: 1; cursor: default;">OH</text></g><g id="DimensionMeasureLabel" transform="matrix(1,0,0,1,-114.6094,80.3125)" style="display: none;" class="TextLabel DimensionMeasureLabel"><text x="31.6953125" y="-1.2em" fill="#000000" stroke="none" style="font-family: Verdana; font-size: 33px; fill-opacity: 1; cursor: default;">16'5" x 12'4"</text><text x="0" y="0em" fill="#000000" stroke="none" style="font-family: Verdana; font-size: 33px; fill-opacity: 1; cursor: default;">5.00 m x 3.75 m</text></g></g></g></g><g id="e4a4f551-8a1e-4e9f-9833-1eb00bafe62b" class="Space Outdoor" fill="#ffffff" stroke="#000000" style="stroke-width: 0.2; fill-opacity: 1; stroke-opacity: 1;"><polygon points="108.06,126.54 272.09,126.54 272.09,485.18 108.06,485.18 108.06,126.54 108.06,126.54 "/><g transform="matrix(1,0,0,1,108.0555,126.5359)" class="Dimension"><g transform="matrix(1,0,0,1,0,0)" style="display: none;" class="Visual"><g id="mark1" fill="#000000" stroke="none" transform="matrix(1,0,0,1,82.016,0)" style="fill-opacity: 1; pointer-events: visible;" class="DimensionMark"><polygon points="-5,5,0,0,5,5"/></g><g id="mark2" fill="#000000" stroke="none" transform="matrix(1,0,0,1,164.032,179.3205)" style="fill-opacity: 1; pointer-events: visible;" class="DimensionMark"><polygon points="-5,-5,0,0,-5,5"/></g><g id="mark3" fill="#000000" stroke="none" transform="matrix(1,0,0,1,82.016,358.6411)" style="fill-opacity: 1; pointer-events: visible;" class="DimensionMark"><polygon points="-5,-5,0,0,5,-5"/></g><g id="mark4" fill="#000000" stroke="none" transform="matrix(1,0,0,1,0,179.3205)" style="fill-opacity: 1; pointer-events: visible;" class="DimensionMark"><polygon points="5,5,0,0,5,-5"/></g></g><g transform="matrix(1,0,0,1,7.7253,192.7831)" class="SpaceDimensionsLabel"><g id="NameLabel" style="display: none;" class="TextLabel NameLabel"><text x="0" y="0em" fill="#000000" stroke="none" style="font-family: Verdana; font-size: 33px; fill-opacity: 1; cursor: default;">ULKOTILA</text></g><g id="DimensionMeasureLabel" transform="matrix(1,0,0,1,-57.3125,80.3125)" style="display: none;" class="TextLabel DimensionMeasureLabel"><text x="42.1796875" y="-1.2em" fill="#000000" stroke="none" style="font-family: Verdana; font-size: 33px; fill-opacity: 1; cursor: default;">5'5" x 11'9"</text><text x="0" y="0em" fill="#000000" stroke="none" style="font-family: Verdana; font-size: 33px; fill-opacity: 1; cursor: default;">1.64 m x 3.59 m</text></g></g></g></g><g id="694cd180-fae2-4b9a-91b5-2b26f2a929bb" class="Space Kitchen" fill="#ffffff" stroke="#ffffff" style="fill-opacity: 1; stroke-opacity: 1; stroke-width: 0.2;"><polygon points="1374.08,719.38 989.72,719.38 989.72,440.28 1374.08,440.28 "/><g transform="matrix(1,0,0,1,989.7163,440.2785)" class="Dimension"><g transform="matrix(1,0,0,1,0,0)" style="display: none;" class="Visual"><g id="mark1" fill="#000000" stroke="none" transform="matrix(1,0,0,1,192.1828,0)" style="fill-opacity: 1; pointer-events: visible;" class="DimensionMark"><polygon points="-5,5,0,0,5,5"/></g><g id="mark2" fill="#000000" stroke="none" transform="matrix(1,0,0,1,384.3656,139.5507)" style="fill-opacity: 1; pointer-events: visible;" class="DimensionMark"><polygon points="-5,-5,0,0,-5,5"/></g><g id="mark3" fill="#000000" stroke="none" transform="matrix(1,0,0,1,192.1828,279.1015)" style="fill-opacity: 1; pointer-events: visible;" class="DimensionMark"><polygon points="-5,-5,0,0,5,-5"/></g><g id="mark4" fill="#000000" stroke="none" transform="matrix(1,0,0,1,0,139.5507)" style="fill-opacity: 1; pointer-events: visible;" class="DimensionMark"><polygon points="5,5,0,0,5,-5"/></g></g><g transform="matrix(1,0,0,1,192.1828,127.6807)" class="SpaceDimensionsLabel"><g id="NameLabel" style="display: none;" class="TextLabel NameLabel"><text x="0" y="0em" fill="#000000" stroke="none" style="font-family: Verdana; font-size: 33px; fill-opacity: 1; cursor: default;">K</text></g><g id="DimensionMeasureLabel" transform="matrix(1,0,0,1,-128.5625,80.3125)" style="display: none;" class="TextLabel DimensionMeasureLabel"><text x="42.1796875" y="-1.2em" fill="#000000" stroke="none" style="font-family: Verdana; font-size: 33px; fill-opacity: 1; cursor: default;">12'7" x 9'2"</text><text x="0" y="0em" fill="#000000" stroke="none" style="font-family: Verdana; font-size: 33px; fill-opacity: 1; cursor: default;">3.84 m x 2.79 m</text></g></g></g></g><g id="45b116d9-ea24-4312-ab84-b08234d99fe9" class="Space Bedroom" fill="#ffffff" stroke="#ffffff" style="fill-opacity: 1; stroke-opacity: 1; stroke-width: 0.2;"><polygon points="1374.08,126.54 1374.08,440.28 989.72,440.28 989.72,126.54 "/><g transform="matrix(1,0,0,1,989.7163,126.54)" class="Dimension"><g transform="matrix(1,0,0,1,0,0)" style="display: none;" class="Visual"><g id="mark1" fill="#000000" stroke="none" transform="matrix(1,0,0,1,192.1828,0)" style="fill-opacity: 1; pointer-events: visible;" class="DimensionMark"><polygon points="-5,5,0,0,5,5"/></g><g id="mark2" fill="#000000" stroke="none" transform="matrix(1,0,0,1,384.3656,156.8693)" style="fill-opacity: 1; pointer-events: visible;" class="DimensionMark"><polygon points="-5,-5,0,0,-5,5"/></g><g id="mark3" fill="#000000" stroke="none" transform="matrix(1,0,0,1,192.1828,313.7385)" style="fill-opacity: 1; pointer-events: visible;" class="DimensionMark"><polygon points="-5,-5,0,0,5,-5"/></g><g id="mark4" fill="#000000" stroke="none" transform="matrix(1,0,0,1,0,156.8693)" style="fill-opacity: 1; pointer-events: visible;" class="DimensionMark"><polygon points="5,5,0,0,5,-5"/></g></g><g transform="matrix(1,0,0,1,183.965,154.13)" class="SpaceDimensionsLabel"><g id="NameLabel" style="display: none;" class="TextLabel NameLabel"><text x="0" y="0em" fill="#000000" stroke="none" style="font-family: Verdana; font-size: 33px; fill-opacity: 1; cursor: default;">MH</text></g><g id="DimensionMeasureLabel" transform="matrix(1,0,0,1,-113.6953,80.3125)" style="display: none;" class="TextLabel DimensionMeasureLabel"><text x="31.6953125" y="-1.2em" fill="#000000" stroke="none" style="font-family: Verdana; font-size: 33px; fill-opacity: 1; cursor: default;">12'7" x 10'4"</text><text x="0" y="0em" fill="#000000" stroke="none" style="font-family: Verdana; font-size: 33px; fill-opacity: 1; cursor: default;">3.84 m x 3.14 m</text></g></g></g></g><g id="Wall" class="Wall External" fill="#000000" stroke="#000000" style="fill-opacity: 1; stroke-opacity: 1; stroke-width: 0.2;"><polygon points="272.09,111.54 1389.08,111.54 1374.08,126.54 296.74,126.54 "/></g><g id="Wall" class="Wall External" fill="#000000" stroke="#000000" style="fill-opacity: 1; stroke-opacity: 1; stroke-width: 0.2;"><polygon points="1389.08,111.54 1389.08,734.38 1374.08,719.38 1374.08,126.54 "/><g id="Window" fill="#f0f0ff" stroke="#000000" style="fill-opacity: 1; stroke-width: 1; stroke-opacity: 1;" class="Window Regular"><polygon points="1389.08,183.12 1389.08,362.97 1374.08,362.97 1374.08,183.12 "/><g id="Glass" class="Glass"><polygon points="1389.08,183.12 1389.08,362.97 1374.08,362.97 1374.08,183.12 "/></g><g id="Panel" class="Panel"><line x1="1381.5799560546875" x2="1381.5799560546875" y1="190.6199951171875" y2="355.4700012207031"/><line x1="1389.0799560546875" x2="1374.0799560546875" y1="190.6199951171875" y2="190.6199951171875"/><line x1="1389.0799560546875" x2="1374.0799560546875" y1="355.4700012207031" y2="355.4700012207031"/></g></g><g id="Window" fill="#f0f0ff" stroke="#000000" style="fill-opacity: 1; stroke-width: 1; stroke-opacity: 1;" class="Window Regular"><polygon points="1389.08,494.73 1389.08,656.77 1374.08,656.77 1374.08,494.73 "/><g id="Glass" class="Glass"><polygon points="1389.08,494.73 1389.08,656.77 1374.08,656.77 1374.08,494.73 "/></g><g id="Panel" class="Panel"><line x1="1381.5799560546875" x2="1381.5799560546875" y1="502.2300109863281" y2="649.27001953125"/><line x1="1389.0799560546875" x2="1374.0799560546875" y1="502.2300109863281" y2="502.2300109863281"/><line x1="1389.0799560546875" x2="1374.0799560546875" y1="649.27001953125" y2="649.27001953125"/></g></g></g><g id="Wall" class="Wall External" fill="#000000" stroke="#000000" style="fill-opacity: 1; stroke-opacity: 1; stroke-width: 0.2;"><polygon points="1389.08,734.38 624.66,734.38 639.66,719.38 1374.08,719.38 "/><g id="Door" fill="#ffffff" stroke="#000000" style="fill-opacity: 1; stroke-width: 1; stroke-opacity: 1;" class="Door Swing Opposite"><polygon points="898.78,734.38 809.29,734.38 809.29,719.38 898.78,719.38 "/><g id="Threshold" class="Threshold"><polygon points="898.78,734.38 809.29,734.38 809.29,719.38 898.78,719.38 "/></g><g id="Panel" fill="none" style="" class="Panel Left Negative"><g id="PanelArea" fill="none" stroke="none" style="" class="PanelArea"><polygon points="898.78,734.38 809.29,734.38 809.29,719.38 898.78,719.38 "/></g><path d="M898.78,734.38 q0.00,89.49 -89.49,89.49 l0.00,-89.49Z"/></g><g id="Panel" fill="none" style="" class="Panel Right Positive"><g id="PanelArea" fill="none" stroke="none" style="" class="PanelArea"><polygon points="898.78,734.38 809.29,734.38 809.29,719.38 898.78,719.38 "/></g><path d="M898.78,719.38 q0.00,-89.49 -89.49,-89.49 l0.00,89.49Z"/></g></g></g><g id="Wall" class="Wall External" fill="#000000" stroke="#000000" style="fill-opacity: 1; stroke-opacity: 1; stroke-width: 0.2;"><polygon points="624.66,734.38 624.66,512.96 639.66,501.67 639.66,719.38 "/></g><g id="Wall" class="Wall External" fill="#000000" stroke="#000000" style="fill-opacity: 1; stroke-opacity: 1; stroke-width: 0.2;"><polygon points="624.66,512.96 272.09,512.96 296.74,501.67 639.66,501.67 "/></g><g id="Wall" class="Wall External" fill="#000000" stroke="#000000" style="fill-opacity: 1; stroke-opacity: 1; stroke-width: 0.2;"><polygon points="272.09,512.96 272.09,111.54 296.74,126.54 296.74,501.67 "/><g id="Door" fill="#ffffff" stroke="#000000" style="fill-opacity: 1; stroke-width: 1; stroke-opacity: 1;" class="Door Swing Beside"><polygon points="272.09,429.08 272.09,348.43 296.74,348.43 296.74,429.08 "/><g id="Threshold" class="Threshold"><polygon points="272.09,429.08 272.09,348.43 296.74,348.43 296.74,429.08 "/></g><g id="Panel" fill="none" style="" class="Panel Left Positive"><g id="PanelArea" fill="none" stroke="none" style="" class="PanelArea"><polygon points="272.09,429.08 272.09,348.43 296.74,348.43 296.74,429.08 "/></g><path d="M296.74,348.43 q80.65,0.00 80.65,80.65 l-80.65,0.00Z"/></g></g><g id="Window" fill="#f0f0ff" stroke="#000000" style="fill-opacity: 1; stroke-width: 1; stroke-opacity: 1;" class="Window Regular"><polygon points="272.09,340.70 272.09,147.35 296.74,147.35 296.74,340.70 "/><g id="Glass" class="Glass"><polygon points="272.09,340.70 272.09,147.35 296.74,147.35 296.74,340.70 "/></g><g id="Panel" class="Panel"><line x1="284.4149932861328" x2="284.4149932861328" y1="333.20001220703125" y2="154.85000610351562"/><line x1="272.0899963378906" x2="296.739990234375" y1="333.20001220703125" y2="333.20001220703125"/><line x1="272.0899963378906" x2="296.739990234375" y1="154.85000610351562" y2="154.85000610351562"/></g></g></g><g id="Wall" class="Wall" fill="#000000" stroke="#000000" style="fill-opacity: 1; stroke-opacity: 1; stroke-width: 0.2;"><polygon points="639.66,501.67 803.36,501.67 792.65,519.46 671.86,519.46 "/></g><g id="Wall" class="Wall" fill="#000000" stroke="#000000" style="fill-opacity: 1; stroke-opacity: 1; stroke-width: 0.2;"><polygon points="803.36,501.67 803.36,734.38 792.65,734.38 792.65,519.46 "/><g id="Door" fill="#ffffff" stroke="#000000" style="fill-opacity: 1; stroke-width: 1; stroke-opacity: 1;" class="Door Swing Beside"><polygon points="803.36,600.49 803.36,651.62 792.65,651.62 792.65,600.49 "/><g id="Threshold" class="Threshold"><polygon points="803.36,600.49 803.36,651.62 792.65,651.62 792.65,600.49 "/></g><g id="Panel" fill="none" style="" class="Panel Left Negative"><g id="PanelArea" fill="none" stroke="none" style="" class="PanelArea"><polygon points="803.36,600.49 803.36,651.62 792.65,651.62 792.65,600.49 "/></g><path d="M803.36,600.49 q51.13,0.00 51.13,51.13 l-51.13,0.00Z"/></g></g></g><g id="Wall" class="Wall" fill="#000000" stroke="#000000" style="fill-opacity: 1; stroke-opacity: 1; stroke-width: 0.2;"><polygon points="796.35,111.54 796.35,307.46 786.52,317.29 786.52,111.54 "/></g><g id="Wall" class="Wall" fill="#000000" stroke="#000000" style="fill-opacity: 1; stroke-opacity: 1; stroke-width: 0.2;"><polygon points="786.52,317.29 989.29,317.29 989.29,307.46 796.35,307.46 "/><g id="Door" fill="#ffffff" stroke="#000000" style="fill-opacity: 1; stroke-width: 1; stroke-opacity: 1;" class="Door Swing Beside"><polygon points="862.32,317.29 923.09,317.29 923.09,307.46 862.32,307.46 "/><g id="Threshold" class="Threshold"><polygon points="862.32,317.29 923.09,317.29 923.09,307.46 862.32,307.46 "/></g><g id="Panel" fill="none" style="" class="Panel Right Negative"><g id="PanelArea" fill="none" stroke="none" style="" class="PanelArea"><polygon points="862.32,317.29 923.09,317.29 923.09,307.46 862.32,307.46 "/></g><path d="M923.09,317.29 q0.00,60.77 -60.77,60.77 l0.00,-60.77Z"/></g></g></g><g id="Wall" class="Wall" fill="#000000" stroke="#000000" style="fill-opacity: 1; stroke-opacity: 1; stroke-width: 0.2;"><polygon points="272.09,111.54 93.57,111.54 93.57,126.54 272.09,126.54 "/></g><g id="Wall" class="Wall" fill="#000000" stroke="#000000" style="fill-opacity: 1; stroke-opacity: 1; stroke-width: 0.2;"><polygon points="272.09,485.18 187.82,485.18 187.82,513.03 272.09,513.03 "/></g><g id="Wall" class="Wall" fill="#000000" stroke="#000000" style="fill-opacity: 1; stroke-opacity: 1; stroke-width: 0.2;"><polygon points="187.82,485.18 95.06,485.18 95.06,500.18 187.82,500.18 "/></g><g id="Wall" class="Wall" fill="#000000" stroke="#000000" style="fill-opacity: 1; stroke-opacity: 1; stroke-width: 0.2;"><polygon points="796.35,126.54 796.35,194.87 828.00,194.87 828.00,126.54 "/></g><g id="Wall" class="Wall" fill="#000000" stroke="#000000" style="fill-opacity: 1; stroke-opacity: 1; stroke-width: 0.2;"><polygon points="639.66,501.67 639.66,596.07 671.86,596.07 671.86,519.46 "/></g><g id="Wall" class="Wall" fill="#000000" stroke="#000000" style="fill-opacity: 1; stroke-opacity: 1; stroke-width: 0.2;"><polygon points="989.72,719.38 989.72,126.54 974.72,126.54 974.72,719.38 "/><g id="Door" fill="#ffffff" stroke="#000000" style="fill-opacity: 1; stroke-width: 1; stroke-opacity: 1;" class="Door Swing Beside"><polygon points="989.72,421.73 989.72,340.71 974.72,340.71 974.72,421.73 "/><g id="Threshold" class="Threshold"><polygon points="989.72,421.73 989.72,340.71 974.72,340.71 974.72,421.73 "/></g><g id="Panel" fill="none" style="" class="Panel Right Negative"><g id="PanelArea" fill="none" stroke="none" style="" class="PanelArea"><polygon points="989.72,421.73 989.72,340.71 974.72,340.71 974.72,421.73 "/></g><path d="M989.72,340.71 q81.02,0.00 81.02,81.02 l-81.02,0.00Z"/></g></g><g id="Door" fill="#ffffff" stroke="#000000" style="fill-opacity: 1; stroke-width: 1; stroke-opacity: 1;" class="Door Swing Beside"><polygon points="989.72,525.89 989.72,444.87 974.72,444.87 974.72,525.89 "/><g id="Threshold" class="Threshold"><polygon points="989.72,525.89 989.72,444.87 974.72,444.87 974.72,525.89 "/></g><g id="Panel" fill="none" style="" class="Panel Left Negative"><g id="PanelArea" fill="none" stroke="none" style="" class="PanelArea"><polygon points="989.72,525.89 989.72,444.87 974.72,444.87 974.72,525.89 "/></g><path d="M989.72,525.89 q81.02,0.00 81.02,-81.02 l-81.02,0.00Z"/></g></g></g><g id="Wall" class="Wall" fill="#000000" stroke="#000000" style="fill-opacity: 1; stroke-opacity: 1; stroke-width: 0.2;"><polygon points="984.98,440.28 1389.08,440.28 1389.08,425.28 984.98,425.28 "/></g><g id="Wall" class="Wall" fill="#000000" stroke="#000000" style="fill-opacity: 1; stroke-opacity: 1; stroke-width: 0.2;"><polygon points="984.98,689.76 1049.53,689.76 1049.53,718.96 984.98,718.96 "/></g><g id="Railing" class="Railing" fill="#ffffff" stroke="#000000" style="fill-opacity: 1; stroke-opacity: 1; stroke-width: 0.2;"><polygon points="95.06,485.18 95.06,126.54 108.06,126.54 108.06,485.18 "/></g><g id="FixedFurnitureSet" transform="matrix(1,0,0,1,732.6532,519.6191)" class="FixedFurnitureSet"><g class="FixedFurniture BaseCabinet" fill="#ffffff" stroke="#000000" transform="matrix(1,0,0,1,0,0)" style="fill-opacity: 1; stroke-opacity: 1;">
        <g class="BoundaryPolygon">
            <polygon points="0.00,0.00 60.00,0.00 60.00,41.80 0.00,41.80 "/>
        </g>
        <g class="Direction" fill-opacity="0.9" style="display: none;">
            <polygon points="32.01,38.45 32.01,27.84 29.00,27.84 29.00,38.45 25.20,38.45 30.50,43.26 35.80,38.45 32.01,38.45 " fill="#444444"/>
        </g> 
        <g class="Name" fill-opacity="0.9" style="display: none;">
            <text transform="translate(3 12)" font-size="12" font-family="Verdana, Sans-Serif">CB</text>
        </g>
        <desc>Width:60 Height:5 Depth:60 Elevation:105</desc>
    </g><g class="FixedFurniture Sink" fill="#ffffff" stroke="#000000" transform="matrix(1,0,0,1,0,0)" style="fill-opacity: 1; stroke-opacity: 1;">
        <g class="BoundaryPolygon" fill="none" stroke="none">
        <polygon points="0.00,0.00 60.00,0.00 60.00,41.80 0.00,41.80 "/>
        </g>
        <g class="InnerPolygon">
            <polygon points="5.00,9.70 55.00,9.70 55.00,38.11 5.00,38.11 "/>
        </g>
        <g class="OuterDrain" stroke-width="0.8">
            <circle cx="30" cy="22.43248517014611" r="3.5"/>
        </g>
        <g class="InnerDrain" stroke-width="0.8">
            <circle cx="30" cy="22.43248517014611" r="2"/>
        </g>
        <g class="Faucet">
            <polygon points="27.00,3.48 33.00,3.48 33.00,17.48 27.00,17.48 "/>
        </g>
        <g class="Direction" fill-opacity="0.9" style="display: none;">
            <polygon points="32.01,38.45 32.01,27.84 29.00,27.84 29.00,38.45 25.20,38.45 30.50,43.26 35.80,38.45 32.01,38.45 " fill="#444444"/>
        </g> 
        <g class="Name" fill-opacity="0.9" style="display: none;">
            <text transform="translate(3 12)" font-size="12" font-family="Verdana, Sans-Serif">SINK</text>
        </g>
        <desc>Width:60 Height:90 Depth:60 Elevation:0</desc>
    </g></g><g class="FixedFurniture CoatCloset" fill="#ffffff" stroke="#000000" transform="matrix(0,1,-1,0,974.137,599.3756)" style="fill-opacity: 1; stroke-opacity: 1;">
        <g class="BoundaryPolygon">
            <polygon points="0,0 120,0 120,60 0,60"/>
        </g>
        <g class="Hanger" fill="#ffffff" stroke="#9a9a9a" stroke-dasharray="5,5">
            <line x1="0" y1="30" x2="120" y2="30"/>
        </g>
        <g class="Direction" fill-opacity="0.9" style="display: none;">
            <polygon points="61.509 54.516 61.509 43.9 58.5 43.9 58.5 54.516 54.697 54.516 60 59.819 65.303 54.516 61.509 54.516" fill="#444444"/>
        </g> 
        <g class="Name" fill-opacity="0.9" style="display: none;">
            <text transform="translate(3 12)" font-size="12" font-family="Verdana, Sans-Serif">CWH</text>
        </g>
        <desc>Width:120 Height:200 Depth:60 Elevation:0</desc>
     </g><g class="FixedFurniture Closet" fill="#ffffff" stroke="#000000" transform="matrix(0,1,-1,0,974.137,539.3756)" style="fill-opacity: 1; stroke-opacity: 1;">
        <g class="BoundaryPolygon">
            <polygon points="0,0 60,0 60,60 0,60"/>
        </g>
        <g class="Direction" fill-opacity="0.9" style="display: none;">
            <polygon points="31.509 54.697 31.509 44.081 28.5 44.081 28.5 54.697 24.697 54.697 30 60 35.303 54.697 31.509 54.697" fill="#444444"/>
        </g> 
        <g class="Name" fill-opacity="0.9" style="display: none;">
            <text transform="translate(3 12)" font-size="12" font-family="Verdana, Sans-Serif">CL</text>
        </g>
        <desc>Width:60 Height:200 Depth:60 Elevation:0</desc>
     </g><g class="FixedFurniture Toilet" fill="#ffffff" stroke="#000000" transform="matrix(1,0,0,1,681.0525,519.4628)" style="fill-opacity: 1; stroke-opacity: 1;">
	   <g class="BoundaryPolygon" fill="none" stroke="none"> 
            <polygon points="0,0 41,0 41,71 0,71"/>
		</g>
        <g class="InnerPolygon">
            <rect x="0.502" y="0.5" width="39.989" height="17.98"/>
            <path d="M40.491,44.237S41.619,70.5,20.907,70.5C-.523,70.5.6,44.237.6,44.237L.5,18.48H40.491Z"/>
            <rect x="17.318" y="7.975" width="6.357" height="3.03"/>
        </g>
        <desc>Width:41 Height:85 Depth:71 Elevation:0</desc>
    </g><g class="FixedFurniture ElectricalAppliance WashingMachine" fill="#ffffff" stroke="#000000" transform="matrix(-0.6823,0,0,-0.9701,792.6533,719.1482)" style="fill-opacity: 1; stroke-opacity: 1;">
	   <g class="BoundaryPolygon">
		    <polygon points="0,0 60,0 60,60 0,60"/>
		</g>	
	    <g class="electricitySign" fill="none">
            <path d="M0,0,30,41V20.8L60,60"/>
		</g>
	    <g class="Handle">
		    <path d="M2.7,59.4H57.3"/>
		</g>
        <g class="Direction" fill-opacity="0.9" style="display: none;">
            <polygon points="32.009 55.197 32.009 44.581 29 44.581 29 55.197 25.197 55.197 30.5 60 35.803 55.197 32.009 55.197" fill="#444444"/>
        </g> 
        <g class="Name" fill-opacity="0.9" style="display: none;">
            <text transform="translate(3 12)" font-size="12" font-family="Verdana, Sans-Serif">WM</text>
        </g>
        <desc>Width:60 Height:90 Depth:60 Elevation:0</desc>
    </g><g class="FixedFurniture ShowerScreen" fill="#ffffff" stroke="#000000" transform="matrix(1,0,0,1,719.2522,659.3755)" style="fill-opacity: 1; stroke-opacity: 1;">
        <g class="BoundaryPolygon">
            <polygon points="0,0 2.5,0 2.5,60 0,60"/>
        </g>
	    <g class="InnerPolygon" stroke-linejoin="round"> 
			<rect width="2.5" height="60"/>
	    </g> 
        <desc>Width:2.5 Height:180 Depth:60 Elevation:135</desc>
    </g><g class="FixedFurniture Shower" fill="#ffffff" stroke="#000000" transform="matrix(-1,0,0,-1,696.8796,719.3756)" style="fill-opacity: 1; stroke-opacity: 1;"> 
	    <g class="BoundaryPolygon" fill="none" stroke="none">
            <polygon points="0,0 32,0 32,19 0,19"/>
        </g>
        <g class="InnerPolygon"> 
			<rect x="3.7" y="0.5" width="11.2" height="6.1"/>
			<rect x="17.6" y="0.5" width="11.2" height="6.1"/>
			<rect x="28.7" y="0.5" width="3.4" height="6.1"/>
			<rect x="0.5" y="0.5" width="3.2" height="6.1"/>
			<path d="M14.9,8.5c0,1.5-0.4,3.3-1.6,5    c-0.4,0.6-1,1.1-1.1,1.7c-0.2,1.1,0.3,2.8,2.5,3.2c0.5,0.1,1.3,0.1,1.6,0.1h-0.1c0.3,0,1.1,0,1.6-0.1c2.2-0.4,2.7-2.1,2.5-3.2    c-0.1-0.6-0.7-1.1-1.1-1.7c-1.2-1.7-1.6-3.5-1.6-5"/>
			<path d="M12.2,15.3c0.1,0.2,1.6,1.9,4.2,1.9 c2.4-0.1,3.7-1.7,3.9-1.9"/>
			<path d="M14.9,0.5h2.7v8c-0.9,0-1.8,0-2.7,0l0,0 C14.9,5.9,14.9,3.2,14.9,0.5z"/>
		</g>
	    <g class="Indicator"> 
			<path d="M3.7,3.6C5,3.1,5.2,3,5.2,3 c0,1.1,0,0,0,1.1C5.2,4.1,5.1,4.1,3.7,3.6"/>
			<path d="M28.7,3.6 C27.4,3.1,27.2,3,27.2,3c0,1.1,0,0,0,1.1C27.2,4.1,27.3,4.1,28.7,3.6"/>	
		</g>
        <desc>Width:32 Height:97 Depth:19 Elevation:135</desc>
	</g><g class="FixedFurniture Closet" fill="#ffffff" stroke="#000000" transform="matrix(-1,0,0,-1,1364.9885,719.0831)" style="fill-opacity: 1; stroke-opacity: 1;">
        <g class="BoundaryPolygon">
            <polygon points="0.00,0.00 55.55,0.00 55.55,60.00 0.00,60.00 "/>
        </g>
        <g class="Direction" fill-opacity="0.9" style="display: none;">
            <polygon points="29.17,54.70 29.17,44.08 26.16,44.08 26.16,54.70 22.36,54.70 27.66,60.00 32.97,54.70 29.17,54.70 " fill="#444444"/>
        </g> 
        <g class="Name" fill-opacity="0.9" style="display: none;">
            <text transform="translate(3 12)" font-size="12" font-family="Verdana, Sans-Serif">CL</text>
        </g>
        <desc>Width:60 Height:200 Depth:60 Elevation:0</desc>
     </g><g class="FixedFurniture ElectricalAppliance Refrigerator" fill="#ffffff" stroke="#000000" transform="matrix(-1,0,0,-1,1309.4398,719.0832)" style="fill-opacity: 1; stroke-opacity: 1;">
        <g class="BoundaryPolygon">
            <polygon points="0,0 60,0 60,60 0,60"/>
        </g>
        <g class="electricitySign" fill="none">
            <path d="M0,0,30,37.1v-18L60,56.3"/>
        </g>
        <g class="Doors">
            <rect y="56" width="60" height="4"/>
        </g>
        <g class="Direction" fill-opacity="0.9" style="display: none;">
            <polygon points="32.009 55.197 32.009 44.581 29 44.581 29 55.197 25.197 55.197 30.5 60 35.803 55.197 32.009 55.197" fill="#444444"/>
        </g> 
        <g class="Name" fill-opacity="0.9" style="display: none;">
            <text transform="translate(3 12)" font-size="12" font-family="Verdana, Sans-Serif">REF</text>
        </g>
        <desc>Width:60 Height:170 Depth:60 Elevation:0</desc>
    </g><g transform="matrix(1,0,0,1,1249.4398,658.7863)" class="FixedFurniture BaseCabinet" fill="#ffffff" stroke="#000000" style="fill-opacity: 1; stroke-opacity: 1;"><desc>Width:60 Height:90 Depth:60 Elevation:0</desc><g class="BoundaryPolygon"><polygon points="0.00,0.00 -199.91,0.00 -199.91,-95.13 -260.21,-95.13 -260.21,30.98 -199.91,30.98 -199.91,60.17 0.00,60.30 "/></g></g><g class="FixedFurniture DoubleSink" fill="#ffffff" stroke="#000000" transform="matrix(0,-1,1,0,989.2298,660.6137)" style="fill-opacity: 1; stroke-opacity: 1;">
        <g class="BoundaryPolygon" fill="none" stroke="none">
            <polygon points="0,0 70,0 70,60 0,60"/>
        </g>
        <g class="InnerPolygonLeft">
            <polygon points="5 9.9 33.5 9.9 33.5 54.9 5 54.9"/>
        </g>
        <g class="InnerPolygonRight">
            <polygon points="36.5 10 65 10 65 55 36.5 55"/>
        </g>
        <g class="OuterDrain" stroke-width="0.8">
            <circle cx="19.7" cy="32.5" r="3.5"/>
            <circle cx="50.2" cy="32.5" r="3.5"/>
        </g>
        <g class="InnerDrain" stroke-width="0.8">
            <circle cx="19.7" cy="32.5" r="2"/>
            <circle cx="50.2" cy="32.5" r="2"/>
        </g>
        <g class="Faucet">
            <polygon points="32 4.9 38 4.9 38 18.9 32 18.9"/>
        </g>
        <g class="Direction" fill-opacity="0.9" style="display: none;">
            <polygon points="36.509 54.697 36.509 44.081 33.5 44.081 33.5 54.697 29.697 54.697 35 60 40.303 54.697 36.509 54.697" fill="#444444"/>
        </g> 
        <g class="Name" fill-opacity="0.9" style="display: none;">
            <text transform="translate(3 12)" font-size="12" font-family="Verdana, Sans-Serif">DSINK</text>
        </g>
        <desc>Width:70 Height:90 Depth:60 Elevation:0</desc>
    </g><g class="FixedFurniture ElectricalAppliance IntegratedStove" fill="#ffffff" stroke="#000000" transform="matrix(-1,0,0,-1,1109.5494,718.7863)" style="fill-opacity: 1; stroke-opacity: 1;">
        <g class="BoundaryPolygon" fill="none" stroke="none">
            <polygon points="0 0 60 0 60 60 0 60"/>
        </g>
        <g class="InnerPolygon">
            <polygon points="2,2 58,2 58,58 2,58"/>
        </g>
        <g class="OuterCircle">
            <circle cx="16" cy="16" r="8"/>
            <circle cx="44" cy="16" r="8"/>
            <circle cx="16" cy="44" r="8"/>
            <circle cx="44" cy="44" r="8"/>
        </g>
        <g class="Direction" fill-opacity="0.9" style="display: none;">
            <polygon points="32.009 55.197 32.009 44.581 29 44.581 29 55.197 25.197 55.197 30.5 60 35.803 55.197 32.009 55.197" fill="#444444"/>
        </g> 
        <g class="Name" fill-opacity="0.9" style="display: none;">
            <text transform="translate(3 12)" font-size="12" font-family="Verdana, Sans-Serif">INT_STOVE</text>
        </g>
        <desc>Width:60 Height:90 Depth:30 Elevation:0</desc>
    </g><g class="FixedFurniture WallCabinet" fill="#ffffff" stroke="#000000" transform="matrix(0,-1,1,0,989.7162,689.4463)" style="fill-opacity: 0.7; stroke-opacity: 1;">	
        <g class="BoundaryPolygon">
            <polygon points="0.00,0.00 125.79,0.00 125.79,30.00 0.00,30.00 "/>
        </g>
        <g class="Direction" fill-opacity="0.9" style="display: none;">
            <polygon points="67.11,25.20 67.11,14.58 64.10,14.58 64.10,25.20 60.29,25.20 65.60,30.00 70.90,25.20 67.11,25.20 " fill="#444444"/>
        </g> 
        <g class="Name" fill-opacity="0.9" style="display: none;">
            <text transform="translate(3 12)" font-size="12" font-family="Verdana, Sans-Serif">UC</text>
        </g>
        <desc>Width:60 Height:60 Depth:30 Elevation:140</desc>
    </g><g class="FixedFurniture WallCabinet" fill="#ffffff" stroke="#000000" transform="matrix(-1,0,0,-1,1248.8698,719.0212)" style="fill-opacity: 0.7; stroke-opacity: 1;">	
        <g class="BoundaryPolygon">
            <polygon points="0.00,0.00 199.34,0.00 199.34,30.00 0.00,30.00 "/>
        </g>
        <g class="Direction" fill-opacity="0.9" style="display: none;">
            <polygon points="106.35,25.20 106.35,14.58 103.34,14.58 103.34,25.20 99.53,25.20 104.84,30.00 110.14,25.20 106.35,25.20 " fill="#444444"/>
        </g> 
        <g class="Name" fill-opacity="0.9" style="display: none;">
            <text transform="translate(3 12)" font-size="12" font-family="Verdana, Sans-Serif">UC</text>
        </g>
        <desc>Width:60 Height:60 Depth:30 Elevation:140</desc>
    </g></g></g></g></svg>
