<?xml version="1.0"?>
<svg xmlns="http://www.w3.org/2000/svg" xmlns:xlink="http://www.w3.org/1999/xlink" height="1378.9799499511719" version="1.1" width="934.8700180053711" id="temp" viewBox="0 0 934.8700180053711 1378.9799499511719"><defs/><g id="Model" class="Model v1-1"><g class="Floor"><g id="Floor-1" class="Floorplan Floor-1"><g id="465db998-b619-497f-99f4-834f6fcae427" fill="#ffffff" stroke="#ffffff" style="fill-opacity: 1; stroke-opacity: 1; stroke-width: 0.2;" class="Space UserDefined"><polygon points="889.29,880.90 601.68,880.90 604.63,877.78 604.63,636.47 792.55,636.47 792.55,632.56 889.29,632.56 "/><g transform="matrix(1,0,0,1,604.6294,636.4669)" class="Dimension"><g transform="matrix(1,0,0,1,0,0)" style="display: none;" class="Visual"><g id="mark1" fill="#000000" stroke="none" transform="matrix(1,0,0,1,140.8563,0)" style="fill-opacity: 1; pointer-events: visible;" class="DimensionMark"><polygon points="-5,5,0,0,5,5"/></g><g id="mark2" fill="#000000" stroke="none" transform="matrix(1,0,0,1,284.6581,120.2652)" style="fill-opacity: 1; pointer-events: visible;" class="DimensionMark"><polygon points="-5,-5,0,0,-5,5"/></g><g id="mark3" fill="#000000" stroke="none" transform="matrix(1,0,0,1,140.8563,244.4326)" style="fill-opacity: 1; pointer-events: visible;" class="DimensionMark"><polygon points="-5,-5,0,0,5,-5"/></g><g id="mark4" fill="#000000" stroke="none" transform="matrix(1,0,0,1,0,120.2652)" style="fill-opacity: 1; pointer-events: visible;" class="DimensionMark"><polygon points="5,5,0,0,5,-5"/></g></g><g transform="matrix(1,0,0,1,73.2929,126.7077)" class="SpaceDimensionsLabel" style="display: block;"><g id="NameLabel" style="display: block;" class="TextLabel NameLabel"><text x="0" y="0em" fill="#000000" stroke="none" style="font-family: Verdana; font-size: 33px; fill-opacity: 1; cursor: default;">MH/TY&#xD6;H</text></g><g id="DimensionMeasureLabel" transform="matrix(1,0,0,1,-60.4922,79.8437)" style="display: none;" class="TextLabel DimensionMeasureLabel"><text x="52.6640625" y="-1.2em" fill="#000000" stroke="none" style="font-family: Verdana; font-size: 33px; fill-opacity: 1; cursor: default;">9'4" x 8'0"</text><text x="0" y="0em" fill="#000000" stroke="none" style="font-family: Verdana; font-size: 33px; fill-opacity: 1; cursor: default;">2.85 m x 2.44 m</text></g></g></g></g><g id="94c059e2-eb1c-44e7-ba25-ba14b7325009" fill="#ffffff" stroke="#ffffff" style="fill-opacity: 1; stroke-opacity: 1; stroke-width: 0.2;" class="Space Kitchen Open"><polygon points="889.29,632.56 792.55,632.56 792.55,622.55 592.87,622.55 592.87,723.25 259.45,723.25 263.37,719.41 263.37,349.26 130.24,349.26 129.83,128.81 889.29,128.81 "/><g transform="matrix(1,0,0,1,130.2397,128.8108)" class="Dimension"><g transform="matrix(1,0,0,1,0,0)" style="display: none;" class="Visual"><g id="mark1" fill="#000000" stroke="none" transform="matrix(1,0,0,1,379.3187,0)" style="fill-opacity: 1; pointer-events: visible;" class="DimensionMark"><polygon points="-5,5,0,0,5,5"/></g><g id="mark2" fill="#000000" stroke="none" transform="matrix(1,0,0,1,759.0478,220.4469)" style="fill-opacity: 1; pointer-events: visible;" class="DimensionMark"><polygon points="-5,-5,0,0,-5,5"/></g><g id="mark3" fill="#000000" stroke="none" transform="matrix(1,0,0,1,379.3187,594.4435)" style="fill-opacity: 1; pointer-events: visible;" class="DimensionMark"><polygon points="-5,-5,0,0,5,-5"/></g><g id="mark4" fill="#000000" stroke="none" transform="matrix(1,0,0,1,0,220.4469)" style="fill-opacity: 1; pointer-events: visible;" class="DimensionMark"><polygon points="5,5,0,0,5,-5"/></g></g><g transform="matrix(1,0,0,1,389.3471,264.7833)" class="SpaceDimensionsLabel" style="display: block;"><g id="NameLabel" style="display: block;" class="TextLabel NameLabel"><text x="0" y="0em" fill="#000000" stroke="none" style="font-family: Verdana; font-size: 33px; fill-opacity: 1; cursor: default;">TUPAK</text></g><g id="DimensionMeasureLabel" transform="matrix(1,0,0,1,-86.0391,79.2344)" style="display: none;" class="TextLabel DimensionMeasureLabel"><text x="21.203125" y="-1.2em" fill="#000000" stroke="none" style="font-family: Verdana; font-size: 33px; fill-opacity: 1; cursor: default;">24'11" x 19'6"</text><text x="0" y="0em" fill="#000000" stroke="none" style="font-family: Verdana; font-size: 33px; fill-opacity: 1; cursor: default;">7.59 m x 5.94 m</text></g></g></g></g><g id="d4a82cce-f604-4bd8-a47a-2ee5c3d45205" fill="#ffffff" stroke="#ffffff" style="fill-opacity: 1; stroke-opacity: 1; stroke-width: 0.2;" class="Space Undefined"><polygon points="592.87,874.71 593.00,875.00 539.00,940.00 444.00,940.00 443.51,940.37 289.26,1096.34 289.26,1281.46 131.24,1281.46 131.24,1096.34 130.24,784.83 200.45,784.83 259.45,723.25 592.87,723.25 "/><g transform="matrix(1,0,0,1,130.7378,723.2543)" class="Dimension"><g transform="matrix(1,0,0,1,0,0)" style="display: none;" class="Visual"><g id="mark1" fill="#000000" stroke="none" transform="matrix(1,0,0,1,158.5213,0)" style="fill-opacity: 1; pointer-events: visible;" class="DimensionMark"><polygon points="-5,5,0,0,5,5"/></g><g id="mark2" fill="#000000" stroke="none" transform="matrix(1,0,0,1,408.2622,216.7441)" style="fill-opacity: 1; pointer-events: visible;" class="DimensionMark"><polygon points="-5,-5,0,0,-5,5"/></g><g id="mark3" fill="#000000" stroke="none" transform="matrix(1,0,0,1,158.5213,558.2021)" style="fill-opacity: 1; pointer-events: visible;" class="DimensionMark"><polygon points="-5,-5,0,0,5,-5"/></g><g id="mark4" fill="#000000" stroke="none" transform="matrix(1,0,0,1,0,216.7441)" style="fill-opacity: 1; pointer-events: visible;" class="DimensionMark"><polygon points="5,5,0,0,5,-5"/></g></g><g transform="matrix(1,0,0,1,143.2107,185.2848)" class="SpaceDimensionsLabel"><g id="NameLabel" style="display: block;" class="TextLabel NameLabel"><text x="0" y="0em" fill="#000000" stroke="none" style="font-family: Verdana; font-size: 33px; fill-opacity: 1; cursor: default;">UNDEFINED</text></g><g id="DimensionMeasureLabel" transform="matrix(1,0,0,1,-40.5156,79.5)" style="display: none;" class="TextLabel DimensionMeasureLabel"><text x="31.6875" y="-1.2em" fill="#000000" stroke="none" style="font-family: Verdana; font-size: 33px; fill-opacity: 1; cursor: default;">13'5" x 18'4"</text><text x="0" y="0em" fill="#000000" stroke="none" style="font-family: Verdana; font-size: 33px; fill-opacity: 1; cursor: default;">4.08 m x 5.58 m</text></g></g></g></g><g id="6ba8e998-ad72-4d60-9e6a-39394bdad6ce" fill="#ffffff" stroke="#ffffff" style="fill-opacity: 1; stroke-opacity: 1; stroke-width: 0.2;" class="Space Bedroom"><polygon points="889.29,1141.08 540.68,1141.08 540.68,954.59 592.87,891.90 889.29,891.90 "/><g transform="matrix(1,0,0,1,540.6839,891.8996)" class="Dimension"><g transform="matrix(1,0,0,1,0,0)" style="display: none;" class="Visual"><g id="mark1" fill="#000000" stroke="none" transform="matrix(1,0,0,1,174.3018,0)" style="fill-opacity: 1; pointer-events: visible;" class="DimensionMark"><polygon points="-5,5,0,0,5,5"/></g><g id="mark2" fill="#000000" stroke="none" transform="matrix(1,0,0,1,348.6036,124.5921)" style="fill-opacity: 1; pointer-events: visible;" class="DimensionMark"><polygon points="-5,-5,0,0,-5,5"/></g><g id="mark3" fill="#000000" stroke="none" transform="matrix(1,0,0,1,174.3018,249.1841)" style="fill-opacity: 1; pointer-events: visible;" class="DimensionMark"><polygon points="-5,-5,0,0,5,-5"/></g><g id="mark4" fill="#000000" stroke="none" transform="matrix(1,0,0,1,0,124.5921)" style="fill-opacity: 1; pointer-events: visible;" class="DimensionMark"><polygon points="5,5,0,0,5,-5"/></g></g><g transform="matrix(1,0,0,1,161.1979,144.6995)" class="SpaceDimensionsLabel" style="display: block;"><g id="NameLabel" style="display: block;" class="TextLabel NameLabel"><text x="0" y="0em" fill="#000000" stroke="none" style="font-family: Verdana; font-size: 33px; fill-opacity: 1; cursor: default;">MH</text></g><g id="DimensionMeasureLabel" transform="matrix(1,0,0,1,-113.6797,80.2656)" style="display: none;" class="TextLabel DimensionMeasureLabel"><text x="42.1796875" y="-1.2em" fill="#000000" stroke="none" style="font-family: Verdana; font-size: 33px; fill-opacity: 1; cursor: default;">11'5" x 8'2"</text><text x="0" y="0em" fill="#000000" stroke="none" style="font-family: Verdana; font-size: 33px; fill-opacity: 1; cursor: default;">3.49 m x 2.49 m</text></g></g></g></g><g id="0acbe90f-1fff-4da0-a679-b9f5304e2f13" fill="#ffffff" stroke="#ffffff" style="fill-opacity: 1; stroke-opacity: 1; stroke-width: 0.2;" class="Space Bath"><polygon points="253.37,715.38 196.19,774.83 130.24,774.83 130.24,489.53 253.37,489.53 "/><g transform="matrix(1,0,0,1,130.2397,489.5295)" class="Dimension"><g transform="matrix(1,0,0,1,0,0)" style="display: none;" class="Visual"><g id="mark1" fill="#000000" stroke="none" transform="matrix(1,0,0,1,61.5674,0)" style="fill-opacity: 1; pointer-events: visible;" class="DimensionMark"><polygon points="-5,5,0,0,5,5"/></g><g id="mark2" fill="#000000" stroke="none" transform="matrix(1,0,0,1,123.1348,142.6494)" style="fill-opacity: 1; pointer-events: visible;" class="DimensionMark"><polygon points="-5,-5,0,0,-5,5"/></g><g id="mark3" fill="#000000" stroke="none" transform="matrix(1,0,0,1,61.5674,285.2987)" style="fill-opacity: 1; pointer-events: visible;" class="DimensionMark"><polygon points="-5,-5,0,0,5,-5"/></g><g id="mark4" fill="#000000" stroke="none" transform="matrix(1,0,0,1,0,142.6494)" style="fill-opacity: 1; pointer-events: visible;" class="DimensionMark"><polygon points="5,5,0,0,5,-5"/></g></g><g transform="matrix(1,0,0,1,50.4586,114.6902)" class="SpaceDimensionsLabel" style="display: block;"><g id="NameLabel" style="display: block;" class="TextLabel NameLabel"><text x="0" y="0em" fill="#000000" stroke="none" style="font-family: Verdana; font-size: 33px; fill-opacity: 1; cursor: default;">WC</text></g><g id="DimensionMeasureLabel" transform="matrix(1,0,0,1,-112.1719,80.1093)" style="display: none;" class="TextLabel DimensionMeasureLabel"><text x="52.671875" y="-1.2em" fill="#000000" stroke="none" style="font-family: Verdana; font-size: 33px; fill-opacity: 1; cursor: default;">4'0" x 9'4"</text><text x="0" y="0em" fill="#000000" stroke="none" style="font-family: Verdana; font-size: 33px; fill-opacity: 1; cursor: default;">1.23 m x 2.85 m</text></g></g></g></g><g id="69ba5d8f-97fa-4a7f-8622-970a0ba63eb8" fill="#ffffff" stroke="#ffffff" style="fill-opacity: 1; stroke-opacity: 1; stroke-width: 0.2;" class="Space Closet WalkIn"><polygon points="529.68,1141.08 300.26,1141.08 300.26,1100.86 448.14,951.33 529.68,950.62 "/><g transform="matrix(1,0,0,1,327.7606,967.5513)" class="Dimension"><g transform="matrix(1,0,0,1,0,0)" style="display: none;" class="Visual"><g id="mark1" fill="#000000" stroke="none" transform="matrix(1,0,0,1,104.335,0)" style="fill-opacity: 1; pointer-events: visible;" class="DimensionMark"><polygon points="-5,5,0,0,5,5"/></g><g id="mark2" fill="#000000" stroke="none" transform="matrix(1,0,0,1,201.9233,105.497)" style="fill-opacity: 1; pointer-events: visible;" class="DimensionMark"><polygon points="-5,-5,0,0,-5,5"/></g><g id="mark3" fill="#000000" stroke="none" transform="matrix(1,0,0,1,104.335,173.5324)" style="fill-opacity: 1; pointer-events: visible;" class="DimensionMark"><polygon points="-5,-5,0,0,5,-5"/></g><g id="mark4" fill="#000000" stroke="none" transform="matrix(1,0,0,1,0,105.497)" style="fill-opacity: 1; pointer-events: visible;" class="DimensionMark"><polygon points="5,5,0,0,5,-5"/></g></g><g transform="matrix(1,0,0,1,72.2632,86.9332)" class="SpaceDimensionsLabel" style="display: block;"><g id="NameLabel" style="display: block;" class="TextLabel NameLabel"><text x="0" y="0em" fill="#000000" stroke="none" style="font-family: Verdana; font-size: 33px; fill-opacity: 1; cursor: default;">VH</text></g><g id="DimensionMeasureLabel" transform="matrix(1,0,0,1,-116.3281,79.7969)" style="display: none;" class="TextLabel DimensionMeasureLabel"><text x="52.671875" y="-1.2em" fill="#000000" stroke="none" style="font-family: Verdana; font-size: 33px; fill-opacity: 1; cursor: default;">6'7" x 5'8"</text><text x="0" y="0em" fill="#000000" stroke="none" style="font-family: Verdana; font-size: 33px; fill-opacity: 1; cursor: default;">2.02 m x 1.74 m</text></g></g></g></g><g id="b4c1ec4a-1aa2-4f9e-891a-d11d577cddbc" fill="#ffffff" stroke="#ffffff" style="fill-opacity: 1; stroke-opacity: 1; stroke-width: 0.2;" class="Space Undefined"><polygon points="253.37,479.53 130.24,479.53 130.24,359.26 253.37,359.26 "/><g transform="matrix(1,0,0,1,130.2397,359.2577)" class="Dimension"><g transform="matrix(1,0,0,1,0,0)" style="display: none;" class="Visual"><g id="mark1" fill="#000000" stroke="none" transform="matrix(1,0,0,1,61.5674,0)" style="fill-opacity: 1; pointer-events: visible;" class="DimensionMark"><polygon points="-5,5,0,0,5,5"/></g><g id="mark2" fill="#000000" stroke="none" transform="matrix(1,0,0,1,123.1348,60.1359)" style="fill-opacity: 1; pointer-events: visible;" class="DimensionMark"><polygon points="-5,-5,0,0,-5,5"/></g><g id="mark3" fill="#000000" stroke="none" transform="matrix(1,0,0,1,61.5674,120.2718)" style="fill-opacity: 1; pointer-events: visible;" class="DimensionMark"><polygon points="-5,-5,0,0,5,-5"/></g><g id="mark4" fill="#000000" stroke="none" transform="matrix(1,0,0,1,0,60.1359)" style="fill-opacity: 1; pointer-events: visible;" class="DimensionMark"><polygon points="5,5,0,0,5,-5"/></g></g><g transform="matrix(1,0,0,1,61.5674,60.1359)" class="SpaceDimensionsLabel"><g id="NameLabel" style="display: block;" class="TextLabel NameLabel"><text x="0" y="0em" fill="#000000" stroke="none" style="font-family: Verdana; font-size: 33px; fill-opacity: 1; cursor: default;">UNDEFINED</text></g><g id="DimensionMeasureLabel" transform="matrix(1,0,0,1,-40.5235,79.6406)" style="display: none;" class="TextLabel DimensionMeasureLabel"><text x="42.1796875" y="-1.2em" fill="#000000" stroke="none" style="font-family: Verdana; font-size: 33px; fill-opacity: 1; cursor: default;">4'0" x 3'11"</text><text x="0" y="0em" fill="#000000" stroke="none" style="font-family: Verdana; font-size: 33px; fill-opacity: 1; cursor: default;">1.23 m x 1.20 m</text></g></g></g></g><g id="Wall" fill="#000000" stroke="#000000" style="fill-opacity: 1; stroke-opacity: 1; stroke-width: 0.2;" class="Wall External"><polygon points="129.83,128.81 889.29,128.81 934.87,82.28 97.10,82.28 "/><g id="Door" fill="#ffffff" stroke="#000000" style="fill-opacity: 1; stroke-width: 1; stroke-opacity: 1;" class="Door Swing Beside"><polygon points="135.81,128.81 213.63,128.81 213.63,82.28 135.81,82.28 "/><g id="Threshold" class="Threshold"><polygon points="135.81,128.81 213.63,128.81 213.63,82.28 135.81,82.28 "/></g><g id="Panel" fill="none" style="" class="Panel Right Negative"><g id="PanelArea" fill="none" stroke="none" style="" class="PanelArea"><polygon points="135.81,128.81 213.63,128.81 213.63,82.28 135.81,82.28 "/></g><path d="M213.63,128.81 q0.00,77.82 -77.82,77.82 l0.00,-77.82Z"/></g></g><g id="Window" fill="#f0f0ff" stroke="#000000" style="fill-opacity: 1; stroke-width: 1; stroke-opacity: 1;" class="Window Regular"><polygon points="357.42,128.81 530.98,128.81 530.98,82.28 357.42,82.28 "/><g id="Glass" class="Glass"><polygon points="357.42,128.81 530.98,128.81 530.98,82.28 357.42,82.28 "/></g><g id="Panel" class="Panel"><line x1="364.9162327180522" x2="523.4773855833847" y1="105.54393383632362" y2="105.54393383632356"/><line x1="364.9162327180522" x2="364.9162327180522" y1="128.8107867660347" y2="82.27708090661253"/><line x1="523.4773855833847" x2="523.4773855833847" y1="128.81078676603465" y2="82.27708090661247"/></g></g><g id="Window" fill="#f0f0ff" stroke="#000000" style="fill-opacity: 1; stroke-width: 1; stroke-opacity: 1;" class="Window Regular"><polygon points="224.90,128.81 306.54,128.81 306.54,82.28 224.90,82.28 "/><g id="Glass" class="Glass"><polygon points="224.90,128.81 306.54,128.81 306.54,82.28 224.90,82.28 "/></g><g id="Panel" class="Panel"><line x1="232.39779520198442" x2="299.03843878544745" y1="105.54393383632362" y2="105.54393383632362"/><line x1="232.39779520198442" x2="232.39779520198442" y1="128.8107867660347" y2="82.27708090661253"/><line x1="299.03843878544745" x2="299.03843878544745" y1="128.8107867660347" y2="82.27708090661253"/></g></g><g id="Window" fill="#f0f0ff" stroke="#000000" style="fill-opacity: 1; stroke-width: 1; stroke-opacity: 1;" class="Window Regular"><polygon points="578.72,128.81 757.28,128.81 757.28,82.28 578.72,82.28 "/><g id="Glass" class="Glass"><polygon points="578.72,128.81 757.28,128.81 757.28,82.28 578.72,82.28 "/></g><g id="Panel" class="Panel"><line x1="586.2189924183192" x2="749.7793474696845" y1="105.54393383632356" y2="105.54393383632353"/><line x1="586.2189924183192" x2="586.2189924183192" y1="128.81078676603465" y2="82.27708090661248"/><line x1="749.7793474696845" x2="749.7793474696845" y1="128.81078676603462" y2="82.27708090661245"/></g></g></g><g id="Wall" fill="#000000" stroke="#000000" style="fill-opacity: 1; stroke-opacity: 1; stroke-width: 0.2;" class="Wall External"><polygon points="889.29,128.81 889.29,1141.08 934.87,1160.08 934.87,82.28 "/><g id="Window" fill="#f0f0ff" stroke="#000000" style="fill-opacity: 1; stroke-width: 1; stroke-opacity: 1;" class="Window Regular"><polygon points="889.29,445.96 889.29,626.92 934.87,626.92 934.87,445.96 "/><g id="Glass" class="Glass"><polygon points="889.29,445.96 889.29,626.92 934.87,626.92 934.87,445.96 "/></g><g id="Panel" class="Panel"><line x1="912.0774328554278" x2="912.0774328554278" y1="453.4554725444009" y2="619.4241586878813"/><line x1="889.2875335049372" x2="934.8673322059185" y1="453.4554725444009" y2="453.4554725444009"/><line x1="889.2875335049372" x2="934.8673322059185" y1="619.4241586878813" y2="619.4241586878813"/></g></g><g id="Window" fill="#f0f0ff" stroke="#000000" style="fill-opacity: 1; stroke-width: 1; stroke-opacity: 1;" class="Window Regular"><polygon points="889.29,701.29 889.29,876.33 934.87,876.33 934.87,701.29 "/><g id="Glass" class="Glass"><polygon points="889.29,701.29 889.29,876.33 934.87,876.33 934.87,701.29 "/></g><g id="Panel" class="Panel"><line x1="912.0774328554278" x2="912.0774328554278" y1="708.7858397790088" y2="868.8319143759754"/><line x1="889.2875335049372" x2="934.8673322059185" y1="708.7858397790088" y2="708.7858397790088"/><line x1="889.2875335049372" x2="934.8673322059185" y1="868.8319143759754" y2="868.8319143759754"/></g></g><g id="Window" fill="#f0f0ff" stroke="#000000" style="fill-opacity: 1; stroke-width: 1; stroke-opacity: 1;" class="Window Regular"><polygon points="889.29,966.49 889.29,1129.03 934.87,1129.03 934.87,966.49 "/><g id="Glass" class="Glass"><polygon points="889.29,966.49 889.29,1129.03 934.87,1129.03 934.87,966.49 "/></g><g id="Panel" class="Panel"><line x1="912.0774328554278" x2="912.0774328554278" y1="973.9872760329449" y2="1121.530059587271"/><line x1="889.2875335049372" x2="934.8673322059185" y1="973.9872760329449" y2="973.9872760329449"/><line x1="889.2875335049372" x2="934.8673322059185" y1="1121.530059587271" y2="1121.530059587271"/></g></g></g><g id="Wall" fill="#000000" stroke="#000000" style="fill-opacity: 1; stroke-opacity: 1; stroke-width: 0.2;" class="Wall External"><polygon points="889.29,1141.08 289.26,1141.08 310.21,1160.08 934.87,1160.08 "/></g><g id="Wall" fill="#000000" stroke="#000000" style="fill-opacity: 1; stroke-opacity: 1; stroke-width: 0.2;" class="Wall External"><polygon points="289.26,1141.08 289.26,1281.46 310.21,1298.69 310.21,1160.08 "/></g><g id="Wall" fill="#000000" stroke="#000000" style="fill-opacity: 1; stroke-opacity: 1; stroke-width: 0.2;" class="Wall External"><polygon points="289.26,1281.46 131.24,1281.46 98.59,1298.69 310.21,1298.69 "/><g id="Door" fill="#ffffff" stroke="#000000" style="fill-opacity: 1; stroke-width: 1; stroke-opacity: 1;" class="Door Swing Beside"><polygon points="281.56,1281.46 201.27,1281.46 201.27,1298.69 281.56,1298.69 "/><g id="Threshold" class="Threshold"><polygon points="281.56,1281.46 201.27,1281.46 201.27,1298.69 281.56,1298.69 "/></g><g id="Panel" fill="none" style="" class="Panel Left Positive"><g id="PanelArea" fill="none" stroke="none" style="" class="PanelArea"><polygon points="281.56,1281.46 201.27,1281.46 201.27,1298.69 281.56,1298.69 "/></g><path d="M201.27,1298.69 q0.00,80.29 80.29,80.29 l0.00,-80.29Z"/></g></g></g><g id="Wall" fill="#000000" stroke="#000000" style="fill-opacity: 1; stroke-opacity: 1; stroke-width: 0.2;" class="Wall External"><polygon points="131.24,1281.46 129.83,128.81 97.10,82.28 98.59,1298.69 "/></g><g id="Wall" fill="#000000" stroke="#000000" style="fill-opacity: 1; stroke-opacity: 1; stroke-width: 0.2;" class="Wall"><polygon points="97.44,359.26 253.37,359.26 263.37,349.26 97.44,349.26 "/></g><g id="Wall" fill="#000000" stroke="#000000" style="fill-opacity: 1; stroke-opacity: 1; stroke-width: 0.2;" class="Wall"><polygon points="253.37,359.26 253.37,715.38 263.37,719.41 263.37,349.26 "/><g id="Door" fill="#ffffff" stroke="#000000" style="fill-opacity: 1; stroke-width: 1; stroke-opacity: 1;" class="Door Swing Beside"><polygon points="253.37,579.32 253.37,660.46 263.37,660.46 263.37,579.32 "/><g id="Threshold" class="Threshold"><polygon points="253.37,579.32 253.37,660.46 263.37,660.46 263.37,579.32 "/></g><g id="Panel" fill="none" style="" class="Panel Left Positive"><g id="PanelArea" fill="none" stroke="none" style="" class="PanelArea"><polygon points="253.37,579.32 253.37,660.46 263.37,660.46 263.37,579.32 "/></g><path d="M263.37,660.46 q81.14,0.00 81.14,-81.14 l-81.14,0.00Z"/></g></g></g><g id="Wall" fill="#000000" stroke="#000000" style="fill-opacity: 1; stroke-opacity: 1; stroke-width: 0.2;" class="Wall"><polygon points="97.96,784.83 200.45,784.83 196.19,774.83 97.96,774.83 "/></g><g id="Wall" fill="#000000" stroke="#000000" style="fill-opacity: 1; stroke-opacity: 1; stroke-width: 0.2;" class="Wall"><polygon points="200.45,784.83 263.37,719.41 253.37,715.38 196.19,774.83 "/></g><g id="Wall" fill="#000000" stroke="#000000" style="fill-opacity: 1; stroke-opacity: 1; stroke-width: 0.2;" class="Wall"><polygon points="97.59,489.53 263.37,489.53 263.37,479.53 97.59,479.53 "/><g id="Door" fill="#ffffff" stroke="#000000" style="fill-opacity: 1; stroke-width: 1; stroke-opacity: 1;" class="Door Swing Beside"><polygon points="178.12,489.53 248.75,489.53 248.75,479.53 178.12,479.53 "/><g id="Threshold" class="Threshold"><polygon points="178.12,489.53 248.75,489.53 248.75,479.53 178.12,479.53 "/></g><g id="Panel" fill="none" style="" class="Panel Left Negative"><g id="PanelArea" fill="none" stroke="none" style="" class="PanelArea"><polygon points="178.12,489.53 248.75,489.53 248.75,479.53 178.12,479.53 "/></g><path d="M178.12,489.53 q0.00,70.63 70.63,70.63 l0.00,-70.63Z"/></g></g></g><g id="Wall" fill="#000000" stroke="#000000" style="fill-opacity: 1; stroke-opacity: 1; stroke-width: 0.2;" class="Wall"><polygon points="792.55,636.47 604.63,636.47 592.87,622.55 792.55,622.55 "/></g><g id="Wall" fill="#000000" stroke="#000000" style="fill-opacity: 1; stroke-opacity: 1; stroke-width: 0.2;" class="Wall"><polygon points="289.26,1141.08 289.26,1096.34 300.26,1100.86 300.26,1141.08 "/></g><g id="Wall" fill="#000000" stroke="#000000" style="fill-opacity: 1; stroke-opacity: 1; stroke-width: 0.2;" class="Wall"><polygon points="289.26,1096.34 443.51,940.37 448.14,951.33 300.26,1100.86 "/><g id="Door" fill="#ffffff" stroke="#000000" style="fill-opacity: 1; stroke-width: 1; stroke-opacity: 1;" class="Door Swing Beside"><polygon points="365.49,1019.26 417.03,967.14 424.86,974.87 373.31,1026.99 "/><g id="Threshold" class="Threshold"><polygon points="365.49,1019.26 417.03,967.14 424.86,974.87 373.31,1026.99 "/></g><g id="Panel" fill="none" style="" class="Panel Left Negative"><g id="PanelArea" fill="none" stroke="none" style="" class="PanelArea"><polygon points="365.49,1019.26 417.03,967.14 424.86,974.87 373.31,1026.99 "/></g><path d="M365.49,1019.26 q-52.12,-51.55 -0.57,-103.67 l52.12,51.55Z"/></g></g></g><g id="Wall" fill="#000000" stroke="#000000" style="fill-opacity: 1; stroke-opacity: 1; stroke-width: 0.2;" class="Wall"><polygon points="529.68,950.62 529.68,1160.08 540.68,1160.08 540.68,939.52 "/></g><g id="Wall" fill="#000000" stroke="#000000" style="fill-opacity: 1; stroke-opacity: 1; stroke-width: 0.2;" class="Wall"><polygon points="604.63,636.47 604.63,877.78 592.87,874.71 592.87,622.55 "/></g><g id="Wall" fill="#000000" stroke="#000000" style="fill-opacity: 1; stroke-opacity: 1; stroke-width: 0.2;" class="Wall"><polygon points="592.87,880.90 934.87,880.90 934.87,891.90 592.87,891.90 "/></g><g id="Wall" fill="#000000" stroke="#000000" style="fill-opacity: 1; stroke-opacity: 1; stroke-width: 0.2;" class="Wall"><polygon points="540.68,954.59 604.63,877.78 592.87,874.71 529.68,950.62 "/><g id="Door" fill="#ffffff" stroke="#000000" style="fill-opacity: 1; stroke-width: 1; stroke-opacity: 1;" class="Door Swing Beside"><polygon points="548.92,944.70 591.98,892.98 583.52,885.94 540.47,937.66 "/><g id="Threshold" class="Threshold"><polygon points="548.92,944.70 591.98,892.98 583.52,885.94 540.47,937.66 "/></g><g id="Panel" fill="none" style="" class="Panel Right Negative"><g id="PanelArea" fill="none" stroke="none" style="" class="PanelArea"><polygon points="548.92,944.70 591.98,892.98 583.52,885.94 540.47,937.66 "/></g><path d="M591.98,892.98 q51.72,43.05 8.67,94.77 l-51.72,-43.05Z"/></g></g></g><g id="Wall" fill="#000000" stroke="#000000" style="fill-opacity: 1; stroke-opacity: 1; stroke-width: 0.2;" class="Wall"><polygon points="448.14,951.33 529.68,950.62 540.68,939.52 443.51,940.37 "/></g><g class="FixedFurniture Closet" fill="#ffffff" stroke="#000000" transform="matrix(0,-1,1,0,131.1907,1157.639)" style="fill-opacity: 1; stroke-opacity: 1;">
        <g class="BoundaryPolygon">
            <polygon points="0,0 60,0 60,60 0,60"/>
        </g>
        <g class="Direction" fill-opacity="0.9" style="display: none;">
            <polygon points="31.509 54.697 31.509 44.081 28.5 44.081 28.5 54.697 24.697 54.697 30 60 35.303 54.697 31.509 54.697" fill="#444444"/>
        </g> 
        <g class="Name" fill-opacity="0.9" style="display: none;">
            <text transform="translate(3 12)" font-size="12" font-family="Verdana, Sans-Serif">CL</text>
        </g>
        <desc>Width:60 Height:200 Depth:60 Elevation:0</desc>
     </g><g class="FixedFurniture CoatCloset" fill="#ffffff" stroke="#000000" transform="matrix(0,-1,1,0,131.3347,1278.202)" style="fill-opacity: 1; stroke-opacity: 1;">
        <g class="BoundaryPolygon">
            <polygon points="0.00,0.00 120.56,0.00 120.56,60.00 0.00,60.00 "/>
        </g>
        <g class="Hanger" stroke="#9a9a9a" stroke-dasharray="5,5">
            <line x1="0" y1="30" x2="120.56294257171524" y2="30"/>
        </g>
        <g class="Direction" fill-opacity="0.9" style="display: none;">
            <polygon points="63.31,54.70 63.31,44.08 60.30,44.08 60.30,54.70 56.50,54.70 61.80,60.00 67.11,54.70 63.31,54.70 " fill="#444444"/>
        </g> 
        <g class="Name" fill-opacity="0.9" style="display: none;">
            <text transform="translate(3 12)" font-size="12" font-family="Verdana, Sans-Serif">CWH</text>
        </g>
        <desc>Width:60 Height:200 Depth:60 Elevation:0</desc>
     </g><g transform="matrix(1,0,0,1,529.6839,950.6158)" class="FixedFurniture Closet" fill="#ffffff" stroke="#000000" style="fill-opacity: 1; stroke-opacity: 1;"><desc>Width:120 Height:200 Depth:60 Elevation:0</desc><g class="BoundaryPolygon"><polygon points="0.00,0.00 -60.25,0.00 -60.25,131.17 -210.67,131.17 -229.42,150.24 -229.42,190.47 -0.01,190.47 0.00,0.00 "/></g></g><g class="FixedFurniture Shower" fill="#ffffff" stroke="#000000" transform="matrix(0,-1,1,0,130.5576,739.9982)" style="fill-opacity: 1; stroke-opacity: 1;"> 
	    <g class="BoundaryPolygon" fill="none" stroke="none">
            <polygon points="0,0 32,0 32,19 0,19"/>
        </g>
        <g class="InnerPolygon"> 
			<rect x="3.7" y="0.5" width="11.2" height="6.1"/>
			<rect x="17.6" y="0.5" width="11.2" height="6.1"/>
			<rect x="28.7" y="0.5" width="3.4" height="6.1"/>
			<rect x="0.5" y="0.5" width="3.2" height="6.1"/>
			<path d="M14.9,8.5c0,1.5-0.4,3.3-1.6,5    c-0.4,0.6-1,1.1-1.1,1.7c-0.2,1.1,0.3,2.8,2.5,3.2c0.5,0.1,1.3,0.1,1.6,0.1h-0.1c0.3,0,1.1,0,1.6-0.1c2.2-0.4,2.7-2.1,2.5-3.2    c-0.1-0.6-0.7-1.1-1.1-1.7c-1.2-1.7-1.6-3.5-1.6-5"/>
			<path d="M12.2,15.3c0.1,0.2,1.6,1.9,4.2,1.9 c2.4-0.1,3.7-1.7,3.9-1.9"/>
			<path d="M14.9,0.5h2.7v8c-0.9,0-1.8,0-2.7,0l0,0 C14.9,5.9,14.9,3.2,14.9,0.5z"/>
		</g>
	    <g class="Indicator"> 
			<path d="M3.7,3.6C5,3.1,5.2,3,5.2,3 c0,1.1,0,0,0,1.1C5.2,4.1,5.1,4.1,3.7,3.6"/>
			<path d="M28.7,3.6 C27.4,3.1,27.2,3,27.2,3c0,1.1,0,0,0,1.1C27.2,4.1,27.3,4.1,28.7,3.6"/>	
		</g>
        <desc>Width:32 Height:97 Depth:19 Elevation:135</desc>
	</g><g class="FixedFurniture ShowerScreen" fill="#ffffff" stroke="#000000" transform="matrix(0,-1,0.8732,0,130.4956,674.546)" style="fill-opacity: 1; stroke-opacity: 1;">
        <g class="BoundaryPolygon">
            <polygon points="0,0 2.5,0 2.5,60 0,60"/>
        </g>
	    <g class="InnerPolygon" stroke-linejoin="round"> 
			<rect width="2.5" height="60"/>
	    </g> 
        <desc>Width:2.5 Height:180 Depth:60 Elevation:135</desc>
    </g><g class="FixedFurniture ShowerScreen" fill="#ffffff" stroke="#000000" transform="matrix(0,-1,0.8732,0,150.0467,670.0425)" style="fill-opacity: 1; stroke-opacity: 1;">
        <g class="BoundaryPolygon">
            <polygon points="0,0 2.5,0 2.5,60 0,60"/>
        </g>
	    <g class="InnerPolygon" stroke-linejoin="round"> 
			<rect width="2.5" height="60"/>
	    </g> 
        <desc>Width:2.5 Height:180 Depth:60 Elevation:135</desc>
    </g><g class="FixedFurniture Toilet" fill="#ffffff" stroke="#000000" transform="matrix(0,-1,1,0,130.4527,658.7439)" style="fill-opacity: 1; stroke-opacity: 1;">
	   <g class="BoundaryPolygon" fill="none" stroke="none"> 
            <polygon points="0,0 41,0 41,71 0,71"/>
		</g>
        <g class="InnerPolygon">
            <rect x="0.502" y="0.5" width="39.989" height="17.98"/>
            <path d="M40.491,44.237S41.619,70.5,20.907,70.5C-.523,70.5.6,44.237.6,44.237L.5,18.48H40.491Z"/>
            <rect x="17.318" y="7.975" width="6.357" height="3.03"/>
        </g>
        <desc>Width:41 Height:85 Depth:71 Elevation:0</desc>
    </g><g class="FixedFurniture BaseCabinet" fill="#ffffff" stroke="#000000" transform="matrix(0,-1,1,0,130.3457,611.0795)" style="fill-opacity: 1; stroke-opacity: 1;">
        <g class="BoundaryPolygon">
            <polygon points="0.00,0.00 121.55,0.00 121.55,34.49 0.00,34.49 "/>
        </g>
        <g class="Direction" fill-opacity="0.9" style="display: none;">
            <polygon points="64.85,31.73 64.85,21.12 61.84,21.12 61.84,31.73 58.03,31.73 63.34,36.53 68.64,31.73 64.85,31.73 " fill="#444444"/>
        </g> 
        <g class="Name" fill-opacity="0.9" style="display: none;">
            <text transform="translate(3 12)" font-size="12" font-family="Verdana, Sans-Serif">CB</text>
        </g>
        <desc>Width:60 Height:90 Depth:60 Elevation:0</desc>
    </g><g class="FixedFurniture Sink" fill="#ffffff" stroke="#000000" transform="matrix(0,-1,1,0,130.3457,611.0795)" style="fill-opacity: 1; stroke-opacity: 1;">
        <g class="BoundaryPolygon" fill="none" stroke="none">
            <polygon points="0.00,0.00 51.33,0.00 51.33,31.97 0.00,31.97 "/>
        </g>
        <g class="InnerPolygon">
            <polygon points="4.28,9.70 47.06,9.70 47.06,29.15 4.28,29.15 "/>
        </g>
        <g class="OuterDrain" stroke-width="0.8">
            <circle cx="25.666633356985173" cy="17.15841050922059" r="3.5"/>
        </g>
        <g class="InnerDrain" stroke-width="0.8">
            <circle cx="25.666633356985173" cy="17.15841050922059" r="2"/>
        </g>
        <g class="Faucet">
            <polygon points="23.10,2.66 29.10,2.66 29.10,16.66 23.10,16.66 "/>
        </g>
        <g class="Direction" fill-opacity="0.9" style="display: none;">
            <polygon points="27.39,29.41 27.39,18.80 24.38,18.80 24.38,29.41 20.57,29.41 25.88,34.22 31.18,29.41 27.39,29.41 " fill="#444444"/>
        </g> 
        <g class="Name" fill-opacity="0.9" style="display: none;">
            <text transform="translate(3 12)" font-size="12" font-family="Verdana, Sans-Serif">SINK</text>
        </g>
        <desc>Width:60 Height:90 Depth:60 Elevation:0</desc>
    </g><g id="FixedFurnitureSet" transform="matrix(1,0,0,1,130.1345,359.2577)" class="FixedFurnitureSet" fill="#ffffff" stroke="#000000" style="fill-opacity: 0.4; stroke-opacity: 0.4;"><g class="FixedFurniture SaunaBenchHigh" fill="#ffffff" stroke="#000000" transform="matrix(1,0,0,1,0,0)" style="fill-opacity: 1; stroke-opacity: 1;">
        <g class="BoundaryPolygon">
            <polygon points="0.00,0.00 123.24,0.00 123.24,43.82 0.00,43.82 "/>
        </g>
        <g class="Bench" stroke="#9a9a9a" stroke-width="0.5">
            <line x1="0" y1="2.9212143958007744" x2="123.23773809071324" y2="2.9212143958007744"/>
            <line x1="0" y1="5.842428791601549" x2="123.23773809071324" y2="5.842428791601549"/>
            <line x1="0" y1="8.763643187402325" x2="123.23773809071324" y2="8.763643187402325"/>
            <line x1="0" y1="11.684857583203097" x2="123.23773809071324" y2="11.684857583203097"/>
            <line x1="0" y1="14.606071979003877" x2="123.23773809071324" y2="14.606071979003877"/>
            <line x1="0" y1="17.52728637480465" x2="123.23773809071324" y2="17.52728637480465"/>
            <line x1="0" y1="20.448500770605413" x2="123.23773809071324" y2="20.448500770605413"/>
            <line x1="0" y1="23.369715166406195" x2="123.23773809071324" y2="23.369715166406195"/>
            <line x1="0" y1="26.29092956220697" x2="123.23773809071324" y2="26.29092956220697"/>
            <line x1="0" y1="29.212143958007754" x2="123.23773809071324" y2="29.212143958007754"/>
            <line x1="0" y1="32.13335835380853" x2="123.23773809071324" y2="32.13335835380853"/>
            <line x1="0" y1="35.0545727496093" x2="123.23773809071324" y2="35.0545727496093"/>
            <line x1="0" y1="37.97578714541005" x2="123.23773809071324" y2="37.97578714541005"/>
            <line x1="0" y1="40.89700154121083" x2="123.23773809071324" y2="40.89700154121083"/>
        </g>
        <g class="Direction" fill-opacity="0.9" style="display: none;">
            <polygon points="63.56,39.92 63.56,29.30 60.55,29.30 60.55,39.92 56.74,39.92 62.05,45.22 67.35,39.92 63.56,39.92 " fill="#444444"/>
        </g> 
        <g class="Name" fill-opacity="0.9" style="display: none;">
            <text transform="translate(3 12)" font-size="12" font-family="Verdana, Sans-Serif">SB_HIGH</text>
        </g>
        <desc>Width:185 Height:5 Depth:60 Elevation:105</desc>
    </g><g class="FixedFurniture SaunaBenchMid" fill="#ffffff" stroke="#000000" transform="matrix(1,0,0,1,0,43.8182)" style="fill-opacity: 1; stroke-opacity: 1;">
        <g class="BoundaryPolygon">
            <polygon points="0.00,0.00 123.24,0.00 123.24,29.21 0.00,29.21 "/>
        </g>
        <g class="Bench" stroke="#9a9a9a" stroke-width="0.5">
            <line x1="0" y1="2.9212143958007744" x2="123.23773809071324" y2="2.9212143958007744"/>
            <line x1="0" y1="5.842428791601549" x2="123.23773809071324" y2="5.842428791601549"/>
            <line x1="0" y1="8.763643187402325" x2="123.23773809071324" y2="8.763643187402325"/>
            <line x1="0" y1="11.684857583203097" x2="123.23773809071324" y2="11.684857583203097"/>
            <line x1="0" y1="14.606071979003877" x2="123.23773809071324" y2="14.606071979003877"/>
            <line x1="0" y1="17.52728637480465" x2="123.23773809071324" y2="17.52728637480465"/>
            <line x1="0" y1="20.448500770605413" x2="123.23773809071324" y2="20.448500770605413"/>
            <line x1="0" y1="23.369715166406195" x2="123.23773809071324" y2="23.369715166406195"/>
            <line x1="0" y1="26.29092956220697" x2="123.23773809071324" y2="26.29092956220697"/>
        </g>
        <g class="Direction" fill-opacity="0.9" style="display: none;">
            <polygon points="62.62,25.31 62.62,14.69 59.62,14.69 59.62,25.31 55.81,25.31 61.12,30.61 66.42,25.31 62.62,25.31 " fill="#444444"/>
        </g> 
        <g class="Name" fill-opacity="0.9" style="display: none;">
            <text transform="translate(3 12)" font-size="12" font-family="Verdana, Sans-Serif">SB_MID</text>
        </g>
        <desc>Width:185 Height:5 Depth:40 Elevation:60</desc>
    </g><g class="FixedFurniture SaunaBenchLow" transform="matrix(1,0,0,1,62.6181,73.0304)" fill="#ffffff" stroke="#000000" style="fill-opacity: 1; stroke-opacity: 1;">
        <g class="BoundaryPolygon" fill="#ffffff" stroke="#000000">
            <polygon points="0.00,0.00 60.62,0.00 60.62,29.21 0.00,29.21 "/>
        </g>
        <g class="Bench" stroke="#9a9a9a" stroke-width="0.5">
            <line x1="0" y1="2.9212143958007744" x2="60.619644141918386" y2="2.9212143958007744"/>
            <line x1="0" y1="5.842428791601549" x2="60.619644141918386" y2="5.842428791601549"/>
            <line x1="0" y1="8.763643187402325" x2="60.619644141918386" y2="8.763643187402325"/>
            <line x1="0" y1="11.684857583203097" x2="60.619644141918386" y2="11.684857583203097"/>
            <line x1="0" y1="14.606071979003877" x2="60.619644141918386" y2="14.606071979003877"/>
            <line x1="0" y1="17.52728637480465" x2="60.619644141918386" y2="17.52728637480465"/>
            <line x1="0" y1="20.448500770605413" x2="60.619644141918386" y2="20.448500770605413"/>
            <line x1="0" y1="23.369715166406195" x2="60.619644141918386" y2="23.369715166406195"/>
            <line x1="0" y1="26.29092956220697" x2="60.619644141918386" y2="26.29092956220697"/>
        </g>
        <g class="Direction" fill-opacity="0.9" style="display: none;">
            <polygon points="31.35,25.31 31.35,14.69 28.34,14.69 28.34,25.31 24.54,25.31 29.84,30.61 35.14,25.31 31.35,25.31 " fill="#444444"/>
        </g> 
        <g class="Name" fill-opacity="0.9" style="display: none;">
            <text transform="translate(3 12)" font-size="12" font-family="Verdana, Sans-Serif">SB_LOW</text>
        </g>
        <desc>Width:91 Height:5 Depth:40 Elevation:30</desc>
    </g></g><g class="FixedFurniture ElectricalAppliance SaunaStove" fill="#ffffff" stroke="#000000" transform="matrix(-0.6416,0,0,-0.8573,168.7361,479.5295)" style="fill-opacity: 1; stroke-opacity: 1;"> 
	   <g class="BoundaryPolygon"> 
		    <polygon points="0,0 60,0 60,35 0,35"/>
		</g>
	    <g class="electricitySign" fill="none">
		    <polyline points="0 35 39.7 17.5 21.4 17.5 60 0"/>
		</g>
        <g class="Direction" fill-opacity="0.9" style="display: none;">
            <polygon points="31.509 29.697 31.509 19.081 28.5 19.081 28.5 29.697 24.697 29.697 30 35 35.303 29.697 31.509 29.697" fill="#444444"/>
        </g> 
        <g class="Name" fill-opacity="0.9" style="display: none;">
            <text transform="translate(3 12)" font-size="12" font-family="Verdana, Sans-Serif">SS</text>
        </g>
        <desc>Width:60 Height:60 Depth:35 Elevation:20</desc>
	</g><g class="FixedFurniture ElectricalAppliance Refrigerator" fill="#ffffff" stroke="#000000" transform="matrix(-1,0,0,-1,190.0598,349.2577)" style="fill-opacity: 1; stroke-opacity: 1;">
        <g class="BoundaryPolygon">
            <polygon points="0,0 60,0 60,60 0,60"/>
        </g>
        <g class="electricitySign" fill="none">
            <path d="M0,0,30,37.1v-18L60,56.3"/>
        </g>
        <g class="Doors">
            <rect y="56" width="60" height="4"/>
        </g>
        <g class="Direction" fill-opacity="0.9" style="display: none;">
            <polygon points="32.009 55.197 32.009 44.581 29 44.581 29 55.197 25.197 55.197 30.5 60 35.803 55.197 32.009 55.197" fill="#444444"/>
        </g> 
        <g class="Name" fill-opacity="0.9" style="display: none;">
            <text transform="translate(3 12)" font-size="12" font-family="Verdana, Sans-Serif">REF</text>
        </g>
        <desc>Width:60 Height:170 Depth:60 Elevation:0</desc>
    </g><g transform="matrix(1,0,0,1,190.0598,289.2577)" class="FixedFurniture BaseCabinet" fill="#ffffff" stroke="#000000" style="fill-opacity: 1; stroke-opacity: 1;"><desc>Width:60 Height:90 Depth:60 Elevation:0</desc><g class="BoundaryPolygon"><polygon points="0.00,0.00 0.00,60.00 71.32,60.00 73.31,60.00 73.31,273.74 135.02,273.74 135.02,-0.25 0.00,0.00 "/></g></g><g id="Railing" fill="#ffffff" stroke="#000000" style="fill-opacity: 1; stroke-opacity: 1; stroke-width: 0.2;" class="Railing"><polygon points="118.65,82.28 118.65,55.78 126.49,62.41 126.49,82.28 " style="stroke-dasharray: 26.4978, 10.262, 27.7038;"/></g><g id="Railing" fill="#ffffff" stroke="#000000" style="fill-opacity: 1; stroke-opacity: 1; stroke-width: 0.2;" class="Railing"><polygon points="118.65,55.78 224.20,55.78 215.76,62.41 126.49,62.41 " style="stroke-dasharray: 105.543, 10.7294, 89.272, 10.262;"/></g><g id="Railing" fill="#ffffff" stroke="#000000" style="fill-opacity: 1; stroke-opacity: 1; stroke-width: 0.2;" class="Railing"><polygon points="224.20,55.78 224.20,82.28 215.76,82.28 215.76,62.41 " style="stroke-dasharray: 54.8046, 10.7294;"/></g><g fill="#0000ff" stroke="#0000ff" style="display: none;" class="SelectionControls"><g style="display: none;" class="rotateControl"><circle cx="619.03993986863" cy="330.3753367660346" r="5" style="stroke : none; fill-opacity: 0.5; cursor:crosshair"/></g><g style="display: none;" class="ResizeNControl"><circle cx="0" cy="0" r="5" style="stroke : none; fill-opacity: 0.5"/></g><g style="display: none;" class="ResizeNEControl"><circle cx="0" cy="0" r="5" style="stroke : none; fill-opacity: 0.5"/></g><g style="display: none;" class="ResizeEControl"><circle cx="0" cy="0" r="5" style="stroke : none; fill-opacity: 0.5"/></g><g style="display: none;" class="ResizeSEControl"><circle cx="0" cy="0" r="5" style="stroke : none; fill-opacity: 0.5"/></g><g style="display: none;" class="ResizeSControl"><circle cx="0" cy="0" r="5" style="stroke : none; fill-opacity: 0.5"/></g><g style="display: none;" class="ResizeSWControl"><circle cx="0" cy="0" r="5" style="stroke : none; fill-opacity: 0.5"/></g><g style="display: none;" class="ResizeWControl"><circle cx="0" cy="0" r="5" style="stroke : none; fill-opacity: 0.5"/></g><g style="display: none;" class="ResizeNWControl"><circle cx="0" cy="0" r="5" style="stroke : none; fill-opacity: 0.5"/></g><g style="display: none;" class="removeControl"><polygon style="stroke : none; fill-opacity: 0.1" points="519.59,360.38 718.49,360.38 718.49,400.00 519.59,400.00 "/></g><g style="display: none;" class="copyPasteControl"><polygon style="stroke : none; fill-opacity: 0.1"/></g><g style="display: none;" class="translateControl"><polygon style="stroke : none; fill-opacity: 0.1; cursor:move" points="519.59,360.38 718.49,360.38 718.49,400.00 519.59,400.00 "/></g></g><g fill="#0000ff" stroke="#0000ff" style="display: none;" class="SelectionControls"><polygon fill="none" stroke="#0000ff" style="" points="130.24,128.81 889.70,128.81 889.70,723.25 130.24,723.25 "/><g style="display: none;" class="rotateControl"><circle cx="509.9688103276144" cy="98.8107867660346" r="5" style="stroke : none; fill-opacity: 0.5; cursor:crosshair"/></g><g style="display: none;" class="ResizeNControl"><circle cx="0" cy="0" r="5" style="stroke : none; fill-opacity: 0.5"/></g><g style="display: none;" class="ResizeNEControl"><circle cx="0" cy="0" r="5" style="stroke : none; fill-opacity: 0.5"/></g><g style="display: none;" class="ResizeEControl"><circle cx="0" cy="0" r="5" style="stroke : none; fill-opacity: 0.5"/></g><g style="display: none;" class="ResizeSEControl"><circle cx="0" cy="0" r="5" style="stroke : none; fill-opacity: 0.5"/></g><g style="display: none;" class="ResizeSControl"><circle cx="0" cy="0" r="5" style="stroke : none; fill-opacity: 0.5"/></g><g style="display: none;" class="ResizeSWControl"><circle cx="0" cy="0" r="5" style="stroke : none; fill-opacity: 0.5"/></g><g style="display: none;" class="ResizeWControl"><circle cx="0" cy="0" r="5" style="stroke : none; fill-opacity: 0.5"/></g><g style="display: none;" class="ResizeNWControl"><circle cx="0" cy="0" r="5" style="stroke : none; fill-opacity: 0.5"/></g><g style="display: none;" class="removeControl"><polygon style="stroke : none; fill-opacity: 0.1"/></g><g style="display: none;" class="copyPasteControl"><polygon style="stroke : none; fill-opacity: 0.1"/></g><g style="display: none;" class="translateControl"><polygon style="stroke : none; fill-opacity: 0.1; cursor:move"/></g></g></g></g></g></svg>
