<?xml version="1.0"?>
<svg xmlns="http://www.w3.org/2000/svg" xmlns:xlink="http://www.w3.org/1999/xlink" height="1025.120018005371" version="1.1" width="1077.633071899414" id="temp" viewBox="0 0 1077.633071899414 1025.120018005371"><desc>Powered by CubiCasa</desc><defs/><g id="Model" class="Model v1-1"><g class="Floor"><g id="Floor-1" transform="matrix(1,0,0,1,0,0)" class="Floorplan Floor-1"><g id="2e800140-ae4c-4b91-a075-0564732a3ef7" class="Space Undefined" fill="#ffffff" stroke="#ffffff" style="fill-opacity: 1; stroke-opacity: 1; stroke-width: 0.2;"><polygon points="977.95,524.70 779.63,524.70 779.63,325.46 977.95,325.46 "/><g transform="matrix(1,0,0,1,779.6276,325.463)" class="Dimension"><g transform="matrix(1,0,0,1,0,0)" style="display: none;" class="Visual"><g id="mark1" fill="#000000" stroke="none" transform="matrix(1,0,0,1,99.1616,0)" style="fill-opacity: 1; pointer-events: visible;" class="DimensionMark"><polygon points="-5,5,0,0,5,5"/></g><g id="mark2" fill="#000000" stroke="none" transform="matrix(1,0,0,1,198.3232,99.6201)" style="fill-opacity: 1; pointer-events: visible;" class="DimensionMark"><polygon points="-5,-5,0,0,-5,5"/></g><g id="mark3" fill="#000000" stroke="none" transform="matrix(1,0,0,1,99.1616,199.2402)" style="fill-opacity: 1; pointer-events: visible;" class="DimensionMark"><polygon points="-5,-5,0,0,5,-5"/></g><g id="mark4" fill="#000000" stroke="none" transform="matrix(1,0,0,1,0,99.6201)" style="fill-opacity: 1; pointer-events: visible;" class="DimensionMark"><polygon points="5,5,0,0,5,-5"/></g></g><g transform="matrix(1,0,0,1,99.1616,99.1616)" class="SpaceDimensionsLabel"><g id="NameLabel" style="display: block;" class="TextLabel NameLabel"><text x="0" y="0em" fill="#000000" stroke="none" style="font-family: Verdana; font-size: 33px; fill-opacity: 1; cursor: default;">UNDEFINED</text></g><g id="DimensionMeasureLabel" transform="matrix(1,0,0,1,-40.5313,79.5938)" style="display: none;" class="TextLabel DimensionMeasureLabel"><text x="52.6796875" y="-1.2em" fill="#000000" stroke="none" style="font-family: Verdana; font-size: 33px; fill-opacity: 1; cursor: default;">6'6" x 6'6"</text><text x="0" y="0em" fill="#000000" stroke="none" style="font-family: Verdana; font-size: 33px; fill-opacity: 1; cursor: default;">1.98 m x 1.99 m</text></g></g></g></g><g id="72f9c8d8-c9ae-4185-8084-cab54a90faae" class="Space Bath Shower" fill="#ffffff" stroke="#ffffff" style="fill-opacity: 1; stroke-opacity: 1; stroke-width: 0.2;"><polygon points="977.95,739.35 724.61,739.35 724.61,545.76 779.63,545.76 779.63,539.70 977.95,539.70 "/><g transform="matrix(1,0,0,1,724.6082,539.7032)" class="Dimension"><g transform="matrix(1,0,0,1,0,0)" style="display: none;" class="Visual"><g id="mark1" fill="#000000" stroke="none" transform="matrix(1,0,0,1,126.6713,0)" style="fill-opacity: 1; pointer-events: visible;" class="DimensionMark"><polygon points="-5,5,0,0,5,5"/></g><g id="mark2" fill="#000000" stroke="none" transform="matrix(1,0,0,1,253.3426,99.8221)" style="fill-opacity: 1; pointer-events: visible;" class="DimensionMark"><polygon points="-5,-5,0,0,-5,5"/></g><g id="mark3" fill="#000000" stroke="none" transform="matrix(1,0,0,1,126.6713,199.6443)" style="fill-opacity: 1; pointer-events: visible;" class="DimensionMark"><polygon points="-5,-5,0,0,5,-5"/></g><g id="mark4" fill="#000000" stroke="none" transform="matrix(1,0,0,1,0,99.8221)" style="fill-opacity: 1; pointer-events: visible;" class="DimensionMark"><polygon points="5,5,0,0,5,-5"/></g></g><g transform="matrix(1,0,0,1,81.2519,121.7151)" class="SpaceDimensionsLabel"><g id="NameLabel" style="display: block;" class="TextLabel NameLabel"><text x="0" y="0em" fill="#000000" stroke="none" style="font-family: Verdana; font-size: 33px; fill-opacity: 1; cursor: default;">PESUH</text></g><g id="DimensionMeasureLabel" transform="matrix(1,0,0,1,-83.875,79.5938)" style="display: none;" class="TextLabel DimensionMeasureLabel"><text x="52.6796875" y="-1.2em" fill="#000000" stroke="none" style="font-family: Verdana; font-size: 33px; fill-opacity: 1; cursor: default;">8'4" x 6'7"</text><text x="0" y="0em" fill="#000000" stroke="none" style="font-family: Verdana; font-size: 33px; fill-opacity: 1; cursor: default;">2.53 m x 2.00 m</text></g></g></g></g><g id="766baa0f-4e03-4c82-a213-a931cd1f5603" class="Space Outdoor Porch" fill="#ffffff" stroke="#000000" style="stroke-width: 0.2; fill-opacity: 1; stroke-opacity: 1;"><polygon points="340.82,754.35 340.82,986.14 977.95,986.14 977.95,754.35 340.82,754.35 "/><g transform="matrix(1,0,0,1,340.8238,754.3475)" class="Dimension"><g transform="matrix(1,0,0,1,0,0)" style="display: none;" class="Visual"><g id="mark1" fill="#000000" stroke="none" transform="matrix(1,0,0,1,318.5635,0)" style="fill-opacity: 1; pointer-events: visible;" class="DimensionMark"><polygon points="-5,5,0,0,5,5"/></g><g id="mark2" fill="#000000" stroke="none" transform="matrix(1,0,0,1,637.127,115.8979)" style="fill-opacity: 1; pointer-events: visible;" class="DimensionMark"><polygon points="-5,-5,0,0,-5,5"/></g><g id="mark3" fill="#000000" stroke="none" transform="matrix(1,0,0,1,318.5635,231.7957)" style="fill-opacity: 1; pointer-events: visible;" class="DimensionMark"><polygon points="-5,-5,0,0,5,-5"/></g><g id="mark4" fill="#000000" stroke="none" transform="matrix(1,0,0,1,0,115.8979)" style="fill-opacity: 1; pointer-events: visible;" class="DimensionMark"><polygon points="5,5,0,0,5,-5"/></g></g><g transform="matrix(1,0,0,1,273.7705,142.5809)" class="SpaceDimensionsLabel"><g id="NameLabel" style="display: block;" class="TextLabel NameLabel"><text x="0" y="0em" fill="#000000" stroke="none" style="font-family: Verdana; font-size: 33px; fill-opacity: 1; cursor: default;">KUISTI</text></g><g id="DimensionMeasureLabel" transform="matrix(1,0,0,1,-81.1641,79.5938)" style="display: none;" class="TextLabel DimensionMeasureLabel"><text x="31.6953125" y="-1.2em" fill="#000000" stroke="none" style="font-family: Verdana; font-size: 33px; fill-opacity: 1; cursor: default;">20'11" x 7'7"</text><text x="0" y="0em" fill="#000000" stroke="none" style="font-family: Verdana; font-size: 33px; fill-opacity: 1; cursor: default;">6.37 m x 2.32 m</text></g></g></g></g><g id="38e0c8a9-79c2-4215-b611-0ff915437cc3" class="Space Room" fill="#ffffff" stroke="#ffffff" style="fill-opacity: 1; stroke-opacity: 1; stroke-width: 0.2;"><polygon points="689.45,325.46 764.63,325.46 764.63,421.10 653.73,421.10 653.73,436.10 764.63,436.10 764.63,530.76 689.24,530.76 689.24,545.76 709.61,545.76 709.61,739.35 355.82,739.35 355.82,325.46 509.45,325.46 509.45,310.46 689.45,310.46 "/><g transform="matrix(1,0,0,1,355.8238,310.463)" class="Dimension"><g transform="matrix(1,0,0,1,0,0)" style="display: none;" class="Visual"><g id="mark1" fill="#000000" stroke="none" transform="matrix(1,0,0,1,204.4019,0)" style="fill-opacity: 1; pointer-events: visible;" class="DimensionMark"><polygon points="-5,5,0,0,5,5"/></g><g id="mark2" fill="#000000" stroke="none" transform="matrix(1,0,0,1,408.8038,214.4423)" style="fill-opacity: 1; pointer-events: visible;" class="DimensionMark"><polygon points="-5,-5,0,0,-5,5"/></g><g id="mark3" fill="#000000" stroke="none" transform="matrix(1,0,0,1,204.4019,428.8845)" style="fill-opacity: 1; pointer-events: visible;" class="DimensionMark"><polygon points="-5,-5,0,0,5,-5"/></g><g id="mark4" fill="#000000" stroke="none" transform="matrix(1,0,0,1,0,214.4423)" style="fill-opacity: 1; pointer-events: visible;" class="DimensionMark"><polygon points="5,5,0,0,5,-5"/></g></g><g transform="matrix(1,0,0,1,149.8964,226.6921)" class="SpaceDimensionsLabel"><g id="NameLabel" style="display: block;" class="TextLabel NameLabel"><text x="0" y="0em" fill="#000000" stroke="none" style="font-family: Verdana; font-size: 33px; fill-opacity: 1; cursor: default;">TUPA</text></g><g id="DimensionMeasureLabel" transform="matrix(1,0,0,1,-97.1094,79.5938)" style="display: none;" class="TextLabel DimensionMeasureLabel"><text x="31.6953125" y="-1.2em" fill="#000000" stroke="none" style="font-family: Verdana; font-size: 33px; fill-opacity: 1; cursor: default;">13'5" x 14'1"</text><text x="0" y="0em" fill="#000000" stroke="none" style="font-family: Verdana; font-size: 33px; fill-opacity: 1; cursor: default;">4.09 m x 4.29 m</text></g></g></g></g><g id="87c11fbf-2fc0-4391-91fa-757668af0544" class="Space Kitchen Kitchenette" fill="#ffffff" stroke="#ffffff" style="fill-opacity: 1; stroke-opacity: 1; stroke-width: 0.2;"><polygon points="977.95,310.46 770.63,310.46 770.63,109.62 977.95,109.62 "/><g transform="matrix(1,0,0,1,770.6276,109.6179)" class="Dimension"><g transform="matrix(1,0,0,1,0,0)" style="display: none;" class="Visual"><g id="mark1" fill="#000000" stroke="none" transform="matrix(1,0,0,1,103.6616,0)" style="fill-opacity: 1; pointer-events: visible;" class="DimensionMark"><polygon points="-5,5,0,0,5,5"/></g><g id="mark2" fill="#000000" stroke="none" transform="matrix(1,0,0,1,207.3232,100.4225)" style="fill-opacity: 1; pointer-events: visible;" class="DimensionMark"><polygon points="-5,-5,0,0,-5,5"/></g><g id="mark3" fill="#000000" stroke="none" transform="matrix(1,0,0,1,103.6616,200.8451)" style="fill-opacity: 1; pointer-events: visible;" class="DimensionMark"><polygon points="-5,-5,0,0,5,-5"/></g><g id="mark4" fill="#000000" stroke="none" transform="matrix(1,0,0,1,0,100.4225)" style="fill-opacity: 1; pointer-events: visible;" class="DimensionMark"><polygon points="5,5,0,0,5,-5"/></g></g><g transform="matrix(1,0,0,1,93.1866,142.2724)" class="SpaceDimensionsLabel"><g id="NameLabel" style="display: block;" class="TextLabel NameLabel"><text x="0" y="0em" fill="#000000" stroke="none" style="font-family: Verdana; font-size: 33px; fill-opacity: 1; cursor: default;">KK</text></g><g id="DimensionMeasureLabel" transform="matrix(1,0,0,1,-116.9141,79.5938)" style="display: none;" class="TextLabel DimensionMeasureLabel"><text x="42.1875" y="-1.2em" fill="#000000" stroke="none" style="font-family: Verdana; font-size: 33px; fill-opacity: 1; cursor: default;">6'10" x 6'7"</text><text x="0" y="0em" fill="#000000" stroke="none" style="font-family: Verdana; font-size: 33px; fill-opacity: 1; cursor: default;">2.07 m x 2.01 m</text></g></g></g></g><g id="9c9f3c58-6120-495d-aa48-149f98e0f4d8" class="Space Bedroom" fill="#ffffff" stroke="#ffffff" style="fill-opacity: 1; stroke-opacity: 1; stroke-width: 0.2;"><polygon points="770.63,310.46 355.82,310.46 355.82,109.62 770.63,109.62 "/><g transform="matrix(1,0,0,1,355.8238,109.6179)" class="Dimension"><g transform="matrix(1,0,0,1,0,0)" style="display: none;" class="Visual"><g id="mark1" fill="#000000" stroke="none" transform="matrix(1,0,0,1,207.4019,0)" style="fill-opacity: 1; pointer-events: visible;" class="DimensionMark"><polygon points="-5,5,0,0,5,5"/></g><g id="mark2" fill="#000000" stroke="none" transform="matrix(1,0,0,1,414.8038,100.4225)" style="fill-opacity: 1; pointer-events: visible;" class="DimensionMark"><polygon points="-5,-5,0,0,-5,5"/></g><g id="mark3" fill="#000000" stroke="none" transform="matrix(1,0,0,1,207.4019,200.8451)" style="fill-opacity: 1; pointer-events: visible;" class="DimensionMark"><polygon points="-5,-5,0,0,5,-5"/></g><g id="mark4" fill="#000000" stroke="none" transform="matrix(1,0,0,1,0,100.4225)" style="fill-opacity: 1; pointer-events: visible;" class="DimensionMark"><polygon points="5,5,0,0,5,-5"/></g></g><g transform="matrix(1,0,0,1,178.377,108.4976)" class="SpaceDimensionsLabel"><g id="NameLabel" style="display: block;" class="TextLabel NameLabel"><text x="0" y="0em" fill="#000000" stroke="none" style="font-family: Verdana; font-size: 33px; fill-opacity: 1; cursor: default;">MH</text></g><g id="DimensionMeasureLabel" transform="matrix(1,0,0,1,-113.7031,79.5938)" style="display: none;" class="TextLabel DimensionMeasureLabel"><text x="42.1875" y="-1.2em" fill="#000000" stroke="none" style="font-family: Verdana; font-size: 33px; fill-opacity: 1; cursor: default;">13'7" x 6'7"</text><text x="0" y="0em" fill="#000000" stroke="none" style="font-family: Verdana; font-size: 33px; fill-opacity: 1; cursor: default;">4.15 m x 2.01 m</text></g></g></g></g><g id="Wall" class="Wall External" fill="#000000" stroke="#000000" style="fill-opacity: 1; stroke-opacity: 1; stroke-width: 0.2;"><polygon points="355.82,739.35 355.82,109.62 340.82,94.62 340.82,754.35 "/><g id="Window" fill="#f0f0ff" stroke="#000000" style="fill-opacity: 1; stroke-width: 1; stroke-opacity: 1;" class="Window Regular"><polygon points="355.82,642.53 355.82,420.28 340.82,420.28 340.82,642.53 "/><g id="Glass" class="Glass"><polygon points="355.82,642.53 355.82,420.28 340.82,420.28 340.82,642.53 "/></g><g id="Panel" class="Panel"><line x1="348.32000732421875" x2="348.32000732421875" y1="635.030029296875" y2="427.7799987792969"/><line x1="355.82000732421875" x2="340.82000732421875" y1="635.030029296875" y2="635.030029296875"/><line x1="355.82000732421875" x2="340.82000732421875" y1="427.7799987792969" y2="427.7799987792969"/></g></g></g><g id="Wall" class="Wall External" fill="#000000" stroke="#000000" style="fill-opacity: 1; stroke-opacity: 1; stroke-width: 0.2;"><polygon points="355.82,109.62 977.95,109.62 992.95,94.62 340.82,94.62 "/><g id="Window" fill="#f0f0ff" stroke="#000000" style="fill-opacity: 1; stroke-width: 1; stroke-opacity: 1;" class="Window Regular"><polygon points="854.85,109.62 914.39,109.62 914.39,94.62 854.85,94.62 "/><g id="Glass" class="Glass"><polygon points="854.85,109.62 914.39,109.62 914.39,94.62 854.85,94.62 "/></g><g id="Panel" class="Panel"><line x1="862.3499755859375" x2="906.8900146484375" y1="102.12000274658203" y2="102.12000274658203"/><line x1="862.3499755859375" x2="862.3499755859375" y1="109.62000274658203" y2="94.62000274658203"/><line x1="906.8900146484375" x2="906.8900146484375" y1="109.62000274658203" y2="94.62000274658203"/></g></g><g id="Window" fill="#f0f0ff" stroke="#000000" style="fill-opacity: 1; stroke-width: 1; stroke-opacity: 1;" class="Window Regular"><polygon points="647.42,109.62 707.17,109.62 707.17,94.62 647.42,94.62 "/><g id="Glass" class="Glass"><polygon points="647.42,109.62 707.17,109.62 707.17,94.62 647.42,94.62 "/></g><g id="Panel" class="Panel"><line x1="654.9199829101562" x2="699.6699829101562" y1="102.12000274658203" y2="102.12000274658203"/><line x1="654.9199829101562" x2="654.9199829101562" y1="109.62000274658203" y2="94.62000274658203"/><line x1="699.6699829101562" x2="699.6699829101562" y1="109.62000274658203" y2="94.62000274658203"/></g></g><g id="Window" fill="#f0f0ff" stroke="#000000" style="fill-opacity: 1; stroke-width: 1; stroke-opacity: 1;" class="Window Regular"><polygon points="432.56,109.62 492.52,109.62 492.52,94.62 432.56,94.62 "/><g id="Glass" class="Glass"><polygon points="432.56,109.62 492.52,109.62 492.52,94.62 432.56,94.62 "/></g><g id="Panel" class="Panel"><line x1="440.05999755859375" x2="485.0199890136719" y1="102.12000274658203" y2="102.12000274658203"/><line x1="440.05999755859375" x2="440.05999755859375" y1="109.62000274658203" y2="94.62000274658203"/><line x1="485.0199890136719" x2="485.0199890136719" y1="109.62000274658203" y2="94.62000274658203"/></g></g></g><g id="Wall" class="Wall External" fill="#000000" stroke="#000000" style="fill-opacity: 1; stroke-opacity: 1; stroke-width: 0.2;"><polygon points="977.95,109.62 977.95,739.35 992.95,754.35 992.95,94.62 "/><g id="Window" fill="#f0f0ff" stroke="#000000" style="fill-opacity: 1; stroke-width: 1; stroke-opacity: 1;" class="Window Regular"><polygon points="977.95,398.83 977.95,454.09 992.95,454.09 992.95,398.83 "/><g id="Glass" class="Glass"><polygon points="977.95,398.83 977.95,454.09 992.95,454.09 992.95,398.83 "/></g><g id="Panel" class="Panel"><line x1="985.4500122070312" x2="985.4500122070312" y1="406.3299865722656" y2="446.5899963378906"/><line x1="977.9500122070312" x2="992.9500122070312" y1="406.3299865722656" y2="406.3299865722656"/><line x1="977.9500122070312" x2="992.9500122070312" y1="446.5899963378906" y2="446.5899963378906"/></g></g></g><g id="Wall" class="Wall External" fill="#000000" stroke="#000000" style="fill-opacity: 1; stroke-opacity: 1; stroke-width: 0.2;"><polygon points="992.95,754.35 340.82,754.35 355.82,739.35 977.95,739.35 "/><g id="Door" fill="#ffffff" stroke="#000000" style="fill-opacity: 1; stroke-width: 1; stroke-opacity: 1;" class="Door Swing Beside"><polygon points="685.71,754.35 601.35,754.35 601.35,739.35 685.71,739.35 "/><g id="Threshold" class="Threshold"><polygon points="685.71,754.35 601.35,754.35 601.35,739.35 685.71,739.35 "/></g><g id="Panel" fill="none" style="" class="Panel Left Negative"><g id="PanelArea" fill="none" stroke="none" style="" class="PanelArea"><polygon points="685.71,754.35 601.35,754.35 601.35,739.35 685.71,739.35 "/></g><path d="M685.71,754.35 q0.00,84.36 -84.36,84.36 l0.00,-84.36Z"/></g></g><g id="Door" fill="#ffffff" stroke="#000000" style="fill-opacity: 1; stroke-width: 1; stroke-opacity: 1;" class="Door Swing Beside"><polygon points="825.54,754.35 738.91,754.35 738.91,739.35 825.54,739.35 "/><g id="Threshold" class="Threshold"><polygon points="825.54,754.35 738.91,754.35 738.91,739.35 825.54,739.35 "/></g><g id="Panel" fill="none" style="" class="Panel Right Negative"><g id="PanelArea" fill="none" stroke="none" style="" class="PanelArea"><polygon points="825.54,754.35 738.91,754.35 738.91,739.35 825.54,739.35 "/></g><path d="M738.91,754.35 q0.00,86.63 86.63,86.63 l0.00,-86.63Z"/></g></g><g id="Window" fill="#f0f0ff" stroke="#000000" style="fill-opacity: 1; stroke-width: 1; stroke-opacity: 1;" class="Window Regular"><polygon points="551.24,754.35 382.96,754.35 382.96,739.35 551.24,739.35 "/><g id="Glass" class="Glass"><polygon points="551.24,754.35 382.96,754.35 382.96,739.35 551.24,739.35 "/></g><g id="Panel" class="Panel"><line x1="543.739990234375" x2="390.4599914550781" y1="746.8499755859375" y2="746.8499755859375"/><line x1="543.739990234375" x2="543.739990234375" y1="754.3499755859375" y2="739.3499755859375"/><line x1="390.4599914550781" x2="390.4599914550781" y1="754.3499755859375" y2="739.3499755859375"/></g></g><g id="Window" fill="#f0f0ff" stroke="#000000" style="fill-opacity: 1; stroke-width: 1; stroke-opacity: 1;" class="Window Regular"><polygon points="937.03,754.35 880.86,754.35 880.86,739.35 937.03,739.35 "/><g id="Glass" class="Glass"><polygon points="937.03,754.35 880.86,754.35 880.86,739.35 937.03,739.35 "/></g><g id="Panel" class="Panel"><line x1="929.530029296875" x2="888.3599853515625" y1="746.8499755859375" y2="746.8499755859375"/><line x1="929.530029296875" x2="929.530029296875" y1="754.3499755859375" y2="739.3499755859375"/><line x1="888.3599853515625" x2="888.3599853515625" y1="754.3499755859375" y2="739.3499755859375"/></g></g></g><g id="Wall" class="Wall" fill="#000000" stroke="#000000" style="fill-opacity: 1; stroke-opacity: 1; stroke-width: 0.2;"><polygon points="355.82,325.46 509.45,325.46 509.45,310.46 355.82,310.46 "/></g><g id="Wall" class="Wall" fill="#000000" stroke="#000000" style="fill-opacity: 1; stroke-opacity: 1; stroke-width: 0.2;"><polygon points="689.45,310.46 977.95,310.46 977.95,325.46 689.45,325.46 "/></g><g id="Wall" class="Wall" fill="#000000" stroke="#000000" style="fill-opacity: 1; stroke-opacity: 1; stroke-width: 0.2;"><polygon points="724.61,739.35 724.61,530.76 709.61,545.76 709.61,739.35 "/></g><g id="Wall" class="Wall" fill="#000000" stroke="#000000" style="fill-opacity: 1; stroke-opacity: 1; stroke-width: 0.2;"><polygon points="724.61,545.76 779.63,545.76 764.63,530.76 724.61,530.76 "/></g><g id="Wall" class="Wall" fill="#000000" stroke="#000000" style="fill-opacity: 1; stroke-opacity: 1; stroke-width: 0.2;"><polygon points="779.63,545.76 779.63,325.46 764.63,325.46 764.63,530.76 "/></g><g id="Wall" class="Wall" fill="#000000" stroke="#000000" style="fill-opacity: 1; stroke-opacity: 1; stroke-width: 0.2;"><polygon points="977.95,524.70 779.63,524.70 779.63,539.70 977.95,539.70 "/><g id="Door" fill="#ffffff" stroke="#000000" style="fill-opacity: 1; stroke-width: 1; stroke-opacity: 1;" class="Door Swing Beside"><polygon points="856.32,524.70 789.44,524.70 789.44,539.70 856.32,539.70 "/><g id="Threshold" class="Threshold"><polygon points="856.32,524.70 789.44,524.70 789.44,539.70 856.32,539.70 "/></g><g id="Panel" fill="none" style="" class="Panel Left Positive"><g id="PanelArea" fill="none" stroke="none" style="" class="PanelArea"><polygon points="856.32,524.70 789.44,524.70 789.44,539.70 856.32,539.70 "/></g><path d="M789.44,539.70 q0.00,66.88 66.88,66.88 l0.00,-66.88Z"/></g></g></g><g id="Wall" class="Wall" fill="#000000" stroke="#000000" style="fill-opacity: 1; stroke-opacity: 1; stroke-width: 0.2;"><polygon points="724.61,530.76 689.24,530.76 689.24,545.76 709.61,545.76 "/></g><g id="Wall" class="Wall" fill="#000000" stroke="#000000" style="fill-opacity: 1; stroke-opacity: 1; stroke-width: 0.2;"><polygon points="764.63,436.10 653.73,436.10 653.73,421.10 764.63,421.10 "/></g><g id="Wall" class="Wall" fill="#000000" stroke="#000000" style="fill-opacity: 1; stroke-opacity: 1; stroke-width: 0.2;"><polygon points="785.63,109.62 785.63,230.73 770.63,230.73 770.63,109.62 "/></g><g id="Wall" class="Wall" fill="#000000" stroke="#000000" style="fill-opacity: 1; stroke-opacity: 1; stroke-width: 0.2;"><polygon points="340.82,754.35 340.82,777.07 355.82,777.07 355.82,754.35 "/></g><g id="Wall" class="Wall" fill="#000000" stroke="#000000" style="fill-opacity: 1; stroke-opacity: 1; stroke-width: 0.2;"><polygon points="340.82,754.35 316.37,754.35 316.37,739.35 340.82,739.35 "/></g><g id="Wall" class="Wall" fill="#000000" stroke="#000000" style="fill-opacity: 1; stroke-opacity: 1; stroke-width: 0.2;"><polygon points="340.82,310.46 316.37,310.46 316.37,325.46 340.82,325.46 "/></g><g id="Wall" class="Wall" fill="#000000" stroke="#000000" style="fill-opacity: 1; stroke-opacity: 1; stroke-width: 0.2;"><polygon points="340.82,94.62 316.37,94.62 316.37,109.62 340.82,109.62 "/></g><g id="Wall" class="Wall" fill="#000000" stroke="#000000" style="fill-opacity: 1; stroke-opacity: 1; stroke-width: 0.2;"><polygon points="340.82,94.62 340.82,75.73 355.82,75.73 355.82,94.62 "/></g><g id="Wall" class="Wall" fill="#000000" stroke="#000000" style="fill-opacity: 1; stroke-opacity: 1; stroke-width: 0.2;"><polygon points="992.95,94.62 992.95,75.73 977.95,75.73 977.95,94.62 "/></g><g id="Wall" class="Wall" fill="#000000" stroke="#000000" style="fill-opacity: 1; stroke-opacity: 1; stroke-width: 0.2;"><polygon points="992.95,94.62 1014.88,94.62 1014.88,109.62 992.95,109.62 "/></g><g id="Wall" class="Wall" fill="#000000" stroke="#000000" style="fill-opacity: 1; stroke-opacity: 1; stroke-width: 0.2;"><polygon points="992.95,310.46 1014.88,310.46 1014.88,325.46 992.95,325.46 "/></g><g id="Wall" class="Wall" fill="#000000" stroke="#000000" style="fill-opacity: 1; stroke-opacity: 1; stroke-width: 0.2;"><polygon points="992.95,739.35 1014.88,739.35 1014.88,754.35 992.95,754.35 "/></g><g id="Wall" class="Wall" fill="#000000" stroke="#000000" style="fill-opacity: 1; stroke-opacity: 1; stroke-width: 0.2;"><polygon points="992.95,754.35 992.95,777.07 977.95,777.07 977.95,754.35 "/></g><g id="Stairs" class="Stairs" fill="#ffffff" stroke="#000000" style="fill-opacity: 1; stroke-opacity: 1;"><g id="Flight" class="Flight"><polygon points="251.04,777.07 340.82,777.07 340.82,965.39 251.04,965.39 "/><g class="WalkinLine "><path fill="none" stroke="#d3d3d3" d="M251.04,871.23 L340.82,871.23 " style="pointer-events: none; marker-end: url(&quot;#Marker2&quot;);"/><defs><marker viewBox="0 0 12 12" markerWidth="12" markerHeight="12" orient="auto" refX="11" refY="6" id="Marker2" fill="#d3d3d3" stroke="#d3d3d3" style="pointer-events: none;"><polygon points="0.00,0.00 0.00,12.00 10.00,6.00 0.00,0.00 "/></marker></defs></g><g id="Steps" class="Steps"><line x1="251.0399932861328" x2="251.0399932861328" y1="777.0700073242188" y2="965.3900146484375"/><line x1="266.00332895914715" x2="266.00332895914715" y1="777.0700073242188" y2="965.3900146484375"/><line x1="280.96666463216144" x2="280.96666463216144" y1="777.0700073242188" y2="965.3900146484375"/><line x1="295.9300003051758" x2="295.9300003051758" y1="777.0700073242188" y2="965.3900146484375"/><line x1="310.8933359781901" x2="310.8933359781901" y1="777.0700073242188" y2="965.3900146484375"/><line x1="325.8566716512044" x2="325.8566716512044" y1="777.0700073242188" y2="965.3900146484375"/><line x1="340.82000732421875" x2="340.82000732421875" y1="777.0700073242188" y2="965.3900146484375"/></g></g></g><g id="Railing" class="Railing" fill="#ffffff" stroke="#000000" style="fill-opacity: 1; stroke-opacity: 1; stroke-width: 0.2;"><polygon points="992.95,777.07 992.95,986.14 977.95,1001.14 977.95,777.07 " style="stroke-dasharray: 209.07, 21.2132, 239.07;"/></g><g id="Railing" class="Railing" fill="#ffffff" stroke="#000000" style="fill-opacity: 1; stroke-opacity: 1; stroke-width: 0.2;"><polygon points="977.95,1001.14 355.82,1001.14 340.82,986.14 977.95,986.14 " style="stroke-dasharray: 622.13, 21.2132, 652.13;"/></g><g id="Railing" class="Railing" fill="#ffffff" stroke="#000000" style="fill-opacity: 1; stroke-opacity: 1; stroke-width: 0.2;"><polygon points="355.82,1001.14 355.82,965.39 340.82,965.39 340.82,1001.14 " style="stroke-dasharray: 0;"/></g><g id="Railing" class="Railing" fill="#ffffff" stroke="#000000" style="fill-opacity: 1; stroke-opacity: 1; stroke-width: 0.2;"><polygon points="340.82,1001.14 316.37,1001.14 316.37,986.14 355.82,986.14 " style="stroke-dasharray: 78.9, 21.2132;"/></g><g id="Railing" class="Railing" fill="#ffffff" stroke="#000000" style="fill-opacity: 1; stroke-opacity: 1; stroke-width: 0.2;"><polygon points="340.82,1001.14 340.82,1025.12 355.82,1025.12 355.82,986.14 " style="stroke-dasharray: 77.96, 21.2132;"/></g><g id="Railing" class="Railing" fill="#ffffff" stroke="#000000" style="fill-opacity: 1; stroke-opacity: 1; stroke-width: 0.2;"><polygon points="661.08,965.39 661.08,1025.12 676.08,1025.12 676.08,965.39 "/></g><g id="Railing" class="Railing" fill="#ffffff" stroke="#000000" style="fill-opacity: 1; stroke-opacity: 1; stroke-width: 0.2;"><polygon points="992.95,1001.14 992.95,1025.12 977.95,1025.12 977.95,986.14 " style="stroke-dasharray: 77.96, 21.2132;"/></g><g id="Railing" class="Railing" fill="#ffffff" stroke="#000000" style="fill-opacity: 1; stroke-opacity: 1; stroke-width: 0.2;"><polygon points="992.95,1001.14 1014.88,1001.14 1014.88,986.14 977.95,986.14 " style="stroke-dasharray: 73.86, 21.2132;"/></g><g id="Column" class="Column FreeShape" fill="#000000" stroke="none" style="fill-opacity: 1;"><polygon points="764.63,325.46 764.63,421.10 737.90,421.10 737.90,325.46 764.63,325.46 "/></g><g id="FixedFurnitureSet" transform="matrix(0,1,-1,0,977.9508,325.7894)" class="FixedFurnitureSet" style=""><g class="FixedFurniture SaunaBenchHigh" fill="#ffffff" stroke="#000000" transform="matrix(1,0,0,1,0,0)" style="fill-opacity: 1; stroke-opacity: 1;">
        <g class="BoundaryPolygon">
            <polygon points="0.00,0.00 198.91,0.00 198.91,47.70 0.00,47.70 "/>
        </g>
        <g class="Bench" stroke="#9a9a9a" stroke-width="0.5">
            <line x1="0" y1="3.1803186092274065" x2="198.91383971320485" y2="3.1803186092274065"/>
            <line x1="0" y1="6.360637218454813" x2="198.91383971320485" y2="6.360637218454813"/>
            <line x1="0" y1="9.540955827682222" x2="198.91383971320485" y2="9.540955827682222"/>
            <line x1="0" y1="12.721274436909626" x2="198.91383971320485" y2="12.721274436909626"/>
            <line x1="0" y1="15.90159304613704" x2="198.91383971320485" y2="15.90159304613704"/>
            <line x1="0" y1="19.081911655364443" x2="198.91383971320485" y2="19.081911655364443"/>
            <line x1="0" y1="22.26223026459185" x2="198.91383971320485" y2="22.26223026459185"/>
            <line x1="0" y1="25.442548873819252" x2="198.91383971320485" y2="25.442548873819252"/>
            <line x1="0" y1="28.62286748304666" x2="198.91383971320485" y2="28.62286748304666"/>
            <line x1="0" y1="31.80318609227408" x2="198.91383971320485" y2="31.80318609227408"/>
            <line x1="0" y1="34.983504701501474" x2="198.91383971320485" y2="34.983504701501474"/>
            <line x1="0" y1="38.16382331072889" x2="198.91383971320485" y2="38.16382331072889"/>
            <line x1="0" y1="41.3441419199563" x2="198.91383971320485" y2="41.3441419199563"/>
            <line x1="0" y1="44.5244605291837" x2="198.91383971320485" y2="44.5244605291837"/>
        </g>
        <g class="Direction" fill-opacity="0.9" style="display: none;">
            <polygon points="102.58,43.46 102.58,32.84 99.58,32.84 99.58,43.46 95.77,43.46 101.08,48.76 106.38,43.46 102.58,43.46 " fill="#444444"/>
        </g> 
        <g class="Name" fill-opacity="0.9" style="display: none;">
            <text transform="translate(3 12)" font-size="12" font-family="Verdana, Sans-Serif">SB_HIGH</text>
        </g>
        <desc>Width:185 Height:5 Depth:60 Elevation:105</desc>
    </g><g class="FixedFurniture SaunaBenchMid" fill="#ffffff" stroke="#000000" transform="matrix(1,0,0,1,0,47.7048)" style="fill-opacity: 1; stroke-opacity: 1;">
        <g class="BoundaryPolygon">
            <polygon points="0.00,0.00 198.91,0.00 198.91,31.80 0.00,31.80 "/>
        </g>
        <g class="Bench" stroke="#9a9a9a" stroke-width="0.5">
            <line x1="0" y1="3.1803186092274065" x2="198.91383971320485" y2="3.1803186092274065"/>
            <line x1="0" y1="6.360637218454813" x2="198.91383971320485" y2="6.360637218454813"/>
            <line x1="0" y1="9.540955827682222" x2="198.91383971320485" y2="9.540955827682222"/>
            <line x1="0" y1="12.721274436909626" x2="198.91383971320485" y2="12.721274436909626"/>
            <line x1="0" y1="15.90159304613704" x2="198.91383971320485" y2="15.90159304613704"/>
            <line x1="0" y1="19.081911655364443" x2="198.91383971320485" y2="19.081911655364443"/>
            <line x1="0" y1="22.26223026459185" x2="198.91383971320485" y2="22.26223026459185"/>
            <line x1="0" y1="25.442548873819252" x2="198.91383971320485" y2="25.442548873819252"/>
            <line x1="0" y1="28.62286748304666" x2="198.91383971320485" y2="28.62286748304666"/>
        </g>
        <g class="Direction" fill-opacity="0.9" style="display: none;">
            <polygon points="101.08,27.55 101.08,16.94 98.07,16.94 98.07,27.55 94.27,27.55 99.57,32.86 104.87,27.55 101.08,27.55 " fill="#444444"/>
        </g> 
        <g class="Name" fill-opacity="0.9" style="display: none;">
            <text transform="translate(3 12)" font-size="12" font-family="Verdana, Sans-Serif">SB_MID</text>
        </g>
        <desc>Width:185 Height:5 Depth:40 Elevation:60</desc>
    </g><g class="FixedFurniture SaunaBenchLow" transform="matrix(1,0,0,1,101.0697,79.508)" fill="#ffffff" stroke="#000000" style="fill-opacity: 1; stroke-opacity: 1;">
        <g class="BoundaryPolygon" fill="#ffffff" stroke="#000000">
            <polygon points="0.00,0.00 97.84,0.00 97.84,31.80 0.00,31.80 "/>
        </g>
        <g class="Bench" stroke="#9a9a9a" stroke-width="0.5">
            <line x1="0" y1="3.1803186092274065" x2="97.84410494000889" y2="3.1803186092274065"/>
            <line x1="0" y1="6.360637218454813" x2="97.84410494000889" y2="6.360637218454813"/>
            <line x1="0" y1="9.540955827682222" x2="97.84410494000889" y2="9.540955827682222"/>
            <line x1="0" y1="12.721274436909626" x2="97.84410494000889" y2="12.721274436909626"/>
            <line x1="0" y1="15.90159304613704" x2="97.84410494000889" y2="15.90159304613704"/>
            <line x1="0" y1="19.081911655364443" x2="97.84410494000889" y2="19.081911655364443"/>
            <line x1="0" y1="22.26223026459185" x2="97.84410494000889" y2="22.26223026459185"/>
            <line x1="0" y1="25.442548873819252" x2="97.84410494000889" y2="25.442548873819252"/>
            <line x1="0" y1="28.62286748304666" x2="97.84410494000889" y2="28.62286748304666"/>
        </g>
        <g class="Direction" fill-opacity="0.9" style="display: none;">
            <polygon points="50.60,27.55 50.60,16.94 47.59,16.94 47.59,27.55 43.79,27.55 49.09,32.86 54.39,27.55 50.60,27.55 " fill="#444444"/>
        </g> 
        <g class="Name" fill-opacity="0.9" style="display: none;">
            <text transform="translate(3 12)" font-size="12" font-family="Verdana, Sans-Serif">SB_LOW</text>
        </g>
        <desc>Width:91 Height:5 Depth:40 Elevation:30</desc>
    </g></g><g class="FixedFurniture BaseCabinet" fill="#ffffff" stroke="#000000" transform="matrix(1,0,0,1,786.0408,109.8523)" style="fill-opacity: 1; stroke-opacity: 1;">
        <g class="BoundaryPolygon">
            <polygon points="0.00,0.00 191.91,0.00 191.91,60.00 0.00,60.00 "/>
        </g>
        <g class="Direction" fill-opacity="0.9" style="display: none;">
            <polygon points="102.38,55.20 102.38,44.58 99.37,44.58 99.37,55.20 95.57,55.20 100.87,60.00 106.17,55.20 102.38,55.20 " fill="#444444"/>
        </g> 
        <g class="Name" fill-opacity="0.9" style="display: none;">
            <text transform="translate(3 12)" font-size="12" font-family="Verdana, Sans-Serif">CB</text>
        </g>
        <desc>Width:60 Height:90 Depth:60 Elevation:0</desc>
    </g><g class="FixedFurniture WallCabinet" fill="#ffffff" stroke="#000000" transform="matrix(1,0,0,1,917.9508,109.8522)" style="fill-opacity: 0.7; stroke-opacity: 1;">	
        <g class="BoundaryPolygon">
            <polygon points="0,0 60,0 60,30 0,30"/>
        </g>
        <g class="Direction" fill-opacity="0.9" style="display: none;">
            <polygon points="32.009 25.197 32.009 14.581 29 14.581 29 25.197 25.197 25.197 30.5 30 35.803 25.197 32.009 25.197" fill="#444444"/>
        </g> 
        <g class="Name" fill-opacity="0.9" style="display: none;">
            <text transform="translate(3 12)" font-size="12" font-family="Verdana, Sans-Serif">UC</text>
        </g>
        <desc>Width:60 Height:60 Depth:30 Elevation:140</desc>
    </g><g class="FixedFurniture Closet" fill="#ffffff" stroke="#000000" transform="matrix(0,1,-1,0,737.8062,325.463)" style="fill-opacity: 1; stroke-opacity: 1;">
        <g class="BoundaryPolygon">
            <polygon points="0.00,0.00 66.36,0.00 66.36,48.47 0.00,48.47 "/>
        </g>
        <g class="Direction" fill-opacity="0.9" style="display: none;">
            <polygon points="34.85,44.18 34.85,33.57 31.84,33.57 31.84,44.18 28.04,44.18 33.34,49.49 38.64,44.18 34.85,44.18 " fill="#444444"/>
        </g> 
        <g class="Name" fill-opacity="0.9" style="display: none;">
            <text transform="translate(3 12)" font-size="12" font-family="Verdana, Sans-Serif">CL</text>
        </g>
        <desc>Width:60 Height:200 Depth:60 Elevation:0</desc>
     </g><g class="FixedFurniture ElectricalAppliance SaunaStove" fill="#ffffff" stroke="#000000" transform="matrix(0,-1,1,0,779.6275,393.7124)" style="fill-opacity: 1; stroke-opacity: 1;"> 
	   <g class="BoundaryPolygon"> 
		    <polygon points="0,0 60,0 60,35 0,35"/>
		</g>
	    <g class="electricitySign" fill="none">
		    <polyline points="0 35 39.7 17.5 21.4 17.5 60 0"/>
		</g>
        <g class="Direction" fill-opacity="0.9" style="display: none;">
            <polygon points="31.509 29.697 31.509 19.081 28.5 19.081 28.5 29.697 24.697 29.697 30 35 35.303 29.697 31.509 29.697" fill="#444444"/>
        </g> 
        <g class="Name" fill-opacity="0.9" style="display: none;">
            <text transform="translate(3 12)" font-size="12" font-family="Verdana, Sans-Serif">SS</text>
        </g>
        <desc>Width:60 Height:60 Depth:35 Elevation:20</desc>
	</g><g class="FixedFurniture Fireplace" fill="#ffffff" stroke="#000000" transform="matrix(0,1.249,-1.2429,0,764.6081,436.4609)" style="fill-opacity: 1; stroke-opacity: 1;">     
	    <g class="BoundaryPolygon"> 
		    <polygon points="0,0 75,0 75,60 0,60"/> 
		</g>
	    <g class="Lines" fill="none" stroke="#4c4c4c"> 
		    <line x1="0.629" y1="9.556" x2="51.294" y2="60.205"/>
            <line x1="0.598" y1="25.167" x2="35.942" y2="60.5"/>
            <line x1="0.5" y1="40.841" x2="20.479" y2="60.5"/>
            <line x1="40.648" y1="0.5" x2="75.432" y2="35.274"/>
            <line x1="8.329" y1="0.5" x2="68.348" y2="60.5"/>
            <line x1="24.88" y1="0.5" x2="75.5" y2="51.104"/>
            <line x1="56.774" y1="0.5" x2="75.5" y2="19.22"/>
		</g>
	    <g class="FireBox">  &gt;	
		    <rect x="22.053" y="19.92" width="32.571" height="40.58"/>
	    </g>
        <g class="Direction" fill-opacity="0.9" style="display: none;">
            <polygon points="39.409 54.797 39.409 44.181 36.4 44.181 36.4 54.797 32.597 54.797 37.9 60.1 43.203 54.797 39.409 54.797" fill="#444444"/>
        </g> 
        <g class="Name" fill-opacity="0.9" style="display: none;">
            <text transform="translate(3 12)" font-size="12" font-family="Verdana, Sans-Serif">FP</text>
        </g>
        <desc>Width:75 Height:120 Depth:60 Elevation:0</desc>
    </g><g class="FixedFurniture Closet" fill="#ffffff" stroke="#000000" transform="matrix(0,1,-1,0,737.8219,392.2678)" style="fill-opacity: 1; stroke-opacity: 1;">
        <g class="BoundaryPolygon">
            <polygon points="0.00,0.00 28.83,0.00 28.83,48.47 0.00,48.47 "/>
        </g>
        <g class="Direction" fill-opacity="0.9" style="display: none;">
            <polygon points="15.14,44.18 15.14,33.57 12.13,33.57 12.13,44.18 8.33,44.18 13.63,49.49 18.93,44.18 15.14,44.18 " fill="#444444"/>
        </g> 
        <g class="Name" fill-opacity="0.9" style="display: none;">
            <text transform="translate(3 12)" font-size="12" font-family="Verdana, Sans-Serif">CL</text>
        </g>
        <desc>Width:60 Height:200 Depth:60 Elevation:0</desc>
     </g><g class="FixedFurniture Closet" fill="#ffffff" stroke="#000000" transform="matrix(0,1,-1,0,757.8062,345.463)" style="fill-opacity: 1; stroke-opacity: 1;">
        <g class="BoundaryPolygon">
            <polygon points="0.00,0.00 66.36,0.00 66.36,48.47 0.00,48.47 "/>
        </g>
        <g class="Direction" fill-opacity="0.9" style="display: none;">
            <polygon points="34.85,44.18 34.85,33.57 31.84,33.57 31.84,44.18 28.04,44.18 33.34,49.49 38.64,44.18 34.85,44.18 " fill="#444444"/>
        </g> 
        <g class="Name" fill-opacity="0.9" style="display: none;">
            <text transform="translate(3 12)" font-size="12" font-family="Verdana, Sans-Serif">CL</text>
        </g>
        <desc>Width:60 Height:200 Depth:60 Elevation:0</desc>
     </g><g class="FixedFurniture WallCabinet" fill="#ffffff" stroke="#000000" transform="matrix(1,0,0,1,786.0408,109.8523)" style="fill-opacity: 0.7; stroke-opacity: 1;">	
        <g class="BoundaryPolygon">
            <polygon points="0.00,0.00 66.89,0.00 66.89,30.00 0.00,30.00 "/>
        </g>
        <g class="Direction" fill-opacity="0.9" style="display: none;">
            <polygon points="35.68,25.20 35.68,14.58 32.67,14.58 32.67,25.20 28.87,25.20 34.17,30.00 39.48,25.20 35.68,25.20 " fill="#444444"/>
        </g> 
        <g class="Name" fill-opacity="0.9" style="display: none;">
            <text transform="translate(3 12)" font-size="12" font-family="Verdana, Sans-Serif">UC</text>
        </g>
        <desc>Width:60 Height:60 Depth:30 Elevation:140</desc>
    </g></g></g></g></svg>
