<?xml version="1.0"?>
<svg xmlns="http://www.w3.org/2000/svg" xmlns:xlink="http://www.w3.org/1999/xlink" height="628.4599990844727" version="1.1" width="943.3300323486328" id="temp" viewBox="0 0 943.3300323486328 628.4599990844727"><defs/><g id="Model" class="Model v1-1"><g class="Floor"><g id="Floor-1" class="Floorplan Floor-1"><g id="682b21d9-ea08-44e6-a752-bd1c8a21ed9e" fill="#ffffff" stroke="#ffffff" style="fill-opacity: 1; stroke-opacity: 1; stroke-width: 0.2;" class="Space Kitchen Open"><polygon points="619.35,276.52 619.47,276.52 617.47,438.45 425.65,438.45 425.65,398.17 325.17,398.17 325.17,438.45 124.17,438.45 124.17,73.33 619.35,73.33 "/><g transform="matrix(1,0,0,1,124.171,73.3316)" class="Dimension"><g transform="matrix(1,0,0,1,0,0)" style="display: none;" class="Visual"><g id="mark1" fill="#000000" stroke="none" transform="matrix(1,0,0,1,247.6512,0)" style="fill-opacity: 1; pointer-events: visible;" class="DimensionMark"><polygon points="-5,5,0,0,5,5"/></g><g id="mark2" fill="#000000" stroke="none" transform="matrix(1,0,0,1,495.1782,182.5576)" style="fill-opacity: 1; pointer-events: visible;" class="DimensionMark"><polygon points="-5,-5,0,0,-5,5"/></g><g id="mark3" fill="#000000" stroke="none" transform="matrix(1,0,0,1,247.6512,324.8371)" style="fill-opacity: 1; pointer-events: visible;" class="DimensionMark"><polygon points="-5,-5,0,0,5,-5"/></g><g id="mark4" fill="#000000" stroke="none" transform="matrix(1,0,0,1,0,182.5576)" style="fill-opacity: 1; pointer-events: visible;" class="DimensionMark"><polygon points="5,5,0,0,5,-5"/></g></g><g transform="matrix(1,0,0,1,175.1928,162.9306)" class="SpaceDimensionsLabel" style="display: block;"><g id="NameLabel" style="display: block;" class="TextLabel NameLabel"><text x="0" y="0em" fill="#000000" stroke="none" style="font-family: Verdana; font-size: 33px; fill-opacity: 1; cursor: default;">TUPAK</text></g><g id="DimensionMeasureLabel" transform="matrix(1,0,0,1,-85.1484,79.7968)" style="display: none;" class="TextLabel DimensionMeasureLabel"><text x="31.6953125" y="-1.2em" fill="#000000" stroke="none" style="font-family: Verdana; font-size: 33px; fill-opacity: 1; cursor: default;">16'3" x 10'8"</text><text x="0" y="0em" fill="#000000" stroke="none" style="font-family: Verdana; font-size: 33px; fill-opacity: 1; cursor: default;">4.95 m x 3.25 m</text></g></g></g></g><g id="fe81496c-2e96-4add-a68a-086c5c20a143" fill="#ffffff" stroke="#ffffff" style="fill-opacity: 1; stroke-opacity: 1; stroke-width: 0.2;" class="Space Entry Lobby"><polygon points="918.33,513.88 769.70,513.88 769.70,438.45 617.47,438.45 619.47,276.52 918.33,276.52 "/><g transform="matrix(1,0,0,1,618.0074,276.5248)" class="Dimension"><g transform="matrix(1,0,0,1,0,0)" style="display: none;" class="Visual"><g id="mark1" fill="#000000" stroke="none" transform="matrix(1,0,0,1,151.6901,0)" style="fill-opacity: 1; pointer-events: visible;" class="DimensionMark"><polygon points="-5,5,0,0,5,5"/></g><g id="mark2" fill="#000000" stroke="none" transform="matrix(1,0,0,1,300.3243,118.6861)" style="fill-opacity: 1; pointer-events: visible;" class="DimensionMark"><polygon points="-5,-5,0,0,-5,5"/></g><g id="mark3" fill="#000000" stroke="none" transform="matrix(1,0,0,1,151.6901,237.3591)" style="fill-opacity: 1; pointer-events: visible;" class="DimensionMark"><polygon points="-5,-5,0,0,5,-5"/></g><g id="mark4" fill="#000000" stroke="none" transform="matrix(1,0,0,1,0,118.6861)" style="fill-opacity: 1; pointer-events: visible;" class="DimensionMark"><polygon points="5,5,0,0,5,-5"/></g></g><g transform="matrix(1,0,0,1,209.4685,157.6179)" class="SpaceDimensionsLabel" style="display: block;"><g id="NameLabel" style="display: block;" class="TextLabel NameLabel"><text x="0" y="0em" fill="#000000" stroke="none" style="font-family: Verdana; font-size: 33px; fill-opacity: 1; cursor: default;">ET</text></g><g id="DimensionMeasureLabel" transform="matrix(1,0,0,1,-119.2266,79.7812)" style="display: none;" class="TextLabel DimensionMeasureLabel"><text x="42.1796875" y="-1.2em" fill="#000000" stroke="none" style="font-family: Verdana; font-size: 33px; fill-opacity: 1; cursor: default;">9'10" x 7'9"</text><text x="0" y="0em" fill="#000000" stroke="none" style="font-family: Verdana; font-size: 33px; fill-opacity: 1; cursor: default;">3.00 m x 2.37 m</text></g></g></g></g><g id="15232a11-0290-43ed-90e6-527736c5cdf8" fill="#ffffff" stroke="#ffffff" style="fill-opacity: 1; stroke-opacity: 1; stroke-width: 0.2;" class="Space Bath"><polygon points="759.34,140.33 918.33,140.33 918.33,265.52 629.36,265.52 629.36,73.33 759.34,73.33 "/><g transform="matrix(1,0,0,1,629.3611,73.3316)" class="Dimension"><g transform="matrix(1,0,0,1,0,0)" style="display: none;" class="Visual"><g id="mark1" fill="#000000" stroke="none" transform="matrix(1,0,0,1,129.9805,0)" style="fill-opacity: 1; pointer-events: visible;" class="DimensionMark"><polygon points="-5,5,0,0,5,5"/></g><g id="mark2" fill="#000000" stroke="none" transform="matrix(1,0,0,1,288.9706,96.0966)" style="fill-opacity: 1; pointer-events: visible;" class="DimensionMark"><polygon points="-5,-5,0,0,-5,5"/></g><g id="mark3" fill="#000000" stroke="none" transform="matrix(1,0,0,1,129.9805,192.1932)" style="fill-opacity: 1; pointer-events: visible;" class="DimensionMark"><polygon points="-5,-5,0,0,5,-5"/></g><g id="mark4" fill="#000000" stroke="none" transform="matrix(1,0,0,1,0,96.0966)" style="fill-opacity: 1; pointer-events: visible;" class="DimensionMark"><polygon points="5,5,0,0,5,-5"/></g></g><g transform="matrix(1,0,0,1,123.8803,142.9356)" class="SpaceDimensionsLabel" style="display: block;"><g id="NameLabel" style="display: block;" class="TextLabel NameLabel"><text x="0" y="0em" fill="#000000" stroke="none" style="font-family: Verdana; font-size: 33px; fill-opacity: 1; cursor: default;">WC</text></g><g id="DimensionMeasureLabel" transform="matrix(1,0,0,1,-112.1641,79.7969)" style="display: none;" class="TextLabel DimensionMeasureLabel"><text x="52.671875" y="-1.2em" fill="#000000" stroke="none" style="font-family: Verdana; font-size: 33px; fill-opacity: 1; cursor: default;">9'6" x 6'4"</text><text x="0" y="0em" fill="#000000" stroke="none" style="font-family: Verdana; font-size: 33px; fill-opacity: 1; cursor: default;">2.89 m x 1.92 m</text></g></g></g></g><g id="Wall" fill="#000000" stroke="#000000" style="fill-opacity: 1; stroke-opacity: 1; stroke-width: 0.2;" class="Wall External"><polygon points="749.70,535.88 943.33,535.88 918.33,513.88 769.70,513.88 "/><g id="Door" fill="#ffffff" stroke="#000000" style="fill-opacity: 1; stroke-width: 1; stroke-opacity: 1;" class="Door Swing Beside"><polygon points="778.11,535.88 870.68,535.88 870.68,513.88 778.11,513.88 "/><g id="Threshold" class="Threshold"><polygon points="778.11,535.88 870.68,535.88 870.68,513.88 778.11,513.88 "/></g><g id="Panel" fill="none" style="" class="Panel Right Negative"><g id="PanelArea" fill="none" stroke="none" style="" class="PanelArea"><polygon points="778.11,535.88 870.68,535.88 870.68,513.88 778.11,513.88 "/></g><path d="M870.68,535.88 q0.00,92.58 -92.58,92.58 l0.00,-92.58Z"/></g></g></g><g id="Wall" fill="#000000" stroke="#000000" style="fill-opacity: 1; stroke-opacity: 1; stroke-width: 0.2;" class="Wall External"><polygon points="943.33,535.88 943.33,50.46 918.33,140.33 918.33,513.88 "/></g><g id="Wall" fill="#000000" stroke="#000000" style="fill-opacity: 1; stroke-opacity: 1; stroke-width: 0.2;" class="Wall External"><polygon points="943.33,50.46 759.34,50.46 759.34,140.33 918.33,140.33 "/></g><g id="Wall" fill="#000000" stroke="#000000" style="fill-opacity: 1; stroke-opacity: 1; stroke-width: 0.2;" class="Wall External"><polygon points="759.34,50.46 74.17,50.46 124.17,73.33 759.34,73.33 "/></g><g id="Wall" fill="#000000" stroke="#000000" style="fill-opacity: 1; stroke-opacity: 1; stroke-width: 0.2;" class="Wall External"><polygon points="74.17,50.46 74.17,466.45 124.17,438.45 124.17,73.33 "/><g id="Window" fill="#f0f0ff" stroke="#000000" style="fill-opacity: 1; stroke-width: 1; stroke-opacity: 1;" class="Window Regular"><polygon points="74.17,73.71 74.17,435.90 124.17,435.90 124.17,73.71 "/><g id="Glass" class="Glass"><polygon points="74.17,73.71 74.17,435.90 124.17,435.90 124.17,73.71 "/></g><g id="Panel" class="Panel"><line x1="99.17097653067742" x2="99.17097653067742" y1="81.21372552153896" y2="428.40256484237216"/><line x1="74.17097653067742" x2="124.17097653067742" y1="81.21372552153896" y2="81.21372552153896"/><line x1="74.17097653067742" x2="124.17097653067742" y1="428.40256484237216" y2="428.40256484237216"/></g></g></g><g id="Wall" fill="#000000" stroke="#000000" style="fill-opacity: 1; stroke-opacity: 1; stroke-width: 0.2;" class="Wall External"><polygon points="74.17,466.45 325.17,466.45 325.17,438.45 124.17,438.45 "/></g><g id="Wall" fill="#000000" stroke="#000000" style="fill-opacity: 1; stroke-opacity: 1; stroke-width: 0.2;" class="Wall External"><polygon points="325.17,466.45 425.65,466.45 425.65,398.17 325.17,398.17 "/></g><g id="Wall" fill="#000000" stroke="#000000" style="fill-opacity: 1; stroke-opacity: 1; stroke-width: 0.2;" class="Wall External"><polygon points="425.65,466.45 749.70,466.45 769.70,438.45 425.65,438.45 "/></g><g id="Wall" fill="#000000" stroke="#000000" style="fill-opacity: 1; stroke-opacity: 1; stroke-width: 0.2;" class="Wall External"><polygon points="749.70,466.45 749.70,535.88 769.70,513.88 769.70,438.45 "/></g><g id="Wall" fill="#000000" stroke="#000000" style="fill-opacity: 1; stroke-opacity: 1; stroke-width: 0.2;" class="Wall"><polygon points="619.35,50.46 619.35,276.52 629.36,265.52 629.36,50.46 "/></g><g id="Wall" fill="#000000" stroke="#000000" style="fill-opacity: 1; stroke-opacity: 1; stroke-width: 0.2;" class="Wall"><polygon points="619.35,276.52 943.33,276.52 943.33,265.52 629.36,265.52 "/><g id="Door" fill="#ffffff" stroke="#000000" style="fill-opacity: 1; stroke-width: 1; stroke-opacity: 1;" class="Door Swing Beside"><polygon points="768.72,276.52 852.13,276.52 852.13,265.52 768.72,265.52 "/><g id="Threshold" class="Threshold"><polygon points="768.72,276.52 852.13,276.52 852.13,265.52 768.72,265.52 "/></g><g id="Panel" fill="none" style="" class="Panel Left Negative"><g id="PanelArea" fill="none" stroke="none" style="" class="PanelArea"><polygon points="768.72,276.52 852.13,276.52 852.13,265.52 768.72,265.52 "/></g><path d="M768.72,276.52 q0.00,83.42 83.42,83.42 l0.00,-83.42Z"/></g></g></g><g class="FixedFurniture ElectricalAppliance Refrigerator" fill="#ffffff" stroke="#000000" transform="matrix(0,1,-1,0,619.2866,215.6475)" style="fill-opacity: 1; stroke-opacity: 1;">
        <g class="BoundaryPolygon">
            <polygon points="0,0 60,0 60,60 0,60"/>
        </g>
        <g class="electricitySign" fill="none">
            <path d="M0,0,30,37.1v-18L60,56.3"/>
        </g>
        <g class="Doors">
            <rect y="56" width="60" height="4"/>
        </g>
        <g class="Direction" fill-opacity="0.9" style="display: none;">
            <polygon points="32.009 55.197 32.009 44.581 29 44.581 29 55.197 25.197 55.197 30.5 60 35.803 55.197 32.009 55.197" fill="#444444"/>
        </g> 
        <g class="Name" fill-opacity="0.9" style="display: none;">
            <text transform="translate(3 12)" font-size="12" font-family="Verdana, Sans-Serif">REF</text>
        </g>
        <desc>Width:60 Height:170 Depth:60 Elevation:0</desc>
    </g><g class="FixedFurniture BaseCabinet" fill="#ffffff" stroke="#000000" transform="matrix(0,1,-1,0,619.2242,134.0775)" style="fill-opacity: 1; stroke-opacity: 1;">
        <g class="BoundaryPolygon">
            <polygon points="0.00,0.00 81.57,0.00 81.57,60.00 0.00,60.00 "/>
        </g>
        <g class="Direction" fill-opacity="0.9" style="display: none;">
            <polygon points="43.51,55.20 43.51,44.58 40.51,44.58 40.51,55.20 36.70,55.20 42.01,60.00 47.31,55.20 43.51,55.20 " fill="#444444"/>
        </g> 
        <g class="Name" fill-opacity="0.9" style="display: none;">
            <text transform="translate(3 12)" font-size="12" font-family="Verdana, Sans-Serif">CB</text>
        </g>
        <desc>Width:60 Height:90 Depth:60 Elevation:0</desc>
    </g><g class="FixedFurniture ElectricalAppliance Stove" fill="#ffffff" stroke="#000000" transform="matrix(0,1,-1,0,619.1929,73.3317)" style="fill-opacity: 1; stroke-opacity: 1;">
        <g class="BoundaryPolygon">
            <polygon points="0.00,0.00 60.45,0.00 60.45,60.00 0.00,60.00 "/>
        </g>
        <g class="InnerPolygon">
            <polygon points="2.00,2.00 58.44,2.00 58.44,58.00 2.00,58.00 2.00,2.00 "/>
        </g>
        <g class="OuterCircle">
            <circle cx="16.1204684707091" cy="16" r="8"/>
            <circle cx="44.33128829445001" cy="16" r="8"/>
            <circle cx="16.1204684707091" cy="43.9" r="8"/>
            <circle cx="44.33128829445001" cy="44" r="8"/>
        </g>
        <g class="InnerCircle">
            <circle cx="16.1204684707091" cy="16" r="6"/>
            <circle cx="44.33128829445001" cy="16" r="6"/>
            <circle cx="16.1204684707091" cy="43.9" r="6"/>
            <circle cx="44.33128829445001" cy="44.1" r="6"/>
        </g>
            <g class="Direction" fill-opacity="0.9" style="display: none;">
            <polygon points="32.25,55.20 32.25,44.58 29.24,44.58 29.24,55.20 25.44,55.20 30.74,60.00 36.04,55.20 32.25,55.20 " fill="#444444"/>
        </g> 
        <g class="Name" fill-opacity="0.9" style="display: none;">
            <text transform="translate(3 12)" font-size="12" font-family="Verdana, Sans-Serif">STOVE</text>
        </g>
        <desc>Width:60 Height:90 Depth:30 Elevation:0</desc>
    </g><g class="FixedFurniture RoundSink" fill="#ffffff" stroke="#000000" transform="matrix(0,0.9175,-0.8758,0,608.6098,168.7868)" style="fill-opacity: 1; stroke-opacity: 1;">
        <g class="BoundaryPolygon" fill="none" stroke="none">
            <polygon points="0,0 46,0 46,50 0,50"/>
        </g>
        <g class="InnerPolygon">
            <circle cx="23" cy="27" r="23"/>
        </g>
        <g class="OuterDrain">
            <circle cx="23" cy="27" r="3.5"/>
        </g>
        <g class="InnerDrain">
            <circle cx="23" cy="27" r="2"/>
        </g>
        <g class="Faucet">
            <polygon points="20 0 26 0 26 14 20 14 20 0"/>
        </g>
        <g class="Name" fill-opacity="0.9" style="display: none;">
            <text transform="translate(6.5 24.5)" font-size="12" font-family="Verdana, Sans-Serif">SINK</text>
        </g>
        <desc>Width:46 Height:90 Depth:50 Elevation:60</desc>
    </g><g class="FixedFurniture WallCabinet" fill="#ffffff" stroke="#000000" transform="matrix(0,1,-1,0,619.271,134.0775)" style="fill-opacity: 0.7; stroke-opacity: 1;">	
        <g class="BoundaryPolygon">
            <polygon points="0.00,0.00 81.63,0.00 81.63,30.00 0.00,30.00 "/>
        </g>
        <g class="Direction" fill-opacity="0.9" style="display: none;">
            <polygon points="43.55,25.20 43.55,14.58 40.54,14.58 40.54,25.20 36.73,25.20 42.04,30.00 47.34,25.20 43.55,25.20 " fill="#444444"/>
        </g> 
        <g class="Name" fill-opacity="0.9" style="display: none;">
            <text transform="translate(3 12)" font-size="12" font-family="Verdana, Sans-Serif">UC</text>
        </g>
        <desc>Width:60 Height:60 Depth:30 Elevation:140</desc>
    </g><g class="FixedFurniture Shower" fill="#ffffff" stroke="#000000" transform="matrix(0,-1,1,0,629.3611,234.6919)" style="fill-opacity: 1; stroke-opacity: 1;"> 
	    <g class="BoundaryPolygon" fill="none" stroke="none">
            <polygon points="0,0 32,0 32,19 0,19"/>
        </g>
        <g class="InnerPolygon"> 
			<rect x="3.7" y="0.5" width="11.2" height="6.1"/>
			<rect x="17.6" y="0.5" width="11.2" height="6.1"/>
			<rect x="28.7" y="0.5" width="3.4" height="6.1"/>
			<rect x="0.5" y="0.5" width="3.2" height="6.1"/>
			<path d="M14.9,8.5c0,1.5-0.4,3.3-1.6,5    c-0.4,0.6-1,1.1-1.1,1.7c-0.2,1.1,0.3,2.8,2.5,3.2c0.5,0.1,1.3,0.1,1.6,0.1h-0.1c0.3,0,1.1,0,1.6-0.1c2.2-0.4,2.7-2.1,2.5-3.2    c-0.1-0.6-0.7-1.1-1.1-1.7c-1.2-1.7-1.6-3.5-1.6-5"/>
			<path d="M12.2,15.3c0.1,0.2,1.6,1.9,4.2,1.9 c2.4-0.1,3.7-1.7,3.9-1.9"/>
			<path d="M14.9,0.5h2.7v8c-0.9,0-1.8,0-2.7,0l0,0 C14.9,5.9,14.9,3.2,14.9,0.5z"/>
		</g>
	    <g class="Indicator"> 
			<path d="M3.7,3.6C5,3.1,5.2,3,5.2,3 c0,1.1,0,0,0,1.1C5.2,4.1,5.1,4.1,3.7,3.6"/>
			<path d="M28.7,3.6 C27.4,3.1,27.2,3,27.2,3c0,1.1,0,0,0,1.1C27.2,4.1,27.3,4.1,28.7,3.6"/>	
		</g>
        <desc>Width:32 Height:97 Depth:19 Elevation:135</desc>
	</g><g class="FixedFurniture ShowerScreen" fill="#ffffff" stroke="#000000" transform="matrix(0,-1,1.4387,0,629.3611,174.5238)" style="fill-opacity: 1; stroke-opacity: 1;">
        <g class="BoundaryPolygon">
            <polygon points="0,0 2.5,0 2.5,60 0,60"/>
        </g>
	    <g class="InnerPolygon" stroke-linejoin="round"> 
			<rect width="2.5" height="60"/>
	    </g> 
        <desc>Width:2.5 Height:180 Depth:60 Elevation:135</desc>
    </g><g class="FixedFurniture ShowerScreen" fill="#ffffff" stroke="#000000" transform="matrix(-1,0,0,-1.4387,721.4482,265.5248)" style="fill-opacity: 1; stroke-opacity: 1;">
        <g class="BoundaryPolygon">
            <polygon points="0,0 2.5,0 2.5,60 0,60"/>
        </g>
	    <g class="InnerPolygon" stroke-linejoin="round"> 
			<rect width="2.5" height="60"/>
	    </g> 
        <desc>Width:2.5 Height:180 Depth:60 Elevation:135</desc>
    </g><g class="FixedFurniture ElectricalAppliance WashingMachine" fill="#ffffff" stroke="#000000" transform="matrix(0,-0.7926,1,0,629.6111,120.8876)" style="fill-opacity: 1; stroke-opacity: 1;">
	   <g class="BoundaryPolygon">
		    <polygon points="0,0 60,0 60,60 0,60"/>
		</g>	
	    <g class="electricitySign" fill="none">
            <path d="M0,0,30,41V20.8L60,60"/>
		</g>
	    <g class="Handle">
		    <path d="M2.7,59.4H57.3"/>
		</g>
        <g class="Direction" fill-opacity="0.9" style="display: none;">
            <polygon points="32.009 55.197 32.009 44.581 29 44.581 29 55.197 25.197 55.197 30.5 60 35.803 55.197 32.009 55.197" fill="#444444"/>
        </g> 
        <g class="Name" fill-opacity="0.9" style="display: none;">
            <text transform="translate(3 12)" font-size="12" font-family="Verdana, Sans-Serif">WM</text>
        </g>
        <desc>Width:60 Height:90 Depth:60 Elevation:0</desc>
    </g><g class="FixedFurniture Toilet" fill="#ffffff" stroke="#000000" transform="matrix(1,0,0,1,821.2985,140.3295)" style="fill-opacity: 1; stroke-opacity: 1;">
	   <g class="BoundaryPolygon" fill="none" stroke="none"> 
            <polygon points="0,0 41,0 41,71 0,71"/>
		</g>
        <g class="InnerPolygon">
            <rect x="0.502" y="0.5" width="39.989" height="17.98"/>
            <path d="M40.491,44.237S41.619,70.5,20.907,70.5C-.523,70.5.6,44.237.6,44.237L.5,18.48H40.491Z"/>
            <rect x="17.318" y="7.975" width="6.357" height="3.03"/>
        </g>
        <desc>Width:41 Height:85 Depth:71 Elevation:0</desc>
    </g><g class="FixedFurniture BaseCabinet" fill="#ffffff" stroke="#000000" transform="matrix(0,1,-1,0,918.6878,204.382)" style="fill-opacity: 1; stroke-opacity: 1;">
        <g class="BoundaryPolygon">
            <polygon points="0.00,0.00 56.57,0.00 56.57,47.24 0.00,47.24 "/>
        </g>
        <g class="Direction" fill-opacity="0.9" style="display: none;">
            <polygon points="30.18,43.46 30.18,32.84 27.17,32.84 27.17,43.46 23.37,43.46 28.67,48.26 33.97,43.46 30.18,43.46 " fill="#444444"/>
        </g> 
        <g class="Name" fill-opacity="0.9" style="display: none;">
            <text transform="translate(3 12)" font-size="12" font-family="Verdana, Sans-Serif">CB</text>
        </g>
        <desc>Width:60 Height:90 Depth:60 Elevation:0</desc>
    </g><g class="FixedFurniture RoundSink" fill="#ffffff" stroke="#000000" transform="matrix(0,1.0646,-0.712,0,911.4391,208.7248)" style="fill-opacity: 1; stroke-opacity: 1;">
        <g class="BoundaryPolygon" fill="none" stroke="none">
            <polygon points="0,0 46,0 46,50 0,50"/>
        </g>
        <g class="InnerPolygon">
            <circle cx="23" cy="27" r="23"/>
        </g>
        <g class="OuterDrain">
            <circle cx="23" cy="27" r="3.5"/>
        </g>
        <g class="InnerDrain">
            <circle cx="23" cy="27" r="2"/>
        </g>
        <g class="Faucet">
            <polygon points="20 0 26 0 26 14 20 14 20 0"/>
        </g>
        <g class="Name" fill-opacity="0.9" style="display: none;">
            <text transform="translate(6.5 24.5)" font-size="12" font-family="Verdana, Sans-Serif">SINK</text>
        </g>
        <desc>Width:46 Height:90 Depth:50 Elevation:60</desc>
    </g><g class="FixedFurniture Closet" fill="#ffffff" stroke="#000000" transform="matrix(-1,0,0,-1,769.1253,438.2282)" style="fill-opacity: 1; stroke-opacity: 1;">
        <g class="BoundaryPolygon">
            <polygon points="0.00,0.00 50.29,0.00 50.29,60.00 0.00,60.00 "/>
        </g>
        <g class="Direction" fill-opacity="0.9" style="display: none;">
            <polygon points="26.41,54.70 26.41,44.08 23.40,44.08 23.40,54.70 19.60,54.70 24.90,60.00 30.20,54.70 26.41,54.70 " fill="#444444"/>
        </g> 
        <g class="Name" fill-opacity="0.9" style="display: none;">
            <text transform="translate(3 12)" font-size="12" font-family="Verdana, Sans-Serif">CL</text>
        </g>
        <desc>Width:60 Height:200 Depth:60 Elevation:0</desc>
     </g><g class="FixedFurniture CoatCloset" fill="#ffffff" stroke="#000000" transform="matrix(-1,0,0,-1,718.8362,438.2281)" style="fill-opacity: 1; stroke-opacity: 1;">
        <g class="BoundaryPolygon">
            <polygon points="0.00,0.00 50.29,0.00 50.29,60.00 0.00,60.00 "/>
        </g>
        <g class="Hanger" stroke="#9a9a9a" stroke-dasharray="5,5">
            <line x1="0" y1="30" x2="50.28915907490589" y2="30"/>
        </g>
        <g class="Direction" fill-opacity="0.9" style="display: none;">
            <polygon points="26.41,54.70 26.41,44.08 23.40,44.08 23.40,54.70 19.60,54.70 24.90,60.00 30.20,54.70 26.41,54.70 " fill="#444444"/>
        </g> 
        <g class="Name" fill-opacity="0.9" style="display: none;">
            <text transform="translate(3 12)" font-size="12" font-family="Verdana, Sans-Serif">CWH</text>
        </g>
        <desc>Width:60 Height:200 Depth:60 Elevation:0</desc>
     </g><g class="FixedFurniture Closet" fill="#ffffff" stroke="#000000" transform="matrix(-1,0,0,-1,668.547,438.2281)" style="fill-opacity: 1; stroke-opacity: 1;">
        <g class="BoundaryPolygon">
            <polygon points="0.00,0.00 50.29,0.00 50.29,60.00 0.00,60.00 "/>
        </g>
        <g class="Direction" fill-opacity="0.9" style="display: none;">
            <polygon points="26.41,54.70 26.41,44.08 23.40,44.08 23.40,54.70 19.60,54.70 24.90,60.00 30.20,54.70 26.41,54.70 " fill="#444444"/>
        </g> 
        <g class="Name" fill-opacity="0.9" style="display: none;">
            <text transform="translate(3 12)" font-size="12" font-family="Verdana, Sans-Serif">CL</text>
        </g>
        <desc>Width:60 Height:200 Depth:60 Elevation:0</desc>
     </g><g fill="#0000ff" stroke="#0000ff" style="display: none;" class="SelectionControls"><g style="display: none;" class="rotateControl"><circle cx="848.397752360597" cy="370.92396253677975" r="5" style="stroke : none; fill-opacity: 0.5; cursor:crosshair"/></g><g style="display: none;" class="ResizeNControl"><circle cx="0" cy="0" r="5" style="stroke : none; fill-opacity: 0.5"/></g><g style="display: none;" class="ResizeNEControl"><circle cx="0" cy="0" r="5" style="stroke : none; fill-opacity: 0.5"/></g><g style="display: none;" class="ResizeEControl"><circle cx="0" cy="0" r="5" style="stroke : none; fill-opacity: 0.5"/></g><g style="display: none;" class="ResizeSEControl"><circle cx="0" cy="0" r="5" style="stroke : none; fill-opacity: 0.5"/></g><g style="display: none;" class="ResizeSControl"><circle cx="0" cy="0" r="5" style="stroke : none; fill-opacity: 0.5"/></g><g style="display: none;" class="ResizeSWControl"><circle cx="0" cy="0" r="5" style="stroke : none; fill-opacity: 0.5"/></g><g style="display: none;" class="ResizeWControl"><circle cx="0" cy="0" r="5" style="stroke : none; fill-opacity: 0.5"/></g><g style="display: none;" class="ResizeNWControl"><circle cx="0" cy="0" r="5" style="stroke : none; fill-opacity: 0.5"/></g><g style="display: none;" class="removeControl"><polygon style="stroke : none; fill-opacity: 0.1" points="827.48,400.92 869.32,400.92 869.32,441.13 827.48,441.13 "/></g><g style="display: none;" class="copyPasteControl"><polygon style="stroke : none; fill-opacity: 0.1"/></g><g style="display: none;" class="translateControl"><polygon style="stroke : none; fill-opacity: 0.1; cursor:move" points="827.48,400.92 869.32,400.92 869.32,441.13 827.48,441.13 "/></g></g><g fill="#0000ff" stroke="#0000ff" style="display: none;" class="SelectionControls"><polygon fill="none" stroke="#0000ff" style="" points="618.01,276.52 918.87,276.52 918.87,513.88 618.01,513.88 "/><g style="display: none;" class="rotateControl"><circle cx="768.4365308029799" cy="246.5248125367798" r="5" style="stroke : none; fill-opacity: 0.5; cursor:crosshair"/></g><g style="display: none;" class="ResizeNControl"><circle cx="0" cy="0" r="5" style="stroke : none; fill-opacity: 0.5"/></g><g style="display: none;" class="ResizeNEControl"><circle cx="0" cy="0" r="5" style="stroke : none; fill-opacity: 0.5"/></g><g style="display: none;" class="ResizeEControl"><circle cx="0" cy="0" r="5" style="stroke : none; fill-opacity: 0.5"/></g><g style="display: none;" class="ResizeSEControl"><circle cx="0" cy="0" r="5" style="stroke : none; fill-opacity: 0.5"/></g><g style="display: none;" class="ResizeSControl"><circle cx="0" cy="0" r="5" style="stroke : none; fill-opacity: 0.5"/></g><g style="display: none;" class="ResizeSWControl"><circle cx="0" cy="0" r="5" style="stroke : none; fill-opacity: 0.5"/></g><g style="display: none;" class="ResizeWControl"><circle cx="0" cy="0" r="5" style="stroke : none; fill-opacity: 0.5"/></g><g style="display: none;" class="ResizeNWControl"><circle cx="0" cy="0" r="5" style="stroke : none; fill-opacity: 0.5"/></g><g style="display: none;" class="removeControl"><polygon style="stroke : none; fill-opacity: 0.1"/></g><g style="display: none;" class="copyPasteControl"><polygon style="stroke : none; fill-opacity: 0.1"/></g><g style="display: none;" class="translateControl"><polygon style="stroke : none; fill-opacity: 0.1; cursor:move"/></g></g><g class="FixedFurniture CoatCloset" fill="#ffffff" stroke="#000000" transform="matrix(0,1,-1,0,918.2848,276.5248)" style="fill-opacity: 1; stroke-opacity: 1;">
        <g class="BoundaryPolygon">
            <polygon points="0.00,0.00 60.00,0.00 60.00,44.72 0.00,44.72 "/>
        </g>
        <g class="Hanger" stroke="#9a9a9a" stroke-dasharray="5,5">
            <line x1="0" y1="22.361637918640515" x2="60" y2="22.361637918640515"/>
        </g>
        <g class="Direction" fill-opacity="0.9" style="display: none;">
            <polygon points="31.51,40.77 31.51,30.15 28.50,30.15 28.50,40.77 24.70,40.77 30.00,46.07 35.30,40.77 31.51,40.77 " fill="#444444"/>
        </g> 
        <g class="Name" fill-opacity="0.9" style="display: none;">
            <text transform="translate(3 12)" font-size="12" font-family="Verdana, Sans-Serif">CWH</text>
        </g>
        <desc>Width:60 Height:200 Depth:60 Elevation:0</desc>
     </g></g></g></g></svg>
