<?xml version="1.0"?>
<svg xmlns="http://www.w3.org/2000/svg" xmlns:xlink="http://www.w3.org/1999/xlink" height="1076.6743392944336" version="1.1" width="1418.4827270507812" id="temp" viewBox="0 0 1418.4827270507812 1076.6743392944336"><defs/><g id="Model" class="Model v1-1"><g class="Floor"><g id="Floor-1" class="Floorplan Floor-1"><g id="81b4a83b-0751-40c2-a9db-639e33537312" fill="#ffffff" stroke="#ffffff" style="fill-opacity: 1; stroke-opacity: 1; stroke-width: 0.2;" class="Space DraughtLobby"><polygon points="654.81,838.33 654.81,754.43 897.12,754.43 896.81,840.01 654.81,838.33 654.81,838.33 "/><g transform="matrix(1,0,0,1,654.8087,754.4264)" class="Dimension"><g transform="matrix(1,0,0,1,0,0)" style="display: none;" class="Visual"><g id="mark1" fill="#000000" stroke="none" transform="matrix(1,0,0,1,121.1616,0)" style="fill-opacity: 1; pointer-events: visible;" class="DimensionMark"><polygon points="-5,5,0,0,5,5"/></g><g id="mark2" fill="#000000" stroke="none" transform="matrix(1,0,0,1,242.1543,42.7887)" style="fill-opacity: 1; pointer-events: visible;" class="DimensionMark"><polygon points="-5,-5,0,0,-5,5"/></g><g id="mark3" fill="#000000" stroke="none" transform="matrix(1,0,0,1,121.1616,84.7414)" style="fill-opacity: 1; pointer-events: visible;" class="DimensionMark"><polygon points="-5,-5,0,0,5,-5"/></g><g id="mark4" fill="#000000" stroke="none" transform="matrix(1,0,0,1,0,42.7887)" style="fill-opacity: 1; pointer-events: visible;" class="DimensionMark"><polygon points="5,5,0,0,5,-5"/></g></g><g transform="matrix(1,0,0,1,108.4304,51.7848)" class="SpaceDimensionsLabel"><g id="NameLabel" style="display: block;" class="TextLabel NameLabel"><text x="0" y="0em" fill="#000000" stroke="none" style="font-family: Verdana; font-size: 33px; fill-opacity: 1; cursor: default;">TK</text></g><g id="DimensionMeasureLabel" transform="matrix(1,0,0,1,-76.5078,39.6094)" style="display: none;" class="TextLabel DimensionMeasureLabel"><text x="0" y="0em" fill="#000000" stroke="none" style="font-family: Verdana; font-size: 33px; fill-opacity: 1; cursor: default;">7'11" x 2'9"</text><text x="0" y="0"/></g></g></g></g><g id="3c8a9a59-8bc8-47d4-9089-c767ee4a0e74" fill="#ffffff" stroke="#ffffff" style="fill-opacity: 1; stroke-opacity: 1; stroke-width: 0.2;" class="Space Entry Lobby"><polygon points="654.81,743.43 654.81,515.58 846.92,515.58 846.92,614.50 896.81,614.50 896.81,743.43 654.81,743.43 654.81,743.43 "/><g transform="matrix(1,0,0,1,654.8087,515.5846)" class="Dimension"><g transform="matrix(1,0,0,1,0,0)" style="display: none;" class="Visual"><g id="mark1" fill="#000000" stroke="none" transform="matrix(1,0,0,1,120.9985,0)" style="fill-opacity: 1; pointer-events: visible;" class="DimensionMark"><polygon points="-5,5,0,0,5,5"/></g><g id="mark2" fill="#000000" stroke="none" transform="matrix(1,0,0,1,241.997,113.9209)" style="fill-opacity: 1; pointer-events: visible;" class="DimensionMark"><polygon points="-5,-5,0,0,-5,5"/></g><g id="mark3" fill="#000000" stroke="none" transform="matrix(1,0,0,1,120.9985,227.8417)" style="fill-opacity: 1; pointer-events: visible;" class="DimensionMark"><polygon points="-5,-5,0,0,5,-5"/></g><g id="mark4" fill="#000000" stroke="none" transform="matrix(1,0,0,1,0,113.9209)" style="fill-opacity: 1; pointer-events: visible;" class="DimensionMark"><polygon points="5,5,0,0,5,-5"/></g></g><g transform="matrix(1,0,0,1,103.4193,143.1019)" class="SpaceDimensionsLabel"><g id="NameLabel" style="display: block;" class="TextLabel NameLabel"><text x="0" y="0em" fill="#000000" stroke="none" style="font-family: Verdana; font-size: 33px; fill-opacity: 1; cursor: default;">ET</text></g><g id="DimensionMeasureLabel" transform="matrix(1,0,0,1,-76.7422,39.6093)" style="display: none;" class="TextLabel DimensionMeasureLabel"><text x="0" y="0em" fill="#000000" stroke="none" style="font-family: Verdana; font-size: 33px; fill-opacity: 1; cursor: default;">7'11" x 7'6"</text><text x="0" y="0"/></g></g></g></g><g id="dd45e065-e19b-41d2-b8a6-d708480576b4" fill="#ffffff" stroke="#ffffff" style="fill-opacity: 1; stroke-opacity: 1; stroke-width: 0.2;" class="Space Room"><polygon points="907.81,839.23 907.81,614.50 1148.38,614.50 1148.38,839.26 907.81,839.23 907.81,839.23 "/><g transform="matrix(1,0,0,1,907.8057,614.5002)" class="Dimension"><g transform="matrix(1,0,0,1,0,0)" style="display: none;" class="Visual"><g id="mark1" fill="#000000" stroke="none" transform="matrix(1,0,0,1,120.2879,0)" style="fill-opacity: 1; pointer-events: visible;" class="DimensionMark"><polygon points="-5,5,0,0,5,5"/></g><g id="mark2" fill="#000000" stroke="none" transform="matrix(1,0,0,1,240.5758,112.3821)" style="fill-opacity: 1; pointer-events: visible;" class="DimensionMark"><polygon points="-5,-5,0,0,-5,5"/></g><g id="mark3" fill="#000000" stroke="none" transform="matrix(1,0,0,1,120.2879,224.7475)" style="fill-opacity: 1; pointer-events: visible;" class="DimensionMark"><polygon points="-5,-5,0,0,5,-5"/></g><g id="mark4" fill="#000000" stroke="none" transform="matrix(1,0,0,1,0,112.3821)" style="fill-opacity: 1; pointer-events: visible;" class="DimensionMark"><polygon points="5,5,0,0,5,-5"/></g></g><g transform="matrix(1,0,0,1,111.5933,126.1449)" class="SpaceDimensionsLabel"><g id="NameLabel" style="display: block;" class="TextLabel NameLabel"><text x="0" y="0em" fill="#000000" stroke="none" style="font-family: Verdana; font-size: 33px; fill-opacity: 1; cursor: default;">H</text></g><g id="DimensionMeasureLabel" transform="matrix(1,0,0,1,-85.4063,39.6094)" style="display: none;" class="TextLabel DimensionMeasureLabel"><text x="0" y="0em" fill="#000000" stroke="none" style="font-family: Verdana; font-size: 33px; fill-opacity: 1; cursor: default;">7'11" x 7'4"</text><text x="0" y="0"/></g></g></g></g><g id="67a7a43a-d4b2-4a14-8835-14df8c613bb2" fill="#ffffff" stroke="#000000" style="fill-opacity: 1; stroke-opacity: 1; stroke-width: 0.2;" class="Space Outdoor Porch"><polygon points="857.92,860.33 857.92,1076.28 665.81,1076.67 665.81,860.33 857.92,860.33 857.92,860.33 "/><g transform="matrix(1,0,0,1,665.8087,860.3282)" class="Dimension"><g transform="matrix(1,0,0,1,0,0)" style="display: none;" class="Visual"><g id="mark1" fill="#000000" stroke="none" transform="matrix(1,0,0,1,96.0541,0)" style="fill-opacity: 1; pointer-events: visible;" class="DimensionMark"><polygon points="-5,5,0,0,5,5"/></g><g id="mark2" fill="#000000" stroke="none" transform="matrix(1,0,0,1,192.1091,108.173)" style="fill-opacity: 1; pointer-events: visible;" class="DimensionMark"><polygon points="-5,-5,0,0,-5,5"/></g><g id="mark3" fill="#000000" stroke="none" transform="matrix(1,0,0,1,96.0541,216.1477)" style="fill-opacity: 1; pointer-events: visible;" class="DimensionMark"><polygon points="-5,-5,0,0,5,-5"/></g><g id="mark4" fill="#000000" stroke="none" transform="matrix(1,0,0,1,0,108.173)" style="fill-opacity: 1; pointer-events: visible;" class="DimensionMark"><polygon points="5,5,0,0,5,-5"/></g></g><g transform="matrix(1,0,0,1,53.2767,121.1633)" class="SpaceDimensionsLabel"><g id="NameLabel" style="display: block;" class="TextLabel NameLabel"><text x="0" y="0em" fill="#000000" stroke="none" style="font-family: Verdana; font-size: 33px; fill-opacity: 1; cursor: default;">KUISTI</text></g><g id="DimensionMeasureLabel" transform="matrix(1,0,0,1,-81.1562,79)" style="display: none;" class="TextLabel DimensionMeasureLabel"><text x="52.671875" y="-1.2em" fill="#000000" stroke="none" style="font-family: Verdana; font-size: 33px; fill-opacity: 1; cursor: default;">6'4" x 7'1"</text><text x="0" y="0em" fill="#000000" stroke="none" style="font-family: Verdana; font-size: 33px; fill-opacity: 1; cursor: default;">1.92 m x 2.16 m</text></g></g></g></g><g id="9e7d9508-b7db-444b-bb71-b3695456b4f4" fill="#ffffff" stroke="#ffffff" style="fill-opacity: 1; stroke-opacity: 1; stroke-width: 0.2;" class="Space Undefined"><polygon points="643.81,838.00 643.81,1068.67 429.12,1068.67 429.12,836.00 "/><g transform="matrix(1,0,0,1,429.1235,836.9999)" class="Dimension"><g transform="matrix(1,0,0,1,0,0)" style="display: none;" class="Visual"><g id="mark1" fill="#000000" stroke="none" transform="matrix(1,0,0,1,107.3333,0)" style="fill-opacity: 1; pointer-events: visible;" class="DimensionMark"><polygon points="-5,5,0,0,5,5"/></g><g id="mark2" fill="#000000" stroke="none" transform="matrix(1,0,0,1,214.6852,115.3372)" style="fill-opacity: 1; pointer-events: visible;" class="DimensionMark"><polygon points="-5,-5,0,0,-5,5"/></g><g id="mark3" fill="#000000" stroke="none" transform="matrix(1,0,0,1,107.3333,231.6744)" style="fill-opacity: 1; pointer-events: visible;" class="DimensionMark"><polygon points="-5,-5,0,0,5,-5"/></g><g id="mark4" fill="#000000" stroke="none" transform="matrix(1,0,0,1,0,115.3372)" style="fill-opacity: 1; pointer-events: visible;" class="DimensionMark"><polygon points="5,5,0,0,5,-5"/></g></g><g transform="matrix(1,0,0,1,107.1882,115.8365)" class="SpaceDimensionsLabel"><g id="NameLabel" style="display: block;" class="TextLabel NameLabel"><text x="0" y="0em" fill="#000000" stroke="none" style="font-family: Verdana; font-size: 33px; fill-opacity: 1; cursor: default;">UNDEFINED</text></g><g id="DimensionMeasureLabel" transform="matrix(1,0,0,1,-40.5156,80.2969)" style="display: none;" class="TextLabel DimensionMeasureLabel"><text x="52.65625" y="-1.2em" fill="#000000" stroke="none" style="font-family: Verdana; font-size: 33px; fill-opacity: 1; cursor: default;">7'1" x 7'7"</text><text x="0" y="0em" fill="#000000" stroke="none" style="font-family: Verdana; font-size: 33px; fill-opacity: 1; cursor: default;">2.15 m x 2.32 m</text></g></g></g></g><g id="8a3631b1-ea45-43bd-94ec-ba0aa5f1e2b6" fill="#ffffff" stroke="#ffffff" style="fill-opacity: 1; stroke-opacity: 1; stroke-width: 0.2;" class="Space Kitchen"><polygon points="643.81,838.00 429.12,836.00 429.12,832.43 292.31,832.77 292.31,833.00 178.00,833.00 177.69,526.58 643.81,526.58 "/><g transform="matrix(1,0,0,1,177.849,526.5846)" class="Dimension"><g transform="matrix(1,0,0,1,0,0)" style="display: none;" class="Visual"><g id="mark1" fill="#000000" stroke="none" transform="matrix(1,0,0,1,232.888,0)" style="fill-opacity: 1; pointer-events: visible;" class="DimensionMark"><polygon points="-5,5,0,0,5,5"/></g><g id="mark2" fill="#000000" stroke="none" transform="matrix(1,0,0,1,465.9597,155.7075)" style="fill-opacity: 1; pointer-events: visible;" class="DimensionMark"><polygon points="-5,-5,0,0,-5,5"/></g><g id="mark3" fill="#000000" stroke="none" transform="matrix(1,0,0,1,232.888,305.8898)" style="fill-opacity: 1; pointer-events: visible;" class="DimensionMark"><polygon points="-5,-5,0,0,5,-5"/></g><g id="mark4" fill="#000000" stroke="none" transform="matrix(1,0,0,1,0,155.7075)" style="fill-opacity: 1; pointer-events: visible;" class="DimensionMark"><polygon points="5,5,0,0,5,-5"/></g></g><g transform="matrix(1,0,0,1,231.4168,168.094)" class="SpaceDimensionsLabel" style="display: block;"><g id="NameLabel" style="display: block;" class="TextLabel NameLabel"><text x="0" y="0em" fill="#000000" stroke="none" style="font-family: Verdana; font-size: 33px; fill-opacity: 1; cursor: default;">K</text></g><g id="DimensionMeasureLabel" transform="matrix(1,0,0,1,-128.5234,80.125)" style="display: none;" class="TextLabel DimensionMeasureLabel"><text x="31.6875" y="-1.2em" fill="#000000" stroke="none" style="font-family: Verdana; font-size: 33px; fill-opacity: 1; cursor: default;">15'3" x 10'0"</text><text x="0" y="0em" fill="#000000" stroke="none" style="font-family: Verdana; font-size: 33px; fill-opacity: 1; cursor: default;">4.66 m x 3.06 m</text></g></g></g></g><g id="809dead8-9ce4-4857-99cb-4d214ecccd99" fill="#ffffff" stroke="#ffffff" style="fill-opacity: 1; stroke-opacity: 1; stroke-width: 0.2;" class="Space LivingRoom"><polygon points="846.92,75.00 846.92,515.58 177.69,515.58 177.69,74.87 "/><g transform="matrix(1,0,0,1,177.693,74.9338)" class="Dimension"><g transform="matrix(1,0,0,1,0,0)" style="display: none;" class="Visual"><g id="mark1" fill="#000000" stroke="none" transform="matrix(1,0,0,1,334.6124,0)" style="fill-opacity: 1; pointer-events: visible;" class="DimensionMark"><polygon points="-5,5,0,0,5,5"/></g><g id="mark2" fill="#000000" stroke="none" transform="matrix(1,0,0,1,669.2247,220.2923)" style="fill-opacity: 1; pointer-events: visible;" class="DimensionMark"><polygon points="-5,-5,0,0,-5,5"/></g><g id="mark3" fill="#000000" stroke="none" transform="matrix(1,0,0,1,334.6124,440.6508)" style="fill-opacity: 1; pointer-events: visible;" class="DimensionMark"><polygon points="-5,-5,0,0,5,-5"/></g><g id="mark4" fill="#000000" stroke="none" transform="matrix(1,0,0,1,0,220.2923)" style="fill-opacity: 1; pointer-events: visible;" class="DimensionMark"><polygon points="5,5,0,0,5,-5"/></g></g><g transform="matrix(1,0,0,1,298.8175,233.443)" class="SpaceDimensionsLabel" style="display: block;"><g id="NameLabel" style="display: block;" class="TextLabel NameLabel"><text x="0" y="0em" fill="#000000" stroke="none" style="font-family: Verdana; font-size: 33px; fill-opacity: 1; cursor: default;">OH</text></g><g id="DimensionMeasureLabel" transform="matrix(1,0,0,1,-114.6093,79.5)" style="display: none;" class="TextLabel DimensionMeasureLabel"><text x="21.203125" y="-1.2em" fill="#000000" stroke="none" style="font-family: Verdana; font-size: 33px; fill-opacity: 1; cursor: default;">21'11" x 14'5"</text><text x="0" y="0em" fill="#000000" stroke="none" style="font-family: Verdana; font-size: 33px; fill-opacity: 1; cursor: default;">6.69 m x 4.41 m</text></g></g></g></g><g id="c32bd83e-dd4e-4dd3-bae8-da1d65116904" fill="#ffffff" stroke="#ffffff" style="fill-opacity: 1; stroke-opacity: 1; stroke-width: 0.2;" class="Space Room"><polygon points="1396.48,838.33 1159.38,838.33 1159.38,603.50 857.92,603.50 857.92,454.72 1396.48,454.72 "/><g transform="matrix(1,0,0,1,857.9178,454.725)" class="Dimension"><g transform="matrix(1,0,0,1,0,0)" style="display: none;" class="Visual"><g id="mark1" fill="#000000" stroke="none" transform="matrix(1,0,0,1,301.4638,0)" style="fill-opacity: 1; pointer-events: visible;" class="DimensionMark"><polygon points="-5,5,0,0,5,5"/></g><g id="mark2" fill="#000000" stroke="none" transform="matrix(1,0,0,1,538.565,148.7752)" style="fill-opacity: 1; pointer-events: visible;" class="DimensionMark"><polygon points="-5,-5,0,0,-5,5"/></g><g id="mark3" fill="#000000" stroke="none" transform="matrix(1,0,0,1,301.4638,383.6032)" style="fill-opacity: 1; pointer-events: visible;" class="DimensionMark"><polygon points="-5,-5,0,0,5,-5"/></g><g id="mark4" fill="#000000" stroke="none" transform="matrix(1,0,0,1,0,148.7752)" style="fill-opacity: 1; pointer-events: visible;" class="DimensionMark"><polygon points="5,5,0,0,5,-5"/></g></g><g transform="matrix(1,0,0,1,403.683,191.425)" class="SpaceDimensionsLabel" style="display: block;"><g id="NameLabel" style="display: block;" class="TextLabel NameLabel"><text x="0" y="0em" fill="#000000" stroke="none" style="font-family: Verdana; font-size: 33px; fill-opacity: 1; cursor: default;">H</text></g><g id="DimensionMeasureLabel" transform="matrix(1,0,0,1,-127.5859,79.1562)" style="display: none;" class="TextLabel DimensionMeasureLabel"><text x="31.6875" y="-1.2em" fill="#000000" stroke="none" style="font-family: Verdana; font-size: 33px; fill-opacity: 1; cursor: default;">17'8" x 12'7"</text><text x="0" y="0em" fill="#000000" stroke="none" style="font-family: Verdana; font-size: 33px; fill-opacity: 1; cursor: default;">5.39 m x 3.84 m</text></g></g></g></g><g id="30432c41-9e06-40f2-a88b-570b55a69b5a" fill="#ffffff" stroke="#ffffff" style="fill-opacity: 1; stroke-opacity: 1; stroke-width: 0.2;" class="Space Room"><polygon points="1396.48,443.72 1125.55,443.72 1125.55,75.98 1396.48,75.98 "/><g transform="matrix(1,0,0,1,1125.5531,75.9808)" class="Dimension"><g transform="matrix(1,0,0,1,0,0)" style="display: none;" class="Visual"><g id="mark1" fill="#000000" stroke="none" transform="matrix(1,0,0,1,135.4648,0)" style="fill-opacity: 1; pointer-events: visible;" class="DimensionMark"><polygon points="-5,5,0,0,5,5"/></g><g id="mark2" fill="#000000" stroke="none" transform="matrix(1,0,0,1,270.9297,183.8721)" style="fill-opacity: 1; pointer-events: visible;" class="DimensionMark"><polygon points="-5,-5,0,0,-5,5"/></g><g id="mark3" fill="#000000" stroke="none" transform="matrix(1,0,0,1,135.4648,367.7442)" style="fill-opacity: 1; pointer-events: visible;" class="DimensionMark"><polygon points="-5,-5,0,0,5,-5"/></g><g id="mark4" fill="#000000" stroke="none" transform="matrix(1,0,0,1,0,183.8721)" style="fill-opacity: 1; pointer-events: visible;" class="DimensionMark"><polygon points="5,5,0,0,5,-5"/></g></g><g transform="matrix(1,0,0,1,124.9567,194.5759)" class="SpaceDimensionsLabel" style="display: block;"><g id="NameLabel" style="display: block;" class="TextLabel NameLabel"><text x="0" y="0em" fill="#000000" stroke="none" style="font-family: Verdana; font-size: 33px; fill-opacity: 1; cursor: default;">H</text></g><g id="DimensionMeasureLabel" transform="matrix(1,0,0,1,-127.5704,79.3282)" style="display: none;" class="TextLabel DimensionMeasureLabel"><text x="31.6796875" y="-1.2em" fill="#000000" stroke="none" style="font-family: Verdana; font-size: 33px; fill-opacity: 1; cursor: default;">8'11" x 12'1"</text><text x="0" y="0em" fill="#000000" stroke="none" style="font-family: Verdana; font-size: 33px; fill-opacity: 1; cursor: default;">2.71 m x 3.68 m</text></g></g></g></g><g id="84c93e62-b701-4175-917d-a865d40511ed" fill="#ffffff" stroke="#ffffff" style="fill-opacity: 1; stroke-opacity: 1; stroke-width: 0.2;" class="Space Room"><polygon points="1114.55,75.98 1114.55,443.72 857.92,443.72 857.92,75.00 "/><g transform="matrix(1,0,0,1,857.9178,75.4904)" class="Dimension"><g transform="matrix(1,0,0,1,0,0)" style="display: none;" class="Visual"><g id="mark1" fill="#000000" stroke="none" transform="matrix(1,0,0,1,128.3158,0)" style="fill-opacity: 1; pointer-events: visible;" class="DimensionMark"><polygon points="-5,5,0,0,5,5"/></g><g id="mark2" fill="#000000" stroke="none" transform="matrix(1,0,0,1,256.6354,183.8721)" style="fill-opacity: 1; pointer-events: visible;" class="DimensionMark"><polygon points="-5,-5,0,0,-5,5"/></g><g id="mark3" fill="#000000" stroke="none" transform="matrix(1,0,0,1,128.3158,368.2346)" style="fill-opacity: 1; pointer-events: visible;" class="DimensionMark"><polygon points="-5,-5,0,0,5,-5"/></g><g id="mark4" fill="#000000" stroke="none" transform="matrix(1,0,0,1,0,183.8721)" style="fill-opacity: 1; pointer-events: visible;" class="DimensionMark"><polygon points="5,5,0,0,5,-5"/></g></g><g transform="matrix(1,0,0,1,121.5505,194.6559)" class="SpaceDimensionsLabel" style="display: block;"><g id="NameLabel" style="display: block;" class="TextLabel NameLabel"><text x="0" y="0em" fill="#000000" stroke="none" style="font-family: Verdana; font-size: 33px; fill-opacity: 1; cursor: default;">H</text></g><g id="DimensionMeasureLabel" transform="matrix(1,0,0,1,-127.5859,79.1562)" style="display: none;" class="TextLabel DimensionMeasureLabel"><text x="42.1796875" y="-1.2em" fill="#000000" stroke="none" style="font-family: Verdana; font-size: 33px; fill-opacity: 1; cursor: default;">8'5" x 12'1"</text><text x="0" y="0em" fill="#000000" stroke="none" style="font-family: Verdana; font-size: 33px; fill-opacity: 1; cursor: default;">2.57 m x 3.68 m</text></g></g></g></g><g id="8ef2507a-a7c2-4fb1-9b3a-a92557dc3aab" fill="#ffffff" stroke="#ffffff" style="fill-opacity: 1; stroke-opacity: 1; stroke-width: 0.2;" class="Space Bath"><polygon points="418.12,1068.67 303.31,1068.67 303.31,844.00 418.12,843.46 "/><g transform="matrix(1,0,0,1,303.3083,843.7282)" class="Dimension"><g transform="matrix(1,0,0,1,0,0)" style="display: none;" class="Visual"><g id="mark1" fill="#000000" stroke="none" transform="matrix(1,0,0,1,57.4089,0)" style="fill-opacity: 1; pointer-events: visible;" class="DimensionMark"><polygon points="-5,5,0,0,5,5"/></g><g id="mark2" fill="#000000" stroke="none" transform="matrix(1,0,0,1,114.8152,112.3371)" style="fill-opacity: 1; pointer-events: visible;" class="DimensionMark"><polygon points="-5,-5,0,0,-5,5"/></g><g id="mark3" fill="#000000" stroke="none" transform="matrix(1,0,0,1,57.4089,224.9461)" style="fill-opacity: 1; pointer-events: visible;" class="DimensionMark"><polygon points="-5,-5,0,0,5,-5"/></g><g id="mark4" fill="#000000" stroke="none" transform="matrix(1,0,0,1,0,112.3371)" style="fill-opacity: 1; pointer-events: visible;" class="DimensionMark"><polygon points="5,5,0,0,5,-5"/></g></g><g transform="matrix(1,0,0,1,26.1867,125.134)" class="SpaceDimensionsLabel" style="display: block;"><g id="NameLabel" style="display: block;" class="TextLabel NameLabel"><text x="0" y="0em" fill="#000000" stroke="none" style="font-family: Verdana; font-size: 33px; fill-opacity: 1; cursor: default;">KPH</text></g><g id="DimensionMeasureLabel" transform="matrix(1,0,0,1,-106.2031,78.625)" style="display: none;" class="TextLabel DimensionMeasureLabel"><text x="52.6640625" y="-1.2em" fill="#000000" stroke="none" style="font-family: Verdana; font-size: 33px; fill-opacity: 1; cursor: default;">3'9" x 7'5"</text><text x="0" y="0em" fill="#000000" stroke="none" style="font-family: Verdana; font-size: 33px; fill-opacity: 1; cursor: default;">1.15 m x 2.25 m</text></g></g></g></g><g id="cc00ca6a-ab02-40df-a7ae-e8a9267b8ebb" fill="#ffffff" stroke="#ffffff" style="fill-opacity: 1; stroke-opacity: 1; stroke-width: 0.2;" class="Space Sauna"><polygon points="292.31,1068.67 177.69,1068.67 178.00,844.00 292.31,844.00 "/><g transform="matrix(1,0,0,1,177.8465,844)" class="Dimension"><g transform="matrix(1,0,0,1,0,0)" style="display: none;" class="Visual"><g id="mark1" fill="#000000" stroke="none" transform="matrix(1,0,0,1,57.1542,0)" style="fill-opacity: 1; pointer-events: visible;" class="DimensionMark"><polygon points="-5,5,0,0,5,5"/></g><g id="mark2" fill="#000000" stroke="none" transform="matrix(1,0,0,1,114.4618,112.3373)" style="fill-opacity: 1; pointer-events: visible;" class="DimensionMark"><polygon points="-5,-5,0,0,-5,5"/></g><g id="mark3" fill="#000000" stroke="none" transform="matrix(1,0,0,1,57.1542,224.6743)" style="fill-opacity: 1; pointer-events: visible;" class="DimensionMark"><polygon points="-5,-5,0,0,5,-5"/></g><g id="mark4" fill="#000000" stroke="none" transform="matrix(1,0,0,1,0,112.3373)" style="fill-opacity: 1; pointer-events: visible;" class="DimensionMark"><polygon points="5,5,0,0,5,-5"/></g></g><g transform="matrix(1,0,0,1,45.5298,122.0356)" class="SpaceDimensionsLabel" style="display: block;"><g id="NameLabel" style="display: block;" class="TextLabel NameLabel"><text x="0" y="0em" fill="#000000" stroke="none" style="font-family: Verdana; font-size: 33px; fill-opacity: 1; cursor: default;">S</text></g><g id="DimensionMeasureLabel" transform="matrix(1,0,0,1,-128.7188,79.3281)" style="display: none;" class="TextLabel DimensionMeasureLabel"><text x="52.6640625" y="-1.2em" fill="#000000" stroke="none" style="font-family: Verdana; font-size: 33px; fill-opacity: 1; cursor: default;">3'9" x 7'4"</text><text x="0" y="0em" fill="#000000" stroke="none" style="font-family: Verdana; font-size: 33px; fill-opacity: 1; cursor: default;">1.14 m x 2.25 m</text></g></g></g></g><g id="Wall" fill="#000000" stroke="#000000" style="fill-opacity: 1; stroke-opacity: 1; stroke-width: 0.2;" class="Wall External"><polygon points="155.69,63.85 155.69,1076.67 177.69,1068.67 177.69,74.87 "/><g id="Window" fill="#f0f0ff" stroke="#000000" style="fill-opacity: 1; stroke-width: 1; stroke-opacity: 1;" class="Window Regular"><polygon points="155.69,235.11 155.69,374.72 177.69,374.72 177.69,235.11 "/><g id="Glass" class="Glass"><polygon points="155.69,235.11 155.69,374.72 177.69,374.72 177.69,235.11 "/></g><g id="Panel" class="Panel"><line x1="166.69302952669253" x2="166.69302952669253" y1="242.60541268482868" y2="367.21837952027244"/><line x1="155.69302952669253" x2="177.69302952669253" y1="242.60541268482868" y2="242.60541268482868"/><line x1="155.69302952669253" x2="177.69302952669253" y1="367.21837952027244" y2="367.21837952027244"/></g></g><g id="Window" fill="#f0f0ff" stroke="#000000" style="fill-opacity: 1; stroke-width: 1; stroke-opacity: 1;" class="Window Regular"><polygon points="155.69,628.27 155.69,759.11 177.69,759.11 177.69,628.27 "/><g id="Glass" class="Glass"><polygon points="155.69,628.27 155.69,759.11 177.69,759.11 177.69,628.27 "/></g><g id="Panel" class="Panel"><line x1="166.69302952669256" x2="166.69302952669258" y1="635.769881300208" y2="751.6060760968088"/><line x1="155.69302952669256" x2="177.69302952669256" y1="635.769881300208" y2="635.769881300208"/><line x1="155.69302952669258" x2="177.69302952669258" y1="751.6060760968088" y2="751.6060760968088"/></g></g></g><g id="Wall" fill="#000000" stroke="#000000" style="fill-opacity: 1; stroke-opacity: 1; stroke-width: 0.2;" class="Wall External"><polygon points="155.69,1076.67 665.81,1076.67 643.81,1068.67 177.69,1068.67 "/><g id="Window" fill="#f0f0ff" stroke="#000000" style="fill-opacity: 1; stroke-width: 1; stroke-opacity: 1;" class="Window Regular"><polygon points="201.69,1076.67 255.61,1076.67 255.61,1068.67 201.69,1068.67 "/><g id="Glass" class="Glass"><polygon points="201.69,1076.67 255.61,1076.67 255.61,1068.67 201.69,1068.67 "/></g><g id="Panel" class="Panel"><line x1="209.19245504643348" x2="248.11447443791343" y1="1072.6742715026612" y2="1072.6742715026612"/><line x1="209.19245504643348" x2="209.19245504643348" y1="1076.6742715026612" y2="1068.6742715026612"/><line x1="248.11447443791343" x2="248.11447443791343" y1="1076.6742715026612" y2="1068.6742715026612"/></g></g><g id="Window" fill="#f0f0ff" stroke="#000000" style="fill-opacity: 1; stroke-width: 1; stroke-opacity: 1;" class="Window Regular"><polygon points="343.64,1076.67 392.03,1076.67 392.03,1068.67 343.64,1068.67 "/><g id="Glass" class="Glass"><polygon points="343.64,1076.67 392.03,1076.67 392.03,1068.67 343.64,1068.67 "/></g><g id="Panel" class="Panel"><line x1="351.14101891460285" x2="384.53257477875155" y1="1072.6742715026612" y2="1072.6742715026612"/><line x1="351.14101891460285" x2="351.14101891460285" y1="1076.6742715026612" y2="1068.6742715026612"/><line x1="384.53257477875155" x2="384.53257477875155" y1="1076.6742715026612" y2="1068.6742715026612"/></g></g><g id="Window" fill="#f0f0ff" stroke="#000000" style="fill-opacity: 1; stroke-width: 1; stroke-opacity: 1;" class="Window Regular"><polygon points="506.33,1076.67 573.62,1076.67 573.62,1068.67 506.33,1068.67 "/><g id="Glass" class="Glass"><polygon points="506.33,1076.67 573.62,1076.67 573.62,1068.67 506.33,1068.67 "/></g><g id="Panel" class="Panel"><line x1="513.8288210102646" x2="566.1161272594618" y1="1072.6742715026612" y2="1072.6742715026612"/><line x1="513.8288210102646" x2="513.8288210102646" y1="1076.6742715026612" y2="1068.6742715026612"/><line x1="566.1161272594618" x2="566.1161272594618" y1="1076.6742715026612" y2="1068.6742715026612"/></g></g></g><g id="Wall" fill="#000000" stroke="#000000" style="fill-opacity: 1; stroke-opacity: 1; stroke-width: 0.2;" class="Wall External"><polygon points="665.81,1076.67 665.81,860.33 643.81,838.33 643.81,1068.67 "/><g id="Door" fill="#ffffff" stroke="#000000" style="fill-opacity: 1; stroke-width: 1; stroke-opacity: 1;" class="Door Swing Beside"><polygon points="665.81,1044.40 665.81,973.04 643.81,973.04 643.81,1044.40 "/><g id="Threshold" class="Threshold"><polygon points="665.81,1044.40 665.81,973.04 643.81,973.04 643.81,1044.40 "/></g><g id="Panel" fill="none" style="" class="Panel Right Negative"><g id="PanelArea" fill="none" stroke="none" style="" class="PanelArea"><polygon points="665.81,1044.40 665.81,973.04 643.81,973.04 643.81,1044.40 "/></g><path d="M665.81,973.04 q71.36,0.00 71.36,71.36 l-71.36,0.00Z"/></g></g></g><g id="Wall" fill="#000000" stroke="#000000" style="fill-opacity: 1; stroke-opacity: 1; stroke-width: 0.2;" class="Wall External"><polygon points="665.81,860.33 1418.48,860.33 1396.48,838.33 643.81,838.33 "/><g id="Door" fill="#ffffff" stroke="#000000" style="fill-opacity: 1; stroke-width: 1; stroke-opacity: 1;" class="Door Swing Beside"><polygon points="695.21,860.33 787.36,860.33 787.36,838.33 695.21,838.33 "/><g id="Threshold" class="Threshold"><polygon points="695.21,860.33 787.36,860.33 787.36,838.33 695.21,838.33 "/></g><g id="Panel" fill="none" style="" class="Panel Right Negative"><g id="PanelArea" fill="none" stroke="none" style="" class="PanelArea"><polygon points="695.21,860.33 787.36,860.33 787.36,838.33 695.21,838.33 "/></g><path d="M787.36,860.33 q0.00,92.15 -92.15,92.15 l0.00,-92.15Z"/></g></g><g id="Window" fill="#f0f0ff" stroke="#000000" style="fill-opacity: 1; stroke-width: 1; stroke-opacity: 1;" class="Window Regular"><polygon points="951.56,860.33 1068.42,860.33 1068.42,838.33 951.56,838.33 "/><g id="Glass" class="Glass"><polygon points="951.56,860.33 1068.42,860.33 1068.42,838.33 951.56,838.33 "/></g><g id="Panel" class="Panel"><line x1="959.0636221254883" x2="1060.9203821286915" y1="849.3281883195342" y2="849.3281883195341"/><line x1="959.0636221254883" x2="959.0636221254883" y1="860.3281883195342" y2="838.3281883195342"/><line x1="1060.9203821286915" x2="1060.9203821286915" y1="860.3281883195341" y2="838.3281883195341"/></g></g></g><g id="Wall" fill="#000000" stroke="#000000" style="fill-opacity: 1; stroke-opacity: 1; stroke-width: 0.2;" class="Wall External"><polygon points="1418.48,860.33 1418.48,65.00 1396.48,75.98 1396.48,838.33 "/><g id="Window" fill="#f0f0ff" stroke="#000000" style="fill-opacity: 1; stroke-width: 1; stroke-opacity: 1;" class="Window Regular"><polygon points="1418.48,361.31 1418.48,186.89 1396.48,186.89 1396.48,361.31 "/><g id="Glass" class="Glass"><polygon points="1418.48,361.31 1418.48,186.89 1396.48,186.89 1396.48,361.31 "/></g><g id="Panel" class="Panel"><line x1="1407.4827972850558" x2="1407.4827972850558" y1="353.80524002614635" y2="194.3866329035452"/><line x1="1418.4827972850558" x2="1396.4827972850558" y1="353.80524002614635" y2="353.80524002614635"/><line x1="1418.4827972850558" x2="1396.4827972850558" y1="194.3866329035452" y2="194.3866329035452"/></g></g><g id="Window" fill="#f0f0ff" stroke="#000000" style="fill-opacity: 1; stroke-width: 1; stroke-opacity: 1;" class="Window Regular"><polygon points="1418.48,760.89 1418.48,574.13 1396.48,574.13 1396.48,760.89 "/><g id="Glass" class="Glass"><polygon points="1418.48,760.89 1418.48,574.13 1396.48,574.13 1396.48,760.89 "/></g><g id="Panel" class="Panel"><line x1="1407.4827972850558" x2="1407.4827972850558" y1="753.3918377173245" y2="581.6255590333398"/><line x1="1418.4827972850558" x2="1396.4827972850558" y1="753.3918377173245" y2="753.3918377173245"/><line x1="1418.4827972850558" x2="1396.4827972850558" y1="581.6255590333398" y2="581.6255590333398"/></g></g></g><g id="Wall" fill="#000000" stroke="#000000" style="fill-opacity: 1; stroke-opacity: 1; stroke-width: 0.2;" class="Wall External"><polygon points="1418.48,65.00 155.69,63.85 177.69,74.87 1396.48,75.98 "/><g id="Window" fill="#f0f0ff" stroke="#000000" style="fill-opacity: 1; stroke-width: 1; stroke-opacity: 1;" class="Window Regular"><polygon points="422.52,64.09 290.67,63.97 290.66,74.97 422.51,75.09 "/><g id="Glass" class="Glass"><polygon points="422.52,64.09 290.67,63.97 290.66,74.97 422.51,75.09 "/></g><g id="Panel" class="Panel"><line x1="415.0172042067113" x2="298.16566627798727" y1="69.58443174873022" y2="69.47771756544907"/><line x1="415.0222270568483" x2="415.01218135657433" y1="64.0844340422783" y2="75.08442945518216"/><line x1="298.17068912812425" x2="298.1606434278503" y1="63.97771985899714" y2="74.977715271901"/></g></g><g id="Window" fill="#f0f0ff" stroke="#000000" style="fill-opacity: 1; stroke-width: 1; stroke-opacity: 1;" class="Window Regular"><polygon points="682.12,64.33 552.32,64.21 552.31,75.21 682.11,75.33 "/><g id="Glass" class="Glass"><polygon points="682.12,64.33 552.32,64.21 552.31,75.21 682.11,75.33 "/></g><g id="Panel" class="Panel"><line x1="674.6198294522452" x2="559.8171104643965" y1="69.82151277155441" y2="69.71666966368947"/><line x1="674.6248523023821" x2="674.6148066021082" y1="64.32151506510247" y2="75.32151047800633"/><line x1="559.8221333145335" x2="559.8120876142596" y1="64.21667195723754" y2="75.2166673701414"/></g></g><g id="Window" fill="#f0f0ff" stroke="#000000" style="fill-opacity: 1; stroke-width: 1; stroke-opacity: 1;" class="Window Regular"><polygon points="1019.41,64.64 906.98,64.53 906.97,75.53 1019.40,75.64 "/><g id="Glass" class="Glass"><polygon points="1019.41,64.64 906.98,64.53 906.97,75.53 1019.40,75.64 "/></g><g id="Panel" class="Panel"><line x1="1011.9058276304219" x2="914.4737328249081" y1="70.12953781312217" y2="70.0405583558823"/><line x1="1011.9108504805589" x2="1011.900804780285" y1="64.62954010667023" y2="75.62953551957409"/><line x1="914.4787556750452" x2="914.4687099747713" y1="64.54056064943036" y2="75.54055606233422"/></g></g><g id="Window" fill="#f0f0ff" stroke="#000000" style="fill-opacity: 1; stroke-width: 1; stroke-opacity: 1;" class="Window Regular"><polygon points="1301.50,64.89 1189.07,64.79 1189.06,75.79 1301.49,75.89 "/><g id="Glass" class="Glass"><polygon points="1301.50,64.89 1189.07,64.79 1189.06,75.79 1301.49,75.89 "/></g><g id="Panel" class="Panel"><line x1="1293.9941238607253" x2="1196.5694963082815" y1="70.38715378188888" y2="70.29818114408695"/><line x1="1293.9991467108623" x2="1293.9891010105882" y1="64.88715607543695" y2="75.8871514883408"/><line x1="1196.5745191584185" x2="1196.5644734581444" y1="64.79818343763502" y2="75.79817885053887"/></g></g></g><g id="Wall" fill="#000000" stroke="#000000" style="fill-opacity: 1; stroke-opacity: 1; stroke-width: 0.2;" class="Wall"><polygon points="846.92,64.48 846.92,613.82 857.92,613.82 857.92,64.48 "/><g id="Door" fill="#ffffff" stroke="#000000" style="fill-opacity: 1; stroke-width: 1; stroke-opacity: 1;" class="Door Swing Beside"><polygon points="846.92,261.34 846.92,339.49 857.92,339.49 857.92,261.34 "/><g id="Threshold" class="Threshold"><polygon points="846.92,261.34 846.92,339.49 857.92,339.49 857.92,261.34 "/></g><g id="Panel" fill="none" style="" class="Panel Right Negative"><g id="PanelArea" fill="none" stroke="none" style="" class="PanelArea"><polygon points="846.92,261.34 846.92,339.49 857.92,339.49 857.92,261.34 "/></g><path d="M846.92,339.49 q-78.15,0.00 -78.15,-78.15 l78.15,0.00Z"/></g></g><g id="Door" fill="#ffffff" stroke="#000000" style="fill-opacity: 1; stroke-width: 1; stroke-opacity: 1;" class="Door None Beside"><polygon points="846.92,542.35 846.92,592.61 857.92,592.61 857.92,542.35 "/><g id="Threshold" stroke="#ffffff" style="" class="Threshold"><polygon points="846.92,542.35 846.92,592.61 857.92,592.61 857.92,542.35 "/></g></g></g><g id="Wall" fill="#000000" stroke="#000000" style="fill-opacity: 1; stroke-opacity: 1; stroke-width: 0.2;" class="Wall"><polygon points="846.92,454.72 1418.48,454.72 1418.48,443.72 846.92,443.72 "/><g id="Door" fill="#ffffff" stroke="#000000" style="fill-opacity: 1; stroke-width: 1; stroke-opacity: 1;" class="Door Swing Beside"><polygon points="989.33,454.72 1060.93,454.72 1060.93,443.72 989.33,443.72 "/><g id="Threshold" class="Threshold"><polygon points="989.33,454.72 1060.93,454.72 1060.93,443.72 989.33,443.72 "/></g><g id="Panel" fill="none" style="" class="Panel Left Negative"><g id="PanelArea" fill="none" stroke="none" style="" class="PanelArea"><polygon points="989.33,454.72 1060.93,454.72 1060.93,443.72 989.33,443.72 "/></g><path d="M989.33,454.72 q0.00,71.60 71.60,71.60 l0.00,-71.60Z"/></g></g></g><g id="Wall" fill="#000000" stroke="#000000" style="fill-opacity: 1; stroke-opacity: 1; stroke-width: 0.2;" class="Wall"><polygon points="1114.55,64.72 1114.55,454.72 1125.55,454.72 1125.55,64.72 "/><g id="Door" fill="#ffffff" stroke="#000000" style="fill-opacity: 1; stroke-width: 1; stroke-opacity: 1;" class="Door Swing Beside"><polygon points="1114.55,258.53 1114.55,338.75 1125.55,338.75 1125.55,258.53 "/><g id="Threshold" class="Threshold"><polygon points="1114.55,258.53 1114.55,338.75 1125.55,338.75 1125.55,258.53 "/></g><g id="Panel" fill="none" style="" class="Panel Left Positive"><g id="PanelArea" fill="none" stroke="none" style="" class="PanelArea"><polygon points="1114.55,258.53 1114.55,338.75 1125.55,338.75 1125.55,258.53 "/></g><path d="M1125.55,338.75 q80.22,0.00 80.22,-80.22 l-80.22,0.00Z"/></g></g></g><g id="Wall" fill="#000000" stroke="#000000" style="fill-opacity: 1; stroke-opacity: 1; stroke-width: 0.2;" class="Wall"><polygon points="846.92,614.50 1148.38,614.50 1159.38,603.50 846.92,603.50 "/></g><g id="Wall" fill="#000000" stroke="#000000" style="fill-opacity: 1; stroke-opacity: 1; stroke-width: 0.2;" class="Wall"><polygon points="1159.38,603.50 1159.38,860.33 1148.38,860.33 1148.38,614.50 "/></g><g id="Wall" fill="#000000" stroke="#000000" style="fill-opacity: 1; stroke-opacity: 1; stroke-width: 0.2;" class="Wall"><polygon points="155.71,844.12 418.12,843.46 429.12,832.43 155.68,833.12 "/></g><g id="Wall" fill="#000000" stroke="#000000" style="fill-opacity: 1; stroke-opacity: 1; stroke-width: 0.2;" class="Wall"><polygon points="429.12,832.43 429.12,1076.67 418.12,1076.67 418.12,843.46 "/><g id="Door" fill="#ffffff" stroke="#000000" style="fill-opacity: 1; stroke-width: 1; stroke-opacity: 1;" class="Door Swing Beside"><polygon points="429.12,969.51 429.12,1035.99 418.12,1035.99 418.12,969.51 "/><g id="Threshold" class="Threshold"><polygon points="429.12,969.51 429.12,1035.99 418.12,1035.99 418.12,969.51 "/></g><g id="Panel" fill="none" style="" class="Panel Left Negative"><g id="PanelArea" fill="none" stroke="none" style="" class="PanelArea"><polygon points="429.12,969.51 429.12,1035.99 418.12,1035.99 418.12,969.51 "/></g><path d="M429.12,969.51 q66.48,0.00 66.48,66.48 l-66.48,0.00Z"/></g></g></g><g id="Wall" fill="#000000" stroke="#000000" style="fill-opacity: 1; stroke-opacity: 1; stroke-width: 0.2;" class="Wall"><polygon points="292.31,832.77 292.31,1076.67 303.31,1076.67 303.31,832.77 "/><g id="Door" fill="#ffffff" stroke="#000000" style="fill-opacity: 1; stroke-width: 1; stroke-opacity: 1;" class="Door Swing Beside"><polygon points="292.31,970.20 292.31,1031.49 303.31,1031.49 303.31,970.20 "/><g id="Threshold" class="Threshold"><polygon points="292.31,970.20 292.31,1031.49 303.31,1031.49 303.31,970.20 "/></g><g id="Panel" fill="none" style="" class="Panel Right Positive"><g id="PanelArea" fill="none" stroke="none" style="" class="PanelArea"><polygon points="292.31,970.20 292.31,1031.49 303.31,1031.49 303.31,970.20 "/></g><path d="M303.31,970.20 q61.29,0.00 61.29,61.29 l-61.29,0.00Z"/></g></g></g><g id="Wall" fill="#000000" stroke="#000000" style="fill-opacity: 1; stroke-opacity: 1; stroke-width: 0.2;" class="Wall"><polygon points="347.27,526.58 857.92,526.58 857.92,515.58 347.27,515.58 "/><g id="Door" fill="#ffffff" stroke="#000000" style="fill-opacity: 1; stroke-width: 1; stroke-opacity: 1;" class="Door Swing Opposite"><polygon points="697.48,526.58 788.82,526.58 788.82,515.58 697.48,515.58 "/><g id="Threshold" class="Threshold"><polygon points="697.48,526.58 788.82,526.58 788.82,515.58 697.48,515.58 "/></g><g id="Panel" fill="none" style="" class="Panel Right Negative"><g id="PanelArea" fill="none" stroke="none" style="" class="PanelArea"><polygon points="697.48,526.58 788.82,526.58 788.82,515.58 697.48,515.58 "/></g><path d="M788.82,526.58 q0.00,91.35 -91.35,91.35 l0.00,-91.35Z"/></g><g id="Panel" fill="none" style="" class="Panel Left Positive"><g id="PanelArea" fill="none" stroke="none" style="" class="PanelArea"><polygon points="697.48,526.58 788.82,526.58 788.82,515.58 697.48,515.58 "/></g><path d="M788.82,515.58 q0.00,-91.35 -91.35,-91.35 l0.00,91.35Z"/></g></g><g id="Door" fill="#ffffff" stroke="#000000" style="fill-opacity: 1; stroke-width: 1; stroke-opacity: 1;" class="Door None Beside"><polygon points="497.85,526.58 613.96,526.58 613.96,515.58 497.85,515.58 "/><g id="Threshold" stroke="#ffffff" style="" class="Threshold"><polygon points="497.85,526.58 613.96,526.58 613.96,515.58 497.85,515.58 "/></g></g></g><g id="Wall" fill="#000000" stroke="#000000" style="fill-opacity: 1; stroke-opacity: 1; stroke-width: 0.2;" class="Wall"><polygon points="643.81,838.33 643.81,515.58 654.81,515.58 654.81,838.33 "/><g id="Door" fill="#ffffff" stroke="#000000" style="fill-opacity: 1; stroke-width: 1; stroke-opacity: 1;" class="Door None Beside"><polygon points="643.81,663.82 643.81,570.83 654.81,570.83 654.81,663.82 "/><g id="Threshold" stroke="#ffffff" style="" class="Threshold"><polygon points="643.81,663.82 643.81,570.83 654.81,570.83 654.81,663.82 "/></g></g><g id="Door" fill="#ffffff" stroke="#000000" style="fill-opacity: 1; stroke-width: 1; stroke-opacity: 1;" class="Door Swing Beside"><polygon points="643.81,828.58 643.81,769.75 654.81,769.75 654.81,828.58 "/><g id="Threshold" class="Threshold"><polygon points="643.81,828.58 643.81,769.75 654.81,769.75 654.81,828.58 "/></g><g id="Panel" fill="none" style="" class="Panel Left Positive"><g id="PanelArea" fill="none" stroke="none" style="" class="PanelArea"><polygon points="643.81,828.58 643.81,769.75 654.81,769.75 654.81,828.58 "/></g><path d="M654.81,769.75 q58.84,0.00 58.84,58.84 l-58.84,0.00Z"/></g></g></g><g class="FixedFurniture Fireplace" transform="matrix(-1.9178,0,0,-1.1651,492.1737,515.5118)" style="fill-opacity: 1; stroke-opacity: 1;" fill="#ffffff" stroke="#000000">     
	   <g class="BoundaryPolygon" fill="rgb(255, 255, 255)" stroke="none"> 
		<polygon points="0,0 75,0 75,60 0,60"/> 
		</g>
		
	   <g class="Lines" fill="none" stroke="rgb(76, 76, 76)"> 
		    <line x1="0.629" y1="9.556" x2="51.294" y2="60.205"/>
            <line x1="0.598" y1="25.167" x2="35.942" y2="60.5"/>
            <line x1="0.5" y1="40.841" x2="20.479" y2="60.5"/>
            <line x1="40.648" y1="0.5" x2="75.432" y2="35.274"/>
            <line x1="8.329" y1="0.5" x2="68.348" y2="60.5"/>
            <line x1="24.88" y1="0.5" x2="75.5" y2="51.104"/>
            <line x1="56.774" y1="0.5" x2="75.5" y2="19.22"/>
		</g>
		
	   <g class="OverlayPolygon" fill="none" stroke="rgb(0, 0, 0)"> 
		<polygon points="0.5 60.5 75.5 60.5 75.5 0.5 0.5 0.5 0.5 60.5"/>  
		</g>
		
	   <g class="FireBox" fill="rgb(255, 255, 255)" stroke="rgb(0, 0, 0)">	
		<rect x="22.053" y="19.92" width="32.571" height="40.58"/>
	   </g>
        <g class="Direction" fill-opacity="0.9" style="display: none;">
            <polygon points="39.409 54.797 39.409 44.181 36.4 44.181 36.4 54.797 32.597 54.797 37.9 60.1 43.203 54.797 39.409 54.797" fill="#444444"/>
        </g> 
        <g class="Name" fill-opacity="0.9" style="display: none;">
            <text transform="translate(3 12)" font-size="12" font-family="Verdana, Sans-Serif">FP</text>
        </g>
    <desc>Width:75 Height:120 Depth:60 Elevation:0</desc>
    </g><g class="FixedFurniture Fireplace" transform="matrix(0,0.627,-0.5366,0,1114.3603,384.7413)" style="fill-opacity: 1; stroke-opacity: 1;" fill="#ffffff" stroke="#000000">     
	   <g class="BoundaryPolygon" fill="rgb(255, 255, 255)" stroke="none"> 
		<polygon points="0,0 75,0 75,60 0,60"/> 
		</g>
		
	   <g class="Lines" fill="none" stroke="rgb(76, 76, 76)"> 
		    <line x1="0.629" y1="9.556" x2="51.294" y2="60.205"/>
            <line x1="0.598" y1="25.167" x2="35.942" y2="60.5"/>
            <line x1="0.5" y1="40.841" x2="20.479" y2="60.5"/>
            <line x1="40.648" y1="0.5" x2="75.432" y2="35.274"/>
            <line x1="8.329" y1="0.5" x2="68.348" y2="60.5"/>
            <line x1="24.88" y1="0.5" x2="75.5" y2="51.104"/>
            <line x1="56.774" y1="0.5" x2="75.5" y2="19.22"/>
		</g>
		
	   <g class="OverlayPolygon" fill="none" stroke="rgb(0, 0, 0)"> 
		<polygon points="0.5 60.5 75.5 60.5 75.5 0.5 0.5 0.5 0.5 60.5"/>  
		</g>
		
	   <g class="FireBox" fill="rgb(255, 255, 255)" stroke="rgb(0, 0, 0)">	
		<rect x="22.053" y="19.92" width="32.571" height="40.58"/>
	   </g>
        <g class="Direction" fill-opacity="0.9" style="display: none;">
            <polygon points="39.409 54.797 39.409 44.181 36.4 44.181 36.4 54.797 32.597 54.797 37.9 60.1 43.203 54.797 39.409 54.797" fill="#444444"/>
        </g> 
        <g class="Name" fill-opacity="0.9" style="display: none;">
            <text transform="translate(3 12)" font-size="12" font-family="Verdana, Sans-Serif">FP</text>
        </g>
    <desc>Width:75 Height:120 Depth:60 Elevation:0</desc>
    </g><g class="FixedFurniture WoodStove" transform="matrix(0,-1,1,0,1137.1614,443.725)" style="fill-opacity: 1; stroke-opacity: 1;" fill="#ffffff" stroke="#000000">
	   <g class="BoundaryPolygon" fill="rgb(255, 255, 255)" stroke="rgb(0, 0, 0)"> 
       <polygon points="0.00,0.00 71.03,0.00 71.03,42.13 0.00,42.13 "/>
        </g>	
	   <g class="OuterCircle" fill="rgb(255, 255, 255)" stroke="rgb(0, 0, 0)"> 
		<circle cx="19.67657238111894" cy="21.258217973659306" r="19.6"/>
		<circle cx="53.204883442086974" cy="21.258217973659306" r="14.7"/>
		</g>
        <desc>Width:100 Height:90 Depth:65 Elevation:0</desc>
	</g><g id="Wall" fill="#000000" stroke="#000000" style="fill-opacity: 1; stroke-opacity: 1; stroke-width: 0.2;" class="Wall"><polygon points="896.81,603.50 896.81,860.33 907.81,860.33 907.81,603.50 "/><g id="Door" fill="#ffffff" stroke="#000000" style="fill-opacity: 1; stroke-width: 1; stroke-opacity: 1;" class="Door Swing Beside"><polygon points="896.81,673.64 896.81,742.52 907.81,742.52 907.81,673.64 "/><g id="Threshold" class="Threshold"><polygon points="896.81,673.64 896.81,742.52 907.81,742.52 907.81,673.64 "/></g><g id="Panel" fill="none" style="" class="Panel Right Negative"><g id="PanelArea" fill="none" stroke="none" style="" class="PanelArea"><polygon points="896.81,673.64 896.81,742.52 907.81,742.52 907.81,673.64 "/></g><path d="M896.81,742.52 q-68.88,0.00 -68.88,-68.88 l68.88,0.00Z"/></g></g></g><g id="Wall" fill="#000000" stroke="#000000" style="fill-opacity: 1; stroke-opacity: 1; stroke-width: 0.2;" class="Wall"><polygon points="643.81,754.43 907.81,754.43 907.81,743.43 643.81,743.43 "/></g><g fill="#0000ff" stroke="#0000ff" style="display: none;" class="SelectionControls"><g style="display: none;" class="rotateControl"><circle cx="779.2826905671238" cy="595.8427858587345" r="5" style="stroke : none; fill-opacity: 0.5; cursor:crosshair"/></g><g style="display: none;" class="ResizeNControl"><circle cx="0" cy="0" r="5" style="stroke : none; fill-opacity: 0.5"/></g><g style="display: none;" class="ResizeNEControl"><circle cx="0" cy="0" r="5" style="stroke : none; fill-opacity: 0.5"/></g><g style="display: none;" class="ResizeEControl"><circle cx="0" cy="0" r="5" style="stroke : none; fill-opacity: 0.5"/></g><g style="display: none;" class="ResizeSEControl"><circle cx="0" cy="0" r="5" style="stroke : none; fill-opacity: 0.5"/></g><g style="display: none;" class="ResizeSControl"><circle cx="0" cy="0" r="5" style="stroke : none; fill-opacity: 0.5"/></g><g style="display: none;" class="ResizeSWControl"><circle cx="0" cy="0" r="5" style="stroke : none; fill-opacity: 0.5"/></g><g style="display: none;" class="ResizeWControl"><circle cx="0" cy="0" r="5" style="stroke : none; fill-opacity: 0.5"/></g><g style="display: none;" class="ResizeNWControl"><circle cx="0" cy="0" r="5" style="stroke : none; fill-opacity: 0.5"/></g><g style="display: none;" class="removeControl"><polygon style="stroke : none; fill-opacity: 0.1" points="758.23,625.84 800.34,625.84 800.34,665.45 758.23,665.45 "/></g><g style="display: none;" class="copyPasteControl"><polygon style="stroke : none; fill-opacity: 0.1"/></g><g style="display: none;" class="translateControl"><polygon style="stroke : none; fill-opacity: 0.1; cursor:move" points="758.23,625.84 800.34,625.84 800.34,665.45 758.23,665.45 "/></g></g><g fill="#0000ff" stroke="#0000ff" style="display: none;" class="SelectionControls"><polygon fill="none" stroke="#0000ff" style="" points="654.81,515.58 896.81,515.58 896.81,743.43 654.81,743.43 "/><g style="display: none;" class="rotateControl"><circle cx="775.8072000764012" cy="485.5846358587345" r="5" style="stroke : none; fill-opacity: 0.5; cursor:crosshair"/></g><g style="display: none;" class="ResizeNControl"><circle cx="0" cy="0" r="5" style="stroke : none; fill-opacity: 0.5"/></g><g style="display: none;" class="ResizeNEControl"><circle cx="0" cy="0" r="5" style="stroke : none; fill-opacity: 0.5"/></g><g style="display: none;" class="ResizeEControl"><circle cx="0" cy="0" r="5" style="stroke : none; fill-opacity: 0.5"/></g><g style="display: none;" class="ResizeSEControl"><circle cx="0" cy="0" r="5" style="stroke : none; fill-opacity: 0.5"/></g><g style="display: none;" class="ResizeSControl"><circle cx="0" cy="0" r="5" style="stroke : none; fill-opacity: 0.5"/></g><g style="display: none;" class="ResizeSWControl"><circle cx="0" cy="0" r="5" style="stroke : none; fill-opacity: 0.5"/></g><g style="display: none;" class="ResizeWControl"><circle cx="0" cy="0" r="5" style="stroke : none; fill-opacity: 0.5"/></g><g style="display: none;" class="ResizeNWControl"><circle cx="0" cy="0" r="5" style="stroke : none; fill-opacity: 0.5"/></g><g style="display: none;" class="removeControl"><polygon style="stroke : none; fill-opacity: 0.1"/></g><g style="display: none;" class="copyPasteControl"><polygon style="stroke : none; fill-opacity: 0.1"/></g><g style="display: none;" class="translateControl"><polygon style="stroke : none; fill-opacity: 0.1; cursor:move"/></g></g></g></g></g></svg>
