<?xml version="1.0"?>
<svg xmlns="http://www.w3.org/2000/svg" xmlns:xlink="http://www.w3.org/1999/xlink" height="862.1399917602539" version="1.1" width="1308.3899688720703" id="temp" viewBox="0 0 1308.3899688720703 862.1399917602539"><defs/><g id="Model" class="Model v1-1"><g class="Floor"><g id="Floor-1" class="Floorplan Floor-1"><g id="Wall" fill="#000000" stroke="#000000" style="fill-opacity: 1; stroke-opacity: 1; stroke-width: 0.2;" class="Wall External"><polygon points="135.92,99.96 1123.72,99.96 1138.72,84.96 120.92,84.96 "/></g><g id="Wall" fill="#000000" stroke="#000000" style="fill-opacity: 1; stroke-opacity: 1; stroke-width: 0.2;" class="Wall External"><polygon points="1138.72,502.37 1241.13,502.37 1226.13,538.11 1123.72,538.11 "/></g><g id="Wall" fill="#000000" stroke="#000000" style="fill-opacity: 1; stroke-opacity: 1; stroke-width: 0.2;" class="Wall External"><polygon points="1226.13,538.11 1226.13,847.14 1241.13,862.14 1241.13,502.37 "/><g id="Window" fill="#f0f0ff" stroke="#000000" style="fill-opacity: 1; stroke-width: 1; stroke-opacity: 1;" class="Window Regular"><polygon points="1226.13,559.25 1226.13,763.84 1241.13,763.84 1241.13,559.25 "/><g id="Glass" class="Glass"><polygon points="1226.13,559.25 1226.13,763.84 1241.13,763.84 1241.13,559.25 "/></g><g id="Panel" class="Panel"><line x1="1233.6294742986945" x2="1233.6294742986945" y1="566.7478368950821" y2="756.3388607399588"/><line x1="1226.1294742986945" x2="1241.1294742986945" y1="566.7478368950821" y2="566.7478368950821"/><line x1="1226.1294742986945" x2="1241.1294742986945" y1="756.3388607399588" y2="756.3388607399588"/></g></g></g><g id="Wall" fill="#000000" stroke="#000000" style="fill-opacity: 1; stroke-opacity: 1; stroke-width: 0.2;" class="Wall External"><polygon points="1226.13,847.14 949.82,847.14 925.62,862.14 1241.13,862.14 "/></g><g id="Wall" fill="#000000" stroke="#000000" style="fill-opacity: 1; stroke-opacity: 1; stroke-width: 0.2;" class="Wall External"><polygon points="949.82,847.14 949.82,832.24 925.62,847.24 925.62,862.14 "/></g><g id="Wall" fill="#000000" stroke="#000000" style="fill-opacity: 1; stroke-opacity: 1; stroke-width: 0.2;" class="Wall External"><polygon points="949.82,832.24 799.57,832.24 784.57,847.24 925.62,847.24 "/></g><g id="Wall" fill="#000000" stroke="#000000" style="fill-opacity: 1; stroke-opacity: 1; stroke-width: 0.2;" class="Wall External"><polygon points="799.57,832.24 799.57,785.09 784.57,800.09 784.57,847.24 "/></g><g id="Wall" fill="#000000" stroke="#000000" style="fill-opacity: 1; stroke-opacity: 1; stroke-width: 0.2;" class="Wall External"><polygon points="799.57,785.09 648.62,785.09 633.62,800.09 784.57,800.09 "/></g><g id="Wall" fill="#000000" stroke="#000000" style="fill-opacity: 1; stroke-opacity: 1; stroke-width: 0.2;" class="Wall External"><polygon points="648.62,785.09 648.62,715.76 633.62,730.76 633.62,800.09 "/></g><g id="Wall" fill="#000000" stroke="#000000" style="fill-opacity: 1; stroke-opacity: 1; stroke-width: 0.2;" class="Wall External"><polygon points="648.62,715.76 135.92,715.76 120.92,730.76 633.62,730.76 "/><g id="Door" fill="#ffffff" stroke="#000000" style="fill-opacity: 1; stroke-width: 1; stroke-opacity: 1;" class="Door Swing Opposite"><polygon points="626.83,715.76 548.85,715.76 548.85,730.76 626.83,730.76 "/><g id="Threshold" class="Threshold"><polygon points="626.83,715.76 548.85,715.76 548.85,730.76 626.83,730.76 "/></g><g id="Panel" fill="none" style="" class="Panel Left Negative"><g id="PanelArea" fill="none" stroke="none" style="" class="PanelArea"><polygon points="626.83,715.76 548.85,715.76 548.85,730.76 626.83,730.76 "/></g><path d="M626.83,715.76 q0.00,-77.98 -77.98,-77.98 l0.00,77.98Z"/></g><g id="Panel" fill="none" style="" class="Panel Left Positive"><g id="PanelArea" fill="none" stroke="none" style="" class="PanelArea"><polygon points="626.83,715.76 548.85,715.76 548.85,730.76 626.83,730.76 "/></g><path d="M548.85,730.76 q0.00,77.98 77.98,77.98 l0.00,-77.98Z"/></g></g></g><g id="Wall" fill="#000000" stroke="#000000" style="fill-opacity: 1; stroke-opacity: 1; stroke-width: 0.2;" class="Wall External"><polygon points="135.92,715.76 135.92,99.96 120.92,84.96 120.92,730.76 "/><g id="Window" fill="#f0f0ff" stroke="#000000" style="fill-opacity: 1; stroke-width: 1; stroke-opacity: 1;" class="Window Regular"><polygon points="135.92,403.08 135.92,207.93 120.92,207.93 120.92,403.08 "/><g id="Glass" class="Glass"><polygon points="135.92,403.08 135.92,207.93 120.92,207.93 120.92,403.08 "/></g><g id="Panel" class="Panel"><line x1="128.42043983699241" x2="128.4204398369924" y1="395.58403219081623" y2="215.43472957467867"/><line x1="135.92043983699241" x2="120.92043983699241" y1="395.58403219081623" y2="395.58403219081623"/><line x1="135.9204398369924" x2="120.92043983699239" y1="215.43472957467867" y2="215.43472957467867"/></g></g><g id="Window" fill="#f0f0ff" stroke="#000000" style="fill-opacity: 1; stroke-width: 1; stroke-opacity: 1;" class="Window Regular"><polygon points="135.92,705.23 135.92,503.46 120.92,503.46 120.92,705.23 "/><g id="Glass" class="Glass"><polygon points="135.92,705.23 135.92,503.46 120.92,503.46 120.92,705.23 "/></g><g id="Panel" class="Panel"><line x1="128.42043983699244" x2="128.42043983699241" y1="697.7342488325796" y2="510.96108636036126"/><line x1="135.92043983699244" x2="120.92043983699244" y1="697.7342488325796" y2="697.7342488325796"/><line x1="135.92043983699241" x2="120.92043983699241" y1="510.96108636036126" y2="510.96108636036126"/></g></g></g><g id="Wall" fill="#000000" stroke="#000000" style="fill-opacity: 1; stroke-opacity: 1; stroke-width: 0.2;" class="Wall"><polygon points="1138.72,538.11 1085.03,538.11 1085.03,523.11 1123.72,523.11 "/></g><g id="Wall" fill="#000000" stroke="#000000" style="fill-opacity: 1; stroke-opacity: 1; stroke-width: 0.2;" class="Wall"><polygon points="992.27,538.11 633.62,538.11 633.62,523.11 992.27,523.11 "/></g><g id="Wall" fill="#000000" stroke="#000000" style="fill-opacity: 1; stroke-opacity: 1; stroke-width: 0.2;" class="Wall External"><polygon points="1123.72,99.96 1123.72,538.11 1138.72,538.11 1138.72,84.96 "/><g id="Door" fill="#ffffff" stroke="#000000" style="fill-opacity: 1; stroke-width: 1; stroke-opacity: 1;" class="Door Swing Opposite"><polygon points="1123.72,414.44 1123.72,494.50 1138.72,494.50 1138.72,414.44 "/><g id="Threshold" class="Threshold"><polygon points="1123.72,414.44 1123.72,494.50 1138.72,494.50 1138.72,414.44 "/></g><g id="Panel" fill="none" style="" class="Panel Left Negative"><g id="PanelArea" fill="none" stroke="none" style="" class="PanelArea"><polygon points="1123.72,414.44 1123.72,494.50 1138.72,494.50 1138.72,414.44 "/></g><path d="M1123.72,414.44 q-80.06,0.00 -80.06,80.06 l80.06,0.00Z"/></g><g id="Panel" fill="none" style="" class="Panel Right Positive"><g id="PanelArea" fill="none" stroke="none" style="" class="PanelArea"><polygon points="1123.72,414.44 1123.72,494.50 1138.72,494.50 1138.72,414.44 "/></g><path d="M1138.72,414.44 q80.06,0.00 80.06,80.06 l-80.06,0.00Z"/></g></g><g id="Window" fill="#f0f0ff" stroke="#000000" style="fill-opacity: 1; stroke-width: 1; stroke-opacity: 1;" class="Window Regular"><polygon points="1123.72,108.95 1123.72,397.24 1138.72,397.24 1138.72,108.95 "/><g id="Glass" class="Glass"><polygon points="1123.72,108.95 1123.72,397.24 1138.72,397.24 1138.72,108.95 "/></g><g id="Panel" class="Panel"><line x1="1131.2186179673586" x2="1131.2186179673586" y1="116.45173278168784" y2="389.7391279833673"/><line x1="1123.7186179673586" x2="1138.7186179673586" y1="116.45173278168784" y2="116.45173278168784"/><line x1="1123.7186179673586" x2="1138.7186179673586" y1="389.7391279833673" y2="389.7391279833673"/></g></g></g><g id="Wall" fill="#000000" stroke="#000000" style="fill-opacity: 1; stroke-opacity: 1; stroke-width: 0.2;" class="Wall External"><polygon points="1123.72,538.11 1123.72,523.11 1138.72,538.11 1138.72,538.11 "/></g><g id="Wall" fill="#000000" stroke="#000000" style="fill-opacity: 1; stroke-opacity: 1; stroke-width: 0.2;" class="Wall"><polygon points="1241.13,502.37 1308.39,502.37 1308.39,510.37 1241.13,510.37 "/></g><g id="Wall" fill="#000000" stroke="#000000" style="fill-opacity: 1; stroke-opacity: 1; stroke-width: 0.2;" class="Wall"><polygon points="1138.72,84.96 1308.39,84.96 1308.39,99.79 1138.72,99.79 "/></g><g id="Railing" fill="#ffffff" stroke="#000000" style="fill-opacity: 1; stroke-opacity: 1; stroke-width: 0.2;" class="Railing"><polygon points="1308.39,502.37 1308.39,99.79 1299.39,99.79 1299.39,502.37 " style="stroke-dasharray: 0;"/></g><g id="Wall" fill="#000000" stroke="#000000" style="fill-opacity: 1; stroke-opacity: 1; stroke-width: 0.2;" class="Wall"><polygon points="648.62,715.76 648.62,688.46 634.23,679.46 634.23,715.76 "/></g><g id="Wall" fill="#000000" stroke="#000000" style="fill-opacity: 1; stroke-opacity: 1; stroke-width: 0.2;" class="Wall"><polygon points="634.23,679.46 949.82,679.46 940.82,688.46 648.62,688.46 "/><g id="Door" fill="#ffffff" stroke="#000000" style="fill-opacity: 1; stroke-width: 1; stroke-opacity: 1;" class="Door Swing Beside"><polygon points="671.02,679.46 732.66,679.46 732.66,688.46 671.02,688.46 "/><g id="Threshold" class="Threshold"><polygon points="671.02,679.46 732.66,679.46 732.66,688.46 671.02,688.46 "/></g><g id="Panel" fill="none" style="" class="Panel Left Negative"><g id="PanelArea" fill="none" stroke="none" style="" class="PanelArea"><polygon points="671.02,679.46 732.66,679.46 732.66,688.46 671.02,688.46 "/></g><path d="M671.02,679.46 q0.00,-61.64 61.64,-61.64 l0.00,61.64Z"/></g></g><g id="Door" fill="#ffffff" stroke="#000000" style="fill-opacity: 1; stroke-width: 1; stroke-opacity: 1;" class="Door Swing Beside"><polygon points="802.85,679.46 865.23,679.46 865.23,688.46 802.85,688.46 "/><g id="Threshold" class="Threshold"><polygon points="802.85,679.46 865.23,679.46 865.23,688.46 802.85,688.46 "/></g><g id="Panel" fill="none" style="" class="Panel Left Negative"><g id="PanelArea" fill="none" stroke="none" style="" class="PanelArea"><polygon points="802.85,679.46 865.23,679.46 865.23,688.46 802.85,688.46 "/></g><path d="M802.85,679.46 q0.00,-62.38 62.38,-62.38 l0.00,62.38Z"/></g></g></g><g id="Wall" fill="#000000" stroke="#000000" style="fill-opacity: 1; stroke-opacity: 1; stroke-width: 0.2;" class="Wall"><polygon points="949.82,679.46 949.82,832.24 940.82,832.24 940.82,688.46 "/></g><g id="Wall" fill="#000000" stroke="#000000" style="fill-opacity: 1; stroke-opacity: 1; stroke-width: 0.2;" class="Wall"><polygon points="799.57,785.09 799.57,688.46 790.57,688.46 790.57,785.09 "/></g><g id="Wall" fill="#000000" stroke="#000000" style="fill-opacity: 1; stroke-opacity: 1; stroke-width: 0.2;" class="Wall"><polygon points="876.01,538.11 876.01,602.29 867.01,602.29 867.01,538.11 "/></g><g id="Wall" fill="#000000" stroke="#000000" style="fill-opacity: 1; stroke-opacity: 1; stroke-width: 0.2;" class="Wall"><polygon points="501.38,715.76 501.38,99.96 492.38,99.96 492.38,715.76 "/><g id="Door" fill="#ffffff" stroke="#000000" style="fill-opacity: 1; stroke-width: 1; stroke-opacity: 1;" class="Door Swing Beside"><polygon points="501.38,531.80 501.38,459.94 492.38,459.94 492.38,531.80 "/><g id="Threshold" class="Threshold"><polygon points="501.38,531.80 501.38,459.94 492.38,459.94 492.38,531.80 "/></g><g id="Panel" fill="none" style="" class="Panel Right Positive"><g id="PanelArea" fill="none" stroke="none" style="" class="PanelArea"><polygon points="501.38,531.80 501.38,459.94 492.38,459.94 492.38,531.80 "/></g><path d="M492.38,531.80 q-71.86,0.00 -71.86,-71.86 l71.86,0.00Z"/></g></g><g id="Door" fill="#ffffff" stroke="#000000" style="fill-opacity: 1; stroke-width: 1; stroke-opacity: 1;" class="Door Swing Beside"><polygon points="501.38,422.10 501.38,348.11 492.38,348.11 492.38,422.10 "/><g id="Threshold" class="Threshold"><polygon points="501.38,422.10 501.38,348.11 492.38,348.11 492.38,422.10 "/></g><g id="Panel" fill="none" style="" class="Panel Left Positive"><g id="PanelArea" fill="none" stroke="none" style="" class="PanelArea"><polygon points="501.38,422.10 501.38,348.11 492.38,348.11 492.38,422.10 "/></g><path d="M492.38,348.11 q-73.99,0.00 -73.99,73.99 l73.99,0.00Z"/></g></g></g><g id="Wall" fill="#000000" stroke="#000000" style="fill-opacity: 1; stroke-opacity: 1; stroke-width: 0.2;" class="Wall"><polygon points="135.92,451.64 492.38,451.64 492.38,437.78 135.92,437.78 "/></g><g id="Wall" fill="#000000" stroke="#000000" style="fill-opacity: 1; stroke-opacity: 1; stroke-width: 0.2;" class="Wall"><polygon points="501.38,339.13 639.23,339.13 630.21,330.13 501.38,330.13 "/><g id="Door" fill="#ffffff" stroke="#000000" style="fill-opacity: 1; stroke-width: 1; stroke-opacity: 1;" class="Door Swing Beside"><polygon points="524.64,339.13 582.05,339.13 582.05,330.13 524.64,330.13 "/><g id="Threshold" class="Threshold"><polygon points="524.64,339.13 582.05,339.13 582.05,330.13 524.64,330.13 "/></g><g id="Panel" fill="none" style="" class="Panel Left Negative"><g id="PanelArea" fill="none" stroke="none" style="" class="PanelArea"><polygon points="524.64,339.13 582.05,339.13 582.05,330.13 524.64,330.13 "/></g><path d="M524.64,339.13 q0.00,57.41 57.41,57.41 l0.00,-57.41Z"/></g></g></g><g id="Wall" fill="#000000" stroke="#000000" style="fill-opacity: 1; stroke-opacity: 1; stroke-width: 0.2;" class="Wall"><polygon points="639.23,339.13 638.62,99.94 629.62,99.97 630.21,330.13 "/></g><g id="Wall" fill="#000000" stroke="#000000" style="fill-opacity: 1; stroke-opacity: 1; stroke-width: 0.2;" class="Wall"><polygon points="638.62,339.13 638.62,344.07 629.62,344.07 629.62,339.13 "/></g><g id="Column" fill="#000000" stroke="none" style="fill-opacity: 1;" class="Column FreeShape"><polygon points="629.62,99.97 629.62,166.44 597.10,166.44 597.10,99.97 629.62,99.97 "/></g><g id="FixedFurnitureSet" transform="matrix(0,1,-1,0,492.2573,565.377)" class="FixedFurnitureSet" style="fill-opacity: 1; stroke-opacity: 1;" fill="#ffffff" stroke="#000000"><g class="FixedFurniture Closet" transform="matrix(1,0,0,1,0,0)">
        <g class="BoundaryPolygon" fill="rgb(255, 255, 255)" stroke="rgb(0, 0, 0)">
            <polygon points="0.00,0.00 50.13,0.00 50.13,50.36 0.00,50.36 "/>
        </g>
        <g class="Direction" fill-opacity="0.9" style="display: none;">
            <polygon points="26.32,45.91 26.32,35.29 23.31,35.29 23.31,45.91 19.51,45.91 24.81,51.21 30.12,45.91 26.32,45.91 " fill="#444444"/>
        </g> 
        <g class="Name" fill-opacity="0.9" style="display: none;">
            <text transform="translate(3 12)" font-size="12" font-family="Verdana, Sans-Serif">CL</text>
        </g>
        <desc>Width:60 Height:200 Depth:60 Elevation:0</desc>
     </g><g class="FixedFurniture Closet" transform="matrix(1,0,0,1,50.1261,0)">
        <g class="BoundaryPolygon" fill="rgb(255, 255, 255)" stroke="rgb(0, 0, 0)">
            <polygon points="0.00,0.00 50.13,0.00 50.13,50.36 0.00,50.36 "/>
        </g>
        <g class="Direction" fill-opacity="0.9" style="display: none;">
            <polygon points="26.32,45.91 26.32,35.29 23.31,35.29 23.31,45.91 19.51,45.91 24.81,51.21 30.12,45.91 26.32,45.91 " fill="#444444"/>
        </g> 
        <g class="Name" fill-opacity="0.9" style="display: none;">
            <text transform="translate(3 12)" font-size="12" font-family="Verdana, Sans-Serif">CL</text>
        </g>
        <desc>Width:60 Height:200 Depth:60 Elevation:0</desc>
     </g><g class="FixedFurniture Closet" transform="matrix(1,0,0,1,100.2523,0)">
        <g class="BoundaryPolygon" fill="rgb(255, 255, 255)" stroke="rgb(0, 0, 0)">
            <polygon points="0.00,0.00 50.13,0.00 50.13,50.36 0.00,50.36 "/>
        </g>
        <g class="Direction" fill-opacity="0.9" style="display: none;">
            <polygon points="26.32,45.91 26.32,35.29 23.31,35.29 23.31,45.91 19.51,45.91 24.81,51.21 30.12,45.91 26.32,45.91 " fill="#444444"/>
        </g> 
        <g class="Name" fill-opacity="0.9" style="display: none;">
            <text transform="translate(3 12)" font-size="12" font-family="Verdana, Sans-Serif">CL</text>
        </g>
        <desc>Width:60 Height:200 Depth:60 Elevation:0</desc>
     </g></g><g class="FixedFurniture Closet" transform="matrix(1,0,0,1,817.7895,538.1088)" style="fill-opacity: 1; stroke-opacity: 1;" fill="#ffffff" stroke="#000000">
        <g class="BoundaryPolygon" fill="rgb(255, 255, 255)" stroke="rgb(0, 0, 0)">
            <polygon points="0.00,0.00 49.22,0.00 49.22,48.55 0.00,48.55 "/>
        </g>
        <g class="Direction" fill-opacity="0.9" style="display: none;">
            <polygon points="25.85,44.26 25.85,33.64 22.84,33.64 22.84,44.26 19.04,44.26 24.34,49.56 29.64,44.26 25.85,44.26 " fill="#444444"/>
        </g> 
        <g class="Name" fill-opacity="0.9" style="display: none;">
            <text transform="translate(3 12)" font-size="12" font-family="Verdana, Sans-Serif">CL</text>
        </g>
        <desc>Width:60 Height:200 Depth:60 Elevation:0</desc>
     </g><g class="FixedFurniture CoatCloset" transform="matrix(1,0,0,1,683.0966,538.1869)" style="fill-opacity: 1; stroke-opacity: 1;" fill="#ffffff" stroke="#000000">
        <g class="BoundaryPolygon" fill="rgb(255, 255, 255)" stroke="rgb(0, 0, 0)">
                <polygon points="0.00,0.00 134.69,0.00 134.69,48.41 0.00,48.41 "/>
            </g>
        <g class="Hanger" fill="rgb(255, 255, 255)" stroke="rgb(154, 154, 154)" stroke-dasharray="5,5">
            <line x1="0" y1="24.20738816973249" x2="134.6929106053763" y2="24.20738816973249"/>
            </g>
        <g class="Direction" fill-opacity="0.9" style="display: none;">
            <polygon points="69.04,43.99 69.04,33.37 66.03,33.37 66.03,43.99 62.23,43.99 67.53,49.29 72.83,43.99 69.04,43.99 " fill="#444444"/>
        </g> 
        <g class="Name" fill-opacity="0.9" style="display: none;">
            <text transform="translate(3 12)" font-size="12" font-family="Verdana, Sans-Serif">CWH</text>
        </g>
        <desc>Width:120 Height:200 Depth:60 Elevation:0</desc>
     </g><g class="FixedFurniture BaseCabinet" transform="matrix(1,0,0,1,876.0095,538.1087)" style="fill-opacity: 1; stroke-opacity: 1;" fill="#ffffff" stroke="#000000">
            <g class="BoundaryPolygon" fill="rgb(255, 255, 255)" stroke="rgb(0, 0, 0)">
                <polygon points="0.00,0.00 116.23,0.00 116.23,60.00 0.00,60.00 "/>
            </g>
            <g class="Direction" fill-opacity="0.9" style="display: none;">
                <polygon points="62.01,55.20 62.01,44.58 59.00,44.58 59.00,55.20 55.19,55.20 60.50,60.00 65.80,55.20 62.01,55.20 " fill="#444444"/>
            </g> 
            <g class="Name" fill-opacity="0.9" style="display: none;">
                <text transform="translate(3 12)" font-size="12" font-family="Verdana, Sans-Serif">CB</text>
            </g>
            <desc>Width:60 Height:90 Depth:60 Elevation:0</desc>
        </g><g class="FixedFurniture WallCabinet" transform="matrix(1,0,0,1,876.0095,538.1088)" style="fill-opacity: 0.7; stroke-opacity: 1;" fill="#ffffff" stroke="#000000">	
        <g class="BoundaryPolygon" fill="rgb(255, 255, 255)" stroke="rgb(0, 0, 0)">
                <polygon points="0.00,0.00 116.23,0.00 116.23,30.00 0.00,30.00 "/>
        </g>
        <g class="Direction" fill-opacity="0.9" style="display: none;">
                <polygon points="62.01,25.20 62.01,14.58 59.00,14.58 59.00,25.20 55.19,25.20 60.50,30.00 65.80,25.20 62.01,25.20 " fill="#444444"/>
        </g> 
        <g class="Name" fill-opacity="0.9" style="display: none;">
                <text transform="translate(3 12)" font-size="12" font-family="Verdana, Sans-Serif">UC</text>
        </g>
        <desc>Width:60 Height:60 Depth:50 Elevation:140</desc>
        </g><g id="FixedFurnitureSet" transform="matrix(0,-1,1,0,648.779,774.5483)" class="FixedFurnitureSet" style="fill-opacity: 1; stroke-opacity: 1;" fill="#ffffff" stroke="#000000"><g class="FixedFurniture BaseCabinet" transform="matrix(1,0,0,1,0,0)">
            <g class="BoundaryPolygon" fill="rgb(255, 255, 255)" stroke="rgb(0, 0, 0)">
            <polygon points="0.00,0.00 49.06,0.00 49.06,29.57 0.00,29.57 "/>
            </g>
            <g class="Direction" fill-opacity="0.9" style="display: none;">
                <polygon points="26.17,27.21 26.17,16.59 23.16,16.59 23.16,27.21 19.36,27.21 24.66,32.01 29.97,27.21 26.17,27.21 " fill="#444444"/>
            </g> 
            <g class="Name" fill-opacity="0.9" style="display: none;">
                <text transform="translate(3 12)" font-size="12" font-family="Verdana, Sans-Serif">CB</text>
            </g>
            <desc>Width:185 Height:5 Depth:60 Elevation:105</desc>
        </g><g class="FixedFurniture Sink" transform="matrix(1,0,0,1,0,0)">
            <g class="InnerPolygon" fill="rgb(255, 255, 255)" stroke="rgb(0, 0, 0)">
                <polygon points="5.00,9.70 44.97,9.70 44.97,26.96 5.00,26.96 "/>
            </g>
            <g class="OuterDrain" fill="rgb(255, 255, 255)" stroke="rgb(0, 0, 0)" stroke-width="0.8">
                <circle cx="24.529154289200083" cy="15.871749515926759" r="3.5"/>
            </g>
            <g class="InnerDrain" fill="rgb(255, 255, 255)" stroke="rgb(0, 0, 0)" stroke-width="0.8">
                <circle cx="24.529154289200083" cy="15.871749515926759" r="2"/>
            </g>
            <g class="Faucet" fill="rgb(255, 255, 255)" stroke="rgb(0, 0, 0)">
                <polygon points="22.08,2.46 28.08,2.46 28.08,16.46 22.08,16.46 "/>
            </g>
           <g class="Direction" fill-opacity="0.9" style="display: none;">
                <polygon points="26.17,27.21 26.17,16.59 23.16,16.59 23.16,27.21 19.36,27.21 24.66,32.01 29.97,27.21 26.17,27.21 " fill="#444444"/>
            </g> 
            <g class="Name" fill-opacity="0.9" style="display: none;">
                <text transform="translate(3 12)" font-size="12" font-family="Verdana, Sans-Serif">SINK</text>
            </g>
            <desc>Width:60 Height:90 Depth:60 Elevation:0</desc>
        </g></g><g class="FixedFurniture Toilet" transform="matrix(0,1,-1,0,791.0658,712.5627)" style="fill-opacity: 1; stroke-opacity: 1;" fill="#ffffff" stroke="#000000">
	   <g class="BoundaryPolygon" fill="rgb(255, 255, 255)" stroke="rgb(0, 0, 0)"> 
		<rect x="0.502" y="0.5" width="39.989" height="17.98"/>
          <path d="M40.491,44.237S41.619,70.5,20.907,70.5C-.523,70.5.6,44.237.6,44.237L.5,18.48H40.491Z"/>
          <rect x="17.318" y="7.975" width="6.357" height="3.03"/>
		</g>
        <desc>Width:40 Height:85 Depth:70 Elevation:0</desc>
    </g><g id="FixedFurnitureSet" transform="matrix(0,1,-1,0,940.6665,704.9187)" class="FixedFurnitureSet" style="fill-opacity: 1; stroke-opacity: 1;" fill="#ffffff" stroke="#000000"><g class="FixedFurniture BaseCabinet" transform="matrix(1,0,0,1,0,0)">
            <g class="BoundaryPolygon" fill="rgb(255, 255, 255)" stroke="rgb(0, 0, 0)">
            <polygon points="0.00,0.00 57.38,0.00 57.38,39.60 0.00,39.60 "/>
            </g>
            <g class="Direction" fill-opacity="0.9" style="display: none;">
                <polygon points="30.61,36.43 30.61,25.81 27.60,25.81 27.60,36.43 23.80,36.43 29.10,41.23 34.41,36.43 30.61,36.43 " fill="#444444"/>
            </g> 
            <g class="Name" fill-opacity="0.9" style="display: none;">
                <text transform="translate(3 12)" font-size="12" font-family="Verdana, Sans-Serif">CB</text>
            </g>
            <desc>Width:185 Height:5 Depth:60 Elevation:105</desc>
        </g><g class="FixedFurniture Sink" transform="matrix(1,0,0,1,0,0)">
            <g class="InnerPolygon" fill="rgb(255, 255, 255)" stroke="rgb(0, 0, 0)">
                <polygon points="5.00,9.70 52.60,9.70 52.60,36.10 5.00,36.10 "/>
            </g>
            <g class="OuterDrain" fill="rgb(255, 255, 255)" stroke="rgb(0, 0, 0)" stroke-width="0.8">
                <circle cx="28.69175428654784" cy="21.250350984639002" r="3.5"/>
            </g>
            <g class="InnerDrain" fill="rgb(255, 255, 255)" stroke="rgb(0, 0, 0)" stroke-width="0.8">
                <circle cx="28.69175428654784" cy="21.250350984639002" r="2"/>
            </g>
            <g class="Faucet" fill="rgb(255, 255, 255)" stroke="rgb(0, 0, 0)">
                <polygon points="25.82,3.30 31.82,3.30 31.82,17.30 25.82,17.30 "/>
            </g>
           <g class="Direction" fill-opacity="0.9" style="display: none;">
                <polygon points="30.61,36.43 30.61,25.81 27.60,25.81 27.60,36.43 23.80,36.43 29.10,41.23 34.41,36.43 30.61,36.43 " fill="#444444"/>
            </g> 
            <g class="Name" fill-opacity="0.9" style="display: none;">
                <text transform="translate(3 12)" font-size="12" font-family="Verdana, Sans-Serif">SINK</text>
            </g>
            <desc>Width:60 Height:90 Depth:60 Elevation:0</desc>
        </g></g><g class="FixedFurniture Shower" transform="matrix(0,1,-1,0,941.3228,782.5353)" style="fill-opacity: 1; stroke-opacity: 1;" fill="#ffffff" stroke="#000000"> 
	   <g class="BoundaryPolygon" fill="rgb(255, 255, 255)" stroke="rgb(0, 0, 0)" stroke-linejoin="round"> 
			<rect x="3.7" y="0.5" width="11.2" height="6.1"/>
			<rect x="17.6" y="0.5" width="11.2" height="6.1"/>
			<rect x="28.7" y="0.5" width="3.4" height="6.1"/>
			<rect x="0.5" y="0.5" width="3.2" height="6.1"/>
			<path d="M14.9,8.5c0,1.5-0.4,3.3-1.6,5    c-0.4,0.6-1,1.1-1.1,1.7c-0.2,1.1,0.3,2.8,2.5,3.2c0.5,0.1,1.3,0.1,1.6,0.1h-0.1c0.3,0,1.1,0,1.6-0.1c2.2-0.4,2.7-2.1,2.5-3.2    c-0.1-0.6-0.7-1.1-1.1-1.7c-1.2-1.7-1.6-3.5-1.6-5"/>
			<path d="M12.2,15.3c0.1,0.2,1.6,1.9,4.2,1.9 c2.4-0.1,3.7-1.7,3.9-1.9"/>
			<path d="M14.9,0.5h2.7v8c-0.9,0-1.8,0-2.7,0l0,0 C14.9,5.9,14.9,3.2,14.9,0.5z"/>
		</g>
	   <g class="Indicator" fill="rgb(255, 255, 255)" stroke="rgb(0, 0, 0)" stroke-width="0.5" stroke-linejoin="round"> 
			<path d="M3.7,3.6C5,3.1,5.2,3,5.2,3 c0,1.1,0,0,0,1.1C5.2,4.1,5.1,4.1,3.7,3.6"/>
			<path d="M28.7,3.6 C27.4,3.1,27.2,3,27.2,3c0,1.1,0,0,0,1.1C27.2,4.1,27.3,4.1,28.7,3.6"/>	
		</g>
        <desc>Width:35 Height:97 Depth:20 Elevation:135</desc>
	</g><g class="FixedFurniture BaseCabinet" transform="matrix(-1,0,0,-1,1118.1528,847.0786)" style="fill-opacity: 1; stroke-opacity: 1;" fill="#ffffff" stroke="#000000">
            <g class="BoundaryPolygon" fill="rgb(255, 255, 255)" stroke="rgb(0, 0, 0)">
                <polygon points="0.00,0.00 168.33,0.00 168.33,60.00 0.00,60.00 "/>
            </g>
            <g class="Direction" fill-opacity="0.9" style="display: none;">
                <polygon points="89.80,55.20 89.80,44.58 86.79,44.58 86.79,55.20 82.99,55.20 88.29,60.00 93.59,55.20 89.80,55.20 " fill="#444444"/>
            </g> 
            <g class="Name" fill-opacity="0.9" style="display: none;">
                <text transform="translate(3 12)" font-size="12" font-family="Verdana, Sans-Serif">CB</text>
            </g>
            <desc>Width:60 Height:90 Depth:60 Elevation:0</desc>
        </g><g class="FixedFurniture Closet" transform="matrix(-1,0,0,-1,1166.2028,847.0005)" style="fill-opacity: 1; stroke-opacity: 1;" fill="#ffffff" stroke="#000000">
        <g class="BoundaryPolygon" fill="rgb(255, 255, 255)" stroke="rgb(0, 0, 0)">
            <polygon points="0.00,0.00 48.05,0.00 48.05,60.00 0.00,60.00 "/>
        </g>
        <g class="Direction" fill-opacity="0.9" style="display: none;">
            <polygon points="25.23,54.70 25.23,44.08 22.22,44.08 22.22,54.70 18.42,54.70 23.72,60.00 29.03,54.70 25.23,54.70 " fill="#444444"/>
        </g> 
        <g class="Name" fill-opacity="0.9" style="display: none;">
            <text transform="translate(3 12)" font-size="12" font-family="Verdana, Sans-Serif">CL</text>
        </g>
        <desc>Width:60 Height:200 Depth:60 Elevation:0</desc>
     </g><g class="FixedFurniture CoatCloset" transform="matrix(1,0,0,1,501.2958,100.0019)" style="fill-opacity: 1; stroke-opacity: 1;" fill="#ffffff" stroke="#000000">
        <g class="BoundaryPolygon" fill="rgb(255, 255, 255)" stroke="rgb(0, 0, 0)">
                <polygon points="0.00,0.00 95.80,0.00 95.80,65.86 0.00,65.86 "/>
            </g>
        <g class="Hanger" fill="rgb(255, 255, 255)" stroke="rgb(154, 154, 154)" stroke-dasharray="5,5">
            <line x1="0" y1="32.928241328521786" x2="95.80417419079896" y2="32.928241328521786"/>
            </g>
        <g class="Direction" fill-opacity="0.9" style="display: none;">
            <polygon points="49.11,59.84 49.11,49.22 46.10,49.22 46.10,59.84 42.29,59.84 47.60,65.14 52.90,59.84 49.11,59.84 " fill="#444444"/>
        </g> 
        <g class="Name" fill-opacity="0.9" style="display: none;">
            <text transform="translate(3 12)" font-size="12" font-family="Verdana, Sans-Serif">CWH</text>
        </g>
        <desc>Width:120 Height:200 Depth:60 Elevation:0</desc>
     </g><g class="FixedFurniture Closet" transform="matrix(0,1,-1,0,629.953,166.3357)" style="fill-opacity: 1; stroke-opacity: 1;" fill="#ffffff" stroke="#000000">
        <g class="BoundaryPolygon" fill="rgb(255, 255, 255)" stroke="rgb(0, 0, 0)">
            <polygon points="0.00,0.00 163.79,0.00 163.79,40.12 0.00,40.12 "/>
        </g>
        <g class="Direction" fill-opacity="0.9" style="display: none;">
            <polygon points="86.02,36.57 86.02,25.95 83.01,25.95 83.01,36.57 79.20,36.57 84.51,41.87 89.81,36.57 86.02,36.57 " fill="#444444"/>
        </g> 
        <g class="Name" fill-opacity="0.9" style="display: none;">
            <text transform="translate(3 12)" font-size="12" font-family="Verdana, Sans-Serif">CL</text>
        </g>
        <desc>Width:60 Height:200 Depth:60 Elevation:0</desc>
     </g><g class="FixedFurniture Closet" transform="matrix(1,0,0,1,633.6938,538.2338)" style="fill-opacity: 1; stroke-opacity: 1;" fill="#ffffff" stroke="#000000">
        <g class="BoundaryPolygon" fill="rgb(255, 255, 255)" stroke="rgb(0, 0, 0)">
            <polygon points="0.00,0.00 49.22,0.00 49.22,48.55 0.00,48.55 "/>
        </g>
        <g class="Direction" fill-opacity="0.9" style="display: none;">
            <polygon points="25.85,44.26 25.85,33.64 22.84,33.64 22.84,44.26 19.04,44.26 24.34,49.56 29.64,44.26 25.85,44.26 " fill="#444444"/>
        </g> 
        <g class="Name" fill-opacity="0.9" style="display: none;">
            <text transform="translate(3 12)" font-size="12" font-family="Verdana, Sans-Serif">CL</text>
        </g>
        <desc>Width:60 Height:200 Depth:60 Elevation:0</desc>
     </g><g class="FixedFurniture Closet" transform="matrix(-1,0,0,-1,1226.0028,847.0005)" style="fill-opacity: 1; stroke-opacity: 1;" fill="#ffffff" stroke="#000000">
        <g class="BoundaryPolygon" fill="rgb(255, 255, 255)" stroke="rgb(0, 0, 0)">
            <polygon points="0.00,0.00 59.80,0.00 59.80,60.00 0.00,60.00 "/>
        </g>
        <g class="Direction" fill-opacity="0.9" style="display: none;">
            <polygon points="31.40,54.70 31.40,44.08 28.39,44.08 28.39,54.70 24.59,54.70 29.89,60.00 35.20,54.70 31.40,54.70 " fill="#444444"/>
        </g> 
        <g class="Name" fill-opacity="0.9" style="display: none;">
            <text transform="translate(3 12)" font-size="12" font-family="Verdana, Sans-Serif">CL</text>
        </g>
        <desc>Width:60 Height:200 Depth:60 Elevation:0</desc>
     </g><g class="FixedFurniture ElectricalAppliance IntegratedStove" transform="matrix(-1,0,0,-1,1000.2228,847.0786)" style="fill-opacity: 1; stroke-opacity: 1;" fill="#ffffff" stroke="#000000">
            <g class="BoundaryPolygon" fill="rgb(255, 255, 255)" stroke="rgb(0, 0, 0)">
                <polygon points="2.00,2.00 49.37,2.00 49.37,58.00 2.00,58.00 "/>
            </g>
            <g class="OuterCircle" fill="rgb(255, 255, 255)" stroke="rgb(0, 0, 0)" stroke-width="0.8">
                <circle cx="13.620050656049857" cy="16" r="8"/>
                <circle cx="37.45513930413711" cy="16" r="8"/>
                <circle cx="13.620050656049857" cy="43.9" r="8"/>
                <circle cx="37.45513930413711" cy="44" r="8"/>
            </g>
             <g class="Direction" fill-opacity="0.9" style="display: none;">
                <polygon points="27.25,55.20 27.25,44.58 24.24,44.58 24.24,55.20 20.44,55.20 25.74,60.00 31.04,55.20 27.25,55.20 " fill="#444444"/>
            </g> 
            <g class="Name" fill-opacity="0.9" style="display: none;">
                <text transform="translate(3 12)" font-size="12" font-family="Verdana, Sans-Serif">INT_STOVE</text>
            </g>
            <desc>Width:60 Height:90 Depth:30 Elevation:0</desc>
        </g><g class="FixedFurniture DoubleSink" transform="matrix(-1,0,0,-1,1073.2561,847.0786)" style="fill-opacity: 1; stroke-opacity: 1;" fill="#ffffff" stroke="#000000">
            <g class="InnerPolygonLeft" fill="rgb(255, 255, 255)" stroke="rgb(0, 0, 0)">
                <polygon points="5.00,9.90 33.00,9.90 33.00,54.90 5.00,54.90 "/>
            </g>
            <g class="InnerPolygonRight" fill="rgb(255, 255, 255)" stroke="rgb(0, 0, 0)">
                <polygon points="35.96,10.00 64.03,10.00 64.03,55.00 35.96,55.00 "/>
            </g>
            <g class="OuterDrain" fill="rgb(255, 255, 255)" stroke="rgb(0, 0, 0)" stroke-width="0.8">
                <circle cx="19.40739109922075" cy="32.5" r="3.5"/>
                <circle cx="49.45436716654223" cy="32.5" r="3.5"/>
            </g>
            <g class="InnerDrain" fill="rgb(255, 255, 255)" stroke="rgb(0, 0, 0)" stroke-width="0.8">
                <circle cx="19.40739109922075" cy="32.5" r="2"/>
                <circle cx="49.45436716654223" cy="32.5" r="2"/>
            </g>
            <g class="Faucet" fill="rgb(255, 255, 255)" stroke="rgb(0, 0, 0)">
                <polygon points="31.52,4.90 37.52,4.90 37.52,18.90 31.52,18.90 "/>
            </g>
            <g class="Direction" fill-opacity="0.9" style="display: none;">
                <polygon points="35.97,54.70 35.97,44.08 32.96,44.08 32.96,54.70 29.15,54.70 34.46,60.00 39.76,54.70 35.97,54.70 " fill="#444444"/>
            </g> 
            <g class="Name" fill-opacity="0.9" style="display: none;">
                <text transform="translate(3 12)" font-size="12" font-family="Verdana, Sans-Serif">DSINK</text>
            </g>
         <desc>Width:70 Height:90 Depth:60 Elevation:0</desc>
        </g><g class="FixedFurniture WallCabinet" transform="matrix(-1,0,0,-1,1118.0102,847.0161)" style="fill-opacity: 0.7; stroke-opacity: 1;" fill="#ffffff" stroke="#000000">	
        <g class="BoundaryPolygon" fill="rgb(255, 255, 255)" stroke="rgb(0, 0, 0)">
                <polygon points="0.00,0.00 119.49,0.00 119.49,30.00 0.00,30.00 "/>
        </g>
        <g class="Direction" fill-opacity="0.9" style="display: none;">
                <polygon points="63.75,25.20 63.75,14.58 60.74,14.58 60.74,25.20 56.93,25.20 62.24,30.00 67.54,25.20 63.75,25.20 " fill="#444444"/>
        </g> 
        <g class="Name" fill-opacity="0.9" style="display: none;">
                <text transform="translate(3 12)" font-size="12" font-family="Verdana, Sans-Serif">UC</text>
        </g>
        <desc>Width:60 Height:60 Depth:50 Elevation:140</desc>
        </g></g></g></g></svg>
