<?xml version="1.0"?>
<svg xmlns="http://www.w3.org/2000/svg" xmlns:xlink="http://www.w3.org/1999/xlink" height="1219.8199768066406" version="1.1" width="1044.7050552368164" id="temp" viewBox="0 0 1044.7050552368164 1219.8199768066406"><desc>Powered by CubiCasa</desc><defs/><g id="Model" class="Model v1-1"><g class="Floor"><g id="Floor-1" class="Floorplan Floor-1"><g id="752f608b-70e2-4e15-9988-eeed4c752e38" fill="#ffffff" stroke="#ffffff" style="fill-opacity: 1; stroke-opacity: 1; stroke-width: 0.2;" class="Space Bedroom"><polygon points="565.84,746.33 102.63,746.33 102.63,379.16 565.84,379.16 "/><g transform="matrix(1,0,0,1,102.6271,379.155)" class="Dimension"><g transform="matrix(1,0,0,1,0,0)" style="display: none;" class="Visual"><g id="mark1" fill="#000000" stroke="none" transform="matrix(1,0,0,1,231.6065,0)" style="fill-opacity: 1; pointer-events: visible;" class="DimensionMark"><polygon points="-5,5,0,0,5,5"/></g><g id="mark2" fill="#000000" stroke="none" transform="matrix(1,0,0,1,463.2131,183.5891)" style="fill-opacity: 1; pointer-events: visible;" class="DimensionMark"><polygon points="-5,-5,0,0,-5,5"/></g><g id="mark3" fill="#000000" stroke="none" transform="matrix(1,0,0,1,231.6065,367.1783)" style="fill-opacity: 1; pointer-events: visible;" class="DimensionMark"><polygon points="-5,-5,0,0,5,-5"/></g><g id="mark4" fill="#000000" stroke="none" transform="matrix(1,0,0,1,0,183.5891)" style="fill-opacity: 1; pointer-events: visible;" class="DimensionMark"><polygon points="5,5,0,0,5,-5"/></g></g><g transform="matrix(1,0,0,1,214.5758,186.1714)" class="SpaceDimensionsLabel" style="display: block;"><g id="NameLabel" style="display: block;" class="TextLabel NameLabel"><text x="0" y="0em" fill="#000000" stroke="none" style="font-family: Verdana; font-size: 33px; fill-opacity: 1; cursor: default;">MH</text></g><g id="DimensionMeasureLabel" transform="matrix(1,0,0,1,-113.6719,79.875)" style="display: none;" class="TextLabel DimensionMeasureLabel"><text x="31.6875" y="-1.2em" fill="#000000" stroke="none" style="font-family: Verdana; font-size: 33px; fill-opacity: 1; cursor: default;">15'2" x 12'1"</text><text x="0" y="0em" fill="#000000" stroke="none" style="font-family: Verdana; font-size: 33px; fill-opacity: 1; cursor: default;">4.63 m x 3.67 m</text></g></g></g></g><g id="99e8f368-0a14-4971-b8e9-67520d113660" fill="#ffffff" stroke="#ffffff" style="fill-opacity: 1; stroke-opacity: 1; stroke-width: 0.2;" class="Space Bedroom"><polygon points="471.74,1037.89 102.63,1037.89 102.63,755.33 471.74,755.33 "/><g transform="matrix(1,0,0,1,102.6271,755.3333)" class="Dimension"><g transform="matrix(1,0,0,1,0,0)" style="display: none;" class="Visual"><g id="mark1" fill="#000000" stroke="none" transform="matrix(1,0,0,1,184.5571,0)" style="fill-opacity: 1; pointer-events: visible;" class="DimensionMark"><polygon points="-5,5,0,0,5,5"/></g><g id="mark2" fill="#000000" stroke="none" transform="matrix(1,0,0,1,369.1141,141.2776)" style="fill-opacity: 1; pointer-events: visible;" class="DimensionMark"><polygon points="-5,-5,0,0,-5,5"/></g><g id="mark3" fill="#000000" stroke="none" transform="matrix(1,0,0,1,184.5571,282.5552)" style="fill-opacity: 1; pointer-events: visible;" class="DimensionMark"><polygon points="-5,-5,0,0,5,-5"/></g><g id="mark4" fill="#000000" stroke="none" transform="matrix(1,0,0,1,0,141.2776)" style="fill-opacity: 1; pointer-events: visible;" class="DimensionMark"><polygon points="5,5,0,0,5,-5"/></g></g><g transform="matrix(1,0,0,1,169.682,152.8976)" class="SpaceDimensionsLabel" style="display: block;"><g id="NameLabel" style="display: block;" class="TextLabel NameLabel"><text x="0" y="0em" fill="#000000" stroke="none" style="font-family: Verdana; font-size: 33px; fill-opacity: 1; cursor: default;">MH</text></g><g id="DimensionMeasureLabel" transform="matrix(1,0,0,1,-113.6719,79.875)" style="display: none;" class="TextLabel DimensionMeasureLabel"><text x="42.171875" y="-1.2em" fill="#000000" stroke="none" style="font-family: Verdana; font-size: 33px; fill-opacity: 1; cursor: default;">12'1" x 9'3"</text><text x="0" y="0em" fill="#000000" stroke="none" style="font-family: Verdana; font-size: 33px; fill-opacity: 1; cursor: default;">3.69 m x 2.83 m</text></g></g></g></g><g id="aa0e8b5f-4c8d-409f-900a-6951450194af" fill="#ffffff" stroke="#ffffff" style="fill-opacity: 1; stroke-opacity: 1; stroke-width: 0.2;" class="Space Kitchen"><polygon points="846.09,685.80 800.55,685.80 800.55,745.96 846.09,745.96 846.09,746.33 574.84,746.33 574.84,379.16 846.09,379.16 "/><g transform="matrix(1,0,0,1,574.8402,379.155)" class="Dimension"><g transform="matrix(1,0,0,1,0,0)" style="display: none;" class="Visual"><g id="mark1" fill="#000000" stroke="none" transform="matrix(1,0,0,1,135.6228,0)" style="fill-opacity: 1; pointer-events: visible;" class="DimensionMark"><polygon points="-5,5,0,0,5,5"/></g><g id="mark2" fill="#000000" stroke="none" transform="matrix(1,0,0,1,271.2457,183.5891)" style="fill-opacity: 1; pointer-events: visible;" class="DimensionMark"><polygon points="-5,-5,0,0,-5,5"/></g><g id="mark3" fill="#000000" stroke="none" transform="matrix(1,0,0,1,135.6228,367.1783)" style="fill-opacity: 1; pointer-events: visible;" class="DimensionMark"><polygon points="-5,-5,0,0,5,-5"/></g><g id="mark4" fill="#000000" stroke="none" transform="matrix(1,0,0,1,0,183.5891)" style="fill-opacity: 1; pointer-events: visible;" class="DimensionMark"><polygon points="5,5,0,0,5,-5"/></g></g><g transform="matrix(1,0,0,1,111.0918,186.1708)" class="SpaceDimensionsLabel" style="display: block;"><g id="NameLabel" style="display: block;" class="TextLabel NameLabel"><text x="0" y="0em" fill="#000000" stroke="none" style="font-family: Verdana; font-size: 33px; fill-opacity: 1; cursor: default;">K</text></g><g id="DimensionMeasureLabel" transform="matrix(1,0,0,1,-128.5703,79.5625)" style="display: none;" class="TextLabel DimensionMeasureLabel"><text x="31.6953125" y="-1.2em" fill="#000000" stroke="none" style="font-family: Verdana; font-size: 33px; fill-opacity: 1; cursor: default;">8'11" x 12'1"</text><text x="0" y="0em" fill="#000000" stroke="none" style="font-family: Verdana; font-size: 33px; fill-opacity: 1; cursor: default;">2.71 m x 3.67 m</text></g></g></g></g><g id="a7166780-55a6-40e7-bfb5-0983a6c56998" fill="#ffffff" stroke="#ffffff" style="fill-opacity: 1; stroke-opacity: 1; stroke-width: 0.2;" class="Space Entry Lobby"><polygon points="688.27,1143.24 595.84,1143.24 595.84,1037.89 480.74,1037.89 480.74,755.33 688.27,755.33 "/><g transform="matrix(1,0,0,1,480.7413,755.3333)" class="Dimension"><g transform="matrix(1,0,0,1,0,0)" style="display: none;" class="Visual"><g id="mark1" fill="#000000" stroke="none" transform="matrix(1,0,0,1,115.0989,0)" style="fill-opacity: 1; pointer-events: visible;" class="DimensionMark"><polygon points="-5,5,0,0,5,5"/></g><g id="mark2" fill="#000000" stroke="none" transform="matrix(1,0,0,1,207.533,193.9553)" style="fill-opacity: 1; pointer-events: visible;" class="DimensionMark"><polygon points="-5,-5,0,0,-5,5"/></g><g id="mark3" fill="#000000" stroke="none" transform="matrix(1,0,0,1,115.0989,387.9105)" style="fill-opacity: 1; pointer-events: visible;" class="DimensionMark"><polygon points="-5,-5,0,0,5,-5"/></g><g id="mark4" fill="#000000" stroke="none" transform="matrix(1,0,0,1,0,193.9553)" style="fill-opacity: 1; pointer-events: visible;" class="DimensionMark"><polygon points="5,5,0,0,5,-5"/></g></g><g transform="matrix(1,0,0,1,88.751,154.3265)" class="SpaceDimensionsLabel" style="display: block;"><g id="NameLabel" style="display: block;" class="TextLabel NameLabel"><text x="0" y="0em" fill="#000000" stroke="none" style="font-family: Verdana; font-size: 33px; fill-opacity: 1; cursor: default;">ET</text></g><g id="DimensionMeasureLabel" transform="matrix(1,0,0,1,-118.9688,79.9062)" style="display: none;" class="TextLabel DimensionMeasureLabel"><text x="31.6875" y="-1.2em" fill="#000000" stroke="none" style="font-family: Verdana; font-size: 33px; fill-opacity: 1; cursor: default;">6'10" x 12'9"</text><text x="0" y="0em" fill="#000000" stroke="none" style="font-family: Verdana; font-size: 33px; fill-opacity: 1; cursor: default;">2.08 m x 3.88 m</text></g></g></g></g><g id="5d1c7dfe-6990-4049-985e-b4b2f629f679" fill="#ffffff" stroke="#ffffff" style="fill-opacity: 1; stroke-opacity: 1; stroke-width: 0.2;" class="Space Bath"><polygon points="846.09,953.15 845.98,952.94 773.70,953.15 773.81,989.39 697.27,989.39 697.27,755.33 846.09,755.33 "/><g transform="matrix(1,0,0,1,697.2743,755.3333)" class="Dimension"><g transform="matrix(1,0,0,1,0,0)" style="display: none;" class="Visual"><g id="mark1" fill="#000000" stroke="none" transform="matrix(1,0,0,1,74.4058,0)" style="fill-opacity: 1; pointer-events: visible;" class="DimensionMark"><polygon points="-5,5,0,0,5,5"/></g><g id="mark2" fill="#000000" stroke="none" transform="matrix(1,0,0,1,148.8116,117.0299)" style="fill-opacity: 1; pointer-events: visible;" class="DimensionMark"><polygon points="-5,-5,0,0,-5,5"/></g><g id="mark3" fill="#000000" stroke="none" transform="matrix(1,0,0,1,74.4058,234.0598)" style="fill-opacity: 1; pointer-events: visible;" class="DimensionMark"><polygon points="-5,-5,0,0,5,-5"/></g><g id="mark4" fill="#000000" stroke="none" transform="matrix(1,0,0,1,0,117.0299)" style="fill-opacity: 1; pointer-events: visible;" class="DimensionMark"><polygon points="5,5,0,0,5,-5"/></g></g><g transform="matrix(1,0,0,1,34.3814,128.6324)" class="SpaceDimensionsLabel" style="display: block;"><g id="NameLabel" style="display: block;" class="TextLabel NameLabel"><text x="0" y="0em" fill="#000000" stroke="none" style="font-family: Verdana; font-size: 33px; fill-opacity: 1; cursor: default;">KH</text></g><g id="DimensionMeasureLabel" transform="matrix(1,0,0,1,-116.1484,79.875)" style="display: none;" class="TextLabel DimensionMeasureLabel"><text x="42.171875" y="-1.2em" fill="#000000" stroke="none" style="font-family: Verdana; font-size: 33px; fill-opacity: 1; cursor: default;">4'11" x 7'8"</text><text x="0" y="0em" fill="#000000" stroke="none" style="font-family: Verdana; font-size: 33px; fill-opacity: 1; cursor: default;">1.49 m x 2.34 m</text></g></g></g></g><g id="3a05ad8e-d80a-4ff8-acce-4a2d28742f06" fill="#ffffff" stroke="#ffffff" style="fill-opacity: 1; stroke-opacity: 1; stroke-width: 0.2;" class="Space Closet WalkIn"><polygon points="806.82,1041.16 846.09,1041.16 846.09,1143.24 697.27,1143.24 697.27,998.39 806.82,998.39 "/><g transform="matrix(1,0,0,1,697.2743,998.3931)" class="Dimension"><g transform="matrix(1,0,0,1,0,0)" style="display: none;" class="Visual"><g id="mark1" fill="#000000" stroke="none" transform="matrix(1,0,0,1,74.4058,0)" style="fill-opacity: 1; pointer-events: visible;" class="DimensionMark"><polygon points="-5,5,0,0,5,5"/></g><g id="mark2" fill="#000000" stroke="none" transform="matrix(1,0,0,1,148.8116,72.4254)" style="fill-opacity: 1; pointer-events: visible;" class="DimensionMark"><polygon points="-5,-5,0,0,-5,5"/></g><g id="mark3" fill="#000000" stroke="none" transform="matrix(1,0,0,1,74.4058,144.8507)" style="fill-opacity: 1; pointer-events: visible;" class="DimensionMark"><polygon points="-5,-5,0,0,5,-5"/></g><g id="mark4" fill="#000000" stroke="none" transform="matrix(1,0,0,1,0,72.4254)" style="fill-opacity: 1; pointer-events: visible;" class="DimensionMark"><polygon points="5,5,0,0,5,-5"/></g></g><g transform="matrix(1,0,0,1,38.8733,91.6479)" class="SpaceDimensionsLabel" style="display: block;"><g id="NameLabel" style="display: block;" class="TextLabel NameLabel"><text x="0" y="0em" fill="#000000" stroke="none" style="font-family: Verdana; font-size: 33px; fill-opacity: 1; cursor: default;">VH</text></g><g id="DimensionMeasureLabel" transform="matrix(1,0,0,1,-116.3047,79.5468)" style="display: none;" class="TextLabel DimensionMeasureLabel"><text x="42.171875" y="-1.2em" fill="#000000" stroke="none" style="font-family: Verdana; font-size: 33px; fill-opacity: 1; cursor: default;">4'11" x 4'9"</text><text x="0" y="0em" fill="#000000" stroke="none" style="font-family: Verdana; font-size: 33px; fill-opacity: 1; cursor: default;">1.49 m x 1.45 m</text></g></g></g></g><g id="91a0c27f-d2a4-47cd-a518-4712d9dd7204" fill="#ffffff" stroke="#ffffff" style="fill-opacity: 1; stroke-opacity: 1; stroke-width: 0.2;" class="Space Undefined"><polygon points="846.09,989.39 773.81,989.39 846.09,989.18 "/><g transform="matrix(1,0,0,1,773.8076,989.2886)" class="Dimension"><g transform="matrix(1,0,0,1,0,0)" style="display: none;" class="Visual"><g id="mark1" fill="#000000" stroke="none" transform="matrix(1,0,0,1,36.1393,0)" style="fill-opacity: 1; pointer-events: visible;" class="DimensionMark"><polygon points="-5,5,0,0,5,5"/></g><g id="mark2" fill="#000000" stroke="none" transform="matrix(1,0,0,1,72.2782,0.1045)" style="fill-opacity: 1; pointer-events: visible;" class="DimensionMark"><polygon points="-5,-5,0,0,-5,5"/></g><g id="mark3" fill="#000000" stroke="none" transform="matrix(1,0,0,1,36.1393,0.1045)" style="fill-opacity: 1; pointer-events: visible;" class="DimensionMark"><polygon points="-5,-5,0,0,5,-5"/></g><g id="mark4" fill="#000000" stroke="none" transform="matrix(1,0,0,1,0,0.1045)" style="fill-opacity: 1; pointer-events: visible;" class="DimensionMark"><polygon points="5,5,0,0,5,-5"/></g></g><g transform="matrix(1,0,0,1,72.0225,0)" class="SpaceDimensionsLabel"><g id="NameLabel" style="display: block;" class="TextLabel NameLabel"><text x="0" y="0em" fill="#000000" stroke="none" style="font-family: Verdana; font-size: 33px; fill-opacity: 1; cursor: default;">UNDEFINED</text></g><g id="DimensionMeasureLabel" transform="matrix(1,0,0,1,-40.5156,79.875)" style="display: none;" class="TextLabel DimensionMeasureLabel"><text x="52.6640625" y="-1.2em" fill="#000000" stroke="none" style="font-family: Verdana; font-size: 33px; fill-opacity: 1; cursor: default;">2'4" x 0'0"</text><text x="0" y="0em" fill="#000000" stroke="none" style="font-family: Verdana; font-size: 33px; fill-opacity: 1; cursor: default;">0.72 m x 0.00 m</text></g></g></g></g><g id="Wall" fill="#000000" stroke="#000000" style="fill-opacity: 1; stroke-opacity: 1; stroke-width: 0.2;" class="Wall External"><polygon points="595.84,1143.24 595.84,1037.89 574.84,1058.89 574.84,1164.24 "/></g><g id="Wall" fill="#000000" stroke="#000000" style="fill-opacity: 1; stroke-opacity: 1; stroke-width: 0.2;" class="Wall External"><polygon points="595.84,1037.89 102.63,1037.89 81.63,1058.89 574.84,1058.89 "/></g><g id="Wall" fill="#000000" stroke="#000000" style="fill-opacity: 1; stroke-opacity: 1; stroke-width: 0.2;" class="Wall External"><polygon points="102.63,1037.89 102.63,379.16 81.63,358.16 81.63,1058.89 "/><g id="Window" fill="#f0f0ff" stroke="#000000" style="fill-opacity: 1; stroke-width: 1; stroke-opacity: 1;" class="Window Regular"><polygon points="102.63,704.27 102.63,534.16 81.63,534.16 81.63,704.27 "/><g id="Glass" class="Glass"><polygon points="102.63,704.27 102.63,534.16 81.63,534.16 81.63,704.27 "/></g><g id="Panel" class="Panel"><line x1="92.12711538062025" x2="92.12711538062022" y1="696.7688859951774" y2="541.657135574685"/><line x1="102.62711538062025" x2="81.62711538062025" y1="696.7688859951774" y2="696.7688859951774"/><line x1="102.62711538062022" x2="81.62711538062022" y1="541.657135574685" y2="541.657135574685"/></g></g><g id="Window" fill="#f0f0ff" stroke="#000000" style="fill-opacity: 1; stroke-width: 1; stroke-opacity: 1;" class="Window Regular"><polygon points="102.63,951.52 102.63,789.32 81.63,789.32 81.63,951.52 "/><g id="Glass" class="Glass"><polygon points="102.63,951.52 102.63,789.32 81.63,789.32 81.63,951.52 "/></g><g id="Panel" class="Panel"><line x1="92.12711538062028" x2="92.12711538062027" y1="944.0243394573399" y2="796.8247612054236"/><line x1="102.62711538062028" x2="81.62711538062028" y1="944.0243394573399" y2="944.0243394573399"/><line x1="102.62711538062027" x2="81.62711538062027" y1="796.8247612054236" y2="796.8247612054236"/></g></g></g><g id="Wall" fill="#000000" stroke="#000000" style="fill-opacity: 1; stroke-opacity: 1; stroke-width: 0.2;" class="Wall External"><polygon points="102.63,379.16 846.09,379.16 867.09,358.16 81.63,358.16 "/><g id="Window" fill="#f0f0ff" stroke="#000000" style="fill-opacity: 1; stroke-width: 1; stroke-opacity: 1;" class="Window Regular"><polygon points="617.66,379.16 709.55,379.16 709.55,358.16 617.66,358.16 "/><g id="Glass" class="Glass"><polygon points="617.66,379.16 709.55,379.16 709.55,358.16 617.66,358.16 "/></g><g id="Panel" class="Panel"><line x1="625.1572377073381" x2="702.054927687221" y1="368.65502477249237" y2="368.6550247724923"/><line x1="625.1572377073381" x2="625.1572377073381" y1="379.15502477249237" y2="358.15502477249237"/><line x1="702.054927687221" x2="702.054927687221" y1="379.1550247724923" y2="358.1550247724923"/></g></g><g id="Door" fill="#ffffff" stroke="#000000" style="fill-opacity: 1; stroke-width: 1; stroke-opacity: 1;" class="Door Swing Opposite"><polygon points="721.04,379.16 776.95,379.16 776.95,358.16 721.04,358.16 "/><g id="Threshold" class="Threshold"><polygon points="721.04,379.16 776.95,379.16 776.95,358.16 721.04,358.16 "/></g><g id="Panel" fill="none" style="" class="Panel Left Negative"><g id="PanelArea" fill="none" stroke="none" style="" class="PanelArea"><polygon points="721.04,379.16 776.95,379.16 776.95,358.16 721.04,358.16 "/></g><path d="M721.04,379.16 q0.00,55.90 55.90,55.90 l0.00,-55.90Z"/></g><g id="Panel" fill="none" style="" class="Panel Right Positive"><g id="PanelArea" fill="none" stroke="none" style="" class="PanelArea"><polygon points="721.04,379.16 776.95,379.16 776.95,358.16 721.04,358.16 "/></g><path d="M721.04,358.16 q0.00,-55.90 55.90,-55.90 l0.00,55.90Z"/></g></g></g><g id="Wall" fill="#000000" stroke="#000000" style="fill-opacity: 1; stroke-opacity: 1; stroke-width: 0.2;" class="Wall External"><polygon points="846.09,379.16 846.09,1143.24 867.09,1164.24 867.09,358.16 "/></g><g id="Wall" fill="#000000" stroke="#000000" style="fill-opacity: 1; stroke-opacity: 1; stroke-width: 0.2;" class="Wall External"><polygon points="846.09,1143.24 595.84,1143.24 574.84,1164.24 867.09,1164.24 "/><g id="Door" fill="#ffffff" stroke="#000000" style="fill-opacity: 1; stroke-width: 1; stroke-opacity: 1;" class="Door Swing Beside"><polygon points="678.35,1143.24 622.77,1143.24 622.77,1164.24 678.35,1164.24 "/><g id="Threshold" class="Threshold"><polygon points="678.35,1143.24 622.77,1143.24 622.77,1164.24 678.35,1164.24 "/></g><g id="Panel" fill="none" style="" class="Panel Right Positive"><g id="PanelArea" fill="none" stroke="none" style="" class="PanelArea"><polygon points="678.35,1143.24 622.77,1143.24 622.77,1164.24 678.35,1164.24 "/></g><path d="M678.35,1164.24 q0.00,55.58 -55.58,55.58 l0.00,-55.58Z"/></g></g></g><g id="Wall" fill="#000000" stroke="#000000" style="fill-opacity: 1; stroke-opacity: 1; stroke-width: 0.2;" class="Wall"><polygon points="867.09,755.33 81.63,755.33 81.63,746.33 867.09,746.33 "/><g id="Door" fill="#ffffff" stroke="#000000" style="fill-opacity: 1; stroke-width: 1; stroke-opacity: 1;" class="Door Swing Beside"><polygon points="554.00,755.33 499.96,755.33 499.96,746.33 554.00,746.33 "/><g id="Threshold" class="Threshold"><polygon points="554.00,755.33 499.96,755.33 499.96,746.33 554.00,746.33 "/></g><g id="Panel" fill="none" style="" class="Panel Left Positive"><g id="PanelArea" fill="none" stroke="none" style="" class="PanelArea"><polygon points="554.00,755.33 499.96,755.33 499.96,746.33 554.00,746.33 "/></g><path d="M499.96,746.33 q0.00,-54.04 54.04,-54.04 l0.00,54.04Z"/></g></g><g id="Door" fill="#ffffff" stroke="#000000" style="fill-opacity: 1; stroke-width: 1; stroke-opacity: 1;" class="Door Swing Beside"><polygon points="648.58,755.33 595.88,755.33 595.88,746.33 648.58,746.33 "/><g id="Threshold" class="Threshold"><polygon points="648.58,755.33 595.88,755.33 595.88,746.33 648.58,746.33 "/></g><g id="Panel" fill="none" style="" class="Panel Right Positive"><g id="PanelArea" fill="none" stroke="none" style="" class="PanelArea"><polygon points="648.58,755.33 595.88,755.33 595.88,746.33 648.58,746.33 "/></g><path d="M648.58,746.33 q0.00,-52.69 -52.69,-52.69 l0.00,52.69Z"/></g></g></g><g id="Wall" fill="#000000" stroke="#000000" style="fill-opacity: 1; stroke-opacity: 1; stroke-width: 0.2;" class="Wall"><polygon points="471.74,1058.89 471.74,746.33 480.74,746.33 480.74,1058.89 "/><g id="Door" fill="#ffffff" stroke="#000000" style="fill-opacity: 1; stroke-width: 1; stroke-opacity: 1;" class="Door Swing Beside"><polygon points="471.74,841.54 471.74,785.14 480.74,785.14 480.74,841.54 "/><g id="Threshold" class="Threshold"><polygon points="471.74,841.54 471.74,785.14 480.74,785.14 480.74,841.54 "/></g><g id="Panel" fill="none" style="" class="Panel Left Negative"><g id="PanelArea" fill="none" stroke="none" style="" class="PanelArea"><polygon points="471.74,841.54 471.74,785.14 480.74,785.14 480.74,841.54 "/></g><path d="M471.74,841.54 q-56.40,0.00 -56.40,-56.40 l56.40,0.00Z"/></g></g></g><g id="Wall" fill="#000000" stroke="#000000" style="fill-opacity: 1; stroke-opacity: 1; stroke-width: 0.2;" class="Wall"><polygon points="574.84,755.33 574.84,358.16 565.84,358.16 565.84,755.33 "/></g><g id="Wall" fill="#000000" stroke="#000000" style="fill-opacity: 1; stroke-opacity: 1; stroke-width: 0.2;" class="Wall"><polygon points="688.27,746.33 688.27,1164.24 697.27,1164.24 697.27,746.33 "/><g id="Door" fill="#ffffff" stroke="#000000" style="fill-opacity: 1; stroke-width: 1; stroke-opacity: 1;" class="Door Swing Beside"><polygon points="688.27,1040.16 688.27,1097.38 697.27,1097.38 697.27,1040.16 "/><g id="Threshold" class="Threshold"><polygon points="688.27,1040.16 688.27,1097.38 697.27,1097.38 697.27,1040.16 "/></g><g id="Panel" fill="none" style="" class="Panel Left Negative"><g id="PanelArea" fill="none" stroke="none" style="" class="PanelArea"><polygon points="688.27,1040.16 688.27,1097.38 697.27,1097.38 697.27,1040.16 "/></g><path d="M688.27,1040.16 q-57.22,0.00 -57.22,57.22 l57.22,0.00Z"/></g></g><g id="Door" fill="#ffffff" stroke="#000000" style="fill-opacity: 1; stroke-width: 1; stroke-opacity: 1;" class="Door Swing Beside"><polygon points="688.27,852.16 688.27,906.11 697.27,906.11 697.27,852.16 "/><g id="Threshold" class="Threshold"><polygon points="688.27,852.16 688.27,906.11 697.27,906.11 697.27,852.16 "/></g><g id="Panel" fill="none" style="" class="Panel Right Negative"><g id="PanelArea" fill="none" stroke="none" style="" class="PanelArea"><polygon points="688.27,852.16 688.27,906.11 697.27,906.11 697.27,852.16 "/></g><path d="M688.27,906.11 q-53.95,0.00 -53.95,-53.95 l53.95,0.00Z"/></g></g></g><g id="Wall" fill="#000000" stroke="#000000" style="fill-opacity: 1; stroke-opacity: 1; stroke-width: 0.2;" class="Wall"><polygon points="688.27,998.39 867.09,998.39 867.09,989.39 688.27,989.39 "/></g><g id="Wall" fill="#000000" stroke="#000000" style="fill-opacity: 1; stroke-opacity: 1; stroke-width: 0.2;" class="Wall"><polygon points="846.09,998.39 806.82,998.39 806.82,1041.16 846.09,1041.16 "/></g><g id="Wall" fill="#000000" stroke="#000000" style="fill-opacity: 1; stroke-opacity: 1; stroke-width: 0.2;" class="Wall"><polygon points="846.09,989.18 773.81,989.39 773.70,953.15 845.98,952.94 "/></g><g id="Wall" fill="#000000" stroke="#000000" style="fill-opacity: 1; stroke-opacity: 1; stroke-width: 0.2;" class="Wall"><polygon points="846.09,745.96 846.09,685.80 800.55,685.80 800.55,745.96 "/></g><g id="Wall" fill="#000000" stroke="#000000" style="fill-opacity: 1; stroke-opacity: 1; stroke-width: 0.2;" class="Wall"><polygon points="867.09,358.16 867.09,188.84 858.09,188.84 858.09,358.16 "/></g><g id="Wall" fill="#000000" stroke="#000000" style="fill-opacity: 1; stroke-opacity: 1; stroke-width: 0.2;" class="Wall"><polygon points="549.16,358.16 549.16,330.30 558.16,330.30 558.16,358.16 "/></g><g id="Wall" fill="#000000" stroke="#000000" style="fill-opacity: 1; stroke-opacity: 1; stroke-width: 0.2;" class="Wall"><polygon points="549.16,226.73 549.16,189.31 558.16,189.31 558.16,226.73 "/></g><g id="Railing" fill="#ffffff" stroke="#000000" style="fill-opacity: 1; stroke-opacity: 1; stroke-width: 0.2;" class="Railing"><polygon points="558.16,330.30 558.16,226.73 549.16,226.73 549.16,330.30 " style="stroke-dasharray: 0;"/></g><g class="FixedFurniture CoatCloset" transform="matrix(-1,0,0,-1,595.7913,1037.6541)" style="fill-opacity: 1; stroke-opacity: 1;" fill="#ffffff" stroke="#000000">
        <g class="BoundaryPolygon" fill="rgb(255, 255, 255)" stroke="rgb(0, 0, 0)">
                <polygon points="0.00,0.00 115.05,0.00 115.05,34.90 0.00,34.90 "/>
            </g>
        <g class="Hanger" fill="rgb(255, 255, 255)" stroke="rgb(154, 154, 154)" stroke-dasharray="5,5">
            <line x1="0" y1="17.448156896589058" x2="115.04965674479035" y2="17.448156896589058"/>
            </g>
        <g class="Direction" fill-opacity="0.9" style="display: none;">
            <polygon points="58.97,31.71 58.97,21.09 55.96,21.09 55.96,31.71 52.16,31.71 57.46,37.01 62.77,31.71 58.97,31.71 " fill="#444444"/>
        </g> 
        <g class="Name" fill-opacity="0.9" style="display: none;">
            <text transform="translate(3 12)" font-size="12" font-family="Verdana, Sans-Serif">CWH</text>
        </g>
        <desc>Width:120 Height:200 Depth:60 Elevation:0</desc>
     </g><g class="FixedFurniture Closet" transform="matrix(1,0,0,1,697.2995,998.565)" style="fill-opacity: 1; stroke-opacity: 1;" fill="#ffffff" stroke="#000000">
        <g class="BoundaryPolygon" fill="rgb(255, 255, 255)" stroke="rgb(0, 0, 0)">
            <polygon points="0.00,0.00 109.52,0.00 109.52,32.02 0.00,32.02 "/>
        </g>
        <g class="Direction" fill-opacity="0.9" style="display: none;">
            <polygon points="56.14,29.09 56.14,18.47 53.13,18.47 53.13,29.09 49.32,29.09 54.63,34.39 59.93,29.09 56.14,29.09 " fill="#444444"/>
        </g> 
        <g class="Name" fill-opacity="0.9" style="display: none;">
            <text transform="translate(3 12)" font-size="12" font-family="Verdana, Sans-Serif">CL</text>
        </g>
        <desc>Width:120 Height:200 Depth:60 Elevation:0</desc>
     </g><g transform="matrix(1,0,0,1,846.0859,1041.1628)" class="FixedFurniture Closet" style="fill-opacity: 1; stroke-opacity: 1;" fill="#ffffff" stroke="#000000"><desc>Width:120 Height:200 Depth:60 Elevation:0</desc><g class="BoundaryPolygon"><polygon points="0.00,0.00 0.00,102.08 -148.81,102.08 -148.81,83.17 -24.09,83.17 -24.09,0.00 " fill="#ffffff" stroke="#000000" style=""/></g></g><g class="FixedFurniture Toilet" transform="matrix(0,1,-1,0,846.5859,899.523)" style="fill-opacity: 1; stroke-opacity: 1;" fill="#ffffff" stroke="#000000">
	   <g class="BoundaryPolygon" fill="rgb(255, 255, 255)" stroke="rgb(0, 0, 0)"> 
		<rect x="0.502" y="0.5" width="39.989" height="17.98"/>
          <path d="M40.491,44.237S41.619,70.5,20.907,70.5C-.523,70.5.6,44.237.6,44.237L.5,18.48H40.491Z"/>
          <rect x="17.318" y="7.975" width="6.357" height="3.03"/>
		</g>
        <desc>Width:40 Height:85 Depth:70 Elevation:0</desc>
    </g><g id="FixedFurnitureSet" transform="matrix(0,1,-1,0,845.9765,835.1368)" class="FixedFurnitureSet" style="fill-opacity: 1; stroke-opacity: 1;" fill="#ffffff" stroke="#000000"><g class="FixedFurniture BaseCabinet" transform="matrix(1,0,0,1,0,0)">
            <g class="BoundaryPolygon" fill="rgb(255, 255, 255)" stroke="rgb(0, 0, 0)">
            <polygon points="0.00,0.00 50.06,0.00 50.06,44.41 0.00,44.41 "/>
            </g>
            <g class="Direction" fill-opacity="0.9" style="display: none;">
                <polygon points="26.71,40.86 26.71,30.24 23.70,30.24 23.70,40.86 19.90,40.86 25.20,45.66 30.50,40.86 26.71,40.86 " fill="#444444"/>
            </g> 
            <g class="Name" fill-opacity="0.9" style="display: none;">
                <text transform="translate(3 12)" font-size="12" font-family="Verdana, Sans-Serif">CB</text>
            </g>
            <desc>Width:185 Height:5 Depth:60 Elevation:105</desc>
        </g><g class="FixedFurniture Sink" transform="matrix(1,0,0,1,0,0)">
            <g class="InnerPolygon" fill="rgb(255, 255, 255)" stroke="rgb(0, 0, 0)">
                <polygon points="5.00,9.70 45.89,9.70 45.89,40.49 5.00,40.49 "/>
            </g>
            <g class="OuterDrain" fill="rgb(255, 255, 255)" stroke="rgb(0, 0, 0)" stroke-width="0.8">
                <circle cx="25.031149218441364" cy="23.834454707044664" r="3.5"/>
            </g>
            <g class="InnerDrain" fill="rgb(255, 255, 255)" stroke="rgb(0, 0, 0)" stroke-width="0.8">
                <circle cx="25.031149218441364" cy="23.834454707044664" r="2"/>
            </g>
            <g class="Faucet" fill="rgb(255, 255, 255)" stroke="rgb(0, 0, 0)">
                <polygon points="22.53,3.70 28.53,3.70 28.53,17.70 22.53,17.70 "/>
            </g>
           <g class="Direction" fill-opacity="0.9" style="display: none;">
                <polygon points="26.71,40.86 26.71,30.24 23.70,30.24 23.70,40.86 19.90,40.86 25.20,45.66 30.50,40.86 26.71,40.86 " fill="#444444"/>
            </g> 
            <g class="Name" fill-opacity="0.9" style="display: none;">
                <text transform="translate(3 12)" font-size="12" font-family="Verdana, Sans-Serif">SINK</text>
            </g>
            <desc>Width:60 Height:90 Depth:60 Elevation:0</desc>
        </g></g><g class="FixedFurniture Shower" transform="matrix(0,1,-1,0,846.5859,778.6795)" style="fill-opacity: 1; stroke-opacity: 1;" fill="#ffffff" stroke="#000000"> 
	   <g class="BoundaryPolygon" fill="rgb(255, 255, 255)" stroke="rgb(0, 0, 0)" stroke-linejoin="round"> 
			<rect x="3.7" y="0.5" width="11.2" height="6.1"/>
			<rect x="17.6" y="0.5" width="11.2" height="6.1"/>
			<rect x="28.7" y="0.5" width="3.4" height="6.1"/>
			<rect x="0.5" y="0.5" width="3.2" height="6.1"/>
			<path d="M14.9,8.5c0,1.5-0.4,3.3-1.6,5    c-0.4,0.6-1,1.1-1.1,1.7c-0.2,1.1,0.3,2.8,2.5,3.2c0.5,0.1,1.3,0.1,1.6,0.1h-0.1c0.3,0,1.1,0,1.6-0.1c2.2-0.4,2.7-2.1,2.5-3.2    c-0.1-0.6-0.7-1.1-1.1-1.7c-1.2-1.7-1.6-3.5-1.6-5"/>
			<path d="M12.2,15.3c0.1,0.2,1.6,1.9,4.2,1.9 c2.4-0.1,3.7-1.7,3.9-1.9"/>
			<path d="M14.9,0.5h2.7v8c-0.9,0-1.8,0-2.7,0l0,0 C14.9,5.9,14.9,3.2,14.9,0.5z"/>
		</g>
	   <g class="Indicator" fill="rgb(255, 255, 255)" stroke="rgb(0, 0, 0)" stroke-width="0.5" stroke-linejoin="round"> 
			<path d="M3.7,3.6C5,3.1,5.2,3,5.2,3 c0,1.1,0,0,0,1.1C5.2,4.1,5.1,4.1,3.7,3.6"/>
			<path d="M28.7,3.6 C27.4,3.1,27.2,3,27.2,3c0,1.1,0,0,0,1.1C27.2,4.1,27.3,4.1,28.7,3.6"/>	
		</g>
        <desc>Width:35 Height:97 Depth:20 Elevation:135</desc>
	</g><g transform="matrix(1,0,0,1,800.5549,745.9638)" class="FixedFurniture BaseCabinet" style="fill-opacity: 1; stroke-opacity: 1;" fill="#ffffff" stroke="#000000"><desc>Width:60 Height:90 Depth:60 Elevation:0</desc><g class="BoundaryPolygon"><polygon points="0.00,0.00 0.00,-60.16 45.53,-60.16 45.53,-240.33 -16.19,-240.33 -16.19,-60.16 -131.77,-60.16 -131.77,0.37 0.00,0.00 " fill="#ffffff" stroke="#000000" style=""/></g></g><g class="FixedFurniture Sink" transform="matrix(-1,0,0,-1,792.4827,746.0833)" style="fill-opacity: 1; stroke-opacity: 1;" fill="#ffffff" stroke="#000000">
            <g class="InnerPolygon" fill="rgb(255, 255, 255)" stroke="rgb(0, 0, 0)">
                <polygon points="5.00,9.70 70.65,9.70 70.65,54.70 5.00,54.70 "/>
            </g>
            <g class="OuterDrain" fill="rgb(255, 255, 255)" stroke="rgb(0, 0, 0)" stroke-width="0.8">
                <circle cx="38.53798637712806" cy="32.2" r="3.5"/>
            </g>
            <g class="InnerDrain" fill="rgb(255, 255, 255)" stroke="rgb(0, 0, 0)" stroke-width="0.8">
                <circle cx="38.53798637712806" cy="32.2" r="2"/>
            </g>
            <g class="Faucet" fill="rgb(255, 255, 255)" stroke="rgb(0, 0, 0)">
                <polygon points="34.68,5.00 40.68,5.00 40.68,19.00 34.68,19.00 "/>
            </g>
           <g class="Direction" fill-opacity="0.9" style="display: none;">
                <polygon points="41.12,55.20 41.12,44.58 38.11,44.58 38.11,55.20 34.31,55.20 39.61,60.00 44.91,55.20 41.12,55.20 " fill="#444444"/>
            </g> 
            <g class="Name" fill-opacity="0.9" style="display: none;">
                <text transform="translate(3 12)" font-size="12" font-family="Verdana, Sans-Serif">SINK</text>
            </g>
            <desc>Width:60 Height:90 Depth:60 Elevation:0</desc>
        </g><g class="FixedFurniture ElectricalAppliance IntegratedStove" transform="matrix(0,1,-1,0,845.8349,580.0622)" style="fill-opacity: 1; stroke-opacity: 1;" fill="#ffffff" stroke="#000000">
            <g class="BoundaryPolygon" fill="rgb(255, 255, 255)" stroke="rgb(0, 0, 0)">
                <polygon points="2.00,2.00 68.42,2.00 68.42,58.00 2.00,58.00 "/>
            </g>
            <g class="OuterCircle" fill="rgb(255, 255, 255)" stroke="rgb(0, 0, 0)" stroke-width="0.8">
                <circle cx="18.87568043650536" cy="16" r="8"/>
                <circle cx="51.908121200389736" cy="16" r="8"/>
                <circle cx="18.87568043650536" cy="43.9" r="8"/>
                <circle cx="51.908121200389736" cy="44" r="8"/>
            </g>
             <g class="Direction" fill-opacity="0.9" style="display: none;">
                <polygon points="37.76,55.20 37.76,44.58 34.75,44.58 34.75,55.20 30.95,55.20 36.25,60.00 41.56,55.20 37.76,55.20 " fill="#444444"/>
            </g> 
            <g class="Name" fill-opacity="0.9" style="display: none;">
                <text transform="translate(3 12)" font-size="12" font-family="Verdana, Sans-Serif">INT_STOVE</text>
            </g>
            <desc>Width:60 Height:90 Depth:30 Elevation:0</desc>
        </g><g class="FixedFurniture WallCabinet" transform="matrix(0,1,-1,0,845.8349,505.6338)" style="fill-opacity: 0.7; stroke-opacity: 1;" fill="#ffffff" stroke="#000000">	
        <g class="BoundaryPolygon" fill="rgb(255, 255, 255)" stroke="rgb(0, 0, 0)">
                <polygon points="0.00,0.00 76.38,0.00 76.38,30.00 0.00,30.00 "/>
        </g>
        <g class="Direction" fill-opacity="0.9" style="display: none;">
                <polygon points="40.75,25.20 40.75,14.58 37.74,14.58 37.74,25.20 33.94,25.20 39.24,30.00 44.54,25.20 40.75,25.20 " fill="#444444"/>
        </g> 
        <g class="Name" fill-opacity="0.9" style="display: none;">
                <text transform="translate(3 12)" font-size="12" font-family="Verdana, Sans-Serif">UC</text>
        </g>
        <desc>Width:60 Height:60 Depth:50 Elevation:140</desc>
        </g><g class="FixedFurniture ElectricalAppliance Refrigerator" transform="matrix(0,0.8213,-1,0,845.9452,409.8558)" style="fill-opacity: 1; stroke-opacity: 1;" fill="#ffffff" stroke="#000000">
            <g class="BoundaryPolygon" fill="rgb(255, 255, 255)" stroke="rgb(0, 0, 0)">
                <polygon points="0,0 60,0 60,60 0,60"/>
            </g>
            <g class="electricitySign" fill="none" stroke="rgb(0, 0, 0)">
                    <path d="M0,0,30,37.1v-18L60,56.3"/>
            </g>
            <g class="Doors" fill="rgb(255, 255, 255)" stroke="rgb(0, 0, 0)">
                <rect y="56" width="60" height="4"/>
            </g>
             <g class="Direction" fill-opacity="0.9" style="display: none;">
                <polygon points="32.009 55.197 32.009 44.581 29 44.581 29 55.197 25.197 55.197 30.5 60 35.803 55.197 32.009 55.197" fill="#444444"/>
             </g> 
             <g class="Name" fill-opacity="0.9" style="display: none;">
                <text transform="translate(3 12)" font-size="12" font-family="Verdana, Sans-Serif">REF</text>
             </g>
            <desc>Width:60 Height:170 Depth:60 Elevation:0</desc>
        </g><g class="FixedFurniture ElectricalAppliance" transform="matrix(0,0.775,-1,0,846.0234,459.1338)" style="fill-opacity: 1; stroke-opacity: 1;" fill="#ffffff" stroke="#000000">
	   <g class="BoundaryPolygon" fill="rgb(255, 255, 255)" stroke="rgb(0, 0, 0)"> 
		<polygon points="0,0 60,0 60,60 0,60"/>
		</g>	
	   <g class="electricitySign" fill="none" stroke="rgb(0, 0, 0)">
        <path d="M0,0,30.1,39.8V19.4L59.9,60"/>
		</g>
        <g class="Direction" fill-opacity="0.9" style="display: none;">
                <polygon points="32.009 55.197 32.009 44.581 29 44.581 29 55.197 25.197 55.197 30.5 60 35.803 55.197 32.009 55.197" fill="#444444"/>
        </g> 
        <g class="Name" fill-opacity="0.9" style="display: none;">
                <text transform="translate(3 12)" font-size="12" font-family="Verdana, Sans-Serif">HEB</text>
        </g>
    <desc>Width:60 Height:200 Depth:60 Elevation:0</desc>
	</g><g class="FixedFurniture Closet" transform="matrix(0,1,-1,0,846.0234,379.155)" style="fill-opacity: 1; stroke-opacity: 1;" fill="#ffffff" stroke="#000000">
        <g class="BoundaryPolygon" fill="rgb(255, 255, 255)" stroke="rgb(0, 0, 0)">
            <polygon points="0.00,0.00 30.46,0.00 30.46,60.00 0.00,60.00 "/>
        </g>
        <g class="Direction" fill-opacity="0.9" style="display: none;">
            <polygon points="16.00,54.70 16.00,44.08 12.99,44.08 12.99,54.70 9.19,54.70 14.49,60.00 19.79,54.70 16.00,54.70 " fill="#444444"/>
        </g> 
        <g class="Name" fill-opacity="0.9" style="display: none;">
            <text transform="translate(3 12)" font-size="12" font-family="Verdana, Sans-Serif">CL</text>
        </g>
        <desc>Width:60 Height:200 Depth:60 Elevation:0</desc>
     </g><g fill="#0000ff" stroke="#0000ff" style="display: none;" class="SelectionControls"><g style="display: none;" class="rotateControl"><circle cx="759.8194284333948" cy="1026.8066350433646" r="5" style="stroke : none; fill-opacity: 0.5; cursor:crosshair"/></g><g style="display: none;" class="ResizeNControl"><circle cx="0" cy="0" r="5" style="stroke : none; fill-opacity: 0.5"/></g><g style="display: none;" class="ResizeNEControl"><circle cx="0" cy="0" r="5" style="stroke : none; fill-opacity: 0.5"/></g><g style="display: none;" class="ResizeEControl"><circle cx="0" cy="0" r="5" style="stroke : none; fill-opacity: 0.5"/></g><g style="display: none;" class="ResizeSEControl"><circle cx="0" cy="0" r="5" style="stroke : none; fill-opacity: 0.5"/></g><g style="display: none;" class="ResizeSControl"><circle cx="0" cy="0" r="5" style="stroke : none; fill-opacity: 0.5"/></g><g style="display: none;" class="ResizeSWControl"><circle cx="0" cy="0" r="5" style="stroke : none; fill-opacity: 0.5"/></g><g style="display: none;" class="ResizeWControl"><circle cx="0" cy="0" r="5" style="stroke : none; fill-opacity: 0.5"/></g><g style="display: none;" class="ResizeNWControl"><circle cx="0" cy="0" r="5" style="stroke : none; fill-opacity: 0.5"/></g><g style="display: none;" class="removeControl"><polygon style="stroke : none; fill-opacity: 0.1" points="736.15,1056.81 783.49,1056.81 783.49,1097.10 736.15,1097.10 "/></g><g style="display: none;" class="copyPasteControl"><polygon style="stroke : none; fill-opacity: 0.1"/></g><g style="display: none;" class="translateControl"><polygon style="stroke : none; fill-opacity: 0.1; cursor:move" points="736.15,1056.81 783.49,1056.81 783.49,1097.10 736.15,1097.10 "/></g></g><g fill="#0000ff" stroke="#0000ff" style="display: none;" class="SelectionControls"><polygon fill="none" stroke="#0000ff" style="" points="697.27,998.39 846.09,998.39 846.09,1143.24 697.27,1143.24 "/><g style="display: none;" class="rotateControl"><circle cx="771.6800532991175" cy="968.3931100433646" r="5" style="stroke : none; fill-opacity: 0.5; cursor:crosshair"/></g><g style="display: none;" class="ResizeNControl"><circle cx="0" cy="0" r="5" style="stroke : none; fill-opacity: 0.5"/></g><g style="display: none;" class="ResizeNEControl"><circle cx="0" cy="0" r="5" style="stroke : none; fill-opacity: 0.5"/></g><g style="display: none;" class="ResizeEControl"><circle cx="0" cy="0" r="5" style="stroke : none; fill-opacity: 0.5"/></g><g style="display: none;" class="ResizeSEControl"><circle cx="0" cy="0" r="5" style="stroke : none; fill-opacity: 0.5"/></g><g style="display: none;" class="ResizeSControl"><circle cx="0" cy="0" r="5" style="stroke : none; fill-opacity: 0.5"/></g><g style="display: none;" class="ResizeSWControl"><circle cx="0" cy="0" r="5" style="stroke : none; fill-opacity: 0.5"/></g><g style="display: none;" class="ResizeWControl"><circle cx="0" cy="0" r="5" style="stroke : none; fill-opacity: 0.5"/></g><g style="display: none;" class="ResizeNWControl"><circle cx="0" cy="0" r="5" style="stroke : none; fill-opacity: 0.5"/></g><g style="display: none;" class="removeControl"><polygon style="stroke : none; fill-opacity: 0.1"/></g><g style="display: none;" class="copyPasteControl"><polygon style="stroke : none; fill-opacity: 0.1"/></g><g style="display: none;" class="translateControl"><polygon style="stroke : none; fill-opacity: 0.1; cursor:move"/></g></g></g></g></g></svg>
