<?xml version="1.0"?>
<svg xmlns="http://www.w3.org/2000/svg" xmlns:xlink="http://www.w3.org/1999/xlink" height="889.1999664306641" version="1.1" width="1348.300048828125" id="temp" viewBox="0 0 1348.300048828125 889.1999664306641"><defs/><g id="Model" class="Model v1-1"><g class="Floor"><g id="Floor-1" class="Floorplan Floor-1"><g id="0d3ffcad-0688-4d6b-8eee-ecc028bb90a9" fill="#ffffff" stroke="#ffffff" style="fill-opacity: 1; stroke-opacity: 1; stroke-width: 0.2;" class="Space Entry Lobby"><polygon points="1075.33,619.00 1075.33,684.04 1326.30,684.04 1326.30,800.54 590.94,800.54 590.94,629.07 681.33,629.07 681.33,653.78 692.33,653.78 692.33,618.00 "/><g transform="matrix(1,0,0,1,590.9368,618.6953)" class="Dimension"><g transform="matrix(1,0,0,1,0,0)" style="display: none;" class="Visual"><g id="mark1" fill="#000000" stroke="none" transform="matrix(1,0,0,1,367.6808,0)" style="fill-opacity: 1; pointer-events: visible;" class="DimensionMark"><polygon points="-5,5,0,0,5,5"/></g><g id="mark2" fill="#000000" stroke="none" transform="matrix(1,0,0,1,735.3651,90.5765)" style="fill-opacity: 1; pointer-events: visible;" class="DimensionMark"><polygon points="-5,-5,0,0,-5,5"/></g><g id="mark3" fill="#000000" stroke="none" transform="matrix(1,0,0,1,367.6808,181.8482)" style="fill-opacity: 1; pointer-events: visible;" class="DimensionMark"><polygon points="-5,-5,0,0,5,-5"/></g><g id="mark4" fill="#000000" stroke="none" transform="matrix(1,0,0,1,0,90.5765)" style="fill-opacity: 1; pointer-events: visible;" class="DimensionMark"><polygon points="5,5,0,0,5,-5"/></g></g><g transform="matrix(1,0,0,1,534.1383,135.649)" class="SpaceDimensionsLabel"><g id="NameLabel" style="display: block;" class="TextLabel NameLabel"><text x="0" y="0em" fill="#000000" stroke="none" style="font-family: Verdana; font-size: 33px; fill-opacity: 1; cursor: default;">ET</text></g><g id="DimensionMeasureLabel" transform="matrix(1,0,0,1,-119.2891,79)" style="display: none;" class="TextLabel DimensionMeasureLabel"><text x="42.1796875" y="-1.2em" fill="#000000" stroke="none" style="font-family: Verdana; font-size: 33px; fill-opacity: 1; cursor: default;">24'2" x 6'0"</text><text x="0" y="0em" fill="#000000" stroke="none" style="font-family: Verdana; font-size: 33px; fill-opacity: 1; cursor: default;">7.35 m x 1.82 m</text></g></g></g></g><g id="e169eafd-a101-4021-b382-9d390d3932b0" fill="#ffffff" stroke="#ffffff" style="fill-opacity: 1; stroke-opacity: 1; stroke-width: 0.2;" class="Space LivingRoom"><polygon points="1075.33,619.00 692.33,618.00 692.33,291.84 1075.33,291.84 "/><g transform="matrix(1,0,0,1,692.3337,291.8389)" class="Dimension"><g transform="matrix(1,0,0,1,0,0)" style="display: none;" class="Visual"><g id="mark1" fill="#000000" stroke="none" transform="matrix(1,0,0,1,191.4987,0)" style="fill-opacity: 1; pointer-events: visible;" class="DimensionMark"><polygon points="-5,5,0,0,5,5"/></g><g id="mark2" fill="#000000" stroke="none" transform="matrix(1,0,0,1,382.9949,163.5805)" style="fill-opacity: 1; pointer-events: visible;" class="DimensionMark"><polygon points="-5,-5,0,0,-5,5"/></g><g id="mark3" fill="#000000" stroke="none" transform="matrix(1,0,0,1,191.4987,326.6611)" style="fill-opacity: 1; pointer-events: visible;" class="DimensionMark"><polygon points="-5,-5,0,0,5,-5"/></g><g id="mark4" fill="#000000" stroke="none" transform="matrix(1,0,0,1,0,163.5805)" style="fill-opacity: 1; pointer-events: visible;" class="DimensionMark"><polygon points="5,5,0,0,5,-5"/></g></g><g transform="matrix(1,0,0,1,175.369,158.0206)" class="SpaceDimensionsLabel"><g id="NameLabel" style="display: block;" class="TextLabel NameLabel"><text x="0" y="0em" fill="#000000" stroke="none" style="font-family: Verdana; font-size: 33px; fill-opacity: 1; cursor: default;">OH</text></g><g id="DimensionMeasureLabel" transform="matrix(1,0,0,1,-114.6094,79.6719)" style="display: none;" class="TextLabel DimensionMeasureLabel"><text x="31.6875" y="-1.2em" fill="#000000" stroke="none" style="font-family: Verdana; font-size: 33px; fill-opacity: 1; cursor: default;">12'7" x 10'9"</text><text x="0" y="0em" fill="#000000" stroke="none" style="font-family: Verdana; font-size: 33px; fill-opacity: 1; cursor: default;">3.83 m x 3.27 m</text></g></g></g></g><g id="10937036-8936-49a0-9cbf-8ea4fcba4058" fill="#ffffff" stroke="#ffffff" style="fill-opacity: 1; stroke-opacity: 1; stroke-width: 0.2;" class="Space Kitchen"><polygon points="1326.30,672.80 1086.33,672.80 1086.33,479.24 1075.33,479.24 1075.33,362.18 1086.33,362.18 1086.33,291.84 1326.30,291.84 "/><g transform="matrix(1,0,0,1,1075.3286,291.8389)" class="Dimension"><g transform="matrix(1,0,0,1,0,0)" style="display: none;" class="Visual"><g id="mark1" fill="#000000" stroke="none" transform="matrix(1,0,0,1,125.4867,0)" style="fill-opacity: 1; pointer-events: visible;" class="DimensionMark"><polygon points="-5,5,0,0,5,5"/></g><g id="mark2" fill="#000000" stroke="none" transform="matrix(1,0,0,1,250.9734,187.4057)" style="fill-opacity: 1; pointer-events: visible;" class="DimensionMark"><polygon points="-5,-5,0,0,-5,5"/></g><g id="mark3" fill="#000000" stroke="none" transform="matrix(1,0,0,1,125.4867,380.9573)" style="fill-opacity: 1; pointer-events: visible;" class="DimensionMark"><polygon points="-5,-5,0,0,5,-5"/></g><g id="mark4" fill="#000000" stroke="none" transform="matrix(1,0,0,1,0,187.4057)" style="fill-opacity: 1; pointer-events: visible;" class="DimensionMark"><polygon points="5,5,0,0,5,-5"/></g></g><g transform="matrix(1,0,0,1,125.1257,200.8807)" class="SpaceDimensionsLabel"><g id="NameLabel" style="display: block;" class="TextLabel NameLabel"><text x="0" y="0em" fill="#000000" stroke="none" style="font-family: Verdana; font-size: 33px; fill-opacity: 1; cursor: default;">K</text></g><g id="DimensionMeasureLabel" transform="matrix(1,0,0,1,-128.5625,79.6719)" style="display: none;" class="TextLabel DimensionMeasureLabel"><text x="42.1796875" y="-1.2em" fill="#000000" stroke="none" style="font-family: Verdana; font-size: 33px; fill-opacity: 1; cursor: default;">8'3" x 12'6"</text><text x="0" y="0em" fill="#000000" stroke="none" style="font-family: Verdana; font-size: 33px; fill-opacity: 1; cursor: default;">2.51 m x 3.81 m</text></g></g></g></g><g id="370854a8-d919-4dea-a5e8-351e6dbc3fea" fill="#ffffff" stroke="#ffffff" style="fill-opacity: 1; stroke-opacity: 1; stroke-width: 0.2;" class="Space Bedroom"><polygon points="681.33,618.07 383.38,618.07 383.38,291.84 681.33,291.84 "/><g transform="matrix(1,0,0,1,383.3797,291.8389)" class="Dimension"><g transform="matrix(1,0,0,1,0,0)" style="display: none;" class="Visual"><g id="mark1" fill="#000000" stroke="none" transform="matrix(1,0,0,1,148.977,0)" style="fill-opacity: 1; pointer-events: visible;" class="DimensionMark"><polygon points="-5,5,0,0,5,5"/></g><g id="mark2" fill="#000000" stroke="none" transform="matrix(1,0,0,1,297.954,163.1166)" style="fill-opacity: 1; pointer-events: visible;" class="DimensionMark"><polygon points="-5,-5,0,0,-5,5"/></g><g id="mark3" fill="#000000" stroke="none" transform="matrix(1,0,0,1,148.977,326.2332)" style="fill-opacity: 1; pointer-events: visible;" class="DimensionMark"><polygon points="-5,-5,0,0,5,-5"/></g><g id="mark4" fill="#000000" stroke="none" transform="matrix(1,0,0,1,0,163.1166)" style="fill-opacity: 1; pointer-events: visible;" class="DimensionMark"><polygon points="5,5,0,0,5,-5"/></g></g><g transform="matrix(1,0,0,1,121.9335,157.7079)" class="SpaceDimensionsLabel"><g id="NameLabel" style="display: block;" class="TextLabel NameLabel"><text x="0" y="0em" fill="#000000" stroke="none" style="font-family: Verdana; font-size: 33px; fill-opacity: 1; cursor: default;">MH</text></g><g id="DimensionMeasureLabel" transform="matrix(1,0,0,1,-113.6797,79.6562)" style="display: none;" class="TextLabel DimensionMeasureLabel"><text x="42.171875" y="-1.2em" fill="#000000" stroke="none" style="font-family: Verdana; font-size: 33px; fill-opacity: 1; cursor: default;">9'9" x 10'8"</text><text x="0" y="0em" fill="#000000" stroke="none" style="font-family: Verdana; font-size: 33px; fill-opacity: 1; cursor: default;">2.98 m x 3.26 m</text></g></g></g></g><g id="dde54f8f-b77b-4024-a7db-6c0ae85f618f" fill="#ffffff" stroke="#ffffff" style="fill-opacity: 1; stroke-opacity: 1; stroke-width: 0.2;" class="Space Undefined"><polygon points="579.94,800.54 383.38,800.54 383.38,629.07 579.94,629.07 "/><g transform="matrix(1,0,0,1,383.3797,629.0721)" class="Dimension"><g transform="matrix(1,0,0,1,0,0)" style="display: none;" class="Visual"><g id="mark1" fill="#000000" stroke="none" transform="matrix(1,0,0,1,98.2785,0)" style="fill-opacity: 1; pointer-events: visible;" class="DimensionMark"><polygon points="-5,5,0,0,5,5"/></g><g id="mark2" fill="#000000" stroke="none" transform="matrix(1,0,0,1,196.5571,85.7357)" style="fill-opacity: 1; pointer-events: visible;" class="DimensionMark"><polygon points="-5,-5,0,0,-5,5"/></g><g id="mark3" fill="#000000" stroke="none" transform="matrix(1,0,0,1,98.2785,171.4713)" style="fill-opacity: 1; pointer-events: visible;" class="DimensionMark"><polygon points="-5,-5,0,0,5,-5"/></g><g id="mark4" fill="#000000" stroke="none" transform="matrix(1,0,0,1,0,85.7357)" style="fill-opacity: 1; pointer-events: visible;" class="DimensionMark"><polygon points="5,5,0,0,5,-5"/></g></g><g transform="matrix(1,0,0,1,36.5657,139.0032)" class="SpaceDimensionsLabel"><g id="NameLabel" style="display: block;" class="TextLabel NameLabel"><text x="0" y="0em" fill="#000000" stroke="none" style="font-family: Verdana; font-size: 33px; fill-opacity: 1; cursor: default;">UNDEFINED</text></g><g id="DimensionMeasureLabel" transform="matrix(1,0,0,1,-40.5234,79.6719)" style="display: none;" class="TextLabel DimensionMeasureLabel"><text x="52.671875" y="-1.2em" fill="#000000" stroke="none" style="font-family: Verdana; font-size: 33px; fill-opacity: 1; cursor: default;">6'5" x 5'8"</text><text x="0" y="0em" fill="#000000" stroke="none" style="font-family: Verdana; font-size: 33px; fill-opacity: 1; cursor: default;">1.97 m x 1.71 m</text></g></g></g></g><g id="Wall" fill="#000000" stroke="#000000" style="fill-opacity: 1; stroke-opacity: 1; stroke-width: 0.2;" class="Wall External"><polygon points="383.38,291.84 1326.30,291.84 1348.30,269.84 361.38,269.84 "/><g id="Door" fill="#ffffff" stroke="#000000" style="fill-opacity: 1; stroke-width: 1; stroke-opacity: 1;" class="Door Swing Beside"><polygon points="998.51,291.84 1064.90,291.84 1064.90,269.84 998.51,269.84 "/><g id="Threshold" class="Threshold"><polygon points="998.51,291.84 1064.90,291.84 1064.90,269.84 998.51,269.84 "/></g><g id="Panel" fill="none" style="" class="Panel Right Positive"><g id="PanelArea" fill="none" stroke="none" style="" class="PanelArea"><polygon points="998.51,291.84 1064.90,291.84 1064.90,269.84 998.51,269.84 "/></g><path d="M998.51,269.84 q0.00,-66.38 66.38,-66.38 l0.00,66.38Z"/></g></g><g id="Window" fill="#f0f0ff" stroke="#000000" style="fill-opacity: 1; stroke-width: 1; stroke-opacity: 1;" class="Window Regular"><polygon points="439.39,291.84 643.51,291.84 643.51,269.84 439.39,269.84 "/><g id="Glass" class="Glass"><polygon points="439.39,291.84 643.51,291.84 643.51,269.84 439.39,269.84 "/></g><g id="Panel" class="Panel"><line x1="446.8918588413077" x2="636.0122890073393" y1="280.8389153967173" y2="280.83891539671725"/><line x1="446.8918588413077" x2="446.8918588413077" y1="291.8389153967173" y2="269.8389153967173"/><line x1="636.0122890073393" x2="636.0122890073393" y1="291.83891539671725" y2="269.83891539671725"/></g></g><g id="Window" fill="#f0f0ff" stroke="#000000" style="fill-opacity: 1; stroke-width: 1; stroke-opacity: 1;" class="Window Regular"><polygon points="751.28,291.84 992.80,291.84 992.80,269.84 751.28,269.84 "/><g id="Glass" class="Glass"><polygon points="751.28,291.84 992.80,291.84 992.80,269.84 751.28,269.84 "/></g><g id="Panel" class="Panel"><line x1="758.7777335049335" x2="985.2991120554243" y1="280.83891539671725" y2="280.8389153967172"/><line x1="758.7777335049335" x2="758.7777335049335" y1="291.83891539671725" y2="269.83891539671725"/><line x1="985.2991120554243" x2="985.2991120554243" y1="291.8389153967172" y2="269.8389153967172"/></g></g><g id="Window" fill="#f0f0ff" stroke="#000000" style="fill-opacity: 1; stroke-width: 1; stroke-opacity: 1;" class="Window Regular"><polygon points="1124.02,291.84 1299.61,291.84 1299.61,269.84 1124.02,269.84 "/><g id="Glass" class="Glass"><polygon points="1124.02,291.84 1299.61,291.84 1299.61,269.84 1124.02,269.84 "/></g><g id="Panel" class="Panel"><line x1="1131.5193894370964" x2="1292.1136562338838" y1="280.8389153967172" y2="280.83891539671714"/><line x1="1131.5193894370964" x2="1131.5193894370964" y1="291.8389153967172" y2="269.8389153967172"/><line x1="1292.1136562338838" x2="1292.1136562338838" y1="291.83891539671714" y2="269.83891539671714"/></g></g></g><g id="Wall" fill="#000000" stroke="#000000" style="fill-opacity: 1; stroke-opacity: 1; stroke-width: 0.2;" class="Wall External"><polygon points="1326.30,291.84 1326.30,800.54 1348.30,822.54 1348.30,269.84 "/></g><g id="Wall" fill="#000000" stroke="#000000" style="fill-opacity: 1; stroke-opacity: 1; stroke-width: 0.2;" class="Wall External"><polygon points="1326.30,800.54 383.38,800.54 361.38,822.54 1348.30,822.54 "/><g id="Door" fill="#ffffff" stroke="#000000" style="fill-opacity: 1; stroke-width: 1; stroke-opacity: 1;" class="Door Swing Opposite"><polygon points="1263.10,800.54 1196.44,800.54 1196.44,822.54 1263.10,822.54 "/><g id="Threshold" class="Threshold"><polygon points="1263.10,800.54 1196.44,800.54 1196.44,822.54 1263.10,822.54 "/></g><g id="Panel" fill="none" style="" class="Panel Right Negative"><g id="PanelArea" fill="none" stroke="none" style="" class="PanelArea"><polygon points="1263.10,800.54 1196.44,800.54 1196.44,822.54 1263.10,822.54 "/></g><path d="M1196.44,800.54 q0.00,-66.66 66.66,-66.66 l0.00,66.66Z"/></g><g id="Panel" fill="none" style="" class="Panel Right Positive"><g id="PanelArea" fill="none" stroke="none" style="" class="PanelArea"><polygon points="1263.10,800.54 1196.44,800.54 1196.44,822.54 1263.10,822.54 "/></g><path d="M1263.10,822.54 q0.00,66.66 -66.66,66.66 l0.00,-66.66Z"/></g></g></g><g id="Wall" fill="#000000" stroke="#000000" style="fill-opacity: 1; stroke-opacity: 1; stroke-width: 0.2;" class="Wall External"><polygon points="383.38,800.54 383.38,291.84 361.38,269.84 361.38,822.54 "/><g id="Window" fill="#f0f0ff" stroke="#000000" style="fill-opacity: 1; stroke-width: 1; stroke-opacity: 1;" class="Window Regular"><polygon points="383.38,774.24 383.38,665.84 361.38,665.84 361.38,774.24 "/><g id="Glass" class="Glass"><polygon points="383.38,774.24 383.38,665.84 361.38,665.84 361.38,774.24 "/></g><g id="Panel" class="Panel"><line x1="372.3797489345593" x2="372.3797489345593" y1="766.7360425673216" y2="673.3366836903298"/><line x1="383.3797489345593" x2="361.3797489345593" y1="766.7360425673216" y2="766.7360425673216"/><line x1="383.3797489345593" x2="361.3797489345593" y1="673.3366836903298" y2="673.3366836903298"/></g></g></g><g id="Wall" fill="#000000" stroke="#000000" style="fill-opacity: 1; stroke-opacity: 1; stroke-width: 0.2;" class="Wall"><polygon points="590.94,800.54 590.94,629.07 579.94,618.07 579.94,800.54 "/><g id="Door" fill="#ffffff" stroke="#000000" style="fill-opacity: 1; stroke-width: 1; stroke-opacity: 1;" class="Door Swing Beside"><polygon points="590.94,732.98 590.94,673.56 579.94,673.56 579.94,732.98 "/><g id="Threshold" class="Threshold"><polygon points="590.94,732.98 590.94,673.56 579.94,673.56 579.94,732.98 "/></g><g id="Panel" fill="none" style="" class="Panel Right Negative"><g id="PanelArea" fill="none" stroke="none" style="" class="PanelArea"><polygon points="590.94,732.98 590.94,673.56 579.94,673.56 579.94,732.98 "/></g><path d="M590.94,673.56 q59.42,0.00 59.42,59.42 l-59.42,0.00Z"/></g></g></g><g id="Wall" fill="#000000" stroke="#000000" style="fill-opacity: 1; stroke-opacity: 1; stroke-width: 0.2;" class="Wall"><polygon points="579.94,618.07 383.38,618.07 383.38,629.07 579.94,629.07 "/></g><g id="Wall" fill="#000000" stroke="#000000" style="fill-opacity: 1; stroke-opacity: 1; stroke-width: 0.2;" class="Wall"><polygon points="579.94,618.07 692.33,618.07 681.33,629.07 590.94,629.07 "/><g id="Door" fill="#ffffff" stroke="#000000" style="fill-opacity: 1; stroke-width: 1; stroke-opacity: 1;" class="Door Swing Beside"><polygon points="605.33,618.07 672.64,618.07 672.64,629.07 605.33,629.07 "/><g id="Threshold" class="Threshold"><polygon points="605.33,618.07 672.64,618.07 672.64,629.07 605.33,629.07 "/></g><g id="Panel" fill="none" style="" class="Panel Left Negative"><g id="PanelArea" fill="none" stroke="none" style="" class="PanelArea"><polygon points="605.33,618.07 672.64,618.07 672.64,629.07 605.33,629.07 "/></g><path d="M605.33,618.07 q0.00,-67.31 67.31,-67.31 l0.00,67.31Z"/></g></g></g><g id="Wall" fill="#000000" stroke="#000000" style="fill-opacity: 1; stroke-opacity: 1; stroke-width: 0.2;" class="Wall"><polygon points="692.33,629.07 692.33,291.84 681.33,291.84 681.33,629.07 "/></g><g id="Wall" fill="#000000" stroke="#000000" style="fill-opacity: 1; stroke-opacity: 1; stroke-width: 0.2;" class="Wall"><polygon points="692.33,618.07 692.33,653.78 681.33,653.78 681.33,629.07 "/></g><g id="Railing" fill="#ffffff" stroke="#000000" style="fill-opacity: 1; stroke-opacity: 1; stroke-width: 0.2;" class="Railing"><polygon points="692.33,269.84 692.33,105.42 681.33,94.42 681.33,269.84 " style="stroke-dasharray: 164.417, 15.5563, 186.417;"/></g><g id="Railing" fill="#ffffff" stroke="#000000" style="fill-opacity: 1; stroke-opacity: 1; stroke-width: 0.2;" class="Railing"><polygon points="692.33,105.42 1075.33,105.42 1086.33,94.42 681.33,94.42 " style="stroke-dasharray: 382.995, 15.5563, 404.995, 15.5563;"/></g><g id="Railing" fill="#ffffff" stroke="#000000" style="fill-opacity: 1; stroke-opacity: 1; stroke-width: 0.2;" class="Railing"><polygon points="1075.33,105.42 1075.33,269.84 1086.33,269.84 1086.33,94.42 " style="stroke-dasharray: 350.835, 15.5563;"/></g><g id="Wall" fill="#000000" stroke="#000000" style="fill-opacity: 1; stroke-opacity: 1; stroke-width: 0.2;" class="Wall"><polygon points="1086.33,291.84 1086.33,362.18 1075.33,362.18 1075.33,291.84 "/></g><g id="Wall" fill="#000000" stroke="#000000" style="fill-opacity: 1; stroke-opacity: 1; stroke-width: 0.2;" class="Wall"><polygon points="1086.33,479.24 1086.33,673.04 1075.33,684.04 1075.33,479.24 "/></g><g id="Wall" fill="#000000" stroke="#000000" style="fill-opacity: 1; stroke-opacity: 1; stroke-width: 0.2;" class="Wall"><polygon points="1086.33,673.04 1326.30,673.04 1326.30,684.04 1075.33,684.04 "/><g id="Door" fill="#ffffff" stroke="#000000" style="fill-opacity: 1; stroke-width: 1; stroke-opacity: 1;" class="Door Swing Beside"><polygon points="1182.32,673.04 1248.98,673.04 1248.98,684.04 1182.32,684.04 "/><g id="Threshold" class="Threshold"><polygon points="1182.32,673.04 1248.98,673.04 1248.98,684.04 1182.32,684.04 "/></g><g id="Panel" fill="none" style="" class="Panel Left Negative"><g id="PanelArea" fill="none" stroke="none" style="" class="PanelArea"><polygon points="1182.32,673.04 1248.98,673.04 1248.98,684.04 1182.32,684.04 "/></g><path d="M1182.32,673.04 q0.00,-66.66 66.66,-66.66 l0.00,66.66Z"/></g></g></g><g id="Column" fill="#000000" stroke="none" style="fill-opacity: 1;" class="Column FreeShape"><polygon points="383.38,629.07 519.43,629.07 519.43,658.21 383.38,658.21 383.38,629.07 "/></g><g id="Column" fill="#000000" stroke="none" style="fill-opacity: 1;" class="Column FreeShape"><polygon points="1326.30,684.04 1266.85,684.04 1266.85,705.05 1326.30,705.05 1326.30,684.04 "/></g><g class="FixedFurniture CoatCloset" transform="matrix(0,1,-1,0,1326.177,705.05)" style="fill-opacity: 1; stroke-opacity: 1;" fill="#ffffff" stroke="#000000">
        <g class="BoundaryPolygon" fill="rgb(255, 255, 255)" stroke="rgb(0, 0, 0)">
                <polygon points="0.00,0.00 95.43,0.00 95.43,59.09 0.00,59.09 "/>
            </g>
        <g class="Hanger" fill="rgb(255, 255, 255)" stroke="rgb(154, 154, 154)" stroke-dasharray="5,5">
            <line x1="0" y1="29.545996991776946" x2="95.43276221752998" y2="29.545996991776946"/>
            </g>
        <g class="Direction" fill-opacity="0.9" style="display: none;">
            <polygon points="48.92,53.69 48.92,43.07 45.91,43.07 45.91,53.69 42.10,53.69 47.41,58.99 52.71,53.69 48.92,53.69 " fill="#444444"/>
        </g> 
        <g class="Name" fill-opacity="0.9" style="display: none;">
            <text transform="translate(3 12)" font-size="12" font-family="Verdana, Sans-Serif">CWH</text>
        </g>
        <desc>Width:120 Height:200 Depth:60 Elevation:0</desc>
     </g><g id="FixedFurnitureSet" transform="matrix(-1,0,0,-1,740.5166,800.5434)" class="FixedFurnitureSet" style="fill-opacity: 1; stroke-opacity: 1;" fill="#ffffff" stroke="#000000"><g class="FixedFurniture Closet" transform="matrix(1,0,0,1,0,0)">
        <g class="BoundaryPolygon" fill="rgb(255, 255, 255)" stroke="rgb(0, 0, 0)">
            <polygon points="0.00,0.00 49.86,0.00 49.86,54.99 0.00,54.99 "/>
        </g>
        <g class="Direction" fill-opacity="0.9" style="display: none;">
            <polygon points="26.18,50.13 26.18,39.52 23.17,39.52 23.17,50.13 19.37,50.13 24.67,55.44 29.98,50.13 26.18,50.13 " fill="#444444"/>
        </g> 
        <g class="Name" fill-opacity="0.9" style="display: none;">
            <text transform="translate(3 12)" font-size="12" font-family="Verdana, Sans-Serif">CL</text>
        </g>
        <desc>Width:60 Height:200 Depth:60 Elevation:0</desc>
     </g><g class="FixedFurniture Closet" transform="matrix(1,0,0,1,49.8599,0)">
        <g class="BoundaryPolygon" fill="rgb(255, 255, 255)" stroke="rgb(0, 0, 0)">
            <polygon points="0.00,0.00 49.86,0.00 49.86,54.99 0.00,54.99 "/>
        </g>
        <g class="Direction" fill-opacity="0.9" style="display: none;">
            <polygon points="26.18,50.13 26.18,39.52 23.17,39.52 23.17,50.13 19.37,50.13 24.67,55.44 29.98,50.13 26.18,50.13 " fill="#444444"/>
        </g> 
        <g class="Name" fill-opacity="0.9" style="display: none;">
            <text transform="translate(3 12)" font-size="12" font-family="Verdana, Sans-Serif">CL</text>
        </g>
        <desc>Width:60 Height:200 Depth:60 Elevation:0</desc>
     </g><g class="FixedFurniture Closet" transform="matrix(1,0,0,1,99.7198,0)">
        <g class="BoundaryPolygon" fill="rgb(255, 255, 255)" stroke="rgb(0, 0, 0)">
            <polygon points="0.00,0.00 49.86,0.00 49.86,54.99 0.00,54.99 "/>
        </g>
        <g class="Direction" fill-opacity="0.9" style="display: none;">
            <polygon points="26.18,50.13 26.18,39.52 23.17,39.52 23.17,50.13 19.37,50.13 24.67,55.44 29.98,50.13 26.18,50.13 " fill="#444444"/>
        </g> 
        <g class="Name" fill-opacity="0.9" style="display: none;">
            <text transform="translate(3 12)" font-size="12" font-family="Verdana, Sans-Serif">CL</text>
        </g>
        <desc>Width:60 Height:200 Depth:60 Elevation:0</desc>
     </g></g><g id="FixedFurnitureSet" transform="matrix(-1,0,0,-1,939.2315,800.5435)" class="FixedFurnitureSet" style="fill-opacity: 1; stroke-opacity: 1;" fill="#ffffff" stroke="#000000"><g class="FixedFurniture Closet" transform="matrix(1,0,0,1,0,0)">
        <g class="BoundaryPolygon" fill="rgb(255, 255, 255)" stroke="rgb(0, 0, 0)">
            <polygon points="0.00,0.00 49.68,0.00 49.68,55.11 0.00,55.11 "/>
        </g>
        <g class="Direction" fill-opacity="0.9" style="display: none;">
            <polygon points="26.09,50.24 26.09,39.63 23.08,39.63 23.08,50.24 19.28,50.24 24.58,55.55 29.88,50.24 26.09,50.24 " fill="#444444"/>
        </g> 
        <g class="Name" fill-opacity="0.9" style="display: none;">
            <text transform="translate(3 12)" font-size="12" font-family="Verdana, Sans-Serif">CL</text>
        </g>
        <desc>Width:60 Height:200 Depth:60 Elevation:0</desc>
     </g><g class="FixedFurniture Closet" transform="matrix(1,0,0,1,49.6783,0)">
        <g class="BoundaryPolygon" fill="rgb(255, 255, 255)" stroke="rgb(0, 0, 0)">
            <polygon points="0.00,0.00 49.68,0.00 49.68,55.11 0.00,55.11 "/>
        </g>
        <g class="Direction" fill-opacity="0.9" style="display: none;">
            <polygon points="26.09,50.24 26.09,39.63 23.08,39.63 23.08,50.24 19.28,50.24 24.58,55.55 29.88,50.24 26.09,50.24 " fill="#444444"/>
        </g> 
        <g class="Name" fill-opacity="0.9" style="display: none;">
            <text transform="translate(3 12)" font-size="12" font-family="Verdana, Sans-Serif">CL</text>
        </g>
        <desc>Width:60 Height:200 Depth:60 Elevation:0</desc>
     </g><g class="FixedFurniture Closet" transform="matrix(1,0,0,1,99.3566,0)">
        <g class="BoundaryPolygon" fill="rgb(255, 255, 255)" stroke="rgb(0, 0, 0)">
            <polygon points="0.00,0.00 49.68,0.00 49.68,55.11 0.00,55.11 "/>
        </g>
        <g class="Direction" fill-opacity="0.9" style="display: none;">
            <polygon points="26.09,50.24 26.09,39.63 23.08,39.63 23.08,50.24 19.28,50.24 24.58,55.55 29.88,50.24 26.09,50.24 " fill="#444444"/>
        </g> 
        <g class="Name" fill-opacity="0.9" style="display: none;">
            <text transform="translate(3 12)" font-size="12" font-family="Verdana, Sans-Serif">CL</text>
        </g>
        <desc>Width:60 Height:200 Depth:60 Elevation:0</desc>
     </g><g class="FixedFurniture Closet" transform="matrix(1,0,0,1,149.0349,0)">
        <g class="BoundaryPolygon" fill="rgb(255, 255, 255)" stroke="rgb(0, 0, 0)">
            <polygon points="0.00,0.00 49.68,0.00 49.68,55.11 0.00,55.11 "/>
        </g>
        <g class="Direction" fill-opacity="0.9" style="display: none;">
            <polygon points="26.09,50.24 26.09,39.63 23.08,39.63 23.08,50.24 19.28,50.24 24.58,55.55 29.88,50.24 26.09,50.24 " fill="#444444"/>
        </g> 
        <g class="Name" fill-opacity="0.9" style="display: none;">
            <text transform="translate(3 12)" font-size="12" font-family="Verdana, Sans-Serif">CL</text>
        </g>
        <desc>Width:60 Height:200 Depth:60 Elevation:0</desc>
     </g></g><g class="FixedFurniture Bathtub" transform="matrix(0,-0.8142,0.8707,0,383.3797,800.6951)" style="fill-opacity: 1; stroke-opacity: 1;" fill="#ffffff" stroke="#000000"> 
	   <g class="BoundaryPolygon" fill="rgb(255, 255, 255)" stroke="rgb(0, 0, 0)"> 
		  <polygon points="0,0 175,0 175,82 0,82"/>
		  </g>
		
	   <g class="Tub" fill="rgb(255, 255, 255)" stroke="rgb(0, 0, 0)"> 
		  <path d="M166.6,41.2c0,19.7,0,35.7-79.3,35.7S8,60.9,8,41.2,8,5.5,87.3,5.5,166.6,21.5,166.6,41.2Z"/>
		  </g>
        <g class="Name" fill-opacity="0.9" style="display: none;">
            <text transform="translate(3 12)" font-size="12" font-family="Verdana, Sans-Serif">BT</text>
        </g>
        <desc>Width:175 Height:38 Depth:82 Elevation:0</desc>
	</g><g class="FixedFurniture Shower" transform="matrix(1,0,0,1,401.7297,657.7146)" style="fill-opacity: 1; stroke-opacity: 1;" fill="#ffffff" stroke="#000000"> 
	   <g class="BoundaryPolygon" fill="rgb(255, 255, 255)" stroke="rgb(0, 0, 0)" stroke-linejoin="round"> 
			<rect x="3.7" y="0.5" width="11.2" height="6.1"/>
			<rect x="17.6" y="0.5" width="11.2" height="6.1"/>
			<rect x="28.7" y="0.5" width="3.4" height="6.1"/>
			<rect x="0.5" y="0.5" width="3.2" height="6.1"/>
			<path d="M14.9,8.5c0,1.5-0.4,3.3-1.6,5    c-0.4,0.6-1,1.1-1.1,1.7c-0.2,1.1,0.3,2.8,2.5,3.2c0.5,0.1,1.3,0.1,1.6,0.1h-0.1c0.3,0,1.1,0,1.6-0.1c2.2-0.4,2.7-2.1,2.5-3.2    c-0.1-0.6-0.7-1.1-1.1-1.7c-1.2-1.7-1.6-3.5-1.6-5"/>
			<path d="M12.2,15.3c0.1,0.2,1.6,1.9,4.2,1.9 c2.4-0.1,3.7-1.7,3.9-1.9"/>
			<path d="M14.9,0.5h2.7v8c-0.9,0-1.8,0-2.7,0l0,0 C14.9,5.9,14.9,3.2,14.9,0.5z"/>
		</g>
	   <g class="Indicator" fill="rgb(255, 255, 255)" stroke="rgb(0, 0, 0)" stroke-width="0.5" stroke-linejoin="round"> 
			<path d="M3.7,3.6C5,3.1,5.2,3,5.2,3 c0,1.1,0,0,0,1.1C5.2,4.1,5.1,4.1,3.7,3.6"/>
			<path d="M28.7,3.6 C27.4,3.1,27.2,3,27.2,3c0,1.1,0,0,0,1.1C27.2,4.1,27.3,4.1,28.7,3.6"/>	
		</g>
        <desc>Width:35 Height:97 Depth:20 Elevation:135</desc>
	</g><g class="FixedFurniture Toilet" transform="matrix(1,0,0,1,529.1338,628.5721)" style="fill-opacity: 1; stroke-opacity: 1;" fill="#ffffff" stroke="#000000">
	   <g class="BoundaryPolygon" fill="rgb(255, 255, 255)" stroke="rgb(0, 0, 0)"> 
		<rect x="0.502" y="0.5" width="39.989" height="17.98"/>
          <path d="M40.491,44.237S41.619,70.5,20.907,70.5C-.523,70.5.6,44.237.6,44.237L.5,18.48H40.491Z"/>
          <rect x="17.318" y="7.975" width="6.357" height="3.03"/>
		</g>
        <desc>Width:40 Height:85 Depth:70 Elevation:0</desc>
    </g><g class="FixedFurniture ElectricalAppliance WashingMachine" transform="matrix(-1,0,0,-1,579.9368,800.5435)" style="fill-opacity: 1; stroke-opacity: 1;" fill="#ffffff" stroke="#000000">
	   <g class="BoundaryPolygon" fill="rgb(255, 255, 255)" stroke="rgb(0, 0, 0)"> 
		<polygon points="0,0 60,0 60,60 0,60"/>
		</g>	
	   <g class="electricitySign" fill="none" stroke="rgb(0, 0, 0)">
        <path d="M0,0,30,41V20.8L60,60"/>
		</g>
	   <g class="Handle" fill="rgb(255, 255, 255)" stroke="rgb(0, 0, 0)"> 
		<path d="M2.7,59.4H57.3"/>
		</g>
         <g class="Direction" fill-opacity="0.9" style="display: none;">
                <polygon points="32.009 55.197 32.009 44.581 29 44.581 29 55.197 25.197 55.197 30.5 60 35.803 55.197 32.009 55.197" fill="#444444"/>
        </g> 
        <g class="Name" fill-opacity="0.9" style="display: none;">
                <text transform="translate(3 12)" font-size="12" font-family="Verdana, Sans-Serif">WM</text>
        </g>
        <desc>Width:60 Height:90 Depth:60 Elevation:0</desc>
    </g><g id="FixedFurnitureSet" transform="matrix(1,0,0,1,466.9523,658.3663)" class="FixedFurnitureSet" style="fill-opacity: 1; stroke-opacity: 1;" fill="#ffffff" stroke="#000000"><g class="FixedFurniture BaseCabinet" transform="matrix(1,0,0,1,0,0)">
            <g class="BoundaryPolygon" fill="rgb(255, 255, 255)" stroke="rgb(0, 0, 0)">
            <polygon points="0.00,0.00 52.48,0.00 52.48,32.76 0.00,32.76 "/>
            </g>
            <g class="Direction" fill-opacity="0.9" style="display: none;">
                <polygon points="28.00,30.14 28.00,19.52 24.99,19.52 24.99,30.14 21.18,30.14 26.49,34.94 31.79,30.14 28.00,30.14 " fill="#444444"/>
            </g> 
            <g class="Name" fill-opacity="0.9" style="display: none;">
                <text transform="translate(3 12)" font-size="12" font-family="Verdana, Sans-Serif">CB</text>
            </g>
            <desc>Width:185 Height:5 Depth:60 Elevation:105</desc>
        </g><g class="FixedFurniture Sink" transform="matrix(1,0,0,1,0,0)">
            <g class="InnerPolygon" fill="rgb(255, 255, 255)" stroke="rgb(0, 0, 0)">
                <polygon points="5.00,9.70 48.10,9.70 48.10,29.87 5.00,29.87 "/>
            </g>
            <g class="OuterDrain" fill="rgb(255, 255, 255)" stroke="rgb(0, 0, 0)" stroke-width="0.8">
                <circle cx="26.23882854418184" cy="17.580946555733533" r="3.5"/>
            </g>
            <g class="InnerDrain" fill="rgb(255, 255, 255)" stroke="rgb(0, 0, 0)" stroke-width="0.8">
                <circle cx="26.23882854418184" cy="17.580946555733533" r="2"/>
            </g>
            <g class="Faucet" fill="rgb(255, 255, 255)" stroke="rgb(0, 0, 0)">
                <polygon points="23.61,2.73 29.61,2.73 29.61,16.73 23.61,16.73 "/>
            </g>
           <g class="Direction" fill-opacity="0.9" style="display: none;">
                <polygon points="28.00,30.14 28.00,19.52 24.99,19.52 24.99,30.14 21.18,30.14 26.49,34.94 31.79,30.14 28.00,30.14 " fill="#444444"/>
            </g> 
            <g class="Name" fill-opacity="0.9" style="display: none;">
                <text transform="translate(3 12)" font-size="12" font-family="Verdana, Sans-Serif">SINK</text>
            </g>
            <desc>Width:60 Height:90 Depth:60 Elevation:0</desc>
        </g></g><g class="FixedFurniture Closet" transform="matrix(0,-1,1,0,1086.3599,673.0363)" style="fill-opacity: 1; stroke-opacity: 1;" fill="#ffffff" stroke="#000000">
        <g class="BoundaryPolygon" fill="rgb(255, 255, 255)" stroke="rgb(0, 0, 0)">
            <polygon points="0.00,0.00 54.14,0.00 54.14,60.00 0.00,60.00 "/>
        </g>
        <g class="Direction" fill-opacity="0.9" style="display: none;">
            <polygon points="28.43,54.70 28.43,44.08 25.42,44.08 25.42,54.70 21.62,54.70 26.92,60.00 32.23,54.70 28.43,54.70 " fill="#444444"/>
        </g> 
        <g class="Name" fill-opacity="0.9" style="display: none;">
            <text transform="translate(3 12)" font-size="12" font-family="Verdana, Sans-Serif">CL</text>
        </g>
        <desc>Width:60 Height:200 Depth:60 Elevation:0</desc>
     </g><g class="FixedFurniture ElectricalAppliance Refrigerator" transform="matrix(0,-1,1,0,1086.3598,618.8936)" style="fill-opacity: 1; stroke-opacity: 1;" fill="#ffffff" stroke="#000000">
            <g class="BoundaryPolygon" fill="rgb(255, 255, 255)" stroke="rgb(0, 0, 0)">
                <polygon points="0,0 60,0 60,60 0,60"/>
            </g>
            <g class="electricitySign" fill="none" stroke="rgb(0, 0, 0)">
                    <path d="M0,0,30,37.1v-18L60,56.3"/>
            </g>
            <g class="Doors" fill="rgb(255, 255, 255)" stroke="rgb(0, 0, 0)">
                <rect y="56" width="60" height="4"/>
            </g>
             <g class="Direction" fill-opacity="0.9" style="display: none;">
                <polygon points="32.009 55.197 32.009 44.581 29 44.581 29 55.197 25.197 55.197 30.5 60 35.803 55.197 32.009 55.197" fill="#444444"/>
             </g> 
             <g class="Name" fill-opacity="0.9" style="display: none;">
                <text transform="translate(3 12)" font-size="12" font-family="Verdana, Sans-Serif">REF</text>
             </g>
            <desc>Width:60 Height:170 Depth:60 Elevation:0</desc>
        </g><g class="FixedFurniture BaseCabinet" transform="matrix(0,-1,1,0,1086.4223,558.8935)" style="fill-opacity: 1; stroke-opacity: 1;" fill="#ffffff" stroke="#000000">
            <g class="BoundaryPolygon" fill="rgb(255, 255, 255)" stroke="rgb(0, 0, 0)">
                <polygon points="0.00,0.00 79.12,0.00 79.12,60.00 0.00,60.00 "/>
            </g>
            <g class="Direction" fill-opacity="0.9" style="display: none;">
                <polygon points="42.21,55.20 42.21,44.58 39.20,44.58 39.20,55.20 35.40,55.20 40.70,60.00 46.00,55.20 42.21,55.20 " fill="#444444"/>
            </g> 
            <g class="Name" fill-opacity="0.9" style="display: none;">
                <text transform="translate(3 12)" font-size="12" font-family="Verdana, Sans-Serif">CB</text>
            </g>
            <desc>Width:60 Height:90 Depth:60 Elevation:0</desc>
        </g><g class="FixedFurniture WallCabinet" transform="matrix(0,-1,1,0,1086.4223,558.8935)" style="fill-opacity: 0.7; stroke-opacity: 1;" fill="#ffffff" stroke="#000000">	
        <g class="BoundaryPolygon" fill="rgb(255, 255, 255)" stroke="rgb(0, 0, 0)">
                <polygon points="0.00,0.00 79.12,0.00 79.12,30.00 0.00,30.00 "/>
        </g>
        <g class="Direction" fill-opacity="0.9" style="display: none;">
                <polygon points="42.21,25.20 42.21,14.58 39.20,14.58 39.20,25.20 35.40,25.20 40.70,30.00 46.00,25.20 42.21,25.20 " fill="#444444"/>
        </g> 
        <g class="Name" fill-opacity="0.9" style="display: none;">
                <text transform="translate(3 12)" font-size="12" font-family="Verdana, Sans-Serif">UC</text>
        </g>
        <desc>Width:60 Height:60 Depth:50 Elevation:140</desc>
        </g><g class="FixedFurniture BaseCabinet" transform="matrix(0,1,-1,0,1326.2395,480.4863)" style="fill-opacity: 1; stroke-opacity: 1;" fill="#ffffff" stroke="#000000">
            <g class="BoundaryPolygon" fill="rgb(255, 255, 255)" stroke="rgb(0, 0, 0)">
                <polygon points="0.00,0.00 192.55,0.00 192.55,60.00 0.00,60.00 "/>
            </g>
            <g class="Direction" fill-opacity="0.9" style="display: none;">
                <polygon points="102.72,55.20 102.72,44.58 99.71,44.58 99.71,55.20 95.91,55.20 101.21,60.00 106.52,55.20 102.72,55.20 " fill="#444444"/>
            </g> 
            <g class="Name" fill-opacity="0.9" style="display: none;">
                <text transform="translate(3 12)" font-size="12" font-family="Verdana, Sans-Serif">CB</text>
            </g>
            <desc>Width:60 Height:90 Depth:60 Elevation:0</desc>
        </g><g class="FixedFurniture ElectricalAppliance IntegratedStove" transform="matrix(0,1,-1,0,1326.2395,512.2158)" style="fill-opacity: 1; stroke-opacity: 1;" fill="#ffffff" stroke="#000000">
            <g class="BoundaryPolygon" fill="rgb(255, 255, 255)" stroke="rgb(0, 0, 0)">
                <polygon points="2.00,2.00 58.56,2.00 58.56,58.00 2.00,58.00 "/>
            </g>
            <g class="OuterCircle" fill="rgb(255, 255, 255)" stroke="rgb(0, 0, 0)" stroke-width="0.8">
                <circle cx="16.15433821323834" cy="16" r="8"/>
                <circle cx="44.42443008640544" cy="16" r="8"/>
                <circle cx="16.15433821323834" cy="43.9" r="8"/>
                <circle cx="44.42443008640544" cy="44" r="8"/>
            </g>
             <g class="Direction" fill-opacity="0.9" style="display: none;">
                <polygon points="32.32,55.20 32.32,44.58 29.31,44.58 29.31,55.20 25.51,55.20 30.81,60.00 36.11,55.20 32.32,55.20 " fill="#444444"/>
            </g> 
            <g class="Name" fill-opacity="0.9" style="display: none;">
                <text transform="translate(3 12)" font-size="12" font-family="Verdana, Sans-Serif">INT_STOVE</text>
            </g>
            <desc>Width:60 Height:90 Depth:30 Elevation:0</desc>
        </g><g class="FixedFurniture Sink" transform="matrix(0,1,-1,0,1326.2394,567.7752)" style="fill-opacity: 1; stroke-opacity: 1;" fill="#ffffff" stroke="#000000">
            <g class="InnerPolygon" fill="rgb(255, 255, 255)" stroke="rgb(0, 0, 0)">
                <polygon points="5.00,9.70 63.28,9.70 63.28,54.70 5.00,54.70 "/>
            </g>
            <g class="OuterDrain" fill="rgb(255, 255, 255)" stroke="rgb(0, 0, 0)" stroke-width="0.8">
                <circle cx="34.516888327696165" cy="32.2" r="3.5"/>
            </g>
            <g class="InnerDrain" fill="rgb(255, 255, 255)" stroke="rgb(0, 0, 0)" stroke-width="0.8">
                <circle cx="34.516888327696165" cy="32.2" r="2"/>
            </g>
            <g class="Faucet" fill="rgb(255, 255, 255)" stroke="rgb(0, 0, 0)">
                <polygon points="31.07,5.00 37.07,5.00 37.07,19.00 31.07,19.00 "/>
            </g>
           <g class="Direction" fill-opacity="0.9" style="display: none;">
                <polygon points="36.83,55.20 36.83,44.58 33.82,44.58 33.82,55.20 30.02,55.20 35.32,60.00 40.62,55.20 36.83,55.20 " fill="#444444"/>
            </g> 
            <g class="Name" fill-opacity="0.9" style="display: none;">
                <text transform="translate(3 12)" font-size="12" font-family="Verdana, Sans-Serif">SINK</text>
            </g>
            <desc>Width:60 Height:90 Depth:60 Elevation:0</desc>
        </g><g class="FixedFurniture WallCabinet" transform="matrix(0,1,-1,0,1326.1613,480.4863)" style="fill-opacity: 0.7; stroke-opacity: 1;" fill="#ffffff" stroke="#000000">	
        <g class="BoundaryPolygon" fill="rgb(255, 255, 255)" stroke="rgb(0, 0, 0)">
                <polygon points="0.00,0.00 192.31,0.00 192.31,30.00 0.00,30.00 "/>
        </g>
        <g class="Direction" fill-opacity="0.9" style="display: none;">
                <polygon points="102.59,25.20 102.59,14.58 99.58,14.58 99.58,25.20 95.78,25.20 101.08,30.00 106.39,25.20 102.59,25.20 " fill="#444444"/>
        </g> 
        <g class="Name" fill-opacity="0.9" style="display: none;">
                <text transform="translate(3 12)" font-size="12" font-family="Verdana, Sans-Serif">UC</text>
        </g>
        <desc>Width:60 Height:60 Depth:50 Elevation:140</desc>
        </g><g fill="#0000ff" stroke="#0000ff" style="display: none;" class="SelectionControls"><g style="display: none;" class="rotateControl"><circle cx="1145.973566747476" cy="691.5786424245638" r="5" style="stroke : none; fill-opacity: 0.5; cursor:crosshair"/></g><g style="display: none;" class="ResizeNControl"><circle cx="0" cy="0" r="5" style="stroke : none; fill-opacity: 0.5"/></g><g style="display: none;" class="ResizeNEControl"><circle cx="0" cy="0" r="5" style="stroke : none; fill-opacity: 0.5"/></g><g style="display: none;" class="ResizeEControl"><circle cx="0" cy="0" r="5" style="stroke : none; fill-opacity: 0.5"/></g><g style="display: none;" class="ResizeSEControl"><circle cx="0" cy="0" r="5" style="stroke : none; fill-opacity: 0.5"/></g><g style="display: none;" class="ResizeSControl"><circle cx="0" cy="0" r="5" style="stroke : none; fill-opacity: 0.5"/></g><g style="display: none;" class="ResizeSWControl"><circle cx="0" cy="0" r="5" style="stroke : none; fill-opacity: 0.5"/></g><g style="display: none;" class="ResizeWControl"><circle cx="0" cy="0" r="5" style="stroke : none; fill-opacity: 0.5"/></g><g style="display: none;" class="ResizeNWControl"><circle cx="0" cy="0" r="5" style="stroke : none; fill-opacity: 0.5"/></g><g style="display: none;" class="removeControl"><polygon style="stroke : none; fill-opacity: 0.1" points="1125.08,721.58 1166.87,721.58 1166.87,761.64 1125.08,761.64 "/></g><g style="display: none;" class="copyPasteControl"><polygon style="stroke : none; fill-opacity: 0.1"/></g><g style="display: none;" class="translateControl"><polygon style="stroke : none; fill-opacity: 0.1; cursor:move" points="1125.08,721.58 1166.87,721.58 1166.87,761.64 1125.08,761.64 "/></g></g><g fill="#0000ff" stroke="#0000ff" style="display: none;" class="SelectionControls"><polygon fill="none" stroke="#0000ff" style="" points="590.94,618.70 1326.30,618.70 1326.30,801.24 590.94,801.24 "/><g style="display: none;" class="rotateControl"><circle cx="958.6193853998197" cy="588.6952674245638" r="5" style="stroke : none; fill-opacity: 0.5; cursor:crosshair"/></g><g style="display: none;" class="ResizeNControl"><circle cx="0" cy="0" r="5" style="stroke : none; fill-opacity: 0.5"/></g><g style="display: none;" class="ResizeNEControl"><circle cx="0" cy="0" r="5" style="stroke : none; fill-opacity: 0.5"/></g><g style="display: none;" class="ResizeEControl"><circle cx="0" cy="0" r="5" style="stroke : none; fill-opacity: 0.5"/></g><g style="display: none;" class="ResizeSEControl"><circle cx="0" cy="0" r="5" style="stroke : none; fill-opacity: 0.5"/></g><g style="display: none;" class="ResizeSControl"><circle cx="0" cy="0" r="5" style="stroke : none; fill-opacity: 0.5"/></g><g style="display: none;" class="ResizeSWControl"><circle cx="0" cy="0" r="5" style="stroke : none; fill-opacity: 0.5"/></g><g style="display: none;" class="ResizeWControl"><circle cx="0" cy="0" r="5" style="stroke : none; fill-opacity: 0.5"/></g><g style="display: none;" class="ResizeNWControl"><circle cx="0" cy="0" r="5" style="stroke : none; fill-opacity: 0.5"/></g><g style="display: none;" class="removeControl"><polygon style="stroke : none; fill-opacity: 0.1"/></g><g style="display: none;" class="copyPasteControl"><polygon style="stroke : none; fill-opacity: 0.1"/></g><g style="display: none;" class="translateControl"><polygon style="stroke : none; fill-opacity: 0.1; cursor:move"/></g></g></g></g></g></svg>
