<?xml version="1.0"?>
<svg xmlns="http://www.w3.org/2000/svg" xmlns:xlink="http://www.w3.org/1999/xlink" height="1234.1899223327637" version="1.1" width="941.0645446777344" id="temp" viewBox="0 0 941.0645446777344 1234.1899223327637"><defs/><g id="Model" class="Model v1-1"><g class="Floor"><g id="Floor-1" class="Floorplan Floor-1"><g id="436bdb13-93df-4887-9982-27c720e60946" fill="#ffffff" stroke="#000000" style="fill-opacity: 1; stroke-opacity: 1; stroke-width: 0.2;" class="Space Outdoor"><polygon points="591.65,388.38 770.28,388.38 770.28,54.14 591.65,54.14 591.65,388.38 591.65,388.38 "/><g transform="matrix(1,0,0,1,591.6536,54.1352)" class="Dimension"><g transform="matrix(1,0,0,1,0,0)" style="display: none;" class="Visual"><g id="mark1" fill="#000000" stroke="none" transform="matrix(1,0,0,1,89.315,0)" style="fill-opacity: 1; pointer-events: visible;" class="DimensionMark"><polygon points="-5,5,0,0,5,5"/></g><g id="mark2" fill="#000000" stroke="none" transform="matrix(1,0,0,1,178.6301,167.1205)" style="fill-opacity: 1; pointer-events: visible;" class="DimensionMark"><polygon points="-5,-5,0,0,-5,5"/></g><g id="mark3" fill="#000000" stroke="none" transform="matrix(1,0,0,1,89.315,334.2409)" style="fill-opacity: 1; pointer-events: visible;" class="DimensionMark"><polygon points="-5,-5,0,0,5,-5"/></g><g id="mark4" fill="#000000" stroke="none" transform="matrix(1,0,0,1,0,167.1205)" style="fill-opacity: 1; pointer-events: visible;" class="DimensionMark"><polygon points="5,5,0,0,5,-5"/></g></g><g transform="matrix(1,0,0,1,89.3151,167.1204)" class="SpaceDimensionsLabel"><g id="NameLabel" style="display: block;" class="TextLabel NameLabel"><text x="0" y="0em" fill="#000000" stroke="none" style="font-family: Verdana; font-size: 33px; fill-opacity: 1; cursor: default;">ULKOTILA</text></g><g id="DimensionMeasureLabel" transform="matrix(1,0,0,1,-57.0781,80.4062)" style="display: none;" class="TextLabel DimensionMeasureLabel"><text x="31.6953125" y="-1.2em" fill="#000000" stroke="none" style="font-family: Verdana; font-size: 33px; fill-opacity: 1; cursor: default;">5'10" x 11'0"</text><text x="0" y="0em" fill="#000000" stroke="none" style="font-family: Verdana; font-size: 33px; fill-opacity: 1; cursor: default;">1.79 m x 3.34 m</text></g></g></g></g><g id="808e6bfc-e839-43e8-bae4-1bb609d76e62" fill="#ffffff" stroke="#ffffff" style="fill-opacity: 1; stroke-opacity: 1; stroke-width: 0.2;" class="Space Undefined"><polygon points="902.06,1216.19 619.88,1216.19 619.88,952.23 282.95,952.23 282.95,799.43 560.99,799.43 560.99,442.18 902.06,442.18 "/><g transform="matrix(1,0,0,1,282.952,442.1764)" class="Dimension"><g transform="matrix(1,0,0,1,0,0)" style="display: none;" class="Visual"><g id="mark1" fill="#000000" stroke="none" transform="matrix(1,0,0,1,336.9324,0)" style="fill-opacity: 1; pointer-events: visible;" class="DimensionMark"><polygon points="-5,5,0,0,5,5"/></g><g id="mark2" fill="#000000" stroke="none" transform="matrix(1,0,0,1,619.1125,387.0078)" style="fill-opacity: 1; pointer-events: visible;" class="DimensionMark"><polygon points="-5,-5,0,0,-5,5"/></g><g id="mark3" fill="#000000" stroke="none" transform="matrix(1,0,0,1,336.9324,774.0157)" style="fill-opacity: 1; pointer-events: visible;" class="DimensionMark"><polygon points="-5,-5,0,0,5,-5"/></g><g id="mark4" fill="#000000" stroke="none" transform="matrix(1,0,0,1,0,387.0078)" style="fill-opacity: 1; pointer-events: visible;" class="DimensionMark"><polygon points="5,5,0,0,5,-5"/></g></g><g transform="matrix(1,0,0,1,448.0101,377.8763)" class="SpaceDimensionsLabel"><g id="NameLabel" style="display: block;" class="TextLabel NameLabel"><text x="0" y="0em" fill="#000000" stroke="none" style="font-family: Verdana; font-size: 33px; fill-opacity: 1; cursor: default;">UNDEFINED</text></g><g id="DimensionMeasureLabel" transform="matrix(1,0,0,1,-40.5078,80.5625)" style="display: none;" class="TextLabel DimensionMeasureLabel"><text x="31.6796875" y="-1.2em" fill="#000000" stroke="none" style="font-family: Verdana; font-size: 33px; fill-opacity: 1; cursor: default;">20'4" x 25'5"</text><text x="0" y="0em" fill="#000000" stroke="none" style="font-family: Verdana; font-size: 33px; fill-opacity: 1; cursor: default;">6.19 m x 7.74 m</text></g></g></g></g><g id="37ef4d64-b9f7-452c-93ad-663d42bc7dda" fill="#ffffff" stroke="#ffffff" style="fill-opacity: 1; stroke-opacity: 1; stroke-width: 0.2;" class="Space Undefined"><polygon points="550.99,789.43 282.95,789.43 282.95,442.66 550.99,442.18 "/><g transform="matrix(1,0,0,1,282.952,442.417)" class="Dimension"><g transform="matrix(1,0,0,1,0,0)" style="display: none;" class="Visual"><g id="mark1" fill="#000000" stroke="none" transform="matrix(1,0,0,1,134.0189,0)" style="fill-opacity: 1; pointer-events: visible;" class="DimensionMark"><polygon points="-5,5,0,0,5,5"/></g><g id="mark2" fill="#000000" stroke="none" transform="matrix(1,0,0,1,268.037,173.3853)" style="fill-opacity: 1; pointer-events: visible;" class="DimensionMark"><polygon points="-5,-5,0,0,-5,5"/></g><g id="mark3" fill="#000000" stroke="none" transform="matrix(1,0,0,1,134.0189,347.0112)" style="fill-opacity: 1; pointer-events: visible;" class="DimensionMark"><polygon points="-5,-5,0,0,5,-5"/></g><g id="mark4" fill="#000000" stroke="none" transform="matrix(1,0,0,1,0,173.3853)" style="fill-opacity: 1; pointer-events: visible;" class="DimensionMark"><polygon points="5,5,0,0,5,-5"/></g></g><g transform="matrix(1,0,0,1,134.0494,173.5055)" class="SpaceDimensionsLabel"><g id="NameLabel" style="display: block;" class="TextLabel NameLabel"><text x="0" y="0em" fill="#000000" stroke="none" style="font-family: Verdana; font-size: 33px; fill-opacity: 1; cursor: default;">UNDEFINED</text></g><g id="DimensionMeasureLabel" transform="matrix(1,0,0,1,-40.5078,80.5625)" style="display: none;" class="TextLabel DimensionMeasureLabel"><text x="31.6796875" y="-1.2em" fill="#000000" stroke="none" style="font-family: Verdana; font-size: 33px; fill-opacity: 1; cursor: default;">8'10" x 11'5"</text><text x="0" y="0em" fill="#000000" stroke="none" style="font-family: Verdana; font-size: 33px; fill-opacity: 1; cursor: default;">2.68 m x 3.47 m</text></g></g></g></g><g id="ff587dd8-d4c7-4f15-878c-7fb9d0483816" fill="#ffffff" stroke="#ffffff" style="fill-opacity: 1; stroke-opacity: 1; stroke-width: 0.2;" class="Space Undefined"><polygon points="272.95,952.23 197.10,952.23 197.10,919.98 110.53,919.98 110.53,641.32 272.95,641.32 "/><g transform="matrix(1,0,0,1,110.5269,641.3218)" class="Dimension"><g transform="matrix(1,0,0,1,0,0)" style="display: none;" class="Visual"><g id="mark1" fill="#000000" stroke="none" transform="matrix(1,0,0,1,86.5733,0)" style="fill-opacity: 1; pointer-events: visible;" class="DimensionMark"><polygon points="-5,5,0,0,5,5"/></g><g id="mark2" fill="#000000" stroke="none" transform="matrix(1,0,0,1,162.4252,155.4538)" style="fill-opacity: 1; pointer-events: visible;" class="DimensionMark"><polygon points="-5,-5,0,0,-5,5"/></g><g id="mark3" fill="#000000" stroke="none" transform="matrix(1,0,0,1,86.5733,310.9076)" style="fill-opacity: 1; pointer-events: visible;" class="DimensionMark"><polygon points="-5,-5,0,0,5,-5"/></g><g id="mark4" fill="#000000" stroke="none" transform="matrix(1,0,0,1,0,155.4538)" style="fill-opacity: 1; pointer-events: visible;" class="DimensionMark"><polygon points="5,5,0,0,5,-5"/></g></g><g transform="matrix(1,0,0,1,81.2126,81.2126)" class="SpaceDimensionsLabel"><g id="NameLabel" style="display: block;" class="TextLabel NameLabel"><text x="0" y="0em" fill="#000000" stroke="none" style="font-family: Verdana; font-size: 33px; fill-opacity: 1; cursor: default;">UNDEFINED</text></g><g id="DimensionMeasureLabel" transform="matrix(1,0,0,1,-40.5078,80.5625)" style="display: none;" class="TextLabel DimensionMeasureLabel"><text x="42.1640625" y="-1.2em" fill="#000000" stroke="none" style="font-family: Verdana; font-size: 33px; fill-opacity: 1; cursor: default;">5'4" x 10'2"</text><text x="0" y="0em" fill="#000000" stroke="none" style="font-family: Verdana; font-size: 33px; fill-opacity: 1; cursor: default;">1.62 m x 3.11 m</text></g></g></g></g><g id="58cee118-48e6-4d8a-aab0-3689a1c829ea" fill="#ffffff" stroke="#ffffff" style="fill-opacity: 1; stroke-opacity: 1; stroke-width: 0.2;" class="Space Undefined"><polygon points="265.95,624.32 110.53,624.32 110.53,442.66 265.95,442.66 "/><g transform="matrix(1,0,0,1,110.5269,442.6575)" class="Dimension"><g transform="matrix(1,0,0,1,0,0)" style="display: none;" class="Visual"><g id="mark1" fill="#000000" stroke="none" transform="matrix(1,0,0,1,77.7125,0)" style="fill-opacity: 1; pointer-events: visible;" class="DimensionMark"><polygon points="-5,5,0,0,5,5"/></g><g id="mark2" fill="#000000" stroke="none" transform="matrix(1,0,0,1,155.4249,90.8321)" style="fill-opacity: 1; pointer-events: visible;" class="DimensionMark"><polygon points="-5,-5,0,0,-5,5"/></g><g id="mark3" fill="#000000" stroke="none" transform="matrix(1,0,0,1,77.7125,181.6643)" style="fill-opacity: 1; pointer-events: visible;" class="DimensionMark"><polygon points="-5,-5,0,0,5,-5"/></g><g id="mark4" fill="#000000" stroke="none" transform="matrix(1,0,0,1,0,90.8321)" style="fill-opacity: 1; pointer-events: visible;" class="DimensionMark"><polygon points="5,5,0,0,5,-5"/></g></g><g transform="matrix(1,0,0,1,77.7124,90.8322)" class="SpaceDimensionsLabel"><g id="NameLabel" style="display: block;" class="TextLabel NameLabel"><text x="0" y="0em" fill="#000000" stroke="none" style="font-family: Verdana; font-size: 33px; fill-opacity: 1; cursor: default;">UNDEFINED</text></g><g id="DimensionMeasureLabel" transform="matrix(1,0,0,1,-40.5078,80.5625)" style="display: none;" class="TextLabel DimensionMeasureLabel"><text x="52.6484375" y="-1.2em" fill="#000000" stroke="none" style="font-family: Verdana; font-size: 33px; fill-opacity: 1; cursor: default;">5'1" x 6'0"</text><text x="0" y="0em" fill="#000000" stroke="none" style="font-family: Verdana; font-size: 33px; fill-opacity: 1; cursor: default;">1.55 m x 1.82 m</text></g></g></g></g><g id="Wall" fill="#000000" stroke="#000000" style="fill-opacity: 1; stroke-opacity: 1; stroke-width: 0.2;" class="Wall External"><polygon points="94.53,388.67 94.53,968.23 110.53,919.98 110.53,442.66 "/></g><g id="Wall" fill="#000000" stroke="#000000" style="fill-opacity: 1; stroke-opacity: 1; stroke-width: 0.2;" class="Wall External"><polygon points="94.53,968.23 197.10,968.23 197.10,919.98 110.53,919.98 "/></g><g id="Wall" fill="#000000" stroke="#000000" style="fill-opacity: 1; stroke-opacity: 1; stroke-width: 0.2;" class="Wall External"><polygon points="197.10,968.23 603.88,968.23 619.88,952.23 197.10,952.23 "/><g id="Door" fill="#ffffff" stroke="#000000" style="fill-opacity: 1; stroke-width: 1; stroke-opacity: 1;" class="Door Swing Beside"><polygon points="312.60,968.23 401.47,968.23 401.47,952.23 312.60,952.23 "/><g id="Threshold" class="Threshold"><polygon points="312.60,968.23 401.47,968.23 401.47,952.23 312.60,952.23 "/></g><g id="Panel" fill="none" style="" class="Panel Left Negative"><g id="PanelArea" fill="none" stroke="none" style="" class="PanelArea"><polygon points="312.60,968.23 401.47,968.23 401.47,952.23 312.60,952.23 "/></g><path d="M312.60,968.23 q0.00,88.87 88.87,88.87 l0.00,-88.87Z"/></g></g></g><g id="Wall" fill="#000000" stroke="#000000" style="fill-opacity: 1; stroke-opacity: 1; stroke-width: 0.2;" class="Wall External"><polygon points="619.88,952.23 619.88,1216.19 603.88,1234.19 603.88,968.23 "/></g><g id="Wall" fill="#000000" stroke="#000000" style="fill-opacity: 1; stroke-opacity: 1; stroke-width: 0.2;" class="Wall External"><polygon points="603.88,1234.19 941.06,1234.19 902.06,1216.19 619.88,1216.19 "/></g><g id="Wall" fill="#000000" stroke="#000000" style="fill-opacity: 1; stroke-opacity: 1; stroke-width: 0.2;" class="Wall External"><polygon points="941.06,1234.19 941.06,388.15 902.06,442.18 902.06,1216.19 "/><g id="Window" fill="#f0f0ff" stroke="#000000" style="fill-opacity: 1; stroke-width: 1; stroke-opacity: 1;" class="Window Regular"><polygon points="941.06,903.73 941.06,720.95 902.06,720.95 902.06,903.73 "/><g id="Glass" class="Glass"><polygon points="941.06,903.73 941.06,720.95 902.06,720.95 902.06,903.73 "/></g><g id="Panel" class="Panel"><line x1="921.5644924556307" x2="921.5644924556306" y1="896.2293206158472" y2="728.4472384565198"/><line x1="941.0644924556307" x2="902.0644924556307" y1="896.2293206158472" y2="896.2293206158472"/><line x1="941.0644924556306" x2="902.0644924556306" y1="728.4472384565198" y2="728.4472384565198"/></g></g><g id="Window" fill="#f0f0ff" stroke="#000000" style="fill-opacity: 1; stroke-width: 1; stroke-opacity: 1;" class="Window Regular"><polygon points="941.06,1112.62 941.06,963.07 902.06,963.07 902.06,1112.62 "/><g id="Glass" class="Glass"><polygon points="941.06,1112.62 941.06,963.07 902.06,963.07 902.06,1112.62 "/></g><g id="Panel" class="Panel"><line x1="921.5644924556307" x2="921.5644924556307" y1="1105.1231287979358" y2="970.5741524857588"/><line x1="941.0644924556307" x2="902.0644924556307" y1="1105.1231287979358" y2="1105.1231287979358"/><line x1="941.0644924556307" x2="902.0644924556307" y1="970.5741524857588" y2="970.5741524857588"/></g></g></g><g id="Wall" fill="#000000" stroke="#000000" style="fill-opacity: 1; stroke-opacity: 1; stroke-width: 0.2;" class="Wall External"><polygon points="941.06,388.15 94.53,388.67 110.53,442.66 902.06,442.18 "/><g id="Window" fill="#f0f0ff" stroke="#000000" style="fill-opacity: 1; stroke-width: 1; stroke-opacity: 1;" class="Window Regular"><polygon points="264.24,388.56 212.90,388.60 212.93,442.60 264.27,442.56 "/><g id="Glass" class="Glass"><polygon points="264.24,388.56 212.90,388.60 212.93,442.60 264.27,442.56 "/></g><g id="Panel" class="Panel"><line x1="256.75702182657136" x2="220.4121297115906" y1="415.5686586300989" y2="415.5907508451967"/><line x1="256.7406099000878" x2="256.7734337530549" y1="388.568663618087" y2="442.56865364211086"/><line x1="220.39571778510702" x2="220.42854163807414" y1="388.59075583318474" y2="442.5907458572086"/></g></g><g id="Window" fill="#f0f0ff" stroke="#000000" style="fill-opacity: 1; stroke-width: 1; stroke-opacity: 1;" class="Window Regular"><polygon points="424.14,388.47 319.25,388.53 319.28,442.53 424.17,442.47 "/><g id="Glass" class="Glass"><polygon points="424.14,388.47 319.25,388.53 319.28,442.53 424.17,442.47 "/></g><g id="Panel" class="Panel"><line x1="416.6531298323644" x2="326.76519692488847" y1="415.4714659021584" y2="415.5261042139796"/><line x1="416.63671790588086" x2="416.66954175884797" y1="388.47147089014646" y2="442.47146091417034"/><line x1="326.7487849984049" x2="326.781608851372" y1="388.52610920196764" y2="442.5260992259915"/></g></g><g id="Window" fill="#f0f0ff" stroke="#000000" style="fill-opacity: 1; stroke-width: 1; stroke-opacity: 1;" class="Window Regular"><polygon points="521.69,388.41 465.21,388.44 465.24,442.44 521.72,442.41 "/><g id="Glass" class="Glass"><polygon points="521.69,388.41 465.21,388.44 465.24,442.44 521.72,442.41 "/></g><g id="Panel" class="Panel"><line x1="514.2042287533756" x2="472.72734437009024" y1="415.4121695406899" y2="415.4373812333943"/><line x1="514.187816826892" x2="514.2206406798591" y1="388.41217452867795" y2="442.4121645527018"/><line x1="472.71093244360674" x2="472.74375629657385" y1="388.4373862213824" y2="442.43737624540626"/></g></g><g id="Window" fill="#f0f0ff" stroke="#000000" style="fill-opacity: 1; stroke-width: 1; stroke-opacity: 1;" class="Window Regular"><polygon points="658.84,388.32 592.10,388.36 592.13,442.36 658.88,442.32 "/><g id="Glass" class="Glass"><polygon points="658.84,388.32 592.10,388.36 592.13,442.36 658.88,442.32 "/></g><g id="Panel" class="Panel"><line x1="651.3590579075417" x2="599.613730655356" y1="415.3288000818459" y2="415.3602534397577"/><line x1="651.3426459810581" x2="651.3754698340252" y1="388.32880506983395" y2="442.3287950938578"/><line x1="599.5973187288726" x2="599.6301425818397" y1="388.36025842774575" y2="442.3602484517696"/></g></g><g id="Door" fill="#ffffff" stroke="#000000" style="fill-opacity: 1; stroke-width: 1; stroke-opacity: 1;" class="Door Swing Beside"><polygon points="756.35,388.26 666.18,388.32 666.21,442.32 756.38,442.26 "/><g id="Threshold" class="Threshold"><polygon points="756.35,388.26 666.18,388.32 666.21,442.32 756.38,442.26 "/></g><g id="Panel" fill="none" style="" class="Panel Right Negative"><g id="PanelArea" fill="none" stroke="none" style="" class="PanelArea"><polygon points="756.35,388.26 666.18,388.32 666.21,442.32 756.38,442.26 "/></g><path d="M666.18,388.32 q-0.05,-90.17 90.11,-90.22 l0.05,90.17Z"/></g></g><g id="Window" fill="#f0f0ff" stroke="#000000" style="fill-opacity: 1; stroke-width: 1; stroke-opacity: 1;" class="Window Regular"><polygon points="872.58,388.19 768.88,388.26 768.91,442.26 872.61,442.19 "/><g id="Glass" class="Glass"><polygon points="872.58,388.19 768.88,388.26 768.91,442.26 872.61,442.19 "/></g><g id="Panel" class="Panel"><line x1="865.0926908121152" x2="776.3926551847197" y1="415.1988822552414" y2="415.2527985046021"/><line x1="865.0762788856316" x2="865.1091027385987" y1="388.1988872432295" y2="442.19887726725335"/><line x1="776.3762432582363" x2="776.4090671112034" y1="388.25280349259015" y2="442.252793516614"/></g></g></g><g id="Wall" fill="#000000" stroke="#000000" style="fill-opacity: 1; stroke-opacity: 1; stroke-width: 0.2;" class="Wall"><polygon points="94.53,641.32 272.95,641.32 282.95,624.32 94.53,624.32 "/><g id="Door" fill="#ffffff" stroke="#000000" style="fill-opacity: 1; stroke-width: 1; stroke-opacity: 1;" class="Door Swing Beside"><polygon points="192.64,641.32 264.22,641.32 264.22,624.32 192.64,624.32 "/><g id="Threshold" class="Threshold"><polygon points="192.64,641.32 264.22,641.32 264.22,624.32 192.64,624.32 "/></g><g id="Panel" fill="none" style="" class="Panel Left Negative"><g id="PanelArea" fill="none" stroke="none" style="" class="PanelArea"><polygon points="192.64,641.32 264.22,641.32 264.22,624.32 192.64,624.32 "/></g><path d="M192.64,641.32 q0.00,71.58 71.58,71.58 l0.00,-71.58Z"/></g></g></g><g id="Wall" fill="#000000" stroke="#000000" style="fill-opacity: 1; stroke-opacity: 1; stroke-width: 0.2;" class="Wall"><polygon points="282.95,641.32 282.95,388.55 265.95,388.55 265.95,624.32 "/></g><g id="Wall" fill="#000000" stroke="#000000" style="fill-opacity: 1; stroke-opacity: 1; stroke-width: 0.2;" class="Wall"><polygon points="282.95,624.32 282.95,968.23 272.95,968.23 272.95,641.32 "/><g id="Door" fill="#ffffff" stroke="#000000" style="fill-opacity: 1; stroke-width: 1; stroke-opacity: 1;" class="Door Swing Beside"><polygon points="282.95,803.39 282.95,880.92 272.95,880.92 272.95,803.39 "/><g id="Threshold" class="Threshold"><polygon points="282.95,803.39 282.95,880.92 272.95,880.92 272.95,803.39 "/></g><g id="Panel" fill="none" style="" class="Panel Right Positive"><g id="PanelArea" fill="none" stroke="none" style="" class="PanelArea"><polygon points="282.95,803.39 282.95,880.92 272.95,880.92 272.95,803.39 "/></g><path d="M272.95,803.39 q-77.53,0.00 -77.53,77.53 l77.53,0.00Z"/></g></g></g><g id="Wall" fill="#000000" stroke="#000000" style="fill-opacity: 1; stroke-opacity: 1; stroke-width: 0.2;" class="Wall"><polygon points="272.95,799.43 560.99,799.43 550.99,789.43 272.95,789.43 "/><g id="Door" fill="#ffffff" stroke="#000000" style="fill-opacity: 1; stroke-width: 1; stroke-opacity: 1;" class="Door Swing Beside"><polygon points="296.23,799.43 370.77,799.43 370.77,789.43 296.23,789.43 "/><g id="Threshold" class="Threshold"><polygon points="296.23,799.43 370.77,799.43 370.77,789.43 296.23,789.43 "/></g><g id="Panel" fill="none" style="" class="Panel Left Positive"><g id="PanelArea" fill="none" stroke="none" style="" class="PanelArea"><polygon points="296.23,799.43 370.77,799.43 370.77,789.43 296.23,789.43 "/></g><path d="M370.77,789.43 q0.00,-74.55 -74.55,-74.55 l0.00,74.55Z"/></g></g></g><g id="Wall" fill="#000000" stroke="#000000" style="fill-opacity: 1; stroke-opacity: 1; stroke-width: 0.2;" class="Wall"><polygon points="560.99,799.43 560.98,388.38 550.98,388.38 550.99,789.43 "/></g><g id="Wall" fill="#000000" stroke="#000000" style="fill-opacity: 1; stroke-opacity: 1; stroke-width: 0.2;" class="Wall"><polygon points="572.65,388.38 572.65,38.27 591.65,38.27 591.65,388.38 "/></g><g id="FixedFurnitureSet" transform="matrix(-1,0,0,-1,550.9887,789.2094)" class="FixedFurnitureSet" style="fill-opacity: 1; stroke-opacity: 1;" fill="#ffffff" stroke="#000000"><g class="FixedFurniture Closet" transform="matrix(1,0,0,1,0,0)">
        <g class="BoundaryPolygon" fill="rgb(255, 255, 255)" stroke="rgb(0, 0, 0)">
            <polygon points="0.00,0.00 57.88,0.00 57.88,60.00 0.00,60.00 "/>
        </g>
        <g class="Direction" fill-opacity="0.9" style="display: none;">
            <polygon points="30.40,54.70 30.40,44.08 27.39,44.08 27.39,54.70 23.59,54.70 28.89,60.00 34.19,54.70 30.40,54.70 " fill="#444444"/>
        </g> 
        <g class="Name" fill-opacity="0.9" style="display: none;">
            <text transform="translate(3 12)" font-size="12" font-family="Verdana, Sans-Serif">CL</text>
        </g>
        <desc>Width:60 Height:200 Depth:60 Elevation:0</desc>
     </g><g class="FixedFurniture Closet" transform="matrix(1,0,0,1,57.8835,0)">
        <g class="BoundaryPolygon" fill="rgb(255, 255, 255)" stroke="rgb(0, 0, 0)">
            <polygon points="0.00,0.00 57.88,0.00 57.88,60.00 0.00,60.00 "/>
        </g>
        <g class="Direction" fill-opacity="0.9" style="display: none;">
            <polygon points="30.40,54.70 30.40,44.08 27.39,44.08 27.39,54.70 23.59,54.70 28.89,60.00 34.19,54.70 30.40,54.70 " fill="#444444"/>
        </g> 
        <g class="Name" fill-opacity="0.9" style="display: none;">
            <text transform="translate(3 12)" font-size="12" font-family="Verdana, Sans-Serif">CL</text>
        </g>
        <desc>Width:60 Height:200 Depth:60 Elevation:0</desc>
     </g><g class="FixedFurniture Closet" transform="matrix(1,0,0,1,115.7671,0)">
        <g class="BoundaryPolygon" fill="rgb(255, 255, 255)" stroke="rgb(0, 0, 0)">
            <polygon points="0.00,0.00 57.88,0.00 57.88,60.00 0.00,60.00 "/>
        </g>
        <g class="Direction" fill-opacity="0.9" style="display: none;">
            <polygon points="30.40,54.70 30.40,44.08 27.39,44.08 27.39,54.70 23.59,54.70 28.89,60.00 34.19,54.70 30.40,54.70 " fill="#444444"/>
        </g> 
        <g class="Name" fill-opacity="0.9" style="display: none;">
            <text transform="translate(3 12)" font-size="12" font-family="Verdana, Sans-Serif">CL</text>
        </g>
        <desc>Width:60 Height:200 Depth:60 Elevation:0</desc>
     </g></g><g class="FixedFurniture CoatCloset" transform="matrix(-1,0,0,-1,528.1037,952.0108)" style="fill-opacity: 1; stroke-opacity: 1;" fill="#ffffff" stroke="#000000">
        <g class="BoundaryPolygon" fill="rgb(255, 255, 255)" stroke="rgb(0, 0, 0)">
                <polygon points="0.00,0.00 98.13,0.00 98.13,60.00 0.00,60.00 "/>
            </g>
        <g class="Hanger" fill="rgb(255, 255, 255)" stroke="rgb(154, 154, 154)" stroke-dasharray="5,5">
            <line x1="0" y1="30" x2="98.12978296203417" y2="30"/>
            </g>
        <g class="Direction" fill-opacity="0.9" style="display: none;">
            <polygon points="50.30,54.52 50.30,43.90 47.29,43.90 47.29,54.52 43.49,54.52 48.79,59.82 54.09,54.52 50.30,54.52 " fill="#444444"/>
        </g> 
        <g class="Name" fill-opacity="0.9" style="display: none;">
            <text transform="translate(3 12)" font-size="12" font-family="Verdana, Sans-Serif">CWH</text>
        </g>
        <desc>Width:120 Height:200 Depth:60 Elevation:0</desc>
     </g><g id="FixedFurnitureSet" transform="matrix(-1,0,0,-1,680.0401,952.0088)" class="FixedFurnitureSet" style="fill-opacity: 1; stroke-opacity: 1;" fill="#ffffff" stroke="#000000"><g class="FixedFurniture Closet" transform="matrix(1,0,0,1,0,0)">
        <g class="BoundaryPolygon" fill="rgb(255, 255, 255)" stroke="rgb(0, 0, 0)">
            <polygon points="0.00,0.00 59.02,0.00 59.02,60.00 0.00,60.00 "/>
        </g>
        <g class="Direction" fill-opacity="0.9" style="display: none;">
            <polygon points="30.99,54.70 30.99,44.08 27.99,44.08 27.99,54.70 24.18,54.70 29.49,60.00 34.79,54.70 30.99,54.70 " fill="#444444"/>
        </g> 
        <g class="Name" fill-opacity="0.9" style="display: none;">
            <text transform="translate(3 12)" font-size="12" font-family="Verdana, Sans-Serif">CL</text>
        </g>
        <desc>Width:60 Height:200 Depth:60 Elevation:0</desc>
     </g><g class="FixedFurniture Closet" transform="matrix(1,0,0,1,59.0196,0)">
        <g class="BoundaryPolygon" fill="rgb(255, 255, 255)" stroke="rgb(0, 0, 0)">
            <polygon points="0.00,0.00 59.02,0.00 59.02,60.00 0.00,60.00 "/>
        </g>
        <g class="Direction" fill-opacity="0.9" style="display: none;">
            <polygon points="30.99,54.70 30.99,44.08 27.99,44.08 27.99,54.70 24.18,54.70 29.49,60.00 34.79,54.70 30.99,54.70 " fill="#444444"/>
        </g> 
        <g class="Name" fill-opacity="0.9" style="display: none;">
            <text transform="translate(3 12)" font-size="12" font-family="Verdana, Sans-Serif">CL</text>
        </g>
        <desc>Width:60 Height:200 Depth:60 Elevation:0</desc>
     </g></g><g class="FixedFurniture Shower" transform="matrix(0,-1,1,0,110.0268,698.3003)" style="fill-opacity: 1; stroke-opacity: 1;" fill="#ffffff" stroke="#000000"> 
	   <g class="BoundaryPolygon" fill="rgb(255, 255, 255)" stroke="rgb(0, 0, 0)" stroke-linejoin="round"> 
			<rect x="3.7" y="0.5" width="11.2" height="6.1"/>
			<rect x="17.6" y="0.5" width="11.2" height="6.1"/>
			<rect x="28.7" y="0.5" width="3.4" height="6.1"/>
			<rect x="0.5" y="0.5" width="3.2" height="6.1"/>
			<path d="M14.9,8.5c0,1.5-0.4,3.3-1.6,5    c-0.4,0.6-1,1.1-1.1,1.7c-0.2,1.1,0.3,2.8,2.5,3.2c0.5,0.1,1.3,0.1,1.6,0.1h-0.1c0.3,0,1.1,0,1.6-0.1c2.2-0.4,2.7-2.1,2.5-3.2    c-0.1-0.6-0.7-1.1-1.1-1.7c-1.2-1.7-1.6-3.5-1.6-5"/>
			<path d="M12.2,15.3c0.1,0.2,1.6,1.9,4.2,1.9 c2.4-0.1,3.7-1.7,3.9-1.9"/>
			<path d="M14.9,0.5h2.7v8c-0.9,0-1.8,0-2.7,0l0,0 C14.9,5.9,14.9,3.2,14.9,0.5z"/>
		</g>
	   <g class="Indicator" fill="rgb(255, 255, 255)" stroke="rgb(0, 0, 0)" stroke-width="0.5" stroke-linejoin="round"> 
			<path d="M3.7,3.6C5,3.1,5.2,3,5.2,3 c0,1.1,0,0,0,1.1C5.2,4.1,5.1,4.1,3.7,3.6"/>
			<path d="M28.7,3.6 C27.4,3.1,27.2,3,27.2,3c0,1.1,0,0,0,1.1C27.2,4.1,27.3,4.1,28.7,3.6"/>	
		</g>
        <desc>Width:35 Height:97 Depth:20 Elevation:135</desc>
	</g><g class="FixedFurniture ShowerScreen" transform="matrix(0,-1,1.1471,0,110.5268,723.7301)" style="fill-opacity: 1; stroke-opacity: 1;" fill="#ffffff" stroke="#000000"> 
	   <g class="BoundaryPolygon" fill="rgb(255, 255, 255)" stroke="rgb(0, 0, 0)" stroke-linejoin="round"> 
			<rect width="2.5" height="60"/>
        <desc>Width:2.5 Height:180 Depth:60 Elevation:135</desc>
	</g> 
    </g><g class="FixedFurniture Toilet" transform="matrix(0,-1,1,0,110.0269,814.3006)" style="fill-opacity: 1; stroke-opacity: 1;" fill="#ffffff" stroke="#000000">
	   <g class="BoundaryPolygon" fill="rgb(255, 255, 255)" stroke="rgb(0, 0, 0)"> 
		<rect x="0.502" y="0.5" width="39.989" height="17.98"/>
          <path d="M40.491,44.237S41.619,70.5,20.907,70.5C-.523,70.5.6,44.237.6,44.237L.5,18.48H40.491Z"/>
          <rect x="17.318" y="7.975" width="6.357" height="3.03"/>
		</g>
        <desc>Width:40 Height:85 Depth:70 Elevation:0</desc>
    </g><g id="FixedFurnitureSet" transform="matrix(-1,0,0,-1,272.9521,952.2295)" class="FixedFurnitureSet" style="fill-opacity: 1; stroke-opacity: 1;" fill="#ffffff" stroke="#000000"><g class="FixedFurniture ElectricalAppliance WashingMachine" transform="matrix(1,0,0,1,0,0)">
	   <g class="BoundaryPolygon" fill="rgb(255, 255, 255)" stroke="rgb(0, 0, 0)"> 
		<polygon points="0,0 60,0 60,60 0,60"/>
		</g>	
	   <g class="electricitySign" fill="none" stroke="rgb(0, 0, 0)">
        <path d="M0,0,30,41V20.8L60,60"/>
		</g>
	   <g class="Handle" fill="rgb(255, 255, 255)" stroke="rgb(0, 0, 0)"> 
		<path d="M2.7,59.4H57.3"/>
		</g>
         <g class="Direction" fill-opacity="0.9" style="display: none;">
                <polygon points="32.009 55.197 32.009 44.581 29 44.581 29 55.197 25.197 55.197 30.5 60 35.803 55.197 32.009 55.197" fill="#444444"/>
        </g> 
        <g class="Name" fill-opacity="0.9" style="display: none;">
                <text transform="translate(10 12)" font-size="12" font-family="Verdana, Sans-Serif">WM</text>
        </g>
        <desc>Width:60 Height:90 Depth:60 Elevation:0</desc>
    </g><g class="FixedFurniture ElectricalAppliance TumbleDryer" transform="matrix(1,0,0,1,0,0)">
	   <g class="BoundaryPolygon" fill="rgb(255, 255, 255)" fill-opacity="0.0" stroke="rgb(0, 0, 0)"> 
		<polygon points="0,0 60,0 60,60 0,60"/>
        </g>
	   <g class="electricitySign" fill="none" stroke="rgb(0, 0, 0)">
        <path d="M.5.5l30,40.832V20.866L60.5,60.4"/>
		</g>
	   <g class="Handle" fill="rgb(255, 255, 255)" stroke="rgb(0, 0, 0)"> 
		<rect x="5.8" y="58.803" width="49.4" height="1.697"/>
		</g>
         <g class="Direction" fill-opacity="0.9" style="display: none;">
                <polygon points="32.009 55.197 32.009 44.581 29 44.581 29 55.197 25.197 55.197 30.5 60 35.803 55.197 32.009 55.197" fill="#444444"/>
        </g> 
        <g class="Name" fill-opacity="0.9" style="display: none;">
                <text transform="translate(35 12)" font-size="12" font-family="Verdana, Sans-Serif">DR</text>
        </g>
        <desc>Width:60 Height:90 Depth:60 Elevation:0</desc>
	   </g></g><g class="FixedFurniture BaseCabinet" transform="matrix(0,-1,1,0,110.8863,919.9796)" style="fill-opacity: 1; stroke-opacity: 1;" fill="#ffffff" stroke="#000000">
            <g class="BoundaryPolygon" fill="rgb(255, 255, 255)" stroke="rgb(0, 0, 0)">
                <polygon points="0.00,0.00 89.58,0.00 89.58,44.43 0.00,44.43 "/>
            </g>
            <g class="Direction" fill-opacity="0.9" style="display: none;">
                <polygon points="47.79,40.88 47.79,30.26 44.78,30.26 44.78,40.88 40.98,40.88 46.28,45.68 51.58,40.88 47.79,40.88 " fill="#444444"/>
            </g> 
            <g class="Name" fill-opacity="0.9" style="display: none;">
                <text transform="translate(3 12)" font-size="12" font-family="Verdana, Sans-Serif">CB</text>
            </g>
            <desc>Width:60 Height:90 Depth:60 Elevation:0</desc>
        </g><g class="FixedFurniture Sink" transform="matrix(0,-1,1,0,109.2623,906.3662)" style="fill-opacity: 1; stroke-opacity: 1;" fill="#ffffff" stroke="#000000">
            <g class="InnerPolygon" fill="rgb(255, 255, 255)" stroke="rgb(0, 0, 0)">
                <polygon points="5.00,9.70 55.00,9.70 55.00,39.98 5.00,39.98 "/>
            </g>
            <g class="OuterDrain" fill="rgb(255, 255, 255)" stroke="rgb(0, 0, 0)" stroke-width="0.8">
                <circle cx="30" cy="23.535972365788812" r="3.5"/>
            </g>
            <g class="InnerDrain" fill="rgb(255, 255, 255)" stroke="rgb(0, 0, 0)" stroke-width="0.8">
                <circle cx="30" cy="23.535972365788812" r="2"/>
            </g>
            <g class="Faucet" fill="rgb(255, 255, 255)" stroke="rgb(0, 0, 0)">
                <polygon points="27.00,3.65 33.00,3.65 33.00,17.65 27.00,17.65 "/>
            </g>
           <g class="Direction" fill-opacity="0.9" style="display: none;">
                <polygon points="32.01,40.35 32.01,29.73 29.00,29.73 29.00,40.35 25.20,40.35 30.50,45.15 35.80,40.35 32.01,40.35 " fill="#444444"/>
            </g> 
            <g class="Name" fill-opacity="0.9" style="display: none;">
                <text transform="translate(3 12)" font-size="12" font-family="Verdana, Sans-Serif">SINK</text>
            </g>
            <desc>Width:60 Height:90 Depth:60 Elevation:0</desc>
        </g><g class="FixedFurniture Closet" transform="matrix(-1,0,0,-1,562.0005,952.0108)" style="fill-opacity: 1; stroke-opacity: 1;" fill="#ffffff" stroke="#000000">
        <g class="BoundaryPolygon" fill="rgb(255, 255, 255)" stroke="rgb(0, 0, 0)">
            <polygon points="0.00,0.00 33.90,0.00 33.90,60.00 0.00,60.00 "/>
        </g>
        <g class="Direction" fill-opacity="0.9" style="display: none;">
            <polygon points="17.80,54.70 17.80,44.08 14.79,44.08 14.79,54.70 10.99,54.70 16.29,60.00 21.59,54.70 17.80,54.70 " fill="#444444"/>
        </g> 
        <g class="Name" fill-opacity="0.9" style="display: none;">
            <text transform="translate(3 12)" font-size="12" font-family="Verdana, Sans-Serif">CL</text>
        </g>
        <desc>Width:60 Height:200 Depth:60 Elevation:0</desc>
     </g><g class="FixedFurniture Housing" transform="matrix(-1,0,0,-1,902.0645,1216.1921)" style="fill-opacity: 1; stroke-opacity: 1;" fill="#ffffff" stroke="#000000">
        <g class="BoundaryPolygon" fill="rgb(255, 255, 255)" stroke="rgb(0, 0, 0)">
            <polygon points="0,0 10,0 10,60 0,60"/>
        </g> 
        <g class="Name" fill-opacity="0.9" style="display: none;">
            <text transform="translate(3 12)" font-size="12" font-family="Verdana, Sans-Serif">EMPTY</text>
        </g>
        <desc>Width:60 Height:200 Depth:60 Elevation:0</desc>
     </g><g class="FixedFurniture Closet" transform="matrix(-1,0,0,-1,892.0645,1216.1921)" style="fill-opacity: 1; stroke-opacity: 1;" fill="#ffffff" stroke="#000000">
        <g class="BoundaryPolygon" fill="rgb(255, 255, 255)" stroke="rgb(0, 0, 0)">
            <polygon points="0.00,0.00 55.57,0.00 55.57,60.00 0.00,60.00 "/>
        </g>
        <g class="Direction" fill-opacity="0.9" style="display: none;">
            <polygon points="29.18,54.70 29.18,44.08 26.17,44.08 26.17,54.70 22.37,54.70 27.67,60.00 32.98,54.70 29.18,54.70 " fill="#444444"/>
        </g> 
        <g class="Name" fill-opacity="0.9" style="display: none;">
            <text transform="translate(3 12)" font-size="12" font-family="Verdana, Sans-Serif">CL</text>
        </g>
        <desc>Width:60 Height:200 Depth:60 Elevation:0</desc>
     </g><g class="FixedFurniture ElectricalAppliance Refrigerator" transform="matrix(0,-1.1109,1,0,619.8845,1018.6647)" style="fill-opacity: 1; stroke-opacity: 1;" fill="#ffffff" stroke="#000000">
            <g class="BoundaryPolygon" fill="rgb(255, 255, 255)" stroke="rgb(0, 0, 0)">
                <polygon points="0,0 60,0 60,60 0,60"/>
            </g>
            <g class="electricitySign" fill="none" stroke="rgb(0, 0, 0)">
                    <path d="M0,0,30,37.1v-18L60,56.3"/>
            </g>
            <g class="Doors" fill="rgb(255, 255, 255)" stroke="rgb(0, 0, 0)">
                <rect y="56" width="60" height="4"/>
            </g>
             <g class="Direction" fill-opacity="0.9" style="display: none;">
                <polygon points="32.009 55.197 32.009 44.581 29 44.581 29 55.197 25.197 55.197 30.5 60 35.803 55.197 32.009 55.197" fill="#444444"/>
             </g> 
             <g class="Name" fill-opacity="0.9" style="display: none;">
                <text transform="translate(3 12)" font-size="12" font-family="Verdana, Sans-Serif">REF</text>
             </g>
            <desc>Width:60 Height:170 Depth:60 Elevation:0</desc>
        </g><g transform="matrix(1,0,0,1,619.8845,1018.6647)" class="FixedFurniture BaseCabinet" style="fill-opacity: 1; stroke-opacity: 1;" fill="#ffffff" stroke="#000000"><desc>Width:60 Height:90 Depth:60 Elevation:0</desc><g class="BoundaryPolygon"><polygon points="0.00,0.00 -0.00,197.53 216.61,197.53 216.61,137.53 60.43,137.53 60.00,0.00 0.00,0.00 " fill="#ffffff" stroke="#000000" style=""/></g></g><g class="FixedFurniture ElectricalAppliance Dishwasher" transform="matrix(0,-0.9076,1,0,619.9696,1073.1207)" style="fill-opacity: 1; stroke-opacity: 1;" fill="#ffffff" stroke="#000000"> 
        <g class="BoundaryPolygon" fill="rgb(255, 255, 255)" stroke="rgb(0, 0, 0)"> 
		<polygon points="0,0 60,0 60,60 0,60"/>
		</g>
	   <g class="electricitySign" fill="none" stroke="rgb(0, 0, 0)">
        <path d="M0,0,30,38.9v-20L60,60"/>
	   </g>
	   <g class="Handle" fill="none" stroke="rgb(0, 0, 0)"> 
		<path d="M10,59.6H49.8"/>
		</g>
        <g class="Direction" fill-opacity="0.9" style="display: none;">
                <polygon points="32.009 55.197 32.009 44.581 29 44.581 29 55.197 25.197 55.197 30.5 60 35.803 55.197 32.009 55.197" fill="#444444"/>
        </g> 
        <g class="Name" fill-opacity="0.9" style="display: none;">
                <text transform="translate(3 12)" font-size="12" font-family="Verdana, Sans-Serif">DW</text>
        </g>
        <desc>Width:60 Height:90 Depth:60 Elevation:0</desc>
	</g><g class="FixedFurniture DoubleSink" transform="matrix(0,-1,1,0,620.7096,1144.4017)" style="fill-opacity: 1; stroke-opacity: 1;" fill="#ffffff" stroke="#000000">
            <g class="InnerPolygonLeft" fill="rgb(255, 255, 255)" stroke="rgb(0, 0, 0)">
                <polygon points="5.00,9.90 33.50,9.90 33.50,52.86 5.00,52.86 "/>
            </g>
            <g class="InnerPolygonRight" fill="rgb(255, 255, 255)" stroke="rgb(0, 0, 0)">
                <polygon points="36.50,10.00 65.00,10.00 65.00,52.96 36.50,52.96 "/>
            </g>
            <g class="OuterDrain" fill="rgb(255, 255, 255)" stroke="rgb(0, 0, 0)" stroke-width="0.8">
                <circle cx="19.7" cy="31.294781209635904" r="3.5"/>
                <circle cx="50.2" cy="31.294781209635904" r="3.5"/>
            </g>
            <g class="InnerDrain" fill="rgb(255, 255, 255)" stroke="rgb(0, 0, 0)" stroke-width="0.8">
                <circle cx="19.7" cy="31.294781209635904" r="2"/>
                <circle cx="50.2" cy="31.294781209635904" r="2"/>
            </g>
            <g class="Faucet" fill="rgb(255, 255, 255)" stroke="rgb(0, 0, 0)">
                <polygon points="32.00,4.72 38.00,4.72 38.00,18.72 32.00,18.72 "/>
            </g>
            <g class="Direction" fill-opacity="0.9" style="display: none;">
                <polygon points="36.51,52.67 36.51,42.05 33.50,42.05 33.50,52.67 29.70,52.67 35.00,57.97 40.30,52.67 36.51,52.67 " fill="#444444"/>
            </g> 
            <g class="Name" fill-opacity="0.9" style="display: none;">
                <text transform="translate(3 12)" font-size="12" font-family="Verdana, Sans-Serif">DSINK</text>
            </g>
         <desc>Width:70 Height:90 Depth:60 Elevation:0</desc>
        </g><g class="FixedFurniture ElectricalAppliance IntegratedStove" transform="matrix(-1,0,0,-1,787.8307,1217.1114)" style="fill-opacity: 1; stroke-opacity: 1;" fill="#ffffff" stroke="#000000">
            <g class="BoundaryPolygon" fill="rgb(255, 255, 255)" stroke="rgb(0, 0, 0)">
                <polygon points="2.00,2.00 58.00,2.00 58.00,60.66 2.00,60.66 "/>
            </g>
            <g class="OuterCircle" fill="rgb(255, 255, 255)" stroke="rgb(0, 0, 0)" stroke-width="0.8">
                <circle cx="16" cy="16.73500403994003" r="8"/>
                <circle cx="44" cy="16.73500403994003" r="8"/>
                <circle cx="16" cy="45.91666733458545" r="8"/>
                <circle cx="44" cy="46.021261109835095" r="8"/>
            </g>
             <g class="Direction" fill-opacity="0.9" style="display: none;">
                <polygon points="32.01,57.73 32.01,47.12 29.00,47.12 29.00,57.73 25.20,57.73 30.50,62.54 35.80,57.73 32.01,57.73 " fill="#444444"/>
            </g> 
            <g class="Name" fill-opacity="0.9" style="display: none;">
                <text transform="translate(3 12)" font-size="12" font-family="Verdana, Sans-Serif">INT_STOVE</text>
            </g>
            <desc>Width:60 Height:90 Depth:30 Elevation:0</desc>
        </g><g transform="matrix(1,0,0,1,649.0217,1018.6647)" style="stroke-opacity: 1; fill-opacity: 0.7;" class="FixedFurniture WallCabinet" fill="#ffffff" stroke="#000000"><desc>Width:60 Height:60 Depth:50 Elevation:140</desc><g class="BoundaryPolygon"><polygon points="0.00,0.00 0.00,166.76 187.47,166.76 187.47,198.45 -28.31,198.45 -28.31,0.00 0.00,0.00 " fill="#ffffff" stroke="#000000" style=""/></g></g><g id="Column" fill="#000000" stroke="none" style="fill-opacity: 1;" class="Column Circle"><circle cx="740.3581166805968" cy="174.21413630383282" r="12.954261075923386"/></g><g class="FixedFurniture SaunaBench" transform="matrix(1,0,0,1,111.8491,442.3702)" style="fill-opacity: 1; stroke-opacity: 1;" fill="#ffffff" stroke="#000000">
            <g class="BoundaryPolygon" fill="rgb(255, 255, 255)" stroke="rgb(0, 0, 0)">
                <polygon points="0.00,0.00 129.27,0.00 129.27,56.82 0.00,56.82 "/> 
            </g>
            <g class="Bench" fill="rgb(255, 255, 255)" stroke="rgb(154, 154, 154)" stroke-width="0.5">
                <line x1="0" y1="3.7881392766092175" x2="129.2654586992143" y2="3.7881392766092175"/>
                <line x1="0" y1="7.576278553218435" x2="129.2654586992143" y2="7.576278553218435"/>
                <line x1="0" y1="11.364417829827651" x2="129.2654586992143" y2="11.364417829827651"/>
                <line x1="0" y1="15.15255710643687" x2="129.2654586992143" y2="15.15255710643687"/>
                <line x1="0" y1="18.940696383046088" x2="129.2654586992143" y2="18.940696383046088"/>
                <line x1="0" y1="22.728835659655303" x2="129.2654586992143" y2="22.728835659655303"/>
                <line x1="0" y1="26.516974936264525" x2="129.2654586992143" y2="26.516974936264525"/>
                <line x1="0" y1="30.30511421287374" x2="129.2654586992143" y2="30.30511421287374"/>
                <line x1="0" y1="34.093253489482954" x2="129.2654586992143" y2="34.093253489482954"/>
                <line x1="0" y1="37.881392766092176" x2="129.2654586992143" y2="37.881392766092176"/>
                <line x1="0" y1="41.6695320427014" x2="129.2654586992143" y2="41.6695320427014"/>
                <line x1="0" y1="45.457671319310606" x2="129.2654586992143" y2="45.457671319310606"/>
                <line x1="0" y1="49.24581059591983" x2="129.2654586992143" y2="49.24581059591983"/>
                <line x1="0" y1="53.03394987252905" x2="129.2654586992143" y2="53.03394987252905"/>
            </g>
        <g class="Direction" fill-opacity="0.9" style="display: none;">
            <polygon points="66.67,51.76 66.67,41.15 63.66,41.15 63.66,51.76 59.85,51.76 65.16,57.07 70.46,51.76 66.67,51.76 " fill="#444444"/>
        </g> 
        <g class="Name" fill-opacity="0.9" style="display: none;">
            <text transform="translate(3 12)" font-size="12" font-family="Verdana, Sans-Serif">SB_HIGH</text>
        </g>
            <desc>Width:185 Height:5 Depth:60 Elevation:105</desc>
        </g><g class="FixedFurniture SaunaBench" transform="matrix(0,-1,1,0,111.3669,622.5422)" style="fill-opacity: 1; stroke-opacity: 1;" fill="#ffffff" stroke="#000000">
            <g class="BoundaryPolygon" fill="rgb(255, 255, 255)" stroke="rgb(0, 0, 0)">
                <polygon points="0.00,0.00 123.35,0.00 123.35,59.12 0.00,59.12 "/> 
            </g>
            <g class="Bench" fill="rgb(255, 255, 255)" stroke="rgb(154, 154, 154)" stroke-width="0.5">
                <line x1="0" y1="3.9414945436039375" x2="123.34852949328211" y2="3.9414945436039375"/>
                <line x1="0" y1="7.882989087207875" x2="123.34852949328211" y2="7.882989087207875"/>
                <line x1="0" y1="11.824483630811814" x2="123.34852949328211" y2="11.824483630811814"/>
                <line x1="0" y1="15.76597817441575" x2="123.34852949328211" y2="15.76597817441575"/>
                <line x1="0" y1="19.70747271801969" x2="123.34852949328211" y2="19.70747271801969"/>
                <line x1="0" y1="23.64896726162363" x2="123.34852949328211" y2="23.64896726162363"/>
                <line x1="0" y1="27.590461805227566" x2="123.34852949328211" y2="27.590461805227566"/>
                <line x1="0" y1="31.5319563488315" x2="123.34852949328211" y2="31.5319563488315"/>
                <line x1="0" y1="35.473450892435444" x2="123.34852949328211" y2="35.473450892435444"/>
                <line x1="0" y1="39.41494543603938" x2="123.34852949328211" y2="39.41494543603938"/>
                <line x1="0" y1="43.35643997964332" x2="123.34852949328211" y2="43.35643997964332"/>
                <line x1="0" y1="47.29793452324726" x2="123.34852949328211" y2="47.29793452324726"/>
                <line x1="0" y1="51.2394290668512" x2="123.34852949328211" y2="51.2394290668512"/>
                <line x1="0" y1="55.18092361045513" x2="123.34852949328211" y2="55.18092361045513"/>
            </g>
        <g class="Direction" fill-opacity="0.9" style="display: none;">
            <polygon points="63.61,53.86 63.61,43.24 60.60,43.24 60.60,53.86 56.80,53.86 62.10,59.16 67.41,53.86 63.61,53.86 " fill="#444444"/>
        </g> 
        <g class="Name" fill-opacity="0.9" style="display: none;">
            <text transform="translate(3 12)" font-size="12" font-family="Verdana, Sans-Serif">SB_HIGH</text>
        </g>
            <desc>Width:185 Height:5 Depth:60 Elevation:105</desc>
        </g><g class="FixedFurniture SaunaBench" transform="matrix(1,0,0,1,170.5269,499.4402)" style="fill-opacity: 1; stroke-opacity: 1;" fill="#ffffff" stroke="#000000">
            <g class="BoundaryPolygon" fill="rgb(255, 255, 255)" stroke="rgb(0, 0, 0)">
                <polygon points="0.00,0.00 69.32,0.00 69.32,38.09 0.00,38.09 "/>
            </g>
            <g class="Bench" fill="rgb(255, 255, 255)" stroke="rgb(154, 154, 154)" stroke-width="0.5">
                <line x1="0" y1="3.8093253489482954" x2="69.32404502863236" y2="3.8093253489482954"/>
                <line x1="0" y1="7.618650697896591" x2="69.32404502863236" y2="7.618650697896591"/>
                <line x1="0" y1="11.427976046844886" x2="69.32404502863236" y2="11.427976046844886"/>
                <line x1="0" y1="15.237301395793182" x2="69.32404502863236" y2="15.237301395793182"/>
                <line x1="0" y1="19.046626744741477" x2="69.32404502863236" y2="19.046626744741477"/>
                <line x1="0" y1="22.855952093689773" x2="69.32404502863236" y2="22.855952093689773"/>
                <line x1="0" y1="26.665277442638068" x2="69.32404502863236" y2="26.665277442638068"/>
                <line x1="0" y1="30.474602791586364" x2="69.32404502863236" y2="30.474602791586364"/>
                <line x1="0" y1="34.283928140534655" x2="69.32404502863236" y2="34.283928140534655"/>
            </g>
        <g class="Direction" fill-opacity="0.9" style="display: none;">
            <polygon points="35.23,33.00 35.23,22.39 32.22,22.39 32.22,33.00 28.42,33.00 33.72,38.31 39.02,33.00 35.23,33.00 " fill="#444444"/>
        </g> 
        <g class="Name" fill-opacity="0.9" style="display: none;">
            <text transform="translate(3 12)" font-size="12" font-family="Verdana, Sans-Serif">SB_MID</text>
        </g>
            <desc>Width:185 Height:5 Depth:40 Elevation:60</desc>
        </g><g class="FixedFurniture SaunaBench" transform="matrix(0,-1,1,0,170.5269,623.3834)" style="fill-opacity: 1; stroke-opacity: 1;" fill="#ffffff" stroke="#000000">
            <g class="BoundaryPolygon" fill="rgb(255, 255, 255)" stroke="rgb(0, 0, 0)">
                <polygon points="0.00,0.00 85.85,0.00 85.85,36.19 0.00,36.19 "/>
            </g>
            <g class="Bench" fill="rgb(255, 255, 255)" stroke="rgb(154, 154, 154)" stroke-width="0.5">
                <line x1="0" y1="3.61865069789659" x2="85.84918145311352" y2="3.61865069789659"/>
                <line x1="0" y1="7.23730139579318" x2="85.84918145311352" y2="7.23730139579318"/>
                <line x1="0" y1="10.85595209368977" x2="85.84918145311352" y2="10.85595209368977"/>
                <line x1="0" y1="14.47460279158636" x2="85.84918145311352" y2="14.47460279158636"/>
                <line x1="0" y1="18.09325348948295" x2="85.84918145311352" y2="18.09325348948295"/>
                <line x1="0" y1="21.71190418737954" x2="85.84918145311352" y2="21.71190418737954"/>
                <line x1="0" y1="25.33055488527613" x2="85.84918145311352" y2="25.33055488527613"/>
                <line x1="0" y1="28.94920558317272" x2="85.84918145311352" y2="28.94920558317272"/>
                <line x1="0" y1="32.56785628106932" x2="85.84918145311352" y2="32.56785628106932"/>
            </g>
        <g class="Direction" fill-opacity="0.9" style="display: none;">
            <polygon points="43.62,31.35 43.62,20.74 40.62,20.74 40.62,31.35 36.81,31.35 42.12,36.66 47.42,31.35 43.62,31.35 " fill="#444444"/>
        </g> 
        <g class="Name" fill-opacity="0.9" style="display: none;">
            <text transform="translate(3 12)" font-size="12" font-family="Verdana, Sans-Serif">SB_MID</text>
        </g>
            <desc>Width:185 Height:5 Depth:40 Elevation:60</desc>
        </g><g class="FixedFurniture ElectricalAppliance SaunaStove" transform="matrix(0,0.8729,-0.7094,0,265.9499,442.5706)" style="fill-opacity: 1; stroke-opacity: 1;" fill="#ffffff" stroke="#000000"> 
	   <g class="BoundaryPolygon" fill="rgb(255, 255, 255)" stroke="rgb(0, 0, 0)"> 
		<polygon points="0,0 60,0 60,35 0,35"/>
		</g>
	   <g class="electricitySign" fill="none" stroke="rgb(0, 0, 0)">
		<polyline points="0 35 39.7 17.5 21.4 17.5 60 0"/>
		</g>
        <g class="Direction" fill-opacity="0.9" style="display: none;">
            <polygon points="31.509 29.697 31.509 19.081 28.5 19.081 28.5 29.697 24.697 29.697 30 35 35.303 29.697 31.509 29.697" fill="#444444"/>
        </g> 
        <g class="Name" fill-opacity="0.9" style="display: none;">
            <text transform="translate(3 12)" font-size="12" font-family="Verdana, Sans-Serif">SS</text>
        </g>
        <desc>Width:60 Height:60 Depth:35 Elevation:20</desc>
	</g></g></g></g></svg>
