<?xml version="1.0"?>
<svg xmlns="http://www.w3.org/2000/svg" xmlns:xlink="http://www.w3.org/1999/xlink" height="838.5900115966797" version="1.1" width="1079.21337890625" id="temp" viewBox="0 0 1079.21337890625 838.5900115966797"><defs/><g id="Model" class="Model v1-1"><g class="Floor"><g id="Floor-1" class="Floorplan Floor-1"><g id="a43af6a9-36c0-435f-8faa-9f62cbdd2ab8" fill="#ffffff" stroke="#ffffff" style="fill-opacity: 1; stroke-opacity: 1; stroke-width: 0.2;" class="Space Kitchen"><polygon points="625.80,149.46 659.11,149.46 658.98,285.42 297.70,285.42 297.70,58.64 625.80,58.49 "/><g transform="matrix(1,0,0,1,297.6951,58.5551)" class="Dimension"><g transform="matrix(1,0,0,1,0,0)" style="display: none;" class="Visual"><g id="mark1" fill="#000000" stroke="none" transform="matrix(1,0,0,1,180.7058,0)" style="fill-opacity: 1; pointer-events: visible;" class="DimensionMark"><polygon points="-5,5,0,0,5,5"/></g><g id="mark2" fill="#000000" stroke="none" transform="matrix(1,0,0,1,361.3913,113.3978)" style="fill-opacity: 1; pointer-events: visible;" class="DimensionMark"><polygon points="-5,-5,0,0,-5,5"/></g><g id="mark3" fill="#000000" stroke="none" transform="matrix(1,0,0,1,180.7058,226.8651)" style="fill-opacity: 1; pointer-events: visible;" class="DimensionMark"><polygon points="-5,-5,0,0,5,-5"/></g><g id="mark4" fill="#000000" stroke="none" transform="matrix(1,0,0,1,0,113.3978)" style="fill-opacity: 1; pointer-events: visible;" class="DimensionMark"><polygon points="5,5,0,0,5,-5"/></g></g><g transform="matrix(1,0,0,1,162.7564,124.8488)" class="SpaceDimensionsLabel"><g id="NameLabel" style="display: block;" class="TextLabel NameLabel"><text x="0" y="0em" fill="#000000" stroke="none" style="font-family: Verdana; font-size: 33px; fill-opacity: 1; cursor: default;">K</text></g><g id="DimensionMeasureLabel" transform="matrix(1,0,0,1,-128.4922,79.3438)" style="display: none;" class="TextLabel DimensionMeasureLabel"><text x="31.6953125" y="-1.2em" fill="#000000" stroke="none" style="font-family: Verdana; font-size: 33px; fill-opacity: 1; cursor: default;">11'10" x 7'5"</text><text x="0" y="0em" fill="#000000" stroke="none" style="font-family: Verdana; font-size: 33px; fill-opacity: 1; cursor: default;">3.61 m x 2.27 m</text></g></g></g></g><g id="25c6d59a-3a3d-4832-a831-ee458fc268c6" fill="#ffffff" stroke="#ffffff" style="fill-opacity: 1; stroke-opacity: 1; stroke-width: 0.2;" class="Space Bedroom"><polygon points="984.22,270.42 659.42,270.42 659.42,285.42 658.98,285.42 659.11,149.46 641.80,149.46 641.80,58.49 984.22,58.34 "/><g transform="matrix(1,0,0,1,659.0865,58.4115)" class="Dimension"><g transform="matrix(1,0,0,1,0,0)" style="display: none;" class="Visual"><g id="mark1" fill="#000000" stroke="none" transform="matrix(1,0,0,1,153.9265,0)" style="fill-opacity: 1; pointer-events: visible;" class="DimensionMark"><polygon points="-5,5,0,0,5,5"/></g><g id="mark2" fill="#000000" stroke="none" transform="matrix(1,0,0,1,325.138,113.4829)" style="fill-opacity: 1; pointer-events: visible;" class="DimensionMark"><polygon points="-5,-5,0,0,-5,5"/></g><g id="mark3" fill="#000000" stroke="none" transform="matrix(1,0,0,1,153.9265,212.0067)" style="fill-opacity: 1; pointer-events: visible;" class="DimensionMark"><polygon points="-5,-5,0,0,5,-5"/></g><g id="mark4" fill="#000000" stroke="none" transform="matrix(1,0,0,1,0,113.4829)" style="fill-opacity: 1; pointer-events: visible;" class="DimensionMark"><polygon points="5,5,0,0,5,-5"/></g></g><g transform="matrix(1,0,0,1,142.9148,110.4429)" class="SpaceDimensionsLabel"><g id="NameLabel" style="display: block;" class="TextLabel NameLabel"><text x="0" y="0em" fill="#000000" stroke="none" style="font-family: Verdana; font-size: 33px; fill-opacity: 1; cursor: default;">MH</text></g><g id="DimensionMeasureLabel" transform="matrix(1,0,0,1,-113.7031,79.7969)" style="display: none;" class="TextLabel DimensionMeasureLabel"><text x="31.6953125" y="-1.2em" fill="#000000" stroke="none" style="font-family: Verdana; font-size: 33px; fill-opacity: 1; cursor: default;">10'8" x 6'11"</text><text x="0" y="0em" fill="#000000" stroke="none" style="font-family: Verdana; font-size: 33px; fill-opacity: 1; cursor: default;">3.25 m x 2.12 m</text></g></g></g></g><g id="fce5bc13-906a-471e-b322-aeebc1a7fc48" fill="#ffffff" stroke="#ffffff" style="fill-opacity: 1; stroke-opacity: 1; stroke-width: 0.2;" class="Space Room"><polygon points="659.42,286.42 714.27,286.42 714.27,395.51 760.30,395.51 760.30,503.00 741.42,503.00 741.42,519.00 760.30,519.00 760.30,633.26 297.70,633.26 297.70,285.42 659.42,285.42 "/><g transform="matrix(1,0,0,1,297.6951,285.4202)" class="Dimension"><g transform="matrix(1,0,0,1,0,0)" style="display: none;" class="Visual"><g id="mark1" fill="#000000" stroke="none" transform="matrix(1,0,0,1,231.3005,0)" style="fill-opacity: 1; pointer-events: visible;" class="DimensionMark"><polygon points="-5,5,0,0,5,5"/></g><g id="mark2" fill="#000000" stroke="none" transform="matrix(1,0,0,1,462.601,173.9212)" style="fill-opacity: 1; pointer-events: visible;" class="DimensionMark"><polygon points="-5,-5,0,0,-5,5"/></g><g id="mark3" fill="#000000" stroke="none" transform="matrix(1,0,0,1,231.3005,347.8423)" style="fill-opacity: 1; pointer-events: visible;" class="DimensionMark"><polygon points="-5,-5,0,0,5,-5"/></g><g id="mark4" fill="#000000" stroke="none" transform="matrix(1,0,0,1,0,173.9212)" style="fill-opacity: 1; pointer-events: visible;" class="DimensionMark"><polygon points="5,5,0,0,5,-5"/></g></g><g transform="matrix(1,0,0,1,194.0234,188.5409)" class="SpaceDimensionsLabel"><g id="NameLabel" style="display: block;" class="TextLabel NameLabel"><text x="0" y="0em" fill="#000000" stroke="none" style="font-family: Verdana; font-size: 33px; fill-opacity: 1; cursor: default;">TUPA</text></g><g id="DimensionMeasureLabel" transform="matrix(1,0,0,1,-97,79.7813)" style="display: none;" class="TextLabel DimensionMeasureLabel"><text x="31.6953125" y="-1.2em" fill="#000000" stroke="none" style="font-family: Verdana; font-size: 33px; fill-opacity: 1; cursor: default;">15'2" x 11'5"</text><text x="0" y="0em" fill="#000000" stroke="none" style="font-family: Verdana; font-size: 33px; fill-opacity: 1; cursor: default;">4.63 m x 3.48 m</text></g></g></g></g><g id="ca0f0b0b-39f7-49df-a540-851ca9f84cd2" fill="#ffffff" stroke="#000000" style="fill-opacity: 1; stroke-opacity: 1; stroke-width: 0.2;" class="Space Outdoor Porch"><polygon points="297.70,649.26 297.70,799.34 520.44,799.34 520.44,781.07 535.85,781.07 535.38,799.34 557.63,799.34 557.63,815.34 741.74,815.34 741.74,799.34 760.64,799.34 760.64,780.79 776.64,780.79 776.64,799.34 984.22,799.34 984.22,649.26 776.47,649.26 776.30,668.65 760.30,668.65 760.30,649.47 297.70,649.26 297.70,649.26 "/><g transform="matrix(1,0,0,1,297.6951,649.4172)" class="Dimension"><g transform="matrix(1,0,0,1,0,0)" style="display: none;" class="Visual"><g id="mark1" fill="#000000" stroke="none" transform="matrix(1,0,0,1,343.2646,0)" style="fill-opacity: 1; pointer-events: visible;" class="DimensionMark"><polygon points="-5,5,0,0,5,5"/></g><g id="mark2" fill="#000000" stroke="none" transform="matrix(1,0,0,1,686.5294,82.8827)" style="fill-opacity: 1; pointer-events: visible;" class="DimensionMark"><polygon points="-5,-5,0,0,-5,5"/></g><g id="mark3" fill="#000000" stroke="none" transform="matrix(1,0,0,1,343.2646,165.9201)" style="fill-opacity: 1; pointer-events: visible;" class="DimensionMark"><polygon points="-5,-5,0,0,5,-5"/></g><g id="mark4" fill="#000000" stroke="none" transform="matrix(1,0,0,1,0,82.8827)" style="fill-opacity: 1; pointer-events: visible;" class="DimensionMark"><polygon points="5,5,0,0,5,-5"/></g></g><g transform="matrix(1,0,0,1,293.9914,89.1404)" class="SpaceDimensionsLabel"><g id="NameLabel" style="display: block;" class="TextLabel NameLabel"><text x="0" y="0em" fill="#000000" stroke="none" style="font-family: Verdana; font-size: 33px; fill-opacity: 1; cursor: default;">KUISTI</text></g><g id="DimensionMeasureLabel" transform="matrix(1,0,0,1,-81.164,79.4375)" style="display: none;" class="TextLabel DimensionMeasureLabel"><text x="42.1875" y="-1.2em" fill="#000000" stroke="none" style="font-family: Verdana; font-size: 33px; fill-opacity: 1; cursor: default;">22'6" x 5'5"</text><text x="0" y="0em" fill="#000000" stroke="none" style="font-family: Verdana; font-size: 33px; fill-opacity: 1; cursor: default;">6.87 m x 1.66 m</text></g></g></g></g><g id="a477ecf7-2ee0-4d2a-9d4c-19af47f018c1" fill="#ffffff" stroke="#ffffff" style="fill-opacity: 1; stroke-opacity: 1; stroke-width: 0.2;" class="Space Undefined"><polygon points="397.67,269.42 397.67,285.42 297.70,285.42 297.70,269.42 "/><g transform="matrix(1,0,0,1,297.6951,269.4202)" class="Dimension"><g transform="matrix(1,0,0,1,0,0)" style="display: none;" class="Visual"><g id="mark1" fill="#000000" stroke="none" transform="matrix(1,0,0,1,49.9856,0)" style="fill-opacity: 1; pointer-events: visible;" class="DimensionMark"><polygon points="-5,5,0,0,5,5"/></g><g id="mark2" fill="#000000" stroke="none" transform="matrix(1,0,0,1,99.9713,8)" style="fill-opacity: 1; pointer-events: visible;" class="DimensionMark"><polygon points="-5,-5,0,0,-5,5"/></g><g id="mark3" fill="#000000" stroke="none" transform="matrix(1,0,0,1,49.9856,16)" style="fill-opacity: 1; pointer-events: visible;" class="DimensionMark"><polygon points="-5,-5,0,0,5,-5"/></g><g id="mark4" fill="#000000" stroke="none" transform="matrix(1,0,0,1,0,8)" style="fill-opacity: 1; pointer-events: visible;" class="DimensionMark"><polygon points="5,5,0,0,5,-5"/></g></g><g transform="matrix(1,0,0,1,8,8)" class="SpaceDimensionsLabel"><g id="NameLabel" style="display: block;" class="TextLabel NameLabel"><text x="0" y="0em" fill="#000000" stroke="none" style="font-family: Verdana; font-size: 33px; fill-opacity: 1; cursor: default;">UNDEFINED</text></g><g id="DimensionMeasureLabel" transform="matrix(1,0,0,1,-40.5235,79.7969)" style="display: none;" class="TextLabel DimensionMeasureLabel"><text x="52.671875" y="-1.2em" fill="#000000" stroke="none" style="font-family: Verdana; font-size: 33px; fill-opacity: 1; cursor: default;">3'3" x 0'6"</text><text x="0" y="0em" fill="#000000" stroke="none" style="font-family: Verdana; font-size: 33px; fill-opacity: 1; cursor: default;">1.00 m x 0.16 m</text></g></g></g></g><g id="ce202fee-64b1-4026-a93e-eed88cce4220" fill="#ffffff" stroke="#ffffff" style="fill-opacity: 1; stroke-opacity: 1; stroke-width: 0.2;" class="Space Undefined"><polygon points="984.22,503.00 776.30,503.00 776.30,286.42 984.22,286.42 "/><g transform="matrix(1,0,0,1,776.2961,286.4183)" class="Dimension"><g transform="matrix(1,0,0,1,0,0)" style="display: none;" class="Visual"><g id="mark1" fill="#000000" stroke="none" transform="matrix(1,0,0,1,103.9642,0)" style="fill-opacity: 1; pointer-events: visible;" class="DimensionMark"><polygon points="-5,5,0,0,5,5"/></g><g id="mark2" fill="#000000" stroke="none" transform="matrix(1,0,0,1,207.9284,108.2894)" style="fill-opacity: 1; pointer-events: visible;" class="DimensionMark"><polygon points="-5,-5,0,0,-5,5"/></g><g id="mark3" fill="#000000" stroke="none" transform="matrix(1,0,0,1,103.9642,216.5787)" style="fill-opacity: 1; pointer-events: visible;" class="DimensionMark"><polygon points="-5,-5,0,0,5,-5"/></g><g id="mark4" fill="#000000" stroke="none" transform="matrix(1,0,0,1,0,108.2894)" style="fill-opacity: 1; pointer-events: visible;" class="DimensionMark"><polygon points="5,5,0,0,5,-5"/></g></g><g transform="matrix(1,0,0,1,103.9642,103.9642)" class="SpaceDimensionsLabel"><g id="NameLabel" style="display: block;" class="TextLabel NameLabel"><text x="0" y="0em" fill="#000000" stroke="none" style="font-family: Verdana; font-size: 33px; fill-opacity: 1; cursor: default;">UNDEFINED</text></g><g id="DimensionMeasureLabel" transform="matrix(1,0,0,1,-40.5235,79.7969)" style="display: none;" class="TextLabel DimensionMeasureLabel"><text x="42.1796875" y="-1.2em" fill="#000000" stroke="none" style="font-family: Verdana; font-size: 33px; fill-opacity: 1; cursor: default;">6'10" x 7'1"</text><text x="0" y="0em" fill="#000000" stroke="none" style="font-family: Verdana; font-size: 33px; fill-opacity: 1; cursor: default;">2.08 m x 2.17 m</text></g></g></g></g><g id="f6cf77e8-8cb7-4a87-a21d-31daa8eafa09" fill="#ffffff" stroke="#ffffff" style="fill-opacity: 1; stroke-opacity: 1; stroke-width: 0.2;" class="Space DraughtLobby"><polygon points="984.22,633.26 776.30,633.26 776.30,519.00 984.22,519.00 "/><g transform="matrix(1,0,0,1,776.2961,518.997)" class="Dimension"><g transform="matrix(1,0,0,1,0,0)" style="display: none;" class="Visual"><g id="mark1" fill="#000000" stroke="none" transform="matrix(1,0,0,1,103.9642,0)" style="fill-opacity: 1; pointer-events: visible;" class="DimensionMark"><polygon points="-5,5,0,0,5,5"/></g><g id="mark2" fill="#000000" stroke="none" transform="matrix(1,0,0,1,207.9284,57.1328)" style="fill-opacity: 1; pointer-events: visible;" class="DimensionMark"><polygon points="-5,-5,0,0,-5,5"/></g><g id="mark3" fill="#000000" stroke="none" transform="matrix(1,0,0,1,103.9642,114.2655)" style="fill-opacity: 1; pointer-events: visible;" class="DimensionMark"><polygon points="-5,-5,0,0,5,-5"/></g><g id="mark4" fill="#000000" stroke="none" transform="matrix(1,0,0,1,0,57.1328)" style="fill-opacity: 1; pointer-events: visible;" class="DimensionMark"><polygon points="5,5,0,0,5,-5"/></g></g><g transform="matrix(1,0,0,1,63.7481,108.1211)" class="SpaceDimensionsLabel"><g id="NameLabel" style="display: block;" class="TextLabel NameLabel"><text x="0" y="0em" fill="#000000" stroke="none" style="font-family: Verdana; font-size: 33px; fill-opacity: 1; cursor: default;">TK</text></g><g id="DimensionMeasureLabel" transform="matrix(1,0,0,1,-118.75,79.0625)" style="display: none;" class="TextLabel DimensionMeasureLabel"><text x="42.1796875" y="-1.2em" fill="#000000" stroke="none" style="font-family: Verdana; font-size: 33px; fill-opacity: 1; cursor: default;">6'10" x 3'9"</text><text x="0" y="0em" fill="#000000" stroke="none" style="font-family: Verdana; font-size: 33px; fill-opacity: 1; cursor: default;">2.08 m x 1.14 m</text></g></g></g></g><g id="Wall" fill="#000000" stroke="#000000" style="fill-opacity: 1; stroke-opacity: 1; stroke-width: 0.2;" class="Wall External"><polygon points="297.70,23.89 297.70,633.26 281.70,649.26 281.70,23.89 "/></g><g id="Wall" fill="#000000" stroke="#000000" style="fill-opacity: 1; stroke-opacity: 1; stroke-width: 0.2;" class="Wall External"><polygon points="281.70,649.26 984.22,649.26 1000.22,633.26 297.70,633.26 "/><g id="Window" fill="#f0f0ff" stroke="#000000" style="fill-opacity: 1; stroke-width: 1; stroke-opacity: 1;" class="Window Regular"><polygon points="409.67,649.26 547.56,649.26 547.56,633.26 409.67,633.26 "/><g id="Glass" class="Glass"><polygon points="409.67,649.26 547.56,649.26 547.56,633.26 409.67,633.26 "/></g><g id="Panel" class="Panel"><line x1="417.1676221967298" x2="540.0613629972386" y1="641.2625284815346" y2="641.2625284815346"/><line x1="417.1676221967298" x2="417.1676221967298" y1="649.2625284815346" y2="633.2625284815346"/><line x1="540.0613629972386" x2="540.0613629972386" y1="649.2625284815346" y2="633.2625284815346"/></g></g><g id="Window" fill="#f0f0ff" stroke="#000000" style="fill-opacity: 1; stroke-width: 1; stroke-opacity: 1;" class="Window Regular"><polygon points="561.98,649.26 659.77,649.26 659.77,633.26 561.98,633.26 "/><g id="Glass" class="Glass"><polygon points="561.98,649.26 659.77,649.26 659.77,633.26 561.98,633.26 "/></g><g id="Panel" class="Panel"><line x1="569.4816234731088" x2="652.2690148251037" y1="641.2625284815346" y2="641.2625284815344"/><line x1="569.4816234731088" x2="569.4816234731088" y1="649.2625284815346" y2="633.2625284815346"/><line x1="652.2690148251037" x2="652.2690148251037" y1="649.2625284815344" y2="633.2625284815344"/></g></g><g id="Door" fill="#ffffff" stroke="#000000" style="fill-opacity: 1; stroke-width: 1; stroke-opacity: 1;" class="Door Swing Beside"><polygon points="797.32,649.26 875.14,649.26 875.14,633.26 797.32,633.26 "/><g id="Threshold" class="Threshold"><polygon points="797.32,649.26 875.14,649.26 875.14,633.26 797.32,633.26 "/></g><g id="Panel" fill="none" style="" class="Panel Left Negative"><g id="PanelArea" fill="none" stroke="none" style="" class="PanelArea"><polygon points="797.32,649.26 875.14,649.26 875.14,633.26 797.32,633.26 "/></g><path d="M797.32,649.26 q0.00,77.81 77.81,77.81 l0.00,-77.81Z"/></g></g></g><g id="Wall" fill="#000000" stroke="#000000" style="fill-opacity: 1; stroke-opacity: 1; stroke-width: 0.2;" class="Wall External"><polygon points="984.22,633.26 984.22,42.34 1000.22,42.34 1000.22,649.26 "/></g><g id="Wall" fill="#000000" stroke="#000000" style="fill-opacity: 1; stroke-opacity: 1; stroke-width: 0.2;" class="Wall External"><polygon points="1000.22,42.33 281.70,42.64 281.70,58.64 984.22,58.34 "/><g id="Window" fill="#f0f0ff" stroke="#000000" style="fill-opacity: 1; stroke-width: 1; stroke-opacity: 1;" class="Window Regular"><polygon points="496.75,42.55 407.86,42.59 407.87,58.59 496.75,58.55 "/><g id="Glass" class="Glass"><polygon points="496.75,42.55 407.86,42.59 407.87,58.59 496.75,58.55 "/></g><g id="Panel" class="Panel"><line x1="489.2502469379664" x2="415.3637368528766" y1="50.550871468863726" y2="50.582717164287025"/><line x1="489.24679887228524" x2="489.2536950036475" y1="42.55087221193607" y2="58.550870725791384"/><line x1="415.3602887871955" x2="415.36718491855777" y1="42.582717907359374" y2="58.58271642121469"/></g></g><g id="Window" fill="#f0f0ff" stroke="#000000" style="fill-opacity: 1; stroke-width: 1; stroke-opacity: 1;" class="Window Regular"><polygon points="854.40,42.39 762.41,42.43 762.42,58.43 854.41,58.39 "/><g id="Glass" class="Glass"><polygon points="854.40,42.39 762.41,42.43 762.42,58.43 854.41,58.39 "/></g><g id="Panel" class="Panel"><line x1="846.9063077712472" x2="769.9160651915591" y1="50.396718755919544" y2="50.42990218565435"/><line x1="846.902859705566" x2="846.9097558369283" y1="42.396719498991885" y2="58.3967180128472"/><line x1="769.912617125878" x2="769.9195132572403" y1="42.4299029287267" y2="58.429901442582015"/></g></g></g><g id="Wall" fill="#000000" stroke="#000000" style="fill-opacity: 1; stroke-opacity: 1; stroke-width: 0.2;" class="Wall"><polygon points="659.42,270.42 1000.22,270.42 1000.22,286.42 659.42,286.42 "/></g><g id="Wall" fill="#000000" stroke="#000000" style="fill-opacity: 1; stroke-opacity: 1; stroke-width: 0.2;" class="Wall"><polygon points="776.30,270.42 776.30,395.51 714.27,395.51 714.27,270.42 "/></g><g id="Wall" fill="#000000" stroke="#000000" style="fill-opacity: 1; stroke-opacity: 1; stroke-width: 0.2;" class="Wall"><polygon points="776.30,395.51 776.30,668.65 760.30,668.65 760.30,395.51 "/><g id="Door" fill="#ffffff" stroke="#000000" style="fill-opacity: 1; stroke-width: 1; stroke-opacity: 1;" class="Door Swing Beside"><polygon points="776.30,542.29 776.30,614.18 760.30,614.18 760.30,542.29 "/><g id="Threshold" class="Threshold"><polygon points="776.30,542.29 776.30,614.18 760.30,614.18 760.30,542.29 "/></g><g id="Panel" fill="none" style="" class="Panel Right Positive"><g id="PanelArea" fill="none" stroke="none" style="" class="PanelArea"><polygon points="776.30,542.29 776.30,614.18 760.30,614.18 760.30,542.29 "/></g><path d="M760.30,542.29 q-71.88,0.00 -71.88,71.88 l71.88,0.00Z"/></g></g></g><g id="Wall" fill="#000000" stroke="#000000" style="fill-opacity: 1; stroke-opacity: 1; stroke-width: 0.2;" class="Wall"><polygon points="741.42,503.00 1000.22,503.00 1000.22,519.00 741.42,519.00 "/><g id="Door" fill="#ffffff" stroke="#000000" style="fill-opacity: 1; stroke-width: 1; stroke-opacity: 1;" class="Door Swing Beside"><polygon points="798.37,503.00 871.33,503.00 871.33,519.00 798.37,519.00 "/><g id="Threshold" class="Threshold"><polygon points="798.37,503.00 871.33,503.00 871.33,519.00 798.37,519.00 "/></g><g id="Panel" fill="none" style="" class="Panel Right Positive"><g id="PanelArea" fill="none" stroke="none" style="" class="PanelArea"><polygon points="798.37,503.00 871.33,503.00 871.33,519.00 798.37,519.00 "/></g><path d="M798.37,519.00 q0.00,72.97 72.97,72.97 l0.00,-72.97Z"/></g></g></g><g id="Wall" fill="#000000" stroke="#000000" style="fill-opacity: 1; stroke-opacity: 1; stroke-width: 0.2;" class="Wall External"><polygon points="297.70,649.26 297.70,669.07 281.70,669.07 281.70,649.26 "/></g><g id="Wall" fill="#000000" stroke="#000000" style="fill-opacity: 1; stroke-opacity: 1; stroke-width: 0.2;" class="Wall External"><polygon points="281.70,633.26 262.38,633.26 262.38,649.26 281.70,649.26 "/></g><g id="Wall" fill="#000000" stroke="#000000" style="fill-opacity: 1; stroke-opacity: 1; stroke-width: 0.2;" class="Wall External"><polygon points="281.70,285.42 262.41,285.42 262.41,269.42 281.70,269.42 "/></g><g id="Wall" fill="#000000" stroke="#000000" style="fill-opacity: 1; stroke-opacity: 1; stroke-width: 0.2;" class="Wall"><polygon points="297.70,285.42 397.67,285.42 397.67,269.42 297.70,269.42 "/></g><g id="Wall" fill="#000000" stroke="#000000" style="fill-opacity: 1; stroke-opacity: 1; stroke-width: 0.2;" class="Wall External"><polygon points="297.70,23.89 297.70,23.89 281.70,23.89 281.70,23.89 "/></g><g id="Wall" fill="#000000" stroke="#000000" style="fill-opacity: 1; stroke-opacity: 1; stroke-width: 0.2;" class="Wall External"><polygon points="281.70,58.64 262.41,58.64 262.41,42.64 281.69,42.64 "/></g><g id="Wall" fill="#000000" stroke="#000000" style="fill-opacity: 1; stroke-opacity: 1; stroke-width: 0.2;" class="Wall External"><polygon points="625.26,24.81 625.26,24.80 641.26,24.80 641.26,24.81 "/></g><g id="Wall" fill="#000000" stroke="#000000" style="fill-opacity: 1; stroke-opacity: 1; stroke-width: 0.2;" class="Wall External"><polygon points="984.22,23.95 984.22,23.95 1000.22,23.95 1000.22,23.95 "/></g><g id="Wall" fill="#000000" stroke="#000000" style="fill-opacity: 1; stroke-opacity: 1; stroke-width: 0.2;" class="Wall External"><polygon points="984.22,58.34 1019.29,58.34 1019.29,42.34 984.22,42.34 "/></g><g id="Wall" fill="#000000" stroke="#000000" style="fill-opacity: 1; stroke-opacity: 1; stroke-width: 0.2;" class="Wall External"><polygon points="1000.22,286.42 1018.96,286.42 1018.96,270.42 1000.22,270.42 "/></g><g id="Wall" fill="#000000" stroke="#000000" style="fill-opacity: 1; stroke-opacity: 1; stroke-width: 0.2;" class="Wall External"><polygon points="1000.22,519.00 1018.75,519.00 1018.75,503.00 1000.22,503.00 "/></g><g id="Wall" fill="#000000" stroke="#000000" style="fill-opacity: 1; stroke-opacity: 1; stroke-width: 0.2;" class="Wall External"><polygon points="1000.22,633.26 1019.64,633.26 1019.64,649.26 1000.22,649.26 "/></g><g id="Wall" fill="#000000" stroke="#000000" style="fill-opacity: 1; stroke-opacity: 1; stroke-width: 0.2;" class="Wall External"><polygon points="984.22,649.26 984.22,669.54 1000.22,669.54 1000.22,633.26 "/></g><g id="Railing" fill="#ffffff" stroke="#000000" style="fill-opacity: 1; stroke-opacity: 1; stroke-width: 0.2;" class="Railing"><polygon points="281.70,669.07 281.70,780.72 297.70,780.72 297.70,669.07 " style="stroke-dasharray: 0;"/></g><g id="Railing" fill="#ffffff" stroke="#000000" style="fill-opacity: 1; stroke-opacity: 1; stroke-width: 0.2;" class="Railing"><polygon points="1000.22,669.54 1000.22,780.95 984.22,780.95 984.22,669.54 " style="stroke-dasharray: 0;"/></g><g id="Wall" fill="#000000" stroke="#000000" style="fill-opacity: 1; stroke-opacity: 1; stroke-width: 0.2;" class="Wall"><polygon points="297.70,780.72 297.70,837.87 281.70,837.87 281.70,780.72 "/></g><g id="Wall" fill="#000000" stroke="#000000" style="fill-opacity: 1; stroke-opacity: 1; stroke-width: 0.2;" class="Wall"><polygon points="1000.22,780.95 1000.22,838.37 984.22,838.37 984.22,780.95 "/></g><g id="Wall" fill="#000000" stroke="#000000" style="fill-opacity: 1; stroke-opacity: 1; stroke-width: 0.2;" class="Wall"><polygon points="297.70,799.34 314.20,799.34 314.20,815.34 297.70,815.34 "/></g><g id="Wall" fill="#000000" stroke="#000000" style="fill-opacity: 1; stroke-opacity: 1; stroke-width: 0.2;" class="Wall"><polygon points="500.04,799.34 557.63,799.34 557.63,815.34 500.04,815.34 "/></g><g id="Wall" fill="#000000" stroke="#000000" style="fill-opacity: 1; stroke-opacity: 1; stroke-width: 0.2;" class="Wall"><polygon points="741.74,799.34 792.03,799.34 792.03,815.34 741.74,815.34 "/></g><g id="Wall" fill="#000000" stroke="#000000" style="fill-opacity: 1; stroke-opacity: 1; stroke-width: 0.2;" class="Wall"><polygon points="967.05,799.34 984.22,799.34 984.22,815.34 967.05,815.34 "/></g><g id="Wall" fill="#000000" stroke="#000000" style="fill-opacity: 1; stroke-opacity: 1; stroke-width: 0.2;" class="Wall"><polygon points="1000.22,799.34 1019.05,799.34 1019.05,815.34 1000.22,815.34 "/></g><g id="Wall" fill="#000000" stroke="#000000" style="fill-opacity: 1; stroke-opacity: 1; stroke-width: 0.2;" class="Wall"><polygon points="281.70,815.34 262.26,815.34 262.26,799.34 281.70,799.34 "/></g><g id="Wall" fill="#000000" stroke="#000000" style="fill-opacity: 1; stroke-opacity: 1; stroke-width: 0.2;" class="Wall"><polygon points="535.38,799.34 535.38,780.09 519.38,780.09 519.38,799.34 "/></g><g id="Wall" fill="#000000" stroke="#000000" style="fill-opacity: 1; stroke-opacity: 1; stroke-width: 0.2;" class="Wall"><polygon points="519.38,815.34 519.38,838.59 535.38,838.59 535.38,815.34 "/></g><g id="Wall" fill="#000000" stroke="#000000" style="fill-opacity: 1; stroke-opacity: 1; stroke-width: 0.2;" class="Wall"><polygon points="776.64,799.34 776.64,780.79 760.64,780.79 760.64,799.34 "/></g><g id="Wall" fill="#000000" stroke="#000000" style="fill-opacity: 1; stroke-opacity: 1; stroke-width: 0.2;" class="Wall"><polygon points="776.64,815.34 776.64,838.48 760.64,838.48 760.64,815.34 "/></g><g id="Railing" fill="#ffffff" stroke="#000000" style="fill-opacity: 1; stroke-opacity: 1; stroke-width: 0.2;" class="Railing"><polygon points="314.20,815.34 500.04,815.34 500.04,799.34 314.20,799.34 " style="stroke-dasharray: 0;"/></g><g id="Railing" fill="#ffffff" stroke="#000000" style="fill-opacity: 1; stroke-opacity: 1; stroke-width: 0.2;" class="Railing"><polygon points="792.03,815.34 967.05,815.34 967.05,799.34 792.03,799.34 " style="stroke-dasharray: 0;"/></g><g id="Wall" fill="#000000" stroke="#000000" style="fill-opacity: 1; stroke-opacity: 1; stroke-width: 0.2;" class="Wall External"><polygon points="297.70,23.89 297.70,23.89 281.70,23.89 281.70,23.89 "/></g><g id="Wall" fill="#000000" stroke="#000000" style="fill-opacity: 1; stroke-opacity: 1; stroke-width: 0.2;" class="Wall External"><polygon points="1000.22,42.34 1000.22,23.95 984.22,23.95 984.22,42.34 "/></g><g id="Wall" fill="#000000" stroke="#000000" style="fill-opacity: 1; stroke-opacity: 1; stroke-width: 0.2;" class="Wall External"><polygon points="625.96,42.49 625.96,24.81 641.96,24.81 641.96,42.49 "/></g><g id="Wall" fill="#000000" stroke="#000000" style="fill-opacity: 1; stroke-opacity: 1; stroke-width: 0.2;" class="Wall"><polygon points="641.80,58.49 641.80,149.46 625.80,149.46 625.80,58.49 "/></g><g id="Stairs" fill="#ffffff" stroke="#000000" style="fill-opacity: 1; stroke-opacity: 1;" class="Stairs"><g id="Flight" class="Flight"><polygon points="524.57,58.57 625.80,58.49 625.80,115.38 524.57,115.47 "/><g class="WalkinLine "><path fill="none" stroke="#d3d3d3" d="M524.57,87.02 L625.80,86.93 " style="pointer-events: none; marker-end: url(&quot;#Marker2&quot;);"/><defs><marker viewBox="0 0 12 12" markerWidth="12" markerHeight="12" orient="auto" refX="11" refY="6" id="Marker2" fill="#d3d3d3" stroke="#d3d3d3" style="pointer-events: none;"><polygon points="0.00,0.00 0.00,12.00 10.00,6.00 0.00,0.00 "/></marker></defs></g><g id="Steps" class="Steps"><line x1="524.5660262204816" x2="524.5660262204816" y1="58.57056032470368" y2="115.46856268262016"/><line x1="541.4385995595175" x2="541.4385995595175" y1="58.556390004853206" y2="115.45439236276968"/><line x1="558.3111728985533" x2="558.3111728985533" y1="58.542219685002735" y2="115.4402220429192"/><line x1="575.1837462375893" x2="575.1837462375893" y1="58.52804936515227" y2="115.42605172306875"/><line x1="592.0563195766251" x2="592.0563195766251" y1="58.5138790453018" y2="115.41188140321827"/><line x1="608.928892915661" x2="608.928892915661" y1="58.49970872545133" y2="115.3977110833678"/><line x1="625.8014662546968" x2="625.8014662546968" y1="58.485538405600856" y2="115.38354076351733"/></g></g></g><g id="Railing" fill="#ffffff" stroke="#000000" style="fill-opacity: 1; stroke-opacity: 1; stroke-width: 0.2;" class="Railing"><polygon points="524.57,115.47 625.80,115.47 625.80,123.47 524.57,123.47 " style="stroke-dasharray: 0;"/></g><g class="FixedFurniture ElectricalAppliance SaunaStove" transform="matrix(1.0122,0,0,1,776.2961,286.4183)" style="fill-opacity: 1; stroke-opacity: 1;" fill="#ffffff" stroke="#000000"> 
	   <g class="BoundaryPolygon" fill="rgb(255, 255, 255)" stroke="rgb(0, 0, 0)"> 
		<polygon points="0,0 60,0 60,35 0,35"/>
		</g>
	   <g class="electricitySign" fill="none" stroke="rgb(0, 0, 0)">
		<polyline points="0 35 39.7 17.5 21.4 17.5 60 0"/>
		</g>
        <g class="Direction" fill-opacity="0.9" style="display: none;">
            <polygon points="31.509 29.697 31.509 19.081 28.5 19.081 28.5 29.697 24.697 29.697 30 35 35.303 29.697 31.509 29.697" fill="#444444"/>
        </g> 
        <g class="Name" fill-opacity="0.9" style="display: none;">
            <text transform="translate(3 12)" font-size="12" font-family="Verdana, Sans-Serif">SS</text>
        </g>
        <desc>Width:60 Height:60 Depth:35 Elevation:20</desc>
	</g><g class="FixedFurniture CoatCloset" transform="matrix(0,1,-1,0,984.1777,518.997)" style="fill-opacity: 1; stroke-opacity: 1;" fill="#ffffff" stroke="#000000">
        <g class="BoundaryPolygon" fill="rgb(255, 255, 255)" stroke="rgb(0, 0, 0)">
                <polygon points="0.00,0.00 113.97,0.00 113.97,60.00 0.00,60.00 "/>
            </g>
        <g class="Hanger" fill="rgb(255, 255, 255)" stroke="rgb(154, 154, 154)" stroke-dasharray="5,5">
            <line x1="0" y1="30" x2="113.96883501038451" y2="30"/>
            </g>
        <g class="Direction" fill-opacity="0.9" style="display: none;">
            <polygon points="58.42,54.52 58.42,43.90 55.41,43.90 55.41,54.52 51.61,54.52 56.91,59.82 62.21,54.52 58.42,54.52 " fill="#444444"/>
        </g> 
        <g class="Name" fill-opacity="0.9" style="display: none;">
            <text transform="translate(3 12)" font-size="12" font-family="Verdana, Sans-Serif">CWH</text>
        </g>
        <desc>Width:120 Height:200 Depth:60 Elevation:0</desc>
     </g><g class="FixedFurniture SaunaBench" transform="matrix(0,1,-1,0,939.4973,286.4183)" style="fill-opacity: 1; stroke-opacity: 1;" fill="#ffffff" stroke="#000000">
            <g class="BoundaryPolygon" fill="rgb(255, 255, 255)" stroke="rgb(0, 0, 0)">
                <polygon points="0.00,0.00 216.55,0.00 216.55,31.16 0.00,31.16 "/>
            </g>
            <g class="Bench" fill="rgb(255, 255, 255)" stroke="rgb(154, 154, 154)" stroke-width="0.5">
                <line x1="0" y1="3.1158742605624457" x2="216.54613593761147" y2="3.1158742605624457"/>
                <line x1="0" y1="6.231748521124891" x2="216.54613593761147" y2="6.231748521124891"/>
                <line x1="0" y1="9.347622781687337" x2="216.54613593761147" y2="9.347622781687337"/>
                <line x1="0" y1="12.463497042249783" x2="216.54613593761147" y2="12.463497042249783"/>
                <line x1="0" y1="15.579371302812223" x2="216.54613593761147" y2="15.579371302812223"/>
                <line x1="0" y1="18.695245563374673" x2="216.54613593761147" y2="18.695245563374673"/>
                <line x1="0" y1="21.81111982393712" x2="216.54613593761147" y2="21.81111982393712"/>
                <line x1="0" y1="24.926994084499565" x2="216.54613593761147" y2="24.926994084499565"/>
                <line x1="0" y1="28.04286834506201" x2="216.54613593761147" y2="28.04286834506201"/>
            </g>
        <g class="Direction" fill-opacity="0.9" style="display: none;">
            <polygon points="110.04,27.00 110.04,16.38 107.03,16.38 107.03,27.00 103.23,27.00 108.53,32.30 113.83,27.00 110.04,27.00 " fill="#444444"/>
        </g> 
        <g class="Name" fill-opacity="0.9" style="display: none;">
            <text transform="translate(3 12)" font-size="12" font-family="Verdana, Sans-Serif">SB_MID</text>
        </g>
            <desc>Width:185 Height:5 Depth:40 Elevation:60</desc>
        </g><g class="FixedFurniture SaunaBench" transform="matrix(0,1,-1,0,984.2089,286.4183)" style="fill-opacity: 1; stroke-opacity: 1;" fill="#ffffff" stroke="#000000">
            <g class="BoundaryPolygon" fill="rgb(255, 255, 255)" stroke="rgb(0, 0, 0)">
                <polygon points="0.00,0.00 216.59,0.00 216.59,44.70 0.00,44.70 "/> 
            </g>
            <g class="Bench" fill="rgb(255, 255, 255)" stroke="rgb(154, 154, 154)" stroke-width="0.5">
                <line x1="0" y1="2.979733102563577" x2="216.58800726807155" y2="2.979733102563577"/>
                <line x1="0" y1="5.959466205127154" x2="216.58800726807155" y2="5.959466205127154"/>
                <line x1="0" y1="8.939199307690727" x2="216.58800726807155" y2="8.939199307690727"/>
                <line x1="0" y1="11.918932410254309" x2="216.58800726807155" y2="11.918932410254309"/>
                <line x1="0" y1="14.898665512817901" x2="216.58800726807155" y2="14.898665512817901"/>
                <line x1="0" y1="17.878398615381453" x2="216.58800726807155" y2="17.878398615381453"/>
                <line x1="0" y1="20.858131717945053" x2="216.58800726807155" y2="20.858131717945053"/>
                <line x1="0" y1="23.837864820508617" x2="216.58800726807155" y2="23.837864820508617"/>
                <line x1="0" y1="26.817597923072192" x2="216.58800726807155" y2="26.817597923072192"/>
                <line x1="0" y1="29.797331025635803" x2="216.58800726807155" y2="29.797331025635803"/>
                <line x1="0" y1="32.77706412819935" x2="216.58800726807155" y2="32.77706412819935"/>
                <line x1="0" y1="35.756797230762906" x2="216.58800726807155" y2="35.756797230762906"/>
                <line x1="0" y1="38.73653033332652" x2="216.58800726807155" y2="38.73653033332652"/>
                <line x1="0" y1="41.716263435890106" x2="216.58800726807155" y2="41.716263435890106"/>
            </g>
        <g class="Direction" fill-opacity="0.9" style="display: none;">
            <polygon points="111.70,40.72 111.70,30.10 108.69,30.10 108.69,40.72 104.89,40.72 110.19,46.02 115.49,40.72 111.70,40.72 " fill="#444444"/>
        </g> 
        <g class="Name" fill-opacity="0.9" style="display: none;">
            <text transform="translate(3 12)" font-size="12" font-family="Verdana, Sans-Serif">SB_HIGH</text>
        </g>
            <desc>Width:185 Height:5 Depth:60 Elevation:105</desc>
        </g><g class="FixedFurniture SaunaBench" transform="matrix(0,1,-1,0,908.2292,286.5137)" style="fill-opacity: 1; stroke-opacity: 1;" fill="#ffffff" stroke="#000000">
            <g class="BoundaryPolygon" fill="rgb(255, 255, 255)" stroke="rgb(0, 0, 0)">
                <polygon points="0.00,0.00 216.48,0.00 216.48,29.09 0.00,29.09 "/>
            </g>
            <g class="Bench" fill="rgb(255, 255, 255)" stroke="rgb(154, 154, 154)" stroke-width="0.5">
                <line x1="0" y1="2.9087378723400614" x2="216.48326725412304" y2="2.9087378723400614"/>
                <line x1="0" y1="5.817475744680123" x2="216.48326725412304" y2="5.817475744680123"/>
                <line x1="0" y1="8.726213617020184" x2="216.48326725412304" y2="8.726213617020184"/>
                <line x1="0" y1="11.634951489360246" x2="216.48326725412304" y2="11.634951489360246"/>
                <line x1="0" y1="14.543689361700306" x2="216.48326725412304" y2="14.543689361700306"/>
                <line x1="0" y1="17.452427234040368" x2="216.48326725412304" y2="17.452427234040368"/>
                <line x1="0" y1="20.361165106380433" x2="216.48326725412304" y2="20.361165106380433"/>
                <line x1="0" y1="23.26990297872049" x2="216.48326725412304" y2="23.26990297872049"/>
                <line x1="0" y1="26.178640851060553" x2="216.48326725412304" y2="26.178640851060553"/>
            </g>
        <g class="Direction" fill-opacity="0.9" style="display: none;">
            <polygon points="111.95,25.20 111.95,14.59 108.94,14.59 108.94,25.20 105.14,25.20 110.44,30.51 115.74,25.20 111.95,25.20 " fill="#444444"/>
        </g> 
        <g class="Name" fill-opacity="0.9" style="display: none;">
            <text transform="translate(3 12)" font-size="12" font-family="Verdana, Sans-Serif">SB_LOW</text>
        </g>
            <desc>Width:91 Height:5 Depth:40 Elevation:30</desc>
        </g><g class="FixedFurniture Fireplace" transform="matrix(0,1.4368,-0.9133,0,715.061,286.4182)" style="fill-opacity: 1; stroke-opacity: 1;" fill="#ffffff" stroke="#000000">     
	   <g class="BoundaryPolygon" fill="rgb(255, 255, 255)" stroke="none"> 
		<polygon points="0,0 75,0 75,60 0,60"/> 
		</g>
		
	   <g class="Lines" fill="none" stroke="rgb(76, 76, 76)"> 
		    <line x1="0.629" y1="9.556" x2="51.294" y2="60.205"/>
            <line x1="0.598" y1="25.167" x2="35.942" y2="60.5"/>
            <line x1="0.5" y1="40.841" x2="20.479" y2="60.5"/>
            <line x1="40.648" y1="0.5" x2="75.432" y2="35.274"/>
            <line x1="8.329" y1="0.5" x2="68.348" y2="60.5"/>
            <line x1="24.88" y1="0.5" x2="75.5" y2="51.104"/>
            <line x1="56.774" y1="0.5" x2="75.5" y2="19.22"/>
		</g>
		
	   <g class="OverlayPolygon" fill="none" stroke="rgb(0, 0, 0)"> 
		<polygon points="0.5 60.5 75.5 60.5 75.5 0.5 0.5 0.5 0.5 60.5"/>  
		</g>
		
	   <g class="FireBox" fill="rgb(255, 255, 255)" stroke="rgb(0, 0, 0)">	
		<rect x="22.053" y="19.92" width="32.571" height="40.58"/>
	   </g>
        <g class="Direction" fill-opacity="0.9" style="display: none;">
            <polygon points="39.409 54.797 39.409 44.181 36.4 44.181 36.4 54.797 32.597 54.797 37.9 60.1 43.203 54.797 39.409 54.797" fill="#444444"/>
        </g> 
        <g class="Name" fill-opacity="0.9" style="display: none;">
            <text transform="translate(3 12)" font-size="12" font-family="Verdana, Sans-Serif">FP</text>
        </g>
    <desc>Width:75 Height:120 Depth:60 Elevation:0</desc>
    </g><g id="Column" fill="#000000" stroke="none" style="fill-opacity: 1;" class="Column Rectangle"><polygon points="626.39,270.42 626.39,285.74 641.51,285.74 641.51,270.42 "/></g><g class="FixedFurniture BaseCabinet" transform="matrix(0,-1,1,0,297.6951,269.8305)" style="fill-opacity: 1; stroke-opacity: 1;" fill="#ffffff" stroke="#000000">
            <g class="BoundaryPolygon" fill="rgb(255, 255, 255)" stroke="rgb(0, 0, 0)">
                <polygon points="0.00,0.00 211.21,0.00 211.21,60.00 0.00,60.00 "/>
            </g>
            <g class="Direction" fill-opacity="0.9" style="display: none;">
                <polygon points="112.68,55.20 112.68,44.58 109.67,44.58 109.67,55.20 105.87,55.20 111.17,60.00 116.47,55.20 112.68,55.20 " fill="#444444"/>
            </g> 
            <g class="Name" fill-opacity="0.9" style="display: none;">
                <text transform="translate(3 12)" font-size="12" font-family="Verdana, Sans-Serif">CB</text>
            </g>
            <desc>Width:60 Height:90 Depth:60 Elevation:0</desc>
        </g><g class="FixedFurniture DoubleSink" transform="matrix(0,-1,1,0,298.394,200.3596)" style="fill-opacity: 1; stroke-opacity: 1;" fill="#ffffff" stroke="#000000">
            <g class="InnerPolygonLeft" fill="rgb(255, 255, 255)" stroke="rgb(0, 0, 0)">
                <polygon points="5 9.9 33.5 9.9 33.5 54.9 5 54.9"/>
            </g>
            <g class="InnerPolygonRight" fill="rgb(255, 255, 255)" stroke="rgb(0, 0, 0)">
                <polygon points="36.5 10 65 10 65 55 36.5 55"/>
            </g>
            <g class="OuterDrain" fill="rgb(255, 255, 255)" stroke="rgb(0, 0, 0)" stroke-width="0.8">
                <circle cx="19.7" cy="32.5" r="3.5"/>
                <circle cx="50.2" cy="32.5" r="3.5"/>
            </g>
            <g class="InnerDrain" fill="rgb(255, 255, 255)" stroke="rgb(0, 0, 0)" stroke-width="0.8">
                <circle cx="19.7" cy="32.5" r="2"/>
                <circle cx="50.2" cy="32.5" r="2"/>
            </g>
            <g class="Faucet" fill="rgb(255, 255, 255)" stroke="rgb(0, 0, 0)">
                <polygon points="32 4.9 38 4.9 38 18.9 32 18.9"/>
            </g>
            <g class="Direction" fill-opacity="0.9" style="display: none;">
                <polygon points="36.509 54.697 36.509 44.081 33.5 44.081 33.5 54.697 29.697 54.697 35 60 40.303 54.697 36.509 54.697" fill="#444444"/>
            </g> 
            <g class="Name" fill-opacity="0.9" style="display: none;">
                <text transform="translate(3 12)" font-size="12" font-family="Verdana, Sans-Serif">DSINK</text>
            </g>
         <desc>Width:70 Height:90 Depth:60 Elevation:0</desc>
        </g><g class="FixedFurniture WallCabinet" transform="matrix(0,-1,1,0,297.7264,270.1855)" style="fill-opacity: 0.7; stroke-opacity: 1;" fill="#ffffff" stroke="#000000">	
        <g class="BoundaryPolygon" fill="rgb(255, 255, 255)" stroke="rgb(0, 0, 0)">
                <polygon points="0.00,0.00 211.57,0.00 211.57,30.00 0.00,30.00 "/>
        </g>
        <g class="Direction" fill-opacity="0.9" style="display: none;">
                <polygon points="112.87,25.20 112.87,14.58 109.86,14.58 109.86,25.20 106.06,25.20 111.36,30.00 116.66,25.20 112.87,25.20 " fill="#444444"/>
        </g> 
        <g class="Name" fill-opacity="0.9" style="display: none;">
                <text transform="translate(3 12)" font-size="12" font-family="Verdana, Sans-Serif">UC</text>
        </g>
        <desc>Width:60 Height:60 Depth:50 Elevation:140</desc>
        </g><g fill="#0000ff" stroke="#0000ff" style="display: none;" class="SelectionControls"><g style="display: none;" class="rotateControl"><circle cx="534.4841546107311" cy="411.07047976595436" r="5" style="stroke : none; fill-opacity: 0.5; cursor:crosshair"/></g><g style="display: none;" class="ResizeNControl"><circle cx="0" cy="0" r="5" style="stroke : none; fill-opacity: 0.5"/></g><g style="display: none;" class="ResizeNEControl"><circle cx="0" cy="0" r="5" style="stroke : none; fill-opacity: 0.5"/></g><g style="display: none;" class="ResizeEControl"><circle cx="0" cy="0" r="5" style="stroke : none; fill-opacity: 0.5"/></g><g style="display: none;" class="ResizeSEControl"><circle cx="0" cy="0" r="5" style="stroke : none; fill-opacity: 0.5"/></g><g style="display: none;" class="ResizeSControl"><circle cx="0" cy="0" r="5" style="stroke : none; fill-opacity: 0.5"/></g><g style="display: none;" class="ResizeSWControl"><circle cx="0" cy="0" r="5" style="stroke : none; fill-opacity: 0.5"/></g><g style="display: none;" class="ResizeWControl"><circle cx="0" cy="0" r="5" style="stroke : none; fill-opacity: 0.5"/></g><g style="display: none;" class="ResizeNWControl"><circle cx="0" cy="0" r="5" style="stroke : none; fill-opacity: 0.5"/></g><g style="display: none;" class="removeControl"><polygon style="stroke : none; fill-opacity: 0.1" points="491.00,441.07 577.97,441.07 577.97,480.54 491.00,480.54 "/></g><g style="display: none;" class="copyPasteControl"><polygon style="stroke : none; fill-opacity: 0.1"/></g><g style="display: none;" class="translateControl"><polygon style="stroke : none; fill-opacity: 0.1; cursor:move" points="491.00,441.07 577.97,441.07 577.97,480.54 491.00,480.54 "/></g></g><g fill="#0000ff" stroke="#0000ff" style="display: none;" class="SelectionControls"><polygon fill="none" stroke="#0000ff" style="" points="297.70,285.42 760.30,285.42 760.30,633.26 297.70,633.26 "/><g style="display: none;" class="rotateControl"><circle cx="528.995636202528" cy="255.42020476595434" r="5" style="stroke : none; fill-opacity: 0.5; cursor:crosshair"/></g><g style="display: none;" class="ResizeNControl"><circle cx="0" cy="0" r="5" style="stroke : none; fill-opacity: 0.5"/></g><g style="display: none;" class="ResizeNEControl"><circle cx="0" cy="0" r="5" style="stroke : none; fill-opacity: 0.5"/></g><g style="display: none;" class="ResizeEControl"><circle cx="0" cy="0" r="5" style="stroke : none; fill-opacity: 0.5"/></g><g style="display: none;" class="ResizeSEControl"><circle cx="0" cy="0" r="5" style="stroke : none; fill-opacity: 0.5"/></g><g style="display: none;" class="ResizeSControl"><circle cx="0" cy="0" r="5" style="stroke : none; fill-opacity: 0.5"/></g><g style="display: none;" class="ResizeSWControl"><circle cx="0" cy="0" r="5" style="stroke : none; fill-opacity: 0.5"/></g><g style="display: none;" class="ResizeWControl"><circle cx="0" cy="0" r="5" style="stroke : none; fill-opacity: 0.5"/></g><g style="display: none;" class="ResizeNWControl"><circle cx="0" cy="0" r="5" style="stroke : none; fill-opacity: 0.5"/></g><g style="display: none;" class="removeControl"><polygon style="stroke : none; fill-opacity: 0.1"/></g><g style="display: none;" class="copyPasteControl"><polygon style="stroke : none; fill-opacity: 0.1"/></g><g style="display: none;" class="translateControl"><polygon style="stroke : none; fill-opacity: 0.1; cursor:move"/></g></g></g></g></g></svg>
