<?xml version="1.0"?>
<svg xmlns="http://www.w3.org/2000/svg" xmlns:xlink="http://www.w3.org/1999/xlink" height="2034.6199798583984" version="1.1" width="955.5300140380859" id="temp" viewBox="0 0 955.5300140380859 2034.6199798583984"><desc>Powered by CubiCasa</desc><defs/><g id="Model" class="Model v1-1"><g class="Floor"><g id="Floor-1" transform="matrix(1,0,0,1,0,0)" class="Floorplan Floor-1"><g id="Wall" class="Wall External" fill="#000000" stroke="#000000" style="fill-opacity: 1; stroke-opacity: 1; stroke-width: 0.2;"><polygon points="953.98,1517.28 146.45,1517.28 177.45,1494.28 923.98,1494.28 "/><g id="Door" fill="#ffffff" stroke="#000000" style="fill-opacity: 1; stroke-width: 1; stroke-opacity: 1;" class="Door Swing Beside"><polygon points="556.97,1517.28 486.01,1517.28 486.01,1494.28 556.97,1494.28 "/><g id="Threshold" class="Threshold"><polygon points="556.97,1517.28 486.01,1517.28 486.01,1494.28 556.97,1494.28 "/></g><g id="Panel" fill="none" style="" class="Panel Left Negative"><g id="PanelArea" fill="none" stroke="none" style="" class="PanelArea"><polygon points="556.97,1517.28 486.01,1517.28 486.01,1494.28 556.97,1494.28 "/></g><path d="M556.97,1517.28 q0.00,70.96 -70.96,70.96 l0.00,-70.96Z"/></g></g><g id="Window" fill="#f0f0ff" stroke="#000000" style="fill-opacity: 1; stroke-width: 1; stroke-opacity: 1;" class="Window Regular"><polygon points="822.70,1517.28 655.54,1517.28 655.54,1494.28 822.70,1494.28 "/><g id="Glass" class="Glass"><polygon points="822.70,1517.28 655.54,1517.28 655.54,1494.28 822.70,1494.28 "/></g><g id="Panel" class="Panel"><line x1="815.2000122070312" x2="663.0399780273438" y1="1505.780029296875" y2="1505.780029296875"/><line x1="815.2000122070312" x2="815.2000122070312" y1="1517.280029296875" y2="1494.280029296875"/><line x1="663.0399780273438" x2="663.0399780273438" y1="1517.280029296875" y2="1494.280029296875"/></g></g><g id="Window" fill="#f0f0ff" stroke="#000000" style="fill-opacity: 1; stroke-width: 1; stroke-opacity: 1;" class="Window Regular"><polygon points="389.82,1517.28 221.87,1517.28 221.87,1494.28 389.82,1494.28 "/><g id="Glass" class="Glass"><polygon points="389.82,1517.28 221.87,1517.28 221.87,1494.28 389.82,1494.28 "/></g><g id="Panel" class="Panel"><line x1="382.32000732421875" x2="229.3699951171875" y1="1505.780029296875" y2="1505.780029296875"/><line x1="382.32000732421875" x2="382.32000732421875" y1="1517.280029296875" y2="1494.280029296875"/><line x1="229.3699951171875" x2="229.3699951171875" y1="1517.280029296875" y2="1494.280029296875"/></g></g></g><g id="Wall" class="Wall External" fill="#000000" stroke="#000000" style="fill-opacity: 1; stroke-opacity: 1; stroke-width: 0.2;"><polygon points="146.45,1517.28 146.45,423.67 177.45,453.67 177.45,1494.28 "/></g><g id="Wall" class="Wall External" fill="#000000" stroke="#000000" style="fill-opacity: 1; stroke-opacity: 1; stroke-width: 0.2;"><polygon points="146.45,423.67 953.98,423.67 923.98,453.67 177.45,453.67 "/><g id="Door" fill="#ffffff" stroke="#000000" style="fill-opacity: 1; stroke-width: 1; stroke-opacity: 1;" class="Door Swing Opposite"><polygon points="522.70,423.67 594.93,423.67 594.93,453.67 522.70,453.67 "/><g id="Threshold" class="Threshold"><polygon points="522.70,423.67 594.93,423.67 594.93,453.67 522.70,453.67 "/></g><g id="Panel" fill="none" style="" class="Panel Left Negative"><g id="PanelArea" fill="none" stroke="none" style="" class="PanelArea"><polygon points="522.70,423.67 594.93,423.67 594.93,453.67 522.70,453.67 "/></g><path d="M522.70,423.67 q0.00,-72.23 72.23,-72.23 l0.00,72.23Z"/></g><g id="Panel" fill="none" style="" class="Panel Right Positive"><g id="PanelArea" fill="none" stroke="none" style="" class="PanelArea"><polygon points="522.70,423.67 594.93,423.67 594.93,453.67 522.70,453.67 "/></g><path d="M522.70,453.67 q0.00,72.23 72.23,72.23 l0.00,-72.23Z"/></g></g><g id="Window" fill="#f0f0ff" stroke="#000000" style="fill-opacity: 1; stroke-width: 1; stroke-opacity: 1;" class="Window Regular"><polygon points="313.87,423.67 491.21,423.67 491.21,453.67 313.87,453.67 "/><g id="Glass" class="Glass"><polygon points="313.87,423.67 491.21,423.67 491.21,453.67 313.87,453.67 "/></g><g id="Panel" class="Panel"><line x1="321.3699951171875" x2="483.7099914550781" y1="438.6700134277344" y2="438.6700134277344"/><line x1="321.3699951171875" x2="321.3699951171875" y1="423.6700134277344" y2="453.6700134277344"/><line x1="483.7099914550781" x2="483.7099914550781" y1="423.6700134277344" y2="453.6700134277344"/></g></g><g id="Window" fill="#f0f0ff" stroke="#000000" style="fill-opacity: 1; stroke-width: 1; stroke-opacity: 1;" class="Window Regular"><polygon points="713.47,423.67 884.32,423.67 884.32,453.67 713.47,453.67 "/><g id="Glass" class="Glass"><polygon points="713.47,423.67 884.32,423.67 884.32,453.67 713.47,453.67 "/></g><g id="Panel" class="Panel"><line x1="720.969970703125" x2="876.8200073242188" y1="438.6700134277344" y2="438.6700134277344"/><line x1="720.969970703125" x2="720.969970703125" y1="423.6700134277344" y2="453.6700134277344"/><line x1="876.8200073242188" x2="876.8200073242188" y1="423.6700134277344" y2="453.6700134277344"/></g></g></g><g id="Wall" class="Wall External" fill="#000000" stroke="#000000" style="fill-opacity: 1; stroke-opacity: 1; stroke-width: 0.2;"><polygon points="953.98,423.67 953.98,1517.28 923.98,1494.28 923.98,453.67 "/></g><g id="Wall" class="Wall" fill="#000000" stroke="#000000" style="fill-opacity: 1; stroke-opacity: 1; stroke-width: 0.2;"><polygon points="636.20,1517.28 636.20,986.07 649.20,996.88 649.20,1517.28 "/><g id="Door" fill="#ffffff" stroke="#000000" style="fill-opacity: 1; stroke-width: 1; stroke-opacity: 1;" class="Door Swing Beside"><polygon points="636.20,1190.85 636.20,1118.04 649.20,1118.04 649.20,1190.85 "/><g id="Threshold" class="Threshold"><polygon points="636.20,1190.85 636.20,1118.04 649.20,1118.04 649.20,1190.85 "/></g><g id="Panel" fill="none" style="" class="Panel Right Positive"><g id="PanelArea" fill="none" stroke="none" style="" class="PanelArea"><polygon points="636.20,1190.85 636.20,1118.04 649.20,1118.04 649.20,1190.85 "/></g><path d="M649.20,1190.85 q72.81,0.00 72.81,-72.81 l-72.81,0.00Z"/></g></g><g id="Door" fill="#ffffff" stroke="#000000" style="fill-opacity: 1; stroke-width: 1; stroke-opacity: 1;" class="Door Swing Beside"><polygon points="636.20,1080.08 636.20,1007.61 649.20,1007.61 649.20,1080.08 "/><g id="Threshold" class="Threshold"><polygon points="636.20,1080.08 636.20,1007.61 649.20,1007.61 649.20,1080.08 "/></g><g id="Panel" fill="none" style="" class="Panel Left Negative"><g id="PanelArea" fill="none" stroke="none" style="" class="PanelArea"><polygon points="636.20,1080.08 636.20,1007.61 649.20,1007.61 649.20,1080.08 "/></g><path d="M636.20,1080.08 q-72.47,0.00 -72.47,-72.47 l72.47,0.00Z"/></g></g></g><g id="Wall" class="Wall" fill="#000000" stroke="#000000" style="fill-opacity: 1; stroke-opacity: 1; stroke-width: 0.2;"><polygon points="636.20,986.07 953.98,986.07 953.98,996.88 649.20,996.88 "/></g><g id="Wall" class="Wall" fill="#000000" stroke="#000000" style="fill-opacity: 1; stroke-opacity: 1; stroke-width: 0.2;"><polygon points="636.20,1100.09 953.98,1100.09 953.98,1112.76 636.20,1112.76 "/></g><g id="Wall" class="Wall" fill="#000000" stroke="#000000" style="fill-opacity: 1; stroke-opacity: 1; stroke-width: 0.2;"><polygon points="453.83,1517.28 453.83,832.99 466.83,819.99 466.83,1517.28 "/><g id="Door" fill="#ffffff" stroke="#000000" style="fill-opacity: 1; stroke-width: 1; stroke-opacity: 1;" class="Door Swing Beside"><polygon points="453.83,1319.68 453.83,1251.06 466.83,1251.06 466.83,1319.68 "/><g id="Threshold" class="Threshold"><polygon points="453.83,1319.68 453.83,1251.06 466.83,1251.06 466.83,1319.68 "/></g><g id="Panel" fill="none" style="" class="Panel Left Negative"><g id="PanelArea" fill="none" stroke="none" style="" class="PanelArea"><polygon points="453.83,1319.68 453.83,1251.06 466.83,1251.06 466.83,1319.68 "/></g><path d="M453.83,1319.68 q-68.62,0.00 -68.62,-68.62 l68.62,0.00Z"/></g></g><g id="Door" fill="#ffffff" stroke="#000000" style="fill-opacity: 1; stroke-width: 1; stroke-opacity: 1;" class="Door Swing Beside"><polygon points="453.83,1088.36 453.83,1016.93 466.83,1016.93 466.83,1088.36 "/><g id="Threshold" class="Threshold"><polygon points="453.83,1088.36 453.83,1016.93 466.83,1016.93 466.83,1088.36 "/></g><g id="Panel" fill="none" style="" class="Panel Right Positive"><g id="PanelArea" fill="none" stroke="none" style="" class="PanelArea"><polygon points="453.83,1088.36 453.83,1016.93 466.83,1016.93 466.83,1088.36 "/></g><path d="M466.83,1088.36 q71.43,0.00 71.43,-71.43 l-71.43,0.00Z"/></g></g><g id="Door" fill="#ffffff" stroke="#000000" style="fill-opacity: 1; stroke-width: 1; stroke-opacity: 1;" class="Door Swing Beside"><polygon points="453.83,959.64 453.83,890.28 466.83,890.28 466.83,959.64 "/><g id="Threshold" class="Threshold"><polygon points="453.83,959.64 453.83,890.28 466.83,890.28 466.83,959.64 "/></g><g id="Panel" fill="none" style="" class="Panel Right Positive"><g id="PanelArea" fill="none" stroke="none" style="" class="PanelArea"><polygon points="453.83,959.64 453.83,890.28 466.83,890.28 466.83,959.64 "/></g><path d="M466.83,959.64 q69.36,0.00 69.36,-69.36 l-69.36,0.00Z"/></g></g></g><g id="Wall" class="Wall" fill="#000000" stroke="#000000" style="fill-opacity: 1; stroke-opacity: 1; stroke-width: 0.2;"><polygon points="466.83,819.99 146.45,819.99 146.45,832.99 453.83,832.99 "/></g><g id="Wall" class="Wall" fill="#000000" stroke="#000000" style="fill-opacity: 1; stroke-opacity: 1; stroke-width: 0.2;"><polygon points="466.83,974.33 146.45,974.33 146.45,987.33 466.83,987.33 "/><g id="Door" fill="#ffffff" stroke="#000000" style="fill-opacity: 1; stroke-width: 1; stroke-opacity: 1;" class="Door Swing Beside"><polygon points="339.47,974.33 271.31,974.33 271.31,987.33 339.47,987.33 "/><g id="Threshold" class="Threshold"><polygon points="339.47,974.33 271.31,974.33 271.31,987.33 339.47,987.33 "/></g><g id="Panel" fill="none" style="" class="Panel Left Negative"><g id="PanelArea" fill="none" stroke="none" style="" class="PanelArea"><polygon points="339.47,974.33 271.31,974.33 271.31,987.33 339.47,987.33 "/></g><path d="M339.47,974.33 q0.00,-68.16 -68.16,-68.16 l0.00,68.16Z"/></g></g></g><g id="Wall" class="Wall" fill="#000000" stroke="#000000" style="fill-opacity: 1; stroke-opacity: 1; stroke-width: 0.2;"><polygon points="356.05,1147.63 356.05,1052.91 338.61,1052.91 338.61,1131.75 "/></g><g id="Wall" class="Wall" fill="#000000" stroke="#000000" style="fill-opacity: 1; stroke-opacity: 1; stroke-width: 0.2;"><polygon points="356.05,1052.91 356.05,974.33 343.05,974.33 343.05,1052.91 "/></g><g id="Wall" class="Wall" fill="#000000" stroke="#000000" style="fill-opacity: 1; stroke-opacity: 1; stroke-width: 0.2;"><polygon points="466.83,1134.63 356.05,1134.63 338.61,1147.63 466.83,1147.63 "/></g><g id="Wall" class="Wall" fill="#000000" stroke="#000000" style="fill-opacity: 1; stroke-opacity: 1; stroke-width: 0.2;"><polygon points="338.61,1131.75 146.45,1131.75 146.45,1147.63 356.05,1147.63 "/></g><g id="Wall" class="Wall" fill="#000000" stroke="#000000" style="fill-opacity: 1; stroke-opacity: 1; stroke-width: 0.2;"><polygon points="649.20,1334.73 453.83,1334.73 453.83,1347.73 649.20,1347.73 "/><g id="Door" fill="#ffffff" stroke="#000000" style="fill-opacity: 1; stroke-width: 1; stroke-opacity: 1;" class="Door Swing Beside"><polygon points="543.05,1334.73 476.42,1334.73 476.42,1347.73 543.05,1347.73 "/><g id="Threshold" class="Threshold"><polygon points="543.05,1334.73 476.42,1334.73 476.42,1347.73 543.05,1347.73 "/></g><g id="Panel" fill="none" style="" class="Panel Right Positive"><g id="PanelArea" fill="none" stroke="none" style="" class="PanelArea"><polygon points="543.05,1334.73 476.42,1334.73 476.42,1347.73 543.05,1347.73 "/></g><path d="M543.05,1347.73 q0.00,66.63 -66.63,66.63 l0.00,-66.63Z"/></g></g></g><g id="Wall" class="Wall External" fill="#000000" stroke="#000000" style="fill-opacity: 1; stroke-opacity: 1; stroke-width: 0.2;"><polygon points="954.04,453.67 954.04,35.89 942.56,35.89 942.56,453.67 "/></g><g class="FixedFurniture Closet" transform="matrix(0,1,-1,0,636.2015,1347.9856)" style="fill-opacity: 1; stroke-opacity: 1;" fill="#ffffff" stroke="#000000">
        <g class="BoundaryPolygon" fill="rgb(255, 255, 255)" stroke="rgb(0, 0, 0)">
            <polygon points="0.00,0.00 146.29,0.00 146.29,60.00 0.00,60.00 "/>
        </g>
        <g class="Direction" fill-opacity="0.9" style="display: none;">
            <polygon points="76.82,54.70 76.82,44.08 73.82,44.08 73.82,54.70 70.01,54.70 75.32,60.00 80.62,54.70 76.82,54.70 " fill="#444444"/>
        </g> 
        <g class="Name" fill-opacity="0.9" style="display: none;">
            <text transform="translate(3 12)" font-size="12" font-family="Verdana, Sans-Serif">CL</text>
        </g>
        <desc>Width:60 Height:200 Depth:60 Elevation:0</desc>
     </g><g class="FixedFurniture Closet" transform="matrix(0,1,-1,0,636.2015,1207.3045)" style="fill-opacity: 1; stroke-opacity: 1;" fill="#ffffff" stroke="#000000">
        <g class="BoundaryPolygon" fill="rgb(255, 255, 255)" stroke="rgb(0, 0, 0)">
            <polygon points="0.00,0.00 127.43,0.00 127.43,60.00 0.00,60.00 "/>
        </g>
        <g class="Direction" fill-opacity="0.9" style="display: none;">
            <polygon points="66.92,54.70 66.92,44.08 63.92,44.08 63.92,54.70 60.11,54.70 65.42,60.00 70.72,54.70 66.92,54.70 " fill="#444444"/>
        </g> 
        <g class="Name" fill-opacity="0.9" style="display: none;">
            <text transform="translate(3 12)" font-size="12" font-family="Verdana, Sans-Serif">CL</text>
        </g>
        <desc>Width:60 Height:200 Depth:60 Elevation:0</desc>
     </g><g transform="matrix(1,0,0,1,649.2,996.88)" class="FixedFurniture Closet" style="fill-opacity: 1; stroke-opacity: 1;" fill="#ffffff" stroke="#000000"><desc>Width:120 Height:200 Depth:60 Elevation:0</desc><g class="BoundaryPolygon"><polygon points="0.00,0.00 0.00,31.19 224.79,31.19 224.79,103.36 274.95,103.36 274.95,0.12 0.00,0.00 " fill="#ffffff" stroke="#000000" style=""/></g></g><g class="FixedFurniture Closet" transform="matrix(-1,0,0,-1,702.9428,985.9294)" style="fill-opacity: 1; stroke-opacity: 1;" fill="#ffffff" stroke="#000000">
        <g class="BoundaryPolygon" fill="rgb(255, 255, 255)" stroke="rgb(0, 0, 0)">
            <polygon points="0.00,0.00 62.88,0.00 62.88,60.00 0.00,60.00 "/>
        </g>
        <g class="Direction" fill-opacity="0.9" style="display: none;">
            <polygon points="33.02,54.70 33.02,44.08 30.01,44.08 30.01,54.70 26.21,54.70 31.51,60.00 36.81,54.70 33.02,54.70 " fill="#444444"/>
        </g> 
        <g class="Name" fill-opacity="0.9" style="display: none;">
            <text transform="translate(3 12)" font-size="12" font-family="Verdana, Sans-Serif">CL</text>
        </g>
        <desc>Width:60 Height:200 Depth:60 Elevation:0</desc>
     </g><g class="FixedFurniture Closet" transform="matrix(-1,0,0,-1,750.6428,985.9293)" style="fill-opacity: 1; stroke-opacity: 1;" fill="#ffffff" stroke="#000000">
        <g class="BoundaryPolygon" fill="rgb(255, 255, 255)" stroke="rgb(0, 0, 0)">
            <polygon points="0.00,0.00 47.70,0.00 47.70,60.00 0.00,60.00 "/>
        </g>
        <g class="Direction" fill-opacity="0.9" style="display: none;">
            <polygon points="25.05,54.70 25.05,44.08 22.04,44.08 22.04,54.70 18.24,54.70 23.54,60.00 28.84,54.70 25.05,54.70 " fill="#444444"/>
        </g> 
        <g class="Name" fill-opacity="0.9" style="display: none;">
            <text transform="translate(3 12)" font-size="12" font-family="Verdana, Sans-Serif">CL</text>
        </g>
        <desc>Width:60 Height:200 Depth:60 Elevation:0</desc>
     </g><g transform="matrix(1,0,0,1,750.6428,985.9293)" class="FixedFurniture BaseCabinet" style="fill-opacity: 1; stroke-opacity: 1;" fill="#ffffff" stroke="#000000"><desc>Width:60 Height:90 Depth:60 Elevation:0</desc><g class="BoundaryPolygon"><polygon points="0.00,0.00 0.00,-60.14 115.96,-60.14 115.96,-532.43 173.34,-532.26 173.34,-0.07 0.00,0.00 " fill="#ffffff" stroke="#000000" style=""/></g></g><g class="FixedFurniture ElectricalAppliance IntegratedStove" transform="matrix(0,1,-1,0,926.1086,841.0439)" style="fill-opacity: 1; stroke-opacity: 1;" fill="#ffffff" stroke="#000000">
            <g class="BoundaryPolygon" fill="rgb(255, 255, 255)" stroke="rgb(0, 0, 0)">
                <polygon points="2.00,2.00 54.14,2.00 54.14,59.59 2.00,59.59 "/>
            </g>
            <g class="OuterCircle" fill="rgb(255, 255, 255)" stroke="rgb(0, 0, 0)" stroke-width="0.8">
                <circle cx="14.936102324260993" cy="16.439727327625477" r="8"/>
                <circle cx="41.07428139171775" cy="16.439727327625477" r="8"/>
                <circle cx="14.936102324260993" cy="45.10650185517238" r="8"/>
                <circle cx="41.07428139171775" cy="45.20925015097004" r="8"/>
            </g>
             <g class="Direction" fill-opacity="0.9" style="display: none;">
                <polygon points="29.88,56.71 29.88,46.10 26.87,46.10 26.87,56.71 23.07,56.71 28.37,61.52 33.67,56.71 29.88,56.71 " fill="#444444"/>
            </g> 
            <g class="Name" fill-opacity="0.9" style="display: none;">
                <text transform="translate(3 12)" font-size="12" font-family="Verdana, Sans-Serif">INT_STOVE</text>
            </g>
            <desc>Width:60 Height:90 Depth:30 Elevation:0</desc>
        </g><g class="FixedFurniture DoubleSink" transform="matrix(0,1,-1,0,927.9284,671.8515)" style="fill-opacity: 1; stroke-opacity: 1;" fill="#ffffff" stroke="#000000">
            <g class="InnerPolygonLeft" fill="rgb(255, 255, 255)" stroke="rgb(0, 0, 0)">
                <polygon points="5.00,9.90 29.72,9.90 29.72,54.90 5.00,54.90 "/>
            </g>
            <g class="InnerPolygonRight" fill="rgb(255, 255, 255)" stroke="rgb(0, 0, 0)">
                <polygon points="33.29,10.00 77.28,10.00 77.28,55.00 33.29,55.00 "/>
            </g>
            <g class="OuterDrain" fill="rgb(255, 255, 255)" stroke="rgb(0, 0, 0)" stroke-width="0.8">
                <circle cx="17.83464326249783" cy="32.5" r="3.5"/>
                <circle cx="54.692906004993354" cy="32.5" r="3.5"/>
            </g>
            <g class="InnerDrain" fill="rgb(255, 255, 255)" stroke="rgb(0, 0, 0)" stroke-width="0.8">
                <circle cx="17.83464326249783" cy="32.5" r="2"/>
                <circle cx="54.692906004993354" cy="32.5" r="2"/>
            </g>
            <g class="Faucet" fill="rgb(255, 255, 255)" stroke="rgb(0, 0, 0)">
                <polygon points="38.05,4.90 44.05,4.90 44.05,18.90 38.05,18.90 "/>
            </g>
            <g class="Direction" fill-opacity="0.9" style="display: none;">
                <polygon points="43.41,54.70 43.41,44.08 40.40,44.08 40.40,54.70 36.60,54.70 41.90,60.00 47.20,54.70 43.41,54.70 " fill="#444444"/>
            </g> 
            <g class="Name" fill-opacity="0.9" style="display: none;">
                <text transform="translate(3 12)" font-size="12" font-family="Verdana, Sans-Serif">DSINK</text>
            </g>
         <desc>Width:70 Height:90 Depth:60 Elevation:0</desc>
        </g><g class="FixedFurniture Shower" transform="matrix(1,0,0,1,194.7567,832.49)" style="fill-opacity: 1; stroke-opacity: 1;" fill="#ffffff" stroke="#000000"> 
	   <g class="BoundaryPolygon" fill="rgb(255, 255, 255)" stroke="rgb(0, 0, 0)" stroke-linejoin="round"> 
			<rect x="3.7" y="0.5" width="11.2" height="6.1"/>
			<rect x="17.6" y="0.5" width="11.2" height="6.1"/>
			<rect x="28.7" y="0.5" width="3.4" height="6.1"/>
			<rect x="0.5" y="0.5" width="3.2" height="6.1"/>
			<path d="M14.9,8.5c0,1.5-0.4,3.3-1.6,5    c-0.4,0.6-1,1.1-1.1,1.7c-0.2,1.1,0.3,2.8,2.5,3.2c0.5,0.1,1.3,0.1,1.6,0.1h-0.1c0.3,0,1.1,0,1.6-0.1c2.2-0.4,2.7-2.1,2.5-3.2    c-0.1-0.6-0.7-1.1-1.1-1.7c-1.2-1.7-1.6-3.5-1.6-5"/>
			<path d="M12.2,15.3c0.1,0.2,1.6,1.9,4.2,1.9 c2.4-0.1,3.7-1.7,3.9-1.9"/>
			<path d="M14.9,0.5h2.7v8c-0.9,0-1.8,0-2.7,0l0,0 C14.9,5.9,14.9,3.2,14.9,0.5z"/>
		</g>
	   <g class="Indicator" fill="rgb(255, 255, 255)" stroke="rgb(0, 0, 0)" stroke-width="0.5" stroke-linejoin="round"> 
			<path d="M3.7,3.6C5,3.1,5.2,3,5.2,3 c0,1.1,0,0,0,1.1C5.2,4.1,5.1,4.1,3.7,3.6"/>
			<path d="M28.7,3.6 C27.4,3.1,27.2,3,27.2,3c0,1.1,0,0,0,1.1C27.2,4.1,27.3,4.1,28.7,3.6"/>	
		</g>
        <desc>Width:35 Height:97 Depth:20 Elevation:135</desc>
	</g><g class="FixedFurniture ShowerScreen" transform="matrix(1,0,0,0.9005,246.0775,832.99)" style="fill-opacity: 1; stroke-opacity: 1;" fill="#ffffff" stroke="#000000"> 
	   <g class="BoundaryPolygon" fill="rgb(255, 255, 255)" stroke="rgb(0, 0, 0)" stroke-linejoin="round"> 
			<rect width="2.5" height="60"/>
        <desc>Width:2.5 Height:180 Depth:60 Elevation:135</desc>
	</g> 
    </g><g class="FixedFurniture BaseCabinet" transform="matrix(1,0,0,1,251.6825,832.717)" style="fill-opacity: 1; stroke-opacity: 1;" fill="#ffffff" stroke="#000000">
            <g class="BoundaryPolygon" fill="rgb(255, 255, 255)" stroke="rgb(0, 0, 0)">
                <polygon points="0.00,0.00 86.99,0.00 86.99,42.14 0.00,42.14 "/>
            </g>
            <g class="Direction" fill-opacity="0.9" style="display: none;">
                <polygon points="46.41,38.76 46.41,28.15 43.40,28.15 43.40,38.76 39.60,38.76 44.90,43.57 50.20,38.76 46.41,38.76 " fill="#444444"/>
            </g> 
            <g class="Name" fill-opacity="0.9" style="display: none;">
                <text transform="translate(3 12)" font-size="12" font-family="Verdana, Sans-Serif">CB</text>
            </g>
            <desc>Width:60 Height:90 Depth:60 Elevation:0</desc>
        </g><g class="FixedFurniture Closet" transform="matrix(1,0,0,1,338.6719,832.99)" style="fill-opacity: 1; stroke-opacity: 1;" fill="#ffffff" stroke="#000000">
        <g class="BoundaryPolygon" fill="rgb(255, 255, 255)" stroke="rgb(0, 0, 0)">
            <polygon points="0.00,0.00 51.40,0.00 51.40,42.11 0.00,42.11 "/>
        </g>
        <g class="Direction" fill-opacity="0.9" style="display: none;">
            <polygon points="26.99,38.39 26.99,27.77 23.98,27.77 23.98,38.39 20.18,38.39 25.48,43.69 30.79,38.39 26.99,38.39 " fill="#444444"/>
        </g> 
        <g class="Name" fill-opacity="0.9" style="display: none;">
            <text transform="translate(3 12)" font-size="12" font-family="Verdana, Sans-Serif">CL</text>
        </g>
        <desc>Width:60 Height:200 Depth:60 Elevation:0</desc>
     </g><g class="FixedFurniture Closet" transform="matrix(1,0,0,1,390.0702,832.99)" style="fill-opacity: 1; stroke-opacity: 1;" fill="#ffffff" stroke="#000000">
        <g class="BoundaryPolygon" fill="rgb(255, 255, 255)" stroke="rgb(0, 0, 0)">
            <polygon points="0.00,0.00 63.86,0.00 63.86,42.11 0.00,42.11 "/>
        </g>
        <g class="Direction" fill-opacity="0.9" style="display: none;">
            <polygon points="33.53,38.39 33.53,27.77 30.52,27.77 30.52,38.39 26.72,38.39 32.02,43.69 37.33,38.39 33.53,38.39 " fill="#444444"/>
        </g> 
        <g class="Name" fill-opacity="0.9" style="display: none;">
            <text transform="translate(3 12)" font-size="12" font-family="Verdana, Sans-Serif">CL</text>
        </g>
        <desc>Width:60 Height:200 Depth:60 Elevation:0</desc>
     </g><g class="FixedFurniture RoundSink" transform="matrix(0.9355,0,0,0.7641,265.8926,833.0219)" style="fill-opacity: 1; stroke-opacity: 1;" fill="#ffffff" stroke="#000000">
            <g class="InnerPolygon" fill="rgb(255, 255, 255)" stroke="rgb(0, 0, 0)">
                <circle cx="23.5" cy="27.8" r="23"/>
            </g>
            <g class="OuterDrain" fill="rgb(255, 255, 255)" stroke="rgb(0, 0, 0)" stroke-width="0.8">
                <circle cx="23.5" cy="27.7" r="3.5"/>
            </g>
            <g class="InnerDrain" fill="rgb(255, 255, 255)" stroke="rgb(0, 0, 0)" stroke-width="0.8">
                <circle cx="23.5" cy="27.7" r="2"/>
            </g>
            <g class="Faucet" fill="rgb(255, 255, 255)" stroke="rgb(0, 0, 0)">
                <polygon points="20.5 0.5 26.5 0.5 26.5 14.5 20.5 14.5 20.5 0.5"/>
            </g>
            <g class="Name" fill-opacity="0.9" style="display: none;">
                <text transform="translate(6.5 24.5)" font-size="12" font-family="Verdana, Sans-Serif">SINK</text>
            </g>
            <desc>Width:46 Height:90 Depth:50 Elevation:60</desc>
        </g><g class="FixedFurniture SaunaBench" transform="matrix(-1,0,0,-1,338.61,1131.75)" style="fill-opacity: 1; stroke-opacity: 1;" fill="#ffffff" stroke="#000000">
            <g class="BoundaryPolygon" fill="rgb(255, 255, 255)" stroke="rgb(0, 0, 0)">
                <polygon points="0.00,0.00 161.25,0.00 161.25,41.82 0.00,41.82 "/> 
            </g>
            <g class="Bench" fill="rgb(255, 255, 255)" stroke="rgb(154, 154, 154)" stroke-width="0.5">
                <line x1="0" y1="2.7881898127747218" x2="161.24576621632258" y2="2.7881898127747218"/>
                <line x1="0" y1="5.5763796255494436" x2="161.24576621632258" y2="5.5763796255494436"/>
                <line x1="0" y1="8.364569438324168" x2="161.24576621632258" y2="8.364569438324168"/>
                <line x1="0" y1="11.152759251098887" x2="161.24576621632258" y2="11.152759251098887"/>
                <line x1="0" y1="13.940949063873617" x2="161.24576621632258" y2="13.940949063873617"/>
                <line x1="0" y1="16.729138876648335" x2="161.24576621632258" y2="16.729138876648335"/>
                <line x1="0" y1="19.517328689423056" x2="161.24576621632258" y2="19.517328689423056"/>
                <line x1="0" y1="22.305518502197774" x2="161.24576621632258" y2="22.305518502197774"/>
                <line x1="0" y1="25.093708314972503" x2="161.24576621632258" y2="25.093708314972503"/>
                <line x1="0" y1="27.881898127747235" x2="161.24576621632258" y2="27.881898127747235"/>
                <line x1="0" y1="30.670087940521917" x2="161.24576621632258" y2="30.670087940521917"/>
                <line x1="0" y1="33.45827775329667" x2="161.24576621632258" y2="33.45827775329667"/>
                <line x1="0" y1="36.24646756607138" x2="161.24576621632258" y2="36.24646756607138"/>
                <line x1="0" y1="39.03465737884611" x2="161.24576621632258" y2="39.03465737884611"/>
            </g>
        <g class="Direction" fill-opacity="0.9" style="display: none;">
            <polygon points="83.16,38.10 83.16,27.48 80.15,27.48 80.15,38.10 76.35,38.10 81.65,43.40 86.95,38.10 83.16,38.10 " fill="#444444"/>
        </g> 
        <g class="Name" fill-opacity="0.9" style="display: none;">
            <text transform="translate(3 12)" font-size="12" font-family="Verdana, Sans-Serif">SB_HIGH</text>
        </g>
            <desc>Width:185 Height:5 Depth:60 Elevation:105</desc>
        </g><g class="FixedFurniture SaunaBench" transform="matrix(-1,0,0,-1,338.49,1089.9272)" style="fill-opacity: 1; stroke-opacity: 1;" fill="#ffffff" stroke="#000000">
            <g class="BoundaryPolygon" fill="rgb(255, 255, 255)" stroke="rgb(0, 0, 0)">
                <polygon points="0.00,0.00 161.04,0.00 161.04,36.90 0.00,36.90 "/>
            </g>
            <g class="Bench" fill="rgb(255, 255, 255)" stroke="rgb(154, 154, 154)" stroke-width="0.5">
                <line x1="0" y1="3.6901621680389916" x2="161.0392076616821" y2="3.6901621680389916"/>
                <line x1="0" y1="7.380324336077983" x2="161.0392076616821" y2="7.380324336077983"/>
                <line x1="0" y1="11.070486504116975" x2="161.0392076616821" y2="11.070486504116975"/>
                <line x1="0" y1="14.760648672155966" x2="161.0392076616821" y2="14.760648672155966"/>
                <line x1="0" y1="18.450810840194958" x2="161.0392076616821" y2="18.450810840194958"/>
                <line x1="0" y1="22.14097300823395" x2="161.0392076616821" y2="22.14097300823395"/>
                <line x1="0" y1="25.83113517627294" x2="161.0392076616821" y2="25.83113517627294"/>
                <line x1="0" y1="29.521297344311932" x2="161.0392076616821" y2="29.521297344311932"/>
                <line x1="0" y1="33.21145951235091" x2="161.0392076616821" y2="33.21145951235091"/>
            </g>
        <g class="Direction" fill-opacity="0.9" style="display: none;">
            <polygon points="81.83,31.97 81.83,21.36 78.82,21.36 78.82,31.97 75.02,31.97 80.32,37.28 85.63,31.97 81.83,31.97 " fill="#444444"/>
        </g> 
        <g class="Name" fill-opacity="0.9" style="display: none;">
            <text transform="translate(3 12)" font-size="12" font-family="Verdana, Sans-Serif">SB_MID</text>
        </g>
            <desc>Width:185 Height:5 Depth:40 Elevation:60</desc>
        </g><g class="FixedFurniture SaunaBench" transform="matrix(-1,0,0,-1,343.05,1053.0255)" style="fill-opacity: 1; stroke-opacity: 1;" fill="#ffffff" stroke="#000000">
            <g class="BoundaryPolygon" fill="rgb(255, 255, 255)" stroke="rgb(0, 0, 0)">
                <polygon points="0.00,0.00 165.57,0.00 165.57,18.31 0.00,18.31 "/>
            </g>
            <g class="Bench" fill="rgb(255, 255, 255)" stroke="rgb(154, 154, 154)" stroke-width="0.5">
                <line x1="0" y1="1.8311351762729444" x2="165.5676382252827" y2="1.8311351762729444"/>
                <line x1="0" y1="3.662270352545889" x2="165.5676382252827" y2="3.662270352545889"/>
                <line x1="0" y1="5.493405528818832" x2="165.5676382252827" y2="5.493405528818832"/>
                <line x1="0" y1="7.324540705091778" x2="165.5676382252827" y2="7.324540705091778"/>
                <line x1="0" y1="9.15567588136472" x2="165.5676382252827" y2="9.15567588136472"/>
                <line x1="0" y1="10.986811057637665" x2="165.5676382252827" y2="10.986811057637665"/>
                <line x1="0" y1="12.817946233910611" x2="165.5676382252827" y2="12.817946233910611"/>
                <line x1="0" y1="14.649081410183555" x2="165.5676382252827" y2="14.649081410183555"/>
                <line x1="0" y1="16.4802165864565" x2="165.5676382252827" y2="16.4802165864565"/>
            </g>
        <g class="Direction" fill-opacity="0.9" style="display: none;">
            <polygon points="85.62,15.86 85.62,5.25 82.61,5.25 82.61,15.86 78.81,15.86 84.11,21.17 89.41,15.86 85.62,15.86 " fill="#444444"/>
        </g> 
        <g class="Name" fill-opacity="0.9" style="display: none;">
            <text transform="translate(3 12)" font-size="12" font-family="Verdana, Sans-Serif">SB_LOW</text>
        </g>
            <desc>Width:91 Height:5 Depth:40 Elevation:30</desc>
        </g><g class="FixedFurniture ElectricalAppliance SaunaStove" transform="matrix(0.7177,0,0,0.7234,195.8985,992.4576)" style="fill-opacity: 1; stroke-opacity: 1;" fill="#ffffff" stroke="#000000"> 
	   <g class="BoundaryPolygon" fill="rgb(255, 255, 255)" stroke="rgb(0, 0, 0)"> 
		<polygon points="0,0 60,0 60,35 0,35"/>
		</g>
	   <g class="electricitySign" fill="none" stroke="rgb(0, 0, 0)">
		<polyline points="0 35 39.7 17.5 21.4 17.5 60 0"/>
		</g>
        <g class="Direction" fill-opacity="0.9" style="display: none;">
            <polygon points="31.509 29.697 31.509 19.081 28.5 19.081 28.5 29.697 24.697 29.697 30 35 35.303 29.697 31.509 29.697" fill="#444444"/>
        </g> 
        <g class="Name" fill-opacity="0.9" style="display: none;">
            <text transform="translate(3 12)" font-size="12" font-family="Verdana, Sans-Serif">SS</text>
        </g>
        <desc>Width:60 Height:60 Depth:35 Elevation:20</desc>
	</g><g id="FixedFurnitureSet" transform="matrix(1,0,0,1,374.7546,987.4081)" class="FixedFurnitureSet" style="fill-opacity: 1; stroke-opacity: 1;" fill="#ffffff" stroke="#000000"><g class="FixedFurniture BaseCabinet" transform="matrix(1,0,0,1,0,0)">
            <g class="BoundaryPolygon" fill="rgb(255, 255, 255)" stroke="rgb(0, 0, 0)">
            <polygon points="0.00,0.00 60.00,0.00 60.00,38.50 0.00,38.50 "/>
            </g>
            <g class="Direction" fill-opacity="0.9" style="display: none;">
                <polygon points="32.01,35.41 32.01,24.80 29.00,24.80 29.00,35.41 25.20,35.41 30.50,40.22 35.80,35.41 32.01,35.41 " fill="#444444"/>
            </g> 
            <g class="Name" fill-opacity="0.9" style="display: none;">
                <text transform="translate(3 12)" font-size="12" font-family="Verdana, Sans-Serif">CB</text>
            </g>
            <desc>Width:185 Height:5 Depth:60 Elevation:105</desc>
        </g><g class="FixedFurniture Sink" transform="matrix(1,0,0,1,0,0)">
            <g class="InnerPolygon" fill="rgb(255, 255, 255)" stroke="rgb(0, 0, 0)">
                <polygon points="5.00,9.70 55.00,9.70 55.00,35.09 5.00,35.09 "/>
            </g>
            <g class="OuterDrain" fill="rgb(255, 255, 255)" stroke="rgb(0, 0, 0)" stroke-width="0.8">
                <circle cx="30" cy="20.659164759594795" r="3.5"/>
            </g>
            <g class="InnerDrain" fill="rgb(255, 255, 255)" stroke="rgb(0, 0, 0)" stroke-width="0.8">
                <circle cx="30" cy="20.659164759594795" r="2"/>
            </g>
            <g class="Faucet" fill="rgb(255, 255, 255)" stroke="rgb(0, 0, 0)">
                <polygon points="27.00,3.21 33.00,3.21 33.00,17.21 27.00,17.21 "/>
            </g>
           <g class="Direction" fill-opacity="0.9" style="display: none;">
                <polygon points="32.01,35.41 32.01,24.80 29.00,24.80 29.00,35.41 25.20,35.41 30.50,40.22 35.80,35.41 32.01,35.41 " fill="#444444"/>
            </g> 
            <g class="Name" fill-opacity="0.9" style="display: none;">
                <text transform="translate(3 12)" font-size="12" font-family="Verdana, Sans-Serif">SINK</text>
            </g>
            <desc>Width:60 Height:90 Depth:60 Elevation:0</desc>
        </g></g><g class="FixedFurniture Toilet" transform="matrix(-0.9705,0,0,-0.9199,421.111,1135.0899)" style="fill-opacity: 1; stroke-opacity: 1;" fill="#ffffff" stroke="#000000">
	   <g class="BoundaryPolygon" fill="rgb(255, 255, 255)" stroke="rgb(0, 0, 0)"> 
		<rect x="0.502" y="0.5" width="39.989" height="17.98"/>
          <path d="M40.491,44.237S41.619,70.5,20.907,70.5C-.523,70.5.6,44.237.6,44.237L.5,18.48H40.491Z"/>
          <rect x="17.318" y="7.975" width="6.357" height="3.03"/>
		</g>
        <desc>Width:40 Height:85 Depth:70 Elevation:0</desc>
    </g><g id="Wall" fill="#000000" stroke="#000000" style="fill-opacity: 1; stroke-opacity: 1; stroke-width: 0.2;" class="Wall External"><polygon points="755.15,2034.62 955.53,2034.62 946.53,2025.62 764.15,2025.62 "/></g><g id="Wall" fill="#000000" stroke="#000000" style="fill-opacity: 1; stroke-opacity: 1; stroke-width: 0.2;" class="Wall External"><polygon points="955.53,2034.62 955.53,1724.79 946.53,1733.79 946.53,2025.62 "/></g><g id="Wall" fill="#000000" stroke="#000000" style="fill-opacity: 1; stroke-opacity: 1; stroke-width: 0.2;" class="Wall External"><polygon points="955.53,1724.79 755.15,1724.79 764.15,1733.79 946.53,1733.79 "/></g><g id="Wall" fill="#000000" stroke="#000000" style="fill-opacity: 1; stroke-opacity: 1; stroke-width: 0.2;" class="Wall External"><polygon points="755.15,1724.79 755.15,2034.62 764.15,2025.62 764.15,1733.79 "/><g id="Door" fill="#ffffff" stroke="#000000" style="fill-opacity: 1; stroke-width: 1; stroke-opacity: 1;" class="Door Swing Beside"><polygon points="755.15,1845.87 755.15,1917.67 764.15,1917.67 764.15,1845.87 "/><g id="Threshold" class="Threshold"><polygon points="755.15,1845.87 755.15,1917.67 764.15,1917.67 764.15,1845.87 "/></g><g id="Panel" fill="none" style="" class="Panel Right Negative"><g id="PanelArea" fill="none" stroke="none" style="" class="PanelArea"><polygon points="755.15,1845.87 755.15,1917.67 764.15,1917.67 764.15,1845.87 "/></g><path d="M755.15,1917.67 q-71.80,0.00 -71.80,-71.80 l71.80,0.00Z"/></g></g></g></g></g></g></svg>
